%TF.GenerationSoftware,KiCad,Pcbnew,6.0.11+dfsg-1*%
%TF.CreationDate,2024-04-11T02:19:39+03:00*%
%TF.ProjectId,LocalTrack,4c6f6361-6c54-4726-9163-6b2e6b696361,1.3*%
%TF.SameCoordinates,PX7270e00PY47868c0*%
%TF.FileFunction,Copper,L2,Bot*%
%TF.FilePolarity,Positive*%
%FSLAX46Y46*%
G04 Gerber Fmt 4.6, Leading zero omitted, Abs format (unit mm)*
G04 Created by KiCad (PCBNEW 6.0.11+dfsg-1) date 2024-04-11 02:19:39*
%MOMM*%
%LPD*%
G01*
G04 APERTURE LIST*
G04 Aperture macros list*
%AMRoundRect*
0 Rectangle with rounded corners*
0 $1 Rounding radius*
0 $2 $3 $4 $5 $6 $7 $8 $9 X,Y pos of 4 corners*
0 Add a 4 corners polygon primitive as box body*
4,1,4,$2,$3,$4,$5,$6,$7,$8,$9,$2,$3,0*
0 Add four circle primitives for the rounded corners*
1,1,$1+$1,$2,$3*
1,1,$1+$1,$4,$5*
1,1,$1+$1,$6,$7*
1,1,$1+$1,$8,$9*
0 Add four rect primitives between the rounded corners*
20,1,$1+$1,$2,$3,$4,$5,0*
20,1,$1+$1,$4,$5,$6,$7,0*
20,1,$1+$1,$6,$7,$8,$9,0*
20,1,$1+$1,$8,$9,$2,$3,0*%
G04 Aperture macros list end*
%TA.AperFunction,ComponentPad*%
%ADD10O,1.100000X1.800000*%
%TD*%
%TA.AperFunction,ComponentPad*%
%ADD11R,1.700000X1.700000*%
%TD*%
%TA.AperFunction,ComponentPad*%
%ADD12O,1.700000X1.700000*%
%TD*%
%TA.AperFunction,ComponentPad*%
%ADD13RoundRect,0.249600X-0.625400X0.350400X-0.625400X-0.350400X0.625400X-0.350400X0.625400X0.350400X0*%
%TD*%
%TA.AperFunction,ComponentPad*%
%ADD14O,1.750000X1.200000*%
%TD*%
%TA.AperFunction,SMDPad,CuDef*%
%ADD15RoundRect,0.218750X-0.218750X-0.256250X0.218750X-0.256250X0.218750X0.256250X-0.218750X0.256250X0*%
%TD*%
%TA.AperFunction,SMDPad,CuDef*%
%ADD16RoundRect,0.218750X-0.256250X0.218750X-0.256250X-0.218750X0.256250X-0.218750X0.256250X0.218750X0*%
%TD*%
%TA.AperFunction,ComponentPad*%
%ADD17C,1.500000*%
%TD*%
%TA.AperFunction,SMDPad,CuDef*%
%ADD18R,0.900000X0.800000*%
%TD*%
%TA.AperFunction,SMDPad,CuDef*%
%ADD19R,1.800000X3.000000*%
%TD*%
%TA.AperFunction,ViaPad*%
%ADD20C,0.800000*%
%TD*%
%TA.AperFunction,Conductor*%
%ADD21C,0.400000*%
%TD*%
%TA.AperFunction,Conductor*%
%ADD22C,0.200000*%
%TD*%
G04 APERTURE END LIST*
D10*
X40100000Y-72800000D03*
X40100000Y-69300000D03*
X32900000Y-72800000D03*
X32900000Y-69300000D03*
D11*
X45700000Y-54900000D03*
D12*
X45700000Y-52360000D03*
X45700000Y-49820000D03*
X45700000Y-47280000D03*
X45700000Y-44740000D03*
D13*
X5300000Y-52300000D03*
D14*
X5300000Y-54300000D03*
D15*
X34912500Y-65200000D03*
X36487500Y-65200000D03*
D16*
X35500000Y-71812500D03*
X35500000Y-73387500D03*
D17*
X25000000Y-37500000D03*
D16*
X37500000Y-71812500D03*
X37500000Y-73387500D03*
D18*
X35500000Y-69150000D03*
X35500000Y-67250000D03*
X37500000Y-68200000D03*
D19*
X15300000Y-60800000D03*
X12800000Y-60800000D03*
D20*
X20400000Y-61200000D03*
X20400000Y-55750000D03*
X37400000Y-63200000D03*
X26800000Y-48000000D03*
X23500000Y-40300000D03*
X28500000Y-72500000D03*
X47500000Y-46000000D03*
X35600000Y-47200000D03*
X47000000Y-23500000D03*
X27300000Y-44400000D03*
X12100000Y-47700000D03*
X35000000Y-63150000D03*
X33700000Y-38300000D03*
X9400000Y-42500000D03*
X37100000Y-22300000D03*
X14900000Y-42500000D03*
X40750000Y-35675000D03*
X28500000Y-40400000D03*
X33700000Y-33150000D03*
X19300000Y-65600000D03*
X44400000Y-42900000D03*
X10200000Y-18800000D03*
X29300000Y-31800000D03*
X2400000Y-38800000D03*
X14400000Y-20100000D03*
X8900000Y-2500000D03*
X38000000Y-35700000D03*
X16200000Y-58100000D03*
X22500000Y-59700000D03*
X10300000Y-22300000D03*
X41900000Y-50800000D03*
X33300000Y-51500000D03*
X27300000Y-55400000D03*
X20200000Y-34500000D03*
X30800000Y-55400000D03*
X46900000Y-17400000D03*
X12400000Y-50900000D03*
X47700000Y-31400000D03*
X42300000Y-22300000D03*
X2400000Y-36200000D03*
X35600000Y-43500000D03*
X25800000Y-15800000D03*
X26100000Y-31600000D03*
X33300000Y-53200000D03*
X8400000Y-65100000D03*
X22300000Y-51200000D03*
X41100000Y-2500000D03*
X33400000Y-65200000D03*
X25500000Y-61200000D03*
X37900000Y-53800000D03*
X37900000Y-51000000D03*
X39800000Y-42200000D03*
X39800000Y-46200000D03*
X38400000Y-42200000D03*
X38400000Y-46200000D03*
X12800000Y-56700000D03*
X1200000Y-47500000D03*
X10500000Y-58100000D03*
X15300000Y-56750000D03*
X2400000Y-48700000D03*
X2400000Y-46200000D03*
D21*
X5300000Y-52300000D02*
X19200000Y-52300000D01*
X20400000Y-53500000D02*
X20400000Y-55750000D01*
X20400000Y-61200000D02*
X20400000Y-55750000D01*
X19200000Y-52300000D02*
X20400000Y-53500000D01*
D22*
X34912500Y-65200000D02*
X33400000Y-65200000D01*
X37500000Y-73387500D02*
X36925000Y-73387500D01*
X36500000Y-73387500D02*
X35500000Y-73387500D01*
X36487500Y-73375000D02*
X36500000Y-73387500D01*
X36487500Y-65200000D02*
X36487500Y-73375000D01*
X36925000Y-73387500D02*
X36500000Y-73387500D01*
X37500000Y-68200000D02*
X37500000Y-71812500D01*
X27750000Y-65850000D02*
X25950000Y-65850000D01*
X28200000Y-71000000D02*
X28200000Y-66300000D01*
X35500000Y-69150000D02*
X35500000Y-71812500D01*
X28700000Y-71500000D02*
X28200000Y-71000000D01*
X35200000Y-71500000D02*
X28700000Y-71500000D01*
X28200000Y-66300000D02*
X27750000Y-65850000D01*
X35500000Y-71812500D02*
X35500000Y-71800000D01*
X35500000Y-71800000D02*
X35200000Y-71500000D01*
X25950000Y-65850000D02*
X25500000Y-65400000D01*
X25500000Y-65400000D02*
X25500000Y-61200000D01*
X37900000Y-53800000D02*
X37900000Y-51000000D01*
X39800000Y-46200000D02*
X39800000Y-42200000D01*
X38400000Y-46200000D02*
X38400000Y-42200000D01*
X1200000Y-65800000D02*
X1200000Y-47500000D01*
X12800000Y-60800000D02*
X12800000Y-56700000D01*
X1600000Y-66200000D02*
X1200000Y-65800000D01*
X9300000Y-66200000D02*
X1600000Y-66200000D01*
X10000000Y-60800000D02*
X9500000Y-61300000D01*
X9500000Y-61300000D02*
X9500000Y-66000000D01*
X12800000Y-60800000D02*
X10000000Y-60800000D01*
X9500000Y-66000000D02*
X9300000Y-66200000D01*
X15300000Y-60800000D02*
X15300000Y-56750000D01*
X15300000Y-56750000D02*
X13950000Y-55400000D01*
X10500000Y-56600000D02*
X10500000Y-58100000D01*
X11700000Y-55400000D02*
X10500000Y-56600000D01*
X13950000Y-55400000D02*
X11700000Y-55400000D01*
X2400000Y-46200000D02*
X2400000Y-48700000D01*
%TA.AperFunction,Conductor*%
G36*
X41504843Y-1000477D02*
G01*
X41685388Y-1018259D01*
X41704418Y-1022045D01*
X41788886Y-1047667D01*
X41873353Y-1073290D01*
X41891283Y-1080717D01*
X42046969Y-1163933D01*
X42063106Y-1174715D01*
X42199573Y-1286710D01*
X42213290Y-1300427D01*
X42280102Y-1381837D01*
X42325285Y-1436894D01*
X42336067Y-1453031D01*
X42419283Y-1608717D01*
X42426710Y-1626647D01*
X42477955Y-1795580D01*
X42481741Y-1814614D01*
X42499523Y-1995157D01*
X42500000Y-2004861D01*
X42500000Y-7500000D01*
X47995139Y-7500000D01*
X48004843Y-7500477D01*
X48185388Y-7518259D01*
X48204418Y-7522045D01*
X48288886Y-7547667D01*
X48373353Y-7573290D01*
X48391283Y-7580717D01*
X48546969Y-7663933D01*
X48563106Y-7674715D01*
X48699573Y-7786710D01*
X48713290Y-7800427D01*
X48780102Y-7881837D01*
X48825285Y-7936894D01*
X48836067Y-7953031D01*
X48919283Y-8108717D01*
X48926710Y-8126647D01*
X48977955Y-8295580D01*
X48981741Y-8314614D01*
X48999523Y-8495157D01*
X49000000Y-8504861D01*
X49000000Y-66495139D01*
X48999523Y-66504843D01*
X48982591Y-66676759D01*
X48981741Y-66685386D01*
X48977955Y-66704420D01*
X48926710Y-66873353D01*
X48919283Y-66891283D01*
X48836067Y-67046969D01*
X48825285Y-67063106D01*
X48713290Y-67199573D01*
X48699573Y-67213290D01*
X48618163Y-67280102D01*
X48563106Y-67325285D01*
X48546969Y-67336067D01*
X48391283Y-67419283D01*
X48373353Y-67426710D01*
X48288887Y-67452332D01*
X48204418Y-67477955D01*
X48185388Y-67481741D01*
X48024672Y-67497570D01*
X48004843Y-67499523D01*
X47995139Y-67500000D01*
X42500000Y-67500000D01*
X42500000Y-72995139D01*
X42499523Y-73004843D01*
X42481741Y-73185386D01*
X42477955Y-73204420D01*
X42426710Y-73373353D01*
X42419283Y-73391283D01*
X42336067Y-73546969D01*
X42325285Y-73563106D01*
X42280102Y-73618163D01*
X42213290Y-73699573D01*
X42199573Y-73713290D01*
X42145671Y-73757526D01*
X42063106Y-73825285D01*
X42046969Y-73836067D01*
X41891283Y-73919283D01*
X41873353Y-73926710D01*
X41857256Y-73931593D01*
X41704418Y-73977955D01*
X41685388Y-73981741D01*
X41549283Y-73995146D01*
X41504843Y-73999523D01*
X41495139Y-74000000D01*
X40503497Y-74000000D01*
X40445306Y-73981093D01*
X40409342Y-73931593D01*
X40409342Y-73870407D01*
X40445306Y-73820907D01*
X40464736Y-73809904D01*
X40468831Y-73808162D01*
X40478753Y-73802502D01*
X40610349Y-73705659D01*
X40618706Y-73697866D01*
X40724488Y-73573352D01*
X40730831Y-73563840D01*
X40805130Y-73418333D01*
X40809114Y-73407623D01*
X40848269Y-73247612D01*
X40849589Y-73238933D01*
X40849906Y-73233822D01*
X40850000Y-73230788D01*
X40850000Y-72920680D01*
X40845878Y-72907995D01*
X40841757Y-72905000D01*
X39365680Y-72905000D01*
X39352995Y-72909122D01*
X39350000Y-72913243D01*
X39350000Y-73190929D01*
X39350332Y-73196641D01*
X39364480Y-73317995D01*
X39367111Y-73329123D01*
X39422856Y-73482698D01*
X39427974Y-73492919D01*
X39517554Y-73629550D01*
X39524887Y-73638320D01*
X39643496Y-73750679D01*
X39652648Y-73757526D01*
X39752274Y-73815394D01*
X39793095Y-73860970D01*
X39799331Y-73921837D01*
X39768600Y-73974745D01*
X39712639Y-73999484D01*
X39702549Y-74000000D01*
X38187647Y-74000000D01*
X38129456Y-73981093D01*
X38093492Y-73931593D01*
X38093492Y-73870407D01*
X38100694Y-73856279D01*
X38099658Y-73855751D01*
X38156415Y-73744360D01*
X38156415Y-73744359D01*
X38159951Y-73737420D01*
X38164982Y-73705659D01*
X38174891Y-73643092D01*
X38174891Y-73643090D01*
X38175500Y-73639246D01*
X38175500Y-73135754D01*
X38159951Y-73037580D01*
X38099658Y-72919249D01*
X38005751Y-72825342D01*
X37998814Y-72821807D01*
X37998812Y-72821806D01*
X37894360Y-72768585D01*
X37894359Y-72768585D01*
X37887420Y-72765049D01*
X37879727Y-72763830D01*
X37879725Y-72763830D01*
X37793092Y-72750109D01*
X37793090Y-72750109D01*
X37789246Y-72749500D01*
X37210754Y-72749500D01*
X37206910Y-72750109D01*
X37206908Y-72750109D01*
X37120275Y-72763830D01*
X37120273Y-72763830D01*
X37112580Y-72765049D01*
X37105641Y-72768585D01*
X37105640Y-72768585D01*
X37001188Y-72821806D01*
X37001186Y-72821807D01*
X36994249Y-72825342D01*
X36957004Y-72862587D01*
X36902487Y-72890364D01*
X36842055Y-72880793D01*
X36798790Y-72837528D01*
X36788000Y-72792583D01*
X36788000Y-72679320D01*
X39350000Y-72679320D01*
X39354122Y-72692005D01*
X39358243Y-72695000D01*
X39979320Y-72695000D01*
X39992005Y-72690878D01*
X39995000Y-72686757D01*
X39995000Y-72679320D01*
X40205000Y-72679320D01*
X40209122Y-72692005D01*
X40213243Y-72695000D01*
X40834320Y-72695000D01*
X40847005Y-72690878D01*
X40850000Y-72686757D01*
X40850000Y-72409071D01*
X40849668Y-72403359D01*
X40835520Y-72282005D01*
X40832889Y-72270877D01*
X40777144Y-72117302D01*
X40772026Y-72107081D01*
X40682446Y-71970450D01*
X40675113Y-71961680D01*
X40556504Y-71849321D01*
X40547352Y-71842474D01*
X40406074Y-71760412D01*
X40395593Y-71755855D01*
X40239223Y-71708495D01*
X40227975Y-71706472D01*
X40220651Y-71706017D01*
X40207734Y-71709346D01*
X40205427Y-71712140D01*
X40205000Y-71714381D01*
X40205000Y-72679320D01*
X39995000Y-72679320D01*
X39995000Y-71722704D01*
X39990878Y-71710019D01*
X39990274Y-71709580D01*
X39983127Y-71709064D01*
X39892473Y-71724642D01*
X39881507Y-71727869D01*
X39731166Y-71791840D01*
X39721247Y-71797498D01*
X39589651Y-71894341D01*
X39581294Y-71902134D01*
X39475512Y-72026648D01*
X39469169Y-72036160D01*
X39394870Y-72181667D01*
X39390886Y-72192377D01*
X39351731Y-72352388D01*
X39350411Y-72361067D01*
X39350094Y-72366178D01*
X39350000Y-72369212D01*
X39350000Y-72679320D01*
X36788000Y-72679320D01*
X36788000Y-72407417D01*
X36806907Y-72349226D01*
X36856407Y-72313262D01*
X36917593Y-72313262D01*
X36957004Y-72337413D01*
X36994249Y-72374658D01*
X37001186Y-72378193D01*
X37001188Y-72378194D01*
X37105640Y-72431415D01*
X37112580Y-72434951D01*
X37120273Y-72436170D01*
X37120275Y-72436170D01*
X37206908Y-72449891D01*
X37206910Y-72449891D01*
X37210754Y-72450500D01*
X37789246Y-72450500D01*
X37793090Y-72449891D01*
X37793092Y-72449891D01*
X37879725Y-72436170D01*
X37879727Y-72436170D01*
X37887420Y-72434951D01*
X37894360Y-72431415D01*
X37998812Y-72378194D01*
X37998814Y-72378193D01*
X38005751Y-72374658D01*
X38099658Y-72280751D01*
X38159951Y-72162420D01*
X38175500Y-72064246D01*
X38175500Y-71560754D01*
X38159951Y-71462580D01*
X38099658Y-71344249D01*
X38060685Y-71305276D01*
X38032908Y-71250759D01*
X38033129Y-71249361D01*
X38015796Y-71251367D01*
X37990419Y-71242530D01*
X37894360Y-71193585D01*
X37894359Y-71193585D01*
X37887420Y-71190049D01*
X37879725Y-71188830D01*
X37872316Y-71186423D01*
X37873117Y-71183959D01*
X37829489Y-71161724D01*
X37801717Y-71107204D01*
X37800500Y-71091728D01*
X37800500Y-70952176D01*
X37819407Y-70893985D01*
X37868907Y-70858021D01*
X37930093Y-70858021D01*
X37979593Y-70893985D01*
X37987710Y-70907231D01*
X38043707Y-71017132D01*
X38048270Y-71022095D01*
X38048272Y-71022097D01*
X38108238Y-71087309D01*
X38132224Y-71139701D01*
X38146176Y-71137491D01*
X38182854Y-71151131D01*
X38273986Y-71207635D01*
X38418825Y-71249715D01*
X38423995Y-71250095D01*
X38423997Y-71250095D01*
X38427714Y-71250368D01*
X38427721Y-71250368D01*
X38429515Y-71250500D01*
X38537785Y-71250500D01*
X38541128Y-71250042D01*
X38541129Y-71250042D01*
X38642749Y-71236122D01*
X38642753Y-71236121D01*
X38649432Y-71235206D01*
X38655618Y-71232529D01*
X38655622Y-71232528D01*
X38781661Y-71177986D01*
X38781665Y-71177984D01*
X38787855Y-71175305D01*
X38905070Y-71080386D01*
X38946494Y-71022097D01*
X38988535Y-70962940D01*
X38988536Y-70962939D01*
X38992442Y-70957442D01*
X38994726Y-70951097D01*
X38994728Y-70951094D01*
X39041248Y-70821880D01*
X39041249Y-70821877D01*
X39043533Y-70815532D01*
X39054580Y-70665109D01*
X39024767Y-70517257D01*
X38956293Y-70382868D01*
X38951730Y-70377905D01*
X38951728Y-70377903D01*
X38858771Y-70276814D01*
X38854201Y-70271844D01*
X38773833Y-70222014D01*
X38731753Y-70195923D01*
X38731751Y-70195922D01*
X38726014Y-70192365D01*
X38581175Y-70150285D01*
X38576005Y-70149905D01*
X38576003Y-70149905D01*
X38572286Y-70149632D01*
X38572279Y-70149632D01*
X38570485Y-70149500D01*
X38462215Y-70149500D01*
X38458872Y-70149958D01*
X38458871Y-70149958D01*
X38357251Y-70163878D01*
X38357247Y-70163879D01*
X38350568Y-70164794D01*
X38344382Y-70167471D01*
X38344378Y-70167472D01*
X38218339Y-70222014D01*
X38218335Y-70222016D01*
X38212145Y-70224695D01*
X38094930Y-70319614D01*
X38091022Y-70325113D01*
X38042079Y-70393983D01*
X38007558Y-70442558D01*
X38005274Y-70448903D01*
X38005272Y-70448906D01*
X37992647Y-70483975D01*
X37955146Y-70532321D01*
X37896390Y-70549391D01*
X37838822Y-70528665D01*
X37804431Y-70478060D01*
X37800500Y-70450440D01*
X37800500Y-69690929D01*
X39350000Y-69690929D01*
X39350332Y-69696641D01*
X39364480Y-69817995D01*
X39367111Y-69829123D01*
X39422856Y-69982698D01*
X39427974Y-69992919D01*
X39517554Y-70129550D01*
X39524887Y-70138320D01*
X39643496Y-70250679D01*
X39652648Y-70257526D01*
X39793926Y-70339588D01*
X39804407Y-70344145D01*
X39960777Y-70391505D01*
X39972025Y-70393528D01*
X39979349Y-70393983D01*
X39992266Y-70390654D01*
X39994573Y-70387860D01*
X39995000Y-70385619D01*
X39995000Y-70377296D01*
X40205000Y-70377296D01*
X40209122Y-70389981D01*
X40209726Y-70390420D01*
X40216873Y-70390936D01*
X40307527Y-70375358D01*
X40318493Y-70372131D01*
X40468834Y-70308160D01*
X40478753Y-70302502D01*
X40610349Y-70205659D01*
X40618706Y-70197866D01*
X40724488Y-70073352D01*
X40730831Y-70063840D01*
X40805130Y-69918333D01*
X40809114Y-69907623D01*
X40848269Y-69747612D01*
X40849589Y-69738933D01*
X40849906Y-69733822D01*
X40850000Y-69730788D01*
X40850000Y-69420680D01*
X40845878Y-69407995D01*
X40841757Y-69405000D01*
X40220680Y-69405000D01*
X40207995Y-69409122D01*
X40205000Y-69413243D01*
X40205000Y-70377296D01*
X39995000Y-70377296D01*
X39995000Y-69420680D01*
X39990878Y-69407995D01*
X39986757Y-69405000D01*
X39365680Y-69405000D01*
X39352995Y-69409122D01*
X39350000Y-69413243D01*
X39350000Y-69690929D01*
X37800500Y-69690929D01*
X37800500Y-69179320D01*
X39350000Y-69179320D01*
X39354122Y-69192005D01*
X39358243Y-69195000D01*
X39979320Y-69195000D01*
X39992005Y-69190878D01*
X39995000Y-69186757D01*
X39995000Y-69179320D01*
X40205000Y-69179320D01*
X40209122Y-69192005D01*
X40213243Y-69195000D01*
X40834320Y-69195000D01*
X40847005Y-69190878D01*
X40850000Y-69186757D01*
X40850000Y-68909071D01*
X40849668Y-68903359D01*
X40835520Y-68782005D01*
X40832889Y-68770877D01*
X40777144Y-68617302D01*
X40772026Y-68607081D01*
X40682446Y-68470450D01*
X40675113Y-68461680D01*
X40556504Y-68349321D01*
X40547352Y-68342474D01*
X40406074Y-68260412D01*
X40395593Y-68255855D01*
X40239223Y-68208495D01*
X40227975Y-68206472D01*
X40220651Y-68206017D01*
X40207734Y-68209346D01*
X40205427Y-68212140D01*
X40205000Y-68214381D01*
X40205000Y-69179320D01*
X39995000Y-69179320D01*
X39995000Y-68222704D01*
X39990878Y-68210019D01*
X39990274Y-68209580D01*
X39983127Y-68209064D01*
X39892473Y-68224642D01*
X39881507Y-68227869D01*
X39731166Y-68291840D01*
X39721247Y-68297498D01*
X39589651Y-68394341D01*
X39581294Y-68402134D01*
X39475512Y-68526648D01*
X39469169Y-68536160D01*
X39394870Y-68681667D01*
X39390886Y-68692377D01*
X39351731Y-68852388D01*
X39350411Y-68861067D01*
X39350094Y-68866178D01*
X39350000Y-68869212D01*
X39350000Y-69179320D01*
X37800500Y-69179320D01*
X37800500Y-68899500D01*
X37819407Y-68841309D01*
X37868907Y-68805345D01*
X37899500Y-68800500D01*
X37969748Y-68800500D01*
X37995995Y-68795279D01*
X38018666Y-68790770D01*
X38018668Y-68790769D01*
X38028231Y-68788867D01*
X38094552Y-68744552D01*
X38138867Y-68678231D01*
X38141766Y-68663660D01*
X38149552Y-68624512D01*
X38150500Y-68619748D01*
X38150500Y-67780252D01*
X38138867Y-67721769D01*
X38094552Y-67655448D01*
X38028231Y-67611133D01*
X38018668Y-67609231D01*
X38018666Y-67609230D01*
X37995995Y-67604721D01*
X37969748Y-67599500D01*
X37030252Y-67599500D01*
X37004005Y-67604721D01*
X36981334Y-67609230D01*
X36981332Y-67609231D01*
X36971769Y-67611133D01*
X36948720Y-67626534D01*
X36942002Y-67631023D01*
X36883114Y-67647632D01*
X36825710Y-67626455D01*
X36791717Y-67575581D01*
X36788000Y-67548708D01*
X36788000Y-65945799D01*
X36806907Y-65887608D01*
X36842054Y-65857590D01*
X36942076Y-65806626D01*
X36948812Y-65803194D01*
X36948814Y-65803193D01*
X36955751Y-65799658D01*
X37049658Y-65705751D01*
X37069031Y-65667731D01*
X37106415Y-65594360D01*
X37106415Y-65594359D01*
X37109951Y-65587420D01*
X37111657Y-65576653D01*
X37124891Y-65493092D01*
X37124891Y-65493090D01*
X37125500Y-65489246D01*
X37125500Y-64910754D01*
X37112343Y-64827684D01*
X37111170Y-64820275D01*
X37111170Y-64820273D01*
X37109951Y-64812580D01*
X37049658Y-64694249D01*
X36955751Y-64600342D01*
X36948814Y-64596807D01*
X36948812Y-64596806D01*
X36844360Y-64543585D01*
X36844359Y-64543585D01*
X36837420Y-64540049D01*
X36829727Y-64538830D01*
X36829725Y-64538830D01*
X36743092Y-64525109D01*
X36743090Y-64525109D01*
X36739246Y-64524500D01*
X36235754Y-64524500D01*
X36231910Y-64525109D01*
X36231908Y-64525109D01*
X36145275Y-64538830D01*
X36145273Y-64538830D01*
X36137580Y-64540049D01*
X36130641Y-64543585D01*
X36130640Y-64543585D01*
X36026188Y-64596806D01*
X36026186Y-64596807D01*
X36019249Y-64600342D01*
X35925342Y-64694249D01*
X35865049Y-64812580D01*
X35863830Y-64820273D01*
X35863830Y-64820275D01*
X35862657Y-64827684D01*
X35849500Y-64910754D01*
X35849500Y-65489246D01*
X35850109Y-65493090D01*
X35850109Y-65493092D01*
X35863344Y-65576653D01*
X35865049Y-65587420D01*
X35868585Y-65594359D01*
X35868585Y-65594360D01*
X35905970Y-65667731D01*
X35925342Y-65705751D01*
X36019249Y-65799658D01*
X36026186Y-65803193D01*
X36026188Y-65803194D01*
X36032924Y-65806626D01*
X36132946Y-65857590D01*
X36176210Y-65900854D01*
X36187000Y-65945799D01*
X36187000Y-66582604D01*
X36168093Y-66640795D01*
X36118593Y-66676759D01*
X36057407Y-66676759D01*
X36044272Y-66670388D01*
X36018474Y-66659702D01*
X35974462Y-66650948D01*
X35964840Y-66650000D01*
X35620680Y-66650000D01*
X35607995Y-66654122D01*
X35605000Y-66658243D01*
X35605000Y-67834320D01*
X35609122Y-67847005D01*
X35613243Y-67850000D01*
X35964840Y-67850000D01*
X35974462Y-67849052D01*
X36018474Y-67840298D01*
X36045151Y-67829248D01*
X36046043Y-67831401D01*
X36091889Y-67818472D01*
X36149292Y-67839651D01*
X36183284Y-67890526D01*
X36187000Y-67917396D01*
X36187000Y-68482003D01*
X36168093Y-68540194D01*
X36118593Y-68576158D01*
X36057407Y-68576158D01*
X36044981Y-68570131D01*
X36036340Y-68566552D01*
X36028231Y-68561133D01*
X36018668Y-68559231D01*
X36018666Y-68559230D01*
X35995995Y-68554721D01*
X35969748Y-68549500D01*
X35030252Y-68549500D01*
X35004005Y-68554721D01*
X34981334Y-68559230D01*
X34981332Y-68559231D01*
X34971769Y-68561133D01*
X34905448Y-68605448D01*
X34861133Y-68671769D01*
X34859231Y-68681332D01*
X34859230Y-68681334D01*
X34855382Y-68700682D01*
X34849500Y-68730252D01*
X34849500Y-69569748D01*
X34861133Y-69628231D01*
X34905448Y-69694552D01*
X34971769Y-69738867D01*
X34981332Y-69740769D01*
X34981334Y-69740770D01*
X35004005Y-69745279D01*
X35030252Y-69750500D01*
X35100500Y-69750500D01*
X35158691Y-69769407D01*
X35194655Y-69818907D01*
X35199500Y-69849500D01*
X35199500Y-70447824D01*
X35180593Y-70506015D01*
X35131093Y-70541979D01*
X35069907Y-70541979D01*
X35020407Y-70506015D01*
X35012290Y-70492769D01*
X34959355Y-70388878D01*
X34956293Y-70382868D01*
X34951730Y-70377905D01*
X34951728Y-70377903D01*
X34858771Y-70276814D01*
X34854201Y-70271844D01*
X34773833Y-70222014D01*
X34731753Y-70195923D01*
X34731751Y-70195922D01*
X34726014Y-70192365D01*
X34581175Y-70150285D01*
X34576005Y-70149905D01*
X34576003Y-70149905D01*
X34572286Y-70149632D01*
X34572279Y-70149632D01*
X34570485Y-70149500D01*
X34462215Y-70149500D01*
X34458872Y-70149958D01*
X34458871Y-70149958D01*
X34357251Y-70163878D01*
X34357247Y-70163879D01*
X34350568Y-70164794D01*
X34344382Y-70167471D01*
X34344378Y-70167472D01*
X34218339Y-70222014D01*
X34218335Y-70222016D01*
X34212145Y-70224695D01*
X34094930Y-70319614D01*
X34091022Y-70325113D01*
X34042079Y-70393983D01*
X34007558Y-70442558D01*
X34005274Y-70448903D01*
X34005272Y-70448906D01*
X33958752Y-70578120D01*
X33956467Y-70584468D01*
X33945420Y-70734891D01*
X33975233Y-70882743D01*
X34043707Y-71017132D01*
X34048270Y-71022095D01*
X34048272Y-71022097D01*
X34058748Y-71033489D01*
X34084218Y-71089121D01*
X34072124Y-71149100D01*
X34027086Y-71190514D01*
X33985874Y-71199500D01*
X28865479Y-71199500D01*
X28807288Y-71180593D01*
X28795476Y-71170504D01*
X28529497Y-70904526D01*
X28501719Y-70850009D01*
X28500500Y-70834522D01*
X28500500Y-69690929D01*
X32150000Y-69690929D01*
X32150332Y-69696641D01*
X32164480Y-69817995D01*
X32167111Y-69829123D01*
X32222856Y-69982698D01*
X32227974Y-69992919D01*
X32317554Y-70129550D01*
X32324887Y-70138320D01*
X32443496Y-70250679D01*
X32452648Y-70257526D01*
X32593926Y-70339588D01*
X32604407Y-70344145D01*
X32760777Y-70391505D01*
X32772025Y-70393528D01*
X32779349Y-70393983D01*
X32792266Y-70390654D01*
X32794573Y-70387860D01*
X32795000Y-70385619D01*
X32795000Y-70377296D01*
X33005000Y-70377296D01*
X33009122Y-70389981D01*
X33009726Y-70390420D01*
X33016873Y-70390936D01*
X33107527Y-70375358D01*
X33118493Y-70372131D01*
X33268834Y-70308160D01*
X33278753Y-70302502D01*
X33410349Y-70205659D01*
X33418706Y-70197866D01*
X33524488Y-70073352D01*
X33530831Y-70063840D01*
X33605130Y-69918333D01*
X33609114Y-69907623D01*
X33648269Y-69747612D01*
X33649589Y-69738933D01*
X33649906Y-69733822D01*
X33650000Y-69730788D01*
X33650000Y-69420680D01*
X33645878Y-69407995D01*
X33641757Y-69405000D01*
X33020680Y-69405000D01*
X33007995Y-69409122D01*
X33005000Y-69413243D01*
X33005000Y-70377296D01*
X32795000Y-70377296D01*
X32795000Y-69420680D01*
X32790878Y-69407995D01*
X32786757Y-69405000D01*
X32165680Y-69405000D01*
X32152995Y-69409122D01*
X32150000Y-69413243D01*
X32150000Y-69690929D01*
X28500500Y-69690929D01*
X28500500Y-69179320D01*
X32150000Y-69179320D01*
X32154122Y-69192005D01*
X32158243Y-69195000D01*
X32779320Y-69195000D01*
X32792005Y-69190878D01*
X32795000Y-69186757D01*
X32795000Y-69179320D01*
X33005000Y-69179320D01*
X33009122Y-69192005D01*
X33013243Y-69195000D01*
X33634320Y-69195000D01*
X33647005Y-69190878D01*
X33650000Y-69186757D01*
X33650000Y-68909071D01*
X33649668Y-68903359D01*
X33635520Y-68782005D01*
X33632889Y-68770877D01*
X33577144Y-68617302D01*
X33572026Y-68607081D01*
X33482446Y-68470450D01*
X33475113Y-68461680D01*
X33356504Y-68349321D01*
X33347352Y-68342474D01*
X33206074Y-68260412D01*
X33195593Y-68255855D01*
X33039223Y-68208495D01*
X33027975Y-68206472D01*
X33020651Y-68206017D01*
X33007734Y-68209346D01*
X33005427Y-68212140D01*
X33005000Y-68214381D01*
X33005000Y-69179320D01*
X32795000Y-69179320D01*
X32795000Y-68222704D01*
X32790878Y-68210019D01*
X32790274Y-68209580D01*
X32783127Y-68209064D01*
X32692473Y-68224642D01*
X32681507Y-68227869D01*
X32531166Y-68291840D01*
X32521247Y-68297498D01*
X32389651Y-68394341D01*
X32381294Y-68402134D01*
X32275512Y-68526648D01*
X32269169Y-68536160D01*
X32194870Y-68681667D01*
X32190886Y-68692377D01*
X32151731Y-68852388D01*
X32150411Y-68861067D01*
X32150094Y-68866178D01*
X32150000Y-68869212D01*
X32150000Y-69179320D01*
X28500500Y-69179320D01*
X28500500Y-67664840D01*
X34850000Y-67664840D01*
X34850948Y-67674462D01*
X34859702Y-67718474D01*
X34867021Y-67736142D01*
X34900389Y-67786082D01*
X34913918Y-67799611D01*
X34963858Y-67832979D01*
X34981526Y-67840298D01*
X35025538Y-67849052D01*
X35035160Y-67850000D01*
X35379320Y-67850000D01*
X35392005Y-67845878D01*
X35395000Y-67841757D01*
X35395000Y-67370680D01*
X35390878Y-67357995D01*
X35386757Y-67355000D01*
X34865680Y-67355000D01*
X34852995Y-67359122D01*
X34850000Y-67363243D01*
X34850000Y-67664840D01*
X28500500Y-67664840D01*
X28500500Y-67129320D01*
X34850000Y-67129320D01*
X34854122Y-67142005D01*
X34858243Y-67145000D01*
X35379320Y-67145000D01*
X35392005Y-67140878D01*
X35395000Y-67136757D01*
X35395000Y-66665680D01*
X35390878Y-66652995D01*
X35386757Y-66650000D01*
X35035160Y-66650000D01*
X35025538Y-66650948D01*
X34981526Y-66659702D01*
X34963858Y-66667021D01*
X34913918Y-66700389D01*
X34900389Y-66713918D01*
X34867021Y-66763858D01*
X34859702Y-66781526D01*
X34850948Y-66825538D01*
X34850000Y-66835160D01*
X34850000Y-67129320D01*
X28500500Y-67129320D01*
X28500500Y-66353508D01*
X28500803Y-66349383D01*
X28502425Y-66344658D01*
X28500570Y-66295239D01*
X28500500Y-66291526D01*
X28500500Y-66272052D01*
X28499675Y-66267622D01*
X28499338Y-66262417D01*
X28498569Y-66241925D01*
X28498226Y-66232792D01*
X28494620Y-66224398D01*
X28494619Y-66224395D01*
X28493683Y-66222217D01*
X28487317Y-66201266D01*
X28485209Y-66189947D01*
X28471232Y-66167271D01*
X28464548Y-66154404D01*
X28464421Y-66154107D01*
X28454036Y-66129937D01*
X28450022Y-66125051D01*
X28445658Y-66120687D01*
X28431387Y-66102632D01*
X28431264Y-66102433D01*
X28426468Y-66094652D01*
X28403231Y-66076982D01*
X28393161Y-66068190D01*
X28000320Y-65675349D01*
X27997620Y-65672220D01*
X27995425Y-65667731D01*
X27959178Y-65634107D01*
X27956502Y-65631531D01*
X27942723Y-65617752D01*
X27939013Y-65615207D01*
X27935100Y-65611771D01*
X27920055Y-65597815D01*
X27913354Y-65591599D01*
X27902880Y-65587420D01*
X27902664Y-65587334D01*
X27883348Y-65577020D01*
X27881393Y-65575679D01*
X27881390Y-65575678D01*
X27873854Y-65570508D01*
X27847941Y-65564359D01*
X27834116Y-65559986D01*
X27815868Y-65552706D01*
X27815866Y-65552706D01*
X27809378Y-65550117D01*
X27803085Y-65549500D01*
X27796916Y-65549500D01*
X27774057Y-65546825D01*
X27773827Y-65546770D01*
X27773825Y-65546770D01*
X27764934Y-65544660D01*
X27736013Y-65548596D01*
X27722663Y-65549500D01*
X26115479Y-65549500D01*
X26057288Y-65530593D01*
X26045475Y-65520504D01*
X25829496Y-65304525D01*
X25801719Y-65250008D01*
X25800500Y-65234521D01*
X25800500Y-65200000D01*
X32794318Y-65200000D01*
X32814956Y-65356762D01*
X32875464Y-65502841D01*
X32971718Y-65628282D01*
X33097159Y-65724536D01*
X33243238Y-65785044D01*
X33400000Y-65805682D01*
X33556762Y-65785044D01*
X33702841Y-65724536D01*
X33828282Y-65628282D01*
X33896613Y-65539232D01*
X33947037Y-65504577D01*
X33975154Y-65500500D01*
X34191728Y-65500500D01*
X34249919Y-65519407D01*
X34285883Y-65568907D01*
X34287489Y-65575598D01*
X34288830Y-65579725D01*
X34290049Y-65587420D01*
X34293585Y-65594359D01*
X34293585Y-65594360D01*
X34330970Y-65667731D01*
X34350342Y-65705751D01*
X34444249Y-65799658D01*
X34451186Y-65803193D01*
X34451188Y-65803194D01*
X34555640Y-65856415D01*
X34562580Y-65859951D01*
X34570273Y-65861170D01*
X34570275Y-65861170D01*
X34656908Y-65874891D01*
X34656910Y-65874891D01*
X34660754Y-65875500D01*
X35164246Y-65875500D01*
X35168090Y-65874891D01*
X35168092Y-65874891D01*
X35254725Y-65861170D01*
X35254727Y-65861170D01*
X35262420Y-65859951D01*
X35269360Y-65856415D01*
X35373812Y-65803194D01*
X35373814Y-65803193D01*
X35380751Y-65799658D01*
X35474658Y-65705751D01*
X35494031Y-65667731D01*
X35531415Y-65594360D01*
X35531415Y-65594359D01*
X35534951Y-65587420D01*
X35536657Y-65576653D01*
X35549891Y-65493092D01*
X35549891Y-65493090D01*
X35550500Y-65489246D01*
X35550500Y-64910754D01*
X35537343Y-64827684D01*
X35536170Y-64820275D01*
X35536170Y-64820273D01*
X35534951Y-64812580D01*
X35474658Y-64694249D01*
X35380751Y-64600342D01*
X35373814Y-64596807D01*
X35373812Y-64596806D01*
X35269360Y-64543585D01*
X35269359Y-64543585D01*
X35262420Y-64540049D01*
X35254727Y-64538830D01*
X35254725Y-64538830D01*
X35168092Y-64525109D01*
X35168090Y-64525109D01*
X35164246Y-64524500D01*
X34660754Y-64524500D01*
X34656910Y-64525109D01*
X34656908Y-64525109D01*
X34570275Y-64538830D01*
X34570273Y-64538830D01*
X34562580Y-64540049D01*
X34555641Y-64543585D01*
X34555640Y-64543585D01*
X34451188Y-64596806D01*
X34451186Y-64596807D01*
X34444249Y-64600342D01*
X34350342Y-64694249D01*
X34290049Y-64812580D01*
X34288830Y-64820275D01*
X34286423Y-64827684D01*
X34283959Y-64826883D01*
X34261724Y-64870511D01*
X34207204Y-64898283D01*
X34191728Y-64899500D01*
X33975154Y-64899500D01*
X33916963Y-64880593D01*
X33896612Y-64860768D01*
X33854311Y-64805640D01*
X33828282Y-64771718D01*
X33702841Y-64675464D01*
X33556762Y-64614956D01*
X33400000Y-64594318D01*
X33243238Y-64614956D01*
X33097159Y-64675464D01*
X32971718Y-64771718D01*
X32875464Y-64897159D01*
X32814956Y-65043238D01*
X32794318Y-65200000D01*
X25800500Y-65200000D01*
X25800500Y-62554200D01*
X41894908Y-62554200D01*
X41895116Y-62556998D01*
X41920796Y-62902566D01*
X41920797Y-62902575D01*
X41921004Y-62905358D01*
X41986684Y-63251304D01*
X42091104Y-63587592D01*
X42232921Y-63909897D01*
X42410313Y-64214076D01*
X42620999Y-64496219D01*
X42862270Y-64752697D01*
X42864414Y-64754512D01*
X42864415Y-64754513D01*
X43048975Y-64910754D01*
X43131024Y-64980214D01*
X43423807Y-65175845D01*
X43426294Y-65177126D01*
X43426301Y-65177130D01*
X43734356Y-65335789D01*
X43736853Y-65337075D01*
X43739479Y-65338070D01*
X43739486Y-65338073D01*
X44063509Y-65460834D01*
X44063516Y-65460836D01*
X44066139Y-65461830D01*
X44320565Y-65526446D01*
X44400591Y-65546770D01*
X44407430Y-65548507D01*
X44756340Y-65595992D01*
X44758700Y-65596085D01*
X44758703Y-65596085D01*
X44870127Y-65600463D01*
X44870151Y-65600463D01*
X44871081Y-65600500D01*
X45089198Y-65600500D01*
X45284220Y-65589426D01*
X45348762Y-65585761D01*
X45348764Y-65585761D01*
X45351560Y-65585602D01*
X45354323Y-65585127D01*
X45354325Y-65585127D01*
X45695832Y-65526446D01*
X45695838Y-65526445D01*
X45698600Y-65525970D01*
X45701290Y-65525186D01*
X45701294Y-65525185D01*
X46033970Y-65428218D01*
X46033974Y-65428217D01*
X46036659Y-65427434D01*
X46039242Y-65426351D01*
X46358791Y-65292353D01*
X46358793Y-65292352D01*
X46361390Y-65291263D01*
X46389486Y-65275529D01*
X46666162Y-65120583D01*
X46668619Y-65119207D01*
X46954395Y-64913477D01*
X47215046Y-64676719D01*
X47267033Y-64617440D01*
X47445366Y-64414090D01*
X47445366Y-64414089D01*
X47447219Y-64411977D01*
X47647929Y-64122653D01*
X47814598Y-63812468D01*
X47850766Y-63721814D01*
X47944042Y-63488014D01*
X47945081Y-63485410D01*
X48008173Y-63253990D01*
X48036965Y-63148384D01*
X48036966Y-63148378D01*
X48037701Y-63145683D01*
X48038127Y-63142917D01*
X48090842Y-62800425D01*
X48090843Y-62800419D01*
X48091268Y-62797655D01*
X48105092Y-62445800D01*
X48086794Y-62199575D01*
X48079204Y-62097434D01*
X48079203Y-62097425D01*
X48078996Y-62094642D01*
X48013316Y-61748696D01*
X47908896Y-61412408D01*
X47767079Y-61090103D01*
X47749029Y-61059151D01*
X47591100Y-60788347D01*
X47589687Y-60785924D01*
X47379001Y-60503781D01*
X47137730Y-60247303D01*
X46868976Y-60019786D01*
X46576193Y-59824155D01*
X46573706Y-59822874D01*
X46573699Y-59822870D01*
X46265644Y-59664211D01*
X46265643Y-59664211D01*
X46263147Y-59662925D01*
X46260521Y-59661930D01*
X46260514Y-59661927D01*
X45936491Y-59539166D01*
X45936484Y-59539164D01*
X45933861Y-59538170D01*
X45592570Y-59451493D01*
X45243660Y-59404008D01*
X45241300Y-59403915D01*
X45241297Y-59403915D01*
X45129873Y-59399537D01*
X45129849Y-59399537D01*
X45128919Y-59399500D01*
X44910802Y-59399500D01*
X44715780Y-59410574D01*
X44651238Y-59414239D01*
X44651236Y-59414239D01*
X44648440Y-59414398D01*
X44645677Y-59414873D01*
X44645675Y-59414873D01*
X44304168Y-59473554D01*
X44304162Y-59473555D01*
X44301400Y-59474030D01*
X44298710Y-59474814D01*
X44298706Y-59474815D01*
X43966030Y-59571782D01*
X43966026Y-59571783D01*
X43963341Y-59572566D01*
X43638610Y-59708737D01*
X43331381Y-59880793D01*
X43045605Y-60086523D01*
X42784954Y-60323281D01*
X42783101Y-60325394D01*
X42783098Y-60325397D01*
X42586143Y-60549981D01*
X42552781Y-60588023D01*
X42352071Y-60877347D01*
X42350744Y-60879817D01*
X42350742Y-60879820D01*
X42338204Y-60903154D01*
X42185402Y-61187532D01*
X42184362Y-61190138D01*
X42184360Y-61190143D01*
X42094615Y-61415091D01*
X42054919Y-61514590D01*
X42054182Y-61517292D01*
X42054182Y-61517293D01*
X41991095Y-61748696D01*
X41962299Y-61854317D01*
X41908732Y-62202345D01*
X41894908Y-62554200D01*
X25800500Y-62554200D01*
X25800500Y-61775154D01*
X25819407Y-61716963D01*
X25839232Y-61696612D01*
X25928282Y-61628282D01*
X26024536Y-61502841D01*
X26085044Y-61356762D01*
X26105682Y-61200000D01*
X26085044Y-61043238D01*
X26024536Y-60897159D01*
X25928282Y-60771718D01*
X25802841Y-60675464D01*
X25656762Y-60614956D01*
X25500000Y-60594318D01*
X25343238Y-60614956D01*
X25197159Y-60675464D01*
X25071718Y-60771718D01*
X24975464Y-60897159D01*
X24914956Y-61043238D01*
X24894318Y-61200000D01*
X24914956Y-61356762D01*
X24975464Y-61502841D01*
X25071718Y-61628282D01*
X25160768Y-61696612D01*
X25195423Y-61747037D01*
X25199500Y-61775154D01*
X25199500Y-65346492D01*
X25199197Y-65350617D01*
X25197575Y-65355342D01*
X25197918Y-65364476D01*
X25199430Y-65404761D01*
X25199500Y-65408474D01*
X25199500Y-65427948D01*
X25200325Y-65432378D01*
X25200661Y-65437571D01*
X25201774Y-65467208D01*
X25205380Y-65475602D01*
X25205381Y-65475605D01*
X25206317Y-65477783D01*
X25212683Y-65498734D01*
X25214791Y-65510053D01*
X25224602Y-65525970D01*
X25228768Y-65532728D01*
X25235451Y-65545595D01*
X25245964Y-65570063D01*
X25249978Y-65574949D01*
X25254342Y-65579313D01*
X25268613Y-65597368D01*
X25273532Y-65605348D01*
X25296769Y-65623018D01*
X25306839Y-65631810D01*
X25699680Y-66024651D01*
X25702380Y-66027780D01*
X25704575Y-66032269D01*
X25711278Y-66038487D01*
X25740822Y-66065893D01*
X25743498Y-66068469D01*
X25757277Y-66082248D01*
X25760987Y-66084793D01*
X25764900Y-66088229D01*
X25786646Y-66108401D01*
X25795134Y-66111788D01*
X25795135Y-66111788D01*
X25797336Y-66112666D01*
X25816652Y-66122980D01*
X25818607Y-66124321D01*
X25818610Y-66124322D01*
X25826146Y-66129492D01*
X25852058Y-66135641D01*
X25865884Y-66140014D01*
X25884132Y-66147294D01*
X25884134Y-66147294D01*
X25890622Y-66149883D01*
X25896915Y-66150500D01*
X25903084Y-66150500D01*
X25925943Y-66153175D01*
X25926173Y-66153230D01*
X25926175Y-66153230D01*
X25935066Y-66155340D01*
X25963988Y-66151404D01*
X25977337Y-66150500D01*
X27584521Y-66150500D01*
X27642712Y-66169407D01*
X27654525Y-66179496D01*
X27870504Y-66395475D01*
X27898281Y-66449992D01*
X27899500Y-66465479D01*
X27899500Y-70946492D01*
X27899197Y-70950617D01*
X27897575Y-70955342D01*
X27897918Y-70964476D01*
X27899430Y-71004761D01*
X27899500Y-71008474D01*
X27899500Y-71027948D01*
X27900325Y-71032378D01*
X27900661Y-71037571D01*
X27901774Y-71067208D01*
X27905380Y-71075602D01*
X27905381Y-71075605D01*
X27906317Y-71077783D01*
X27912683Y-71098734D01*
X27914791Y-71110053D01*
X27919588Y-71117835D01*
X27928768Y-71132728D01*
X27935451Y-71145595D01*
X27945964Y-71170063D01*
X27949978Y-71174949D01*
X27954342Y-71179313D01*
X27968613Y-71197368D01*
X27973532Y-71205348D01*
X27996769Y-71223018D01*
X28006839Y-71231810D01*
X28449680Y-71674651D01*
X28452380Y-71677780D01*
X28454575Y-71682269D01*
X28461278Y-71688487D01*
X28490822Y-71715893D01*
X28493498Y-71718469D01*
X28507277Y-71732248D01*
X28510987Y-71734793D01*
X28514900Y-71738229D01*
X28536646Y-71758401D01*
X28545132Y-71761787D01*
X28545134Y-71761788D01*
X28547337Y-71762667D01*
X28566648Y-71772978D01*
X28568607Y-71774322D01*
X28568610Y-71774323D01*
X28576146Y-71779493D01*
X28585038Y-71781603D01*
X28585040Y-71781604D01*
X28602066Y-71785644D01*
X28615885Y-71790014D01*
X28640622Y-71799883D01*
X28646915Y-71800500D01*
X28653085Y-71800500D01*
X28675941Y-71803175D01*
X28685066Y-71805340D01*
X28713988Y-71801404D01*
X28727337Y-71800500D01*
X32253629Y-71800500D01*
X32311820Y-71819407D01*
X32347784Y-71868907D01*
X32347784Y-71930093D01*
X32329077Y-71963598D01*
X32275512Y-72026648D01*
X32269169Y-72036160D01*
X32194870Y-72181667D01*
X32190886Y-72192377D01*
X32151731Y-72352388D01*
X32150411Y-72361067D01*
X32150094Y-72366178D01*
X32150000Y-72369212D01*
X32150000Y-72679320D01*
X32154122Y-72692005D01*
X32158243Y-72695000D01*
X33634320Y-72695000D01*
X33647005Y-72690878D01*
X33650000Y-72686757D01*
X33650000Y-72409071D01*
X33649668Y-72403359D01*
X33635520Y-72282005D01*
X33632889Y-72270877D01*
X33577144Y-72117302D01*
X33572026Y-72107081D01*
X33482446Y-71970450D01*
X33476220Y-71963004D01*
X33453398Y-71906234D01*
X33468304Y-71846892D01*
X33515243Y-71807644D01*
X33552169Y-71800500D01*
X34725500Y-71800500D01*
X34783691Y-71819407D01*
X34819655Y-71868907D01*
X34824500Y-71899500D01*
X34824500Y-72064246D01*
X34840049Y-72162420D01*
X34900342Y-72280751D01*
X34994249Y-72374658D01*
X35001186Y-72378193D01*
X35001188Y-72378194D01*
X35105640Y-72431415D01*
X35112580Y-72434951D01*
X35120273Y-72436170D01*
X35120275Y-72436170D01*
X35206908Y-72449891D01*
X35206910Y-72449891D01*
X35210754Y-72450500D01*
X35789246Y-72450500D01*
X35793090Y-72449891D01*
X35793092Y-72449891D01*
X35879725Y-72436170D01*
X35879727Y-72436170D01*
X35887420Y-72434951D01*
X35894360Y-72431415D01*
X35998812Y-72378194D01*
X35998814Y-72378193D01*
X36005751Y-72374658D01*
X36017996Y-72362413D01*
X36072513Y-72334636D01*
X36132945Y-72344207D01*
X36176210Y-72387472D01*
X36187000Y-72432417D01*
X36187000Y-72767583D01*
X36168093Y-72825774D01*
X36118593Y-72861738D01*
X36057407Y-72861738D01*
X36017996Y-72837587D01*
X36005751Y-72825342D01*
X35998814Y-72821807D01*
X35998812Y-72821806D01*
X35894360Y-72768585D01*
X35894359Y-72768585D01*
X35887420Y-72765049D01*
X35879727Y-72763830D01*
X35879725Y-72763830D01*
X35793092Y-72750109D01*
X35793090Y-72750109D01*
X35789246Y-72749500D01*
X35210754Y-72749500D01*
X35206910Y-72750109D01*
X35206908Y-72750109D01*
X35120275Y-72763830D01*
X35120273Y-72763830D01*
X35112580Y-72765049D01*
X35105641Y-72768585D01*
X35105640Y-72768585D01*
X35001188Y-72821806D01*
X35001186Y-72821807D01*
X34994249Y-72825342D01*
X34900342Y-72919249D01*
X34840049Y-73037580D01*
X34824500Y-73135754D01*
X34824500Y-73639246D01*
X34825109Y-73643090D01*
X34825109Y-73643092D01*
X34835019Y-73705659D01*
X34840049Y-73737420D01*
X34843585Y-73744359D01*
X34843585Y-73744360D01*
X34900342Y-73855751D01*
X34897171Y-73857367D01*
X34911353Y-73900972D01*
X34892462Y-73959168D01*
X34842972Y-73995146D01*
X34812353Y-74000000D01*
X33303497Y-74000000D01*
X33245306Y-73981093D01*
X33209342Y-73931593D01*
X33209342Y-73870407D01*
X33245306Y-73820907D01*
X33264736Y-73809904D01*
X33268831Y-73808162D01*
X33278753Y-73802502D01*
X33410349Y-73705659D01*
X33418706Y-73697866D01*
X33524488Y-73573352D01*
X33530831Y-73563840D01*
X33605130Y-73418333D01*
X33609114Y-73407623D01*
X33648269Y-73247612D01*
X33649589Y-73238933D01*
X33649906Y-73233822D01*
X33650000Y-73230788D01*
X33650000Y-72920680D01*
X33645878Y-72907995D01*
X33641757Y-72905000D01*
X32165680Y-72905000D01*
X32152995Y-72909122D01*
X32150000Y-72913243D01*
X32150000Y-73190929D01*
X32150332Y-73196641D01*
X32164480Y-73317995D01*
X32167111Y-73329123D01*
X32222856Y-73482698D01*
X32227974Y-73492919D01*
X32317554Y-73629550D01*
X32324887Y-73638320D01*
X32443496Y-73750679D01*
X32452648Y-73757526D01*
X32552274Y-73815394D01*
X32593095Y-73860970D01*
X32599331Y-73921837D01*
X32568600Y-73974745D01*
X32512639Y-73999484D01*
X32502549Y-74000000D01*
X28504861Y-74000000D01*
X28495157Y-73999523D01*
X28450717Y-73995146D01*
X28314612Y-73981741D01*
X28295582Y-73977955D01*
X28142744Y-73931593D01*
X28126647Y-73926710D01*
X28108717Y-73919283D01*
X27953031Y-73836067D01*
X27936894Y-73825285D01*
X27854329Y-73757526D01*
X27800427Y-73713290D01*
X27786710Y-73699573D01*
X27719898Y-73618163D01*
X27674715Y-73563106D01*
X27663933Y-73546969D01*
X27580717Y-73391283D01*
X27573290Y-73373353D01*
X27522045Y-73204420D01*
X27518259Y-73185386D01*
X27500477Y-73004843D01*
X27500000Y-72995139D01*
X27500000Y-66500000D01*
X19204861Y-66500000D01*
X19195157Y-66499523D01*
X19150646Y-66495139D01*
X19014612Y-66481741D01*
X18995582Y-66477955D01*
X18903398Y-66449992D01*
X18826647Y-66426710D01*
X18808717Y-66419283D01*
X18653031Y-66336067D01*
X18636894Y-66325285D01*
X18566851Y-66267803D01*
X18500427Y-66213290D01*
X18486710Y-66199573D01*
X18407153Y-66102632D01*
X18374715Y-66063106D01*
X18363933Y-66046969D01*
X18280717Y-65891283D01*
X18273290Y-65873353D01*
X18222045Y-65704420D01*
X18218259Y-65685386D01*
X18217271Y-65675349D01*
X18200477Y-65504843D01*
X18200000Y-65495139D01*
X18200000Y-61500000D01*
X16499500Y-61500000D01*
X16441309Y-61481093D01*
X16405345Y-61431593D01*
X16400500Y-61401000D01*
X16400500Y-59280252D01*
X16388867Y-59221769D01*
X16344552Y-59155448D01*
X16278231Y-59111133D01*
X16268668Y-59109231D01*
X16268666Y-59109230D01*
X16245995Y-59104721D01*
X16219748Y-59099500D01*
X15699500Y-59099500D01*
X15641309Y-59080593D01*
X15605345Y-59031093D01*
X15600500Y-59000500D01*
X15600500Y-57325154D01*
X15619407Y-57266963D01*
X15639232Y-57246612D01*
X15668002Y-57224536D01*
X15728282Y-57178282D01*
X15824536Y-57052841D01*
X15885044Y-56906762D01*
X15905682Y-56750000D01*
X15885044Y-56593238D01*
X15824536Y-56447159D01*
X15728282Y-56321718D01*
X15602841Y-56225464D01*
X15456762Y-56164956D01*
X15300000Y-56144318D01*
X15188716Y-56158969D01*
X15128557Y-56147819D01*
X15105791Y-56130820D01*
X14200320Y-55225349D01*
X14197620Y-55222220D01*
X14195425Y-55217731D01*
X14159178Y-55184107D01*
X14156502Y-55181531D01*
X14142723Y-55167752D01*
X14139013Y-55165207D01*
X14135100Y-55161771D01*
X14120055Y-55147815D01*
X14113354Y-55141599D01*
X14102664Y-55137334D01*
X14083348Y-55127020D01*
X14081393Y-55125679D01*
X14081390Y-55125678D01*
X14073854Y-55120508D01*
X14047941Y-55114359D01*
X14034116Y-55109986D01*
X14015868Y-55102706D01*
X14015866Y-55102706D01*
X14009378Y-55100117D01*
X14003085Y-55099500D01*
X13996916Y-55099500D01*
X13974057Y-55096825D01*
X13973827Y-55096770D01*
X13973825Y-55096770D01*
X13964934Y-55094660D01*
X13937174Y-55098438D01*
X13936013Y-55098596D01*
X13922663Y-55099500D01*
X11753508Y-55099500D01*
X11749383Y-55099197D01*
X11744658Y-55097575D01*
X11695238Y-55099430D01*
X11691525Y-55099500D01*
X11672052Y-55099500D01*
X11667622Y-55100325D01*
X11662429Y-55100661D01*
X11643298Y-55101379D01*
X11641926Y-55101431D01*
X11632791Y-55101774D01*
X11624394Y-55105382D01*
X11624393Y-55105382D01*
X11622212Y-55106319D01*
X11601263Y-55112683D01*
X11598936Y-55113116D01*
X11598931Y-55113118D01*
X11589947Y-55114791D01*
X11570108Y-55127020D01*
X11567272Y-55128768D01*
X11554404Y-55135452D01*
X11536358Y-55143205D01*
X11536357Y-55143206D01*
X11529937Y-55145964D01*
X11525051Y-55149978D01*
X11520687Y-55154342D01*
X11502632Y-55168613D01*
X11494652Y-55173532D01*
X11476982Y-55196769D01*
X11468190Y-55206839D01*
X10325349Y-56349680D01*
X10322220Y-56352380D01*
X10317731Y-56354575D01*
X10311513Y-56361278D01*
X10284107Y-56390822D01*
X10281531Y-56393498D01*
X10267752Y-56407277D01*
X10265207Y-56410987D01*
X10261771Y-56414900D01*
X10241599Y-56436646D01*
X10238212Y-56445134D01*
X10238212Y-56445135D01*
X10237334Y-56447336D01*
X10227020Y-56466652D01*
X10225679Y-56468607D01*
X10225678Y-56468610D01*
X10220508Y-56476146D01*
X10218398Y-56485038D01*
X10214359Y-56502058D01*
X10209986Y-56515884D01*
X10202706Y-56534132D01*
X10200117Y-56540622D01*
X10199500Y-56546915D01*
X10199500Y-56553084D01*
X10196825Y-56575943D01*
X10194660Y-56585066D01*
X10196648Y-56599674D01*
X10198596Y-56613987D01*
X10199500Y-56627337D01*
X10199500Y-57524846D01*
X10180593Y-57583037D01*
X10160769Y-57603387D01*
X10071718Y-57671718D01*
X9975464Y-57797159D01*
X9914956Y-57943238D01*
X9894318Y-58100000D01*
X9914956Y-58256762D01*
X9975464Y-58402841D01*
X10071718Y-58528282D01*
X10197159Y-58624536D01*
X10343238Y-58685044D01*
X10500000Y-58705682D01*
X10656762Y-58685044D01*
X10802841Y-58624536D01*
X10928282Y-58528282D01*
X11024536Y-58402841D01*
X11085044Y-58256762D01*
X11105682Y-58100000D01*
X11085044Y-57943238D01*
X11024536Y-57797159D01*
X10928282Y-57671718D01*
X10839232Y-57603387D01*
X10804577Y-57552963D01*
X10800500Y-57524846D01*
X10800500Y-56765479D01*
X10819407Y-56707288D01*
X10829496Y-56695475D01*
X11795476Y-55729496D01*
X11849993Y-55701719D01*
X11865480Y-55700500D01*
X13784521Y-55700500D01*
X13842712Y-55719407D01*
X13854525Y-55729496D01*
X14680820Y-56555791D01*
X14708597Y-56610308D01*
X14708969Y-56638714D01*
X14694318Y-56750000D01*
X14714956Y-56906762D01*
X14775464Y-57052841D01*
X14871718Y-57178282D01*
X14931998Y-57224536D01*
X14960768Y-57246612D01*
X14995423Y-57297037D01*
X14999500Y-57325154D01*
X14999500Y-59000500D01*
X14980593Y-59058691D01*
X14931093Y-59094655D01*
X14900500Y-59099500D01*
X14380252Y-59099500D01*
X14354005Y-59104721D01*
X14331334Y-59109230D01*
X14331332Y-59109231D01*
X14321769Y-59111133D01*
X14255448Y-59155448D01*
X14211133Y-59221769D01*
X14199500Y-59280252D01*
X14199500Y-61401000D01*
X14180593Y-61459191D01*
X14131093Y-61495155D01*
X14100500Y-61500000D01*
X13999500Y-61500000D01*
X13941309Y-61481093D01*
X13905345Y-61431593D01*
X13900500Y-61401000D01*
X13900500Y-59280252D01*
X13888867Y-59221769D01*
X13844552Y-59155448D01*
X13778231Y-59111133D01*
X13768668Y-59109231D01*
X13768666Y-59109230D01*
X13745995Y-59104721D01*
X13719748Y-59099500D01*
X13199500Y-59099500D01*
X13141309Y-59080593D01*
X13105345Y-59031093D01*
X13100500Y-59000500D01*
X13100500Y-57275154D01*
X13119407Y-57216963D01*
X13139232Y-57196612D01*
X13157971Y-57182233D01*
X13228282Y-57128282D01*
X13324536Y-57002841D01*
X13385044Y-56856762D01*
X13405682Y-56700000D01*
X13385044Y-56543238D01*
X13324536Y-56397159D01*
X13228282Y-56271718D01*
X13102841Y-56175464D01*
X12956762Y-56114956D01*
X12800000Y-56094318D01*
X12643238Y-56114956D01*
X12497159Y-56175464D01*
X12371718Y-56271718D01*
X12275464Y-56397159D01*
X12214956Y-56543238D01*
X12194318Y-56700000D01*
X12214956Y-56856762D01*
X12275464Y-57002841D01*
X12371718Y-57128282D01*
X12442029Y-57182233D01*
X12460768Y-57196612D01*
X12495423Y-57247037D01*
X12499500Y-57275154D01*
X12499500Y-59000500D01*
X12480593Y-59058691D01*
X12431093Y-59094655D01*
X12400500Y-59099500D01*
X11880252Y-59099500D01*
X11854005Y-59104721D01*
X11831334Y-59109230D01*
X11831332Y-59109231D01*
X11821769Y-59111133D01*
X11755448Y-59155448D01*
X11711133Y-59221769D01*
X11699500Y-59280252D01*
X11699500Y-60400500D01*
X11680593Y-60458691D01*
X11631093Y-60494655D01*
X11600500Y-60499500D01*
X10053508Y-60499500D01*
X10049383Y-60499197D01*
X10044658Y-60497575D01*
X9995239Y-60499430D01*
X9991526Y-60499500D01*
X9972052Y-60499500D01*
X9967622Y-60500325D01*
X9962429Y-60500661D01*
X9946398Y-60501263D01*
X9941925Y-60501431D01*
X9932792Y-60501774D01*
X9924398Y-60505380D01*
X9924395Y-60505381D01*
X9922217Y-60506317D01*
X9901266Y-60512683D01*
X9889947Y-60514791D01*
X9882164Y-60519588D01*
X9882165Y-60519588D01*
X9867272Y-60528768D01*
X9854404Y-60535452D01*
X9836353Y-60543207D01*
X9836351Y-60543208D01*
X9829937Y-60545964D01*
X9825051Y-60549977D01*
X9820685Y-60554343D01*
X9802629Y-60568615D01*
X9802432Y-60568736D01*
X9802431Y-60568737D01*
X9794652Y-60573532D01*
X9789120Y-60580808D01*
X9789119Y-60580808D01*
X9776989Y-60596760D01*
X9768189Y-60606839D01*
X9325353Y-61049676D01*
X9322220Y-61052381D01*
X9317731Y-61054575D01*
X9311513Y-61061278D01*
X9284107Y-61090822D01*
X9281531Y-61093498D01*
X9267752Y-61107277D01*
X9265207Y-61110987D01*
X9261771Y-61114900D01*
X9241599Y-61136646D01*
X9238212Y-61145134D01*
X9238212Y-61145135D01*
X9237334Y-61147336D01*
X9227020Y-61166652D01*
X9225679Y-61168607D01*
X9225678Y-61168610D01*
X9220508Y-61176146D01*
X9216374Y-61193566D01*
X9214359Y-61202058D01*
X9209986Y-61215884D01*
X9202706Y-61234132D01*
X9200117Y-61240622D01*
X9199500Y-61246915D01*
X9199500Y-61253084D01*
X9196825Y-61275943D01*
X9194660Y-61285066D01*
X9198596Y-61313987D01*
X9199500Y-61327337D01*
X9199500Y-65800500D01*
X9180593Y-65858691D01*
X9131093Y-65894655D01*
X9100500Y-65899500D01*
X1765479Y-65899500D01*
X1707288Y-65880593D01*
X1695475Y-65870504D01*
X1529496Y-65704525D01*
X1501719Y-65650008D01*
X1500500Y-65634521D01*
X1500500Y-62554200D01*
X1894908Y-62554200D01*
X1895116Y-62556998D01*
X1920796Y-62902566D01*
X1920797Y-62902575D01*
X1921004Y-62905358D01*
X1986684Y-63251304D01*
X2091104Y-63587592D01*
X2232921Y-63909897D01*
X2410313Y-64214076D01*
X2620999Y-64496219D01*
X2862270Y-64752697D01*
X2864414Y-64754512D01*
X2864415Y-64754513D01*
X3048975Y-64910754D01*
X3131024Y-64980214D01*
X3423807Y-65175845D01*
X3426294Y-65177126D01*
X3426301Y-65177130D01*
X3734356Y-65335789D01*
X3736853Y-65337075D01*
X3739479Y-65338070D01*
X3739486Y-65338073D01*
X4063509Y-65460834D01*
X4063516Y-65460836D01*
X4066139Y-65461830D01*
X4320565Y-65526446D01*
X4400591Y-65546770D01*
X4407430Y-65548507D01*
X4756340Y-65595992D01*
X4758700Y-65596085D01*
X4758703Y-65596085D01*
X4870127Y-65600463D01*
X4870151Y-65600463D01*
X4871081Y-65600500D01*
X5089198Y-65600500D01*
X5284220Y-65589426D01*
X5348762Y-65585761D01*
X5348764Y-65585761D01*
X5351560Y-65585602D01*
X5354323Y-65585127D01*
X5354325Y-65585127D01*
X5695832Y-65526446D01*
X5695838Y-65526445D01*
X5698600Y-65525970D01*
X5701290Y-65525186D01*
X5701294Y-65525185D01*
X6033970Y-65428218D01*
X6033974Y-65428217D01*
X6036659Y-65427434D01*
X6039242Y-65426351D01*
X6358791Y-65292353D01*
X6358793Y-65292352D01*
X6361390Y-65291263D01*
X6389486Y-65275529D01*
X6666162Y-65120583D01*
X6668619Y-65119207D01*
X6954395Y-64913477D01*
X7215046Y-64676719D01*
X7267033Y-64617440D01*
X7445366Y-64414090D01*
X7445366Y-64414089D01*
X7447219Y-64411977D01*
X7647929Y-64122653D01*
X7814598Y-63812468D01*
X7850766Y-63721814D01*
X7944042Y-63488014D01*
X7945081Y-63485410D01*
X8008173Y-63253990D01*
X8036965Y-63148384D01*
X8036966Y-63148378D01*
X8037701Y-63145683D01*
X8038127Y-63142917D01*
X8090842Y-62800425D01*
X8090843Y-62800419D01*
X8091268Y-62797655D01*
X8105092Y-62445800D01*
X8086794Y-62199575D01*
X8079204Y-62097434D01*
X8079203Y-62097425D01*
X8078996Y-62094642D01*
X8013316Y-61748696D01*
X7908896Y-61412408D01*
X7767079Y-61090103D01*
X7749029Y-61059151D01*
X7591100Y-60788347D01*
X7589687Y-60785924D01*
X7379001Y-60503781D01*
X7137730Y-60247303D01*
X6868976Y-60019786D01*
X6576193Y-59824155D01*
X6573706Y-59822874D01*
X6573699Y-59822870D01*
X6265644Y-59664211D01*
X6265643Y-59664211D01*
X6263147Y-59662925D01*
X6260521Y-59661930D01*
X6260514Y-59661927D01*
X5936491Y-59539166D01*
X5936484Y-59539164D01*
X5933861Y-59538170D01*
X5592570Y-59451493D01*
X5243660Y-59404008D01*
X5241300Y-59403915D01*
X5241297Y-59403915D01*
X5129873Y-59399537D01*
X5129849Y-59399537D01*
X5128919Y-59399500D01*
X4910802Y-59399500D01*
X4715780Y-59410574D01*
X4651238Y-59414239D01*
X4651236Y-59414239D01*
X4648440Y-59414398D01*
X4645677Y-59414873D01*
X4645675Y-59414873D01*
X4304168Y-59473554D01*
X4304162Y-59473555D01*
X4301400Y-59474030D01*
X4298710Y-59474814D01*
X4298706Y-59474815D01*
X3966030Y-59571782D01*
X3966026Y-59571783D01*
X3963341Y-59572566D01*
X3638610Y-59708737D01*
X3331381Y-59880793D01*
X3045605Y-60086523D01*
X2784954Y-60323281D01*
X2783101Y-60325394D01*
X2783098Y-60325397D01*
X2586143Y-60549981D01*
X2552781Y-60588023D01*
X2352071Y-60877347D01*
X2350744Y-60879817D01*
X2350742Y-60879820D01*
X2338204Y-60903154D01*
X2185402Y-61187532D01*
X2184362Y-61190138D01*
X2184360Y-61190143D01*
X2094615Y-61415091D01*
X2054919Y-61514590D01*
X2054182Y-61517292D01*
X2054182Y-61517293D01*
X1991095Y-61748696D01*
X1962299Y-61854317D01*
X1908732Y-62202345D01*
X1894908Y-62554200D01*
X1500500Y-62554200D01*
X1500500Y-54415348D01*
X4232672Y-54415348D01*
X4238140Y-54467372D01*
X4240502Y-54478116D01*
X4294773Y-54637536D01*
X4299460Y-54647496D01*
X4387701Y-54790931D01*
X4394473Y-54799599D01*
X4512306Y-54919925D01*
X4520829Y-54926876D01*
X4662391Y-55018108D01*
X4672237Y-55022995D01*
X4830496Y-55080596D01*
X4841190Y-55083183D01*
X4971225Y-55099610D01*
X4977413Y-55100000D01*
X5179320Y-55100000D01*
X5192005Y-55095878D01*
X5195000Y-55091757D01*
X5195000Y-55084320D01*
X5405000Y-55084320D01*
X5409122Y-55097005D01*
X5413243Y-55100000D01*
X5617356Y-55100000D01*
X5622885Y-55099691D01*
X5747855Y-55085673D01*
X5758592Y-55083234D01*
X5917629Y-55027851D01*
X5927548Y-55023099D01*
X6070370Y-54933854D01*
X6078987Y-54927024D01*
X6198488Y-54808355D01*
X6205382Y-54799779D01*
X6295619Y-54657590D01*
X6300441Y-54647704D01*
X6356936Y-54489046D01*
X6359446Y-54478347D01*
X6366336Y-54420568D01*
X6363745Y-54407486D01*
X6362189Y-54406045D01*
X6357435Y-54405000D01*
X5420680Y-54405000D01*
X5407995Y-54409122D01*
X5405000Y-54413243D01*
X5405000Y-55084320D01*
X5195000Y-55084320D01*
X5195000Y-54420680D01*
X5190878Y-54407995D01*
X5186757Y-54405000D01*
X4247264Y-54405000D01*
X4234579Y-54409122D01*
X4233114Y-54411137D01*
X4232672Y-54415348D01*
X1500500Y-54415348D01*
X1500500Y-54179432D01*
X4233664Y-54179432D01*
X4236255Y-54192514D01*
X4237811Y-54193955D01*
X4242565Y-54195000D01*
X5179320Y-54195000D01*
X5192005Y-54190878D01*
X5195000Y-54186757D01*
X5195000Y-54179320D01*
X5405000Y-54179320D01*
X5409122Y-54192005D01*
X5413243Y-54195000D01*
X6352736Y-54195000D01*
X6365421Y-54190878D01*
X6366886Y-54188863D01*
X6367328Y-54184652D01*
X6361860Y-54132628D01*
X6359498Y-54121884D01*
X6305227Y-53962464D01*
X6300540Y-53952504D01*
X6212299Y-53809069D01*
X6205527Y-53800401D01*
X6087694Y-53680075D01*
X6079171Y-53673124D01*
X5937609Y-53581892D01*
X5927763Y-53577005D01*
X5769504Y-53519404D01*
X5758810Y-53516817D01*
X5628775Y-53500390D01*
X5622587Y-53500000D01*
X5420680Y-53500000D01*
X5407995Y-53504122D01*
X5405000Y-53508243D01*
X5405000Y-54179320D01*
X5195000Y-54179320D01*
X5195000Y-53515680D01*
X5190878Y-53502995D01*
X5186757Y-53500000D01*
X4982644Y-53500000D01*
X4977115Y-53500309D01*
X4852145Y-53514327D01*
X4841408Y-53516766D01*
X4682371Y-53572149D01*
X4672452Y-53576901D01*
X4529630Y-53666146D01*
X4521013Y-53672976D01*
X4401512Y-53791645D01*
X4394618Y-53800221D01*
X4304381Y-53942410D01*
X4299559Y-53952296D01*
X4243064Y-54110954D01*
X4240554Y-54121653D01*
X4233664Y-54179432D01*
X1500500Y-54179432D01*
X1500500Y-52693140D01*
X4124500Y-52693140D01*
X4135356Y-52782851D01*
X4190839Y-52922985D01*
X4281963Y-53043037D01*
X4402015Y-53134161D01*
X4542149Y-53189644D01*
X4631860Y-53200500D01*
X5968140Y-53200500D01*
X6057851Y-53189644D01*
X6197985Y-53134161D01*
X6318037Y-53043037D01*
X6409161Y-52922985D01*
X6460408Y-52793550D01*
X6462304Y-52788762D01*
X6462305Y-52788760D01*
X6464644Y-52782851D01*
X6465408Y-52776537D01*
X6465765Y-52775132D01*
X6498413Y-52723386D01*
X6555243Y-52700712D01*
X6561719Y-52700500D01*
X18993099Y-52700500D01*
X19051290Y-52719407D01*
X19063103Y-52729496D01*
X19970504Y-53636896D01*
X19998281Y-53691413D01*
X19999500Y-53706900D01*
X19999500Y-55254127D01*
X19980593Y-55312318D01*
X19974175Y-55319833D01*
X19971718Y-55321718D01*
X19875464Y-55447159D01*
X19814956Y-55593238D01*
X19794318Y-55750000D01*
X19814956Y-55906762D01*
X19875464Y-56052841D01*
X19971718Y-56178282D01*
X19971743Y-56178301D01*
X19998281Y-56230386D01*
X19999500Y-56245873D01*
X19999500Y-60704127D01*
X19980593Y-60762318D01*
X19974175Y-60769833D01*
X19971718Y-60771718D01*
X19875464Y-60897159D01*
X19814956Y-61043238D01*
X19794318Y-61200000D01*
X19814956Y-61356762D01*
X19875464Y-61502841D01*
X19971718Y-61628282D01*
X20097159Y-61724536D01*
X20243238Y-61785044D01*
X20400000Y-61805682D01*
X20556762Y-61785044D01*
X20702841Y-61724536D01*
X20828282Y-61628282D01*
X20924536Y-61502841D01*
X20985044Y-61356762D01*
X21005682Y-61200000D01*
X20985044Y-61043238D01*
X20924536Y-60897159D01*
X20828282Y-60771718D01*
X20828257Y-60771699D01*
X20801719Y-60719614D01*
X20800500Y-60704127D01*
X20800500Y-56245873D01*
X20819407Y-56187682D01*
X20825825Y-56180167D01*
X20828282Y-56178282D01*
X20924536Y-56052841D01*
X20985044Y-55906762D01*
X21003082Y-55769748D01*
X44649500Y-55769748D01*
X44661133Y-55828231D01*
X44705448Y-55894552D01*
X44771769Y-55938867D01*
X44781332Y-55940769D01*
X44781334Y-55940770D01*
X44804005Y-55945279D01*
X44830252Y-55950500D01*
X46569748Y-55950500D01*
X46595995Y-55945279D01*
X46618666Y-55940770D01*
X46618668Y-55940769D01*
X46628231Y-55938867D01*
X46694552Y-55894552D01*
X46738867Y-55828231D01*
X46750500Y-55769748D01*
X46750500Y-54030252D01*
X46738867Y-53971769D01*
X46694552Y-53905448D01*
X46628231Y-53861133D01*
X46618668Y-53859231D01*
X46618666Y-53859230D01*
X46595995Y-53854721D01*
X46569748Y-53849500D01*
X44830252Y-53849500D01*
X44804005Y-53854721D01*
X44781334Y-53859230D01*
X44781332Y-53859231D01*
X44771769Y-53861133D01*
X44705448Y-53905448D01*
X44661133Y-53971769D01*
X44649500Y-54030252D01*
X44649500Y-55769748D01*
X21003082Y-55769748D01*
X21005682Y-55750000D01*
X20985044Y-55593238D01*
X20924536Y-55447159D01*
X20828282Y-55321718D01*
X20828257Y-55321699D01*
X20801719Y-55269614D01*
X20800500Y-55254127D01*
X20800500Y-53800000D01*
X37294318Y-53800000D01*
X37314956Y-53956762D01*
X37375464Y-54102841D01*
X37471718Y-54228282D01*
X37597159Y-54324536D01*
X37743238Y-54385044D01*
X37900000Y-54405682D01*
X38056762Y-54385044D01*
X38202841Y-54324536D01*
X38328282Y-54228282D01*
X38424536Y-54102841D01*
X38485044Y-53956762D01*
X38505682Y-53800000D01*
X38485044Y-53643238D01*
X38424536Y-53497159D01*
X38328282Y-53371718D01*
X38239232Y-53303387D01*
X38204577Y-53252963D01*
X38200500Y-53224846D01*
X38200500Y-52345262D01*
X44644520Y-52345262D01*
X44661759Y-52550553D01*
X44663092Y-52555201D01*
X44663092Y-52555202D01*
X44704756Y-52700500D01*
X44718544Y-52748586D01*
X44812712Y-52931818D01*
X44940677Y-53093270D01*
X44944357Y-53096402D01*
X44944359Y-53096404D01*
X45033126Y-53171950D01*
X45097564Y-53226791D01*
X45101787Y-53229151D01*
X45101791Y-53229154D01*
X45172374Y-53268601D01*
X45277398Y-53327297D01*
X45281996Y-53328791D01*
X45468724Y-53389463D01*
X45468726Y-53389464D01*
X45473329Y-53390959D01*
X45677894Y-53415351D01*
X45682716Y-53414980D01*
X45682719Y-53414980D01*
X45750541Y-53409761D01*
X45883300Y-53399546D01*
X46081725Y-53344145D01*
X46086038Y-53341966D01*
X46086044Y-53341964D01*
X46261289Y-53253441D01*
X46261291Y-53253440D01*
X46265610Y-53251258D01*
X46330578Y-53200500D01*
X46424135Y-53127406D01*
X46424139Y-53127402D01*
X46427951Y-53124424D01*
X46562564Y-52968472D01*
X46581231Y-52935613D01*
X46661934Y-52793550D01*
X46661935Y-52793547D01*
X46664323Y-52789344D01*
X46668584Y-52776537D01*
X46727824Y-52598454D01*
X46727824Y-52598452D01*
X46729351Y-52593863D01*
X46755171Y-52389474D01*
X46755583Y-52360000D01*
X46735480Y-52154970D01*
X46675935Y-51957749D01*
X46579218Y-51775849D01*
X46449011Y-51616200D01*
X46372472Y-51552881D01*
X46294002Y-51487965D01*
X46294000Y-51487964D01*
X46290275Y-51484882D01*
X46109055Y-51386897D01*
X46045855Y-51367333D01*
X45916875Y-51327407D01*
X45916871Y-51327406D01*
X45912254Y-51325977D01*
X45907446Y-51325472D01*
X45907443Y-51325471D01*
X45712185Y-51304949D01*
X45712183Y-51304949D01*
X45707369Y-51304443D01*
X45647354Y-51309905D01*
X45507022Y-51322675D01*
X45507017Y-51322676D01*
X45502203Y-51323114D01*
X45304572Y-51381280D01*
X45300288Y-51383519D01*
X45300287Y-51383520D01*
X45248955Y-51410356D01*
X45122002Y-51476726D01*
X45118231Y-51479758D01*
X44965220Y-51602781D01*
X44965217Y-51602783D01*
X44961447Y-51605815D01*
X44958333Y-51609526D01*
X44958332Y-51609527D01*
X44896438Y-51683290D01*
X44829024Y-51763630D01*
X44826689Y-51767878D01*
X44826688Y-51767879D01*
X44819955Y-51780126D01*
X44729776Y-51944162D01*
X44728313Y-51948775D01*
X44728311Y-51948779D01*
X44674413Y-52118689D01*
X44667484Y-52140532D01*
X44666944Y-52145344D01*
X44666944Y-52145345D01*
X44665865Y-52154970D01*
X44644520Y-52345262D01*
X38200500Y-52345262D01*
X38200500Y-51575154D01*
X38219407Y-51516963D01*
X38239232Y-51496612D01*
X38254519Y-51484882D01*
X38328282Y-51428282D01*
X38424536Y-51302841D01*
X38485044Y-51156762D01*
X38505682Y-51000000D01*
X38485044Y-50843238D01*
X38424536Y-50697159D01*
X38328282Y-50571718D01*
X38202841Y-50475464D01*
X38056762Y-50414956D01*
X37925569Y-50397684D01*
X37906434Y-50395165D01*
X37900000Y-50394318D01*
X37893566Y-50395165D01*
X37874431Y-50397684D01*
X37743238Y-50414956D01*
X37597159Y-50475464D01*
X37471718Y-50571718D01*
X37375464Y-50697159D01*
X37314956Y-50843238D01*
X37294318Y-51000000D01*
X37314956Y-51156762D01*
X37375464Y-51302841D01*
X37471718Y-51428282D01*
X37545481Y-51484882D01*
X37560768Y-51496612D01*
X37595423Y-51547037D01*
X37599500Y-51575154D01*
X37599500Y-53224846D01*
X37580593Y-53283037D01*
X37560769Y-53303387D01*
X37471718Y-53371718D01*
X37375464Y-53497159D01*
X37314956Y-53643238D01*
X37294318Y-53800000D01*
X20800500Y-53800000D01*
X20800500Y-53468481D01*
X20800499Y-53468475D01*
X20800499Y-53436567D01*
X20798093Y-53429160D01*
X20798092Y-53429157D01*
X20793046Y-53413627D01*
X20789420Y-53398524D01*
X20786865Y-53382392D01*
X20785646Y-53374696D01*
X20774695Y-53353204D01*
X20768751Y-53338855D01*
X20763704Y-53323321D01*
X20763704Y-53323320D01*
X20761296Y-53315910D01*
X20747111Y-53296386D01*
X20739004Y-53283156D01*
X20728050Y-53261658D01*
X20638342Y-53171950D01*
X19460909Y-51994516D01*
X19460905Y-51994513D01*
X19438342Y-51971950D01*
X19416846Y-51960998D01*
X19403605Y-51952883D01*
X19390395Y-51943285D01*
X19384090Y-51938704D01*
X19361143Y-51931248D01*
X19346797Y-51925305D01*
X19325304Y-51914354D01*
X19317611Y-51913136D01*
X19317609Y-51913135D01*
X19301481Y-51910581D01*
X19286380Y-51906956D01*
X19263433Y-51899500D01*
X6561719Y-51899500D01*
X6503528Y-51880593D01*
X6467564Y-51831093D01*
X6465765Y-51824868D01*
X6465408Y-51823461D01*
X6464644Y-51817149D01*
X6409161Y-51677015D01*
X6318037Y-51556963D01*
X6197985Y-51465839D01*
X6057851Y-51410356D01*
X5968140Y-51399500D01*
X4631860Y-51399500D01*
X4542149Y-51410356D01*
X4402015Y-51465839D01*
X4281963Y-51556963D01*
X4190839Y-51677015D01*
X4135356Y-51817149D01*
X4124500Y-51906860D01*
X4124500Y-52693140D01*
X1500500Y-52693140D01*
X1500500Y-49934846D01*
X44655903Y-49934846D01*
X44661847Y-50005644D01*
X44663585Y-50015111D01*
X44717674Y-50203743D01*
X44721225Y-50212711D01*
X44810919Y-50387236D01*
X44816142Y-50395341D01*
X44938037Y-50549134D01*
X44944720Y-50556055D01*
X45094164Y-50683241D01*
X45102078Y-50688742D01*
X45273373Y-50784475D01*
X45282201Y-50788332D01*
X45468838Y-50848974D01*
X45478238Y-50851041D01*
X45579432Y-50863108D01*
X45592514Y-50860517D01*
X45593955Y-50858961D01*
X45595000Y-50854207D01*
X45595000Y-50849390D01*
X45805000Y-50849390D01*
X45809122Y-50862075D01*
X45811735Y-50863974D01*
X45814680Y-50864325D01*
X45878385Y-50859423D01*
X45887876Y-50857750D01*
X46076882Y-50804978D01*
X46085862Y-50801496D01*
X46261020Y-50713017D01*
X46269155Y-50707854D01*
X46423787Y-50587042D01*
X46430771Y-50580391D01*
X46558990Y-50431848D01*
X46564546Y-50423973D01*
X46661471Y-50253353D01*
X46665392Y-50244546D01*
X46727334Y-50058346D01*
X46729469Y-50048944D01*
X46743162Y-49940556D01*
X46740662Y-49927454D01*
X46739252Y-49926130D01*
X46734197Y-49925000D01*
X45820680Y-49925000D01*
X45807995Y-49929122D01*
X45805000Y-49933243D01*
X45805000Y-50849390D01*
X45595000Y-50849390D01*
X45595000Y-49940680D01*
X45590878Y-49927995D01*
X45586757Y-49925000D01*
X44670756Y-49925000D01*
X44658071Y-49929122D01*
X44656280Y-49931586D01*
X44655903Y-49934846D01*
X1500500Y-49934846D01*
X1500500Y-49699417D01*
X44656895Y-49699417D01*
X44659577Y-49712483D01*
X44661280Y-49714039D01*
X44665726Y-49715000D01*
X45579320Y-49715000D01*
X45592005Y-49710878D01*
X45595000Y-49706757D01*
X45595000Y-49699320D01*
X45805000Y-49699320D01*
X45809122Y-49712005D01*
X45813243Y-49715000D01*
X46729106Y-49715000D01*
X46741791Y-49710878D01*
X46743364Y-49708713D01*
X46743788Y-49704818D01*
X46735459Y-49619885D01*
X46733589Y-49610437D01*
X46676869Y-49422572D01*
X46673199Y-49413668D01*
X46581072Y-49240401D01*
X46575740Y-49232376D01*
X46451716Y-49080307D01*
X46444922Y-49073466D01*
X46293721Y-48948381D01*
X46285738Y-48942997D01*
X46113114Y-48849660D01*
X46104243Y-48845931D01*
X45916774Y-48787899D01*
X45907342Y-48785963D01*
X45820593Y-48776846D01*
X45807548Y-48779619D01*
X45805881Y-48781470D01*
X45805000Y-48785614D01*
X45805000Y-49699320D01*
X45595000Y-49699320D01*
X45595000Y-48790851D01*
X45590878Y-48778166D01*
X45588563Y-48776483D01*
X45584987Y-48776082D01*
X45507117Y-48783168D01*
X45497654Y-48784974D01*
X45309407Y-48840378D01*
X45300466Y-48843991D01*
X45126573Y-48934899D01*
X45118497Y-48940184D01*
X44965571Y-49063140D01*
X44958687Y-49069881D01*
X44832551Y-49220205D01*
X44827104Y-49228159D01*
X44732573Y-49400111D01*
X44728773Y-49408976D01*
X44669439Y-49596021D01*
X44667435Y-49605449D01*
X44656895Y-49699417D01*
X1500500Y-49699417D01*
X1500500Y-48700000D01*
X1794318Y-48700000D01*
X1814956Y-48856762D01*
X1875464Y-49002841D01*
X1971718Y-49128282D01*
X2097159Y-49224536D01*
X2243238Y-49285044D01*
X2400000Y-49305682D01*
X2556762Y-49285044D01*
X2702841Y-49224536D01*
X2828282Y-49128282D01*
X2924536Y-49002841D01*
X2985044Y-48856762D01*
X3005682Y-48700000D01*
X2985044Y-48543238D01*
X2924536Y-48397159D01*
X2828282Y-48271718D01*
X2739232Y-48203387D01*
X2704577Y-48152963D01*
X2700500Y-48124846D01*
X2700500Y-47265262D01*
X44644520Y-47265262D01*
X44661759Y-47470553D01*
X44663092Y-47475201D01*
X44663092Y-47475202D01*
X44715154Y-47656762D01*
X44718544Y-47668586D01*
X44812712Y-47851818D01*
X44940677Y-48013270D01*
X44944357Y-48016402D01*
X44944359Y-48016404D01*
X45057017Y-48112283D01*
X45097564Y-48146791D01*
X45101787Y-48149151D01*
X45101791Y-48149154D01*
X45148868Y-48175464D01*
X45277398Y-48247297D01*
X45281996Y-48248791D01*
X45468724Y-48309463D01*
X45468726Y-48309464D01*
X45473329Y-48310959D01*
X45677894Y-48335351D01*
X45682716Y-48334980D01*
X45682719Y-48334980D01*
X45750541Y-48329761D01*
X45883300Y-48319546D01*
X46081725Y-48264145D01*
X46086038Y-48261966D01*
X46086044Y-48261964D01*
X46261289Y-48173441D01*
X46261291Y-48173440D01*
X46265610Y-48171258D01*
X46325015Y-48124846D01*
X46424135Y-48047406D01*
X46424139Y-48047402D01*
X46427951Y-48044424D01*
X46444281Y-48025506D01*
X46532649Y-47923129D01*
X46562564Y-47888472D01*
X46581231Y-47855613D01*
X46661934Y-47713550D01*
X46661935Y-47713547D01*
X46664323Y-47709344D01*
X46677882Y-47668586D01*
X46727824Y-47518454D01*
X46727824Y-47518452D01*
X46729351Y-47513863D01*
X46730290Y-47506434D01*
X46754823Y-47312228D01*
X46755171Y-47309474D01*
X46755583Y-47280000D01*
X46753667Y-47260454D01*
X46735952Y-47079780D01*
X46735951Y-47079776D01*
X46735480Y-47074970D01*
X46733305Y-47067764D01*
X46700125Y-46957869D01*
X46675935Y-46877749D01*
X46579218Y-46695849D01*
X46449011Y-46536200D01*
X46290275Y-46404882D01*
X46109055Y-46306897D01*
X46045855Y-46287333D01*
X45916875Y-46247407D01*
X45916871Y-46247406D01*
X45912254Y-46245977D01*
X45907446Y-46245472D01*
X45907443Y-46245471D01*
X45712185Y-46224949D01*
X45712183Y-46224949D01*
X45707369Y-46224443D01*
X45655866Y-46229130D01*
X45507022Y-46242675D01*
X45507017Y-46242676D01*
X45502203Y-46243114D01*
X45304572Y-46301280D01*
X45300288Y-46303519D01*
X45300287Y-46303520D01*
X45289428Y-46309197D01*
X45122002Y-46396726D01*
X45118231Y-46399758D01*
X44965220Y-46522781D01*
X44965217Y-46522783D01*
X44961447Y-46525815D01*
X44958333Y-46529526D01*
X44958332Y-46529527D01*
X44875467Y-46628282D01*
X44829024Y-46683630D01*
X44826689Y-46687878D01*
X44826688Y-46687879D01*
X44821887Y-46696612D01*
X44729776Y-46864162D01*
X44728313Y-46868775D01*
X44728311Y-46868779D01*
X44713932Y-46914109D01*
X44667484Y-47060532D01*
X44666944Y-47065344D01*
X44666944Y-47065345D01*
X44665865Y-47074970D01*
X44644520Y-47265262D01*
X2700500Y-47265262D01*
X2700500Y-46775154D01*
X2719407Y-46716963D01*
X2739232Y-46696612D01*
X2828282Y-46628282D01*
X2924536Y-46502841D01*
X2985044Y-46356762D01*
X3005682Y-46200000D01*
X37794318Y-46200000D01*
X37814956Y-46356762D01*
X37875464Y-46502841D01*
X37971718Y-46628282D01*
X38097159Y-46724536D01*
X38243238Y-46785044D01*
X38400000Y-46805682D01*
X38556762Y-46785044D01*
X38702841Y-46724536D01*
X38828282Y-46628282D01*
X38924536Y-46502841D01*
X38985044Y-46356762D01*
X39001847Y-46229130D01*
X39013183Y-46205364D01*
X39012997Y-46205187D01*
X39009569Y-46194636D01*
X39186817Y-46194636D01*
X39187003Y-46194813D01*
X39198153Y-46229130D01*
X39214956Y-46356762D01*
X39275464Y-46502841D01*
X39371718Y-46628282D01*
X39497159Y-46724536D01*
X39643238Y-46785044D01*
X39800000Y-46805682D01*
X39956762Y-46785044D01*
X40102841Y-46724536D01*
X40228282Y-46628282D01*
X40324536Y-46502841D01*
X40385044Y-46356762D01*
X40405682Y-46200000D01*
X40385044Y-46043238D01*
X40324536Y-45897159D01*
X40228282Y-45771718D01*
X40139232Y-45703387D01*
X40104577Y-45652963D01*
X40100500Y-45624846D01*
X40100500Y-44725262D01*
X44644520Y-44725262D01*
X44661759Y-44930553D01*
X44718544Y-45128586D01*
X44812712Y-45311818D01*
X44940677Y-45473270D01*
X44944357Y-45476402D01*
X44944359Y-45476404D01*
X45057017Y-45572283D01*
X45097564Y-45606791D01*
X45101787Y-45609151D01*
X45101791Y-45609154D01*
X45141342Y-45631258D01*
X45277398Y-45707297D01*
X45281996Y-45708791D01*
X45468724Y-45769463D01*
X45468726Y-45769464D01*
X45473329Y-45770959D01*
X45677894Y-45795351D01*
X45682716Y-45794980D01*
X45682719Y-45794980D01*
X45750541Y-45789761D01*
X45883300Y-45779546D01*
X46081725Y-45724145D01*
X46086038Y-45721966D01*
X46086044Y-45721964D01*
X46261289Y-45633441D01*
X46261291Y-45633440D01*
X46265610Y-45631258D01*
X46273817Y-45624846D01*
X46424135Y-45507406D01*
X46424139Y-45507402D01*
X46427951Y-45504424D01*
X46562564Y-45348472D01*
X46581231Y-45315613D01*
X46661934Y-45173550D01*
X46661935Y-45173547D01*
X46664323Y-45169344D01*
X46677882Y-45128586D01*
X46727824Y-44978454D01*
X46727824Y-44978452D01*
X46729351Y-44973863D01*
X46755171Y-44769474D01*
X46755583Y-44740000D01*
X46735480Y-44534970D01*
X46675935Y-44337749D01*
X46579218Y-44155849D01*
X46449011Y-43996200D01*
X46290275Y-43864882D01*
X46109055Y-43766897D01*
X46045855Y-43747333D01*
X45916875Y-43707407D01*
X45916871Y-43707406D01*
X45912254Y-43705977D01*
X45907446Y-43705472D01*
X45907443Y-43705471D01*
X45712185Y-43684949D01*
X45712183Y-43684949D01*
X45707369Y-43684443D01*
X45647354Y-43689905D01*
X45507022Y-43702675D01*
X45507017Y-43702676D01*
X45502203Y-43703114D01*
X45304572Y-43761280D01*
X45300288Y-43763519D01*
X45300287Y-43763520D01*
X45289428Y-43769197D01*
X45122002Y-43856726D01*
X45118231Y-43859758D01*
X44965220Y-43982781D01*
X44965217Y-43982783D01*
X44961447Y-43985815D01*
X44958333Y-43989526D01*
X44958332Y-43989527D01*
X44949585Y-43999952D01*
X44829024Y-44143630D01*
X44826689Y-44147878D01*
X44826688Y-44147879D01*
X44819955Y-44160126D01*
X44729776Y-44324162D01*
X44667484Y-44520532D01*
X44666944Y-44525344D01*
X44666944Y-44525345D01*
X44665865Y-44534970D01*
X44644520Y-44725262D01*
X40100500Y-44725262D01*
X40100500Y-42775154D01*
X40119407Y-42716963D01*
X40139232Y-42696612D01*
X40228282Y-42628282D01*
X40324536Y-42502841D01*
X40385044Y-42356762D01*
X40405682Y-42200000D01*
X40385044Y-42043238D01*
X40324536Y-41897159D01*
X40228282Y-41771718D01*
X40102841Y-41675464D01*
X39956762Y-41614956D01*
X39800000Y-41594318D01*
X39643238Y-41614956D01*
X39497159Y-41675464D01*
X39371718Y-41771718D01*
X39275464Y-41897159D01*
X39214956Y-42043238D01*
X39214109Y-42049674D01*
X39198153Y-42170870D01*
X39186817Y-42194636D01*
X39187003Y-42194813D01*
X39198153Y-42229130D01*
X39214956Y-42356762D01*
X39275464Y-42502841D01*
X39371718Y-42628282D01*
X39460768Y-42696612D01*
X39495423Y-42747037D01*
X39499500Y-42775154D01*
X39499500Y-45624846D01*
X39480593Y-45683037D01*
X39460769Y-45703387D01*
X39371718Y-45771718D01*
X39275464Y-45897159D01*
X39214956Y-46043238D01*
X39214109Y-46049674D01*
X39198153Y-46170870D01*
X39186817Y-46194636D01*
X39009569Y-46194636D01*
X39001847Y-46170870D01*
X38985891Y-46049674D01*
X38985044Y-46043238D01*
X38924536Y-45897159D01*
X38828282Y-45771718D01*
X38739232Y-45703387D01*
X38704577Y-45652963D01*
X38700500Y-45624846D01*
X38700500Y-42775154D01*
X38719407Y-42716963D01*
X38739232Y-42696612D01*
X38828282Y-42628282D01*
X38924536Y-42502841D01*
X38985044Y-42356762D01*
X39001847Y-42229130D01*
X39013183Y-42205364D01*
X39012997Y-42205187D01*
X39001847Y-42170870D01*
X38985891Y-42049674D01*
X38985044Y-42043238D01*
X38924536Y-41897159D01*
X38828282Y-41771718D01*
X38702841Y-41675464D01*
X38556762Y-41614956D01*
X38400000Y-41594318D01*
X38243238Y-41614956D01*
X38097159Y-41675464D01*
X37971718Y-41771718D01*
X37875464Y-41897159D01*
X37814956Y-42043238D01*
X37794318Y-42200000D01*
X37814956Y-42356762D01*
X37875464Y-42502841D01*
X37971718Y-42628282D01*
X38060768Y-42696612D01*
X38095423Y-42747037D01*
X38099500Y-42775154D01*
X38099500Y-45624846D01*
X38080593Y-45683037D01*
X38060769Y-45703387D01*
X37971718Y-45771718D01*
X37875464Y-45897159D01*
X37814956Y-46043238D01*
X37794318Y-46200000D01*
X3005682Y-46200000D01*
X2985044Y-46043238D01*
X2924536Y-45897159D01*
X2828282Y-45771718D01*
X2702841Y-45675464D01*
X2556762Y-45614956D01*
X2400000Y-45594318D01*
X2243238Y-45614956D01*
X2097159Y-45675464D01*
X1971718Y-45771718D01*
X1875464Y-45897159D01*
X1814956Y-46043238D01*
X1794318Y-46200000D01*
X1814956Y-46356762D01*
X1875464Y-46502841D01*
X1971718Y-46628282D01*
X2060768Y-46696612D01*
X2095423Y-46747037D01*
X2099500Y-46775154D01*
X2099500Y-48124846D01*
X2080593Y-48183037D01*
X2060769Y-48203387D01*
X1971718Y-48271718D01*
X1875464Y-48397159D01*
X1814956Y-48543238D01*
X1794318Y-48700000D01*
X1500500Y-48700000D01*
X1500500Y-48075154D01*
X1519407Y-48016963D01*
X1539232Y-47996612D01*
X1628282Y-47928282D01*
X1724536Y-47802841D01*
X1785044Y-47656762D01*
X1802316Y-47525569D01*
X1804835Y-47506434D01*
X1805682Y-47500000D01*
X1785044Y-47343238D01*
X1724536Y-47197159D01*
X1628282Y-47071718D01*
X1502841Y-46975464D01*
X1356762Y-46914956D01*
X1200000Y-46894318D01*
X1111921Y-46905914D01*
X1051762Y-46894764D01*
X1009644Y-46850382D01*
X1000000Y-46807761D01*
X1000000Y-37454049D01*
X23245194Y-37454049D01*
X23257677Y-37713930D01*
X23308435Y-37969112D01*
X23396355Y-38213989D01*
X23519504Y-38443180D01*
X23675177Y-38651651D01*
X23859954Y-38834823D01*
X23862913Y-38836993D01*
X23862917Y-38836996D01*
X23973092Y-38917779D01*
X24069775Y-38988670D01*
X24300033Y-39109815D01*
X24303504Y-39111027D01*
X24303506Y-39111028D01*
X24388581Y-39140737D01*
X24545667Y-39195594D01*
X24549271Y-39196278D01*
X24549270Y-39196278D01*
X24797673Y-39243439D01*
X24797675Y-39243439D01*
X24801282Y-39244124D01*
X24942613Y-39249677D01*
X25057593Y-39254195D01*
X25057596Y-39254195D01*
X25061263Y-39254339D01*
X25194123Y-39239789D01*
X25316257Y-39226413D01*
X25316260Y-39226412D01*
X25319898Y-39226014D01*
X25571505Y-39159771D01*
X25810557Y-39057066D01*
X25924591Y-38986500D01*
X26028677Y-38922090D01*
X26028682Y-38922086D01*
X26031803Y-38920155D01*
X26230382Y-38752046D01*
X26401931Y-38556431D01*
X26542683Y-38337608D01*
X26649544Y-38100385D01*
X26720168Y-37849972D01*
X26753002Y-37591871D01*
X26755408Y-37500000D01*
X26755224Y-37497527D01*
X26755224Y-37497517D01*
X26736398Y-37244188D01*
X26736397Y-37244182D01*
X26736126Y-37240534D01*
X26678705Y-36986768D01*
X26663071Y-36946564D01*
X26585735Y-36747698D01*
X26584405Y-36744277D01*
X26455299Y-36518388D01*
X26294223Y-36314064D01*
X26291550Y-36311550D01*
X26291545Y-36311544D01*
X26107387Y-36138306D01*
X26107383Y-36138303D01*
X26104714Y-36135792D01*
X25890937Y-35987489D01*
X25657587Y-35872414D01*
X25409792Y-35793094D01*
X25406175Y-35792505D01*
X25406171Y-35792504D01*
X25156613Y-35751861D01*
X25156608Y-35751861D01*
X25152994Y-35751272D01*
X25149329Y-35751224D01*
X25056844Y-35750013D01*
X24892835Y-35747866D01*
X24889207Y-35748360D01*
X24889203Y-35748360D01*
X24763932Y-35765409D01*
X24635030Y-35782952D01*
X24385243Y-35855758D01*
X24381905Y-35857297D01*
X24152296Y-35963148D01*
X24152290Y-35963151D01*
X24148961Y-35964686D01*
X23931375Y-36107341D01*
X23928643Y-36109780D01*
X23928641Y-36109781D01*
X23740002Y-36278148D01*
X23737265Y-36280591D01*
X23570895Y-36480629D01*
X23435920Y-36703061D01*
X23335305Y-36943001D01*
X23271261Y-37195177D01*
X23245194Y-37454049D01*
X1000000Y-37454049D01*
X1000000Y-12554200D01*
X1894908Y-12554200D01*
X1895116Y-12556998D01*
X1920796Y-12902566D01*
X1920797Y-12902575D01*
X1921004Y-12905358D01*
X1986684Y-13251304D01*
X2091104Y-13587592D01*
X2232921Y-13909897D01*
X2410313Y-14214076D01*
X2620999Y-14496219D01*
X2862270Y-14752697D01*
X3131024Y-14980214D01*
X3423807Y-15175845D01*
X3426294Y-15177126D01*
X3426301Y-15177130D01*
X3645228Y-15289885D01*
X3736853Y-15337075D01*
X3739479Y-15338070D01*
X3739486Y-15338073D01*
X4063509Y-15460834D01*
X4063516Y-15460836D01*
X4066139Y-15461830D01*
X4407430Y-15548507D01*
X4756340Y-15595992D01*
X4758700Y-15596085D01*
X4758703Y-15596085D01*
X4870127Y-15600463D01*
X4870151Y-15600463D01*
X4871081Y-15600500D01*
X5089198Y-15600500D01*
X5284220Y-15589426D01*
X5348762Y-15585761D01*
X5348764Y-15585761D01*
X5351560Y-15585602D01*
X5354323Y-15585127D01*
X5354325Y-15585127D01*
X5695832Y-15526446D01*
X5695838Y-15526445D01*
X5698600Y-15525970D01*
X5701290Y-15525186D01*
X5701294Y-15525185D01*
X6033970Y-15428218D01*
X6033974Y-15428217D01*
X6036659Y-15427434D01*
X6361390Y-15291263D01*
X6668619Y-15119207D01*
X6954395Y-14913477D01*
X7215046Y-14676719D01*
X7447219Y-14411977D01*
X7647929Y-14122653D01*
X7814598Y-13812468D01*
X7904315Y-13587592D01*
X7944042Y-13488014D01*
X7945081Y-13485410D01*
X8008173Y-13253990D01*
X8036965Y-13148384D01*
X8036966Y-13148378D01*
X8037701Y-13145683D01*
X8091268Y-12797655D01*
X8100833Y-12554200D01*
X41894908Y-12554200D01*
X41895116Y-12556998D01*
X41920796Y-12902566D01*
X41920797Y-12902575D01*
X41921004Y-12905358D01*
X41986684Y-13251304D01*
X42091104Y-13587592D01*
X42232921Y-13909897D01*
X42410313Y-14214076D01*
X42620999Y-14496219D01*
X42862270Y-14752697D01*
X43131024Y-14980214D01*
X43423807Y-15175845D01*
X43426294Y-15177126D01*
X43426301Y-15177130D01*
X43645228Y-15289885D01*
X43736853Y-15337075D01*
X43739479Y-15338070D01*
X43739486Y-15338073D01*
X44063509Y-15460834D01*
X44063516Y-15460836D01*
X44066139Y-15461830D01*
X44407430Y-15548507D01*
X44756340Y-15595992D01*
X44758700Y-15596085D01*
X44758703Y-15596085D01*
X44870127Y-15600463D01*
X44870151Y-15600463D01*
X44871081Y-15600500D01*
X45089198Y-15600500D01*
X45284220Y-15589426D01*
X45348762Y-15585761D01*
X45348764Y-15585761D01*
X45351560Y-15585602D01*
X45354323Y-15585127D01*
X45354325Y-15585127D01*
X45695832Y-15526446D01*
X45695838Y-15526445D01*
X45698600Y-15525970D01*
X45701290Y-15525186D01*
X45701294Y-15525185D01*
X46033970Y-15428218D01*
X46033974Y-15428217D01*
X46036659Y-15427434D01*
X46361390Y-15291263D01*
X46668619Y-15119207D01*
X46954395Y-14913477D01*
X47215046Y-14676719D01*
X47447219Y-14411977D01*
X47647929Y-14122653D01*
X47814598Y-13812468D01*
X47904315Y-13587592D01*
X47944042Y-13488014D01*
X47945081Y-13485410D01*
X48008173Y-13253990D01*
X48036965Y-13148384D01*
X48036966Y-13148378D01*
X48037701Y-13145683D01*
X48091268Y-12797655D01*
X48105092Y-12445800D01*
X48086794Y-12199575D01*
X48079204Y-12097434D01*
X48079203Y-12097425D01*
X48078996Y-12094642D01*
X48013316Y-11748696D01*
X47908896Y-11412408D01*
X47767079Y-11090103D01*
X47589687Y-10785924D01*
X47379001Y-10503781D01*
X47137730Y-10247303D01*
X46868976Y-10019786D01*
X46576193Y-9824155D01*
X46573706Y-9822874D01*
X46573699Y-9822870D01*
X46265644Y-9664211D01*
X46265643Y-9664211D01*
X46263147Y-9662925D01*
X46260521Y-9661930D01*
X46260514Y-9661927D01*
X45936491Y-9539166D01*
X45936484Y-9539164D01*
X45933861Y-9538170D01*
X45592570Y-9451493D01*
X45243660Y-9404008D01*
X45241300Y-9403915D01*
X45241297Y-9403915D01*
X45129873Y-9399537D01*
X45129849Y-9399537D01*
X45128919Y-9399500D01*
X44910802Y-9399500D01*
X44715780Y-9410574D01*
X44651238Y-9414239D01*
X44651236Y-9414239D01*
X44648440Y-9414398D01*
X44645677Y-9414873D01*
X44645675Y-9414873D01*
X44304168Y-9473554D01*
X44304162Y-9473555D01*
X44301400Y-9474030D01*
X44298710Y-9474814D01*
X44298706Y-9474815D01*
X43966030Y-9571782D01*
X43966026Y-9571783D01*
X43963341Y-9572566D01*
X43638610Y-9708737D01*
X43331381Y-9880793D01*
X43045605Y-10086523D01*
X42784954Y-10323281D01*
X42552781Y-10588023D01*
X42352071Y-10877347D01*
X42185402Y-11187532D01*
X42184362Y-11190138D01*
X42184360Y-11190143D01*
X42094615Y-11415091D01*
X42054919Y-11514590D01*
X42054182Y-11517292D01*
X42054182Y-11517293D01*
X41991095Y-11748696D01*
X41962299Y-11854317D01*
X41908732Y-12202345D01*
X41894908Y-12554200D01*
X8100833Y-12554200D01*
X8105092Y-12445800D01*
X8086794Y-12199575D01*
X8079204Y-12097434D01*
X8079203Y-12097425D01*
X8078996Y-12094642D01*
X8013316Y-11748696D01*
X7908896Y-11412408D01*
X7767079Y-11090103D01*
X7589687Y-10785924D01*
X7379001Y-10503781D01*
X7137730Y-10247303D01*
X6868976Y-10019786D01*
X6576193Y-9824155D01*
X6573706Y-9822874D01*
X6573699Y-9822870D01*
X6265644Y-9664211D01*
X6265643Y-9664211D01*
X6263147Y-9662925D01*
X6260521Y-9661930D01*
X6260514Y-9661927D01*
X5936491Y-9539166D01*
X5936484Y-9539164D01*
X5933861Y-9538170D01*
X5592570Y-9451493D01*
X5243660Y-9404008D01*
X5241300Y-9403915D01*
X5241297Y-9403915D01*
X5129873Y-9399537D01*
X5129849Y-9399537D01*
X5128919Y-9399500D01*
X4910802Y-9399500D01*
X4715780Y-9410574D01*
X4651238Y-9414239D01*
X4651236Y-9414239D01*
X4648440Y-9414398D01*
X4645677Y-9414873D01*
X4645675Y-9414873D01*
X4304168Y-9473554D01*
X4304162Y-9473555D01*
X4301400Y-9474030D01*
X4298710Y-9474814D01*
X4298706Y-9474815D01*
X3966030Y-9571782D01*
X3966026Y-9571783D01*
X3963341Y-9572566D01*
X3638610Y-9708737D01*
X3331381Y-9880793D01*
X3045605Y-10086523D01*
X2784954Y-10323281D01*
X2552781Y-10588023D01*
X2352071Y-10877347D01*
X2185402Y-11187532D01*
X2184362Y-11190138D01*
X2184360Y-11190143D01*
X2094615Y-11415091D01*
X2054919Y-11514590D01*
X2054182Y-11517292D01*
X2054182Y-11517293D01*
X1991095Y-11748696D01*
X1962299Y-11854317D01*
X1908732Y-12202345D01*
X1894908Y-12554200D01*
X1000000Y-12554200D01*
X1000000Y-8504861D01*
X1000477Y-8495157D01*
X1018259Y-8314614D01*
X1022045Y-8295580D01*
X1073290Y-8126647D01*
X1080717Y-8108717D01*
X1163933Y-7953031D01*
X1174715Y-7936894D01*
X1219898Y-7881837D01*
X1286710Y-7800427D01*
X1300427Y-7786710D01*
X1436894Y-7674715D01*
X1453031Y-7663933D01*
X1608717Y-7580717D01*
X1626647Y-7573290D01*
X1711114Y-7547667D01*
X1795582Y-7522045D01*
X1814612Y-7518259D01*
X1995157Y-7500477D01*
X2004861Y-7500000D01*
X7500000Y-7500000D01*
X7500000Y-2004861D01*
X7500477Y-1995157D01*
X7518259Y-1814614D01*
X7522045Y-1795580D01*
X7573290Y-1626647D01*
X7580717Y-1608717D01*
X7663933Y-1453031D01*
X7674715Y-1436894D01*
X7719898Y-1381837D01*
X7786710Y-1300427D01*
X7800427Y-1286710D01*
X7936894Y-1174715D01*
X7953031Y-1163933D01*
X8108717Y-1080717D01*
X8126647Y-1073290D01*
X8211113Y-1047668D01*
X8295582Y-1022045D01*
X8314612Y-1018259D01*
X8495157Y-1000477D01*
X8504861Y-1000000D01*
X41495139Y-1000000D01*
X41504843Y-1000477D01*
G37*
%TD.AperFunction*%
M02*
