%TF.GenerationSoftware,KiCad,Pcbnew,5.0.2+dfsg1-1*%
%TF.CreationDate,2021-01-30T01:57:09+03:00*%
%TF.ProjectId,LocalTrack,4c6f6361-6c54-4726-9163-6b2e6b696361,1.3*%
%TF.SameCoordinates,PX7270e00PY47868c0*%
%TF.FileFunction,Profile,NP*%
%FSLAX46Y46*%
G04 Gerber Fmt 4.6, Leading zero omitted, Abs format (unit mm)*
G04 Created by KiCad (PCBNEW 5.0.2+dfsg1-1) date Sat 30 Jan 2021 01:57:09 AM MSK*
%MOMM*%
%LPD*%
G01*
G04 APERTURE LIST*
%ADD10C,0.100000*%
G04 APERTURE END LIST*
D10*
X10800000Y-66300000D02*
G75*
G02X9600000Y-67500000I-1200000J0D01*
G01*
X26500000Y-68700000D02*
X26500000Y-75000000D01*
X25300000Y-67500000D02*
G75*
G02X26500000Y-68700000I0J-1200000D01*
G01*
X18400000Y-67500000D02*
X25300000Y-67500000D01*
X18400000Y-67500000D02*
G75*
G02X17200000Y-66300000I0J1200000D01*
G01*
X17200000Y-63700000D02*
X17200000Y-66300000D01*
X10800000Y-66300000D02*
X10800000Y-63700000D01*
X5300000Y-67500000D02*
X9600000Y-67500000D01*
X16000000Y-62500000D02*
X12000000Y-62500000D01*
X16000000Y-62500000D02*
G75*
G02X17200000Y-63700000I0J-1200000D01*
G01*
X10800000Y-63700000D02*
G75*
G02X12000000Y-62500000I1200000J0D01*
G01*
X37200000Y-75000000D02*
X43500000Y-75000000D01*
X37200000Y-75000000D02*
X26500000Y-75000000D01*
X44700000Y-6500000D02*
G75*
G02X43500000Y-5300000I0J1200000D01*
G01*
X6500000Y-5300000D02*
G75*
G02X5300000Y-6500000I-1200000J0D01*
G01*
X43500000Y-69700000D02*
G75*
G02X44700000Y-68500000I1200000J0D01*
G01*
X44700000Y-68500000D02*
X50000000Y-68500000D01*
X43500000Y-75000000D02*
X43500000Y-69700000D01*
X0Y-67500000D02*
X5300000Y-67500000D01*
X5300000Y-6500000D02*
X0Y-6500000D01*
X6500000Y0D02*
X6500000Y-5300000D01*
X44700000Y-6500000D02*
X50000000Y-6500000D01*
X43500000Y0D02*
X43500000Y-5300000D01*
X6500000Y0D02*
X43500000Y0D01*
X50000000Y-6500000D02*
X50000000Y-68500000D01*
X0Y-6500000D02*
X0Y-67500000D01*
M02*
