%TF.GenerationSoftware,KiCad,Pcbnew,5.0.2+dfsg1-1*%
%TF.CreationDate,2020-10-17T15:43:31+03:00*%
%TF.ProjectId,LocalTrack,4c6f6361-6c54-4726-9163-6b2e6b696361,1.3*%
%TF.SameCoordinates,PX7270e00PY47868c0*%
%TF.FileFunction,Legend,Top*%
%TF.FilePolarity,Positive*%
%FSLAX46Y46*%
G04 Gerber Fmt 4.6, Leading zero omitted, Abs format (unit mm)*
G04 Created by KiCad (PCBNEW 5.0.2+dfsg1-1) date Sat 17 Oct 2020 03:43:31 PM MSK*
%MOMM*%
%LPD*%
G01*
G04 APERTURE LIST*
%ADD10C,0.150000*%
%ADD11C,0.120000*%
%ADD12R,0.900000X1.000000*%
%ADD13C,0.100000*%
%ADD14C,0.975000*%
%ADD15R,1.000000X0.900000*%
%ADD16C,1.075000*%
%ADD17C,1.600000*%
%ADD18O,1.800000X1.800000*%
%ADD19R,1.800000X1.800000*%
%ADD20R,1.400000X2.700000*%
%ADD21R,0.750000X1.160000*%
%ADD22C,3.300000*%
%ADD23R,1.200000X1.100000*%
%ADD24C,0.700000*%
%ADD25O,1.200000X1.900000*%
%ADD26R,0.500000X2.000000*%
%ADD27R,0.700000X1.050000*%
%ADD28R,1.050000X0.700000*%
%ADD29R,0.800000X0.610000*%
%ADD30R,1.400000X0.350000*%
%ADD31R,0.350000X1.400000*%
%ADD32R,4.100000X3.300000*%
%ADD33R,0.700000X1.100000*%
%ADD34R,0.800000X1.700000*%
%ADD35R,2.500000X2.100000*%
%ADD36C,1.300000*%
%ADD37O,1.850000X1.300000*%
G04 APERTURE END LIST*
D10*
X2761904Y-32466666D02*
X2761904Y-32847619D01*
X1961904Y-32847619D01*
X2761904Y-32085714D02*
X2723809Y-32161904D01*
X2685714Y-32200000D01*
X2609523Y-32238095D01*
X2380952Y-32238095D01*
X2304761Y-32200000D01*
X2266666Y-32161904D01*
X2228571Y-32085714D01*
X2228571Y-31971428D01*
X2266666Y-31895238D01*
X2304761Y-31857142D01*
X2380952Y-31819047D01*
X2609523Y-31819047D01*
X2685714Y-31857142D01*
X2723809Y-31895238D01*
X2761904Y-31971428D01*
X2761904Y-32085714D01*
X2723809Y-31133333D02*
X2761904Y-31209523D01*
X2761904Y-31361904D01*
X2723809Y-31438095D01*
X2685714Y-31476190D01*
X2609523Y-31514285D01*
X2380952Y-31514285D01*
X2304761Y-31476190D01*
X2266666Y-31438095D01*
X2228571Y-31361904D01*
X2228571Y-31209523D01*
X2266666Y-31133333D01*
X2761904Y-30447619D02*
X2342857Y-30447619D01*
X2266666Y-30485714D01*
X2228571Y-30561904D01*
X2228571Y-30714285D01*
X2266666Y-30790476D01*
X2723809Y-30447619D02*
X2761904Y-30523809D01*
X2761904Y-30714285D01*
X2723809Y-30790476D01*
X2647619Y-30828571D01*
X2571428Y-30828571D01*
X2495238Y-30790476D01*
X2457142Y-30714285D01*
X2457142Y-30523809D01*
X2419047Y-30447619D01*
X2761904Y-29952380D02*
X2723809Y-30028571D01*
X2647619Y-30066666D01*
X1961904Y-30066666D01*
X1961904Y-29761904D02*
X1961904Y-29304761D01*
X2761904Y-29533333D02*
X1961904Y-29533333D01*
X2761904Y-29038095D02*
X2228571Y-29038095D01*
X2380952Y-29038095D02*
X2304761Y-29000000D01*
X2266666Y-28961904D01*
X2228571Y-28885714D01*
X2228571Y-28809523D01*
X2761904Y-28200000D02*
X2342857Y-28200000D01*
X2266666Y-28238095D01*
X2228571Y-28314285D01*
X2228571Y-28466666D01*
X2266666Y-28542857D01*
X2723809Y-28200000D02*
X2761904Y-28276190D01*
X2761904Y-28466666D01*
X2723809Y-28542857D01*
X2647619Y-28580952D01*
X2571428Y-28580952D01*
X2495238Y-28542857D01*
X2457142Y-28466666D01*
X2457142Y-28276190D01*
X2419047Y-28200000D01*
X2723809Y-27476190D02*
X2761904Y-27552380D01*
X2761904Y-27704761D01*
X2723809Y-27780952D01*
X2685714Y-27819047D01*
X2609523Y-27857142D01*
X2380952Y-27857142D01*
X2304761Y-27819047D01*
X2266666Y-27780952D01*
X2228571Y-27704761D01*
X2228571Y-27552380D01*
X2266666Y-27476190D01*
X2761904Y-27133333D02*
X1961904Y-27133333D01*
X2457142Y-27057142D02*
X2761904Y-26828571D01*
X2228571Y-26828571D02*
X2533333Y-27133333D01*
X2838095Y-26676190D02*
X2838095Y-26066666D01*
X2761904Y-25876190D02*
X2228571Y-25876190D01*
X2380952Y-25876190D02*
X2304761Y-25838095D01*
X2266666Y-25800000D01*
X2228571Y-25723809D01*
X2228571Y-25647619D01*
X2723809Y-25076190D02*
X2761904Y-25152380D01*
X2761904Y-25304761D01*
X2723809Y-25380952D01*
X2647619Y-25419047D01*
X2342857Y-25419047D01*
X2266666Y-25380952D01*
X2228571Y-25304761D01*
X2228571Y-25152380D01*
X2266666Y-25076190D01*
X2342857Y-25038095D01*
X2419047Y-25038095D01*
X2495238Y-25419047D01*
X2228571Y-24771428D02*
X2761904Y-24580952D01*
X2228571Y-24390476D01*
X2838095Y-24276190D02*
X2838095Y-23666666D01*
X2761904Y-23057142D02*
X2761904Y-23514285D01*
X2761904Y-23285714D02*
X1961904Y-23285714D01*
X2076190Y-23361904D01*
X2152380Y-23438095D01*
X2190476Y-23514285D01*
X2685714Y-22714285D02*
X2723809Y-22676190D01*
X2761904Y-22714285D01*
X2723809Y-22752380D01*
X2685714Y-22714285D01*
X2761904Y-22714285D01*
X1961904Y-22409523D02*
X1961904Y-21914285D01*
X2266666Y-22180952D01*
X2266666Y-22066666D01*
X2304761Y-21990476D01*
X2342857Y-21952380D01*
X2419047Y-21914285D01*
X2609523Y-21914285D01*
X2685714Y-21952380D01*
X2723809Y-21990476D01*
X2761904Y-22066666D01*
X2761904Y-22295238D01*
X2723809Y-22371428D01*
X2685714Y-22409523D01*
D11*
X14370000Y-53060000D02*
X15300000Y-53060000D01*
X17530000Y-53060000D02*
X16600000Y-53060000D01*
X17530000Y-53060000D02*
X17530000Y-50900000D01*
X14370000Y-53060000D02*
X14370000Y-51600000D01*
X12637221Y-55110000D02*
X12962779Y-55110000D01*
X12637221Y-54090000D02*
X12962779Y-54090000D01*
X20490000Y-52262779D02*
X20490000Y-51937221D01*
X21510000Y-52262779D02*
X21510000Y-51937221D01*
X8840000Y-50720000D02*
X8840000Y-51650000D01*
X8840000Y-53880000D02*
X8840000Y-52950000D01*
X8840000Y-53880000D02*
X11000000Y-53880000D01*
X8840000Y-50720000D02*
X10300000Y-50720000D01*
X18562779Y-60360000D02*
X18237221Y-60360000D01*
X18562779Y-59340000D02*
X18237221Y-59340000D01*
X19660000Y-51937221D02*
X19660000Y-52262779D01*
X18640000Y-51937221D02*
X18640000Y-52262779D01*
X40125279Y-54390000D02*
X39799721Y-54390000D01*
X40125279Y-55410000D02*
X39799721Y-55410000D01*
X40875279Y-51840000D02*
X40549721Y-51840000D01*
X40875279Y-52860000D02*
X40549721Y-52860000D01*
X22510000Y-41158578D02*
X22510000Y-40641422D01*
X21090000Y-41158578D02*
X21090000Y-40641422D01*
X47210000Y-40162779D02*
X47210000Y-39837221D01*
X46190000Y-40162779D02*
X46190000Y-39837221D01*
X45210000Y-40162779D02*
X45210000Y-39837221D01*
X44190000Y-40162779D02*
X44190000Y-39837221D01*
X47030000Y-56230000D02*
X45700000Y-56230000D01*
X47030000Y-54900000D02*
X47030000Y-56230000D01*
X47030000Y-53630000D02*
X44370000Y-53630000D01*
X44370000Y-53630000D02*
X44370000Y-43410000D01*
X47030000Y-53630000D02*
X47030000Y-43410000D01*
X47030000Y-43410000D02*
X44370000Y-43410000D01*
X24110000Y-57750000D02*
X24110000Y-55300000D01*
X20890000Y-55950000D02*
X20890000Y-57750000D01*
X46524721Y-21110000D02*
X46850279Y-21110000D01*
X46524721Y-20090000D02*
X46850279Y-20090000D01*
X31790000Y-37324721D02*
X31790000Y-37650279D01*
X32810000Y-37324721D02*
X32810000Y-37650279D01*
X32810000Y-34075279D02*
X32810000Y-33749721D01*
X31790000Y-34075279D02*
X31790000Y-33749721D01*
X24187221Y-51710000D02*
X24512779Y-51710000D01*
X24187221Y-50690000D02*
X24512779Y-50690000D01*
X35462779Y-50090000D02*
X35137221Y-50090000D01*
X35462779Y-51110000D02*
X35137221Y-51110000D01*
X30090000Y-66041422D02*
X30090000Y-66558578D01*
X31510000Y-66041422D02*
X31510000Y-66558578D01*
X34850279Y-41190000D02*
X34524721Y-41190000D01*
X34850279Y-42210000D02*
X34524721Y-42210000D01*
X9210000Y-19858578D02*
X9210000Y-19341422D01*
X7790000Y-19858578D02*
X7790000Y-19341422D01*
X9291422Y-56910000D02*
X9808578Y-56910000D01*
X9291422Y-55490000D02*
X9808578Y-55490000D01*
X11462779Y-45790000D02*
X11137221Y-45790000D01*
X11462779Y-46810000D02*
X11137221Y-46810000D01*
X29760000Y-34112779D02*
X29760000Y-33787221D01*
X28740000Y-34112779D02*
X28740000Y-33787221D01*
X12237221Y-18290000D02*
X12562779Y-18290000D01*
X12237221Y-19310000D02*
X12562779Y-19310000D01*
X9235000Y-28885000D02*
X9235000Y-26600000D01*
X7765000Y-28885000D02*
X9235000Y-28885000D01*
X7765000Y-26600000D02*
X7765000Y-28885000D01*
D10*
X32900000Y-69280000D02*
X40100000Y-69280000D01*
X32900000Y-75000000D02*
X40100000Y-75000000D01*
X32900000Y-69280000D02*
X32900000Y-75000000D01*
X40100000Y-69280000D02*
X40100000Y-75000000D01*
D11*
X7740000Y-29920000D02*
X9200000Y-29920000D01*
X7740000Y-33080000D02*
X9900000Y-33080000D01*
X7740000Y-33080000D02*
X7740000Y-32150000D01*
X7740000Y-29920000D02*
X7740000Y-30850000D01*
X47862779Y-27590000D02*
X47537221Y-27590000D01*
X47862779Y-28610000D02*
X47537221Y-28610000D01*
X46862779Y-29490000D02*
X46537221Y-29490000D01*
X46862779Y-30510000D02*
X46537221Y-30510000D01*
X32060000Y-62662779D02*
X32060000Y-62337221D01*
X31040000Y-62662779D02*
X31040000Y-62337221D01*
X29260000Y-58812779D02*
X29260000Y-58487221D01*
X28240000Y-58812779D02*
X28240000Y-58487221D01*
X11137221Y-44960000D02*
X11462779Y-44960000D01*
X11137221Y-43940000D02*
X11462779Y-43940000D01*
X28240000Y-62324721D02*
X28240000Y-62650279D01*
X29260000Y-62324721D02*
X29260000Y-62650279D01*
X26440000Y-58537221D02*
X26440000Y-58862779D01*
X27460000Y-58537221D02*
X27460000Y-58862779D01*
X7990000Y-23424721D02*
X7990000Y-23750279D01*
X9010000Y-23424721D02*
X9010000Y-23750279D01*
X27560000Y-62662779D02*
X27560000Y-62337221D01*
X26540000Y-62662779D02*
X26540000Y-62337221D01*
X48310000Y-21690000D02*
X48310000Y-21740000D01*
X47260000Y-21690000D02*
X48310000Y-21690000D01*
X45090000Y-21690000D02*
X45090000Y-21740000D01*
X46140000Y-21690000D02*
X45090000Y-21690000D01*
X45090000Y-26910000D02*
X45090000Y-26860000D01*
X46140000Y-26910000D02*
X45090000Y-26910000D01*
X35400000Y-66800000D02*
X37700000Y-66800000D01*
X37000000Y-63600000D02*
X35400000Y-63600000D01*
X25940000Y-42640000D02*
X25940000Y-43060000D01*
X33060000Y-42640000D02*
X32640000Y-42640000D01*
X32640000Y-42640000D02*
X32640000Y-41260000D01*
X33060000Y-49760000D02*
X33060000Y-49340000D01*
X25940000Y-49760000D02*
X25940000Y-49340000D01*
X33060000Y-42640000D02*
X33060000Y-43060000D01*
X25940000Y-42640000D02*
X26360000Y-42640000D01*
X25940000Y-49760000D02*
X26360000Y-49760000D01*
X33060000Y-49760000D02*
X32640000Y-49760000D01*
X24110000Y-63200000D02*
X24110000Y-60750000D01*
X20890000Y-61400000D02*
X20890000Y-63200000D01*
X8905000Y-46500000D02*
X8905000Y-38500000D01*
X2905000Y-46500000D02*
X8905000Y-46500000D01*
X2905000Y-38500000D02*
X2905000Y-46500000D01*
X8905000Y-38500000D02*
X2905000Y-38500000D01*
D10*
X11100000Y-34500000D02*
X11100000Y-22300000D01*
X27100000Y-34500000D02*
X27100000Y-22300000D01*
X11100000Y-22300000D02*
X27100000Y-22300000D01*
X11100000Y-34500000D02*
X27100000Y-34500000D01*
D11*
X37500000Y-38750000D02*
X37500000Y-33000000D01*
X33900000Y-38750000D02*
X37500000Y-38750000D01*
X33900000Y-33000000D02*
X33900000Y-38750000D01*
X11220000Y-59860000D02*
X12150000Y-59860000D01*
X14380000Y-59860000D02*
X13450000Y-59860000D01*
X14380000Y-59860000D02*
X14380000Y-57700000D01*
X11220000Y-59860000D02*
X11220000Y-58400000D01*
X15410000Y-47662779D02*
X15410000Y-47337221D01*
X14390000Y-47662779D02*
X14390000Y-47337221D01*
X19010000Y-47337221D02*
X19010000Y-47662779D01*
X17990000Y-47337221D02*
X17990000Y-47662779D01*
X41100000Y-51400000D02*
X42700000Y-51400000D01*
X42700000Y-48200000D02*
X40400000Y-48200000D01*
X25497500Y-40887221D02*
X25497500Y-41212779D01*
X24477500Y-40887221D02*
X24477500Y-41212779D01*
X20640000Y-46120000D02*
X20640000Y-47050000D01*
X20640000Y-49280000D02*
X20640000Y-48350000D01*
X20640000Y-49280000D02*
X22800000Y-49280000D01*
X20640000Y-46120000D02*
X22100000Y-46120000D01*
X17210000Y-47337221D02*
X17210000Y-47662779D01*
X16190000Y-47337221D02*
X16190000Y-47662779D01*
X7110000Y-50240000D02*
X2390000Y-50240000D01*
X2390000Y-50240000D02*
X2390000Y-56360000D01*
X2390000Y-56360000D02*
X7110000Y-56360000D01*
X7110000Y-56360000D02*
X7110000Y-50240000D01*
X7110000Y-52000000D02*
X7310000Y-52000000D01*
X7310000Y-52000000D02*
X7310000Y-51700000D01*
X7310000Y-51700000D02*
X7110000Y-51700000D01*
X7210000Y-52000000D02*
X7210000Y-51700000D01*
X7110000Y-52800000D02*
X6500000Y-52800000D01*
X6500000Y-52800000D02*
X6500000Y-50850000D01*
X6500000Y-50850000D02*
X3000000Y-50850000D01*
X3000000Y-50850000D02*
X3000000Y-55750000D01*
X3000000Y-55750000D02*
X6500000Y-55750000D01*
X6500000Y-55750000D02*
X6500000Y-53800000D01*
X6500000Y-53800000D02*
X7110000Y-53800000D01*
X5800000Y-50240000D02*
X5800000Y-50850000D01*
X4500000Y-50240000D02*
X4500000Y-50850000D01*
X5800000Y-56360000D02*
X5800000Y-55750000D01*
X4500000Y-56360000D02*
X4500000Y-55750000D01*
X3000000Y-53200000D02*
X3500000Y-53200000D01*
X3500000Y-53200000D02*
X3500000Y-53400000D01*
X3500000Y-53400000D02*
X3000000Y-53400000D01*
X3000000Y-53300000D02*
X3500000Y-53300000D01*
X7410000Y-51190000D02*
X7410000Y-49940000D01*
X7410000Y-49940000D02*
X6160000Y-49940000D01*
X20130000Y-56190000D02*
X19200000Y-56190000D01*
X16970000Y-56190000D02*
X17900000Y-56190000D01*
X16970000Y-56190000D02*
X16970000Y-58350000D01*
X20130000Y-56190000D02*
X20130000Y-57650000D01*
D10*
X15854761Y-50447619D02*
X15759523Y-50400000D01*
X15664285Y-50304761D01*
X15521428Y-50161904D01*
X15426190Y-50114285D01*
X15330952Y-50114285D01*
X15378571Y-50352380D02*
X15283333Y-50304761D01*
X15188095Y-50209523D01*
X15140476Y-50019047D01*
X15140476Y-49685714D01*
X15188095Y-49495238D01*
X15283333Y-49400000D01*
X15378571Y-49352380D01*
X15569047Y-49352380D01*
X15664285Y-49400000D01*
X15759523Y-49495238D01*
X15807142Y-49685714D01*
X15807142Y-50019047D01*
X15759523Y-50209523D01*
X15664285Y-50304761D01*
X15569047Y-50352380D01*
X15378571Y-50352380D01*
X16188095Y-49447619D02*
X16235714Y-49400000D01*
X16330952Y-49352380D01*
X16569047Y-49352380D01*
X16664285Y-49400000D01*
X16711904Y-49447619D01*
X16759523Y-49542857D01*
X16759523Y-49638095D01*
X16711904Y-49780952D01*
X16140476Y-50352380D01*
X16759523Y-50352380D01*
X12157142Y-53622380D02*
X11823809Y-53146190D01*
X11585714Y-53622380D02*
X11585714Y-52622380D01*
X11966666Y-52622380D01*
X12061904Y-52670000D01*
X12109523Y-52717619D01*
X12157142Y-52812857D01*
X12157142Y-52955714D01*
X12109523Y-53050952D01*
X12061904Y-53098571D01*
X11966666Y-53146190D01*
X11585714Y-53146190D01*
X13109523Y-53622380D02*
X12538095Y-53622380D01*
X12823809Y-53622380D02*
X12823809Y-52622380D01*
X12728571Y-52765238D01*
X12633333Y-52860476D01*
X12538095Y-52908095D01*
X13966666Y-52622380D02*
X13776190Y-52622380D01*
X13680952Y-52670000D01*
X13633333Y-52717619D01*
X13538095Y-52860476D01*
X13490476Y-53050952D01*
X13490476Y-53431904D01*
X13538095Y-53527142D01*
X13585714Y-53574761D01*
X13680952Y-53622380D01*
X13871428Y-53622380D01*
X13966666Y-53574761D01*
X14014285Y-53527142D01*
X14061904Y-53431904D01*
X14061904Y-53193809D01*
X14014285Y-53098571D01*
X13966666Y-53050952D01*
X13871428Y-53003333D01*
X13680952Y-53003333D01*
X13585714Y-53050952D01*
X13538095Y-53098571D01*
X13490476Y-53193809D01*
X21057142Y-54852380D02*
X20723809Y-54376190D01*
X20485714Y-54852380D02*
X20485714Y-53852380D01*
X20866666Y-53852380D01*
X20961904Y-53900000D01*
X21009523Y-53947619D01*
X21057142Y-54042857D01*
X21057142Y-54185714D01*
X21009523Y-54280952D01*
X20961904Y-54328571D01*
X20866666Y-54376190D01*
X20485714Y-54376190D01*
X21438095Y-53947619D02*
X21485714Y-53900000D01*
X21580952Y-53852380D01*
X21819047Y-53852380D01*
X21914285Y-53900000D01*
X21961904Y-53947619D01*
X22009523Y-54042857D01*
X22009523Y-54138095D01*
X21961904Y-54280952D01*
X21390476Y-54852380D01*
X22009523Y-54852380D01*
X22628571Y-53852380D02*
X22723809Y-53852380D01*
X22819047Y-53900000D01*
X22866666Y-53947619D01*
X22914285Y-54042857D01*
X22961904Y-54233333D01*
X22961904Y-54471428D01*
X22914285Y-54661904D01*
X22866666Y-54757142D01*
X22819047Y-54804761D01*
X22723809Y-54852380D01*
X22628571Y-54852380D01*
X22533333Y-54804761D01*
X22485714Y-54757142D01*
X22438095Y-54661904D01*
X22390476Y-54471428D01*
X22390476Y-54233333D01*
X22438095Y-54042857D01*
X22485714Y-53947619D01*
X22533333Y-53900000D01*
X22628571Y-53852380D01*
X8838095Y-49352380D02*
X8838095Y-50161904D01*
X8885714Y-50257142D01*
X8933333Y-50304761D01*
X9028571Y-50352380D01*
X9219047Y-50352380D01*
X9314285Y-50304761D01*
X9361904Y-50257142D01*
X9409523Y-50161904D01*
X9409523Y-49352380D01*
X9790476Y-49352380D02*
X10457142Y-49352380D01*
X10028571Y-50352380D01*
X17532142Y-61902380D02*
X17198809Y-61426190D01*
X16960714Y-61902380D02*
X16960714Y-60902380D01*
X17341666Y-60902380D01*
X17436904Y-60950000D01*
X17484523Y-60997619D01*
X17532142Y-61092857D01*
X17532142Y-61235714D01*
X17484523Y-61330952D01*
X17436904Y-61378571D01*
X17341666Y-61426190D01*
X16960714Y-61426190D01*
X18484523Y-61902380D02*
X17913095Y-61902380D01*
X18198809Y-61902380D02*
X18198809Y-60902380D01*
X18103571Y-61045238D01*
X18008333Y-61140476D01*
X17913095Y-61188095D01*
X19341666Y-61235714D02*
X19341666Y-61902380D01*
X19103571Y-60854761D02*
X18865476Y-61569047D01*
X19484523Y-61569047D01*
X17857142Y-54852380D02*
X17523809Y-54376190D01*
X17285714Y-54852380D02*
X17285714Y-53852380D01*
X17666666Y-53852380D01*
X17761904Y-53900000D01*
X17809523Y-53947619D01*
X17857142Y-54042857D01*
X17857142Y-54185714D01*
X17809523Y-54280952D01*
X17761904Y-54328571D01*
X17666666Y-54376190D01*
X17285714Y-54376190D01*
X18809523Y-54852380D02*
X18238095Y-54852380D01*
X18523809Y-54852380D02*
X18523809Y-53852380D01*
X18428571Y-53995238D01*
X18333333Y-54090476D01*
X18238095Y-54138095D01*
X19714285Y-53852380D02*
X19238095Y-53852380D01*
X19190476Y-54328571D01*
X19238095Y-54280952D01*
X19333333Y-54233333D01*
X19571428Y-54233333D01*
X19666666Y-54280952D01*
X19714285Y-54328571D01*
X19761904Y-54423809D01*
X19761904Y-54661904D01*
X19714285Y-54757142D01*
X19666666Y-54804761D01*
X19571428Y-54852380D01*
X19333333Y-54852380D01*
X19238095Y-54804761D01*
X19190476Y-54757142D01*
X42233333Y-55352380D02*
X41900000Y-54876190D01*
X41661904Y-55352380D02*
X41661904Y-54352380D01*
X42042857Y-54352380D01*
X42138095Y-54400000D01*
X42185714Y-54447619D01*
X42233333Y-54542857D01*
X42233333Y-54685714D01*
X42185714Y-54780952D01*
X42138095Y-54828571D01*
X42042857Y-54876190D01*
X41661904Y-54876190D01*
X42709523Y-55352380D02*
X42900000Y-55352380D01*
X42995238Y-55304761D01*
X43042857Y-55257142D01*
X43138095Y-55114285D01*
X43185714Y-54923809D01*
X43185714Y-54542857D01*
X43138095Y-54447619D01*
X43090476Y-54400000D01*
X42995238Y-54352380D01*
X42804761Y-54352380D01*
X42709523Y-54400000D01*
X42661904Y-54447619D01*
X42614285Y-54542857D01*
X42614285Y-54780952D01*
X42661904Y-54876190D01*
X42709523Y-54923809D01*
X42804761Y-54971428D01*
X42995238Y-54971428D01*
X43090476Y-54923809D01*
X43138095Y-54876190D01*
X43185714Y-54780952D01*
X43033333Y-52852380D02*
X42700000Y-52376190D01*
X42461904Y-52852380D02*
X42461904Y-51852380D01*
X42842857Y-51852380D01*
X42938095Y-51900000D01*
X42985714Y-51947619D01*
X43033333Y-52042857D01*
X43033333Y-52185714D01*
X42985714Y-52280952D01*
X42938095Y-52328571D01*
X42842857Y-52376190D01*
X42461904Y-52376190D01*
X43366666Y-51852380D02*
X44033333Y-51852380D01*
X43604761Y-52852380D01*
X20557142Y-40766666D02*
X20604761Y-40814285D01*
X20652380Y-40957142D01*
X20652380Y-41052380D01*
X20604761Y-41195238D01*
X20509523Y-41290476D01*
X20414285Y-41338095D01*
X20223809Y-41385714D01*
X20080952Y-41385714D01*
X19890476Y-41338095D01*
X19795238Y-41290476D01*
X19700000Y-41195238D01*
X19652380Y-41052380D01*
X19652380Y-40957142D01*
X19700000Y-40814285D01*
X19747619Y-40766666D01*
X20652380Y-39814285D02*
X20652380Y-40385714D01*
X20652380Y-40100000D02*
X19652380Y-40100000D01*
X19795238Y-40195238D01*
X19890476Y-40290476D01*
X19938095Y-40385714D01*
X48557142Y-40166666D02*
X48604761Y-40214285D01*
X48652380Y-40357142D01*
X48652380Y-40452380D01*
X48604761Y-40595238D01*
X48509523Y-40690476D01*
X48414285Y-40738095D01*
X48223809Y-40785714D01*
X48080952Y-40785714D01*
X47890476Y-40738095D01*
X47795238Y-40690476D01*
X47700000Y-40595238D01*
X47652380Y-40452380D01*
X47652380Y-40357142D01*
X47700000Y-40214285D01*
X47747619Y-40166666D01*
X48652380Y-39690476D02*
X48652380Y-39500000D01*
X48604761Y-39404761D01*
X48557142Y-39357142D01*
X48414285Y-39261904D01*
X48223809Y-39214285D01*
X47842857Y-39214285D01*
X47747619Y-39261904D01*
X47700000Y-39309523D01*
X47652380Y-39404761D01*
X47652380Y-39595238D01*
X47700000Y-39690476D01*
X47747619Y-39738095D01*
X47842857Y-39785714D01*
X48080952Y-39785714D01*
X48176190Y-39738095D01*
X48223809Y-39690476D01*
X48271428Y-39595238D01*
X48271428Y-39404761D01*
X48223809Y-39309523D01*
X48176190Y-39261904D01*
X48080952Y-39214285D01*
X43552380Y-40166666D02*
X43076190Y-40500000D01*
X43552380Y-40738095D02*
X42552380Y-40738095D01*
X42552380Y-40357142D01*
X42600000Y-40261904D01*
X42647619Y-40214285D01*
X42742857Y-40166666D01*
X42885714Y-40166666D01*
X42980952Y-40214285D01*
X43028571Y-40261904D01*
X43076190Y-40357142D01*
X43076190Y-40738095D01*
X42885714Y-39309523D02*
X43552380Y-39309523D01*
X42504761Y-39547619D02*
X43219047Y-39785714D01*
X43219047Y-39166666D01*
X48457142Y-51014285D02*
X48504761Y-51061904D01*
X48552380Y-51204761D01*
X48552380Y-51300000D01*
X48504761Y-51442857D01*
X48409523Y-51538095D01*
X48314285Y-51585714D01*
X48123809Y-51633333D01*
X47980952Y-51633333D01*
X47790476Y-51585714D01*
X47695238Y-51538095D01*
X47600000Y-51442857D01*
X47552380Y-51300000D01*
X47552380Y-51204761D01*
X47600000Y-51061904D01*
X47647619Y-51014285D01*
X47552380Y-50395238D02*
X47552380Y-50204761D01*
X47600000Y-50109523D01*
X47695238Y-50014285D01*
X47885714Y-49966666D01*
X48219047Y-49966666D01*
X48409523Y-50014285D01*
X48504761Y-50109523D01*
X48552380Y-50204761D01*
X48552380Y-50395238D01*
X48504761Y-50490476D01*
X48409523Y-50585714D01*
X48219047Y-50633333D01*
X47885714Y-50633333D01*
X47695238Y-50585714D01*
X47600000Y-50490476D01*
X47552380Y-50395238D01*
X48552380Y-49538095D02*
X47552380Y-49538095D01*
X48552380Y-48966666D01*
X47552380Y-48966666D01*
X48552380Y-47966666D02*
X48552380Y-48538095D01*
X48552380Y-48252380D02*
X47552380Y-48252380D01*
X47695238Y-48347619D01*
X47790476Y-48442857D01*
X47838095Y-48538095D01*
X9004761Y-64233333D02*
X9052380Y-64090476D01*
X9052380Y-63852380D01*
X9004761Y-63757142D01*
X8957142Y-63709523D01*
X8861904Y-63661904D01*
X8766666Y-63661904D01*
X8671428Y-63709523D01*
X8623809Y-63757142D01*
X8576190Y-63852380D01*
X8528571Y-64042857D01*
X8480952Y-64138095D01*
X8433333Y-64185714D01*
X8338095Y-64233333D01*
X8242857Y-64233333D01*
X8147619Y-64185714D01*
X8100000Y-64138095D01*
X8052380Y-64042857D01*
X8052380Y-63804761D01*
X8100000Y-63661904D01*
X8052380Y-63328571D02*
X9052380Y-63090476D01*
X8338095Y-62900000D01*
X9052380Y-62709523D01*
X8052380Y-62471428D01*
X9052380Y-61566666D02*
X9052380Y-62138095D01*
X9052380Y-61852380D02*
X8052380Y-61852380D01*
X8195238Y-61947619D01*
X8290476Y-62042857D01*
X8338095Y-62138095D01*
X24452380Y-57561904D02*
X25261904Y-57561904D01*
X25357142Y-57514285D01*
X25404761Y-57466666D01*
X25452380Y-57371428D01*
X25452380Y-57180952D01*
X25404761Y-57085714D01*
X25357142Y-57038095D01*
X25261904Y-56990476D01*
X24452380Y-56990476D01*
X24785714Y-56085714D02*
X25452380Y-56085714D01*
X24404761Y-56323809D02*
X25119047Y-56561904D01*
X25119047Y-55942857D01*
X46520833Y-19527142D02*
X46473214Y-19574761D01*
X46330357Y-19622380D01*
X46235119Y-19622380D01*
X46092261Y-19574761D01*
X45997023Y-19479523D01*
X45949404Y-19384285D01*
X45901785Y-19193809D01*
X45901785Y-19050952D01*
X45949404Y-18860476D01*
X45997023Y-18765238D01*
X46092261Y-18670000D01*
X46235119Y-18622380D01*
X46330357Y-18622380D01*
X46473214Y-18670000D01*
X46520833Y-18717619D01*
X46901785Y-18717619D02*
X46949404Y-18670000D01*
X47044642Y-18622380D01*
X47282738Y-18622380D01*
X47377976Y-18670000D01*
X47425595Y-18717619D01*
X47473214Y-18812857D01*
X47473214Y-18908095D01*
X47425595Y-19050952D01*
X46854166Y-19622380D01*
X47473214Y-19622380D01*
X31157142Y-37654166D02*
X31204761Y-37701785D01*
X31252380Y-37844642D01*
X31252380Y-37939880D01*
X31204761Y-38082738D01*
X31109523Y-38177976D01*
X31014285Y-38225595D01*
X30823809Y-38273214D01*
X30680952Y-38273214D01*
X30490476Y-38225595D01*
X30395238Y-38177976D01*
X30300000Y-38082738D01*
X30252380Y-37939880D01*
X30252380Y-37844642D01*
X30300000Y-37701785D01*
X30347619Y-37654166D01*
X30252380Y-37320833D02*
X30252380Y-36701785D01*
X30633333Y-37035119D01*
X30633333Y-36892261D01*
X30680952Y-36797023D01*
X30728571Y-36749404D01*
X30823809Y-36701785D01*
X31061904Y-36701785D01*
X31157142Y-36749404D01*
X31204761Y-36797023D01*
X31252380Y-36892261D01*
X31252380Y-37177976D01*
X31204761Y-37273214D01*
X31157142Y-37320833D01*
X31227142Y-34079166D02*
X31274761Y-34126785D01*
X31322380Y-34269642D01*
X31322380Y-34364880D01*
X31274761Y-34507738D01*
X31179523Y-34602976D01*
X31084285Y-34650595D01*
X30893809Y-34698214D01*
X30750952Y-34698214D01*
X30560476Y-34650595D01*
X30465238Y-34602976D01*
X30370000Y-34507738D01*
X30322380Y-34364880D01*
X30322380Y-34269642D01*
X30370000Y-34126785D01*
X30417619Y-34079166D01*
X30655714Y-33222023D02*
X31322380Y-33222023D01*
X30274761Y-33460119D02*
X30989047Y-33698214D01*
X30989047Y-33079166D01*
X24183333Y-53007142D02*
X24135714Y-53054761D01*
X23992857Y-53102380D01*
X23897619Y-53102380D01*
X23754761Y-53054761D01*
X23659523Y-52959523D01*
X23611904Y-52864285D01*
X23564285Y-52673809D01*
X23564285Y-52530952D01*
X23611904Y-52340476D01*
X23659523Y-52245238D01*
X23754761Y-52150000D01*
X23897619Y-52102380D01*
X23992857Y-52102380D01*
X24135714Y-52150000D01*
X24183333Y-52197619D01*
X25088095Y-52102380D02*
X24611904Y-52102380D01*
X24564285Y-52578571D01*
X24611904Y-52530952D01*
X24707142Y-52483333D01*
X24945238Y-52483333D01*
X25040476Y-52530952D01*
X25088095Y-52578571D01*
X25135714Y-52673809D01*
X25135714Y-52911904D01*
X25088095Y-53007142D01*
X25040476Y-53054761D01*
X24945238Y-53102380D01*
X24707142Y-53102380D01*
X24611904Y-53054761D01*
X24564285Y-53007142D01*
X35133333Y-52387142D02*
X35085714Y-52434761D01*
X34942857Y-52482380D01*
X34847619Y-52482380D01*
X34704761Y-52434761D01*
X34609523Y-52339523D01*
X34561904Y-52244285D01*
X34514285Y-52053809D01*
X34514285Y-51910952D01*
X34561904Y-51720476D01*
X34609523Y-51625238D01*
X34704761Y-51530000D01*
X34847619Y-51482380D01*
X34942857Y-51482380D01*
X35085714Y-51530000D01*
X35133333Y-51577619D01*
X35990476Y-51482380D02*
X35800000Y-51482380D01*
X35704761Y-51530000D01*
X35657142Y-51577619D01*
X35561904Y-51720476D01*
X35514285Y-51910952D01*
X35514285Y-52291904D01*
X35561904Y-52387142D01*
X35609523Y-52434761D01*
X35704761Y-52482380D01*
X35895238Y-52482380D01*
X35990476Y-52434761D01*
X36038095Y-52387142D01*
X36085714Y-52291904D01*
X36085714Y-52053809D01*
X36038095Y-51958571D01*
X35990476Y-51910952D01*
X35895238Y-51863333D01*
X35704761Y-51863333D01*
X35609523Y-51910952D01*
X35561904Y-51958571D01*
X35514285Y-52053809D01*
X33057142Y-66566666D02*
X33104761Y-66614285D01*
X33152380Y-66757142D01*
X33152380Y-66852380D01*
X33104761Y-66995238D01*
X33009523Y-67090476D01*
X32914285Y-67138095D01*
X32723809Y-67185714D01*
X32580952Y-67185714D01*
X32390476Y-67138095D01*
X32295238Y-67090476D01*
X32200000Y-66995238D01*
X32152380Y-66852380D01*
X32152380Y-66757142D01*
X32200000Y-66614285D01*
X32247619Y-66566666D01*
X32152380Y-66233333D02*
X32152380Y-65566666D01*
X33152380Y-65995238D01*
X34520833Y-40557142D02*
X34473214Y-40604761D01*
X34330357Y-40652380D01*
X34235119Y-40652380D01*
X34092261Y-40604761D01*
X33997023Y-40509523D01*
X33949404Y-40414285D01*
X33901785Y-40223809D01*
X33901785Y-40080952D01*
X33949404Y-39890476D01*
X33997023Y-39795238D01*
X34092261Y-39700000D01*
X34235119Y-39652380D01*
X34330357Y-39652380D01*
X34473214Y-39700000D01*
X34520833Y-39747619D01*
X35092261Y-40080952D02*
X34997023Y-40033333D01*
X34949404Y-39985714D01*
X34901785Y-39890476D01*
X34901785Y-39842857D01*
X34949404Y-39747619D01*
X34997023Y-39700000D01*
X35092261Y-39652380D01*
X35282738Y-39652380D01*
X35377976Y-39700000D01*
X35425595Y-39747619D01*
X35473214Y-39842857D01*
X35473214Y-39890476D01*
X35425595Y-39985714D01*
X35377976Y-40033333D01*
X35282738Y-40080952D01*
X35092261Y-40080952D01*
X34997023Y-40128571D01*
X34949404Y-40176190D01*
X34901785Y-40271428D01*
X34901785Y-40461904D01*
X34949404Y-40557142D01*
X34997023Y-40604761D01*
X35092261Y-40652380D01*
X35282738Y-40652380D01*
X35377976Y-40604761D01*
X35425595Y-40557142D01*
X35473214Y-40461904D01*
X35473214Y-40271428D01*
X35425595Y-40176190D01*
X35377976Y-40128571D01*
X35282738Y-40080952D01*
X7157142Y-19842857D02*
X7204761Y-19890476D01*
X7252380Y-20033333D01*
X7252380Y-20128571D01*
X7204761Y-20271428D01*
X7109523Y-20366666D01*
X7014285Y-20414285D01*
X6823809Y-20461904D01*
X6680952Y-20461904D01*
X6490476Y-20414285D01*
X6395238Y-20366666D01*
X6300000Y-20271428D01*
X6252380Y-20128571D01*
X6252380Y-20033333D01*
X6300000Y-19890476D01*
X6347619Y-19842857D01*
X7252380Y-18890476D02*
X7252380Y-19461904D01*
X7252380Y-19176190D02*
X6252380Y-19176190D01*
X6395238Y-19271428D01*
X6490476Y-19366666D01*
X6538095Y-19461904D01*
X6252380Y-18271428D02*
X6252380Y-18176190D01*
X6300000Y-18080952D01*
X6347619Y-18033333D01*
X6442857Y-17985714D01*
X6633333Y-17938095D01*
X6871428Y-17938095D01*
X7061904Y-17985714D01*
X7157142Y-18033333D01*
X7204761Y-18080952D01*
X7252380Y-18176190D01*
X7252380Y-18271428D01*
X7204761Y-18366666D01*
X7157142Y-18414285D01*
X7061904Y-18461904D01*
X6871428Y-18509523D01*
X6633333Y-18509523D01*
X6442857Y-18461904D01*
X6347619Y-18414285D01*
X6300000Y-18366666D01*
X6252380Y-18271428D01*
X7907142Y-58257142D02*
X7859523Y-58304761D01*
X7716666Y-58352380D01*
X7621428Y-58352380D01*
X7478571Y-58304761D01*
X7383333Y-58209523D01*
X7335714Y-58114285D01*
X7288095Y-57923809D01*
X7288095Y-57780952D01*
X7335714Y-57590476D01*
X7383333Y-57495238D01*
X7478571Y-57400000D01*
X7621428Y-57352380D01*
X7716666Y-57352380D01*
X7859523Y-57400000D01*
X7907142Y-57447619D01*
X8859523Y-58352380D02*
X8288095Y-58352380D01*
X8573809Y-58352380D02*
X8573809Y-57352380D01*
X8478571Y-57495238D01*
X8383333Y-57590476D01*
X8288095Y-57638095D01*
X9811904Y-58352380D02*
X9240476Y-58352380D01*
X9526190Y-58352380D02*
X9526190Y-57352380D01*
X9430952Y-57495238D01*
X9335714Y-57590476D01*
X9240476Y-57638095D01*
X9757142Y-48057142D02*
X9709523Y-48104761D01*
X9566666Y-48152380D01*
X9471428Y-48152380D01*
X9328571Y-48104761D01*
X9233333Y-48009523D01*
X9185714Y-47914285D01*
X9138095Y-47723809D01*
X9138095Y-47580952D01*
X9185714Y-47390476D01*
X9233333Y-47295238D01*
X9328571Y-47200000D01*
X9471428Y-47152380D01*
X9566666Y-47152380D01*
X9709523Y-47200000D01*
X9757142Y-47247619D01*
X10709523Y-48152380D02*
X10138095Y-48152380D01*
X10423809Y-48152380D02*
X10423809Y-47152380D01*
X10328571Y-47295238D01*
X10233333Y-47390476D01*
X10138095Y-47438095D01*
X11566666Y-47485714D02*
X11566666Y-48152380D01*
X11328571Y-47104761D02*
X11090476Y-47819047D01*
X11709523Y-47819047D01*
X28207142Y-34592857D02*
X28254761Y-34640476D01*
X28302380Y-34783333D01*
X28302380Y-34878571D01*
X28254761Y-35021428D01*
X28159523Y-35116666D01*
X28064285Y-35164285D01*
X27873809Y-35211904D01*
X27730952Y-35211904D01*
X27540476Y-35164285D01*
X27445238Y-35116666D01*
X27350000Y-35021428D01*
X27302380Y-34878571D01*
X27302380Y-34783333D01*
X27350000Y-34640476D01*
X27397619Y-34592857D01*
X28302380Y-33640476D02*
X28302380Y-34211904D01*
X28302380Y-33926190D02*
X27302380Y-33926190D01*
X27445238Y-34021428D01*
X27540476Y-34116666D01*
X27588095Y-34211904D01*
X27302380Y-32783333D02*
X27302380Y-32973809D01*
X27350000Y-33069047D01*
X27397619Y-33116666D01*
X27540476Y-33211904D01*
X27730952Y-33259523D01*
X28111904Y-33259523D01*
X28207142Y-33211904D01*
X28254761Y-33164285D01*
X28302380Y-33069047D01*
X28302380Y-32878571D01*
X28254761Y-32783333D01*
X28207142Y-32735714D01*
X28111904Y-32688095D01*
X27873809Y-32688095D01*
X27778571Y-32735714D01*
X27730952Y-32783333D01*
X27683333Y-32878571D01*
X27683333Y-33069047D01*
X27730952Y-33164285D01*
X27778571Y-33211904D01*
X27873809Y-33259523D01*
X11757142Y-17727142D02*
X11709523Y-17774761D01*
X11566666Y-17822380D01*
X11471428Y-17822380D01*
X11328571Y-17774761D01*
X11233333Y-17679523D01*
X11185714Y-17584285D01*
X11138095Y-17393809D01*
X11138095Y-17250952D01*
X11185714Y-17060476D01*
X11233333Y-16965238D01*
X11328571Y-16870000D01*
X11471428Y-16822380D01*
X11566666Y-16822380D01*
X11709523Y-16870000D01*
X11757142Y-16917619D01*
X12709523Y-17822380D02*
X12138095Y-17822380D01*
X12423809Y-17822380D02*
X12423809Y-16822380D01*
X12328571Y-16965238D01*
X12233333Y-17060476D01*
X12138095Y-17108095D01*
X13185714Y-17822380D02*
X13376190Y-17822380D01*
X13471428Y-17774761D01*
X13519047Y-17727142D01*
X13614285Y-17584285D01*
X13661904Y-17393809D01*
X13661904Y-17012857D01*
X13614285Y-16917619D01*
X13566666Y-16870000D01*
X13471428Y-16822380D01*
X13280952Y-16822380D01*
X13185714Y-16870000D01*
X13138095Y-16917619D01*
X13090476Y-17012857D01*
X13090476Y-17250952D01*
X13138095Y-17346190D01*
X13185714Y-17393809D01*
X13280952Y-17441428D01*
X13471428Y-17441428D01*
X13566666Y-17393809D01*
X13614285Y-17346190D01*
X13661904Y-17250952D01*
X7452380Y-28138095D02*
X6452380Y-28138095D01*
X6452380Y-27900000D01*
X6500000Y-27757142D01*
X6595238Y-27661904D01*
X6690476Y-27614285D01*
X6880952Y-27566666D01*
X7023809Y-27566666D01*
X7214285Y-27614285D01*
X7309523Y-27661904D01*
X7404761Y-27757142D01*
X7452380Y-27900000D01*
X7452380Y-28138095D01*
X6452380Y-27233333D02*
X6452380Y-26614285D01*
X6833333Y-26947619D01*
X6833333Y-26804761D01*
X6880952Y-26709523D01*
X6928571Y-26661904D01*
X7023809Y-26614285D01*
X7261904Y-26614285D01*
X7357142Y-26661904D01*
X7404761Y-26709523D01*
X7452380Y-26804761D01*
X7452380Y-27090476D01*
X7404761Y-27185714D01*
X7357142Y-27233333D01*
X37366666Y-67252380D02*
X37366666Y-67966666D01*
X37319047Y-68109523D01*
X37223809Y-68204761D01*
X37080952Y-68252380D01*
X36985714Y-68252380D01*
X38366666Y-68252380D02*
X37795238Y-68252380D01*
X38080952Y-68252380D02*
X38080952Y-67252380D01*
X37985714Y-67395238D01*
X37890476Y-67490476D01*
X37795238Y-67538095D01*
X6447619Y-31595238D02*
X6400000Y-31690476D01*
X6304761Y-31785714D01*
X6161904Y-31928571D01*
X6114285Y-32023809D01*
X6114285Y-32119047D01*
X6352380Y-32071428D02*
X6304761Y-32166666D01*
X6209523Y-32261904D01*
X6019047Y-32309523D01*
X5685714Y-32309523D01*
X5495238Y-32261904D01*
X5400000Y-32166666D01*
X5352380Y-32071428D01*
X5352380Y-31880952D01*
X5400000Y-31785714D01*
X5495238Y-31690476D01*
X5685714Y-31642857D01*
X6019047Y-31642857D01*
X6209523Y-31690476D01*
X6304761Y-31785714D01*
X6352380Y-31880952D01*
X6352380Y-32071428D01*
X5352380Y-31309523D02*
X5352380Y-30690476D01*
X5733333Y-31023809D01*
X5733333Y-30880952D01*
X5780952Y-30785714D01*
X5828571Y-30738095D01*
X5923809Y-30690476D01*
X6161904Y-30690476D01*
X6257142Y-30738095D01*
X6304761Y-30785714D01*
X6352380Y-30880952D01*
X6352380Y-31166666D01*
X6304761Y-31261904D01*
X6257142Y-31309523D01*
X45033333Y-28552380D02*
X44700000Y-28076190D01*
X44461904Y-28552380D02*
X44461904Y-27552380D01*
X44842857Y-27552380D01*
X44938095Y-27600000D01*
X44985714Y-27647619D01*
X45033333Y-27742857D01*
X45033333Y-27885714D01*
X44985714Y-27980952D01*
X44938095Y-28028571D01*
X44842857Y-28076190D01*
X44461904Y-28076190D01*
X45985714Y-28552380D02*
X45414285Y-28552380D01*
X45700000Y-28552380D02*
X45700000Y-27552380D01*
X45604761Y-27695238D01*
X45509523Y-27790476D01*
X45414285Y-27838095D01*
X43733333Y-30452380D02*
X43400000Y-29976190D01*
X43161904Y-30452380D02*
X43161904Y-29452380D01*
X43542857Y-29452380D01*
X43638095Y-29500000D01*
X43685714Y-29547619D01*
X43733333Y-29642857D01*
X43733333Y-29785714D01*
X43685714Y-29880952D01*
X43638095Y-29928571D01*
X43542857Y-29976190D01*
X43161904Y-29976190D01*
X44066666Y-29452380D02*
X44685714Y-29452380D01*
X44352380Y-29833333D01*
X44495238Y-29833333D01*
X44590476Y-29880952D01*
X44638095Y-29928571D01*
X44685714Y-30023809D01*
X44685714Y-30261904D01*
X44638095Y-30357142D01*
X44590476Y-30404761D01*
X44495238Y-30452380D01*
X44209523Y-30452380D01*
X44114285Y-30404761D01*
X44066666Y-30357142D01*
X33452380Y-62666666D02*
X32976190Y-63000000D01*
X33452380Y-63238095D02*
X32452380Y-63238095D01*
X32452380Y-62857142D01*
X32500000Y-62761904D01*
X32547619Y-62714285D01*
X32642857Y-62666666D01*
X32785714Y-62666666D01*
X32880952Y-62714285D01*
X32928571Y-62761904D01*
X32976190Y-62857142D01*
X32976190Y-63238095D01*
X32452380Y-61761904D02*
X32452380Y-62238095D01*
X32928571Y-62285714D01*
X32880952Y-62238095D01*
X32833333Y-62142857D01*
X32833333Y-61904761D01*
X32880952Y-61809523D01*
X32928571Y-61761904D01*
X33023809Y-61714285D01*
X33261904Y-61714285D01*
X33357142Y-61761904D01*
X33404761Y-61809523D01*
X33452380Y-61904761D01*
X33452380Y-62142857D01*
X33404761Y-62238095D01*
X33357142Y-62285714D01*
X29202380Y-56016666D02*
X28726190Y-56350000D01*
X29202380Y-56588095D02*
X28202380Y-56588095D01*
X28202380Y-56207142D01*
X28250000Y-56111904D01*
X28297619Y-56064285D01*
X28392857Y-56016666D01*
X28535714Y-56016666D01*
X28630952Y-56064285D01*
X28678571Y-56111904D01*
X28726190Y-56207142D01*
X28726190Y-56588095D01*
X28202380Y-55159523D02*
X28202380Y-55350000D01*
X28250000Y-55445238D01*
X28297619Y-55492857D01*
X28440476Y-55588095D01*
X28630952Y-55635714D01*
X29011904Y-55635714D01*
X29107142Y-55588095D01*
X29154761Y-55540476D01*
X29202380Y-55445238D01*
X29202380Y-55254761D01*
X29154761Y-55159523D01*
X29107142Y-55111904D01*
X29011904Y-55064285D01*
X28773809Y-55064285D01*
X28678571Y-55111904D01*
X28630952Y-55159523D01*
X28583333Y-55254761D01*
X28583333Y-55445238D01*
X28630952Y-55540476D01*
X28678571Y-55588095D01*
X28773809Y-55635714D01*
X11133333Y-43472380D02*
X10800000Y-42996190D01*
X10561904Y-43472380D02*
X10561904Y-42472380D01*
X10942857Y-42472380D01*
X11038095Y-42520000D01*
X11085714Y-42567619D01*
X11133333Y-42662857D01*
X11133333Y-42805714D01*
X11085714Y-42900952D01*
X11038095Y-42948571D01*
X10942857Y-42996190D01*
X10561904Y-42996190D01*
X11704761Y-42900952D02*
X11609523Y-42853333D01*
X11561904Y-42805714D01*
X11514285Y-42710476D01*
X11514285Y-42662857D01*
X11561904Y-42567619D01*
X11609523Y-42520000D01*
X11704761Y-42472380D01*
X11895238Y-42472380D01*
X11990476Y-42520000D01*
X12038095Y-42567619D01*
X12085714Y-42662857D01*
X12085714Y-42710476D01*
X12038095Y-42805714D01*
X11990476Y-42853333D01*
X11895238Y-42900952D01*
X11704761Y-42900952D01*
X11609523Y-42948571D01*
X11561904Y-42996190D01*
X11514285Y-43091428D01*
X11514285Y-43281904D01*
X11561904Y-43377142D01*
X11609523Y-43424761D01*
X11704761Y-43472380D01*
X11895238Y-43472380D01*
X11990476Y-43424761D01*
X12038095Y-43377142D01*
X12085714Y-43281904D01*
X12085714Y-43091428D01*
X12038095Y-42996190D01*
X11990476Y-42948571D01*
X11895238Y-42900952D01*
X29202380Y-66142857D02*
X28726190Y-66476190D01*
X29202380Y-66714285D02*
X28202380Y-66714285D01*
X28202380Y-66333333D01*
X28250000Y-66238095D01*
X28297619Y-66190476D01*
X28392857Y-66142857D01*
X28535714Y-66142857D01*
X28630952Y-66190476D01*
X28678571Y-66238095D01*
X28726190Y-66333333D01*
X28726190Y-66714285D01*
X29202380Y-65190476D02*
X29202380Y-65761904D01*
X29202380Y-65476190D02*
X28202380Y-65476190D01*
X28345238Y-65571428D01*
X28440476Y-65666666D01*
X28488095Y-65761904D01*
X28202380Y-64571428D02*
X28202380Y-64476190D01*
X28250000Y-64380952D01*
X28297619Y-64333333D01*
X28392857Y-64285714D01*
X28583333Y-64238095D01*
X28821428Y-64238095D01*
X29011904Y-64285714D01*
X29107142Y-64333333D01*
X29154761Y-64380952D01*
X29202380Y-64476190D01*
X29202380Y-64571428D01*
X29154761Y-64666666D01*
X29107142Y-64714285D01*
X29011904Y-64761904D01*
X28821428Y-64809523D01*
X28583333Y-64809523D01*
X28392857Y-64761904D01*
X28297619Y-64714285D01*
X28250000Y-64666666D01*
X28202380Y-64571428D01*
X27452380Y-56442857D02*
X26976190Y-56776190D01*
X27452380Y-57014285D02*
X26452380Y-57014285D01*
X26452380Y-56633333D01*
X26500000Y-56538095D01*
X26547619Y-56490476D01*
X26642857Y-56442857D01*
X26785714Y-56442857D01*
X26880952Y-56490476D01*
X26928571Y-56538095D01*
X26976190Y-56633333D01*
X26976190Y-57014285D01*
X27452380Y-55490476D02*
X27452380Y-56061904D01*
X27452380Y-55776190D02*
X26452380Y-55776190D01*
X26595238Y-55871428D01*
X26690476Y-55966666D01*
X26738095Y-56061904D01*
X27452380Y-54538095D02*
X27452380Y-55109523D01*
X27452380Y-54823809D02*
X26452380Y-54823809D01*
X26595238Y-54919047D01*
X26690476Y-55014285D01*
X26738095Y-55109523D01*
X7452380Y-24230357D02*
X6976190Y-24563690D01*
X7452380Y-24801785D02*
X6452380Y-24801785D01*
X6452380Y-24420833D01*
X6500000Y-24325595D01*
X6547619Y-24277976D01*
X6642857Y-24230357D01*
X6785714Y-24230357D01*
X6880952Y-24277976D01*
X6928571Y-24325595D01*
X6976190Y-24420833D01*
X6976190Y-24801785D01*
X7452380Y-23277976D02*
X7452380Y-23849404D01*
X7452380Y-23563690D02*
X6452380Y-23563690D01*
X6595238Y-23658928D01*
X6690476Y-23754166D01*
X6738095Y-23849404D01*
X6547619Y-22897023D02*
X6500000Y-22849404D01*
X6452380Y-22754166D01*
X6452380Y-22516071D01*
X6500000Y-22420833D01*
X6547619Y-22373214D01*
X6642857Y-22325595D01*
X6738095Y-22325595D01*
X6880952Y-22373214D01*
X7452380Y-22944642D01*
X7452380Y-22325595D01*
X27452380Y-66142857D02*
X26976190Y-66476190D01*
X27452380Y-66714285D02*
X26452380Y-66714285D01*
X26452380Y-66333333D01*
X26500000Y-66238095D01*
X26547619Y-66190476D01*
X26642857Y-66142857D01*
X26785714Y-66142857D01*
X26880952Y-66190476D01*
X26928571Y-66238095D01*
X26976190Y-66333333D01*
X26976190Y-66714285D01*
X27452380Y-65190476D02*
X27452380Y-65761904D01*
X27452380Y-65476190D02*
X26452380Y-65476190D01*
X26595238Y-65571428D01*
X26690476Y-65666666D01*
X26738095Y-65761904D01*
X26452380Y-64857142D02*
X26452380Y-64238095D01*
X26833333Y-64571428D01*
X26833333Y-64428571D01*
X26880952Y-64333333D01*
X26928571Y-64285714D01*
X27023809Y-64238095D01*
X27261904Y-64238095D01*
X27357142Y-64285714D01*
X27404761Y-64333333D01*
X27452380Y-64428571D01*
X27452380Y-64714285D01*
X27404761Y-64809523D01*
X27357142Y-64857142D01*
X43138095Y-23752380D02*
X43138095Y-24561904D01*
X43185714Y-24657142D01*
X43233333Y-24704761D01*
X43328571Y-24752380D01*
X43519047Y-24752380D01*
X43614285Y-24704761D01*
X43661904Y-24657142D01*
X43709523Y-24561904D01*
X43709523Y-23752380D01*
X44709523Y-24752380D02*
X44138095Y-24752380D01*
X44423809Y-24752380D02*
X44423809Y-23752380D01*
X44328571Y-23895238D01*
X44233333Y-23990476D01*
X44138095Y-24038095D01*
X38352380Y-65961904D02*
X39161904Y-65961904D01*
X39257142Y-65914285D01*
X39304761Y-65866666D01*
X39352380Y-65771428D01*
X39352380Y-65580952D01*
X39304761Y-65485714D01*
X39257142Y-65438095D01*
X39161904Y-65390476D01*
X38352380Y-65390476D01*
X38447619Y-64961904D02*
X38400000Y-64914285D01*
X38352380Y-64819047D01*
X38352380Y-64580952D01*
X38400000Y-64485714D01*
X38447619Y-64438095D01*
X38542857Y-64390476D01*
X38638095Y-64390476D01*
X38780952Y-64438095D01*
X39352380Y-65009523D01*
X39352380Y-64390476D01*
X28738095Y-51852380D02*
X28738095Y-52661904D01*
X28785714Y-52757142D01*
X28833333Y-52804761D01*
X28928571Y-52852380D01*
X29119047Y-52852380D01*
X29214285Y-52804761D01*
X29261904Y-52757142D01*
X29309523Y-52661904D01*
X29309523Y-51852380D01*
X29690476Y-51852380D02*
X30309523Y-51852380D01*
X29976190Y-52233333D01*
X30119047Y-52233333D01*
X30214285Y-52280952D01*
X30261904Y-52328571D01*
X30309523Y-52423809D01*
X30309523Y-52661904D01*
X30261904Y-52757142D01*
X30214285Y-52804761D01*
X30119047Y-52852380D01*
X29833333Y-52852380D01*
X29738095Y-52804761D01*
X29690476Y-52757142D01*
X24352380Y-63061904D02*
X25161904Y-63061904D01*
X25257142Y-63014285D01*
X25304761Y-62966666D01*
X25352380Y-62871428D01*
X25352380Y-62680952D01*
X25304761Y-62585714D01*
X25257142Y-62538095D01*
X25161904Y-62490476D01*
X24352380Y-62490476D01*
X24352380Y-61538095D02*
X24352380Y-62014285D01*
X24828571Y-62061904D01*
X24780952Y-62014285D01*
X24733333Y-61919047D01*
X24733333Y-61680952D01*
X24780952Y-61585714D01*
X24828571Y-61538095D01*
X24923809Y-61490476D01*
X25161904Y-61490476D01*
X25257142Y-61538095D01*
X25304761Y-61585714D01*
X25352380Y-61680952D01*
X25352380Y-61919047D01*
X25304761Y-62014285D01*
X25257142Y-62061904D01*
X1652380Y-43261904D02*
X2461904Y-43261904D01*
X2557142Y-43214285D01*
X2604761Y-43166666D01*
X2652380Y-43071428D01*
X2652380Y-42880952D01*
X2604761Y-42785714D01*
X2557142Y-42738095D01*
X2461904Y-42690476D01*
X1652380Y-42690476D01*
X1652380Y-41785714D02*
X1652380Y-41976190D01*
X1700000Y-42071428D01*
X1747619Y-42119047D01*
X1890476Y-42214285D01*
X2080952Y-42261904D01*
X2461904Y-42261904D01*
X2557142Y-42214285D01*
X2604761Y-42166666D01*
X2652380Y-42071428D01*
X2652380Y-41880952D01*
X2604761Y-41785714D01*
X2557142Y-41738095D01*
X2461904Y-41690476D01*
X2223809Y-41690476D01*
X2128571Y-41738095D01*
X2080952Y-41785714D01*
X2033333Y-41880952D01*
X2033333Y-42071428D01*
X2080952Y-42166666D01*
X2128571Y-42214285D01*
X2223809Y-42261904D01*
X27652380Y-28561904D02*
X28461904Y-28561904D01*
X28557142Y-28514285D01*
X28604761Y-28466666D01*
X28652380Y-28371428D01*
X28652380Y-28180952D01*
X28604761Y-28085714D01*
X28557142Y-28038095D01*
X28461904Y-27990476D01*
X27652380Y-27990476D01*
X28652380Y-27466666D02*
X28652380Y-27276190D01*
X28604761Y-27180952D01*
X28557142Y-27133333D01*
X28414285Y-27038095D01*
X28223809Y-26990476D01*
X27842857Y-26990476D01*
X27747619Y-27038095D01*
X27700000Y-27085714D01*
X27652380Y-27180952D01*
X27652380Y-27371428D01*
X27700000Y-27466666D01*
X27747619Y-27514285D01*
X27842857Y-27561904D01*
X28080952Y-27561904D01*
X28176190Y-27514285D01*
X28223809Y-27466666D01*
X28271428Y-27371428D01*
X28271428Y-27180952D01*
X28223809Y-27085714D01*
X28176190Y-27038095D01*
X28080952Y-26990476D01*
X38376190Y-34776190D02*
X38852380Y-34776190D01*
X37852380Y-35109523D02*
X38376190Y-34776190D01*
X37852380Y-34442857D01*
X38852380Y-33585714D02*
X38852380Y-34157142D01*
X38852380Y-33871428D02*
X37852380Y-33871428D01*
X37995238Y-33966666D01*
X38090476Y-34061904D01*
X38138095Y-34157142D01*
X10797619Y-59745238D02*
X10750000Y-59840476D01*
X10654761Y-59935714D01*
X10511904Y-60078571D01*
X10464285Y-60173809D01*
X10464285Y-60269047D01*
X10702380Y-60221428D02*
X10654761Y-60316666D01*
X10559523Y-60411904D01*
X10369047Y-60459523D01*
X10035714Y-60459523D01*
X9845238Y-60411904D01*
X9750000Y-60316666D01*
X9702380Y-60221428D01*
X9702380Y-60030952D01*
X9750000Y-59935714D01*
X9845238Y-59840476D01*
X10035714Y-59792857D01*
X10369047Y-59792857D01*
X10559523Y-59840476D01*
X10654761Y-59935714D01*
X10702380Y-60030952D01*
X10702380Y-60221428D01*
X10035714Y-58935714D02*
X10702380Y-58935714D01*
X9654761Y-59173809D02*
X10369047Y-59411904D01*
X10369047Y-58792857D01*
X15352380Y-44842857D02*
X14876190Y-45176190D01*
X15352380Y-45414285D02*
X14352380Y-45414285D01*
X14352380Y-45033333D01*
X14400000Y-44938095D01*
X14447619Y-44890476D01*
X14542857Y-44842857D01*
X14685714Y-44842857D01*
X14780952Y-44890476D01*
X14828571Y-44938095D01*
X14876190Y-45033333D01*
X14876190Y-45414285D01*
X15352380Y-43890476D02*
X15352380Y-44461904D01*
X15352380Y-44176190D02*
X14352380Y-44176190D01*
X14495238Y-44271428D01*
X14590476Y-44366666D01*
X14638095Y-44461904D01*
X14352380Y-43557142D02*
X14352380Y-42890476D01*
X15352380Y-43319047D01*
X18952380Y-44842857D02*
X18476190Y-45176190D01*
X18952380Y-45414285D02*
X17952380Y-45414285D01*
X17952380Y-45033333D01*
X18000000Y-44938095D01*
X18047619Y-44890476D01*
X18142857Y-44842857D01*
X18285714Y-44842857D01*
X18380952Y-44890476D01*
X18428571Y-44938095D01*
X18476190Y-45033333D01*
X18476190Y-45414285D01*
X18952380Y-43890476D02*
X18952380Y-44461904D01*
X18952380Y-44176190D02*
X17952380Y-44176190D01*
X18095238Y-44271428D01*
X18190476Y-44366666D01*
X18238095Y-44461904D01*
X18380952Y-43319047D02*
X18333333Y-43414285D01*
X18285714Y-43461904D01*
X18190476Y-43509523D01*
X18142857Y-43509523D01*
X18047619Y-43461904D01*
X18000000Y-43414285D01*
X17952380Y-43319047D01*
X17952380Y-43128571D01*
X18000000Y-43033333D01*
X18047619Y-42985714D01*
X18142857Y-42938095D01*
X18190476Y-42938095D01*
X18285714Y-42985714D01*
X18333333Y-43033333D01*
X18380952Y-43128571D01*
X18380952Y-43319047D01*
X18428571Y-43414285D01*
X18476190Y-43461904D01*
X18571428Y-43509523D01*
X18761904Y-43509523D01*
X18857142Y-43461904D01*
X18904761Y-43414285D01*
X18952380Y-43319047D01*
X18952380Y-43128571D01*
X18904761Y-43033333D01*
X18857142Y-42985714D01*
X18761904Y-42938095D01*
X18571428Y-42938095D01*
X18476190Y-42985714D01*
X18428571Y-43033333D01*
X18380952Y-43128571D01*
X38852380Y-50561904D02*
X39661904Y-50561904D01*
X39757142Y-50514285D01*
X39804761Y-50466666D01*
X39852380Y-50371428D01*
X39852380Y-50180952D01*
X39804761Y-50085714D01*
X39757142Y-50038095D01*
X39661904Y-49990476D01*
X38852380Y-49990476D01*
X39280952Y-49371428D02*
X39233333Y-49466666D01*
X39185714Y-49514285D01*
X39090476Y-49561904D01*
X39042857Y-49561904D01*
X38947619Y-49514285D01*
X38900000Y-49466666D01*
X38852380Y-49371428D01*
X38852380Y-49180952D01*
X38900000Y-49085714D01*
X38947619Y-49038095D01*
X39042857Y-48990476D01*
X39090476Y-48990476D01*
X39185714Y-49038095D01*
X39233333Y-49085714D01*
X39280952Y-49180952D01*
X39280952Y-49371428D01*
X39328571Y-49466666D01*
X39376190Y-49514285D01*
X39471428Y-49561904D01*
X39661904Y-49561904D01*
X39757142Y-49514285D01*
X39804761Y-49466666D01*
X39852380Y-49371428D01*
X39852380Y-49180952D01*
X39804761Y-49085714D01*
X39757142Y-49038095D01*
X39661904Y-48990476D01*
X39471428Y-48990476D01*
X39376190Y-49038095D01*
X39328571Y-49085714D01*
X39280952Y-49180952D01*
X23957142Y-41742857D02*
X24004761Y-41790476D01*
X24052380Y-41933333D01*
X24052380Y-42028571D01*
X24004761Y-42171428D01*
X23909523Y-42266666D01*
X23814285Y-42314285D01*
X23623809Y-42361904D01*
X23480952Y-42361904D01*
X23290476Y-42314285D01*
X23195238Y-42266666D01*
X23100000Y-42171428D01*
X23052380Y-42028571D01*
X23052380Y-41933333D01*
X23100000Y-41790476D01*
X23147619Y-41742857D01*
X24052380Y-40790476D02*
X24052380Y-41361904D01*
X24052380Y-41076190D02*
X23052380Y-41076190D01*
X23195238Y-41171428D01*
X23290476Y-41266666D01*
X23338095Y-41361904D01*
X23147619Y-40409523D02*
X23100000Y-40361904D01*
X23052380Y-40266666D01*
X23052380Y-40028571D01*
X23100000Y-39933333D01*
X23147619Y-39885714D01*
X23242857Y-39838095D01*
X23338095Y-39838095D01*
X23480952Y-39885714D01*
X24052380Y-40457142D01*
X24052380Y-39838095D01*
X21947619Y-44895238D02*
X21900000Y-44990476D01*
X21804761Y-45085714D01*
X21661904Y-45228571D01*
X21614285Y-45323809D01*
X21614285Y-45419047D01*
X21852380Y-45371428D02*
X21804761Y-45466666D01*
X21709523Y-45561904D01*
X21519047Y-45609523D01*
X21185714Y-45609523D01*
X20995238Y-45561904D01*
X20900000Y-45466666D01*
X20852380Y-45371428D01*
X20852380Y-45180952D01*
X20900000Y-45085714D01*
X20995238Y-44990476D01*
X21185714Y-44942857D01*
X21519047Y-44942857D01*
X21709523Y-44990476D01*
X21804761Y-45085714D01*
X21852380Y-45180952D01*
X21852380Y-45371428D01*
X20852380Y-44038095D02*
X20852380Y-44514285D01*
X21328571Y-44561904D01*
X21280952Y-44514285D01*
X21233333Y-44419047D01*
X21233333Y-44180952D01*
X21280952Y-44085714D01*
X21328571Y-44038095D01*
X21423809Y-43990476D01*
X21661904Y-43990476D01*
X21757142Y-44038095D01*
X21804761Y-44085714D01*
X21852380Y-44180952D01*
X21852380Y-44419047D01*
X21804761Y-44514285D01*
X21757142Y-44561904D01*
X17152380Y-44842857D02*
X16676190Y-45176190D01*
X17152380Y-45414285D02*
X16152380Y-45414285D01*
X16152380Y-45033333D01*
X16200000Y-44938095D01*
X16247619Y-44890476D01*
X16342857Y-44842857D01*
X16485714Y-44842857D01*
X16580952Y-44890476D01*
X16628571Y-44938095D01*
X16676190Y-45033333D01*
X16676190Y-45414285D01*
X17152380Y-43890476D02*
X17152380Y-44461904D01*
X17152380Y-44176190D02*
X16152380Y-44176190D01*
X16295238Y-44271428D01*
X16390476Y-44366666D01*
X16438095Y-44461904D01*
X17152380Y-43414285D02*
X17152380Y-43223809D01*
X17104761Y-43128571D01*
X17057142Y-43080952D01*
X16914285Y-42985714D01*
X16723809Y-42938095D01*
X16342857Y-42938095D01*
X16247619Y-42985714D01*
X16200000Y-43033333D01*
X16152380Y-43128571D01*
X16152380Y-43319047D01*
X16200000Y-43414285D01*
X16247619Y-43461904D01*
X16342857Y-43509523D01*
X16580952Y-43509523D01*
X16676190Y-43461904D01*
X16723809Y-43414285D01*
X16771428Y-43319047D01*
X16771428Y-43128571D01*
X16723809Y-43033333D01*
X16676190Y-42985714D01*
X16580952Y-42938095D01*
X4514285Y-57828571D02*
X4657142Y-57876190D01*
X4704761Y-57923809D01*
X4752380Y-58019047D01*
X4752380Y-58161904D01*
X4704761Y-58257142D01*
X4657142Y-58304761D01*
X4561904Y-58352380D01*
X4180952Y-58352380D01*
X4180952Y-57352380D01*
X4514285Y-57352380D01*
X4609523Y-57400000D01*
X4657142Y-57447619D01*
X4704761Y-57542857D01*
X4704761Y-57638095D01*
X4657142Y-57733333D01*
X4609523Y-57780952D01*
X4514285Y-57828571D01*
X4180952Y-57828571D01*
X5038095Y-57352380D02*
X5609523Y-57352380D01*
X5323809Y-58352380D02*
X5323809Y-57352380D01*
X6466666Y-58352380D02*
X5895238Y-58352380D01*
X6180952Y-58352380D02*
X6180952Y-57352380D01*
X6085714Y-57495238D01*
X5990476Y-57590476D01*
X5895238Y-57638095D01*
X16747619Y-56895238D02*
X16700000Y-56990476D01*
X16604761Y-57085714D01*
X16461904Y-57228571D01*
X16414285Y-57323809D01*
X16414285Y-57419047D01*
X16652380Y-57371428D02*
X16604761Y-57466666D01*
X16509523Y-57561904D01*
X16319047Y-57609523D01*
X15985714Y-57609523D01*
X15795238Y-57561904D01*
X15700000Y-57466666D01*
X15652380Y-57371428D01*
X15652380Y-57180952D01*
X15700000Y-57085714D01*
X15795238Y-56990476D01*
X15985714Y-56942857D01*
X16319047Y-56942857D01*
X16509523Y-56990476D01*
X16604761Y-57085714D01*
X16652380Y-57180952D01*
X16652380Y-57371428D01*
X15652380Y-56085714D02*
X15652380Y-56276190D01*
X15700000Y-56371428D01*
X15747619Y-56419047D01*
X15890476Y-56514285D01*
X16080952Y-56561904D01*
X16461904Y-56561904D01*
X16557142Y-56514285D01*
X16604761Y-56466666D01*
X16652380Y-56371428D01*
X16652380Y-56180952D01*
X16604761Y-56085714D01*
X16557142Y-56038095D01*
X16461904Y-55990476D01*
X16223809Y-55990476D01*
X16128571Y-56038095D01*
X16080952Y-56085714D01*
X16033333Y-56180952D01*
X16033333Y-56371428D01*
X16080952Y-56466666D01*
X16128571Y-56514285D01*
X16223809Y-56561904D01*
%LPC*%
D12*
X16900000Y-51300000D03*
X15000000Y-51300000D03*
X15950000Y-53300000D03*
D13*
G36*
X13855142Y-54076174D02*
X13878803Y-54079684D01*
X13902007Y-54085496D01*
X13924529Y-54093554D01*
X13946153Y-54103782D01*
X13966670Y-54116079D01*
X13985883Y-54130329D01*
X14003607Y-54146393D01*
X14019671Y-54164117D01*
X14033921Y-54183330D01*
X14046218Y-54203847D01*
X14056446Y-54225471D01*
X14064504Y-54247993D01*
X14070316Y-54271197D01*
X14073826Y-54294858D01*
X14075000Y-54318750D01*
X14075000Y-54881250D01*
X14073826Y-54905142D01*
X14070316Y-54928803D01*
X14064504Y-54952007D01*
X14056446Y-54974529D01*
X14046218Y-54996153D01*
X14033921Y-55016670D01*
X14019671Y-55035883D01*
X14003607Y-55053607D01*
X13985883Y-55069671D01*
X13966670Y-55083921D01*
X13946153Y-55096218D01*
X13924529Y-55106446D01*
X13902007Y-55114504D01*
X13878803Y-55120316D01*
X13855142Y-55123826D01*
X13831250Y-55125000D01*
X13343750Y-55125000D01*
X13319858Y-55123826D01*
X13296197Y-55120316D01*
X13272993Y-55114504D01*
X13250471Y-55106446D01*
X13228847Y-55096218D01*
X13208330Y-55083921D01*
X13189117Y-55069671D01*
X13171393Y-55053607D01*
X13155329Y-55035883D01*
X13141079Y-55016670D01*
X13128782Y-54996153D01*
X13118554Y-54974529D01*
X13110496Y-54952007D01*
X13104684Y-54928803D01*
X13101174Y-54905142D01*
X13100000Y-54881250D01*
X13100000Y-54318750D01*
X13101174Y-54294858D01*
X13104684Y-54271197D01*
X13110496Y-54247993D01*
X13118554Y-54225471D01*
X13128782Y-54203847D01*
X13141079Y-54183330D01*
X13155329Y-54164117D01*
X13171393Y-54146393D01*
X13189117Y-54130329D01*
X13208330Y-54116079D01*
X13228847Y-54103782D01*
X13250471Y-54093554D01*
X13272993Y-54085496D01*
X13296197Y-54079684D01*
X13319858Y-54076174D01*
X13343750Y-54075000D01*
X13831250Y-54075000D01*
X13855142Y-54076174D01*
X13855142Y-54076174D01*
G37*
D14*
X13587500Y-54600000D03*
D13*
G36*
X12280142Y-54076174D02*
X12303803Y-54079684D01*
X12327007Y-54085496D01*
X12349529Y-54093554D01*
X12371153Y-54103782D01*
X12391670Y-54116079D01*
X12410883Y-54130329D01*
X12428607Y-54146393D01*
X12444671Y-54164117D01*
X12458921Y-54183330D01*
X12471218Y-54203847D01*
X12481446Y-54225471D01*
X12489504Y-54247993D01*
X12495316Y-54271197D01*
X12498826Y-54294858D01*
X12500000Y-54318750D01*
X12500000Y-54881250D01*
X12498826Y-54905142D01*
X12495316Y-54928803D01*
X12489504Y-54952007D01*
X12481446Y-54974529D01*
X12471218Y-54996153D01*
X12458921Y-55016670D01*
X12444671Y-55035883D01*
X12428607Y-55053607D01*
X12410883Y-55069671D01*
X12391670Y-55083921D01*
X12371153Y-55096218D01*
X12349529Y-55106446D01*
X12327007Y-55114504D01*
X12303803Y-55120316D01*
X12280142Y-55123826D01*
X12256250Y-55125000D01*
X11768750Y-55125000D01*
X11744858Y-55123826D01*
X11721197Y-55120316D01*
X11697993Y-55114504D01*
X11675471Y-55106446D01*
X11653847Y-55096218D01*
X11633330Y-55083921D01*
X11614117Y-55069671D01*
X11596393Y-55053607D01*
X11580329Y-55035883D01*
X11566079Y-55016670D01*
X11553782Y-54996153D01*
X11543554Y-54974529D01*
X11535496Y-54952007D01*
X11529684Y-54928803D01*
X11526174Y-54905142D01*
X11525000Y-54881250D01*
X11525000Y-54318750D01*
X11526174Y-54294858D01*
X11529684Y-54271197D01*
X11535496Y-54247993D01*
X11543554Y-54225471D01*
X11553782Y-54203847D01*
X11566079Y-54183330D01*
X11580329Y-54164117D01*
X11596393Y-54146393D01*
X11614117Y-54130329D01*
X11633330Y-54116079D01*
X11653847Y-54103782D01*
X11675471Y-54093554D01*
X11697993Y-54085496D01*
X11721197Y-54079684D01*
X11744858Y-54076174D01*
X11768750Y-54075000D01*
X12256250Y-54075000D01*
X12280142Y-54076174D01*
X12280142Y-54076174D01*
G37*
D14*
X12012500Y-54600000D03*
D13*
G36*
X21305142Y-52401174D02*
X21328803Y-52404684D01*
X21352007Y-52410496D01*
X21374529Y-52418554D01*
X21396153Y-52428782D01*
X21416670Y-52441079D01*
X21435883Y-52455329D01*
X21453607Y-52471393D01*
X21469671Y-52489117D01*
X21483921Y-52508330D01*
X21496218Y-52528847D01*
X21506446Y-52550471D01*
X21514504Y-52572993D01*
X21520316Y-52596197D01*
X21523826Y-52619858D01*
X21525000Y-52643750D01*
X21525000Y-53131250D01*
X21523826Y-53155142D01*
X21520316Y-53178803D01*
X21514504Y-53202007D01*
X21506446Y-53224529D01*
X21496218Y-53246153D01*
X21483921Y-53266670D01*
X21469671Y-53285883D01*
X21453607Y-53303607D01*
X21435883Y-53319671D01*
X21416670Y-53333921D01*
X21396153Y-53346218D01*
X21374529Y-53356446D01*
X21352007Y-53364504D01*
X21328803Y-53370316D01*
X21305142Y-53373826D01*
X21281250Y-53375000D01*
X20718750Y-53375000D01*
X20694858Y-53373826D01*
X20671197Y-53370316D01*
X20647993Y-53364504D01*
X20625471Y-53356446D01*
X20603847Y-53346218D01*
X20583330Y-53333921D01*
X20564117Y-53319671D01*
X20546393Y-53303607D01*
X20530329Y-53285883D01*
X20516079Y-53266670D01*
X20503782Y-53246153D01*
X20493554Y-53224529D01*
X20485496Y-53202007D01*
X20479684Y-53178803D01*
X20476174Y-53155142D01*
X20475000Y-53131250D01*
X20475000Y-52643750D01*
X20476174Y-52619858D01*
X20479684Y-52596197D01*
X20485496Y-52572993D01*
X20493554Y-52550471D01*
X20503782Y-52528847D01*
X20516079Y-52508330D01*
X20530329Y-52489117D01*
X20546393Y-52471393D01*
X20564117Y-52455329D01*
X20583330Y-52441079D01*
X20603847Y-52428782D01*
X20625471Y-52418554D01*
X20647993Y-52410496D01*
X20671197Y-52404684D01*
X20694858Y-52401174D01*
X20718750Y-52400000D01*
X21281250Y-52400000D01*
X21305142Y-52401174D01*
X21305142Y-52401174D01*
G37*
D14*
X21000000Y-52887500D03*
D13*
G36*
X21305142Y-50826174D02*
X21328803Y-50829684D01*
X21352007Y-50835496D01*
X21374529Y-50843554D01*
X21396153Y-50853782D01*
X21416670Y-50866079D01*
X21435883Y-50880329D01*
X21453607Y-50896393D01*
X21469671Y-50914117D01*
X21483921Y-50933330D01*
X21496218Y-50953847D01*
X21506446Y-50975471D01*
X21514504Y-50997993D01*
X21520316Y-51021197D01*
X21523826Y-51044858D01*
X21525000Y-51068750D01*
X21525000Y-51556250D01*
X21523826Y-51580142D01*
X21520316Y-51603803D01*
X21514504Y-51627007D01*
X21506446Y-51649529D01*
X21496218Y-51671153D01*
X21483921Y-51691670D01*
X21469671Y-51710883D01*
X21453607Y-51728607D01*
X21435883Y-51744671D01*
X21416670Y-51758921D01*
X21396153Y-51771218D01*
X21374529Y-51781446D01*
X21352007Y-51789504D01*
X21328803Y-51795316D01*
X21305142Y-51798826D01*
X21281250Y-51800000D01*
X20718750Y-51800000D01*
X20694858Y-51798826D01*
X20671197Y-51795316D01*
X20647993Y-51789504D01*
X20625471Y-51781446D01*
X20603847Y-51771218D01*
X20583330Y-51758921D01*
X20564117Y-51744671D01*
X20546393Y-51728607D01*
X20530329Y-51710883D01*
X20516079Y-51691670D01*
X20503782Y-51671153D01*
X20493554Y-51649529D01*
X20485496Y-51627007D01*
X20479684Y-51603803D01*
X20476174Y-51580142D01*
X20475000Y-51556250D01*
X20475000Y-51068750D01*
X20476174Y-51044858D01*
X20479684Y-51021197D01*
X20485496Y-50997993D01*
X20493554Y-50975471D01*
X20503782Y-50953847D01*
X20516079Y-50933330D01*
X20530329Y-50914117D01*
X20546393Y-50896393D01*
X20564117Y-50880329D01*
X20583330Y-50866079D01*
X20603847Y-50853782D01*
X20625471Y-50843554D01*
X20647993Y-50835496D01*
X20671197Y-50829684D01*
X20694858Y-50826174D01*
X20718750Y-50825000D01*
X21281250Y-50825000D01*
X21305142Y-50826174D01*
X21305142Y-50826174D01*
G37*
D14*
X21000000Y-51312500D03*
D15*
X10600000Y-53250000D03*
X10600000Y-51350000D03*
X8600000Y-52300000D03*
D13*
G36*
X19455142Y-59326174D02*
X19478803Y-59329684D01*
X19502007Y-59335496D01*
X19524529Y-59343554D01*
X19546153Y-59353782D01*
X19566670Y-59366079D01*
X19585883Y-59380329D01*
X19603607Y-59396393D01*
X19619671Y-59414117D01*
X19633921Y-59433330D01*
X19646218Y-59453847D01*
X19656446Y-59475471D01*
X19664504Y-59497993D01*
X19670316Y-59521197D01*
X19673826Y-59544858D01*
X19675000Y-59568750D01*
X19675000Y-60131250D01*
X19673826Y-60155142D01*
X19670316Y-60178803D01*
X19664504Y-60202007D01*
X19656446Y-60224529D01*
X19646218Y-60246153D01*
X19633921Y-60266670D01*
X19619671Y-60285883D01*
X19603607Y-60303607D01*
X19585883Y-60319671D01*
X19566670Y-60333921D01*
X19546153Y-60346218D01*
X19524529Y-60356446D01*
X19502007Y-60364504D01*
X19478803Y-60370316D01*
X19455142Y-60373826D01*
X19431250Y-60375000D01*
X18943750Y-60375000D01*
X18919858Y-60373826D01*
X18896197Y-60370316D01*
X18872993Y-60364504D01*
X18850471Y-60356446D01*
X18828847Y-60346218D01*
X18808330Y-60333921D01*
X18789117Y-60319671D01*
X18771393Y-60303607D01*
X18755329Y-60285883D01*
X18741079Y-60266670D01*
X18728782Y-60246153D01*
X18718554Y-60224529D01*
X18710496Y-60202007D01*
X18704684Y-60178803D01*
X18701174Y-60155142D01*
X18700000Y-60131250D01*
X18700000Y-59568750D01*
X18701174Y-59544858D01*
X18704684Y-59521197D01*
X18710496Y-59497993D01*
X18718554Y-59475471D01*
X18728782Y-59453847D01*
X18741079Y-59433330D01*
X18755329Y-59414117D01*
X18771393Y-59396393D01*
X18789117Y-59380329D01*
X18808330Y-59366079D01*
X18828847Y-59353782D01*
X18850471Y-59343554D01*
X18872993Y-59335496D01*
X18896197Y-59329684D01*
X18919858Y-59326174D01*
X18943750Y-59325000D01*
X19431250Y-59325000D01*
X19455142Y-59326174D01*
X19455142Y-59326174D01*
G37*
D14*
X19187500Y-59850000D03*
D13*
G36*
X17880142Y-59326174D02*
X17903803Y-59329684D01*
X17927007Y-59335496D01*
X17949529Y-59343554D01*
X17971153Y-59353782D01*
X17991670Y-59366079D01*
X18010883Y-59380329D01*
X18028607Y-59396393D01*
X18044671Y-59414117D01*
X18058921Y-59433330D01*
X18071218Y-59453847D01*
X18081446Y-59475471D01*
X18089504Y-59497993D01*
X18095316Y-59521197D01*
X18098826Y-59544858D01*
X18100000Y-59568750D01*
X18100000Y-60131250D01*
X18098826Y-60155142D01*
X18095316Y-60178803D01*
X18089504Y-60202007D01*
X18081446Y-60224529D01*
X18071218Y-60246153D01*
X18058921Y-60266670D01*
X18044671Y-60285883D01*
X18028607Y-60303607D01*
X18010883Y-60319671D01*
X17991670Y-60333921D01*
X17971153Y-60346218D01*
X17949529Y-60356446D01*
X17927007Y-60364504D01*
X17903803Y-60370316D01*
X17880142Y-60373826D01*
X17856250Y-60375000D01*
X17368750Y-60375000D01*
X17344858Y-60373826D01*
X17321197Y-60370316D01*
X17297993Y-60364504D01*
X17275471Y-60356446D01*
X17253847Y-60346218D01*
X17233330Y-60333921D01*
X17214117Y-60319671D01*
X17196393Y-60303607D01*
X17180329Y-60285883D01*
X17166079Y-60266670D01*
X17153782Y-60246153D01*
X17143554Y-60224529D01*
X17135496Y-60202007D01*
X17129684Y-60178803D01*
X17126174Y-60155142D01*
X17125000Y-60131250D01*
X17125000Y-59568750D01*
X17126174Y-59544858D01*
X17129684Y-59521197D01*
X17135496Y-59497993D01*
X17143554Y-59475471D01*
X17153782Y-59453847D01*
X17166079Y-59433330D01*
X17180329Y-59414117D01*
X17196393Y-59396393D01*
X17214117Y-59380329D01*
X17233330Y-59366079D01*
X17253847Y-59353782D01*
X17275471Y-59343554D01*
X17297993Y-59335496D01*
X17321197Y-59329684D01*
X17344858Y-59326174D01*
X17368750Y-59325000D01*
X17856250Y-59325000D01*
X17880142Y-59326174D01*
X17880142Y-59326174D01*
G37*
D14*
X17612500Y-59850000D03*
D13*
G36*
X19455142Y-50826174D02*
X19478803Y-50829684D01*
X19502007Y-50835496D01*
X19524529Y-50843554D01*
X19546153Y-50853782D01*
X19566670Y-50866079D01*
X19585883Y-50880329D01*
X19603607Y-50896393D01*
X19619671Y-50914117D01*
X19633921Y-50933330D01*
X19646218Y-50953847D01*
X19656446Y-50975471D01*
X19664504Y-50997993D01*
X19670316Y-51021197D01*
X19673826Y-51044858D01*
X19675000Y-51068750D01*
X19675000Y-51556250D01*
X19673826Y-51580142D01*
X19670316Y-51603803D01*
X19664504Y-51627007D01*
X19656446Y-51649529D01*
X19646218Y-51671153D01*
X19633921Y-51691670D01*
X19619671Y-51710883D01*
X19603607Y-51728607D01*
X19585883Y-51744671D01*
X19566670Y-51758921D01*
X19546153Y-51771218D01*
X19524529Y-51781446D01*
X19502007Y-51789504D01*
X19478803Y-51795316D01*
X19455142Y-51798826D01*
X19431250Y-51800000D01*
X18868750Y-51800000D01*
X18844858Y-51798826D01*
X18821197Y-51795316D01*
X18797993Y-51789504D01*
X18775471Y-51781446D01*
X18753847Y-51771218D01*
X18733330Y-51758921D01*
X18714117Y-51744671D01*
X18696393Y-51728607D01*
X18680329Y-51710883D01*
X18666079Y-51691670D01*
X18653782Y-51671153D01*
X18643554Y-51649529D01*
X18635496Y-51627007D01*
X18629684Y-51603803D01*
X18626174Y-51580142D01*
X18625000Y-51556250D01*
X18625000Y-51068750D01*
X18626174Y-51044858D01*
X18629684Y-51021197D01*
X18635496Y-50997993D01*
X18643554Y-50975471D01*
X18653782Y-50953847D01*
X18666079Y-50933330D01*
X18680329Y-50914117D01*
X18696393Y-50896393D01*
X18714117Y-50880329D01*
X18733330Y-50866079D01*
X18753847Y-50853782D01*
X18775471Y-50843554D01*
X18797993Y-50835496D01*
X18821197Y-50829684D01*
X18844858Y-50826174D01*
X18868750Y-50825000D01*
X19431250Y-50825000D01*
X19455142Y-50826174D01*
X19455142Y-50826174D01*
G37*
D14*
X19150000Y-51312500D03*
D13*
G36*
X19455142Y-52401174D02*
X19478803Y-52404684D01*
X19502007Y-52410496D01*
X19524529Y-52418554D01*
X19546153Y-52428782D01*
X19566670Y-52441079D01*
X19585883Y-52455329D01*
X19603607Y-52471393D01*
X19619671Y-52489117D01*
X19633921Y-52508330D01*
X19646218Y-52528847D01*
X19656446Y-52550471D01*
X19664504Y-52572993D01*
X19670316Y-52596197D01*
X19673826Y-52619858D01*
X19675000Y-52643750D01*
X19675000Y-53131250D01*
X19673826Y-53155142D01*
X19670316Y-53178803D01*
X19664504Y-53202007D01*
X19656446Y-53224529D01*
X19646218Y-53246153D01*
X19633921Y-53266670D01*
X19619671Y-53285883D01*
X19603607Y-53303607D01*
X19585883Y-53319671D01*
X19566670Y-53333921D01*
X19546153Y-53346218D01*
X19524529Y-53356446D01*
X19502007Y-53364504D01*
X19478803Y-53370316D01*
X19455142Y-53373826D01*
X19431250Y-53375000D01*
X18868750Y-53375000D01*
X18844858Y-53373826D01*
X18821197Y-53370316D01*
X18797993Y-53364504D01*
X18775471Y-53356446D01*
X18753847Y-53346218D01*
X18733330Y-53333921D01*
X18714117Y-53319671D01*
X18696393Y-53303607D01*
X18680329Y-53285883D01*
X18666079Y-53266670D01*
X18653782Y-53246153D01*
X18643554Y-53224529D01*
X18635496Y-53202007D01*
X18629684Y-53178803D01*
X18626174Y-53155142D01*
X18625000Y-53131250D01*
X18625000Y-52643750D01*
X18626174Y-52619858D01*
X18629684Y-52596197D01*
X18635496Y-52572993D01*
X18643554Y-52550471D01*
X18653782Y-52528847D01*
X18666079Y-52508330D01*
X18680329Y-52489117D01*
X18696393Y-52471393D01*
X18714117Y-52455329D01*
X18733330Y-52441079D01*
X18753847Y-52428782D01*
X18775471Y-52418554D01*
X18797993Y-52410496D01*
X18821197Y-52404684D01*
X18844858Y-52401174D01*
X18868750Y-52400000D01*
X19431250Y-52400000D01*
X19455142Y-52401174D01*
X19455142Y-52401174D01*
G37*
D14*
X19150000Y-52887500D03*
D13*
G36*
X39442642Y-54376174D02*
X39466303Y-54379684D01*
X39489507Y-54385496D01*
X39512029Y-54393554D01*
X39533653Y-54403782D01*
X39554170Y-54416079D01*
X39573383Y-54430329D01*
X39591107Y-54446393D01*
X39607171Y-54464117D01*
X39621421Y-54483330D01*
X39633718Y-54503847D01*
X39643946Y-54525471D01*
X39652004Y-54547993D01*
X39657816Y-54571197D01*
X39661326Y-54594858D01*
X39662500Y-54618750D01*
X39662500Y-55181250D01*
X39661326Y-55205142D01*
X39657816Y-55228803D01*
X39652004Y-55252007D01*
X39643946Y-55274529D01*
X39633718Y-55296153D01*
X39621421Y-55316670D01*
X39607171Y-55335883D01*
X39591107Y-55353607D01*
X39573383Y-55369671D01*
X39554170Y-55383921D01*
X39533653Y-55396218D01*
X39512029Y-55406446D01*
X39489507Y-55414504D01*
X39466303Y-55420316D01*
X39442642Y-55423826D01*
X39418750Y-55425000D01*
X38931250Y-55425000D01*
X38907358Y-55423826D01*
X38883697Y-55420316D01*
X38860493Y-55414504D01*
X38837971Y-55406446D01*
X38816347Y-55396218D01*
X38795830Y-55383921D01*
X38776617Y-55369671D01*
X38758893Y-55353607D01*
X38742829Y-55335883D01*
X38728579Y-55316670D01*
X38716282Y-55296153D01*
X38706054Y-55274529D01*
X38697996Y-55252007D01*
X38692184Y-55228803D01*
X38688674Y-55205142D01*
X38687500Y-55181250D01*
X38687500Y-54618750D01*
X38688674Y-54594858D01*
X38692184Y-54571197D01*
X38697996Y-54547993D01*
X38706054Y-54525471D01*
X38716282Y-54503847D01*
X38728579Y-54483330D01*
X38742829Y-54464117D01*
X38758893Y-54446393D01*
X38776617Y-54430329D01*
X38795830Y-54416079D01*
X38816347Y-54403782D01*
X38837971Y-54393554D01*
X38860493Y-54385496D01*
X38883697Y-54379684D01*
X38907358Y-54376174D01*
X38931250Y-54375000D01*
X39418750Y-54375000D01*
X39442642Y-54376174D01*
X39442642Y-54376174D01*
G37*
D14*
X39175000Y-54900000D03*
D13*
G36*
X41017642Y-54376174D02*
X41041303Y-54379684D01*
X41064507Y-54385496D01*
X41087029Y-54393554D01*
X41108653Y-54403782D01*
X41129170Y-54416079D01*
X41148383Y-54430329D01*
X41166107Y-54446393D01*
X41182171Y-54464117D01*
X41196421Y-54483330D01*
X41208718Y-54503847D01*
X41218946Y-54525471D01*
X41227004Y-54547993D01*
X41232816Y-54571197D01*
X41236326Y-54594858D01*
X41237500Y-54618750D01*
X41237500Y-55181250D01*
X41236326Y-55205142D01*
X41232816Y-55228803D01*
X41227004Y-55252007D01*
X41218946Y-55274529D01*
X41208718Y-55296153D01*
X41196421Y-55316670D01*
X41182171Y-55335883D01*
X41166107Y-55353607D01*
X41148383Y-55369671D01*
X41129170Y-55383921D01*
X41108653Y-55396218D01*
X41087029Y-55406446D01*
X41064507Y-55414504D01*
X41041303Y-55420316D01*
X41017642Y-55423826D01*
X40993750Y-55425000D01*
X40506250Y-55425000D01*
X40482358Y-55423826D01*
X40458697Y-55420316D01*
X40435493Y-55414504D01*
X40412971Y-55406446D01*
X40391347Y-55396218D01*
X40370830Y-55383921D01*
X40351617Y-55369671D01*
X40333893Y-55353607D01*
X40317829Y-55335883D01*
X40303579Y-55316670D01*
X40291282Y-55296153D01*
X40281054Y-55274529D01*
X40272996Y-55252007D01*
X40267184Y-55228803D01*
X40263674Y-55205142D01*
X40262500Y-55181250D01*
X40262500Y-54618750D01*
X40263674Y-54594858D01*
X40267184Y-54571197D01*
X40272996Y-54547993D01*
X40281054Y-54525471D01*
X40291282Y-54503847D01*
X40303579Y-54483330D01*
X40317829Y-54464117D01*
X40333893Y-54446393D01*
X40351617Y-54430329D01*
X40370830Y-54416079D01*
X40391347Y-54403782D01*
X40412971Y-54393554D01*
X40435493Y-54385496D01*
X40458697Y-54379684D01*
X40482358Y-54376174D01*
X40506250Y-54375000D01*
X40993750Y-54375000D01*
X41017642Y-54376174D01*
X41017642Y-54376174D01*
G37*
D14*
X40750000Y-54900000D03*
D13*
G36*
X40192642Y-51826174D02*
X40216303Y-51829684D01*
X40239507Y-51835496D01*
X40262029Y-51843554D01*
X40283653Y-51853782D01*
X40304170Y-51866079D01*
X40323383Y-51880329D01*
X40341107Y-51896393D01*
X40357171Y-51914117D01*
X40371421Y-51933330D01*
X40383718Y-51953847D01*
X40393946Y-51975471D01*
X40402004Y-51997993D01*
X40407816Y-52021197D01*
X40411326Y-52044858D01*
X40412500Y-52068750D01*
X40412500Y-52631250D01*
X40411326Y-52655142D01*
X40407816Y-52678803D01*
X40402004Y-52702007D01*
X40393946Y-52724529D01*
X40383718Y-52746153D01*
X40371421Y-52766670D01*
X40357171Y-52785883D01*
X40341107Y-52803607D01*
X40323383Y-52819671D01*
X40304170Y-52833921D01*
X40283653Y-52846218D01*
X40262029Y-52856446D01*
X40239507Y-52864504D01*
X40216303Y-52870316D01*
X40192642Y-52873826D01*
X40168750Y-52875000D01*
X39681250Y-52875000D01*
X39657358Y-52873826D01*
X39633697Y-52870316D01*
X39610493Y-52864504D01*
X39587971Y-52856446D01*
X39566347Y-52846218D01*
X39545830Y-52833921D01*
X39526617Y-52819671D01*
X39508893Y-52803607D01*
X39492829Y-52785883D01*
X39478579Y-52766670D01*
X39466282Y-52746153D01*
X39456054Y-52724529D01*
X39447996Y-52702007D01*
X39442184Y-52678803D01*
X39438674Y-52655142D01*
X39437500Y-52631250D01*
X39437500Y-52068750D01*
X39438674Y-52044858D01*
X39442184Y-52021197D01*
X39447996Y-51997993D01*
X39456054Y-51975471D01*
X39466282Y-51953847D01*
X39478579Y-51933330D01*
X39492829Y-51914117D01*
X39508893Y-51896393D01*
X39526617Y-51880329D01*
X39545830Y-51866079D01*
X39566347Y-51853782D01*
X39587971Y-51843554D01*
X39610493Y-51835496D01*
X39633697Y-51829684D01*
X39657358Y-51826174D01*
X39681250Y-51825000D01*
X40168750Y-51825000D01*
X40192642Y-51826174D01*
X40192642Y-51826174D01*
G37*
D14*
X39925000Y-52350000D03*
D13*
G36*
X41767642Y-51826174D02*
X41791303Y-51829684D01*
X41814507Y-51835496D01*
X41837029Y-51843554D01*
X41858653Y-51853782D01*
X41879170Y-51866079D01*
X41898383Y-51880329D01*
X41916107Y-51896393D01*
X41932171Y-51914117D01*
X41946421Y-51933330D01*
X41958718Y-51953847D01*
X41968946Y-51975471D01*
X41977004Y-51997993D01*
X41982816Y-52021197D01*
X41986326Y-52044858D01*
X41987500Y-52068750D01*
X41987500Y-52631250D01*
X41986326Y-52655142D01*
X41982816Y-52678803D01*
X41977004Y-52702007D01*
X41968946Y-52724529D01*
X41958718Y-52746153D01*
X41946421Y-52766670D01*
X41932171Y-52785883D01*
X41916107Y-52803607D01*
X41898383Y-52819671D01*
X41879170Y-52833921D01*
X41858653Y-52846218D01*
X41837029Y-52856446D01*
X41814507Y-52864504D01*
X41791303Y-52870316D01*
X41767642Y-52873826D01*
X41743750Y-52875000D01*
X41256250Y-52875000D01*
X41232358Y-52873826D01*
X41208697Y-52870316D01*
X41185493Y-52864504D01*
X41162971Y-52856446D01*
X41141347Y-52846218D01*
X41120830Y-52833921D01*
X41101617Y-52819671D01*
X41083893Y-52803607D01*
X41067829Y-52785883D01*
X41053579Y-52766670D01*
X41041282Y-52746153D01*
X41031054Y-52724529D01*
X41022996Y-52702007D01*
X41017184Y-52678803D01*
X41013674Y-52655142D01*
X41012500Y-52631250D01*
X41012500Y-52068750D01*
X41013674Y-52044858D01*
X41017184Y-52021197D01*
X41022996Y-51997993D01*
X41031054Y-51975471D01*
X41041282Y-51953847D01*
X41053579Y-51933330D01*
X41067829Y-51914117D01*
X41083893Y-51896393D01*
X41101617Y-51880329D01*
X41120830Y-51866079D01*
X41141347Y-51853782D01*
X41162971Y-51843554D01*
X41185493Y-51835496D01*
X41208697Y-51829684D01*
X41232358Y-51826174D01*
X41256250Y-51825000D01*
X41743750Y-51825000D01*
X41767642Y-51826174D01*
X41767642Y-51826174D01*
G37*
D14*
X41500000Y-52350000D03*
D13*
G36*
X22307592Y-39426294D02*
X22333681Y-39430164D01*
X22359264Y-39436572D01*
X22384096Y-39445457D01*
X22407938Y-39456734D01*
X22430560Y-39470293D01*
X22451743Y-39486003D01*
X22471285Y-39503715D01*
X22488997Y-39523257D01*
X22504707Y-39544440D01*
X22518266Y-39567062D01*
X22529543Y-39590904D01*
X22538428Y-39615736D01*
X22544836Y-39641319D01*
X22548706Y-39667408D01*
X22550000Y-39693750D01*
X22550000Y-40231250D01*
X22548706Y-40257592D01*
X22544836Y-40283681D01*
X22538428Y-40309264D01*
X22529543Y-40334096D01*
X22518266Y-40357938D01*
X22504707Y-40380560D01*
X22488997Y-40401743D01*
X22471285Y-40421285D01*
X22451743Y-40438997D01*
X22430560Y-40454707D01*
X22407938Y-40468266D01*
X22384096Y-40479543D01*
X22359264Y-40488428D01*
X22333681Y-40494836D01*
X22307592Y-40498706D01*
X22281250Y-40500000D01*
X21318750Y-40500000D01*
X21292408Y-40498706D01*
X21266319Y-40494836D01*
X21240736Y-40488428D01*
X21215904Y-40479543D01*
X21192062Y-40468266D01*
X21169440Y-40454707D01*
X21148257Y-40438997D01*
X21128715Y-40421285D01*
X21111003Y-40401743D01*
X21095293Y-40380560D01*
X21081734Y-40357938D01*
X21070457Y-40334096D01*
X21061572Y-40309264D01*
X21055164Y-40283681D01*
X21051294Y-40257592D01*
X21050000Y-40231250D01*
X21050000Y-39693750D01*
X21051294Y-39667408D01*
X21055164Y-39641319D01*
X21061572Y-39615736D01*
X21070457Y-39590904D01*
X21081734Y-39567062D01*
X21095293Y-39544440D01*
X21111003Y-39523257D01*
X21128715Y-39503715D01*
X21148257Y-39486003D01*
X21169440Y-39470293D01*
X21192062Y-39456734D01*
X21215904Y-39445457D01*
X21240736Y-39436572D01*
X21266319Y-39430164D01*
X21292408Y-39426294D01*
X21318750Y-39425000D01*
X22281250Y-39425000D01*
X22307592Y-39426294D01*
X22307592Y-39426294D01*
G37*
D16*
X21800000Y-39962500D03*
D13*
G36*
X22307592Y-41301294D02*
X22333681Y-41305164D01*
X22359264Y-41311572D01*
X22384096Y-41320457D01*
X22407938Y-41331734D01*
X22430560Y-41345293D01*
X22451743Y-41361003D01*
X22471285Y-41378715D01*
X22488997Y-41398257D01*
X22504707Y-41419440D01*
X22518266Y-41442062D01*
X22529543Y-41465904D01*
X22538428Y-41490736D01*
X22544836Y-41516319D01*
X22548706Y-41542408D01*
X22550000Y-41568750D01*
X22550000Y-42106250D01*
X22548706Y-42132592D01*
X22544836Y-42158681D01*
X22538428Y-42184264D01*
X22529543Y-42209096D01*
X22518266Y-42232938D01*
X22504707Y-42255560D01*
X22488997Y-42276743D01*
X22471285Y-42296285D01*
X22451743Y-42313997D01*
X22430560Y-42329707D01*
X22407938Y-42343266D01*
X22384096Y-42354543D01*
X22359264Y-42363428D01*
X22333681Y-42369836D01*
X22307592Y-42373706D01*
X22281250Y-42375000D01*
X21318750Y-42375000D01*
X21292408Y-42373706D01*
X21266319Y-42369836D01*
X21240736Y-42363428D01*
X21215904Y-42354543D01*
X21192062Y-42343266D01*
X21169440Y-42329707D01*
X21148257Y-42313997D01*
X21128715Y-42296285D01*
X21111003Y-42276743D01*
X21095293Y-42255560D01*
X21081734Y-42232938D01*
X21070457Y-42209096D01*
X21061572Y-42184264D01*
X21055164Y-42158681D01*
X21051294Y-42132592D01*
X21050000Y-42106250D01*
X21050000Y-41568750D01*
X21051294Y-41542408D01*
X21055164Y-41516319D01*
X21061572Y-41490736D01*
X21070457Y-41465904D01*
X21081734Y-41442062D01*
X21095293Y-41419440D01*
X21111003Y-41398257D01*
X21128715Y-41378715D01*
X21148257Y-41361003D01*
X21169440Y-41345293D01*
X21192062Y-41331734D01*
X21215904Y-41320457D01*
X21240736Y-41311572D01*
X21266319Y-41305164D01*
X21292408Y-41301294D01*
X21318750Y-41300000D01*
X22281250Y-41300000D01*
X22307592Y-41301294D01*
X22307592Y-41301294D01*
G37*
D16*
X21800000Y-41837500D03*
D13*
G36*
X47005142Y-38726174D02*
X47028803Y-38729684D01*
X47052007Y-38735496D01*
X47074529Y-38743554D01*
X47096153Y-38753782D01*
X47116670Y-38766079D01*
X47135883Y-38780329D01*
X47153607Y-38796393D01*
X47169671Y-38814117D01*
X47183921Y-38833330D01*
X47196218Y-38853847D01*
X47206446Y-38875471D01*
X47214504Y-38897993D01*
X47220316Y-38921197D01*
X47223826Y-38944858D01*
X47225000Y-38968750D01*
X47225000Y-39456250D01*
X47223826Y-39480142D01*
X47220316Y-39503803D01*
X47214504Y-39527007D01*
X47206446Y-39549529D01*
X47196218Y-39571153D01*
X47183921Y-39591670D01*
X47169671Y-39610883D01*
X47153607Y-39628607D01*
X47135883Y-39644671D01*
X47116670Y-39658921D01*
X47096153Y-39671218D01*
X47074529Y-39681446D01*
X47052007Y-39689504D01*
X47028803Y-39695316D01*
X47005142Y-39698826D01*
X46981250Y-39700000D01*
X46418750Y-39700000D01*
X46394858Y-39698826D01*
X46371197Y-39695316D01*
X46347993Y-39689504D01*
X46325471Y-39681446D01*
X46303847Y-39671218D01*
X46283330Y-39658921D01*
X46264117Y-39644671D01*
X46246393Y-39628607D01*
X46230329Y-39610883D01*
X46216079Y-39591670D01*
X46203782Y-39571153D01*
X46193554Y-39549529D01*
X46185496Y-39527007D01*
X46179684Y-39503803D01*
X46176174Y-39480142D01*
X46175000Y-39456250D01*
X46175000Y-38968750D01*
X46176174Y-38944858D01*
X46179684Y-38921197D01*
X46185496Y-38897993D01*
X46193554Y-38875471D01*
X46203782Y-38853847D01*
X46216079Y-38833330D01*
X46230329Y-38814117D01*
X46246393Y-38796393D01*
X46264117Y-38780329D01*
X46283330Y-38766079D01*
X46303847Y-38753782D01*
X46325471Y-38743554D01*
X46347993Y-38735496D01*
X46371197Y-38729684D01*
X46394858Y-38726174D01*
X46418750Y-38725000D01*
X46981250Y-38725000D01*
X47005142Y-38726174D01*
X47005142Y-38726174D01*
G37*
D14*
X46700000Y-39212500D03*
D13*
G36*
X47005142Y-40301174D02*
X47028803Y-40304684D01*
X47052007Y-40310496D01*
X47074529Y-40318554D01*
X47096153Y-40328782D01*
X47116670Y-40341079D01*
X47135883Y-40355329D01*
X47153607Y-40371393D01*
X47169671Y-40389117D01*
X47183921Y-40408330D01*
X47196218Y-40428847D01*
X47206446Y-40450471D01*
X47214504Y-40472993D01*
X47220316Y-40496197D01*
X47223826Y-40519858D01*
X47225000Y-40543750D01*
X47225000Y-41031250D01*
X47223826Y-41055142D01*
X47220316Y-41078803D01*
X47214504Y-41102007D01*
X47206446Y-41124529D01*
X47196218Y-41146153D01*
X47183921Y-41166670D01*
X47169671Y-41185883D01*
X47153607Y-41203607D01*
X47135883Y-41219671D01*
X47116670Y-41233921D01*
X47096153Y-41246218D01*
X47074529Y-41256446D01*
X47052007Y-41264504D01*
X47028803Y-41270316D01*
X47005142Y-41273826D01*
X46981250Y-41275000D01*
X46418750Y-41275000D01*
X46394858Y-41273826D01*
X46371197Y-41270316D01*
X46347993Y-41264504D01*
X46325471Y-41256446D01*
X46303847Y-41246218D01*
X46283330Y-41233921D01*
X46264117Y-41219671D01*
X46246393Y-41203607D01*
X46230329Y-41185883D01*
X46216079Y-41166670D01*
X46203782Y-41146153D01*
X46193554Y-41124529D01*
X46185496Y-41102007D01*
X46179684Y-41078803D01*
X46176174Y-41055142D01*
X46175000Y-41031250D01*
X46175000Y-40543750D01*
X46176174Y-40519858D01*
X46179684Y-40496197D01*
X46185496Y-40472993D01*
X46193554Y-40450471D01*
X46203782Y-40428847D01*
X46216079Y-40408330D01*
X46230329Y-40389117D01*
X46246393Y-40371393D01*
X46264117Y-40355329D01*
X46283330Y-40341079D01*
X46303847Y-40328782D01*
X46325471Y-40318554D01*
X46347993Y-40310496D01*
X46371197Y-40304684D01*
X46394858Y-40301174D01*
X46418750Y-40300000D01*
X46981250Y-40300000D01*
X47005142Y-40301174D01*
X47005142Y-40301174D01*
G37*
D14*
X46700000Y-40787500D03*
D13*
G36*
X45005142Y-38726174D02*
X45028803Y-38729684D01*
X45052007Y-38735496D01*
X45074529Y-38743554D01*
X45096153Y-38753782D01*
X45116670Y-38766079D01*
X45135883Y-38780329D01*
X45153607Y-38796393D01*
X45169671Y-38814117D01*
X45183921Y-38833330D01*
X45196218Y-38853847D01*
X45206446Y-38875471D01*
X45214504Y-38897993D01*
X45220316Y-38921197D01*
X45223826Y-38944858D01*
X45225000Y-38968750D01*
X45225000Y-39456250D01*
X45223826Y-39480142D01*
X45220316Y-39503803D01*
X45214504Y-39527007D01*
X45206446Y-39549529D01*
X45196218Y-39571153D01*
X45183921Y-39591670D01*
X45169671Y-39610883D01*
X45153607Y-39628607D01*
X45135883Y-39644671D01*
X45116670Y-39658921D01*
X45096153Y-39671218D01*
X45074529Y-39681446D01*
X45052007Y-39689504D01*
X45028803Y-39695316D01*
X45005142Y-39698826D01*
X44981250Y-39700000D01*
X44418750Y-39700000D01*
X44394858Y-39698826D01*
X44371197Y-39695316D01*
X44347993Y-39689504D01*
X44325471Y-39681446D01*
X44303847Y-39671218D01*
X44283330Y-39658921D01*
X44264117Y-39644671D01*
X44246393Y-39628607D01*
X44230329Y-39610883D01*
X44216079Y-39591670D01*
X44203782Y-39571153D01*
X44193554Y-39549529D01*
X44185496Y-39527007D01*
X44179684Y-39503803D01*
X44176174Y-39480142D01*
X44175000Y-39456250D01*
X44175000Y-38968750D01*
X44176174Y-38944858D01*
X44179684Y-38921197D01*
X44185496Y-38897993D01*
X44193554Y-38875471D01*
X44203782Y-38853847D01*
X44216079Y-38833330D01*
X44230329Y-38814117D01*
X44246393Y-38796393D01*
X44264117Y-38780329D01*
X44283330Y-38766079D01*
X44303847Y-38753782D01*
X44325471Y-38743554D01*
X44347993Y-38735496D01*
X44371197Y-38729684D01*
X44394858Y-38726174D01*
X44418750Y-38725000D01*
X44981250Y-38725000D01*
X45005142Y-38726174D01*
X45005142Y-38726174D01*
G37*
D14*
X44700000Y-39212500D03*
D13*
G36*
X45005142Y-40301174D02*
X45028803Y-40304684D01*
X45052007Y-40310496D01*
X45074529Y-40318554D01*
X45096153Y-40328782D01*
X45116670Y-40341079D01*
X45135883Y-40355329D01*
X45153607Y-40371393D01*
X45169671Y-40389117D01*
X45183921Y-40408330D01*
X45196218Y-40428847D01*
X45206446Y-40450471D01*
X45214504Y-40472993D01*
X45220316Y-40496197D01*
X45223826Y-40519858D01*
X45225000Y-40543750D01*
X45225000Y-41031250D01*
X45223826Y-41055142D01*
X45220316Y-41078803D01*
X45214504Y-41102007D01*
X45206446Y-41124529D01*
X45196218Y-41146153D01*
X45183921Y-41166670D01*
X45169671Y-41185883D01*
X45153607Y-41203607D01*
X45135883Y-41219671D01*
X45116670Y-41233921D01*
X45096153Y-41246218D01*
X45074529Y-41256446D01*
X45052007Y-41264504D01*
X45028803Y-41270316D01*
X45005142Y-41273826D01*
X44981250Y-41275000D01*
X44418750Y-41275000D01*
X44394858Y-41273826D01*
X44371197Y-41270316D01*
X44347993Y-41264504D01*
X44325471Y-41256446D01*
X44303847Y-41246218D01*
X44283330Y-41233921D01*
X44264117Y-41219671D01*
X44246393Y-41203607D01*
X44230329Y-41185883D01*
X44216079Y-41166670D01*
X44203782Y-41146153D01*
X44193554Y-41124529D01*
X44185496Y-41102007D01*
X44179684Y-41078803D01*
X44176174Y-41055142D01*
X44175000Y-41031250D01*
X44175000Y-40543750D01*
X44176174Y-40519858D01*
X44179684Y-40496197D01*
X44185496Y-40472993D01*
X44193554Y-40450471D01*
X44203782Y-40428847D01*
X44216079Y-40408330D01*
X44230329Y-40389117D01*
X44246393Y-40371393D01*
X44264117Y-40355329D01*
X44283330Y-40341079D01*
X44303847Y-40328782D01*
X44325471Y-40318554D01*
X44347993Y-40310496D01*
X44371197Y-40304684D01*
X44394858Y-40301174D01*
X44418750Y-40300000D01*
X44981250Y-40300000D01*
X45005142Y-40301174D01*
X45005142Y-40301174D01*
G37*
D14*
X44700000Y-40787500D03*
D17*
X25000000Y-37500000D03*
D18*
X45700000Y-44740000D03*
X45700000Y-47280000D03*
X45700000Y-49820000D03*
X45700000Y-52360000D03*
D19*
X45700000Y-54900000D03*
D20*
X17900000Y-65000000D03*
X10100000Y-65000000D03*
D21*
X23450000Y-57950000D03*
X21550000Y-57950000D03*
X21550000Y-55750000D03*
X22500000Y-55750000D03*
X23450000Y-55750000D03*
D22*
X5000000Y-62500000D03*
X45000000Y-62500000D03*
X45000000Y-12500000D03*
X5000000Y-12500000D03*
D13*
G36*
X47742642Y-20076174D02*
X47766303Y-20079684D01*
X47789507Y-20085496D01*
X47812029Y-20093554D01*
X47833653Y-20103782D01*
X47854170Y-20116079D01*
X47873383Y-20130329D01*
X47891107Y-20146393D01*
X47907171Y-20164117D01*
X47921421Y-20183330D01*
X47933718Y-20203847D01*
X47943946Y-20225471D01*
X47952004Y-20247993D01*
X47957816Y-20271197D01*
X47961326Y-20294858D01*
X47962500Y-20318750D01*
X47962500Y-20881250D01*
X47961326Y-20905142D01*
X47957816Y-20928803D01*
X47952004Y-20952007D01*
X47943946Y-20974529D01*
X47933718Y-20996153D01*
X47921421Y-21016670D01*
X47907171Y-21035883D01*
X47891107Y-21053607D01*
X47873383Y-21069671D01*
X47854170Y-21083921D01*
X47833653Y-21096218D01*
X47812029Y-21106446D01*
X47789507Y-21114504D01*
X47766303Y-21120316D01*
X47742642Y-21123826D01*
X47718750Y-21125000D01*
X47231250Y-21125000D01*
X47207358Y-21123826D01*
X47183697Y-21120316D01*
X47160493Y-21114504D01*
X47137971Y-21106446D01*
X47116347Y-21096218D01*
X47095830Y-21083921D01*
X47076617Y-21069671D01*
X47058893Y-21053607D01*
X47042829Y-21035883D01*
X47028579Y-21016670D01*
X47016282Y-20996153D01*
X47006054Y-20974529D01*
X46997996Y-20952007D01*
X46992184Y-20928803D01*
X46988674Y-20905142D01*
X46987500Y-20881250D01*
X46987500Y-20318750D01*
X46988674Y-20294858D01*
X46992184Y-20271197D01*
X46997996Y-20247993D01*
X47006054Y-20225471D01*
X47016282Y-20203847D01*
X47028579Y-20183330D01*
X47042829Y-20164117D01*
X47058893Y-20146393D01*
X47076617Y-20130329D01*
X47095830Y-20116079D01*
X47116347Y-20103782D01*
X47137971Y-20093554D01*
X47160493Y-20085496D01*
X47183697Y-20079684D01*
X47207358Y-20076174D01*
X47231250Y-20075000D01*
X47718750Y-20075000D01*
X47742642Y-20076174D01*
X47742642Y-20076174D01*
G37*
D14*
X47475000Y-20600000D03*
D13*
G36*
X46167642Y-20076174D02*
X46191303Y-20079684D01*
X46214507Y-20085496D01*
X46237029Y-20093554D01*
X46258653Y-20103782D01*
X46279170Y-20116079D01*
X46298383Y-20130329D01*
X46316107Y-20146393D01*
X46332171Y-20164117D01*
X46346421Y-20183330D01*
X46358718Y-20203847D01*
X46368946Y-20225471D01*
X46377004Y-20247993D01*
X46382816Y-20271197D01*
X46386326Y-20294858D01*
X46387500Y-20318750D01*
X46387500Y-20881250D01*
X46386326Y-20905142D01*
X46382816Y-20928803D01*
X46377004Y-20952007D01*
X46368946Y-20974529D01*
X46358718Y-20996153D01*
X46346421Y-21016670D01*
X46332171Y-21035883D01*
X46316107Y-21053607D01*
X46298383Y-21069671D01*
X46279170Y-21083921D01*
X46258653Y-21096218D01*
X46237029Y-21106446D01*
X46214507Y-21114504D01*
X46191303Y-21120316D01*
X46167642Y-21123826D01*
X46143750Y-21125000D01*
X45656250Y-21125000D01*
X45632358Y-21123826D01*
X45608697Y-21120316D01*
X45585493Y-21114504D01*
X45562971Y-21106446D01*
X45541347Y-21096218D01*
X45520830Y-21083921D01*
X45501617Y-21069671D01*
X45483893Y-21053607D01*
X45467829Y-21035883D01*
X45453579Y-21016670D01*
X45441282Y-20996153D01*
X45431054Y-20974529D01*
X45422996Y-20952007D01*
X45417184Y-20928803D01*
X45413674Y-20905142D01*
X45412500Y-20881250D01*
X45412500Y-20318750D01*
X45413674Y-20294858D01*
X45417184Y-20271197D01*
X45422996Y-20247993D01*
X45431054Y-20225471D01*
X45441282Y-20203847D01*
X45453579Y-20183330D01*
X45467829Y-20164117D01*
X45483893Y-20146393D01*
X45501617Y-20130329D01*
X45520830Y-20116079D01*
X45541347Y-20103782D01*
X45562971Y-20093554D01*
X45585493Y-20085496D01*
X45608697Y-20079684D01*
X45632358Y-20076174D01*
X45656250Y-20075000D01*
X46143750Y-20075000D01*
X46167642Y-20076174D01*
X46167642Y-20076174D01*
G37*
D14*
X45900000Y-20600000D03*
D13*
G36*
X32605142Y-37788674D02*
X32628803Y-37792184D01*
X32652007Y-37797996D01*
X32674529Y-37806054D01*
X32696153Y-37816282D01*
X32716670Y-37828579D01*
X32735883Y-37842829D01*
X32753607Y-37858893D01*
X32769671Y-37876617D01*
X32783921Y-37895830D01*
X32796218Y-37916347D01*
X32806446Y-37937971D01*
X32814504Y-37960493D01*
X32820316Y-37983697D01*
X32823826Y-38007358D01*
X32825000Y-38031250D01*
X32825000Y-38518750D01*
X32823826Y-38542642D01*
X32820316Y-38566303D01*
X32814504Y-38589507D01*
X32806446Y-38612029D01*
X32796218Y-38633653D01*
X32783921Y-38654170D01*
X32769671Y-38673383D01*
X32753607Y-38691107D01*
X32735883Y-38707171D01*
X32716670Y-38721421D01*
X32696153Y-38733718D01*
X32674529Y-38743946D01*
X32652007Y-38752004D01*
X32628803Y-38757816D01*
X32605142Y-38761326D01*
X32581250Y-38762500D01*
X32018750Y-38762500D01*
X31994858Y-38761326D01*
X31971197Y-38757816D01*
X31947993Y-38752004D01*
X31925471Y-38743946D01*
X31903847Y-38733718D01*
X31883330Y-38721421D01*
X31864117Y-38707171D01*
X31846393Y-38691107D01*
X31830329Y-38673383D01*
X31816079Y-38654170D01*
X31803782Y-38633653D01*
X31793554Y-38612029D01*
X31785496Y-38589507D01*
X31779684Y-38566303D01*
X31776174Y-38542642D01*
X31775000Y-38518750D01*
X31775000Y-38031250D01*
X31776174Y-38007358D01*
X31779684Y-37983697D01*
X31785496Y-37960493D01*
X31793554Y-37937971D01*
X31803782Y-37916347D01*
X31816079Y-37895830D01*
X31830329Y-37876617D01*
X31846393Y-37858893D01*
X31864117Y-37842829D01*
X31883330Y-37828579D01*
X31903847Y-37816282D01*
X31925471Y-37806054D01*
X31947993Y-37797996D01*
X31971197Y-37792184D01*
X31994858Y-37788674D01*
X32018750Y-37787500D01*
X32581250Y-37787500D01*
X32605142Y-37788674D01*
X32605142Y-37788674D01*
G37*
D14*
X32300000Y-38275000D03*
D13*
G36*
X32605142Y-36213674D02*
X32628803Y-36217184D01*
X32652007Y-36222996D01*
X32674529Y-36231054D01*
X32696153Y-36241282D01*
X32716670Y-36253579D01*
X32735883Y-36267829D01*
X32753607Y-36283893D01*
X32769671Y-36301617D01*
X32783921Y-36320830D01*
X32796218Y-36341347D01*
X32806446Y-36362971D01*
X32814504Y-36385493D01*
X32820316Y-36408697D01*
X32823826Y-36432358D01*
X32825000Y-36456250D01*
X32825000Y-36943750D01*
X32823826Y-36967642D01*
X32820316Y-36991303D01*
X32814504Y-37014507D01*
X32806446Y-37037029D01*
X32796218Y-37058653D01*
X32783921Y-37079170D01*
X32769671Y-37098383D01*
X32753607Y-37116107D01*
X32735883Y-37132171D01*
X32716670Y-37146421D01*
X32696153Y-37158718D01*
X32674529Y-37168946D01*
X32652007Y-37177004D01*
X32628803Y-37182816D01*
X32605142Y-37186326D01*
X32581250Y-37187500D01*
X32018750Y-37187500D01*
X31994858Y-37186326D01*
X31971197Y-37182816D01*
X31947993Y-37177004D01*
X31925471Y-37168946D01*
X31903847Y-37158718D01*
X31883330Y-37146421D01*
X31864117Y-37132171D01*
X31846393Y-37116107D01*
X31830329Y-37098383D01*
X31816079Y-37079170D01*
X31803782Y-37058653D01*
X31793554Y-37037029D01*
X31785496Y-37014507D01*
X31779684Y-36991303D01*
X31776174Y-36967642D01*
X31775000Y-36943750D01*
X31775000Y-36456250D01*
X31776174Y-36432358D01*
X31779684Y-36408697D01*
X31785496Y-36385493D01*
X31793554Y-36362971D01*
X31803782Y-36341347D01*
X31816079Y-36320830D01*
X31830329Y-36301617D01*
X31846393Y-36283893D01*
X31864117Y-36267829D01*
X31883330Y-36253579D01*
X31903847Y-36241282D01*
X31925471Y-36231054D01*
X31947993Y-36222996D01*
X31971197Y-36217184D01*
X31994858Y-36213674D01*
X32018750Y-36212500D01*
X32581250Y-36212500D01*
X32605142Y-36213674D01*
X32605142Y-36213674D01*
G37*
D14*
X32300000Y-36700000D03*
D13*
G36*
X32605142Y-32638674D02*
X32628803Y-32642184D01*
X32652007Y-32647996D01*
X32674529Y-32656054D01*
X32696153Y-32666282D01*
X32716670Y-32678579D01*
X32735883Y-32692829D01*
X32753607Y-32708893D01*
X32769671Y-32726617D01*
X32783921Y-32745830D01*
X32796218Y-32766347D01*
X32806446Y-32787971D01*
X32814504Y-32810493D01*
X32820316Y-32833697D01*
X32823826Y-32857358D01*
X32825000Y-32881250D01*
X32825000Y-33368750D01*
X32823826Y-33392642D01*
X32820316Y-33416303D01*
X32814504Y-33439507D01*
X32806446Y-33462029D01*
X32796218Y-33483653D01*
X32783921Y-33504170D01*
X32769671Y-33523383D01*
X32753607Y-33541107D01*
X32735883Y-33557171D01*
X32716670Y-33571421D01*
X32696153Y-33583718D01*
X32674529Y-33593946D01*
X32652007Y-33602004D01*
X32628803Y-33607816D01*
X32605142Y-33611326D01*
X32581250Y-33612500D01*
X32018750Y-33612500D01*
X31994858Y-33611326D01*
X31971197Y-33607816D01*
X31947993Y-33602004D01*
X31925471Y-33593946D01*
X31903847Y-33583718D01*
X31883330Y-33571421D01*
X31864117Y-33557171D01*
X31846393Y-33541107D01*
X31830329Y-33523383D01*
X31816079Y-33504170D01*
X31803782Y-33483653D01*
X31793554Y-33462029D01*
X31785496Y-33439507D01*
X31779684Y-33416303D01*
X31776174Y-33392642D01*
X31775000Y-33368750D01*
X31775000Y-32881250D01*
X31776174Y-32857358D01*
X31779684Y-32833697D01*
X31785496Y-32810493D01*
X31793554Y-32787971D01*
X31803782Y-32766347D01*
X31816079Y-32745830D01*
X31830329Y-32726617D01*
X31846393Y-32708893D01*
X31864117Y-32692829D01*
X31883330Y-32678579D01*
X31903847Y-32666282D01*
X31925471Y-32656054D01*
X31947993Y-32647996D01*
X31971197Y-32642184D01*
X31994858Y-32638674D01*
X32018750Y-32637500D01*
X32581250Y-32637500D01*
X32605142Y-32638674D01*
X32605142Y-32638674D01*
G37*
D14*
X32300000Y-33125000D03*
D13*
G36*
X32605142Y-34213674D02*
X32628803Y-34217184D01*
X32652007Y-34222996D01*
X32674529Y-34231054D01*
X32696153Y-34241282D01*
X32716670Y-34253579D01*
X32735883Y-34267829D01*
X32753607Y-34283893D01*
X32769671Y-34301617D01*
X32783921Y-34320830D01*
X32796218Y-34341347D01*
X32806446Y-34362971D01*
X32814504Y-34385493D01*
X32820316Y-34408697D01*
X32823826Y-34432358D01*
X32825000Y-34456250D01*
X32825000Y-34943750D01*
X32823826Y-34967642D01*
X32820316Y-34991303D01*
X32814504Y-35014507D01*
X32806446Y-35037029D01*
X32796218Y-35058653D01*
X32783921Y-35079170D01*
X32769671Y-35098383D01*
X32753607Y-35116107D01*
X32735883Y-35132171D01*
X32716670Y-35146421D01*
X32696153Y-35158718D01*
X32674529Y-35168946D01*
X32652007Y-35177004D01*
X32628803Y-35182816D01*
X32605142Y-35186326D01*
X32581250Y-35187500D01*
X32018750Y-35187500D01*
X31994858Y-35186326D01*
X31971197Y-35182816D01*
X31947993Y-35177004D01*
X31925471Y-35168946D01*
X31903847Y-35158718D01*
X31883330Y-35146421D01*
X31864117Y-35132171D01*
X31846393Y-35116107D01*
X31830329Y-35098383D01*
X31816079Y-35079170D01*
X31803782Y-35058653D01*
X31793554Y-35037029D01*
X31785496Y-35014507D01*
X31779684Y-34991303D01*
X31776174Y-34967642D01*
X31775000Y-34943750D01*
X31775000Y-34456250D01*
X31776174Y-34432358D01*
X31779684Y-34408697D01*
X31785496Y-34385493D01*
X31793554Y-34362971D01*
X31803782Y-34341347D01*
X31816079Y-34320830D01*
X31830329Y-34301617D01*
X31846393Y-34283893D01*
X31864117Y-34267829D01*
X31883330Y-34253579D01*
X31903847Y-34241282D01*
X31925471Y-34231054D01*
X31947993Y-34222996D01*
X31971197Y-34217184D01*
X31994858Y-34213674D01*
X32018750Y-34212500D01*
X32581250Y-34212500D01*
X32605142Y-34213674D01*
X32605142Y-34213674D01*
G37*
D14*
X32300000Y-34700000D03*
D13*
G36*
X25405142Y-50676174D02*
X25428803Y-50679684D01*
X25452007Y-50685496D01*
X25474529Y-50693554D01*
X25496153Y-50703782D01*
X25516670Y-50716079D01*
X25535883Y-50730329D01*
X25553607Y-50746393D01*
X25569671Y-50764117D01*
X25583921Y-50783330D01*
X25596218Y-50803847D01*
X25606446Y-50825471D01*
X25614504Y-50847993D01*
X25620316Y-50871197D01*
X25623826Y-50894858D01*
X25625000Y-50918750D01*
X25625000Y-51481250D01*
X25623826Y-51505142D01*
X25620316Y-51528803D01*
X25614504Y-51552007D01*
X25606446Y-51574529D01*
X25596218Y-51596153D01*
X25583921Y-51616670D01*
X25569671Y-51635883D01*
X25553607Y-51653607D01*
X25535883Y-51669671D01*
X25516670Y-51683921D01*
X25496153Y-51696218D01*
X25474529Y-51706446D01*
X25452007Y-51714504D01*
X25428803Y-51720316D01*
X25405142Y-51723826D01*
X25381250Y-51725000D01*
X24893750Y-51725000D01*
X24869858Y-51723826D01*
X24846197Y-51720316D01*
X24822993Y-51714504D01*
X24800471Y-51706446D01*
X24778847Y-51696218D01*
X24758330Y-51683921D01*
X24739117Y-51669671D01*
X24721393Y-51653607D01*
X24705329Y-51635883D01*
X24691079Y-51616670D01*
X24678782Y-51596153D01*
X24668554Y-51574529D01*
X24660496Y-51552007D01*
X24654684Y-51528803D01*
X24651174Y-51505142D01*
X24650000Y-51481250D01*
X24650000Y-50918750D01*
X24651174Y-50894858D01*
X24654684Y-50871197D01*
X24660496Y-50847993D01*
X24668554Y-50825471D01*
X24678782Y-50803847D01*
X24691079Y-50783330D01*
X24705329Y-50764117D01*
X24721393Y-50746393D01*
X24739117Y-50730329D01*
X24758330Y-50716079D01*
X24778847Y-50703782D01*
X24800471Y-50693554D01*
X24822993Y-50685496D01*
X24846197Y-50679684D01*
X24869858Y-50676174D01*
X24893750Y-50675000D01*
X25381250Y-50675000D01*
X25405142Y-50676174D01*
X25405142Y-50676174D01*
G37*
D14*
X25137500Y-51200000D03*
D13*
G36*
X23830142Y-50676174D02*
X23853803Y-50679684D01*
X23877007Y-50685496D01*
X23899529Y-50693554D01*
X23921153Y-50703782D01*
X23941670Y-50716079D01*
X23960883Y-50730329D01*
X23978607Y-50746393D01*
X23994671Y-50764117D01*
X24008921Y-50783330D01*
X24021218Y-50803847D01*
X24031446Y-50825471D01*
X24039504Y-50847993D01*
X24045316Y-50871197D01*
X24048826Y-50894858D01*
X24050000Y-50918750D01*
X24050000Y-51481250D01*
X24048826Y-51505142D01*
X24045316Y-51528803D01*
X24039504Y-51552007D01*
X24031446Y-51574529D01*
X24021218Y-51596153D01*
X24008921Y-51616670D01*
X23994671Y-51635883D01*
X23978607Y-51653607D01*
X23960883Y-51669671D01*
X23941670Y-51683921D01*
X23921153Y-51696218D01*
X23899529Y-51706446D01*
X23877007Y-51714504D01*
X23853803Y-51720316D01*
X23830142Y-51723826D01*
X23806250Y-51725000D01*
X23318750Y-51725000D01*
X23294858Y-51723826D01*
X23271197Y-51720316D01*
X23247993Y-51714504D01*
X23225471Y-51706446D01*
X23203847Y-51696218D01*
X23183330Y-51683921D01*
X23164117Y-51669671D01*
X23146393Y-51653607D01*
X23130329Y-51635883D01*
X23116079Y-51616670D01*
X23103782Y-51596153D01*
X23093554Y-51574529D01*
X23085496Y-51552007D01*
X23079684Y-51528803D01*
X23076174Y-51505142D01*
X23075000Y-51481250D01*
X23075000Y-50918750D01*
X23076174Y-50894858D01*
X23079684Y-50871197D01*
X23085496Y-50847993D01*
X23093554Y-50825471D01*
X23103782Y-50803847D01*
X23116079Y-50783330D01*
X23130329Y-50764117D01*
X23146393Y-50746393D01*
X23164117Y-50730329D01*
X23183330Y-50716079D01*
X23203847Y-50703782D01*
X23225471Y-50693554D01*
X23247993Y-50685496D01*
X23271197Y-50679684D01*
X23294858Y-50676174D01*
X23318750Y-50675000D01*
X23806250Y-50675000D01*
X23830142Y-50676174D01*
X23830142Y-50676174D01*
G37*
D14*
X23562500Y-51200000D03*
D13*
G36*
X34780142Y-50076174D02*
X34803803Y-50079684D01*
X34827007Y-50085496D01*
X34849529Y-50093554D01*
X34871153Y-50103782D01*
X34891670Y-50116079D01*
X34910883Y-50130329D01*
X34928607Y-50146393D01*
X34944671Y-50164117D01*
X34958921Y-50183330D01*
X34971218Y-50203847D01*
X34981446Y-50225471D01*
X34989504Y-50247993D01*
X34995316Y-50271197D01*
X34998826Y-50294858D01*
X35000000Y-50318750D01*
X35000000Y-50881250D01*
X34998826Y-50905142D01*
X34995316Y-50928803D01*
X34989504Y-50952007D01*
X34981446Y-50974529D01*
X34971218Y-50996153D01*
X34958921Y-51016670D01*
X34944671Y-51035883D01*
X34928607Y-51053607D01*
X34910883Y-51069671D01*
X34891670Y-51083921D01*
X34871153Y-51096218D01*
X34849529Y-51106446D01*
X34827007Y-51114504D01*
X34803803Y-51120316D01*
X34780142Y-51123826D01*
X34756250Y-51125000D01*
X34268750Y-51125000D01*
X34244858Y-51123826D01*
X34221197Y-51120316D01*
X34197993Y-51114504D01*
X34175471Y-51106446D01*
X34153847Y-51096218D01*
X34133330Y-51083921D01*
X34114117Y-51069671D01*
X34096393Y-51053607D01*
X34080329Y-51035883D01*
X34066079Y-51016670D01*
X34053782Y-50996153D01*
X34043554Y-50974529D01*
X34035496Y-50952007D01*
X34029684Y-50928803D01*
X34026174Y-50905142D01*
X34025000Y-50881250D01*
X34025000Y-50318750D01*
X34026174Y-50294858D01*
X34029684Y-50271197D01*
X34035496Y-50247993D01*
X34043554Y-50225471D01*
X34053782Y-50203847D01*
X34066079Y-50183330D01*
X34080329Y-50164117D01*
X34096393Y-50146393D01*
X34114117Y-50130329D01*
X34133330Y-50116079D01*
X34153847Y-50103782D01*
X34175471Y-50093554D01*
X34197993Y-50085496D01*
X34221197Y-50079684D01*
X34244858Y-50076174D01*
X34268750Y-50075000D01*
X34756250Y-50075000D01*
X34780142Y-50076174D01*
X34780142Y-50076174D01*
G37*
D14*
X34512500Y-50600000D03*
D13*
G36*
X36355142Y-50076174D02*
X36378803Y-50079684D01*
X36402007Y-50085496D01*
X36424529Y-50093554D01*
X36446153Y-50103782D01*
X36466670Y-50116079D01*
X36485883Y-50130329D01*
X36503607Y-50146393D01*
X36519671Y-50164117D01*
X36533921Y-50183330D01*
X36546218Y-50203847D01*
X36556446Y-50225471D01*
X36564504Y-50247993D01*
X36570316Y-50271197D01*
X36573826Y-50294858D01*
X36575000Y-50318750D01*
X36575000Y-50881250D01*
X36573826Y-50905142D01*
X36570316Y-50928803D01*
X36564504Y-50952007D01*
X36556446Y-50974529D01*
X36546218Y-50996153D01*
X36533921Y-51016670D01*
X36519671Y-51035883D01*
X36503607Y-51053607D01*
X36485883Y-51069671D01*
X36466670Y-51083921D01*
X36446153Y-51096218D01*
X36424529Y-51106446D01*
X36402007Y-51114504D01*
X36378803Y-51120316D01*
X36355142Y-51123826D01*
X36331250Y-51125000D01*
X35843750Y-51125000D01*
X35819858Y-51123826D01*
X35796197Y-51120316D01*
X35772993Y-51114504D01*
X35750471Y-51106446D01*
X35728847Y-51096218D01*
X35708330Y-51083921D01*
X35689117Y-51069671D01*
X35671393Y-51053607D01*
X35655329Y-51035883D01*
X35641079Y-51016670D01*
X35628782Y-50996153D01*
X35618554Y-50974529D01*
X35610496Y-50952007D01*
X35604684Y-50928803D01*
X35601174Y-50905142D01*
X35600000Y-50881250D01*
X35600000Y-50318750D01*
X35601174Y-50294858D01*
X35604684Y-50271197D01*
X35610496Y-50247993D01*
X35618554Y-50225471D01*
X35628782Y-50203847D01*
X35641079Y-50183330D01*
X35655329Y-50164117D01*
X35671393Y-50146393D01*
X35689117Y-50130329D01*
X35708330Y-50116079D01*
X35728847Y-50103782D01*
X35750471Y-50093554D01*
X35772993Y-50085496D01*
X35796197Y-50079684D01*
X35819858Y-50076174D01*
X35843750Y-50075000D01*
X36331250Y-50075000D01*
X36355142Y-50076174D01*
X36355142Y-50076174D01*
G37*
D14*
X36087500Y-50600000D03*
D13*
G36*
X31307592Y-66701294D02*
X31333681Y-66705164D01*
X31359264Y-66711572D01*
X31384096Y-66720457D01*
X31407938Y-66731734D01*
X31430560Y-66745293D01*
X31451743Y-66761003D01*
X31471285Y-66778715D01*
X31488997Y-66798257D01*
X31504707Y-66819440D01*
X31518266Y-66842062D01*
X31529543Y-66865904D01*
X31538428Y-66890736D01*
X31544836Y-66916319D01*
X31548706Y-66942408D01*
X31550000Y-66968750D01*
X31550000Y-67506250D01*
X31548706Y-67532592D01*
X31544836Y-67558681D01*
X31538428Y-67584264D01*
X31529543Y-67609096D01*
X31518266Y-67632938D01*
X31504707Y-67655560D01*
X31488997Y-67676743D01*
X31471285Y-67696285D01*
X31451743Y-67713997D01*
X31430560Y-67729707D01*
X31407938Y-67743266D01*
X31384096Y-67754543D01*
X31359264Y-67763428D01*
X31333681Y-67769836D01*
X31307592Y-67773706D01*
X31281250Y-67775000D01*
X30318750Y-67775000D01*
X30292408Y-67773706D01*
X30266319Y-67769836D01*
X30240736Y-67763428D01*
X30215904Y-67754543D01*
X30192062Y-67743266D01*
X30169440Y-67729707D01*
X30148257Y-67713997D01*
X30128715Y-67696285D01*
X30111003Y-67676743D01*
X30095293Y-67655560D01*
X30081734Y-67632938D01*
X30070457Y-67609096D01*
X30061572Y-67584264D01*
X30055164Y-67558681D01*
X30051294Y-67532592D01*
X30050000Y-67506250D01*
X30050000Y-66968750D01*
X30051294Y-66942408D01*
X30055164Y-66916319D01*
X30061572Y-66890736D01*
X30070457Y-66865904D01*
X30081734Y-66842062D01*
X30095293Y-66819440D01*
X30111003Y-66798257D01*
X30128715Y-66778715D01*
X30148257Y-66761003D01*
X30169440Y-66745293D01*
X30192062Y-66731734D01*
X30215904Y-66720457D01*
X30240736Y-66711572D01*
X30266319Y-66705164D01*
X30292408Y-66701294D01*
X30318750Y-66700000D01*
X31281250Y-66700000D01*
X31307592Y-66701294D01*
X31307592Y-66701294D01*
G37*
D16*
X30800000Y-67237500D03*
D13*
G36*
X31307592Y-64826294D02*
X31333681Y-64830164D01*
X31359264Y-64836572D01*
X31384096Y-64845457D01*
X31407938Y-64856734D01*
X31430560Y-64870293D01*
X31451743Y-64886003D01*
X31471285Y-64903715D01*
X31488997Y-64923257D01*
X31504707Y-64944440D01*
X31518266Y-64967062D01*
X31529543Y-64990904D01*
X31538428Y-65015736D01*
X31544836Y-65041319D01*
X31548706Y-65067408D01*
X31550000Y-65093750D01*
X31550000Y-65631250D01*
X31548706Y-65657592D01*
X31544836Y-65683681D01*
X31538428Y-65709264D01*
X31529543Y-65734096D01*
X31518266Y-65757938D01*
X31504707Y-65780560D01*
X31488997Y-65801743D01*
X31471285Y-65821285D01*
X31451743Y-65838997D01*
X31430560Y-65854707D01*
X31407938Y-65868266D01*
X31384096Y-65879543D01*
X31359264Y-65888428D01*
X31333681Y-65894836D01*
X31307592Y-65898706D01*
X31281250Y-65900000D01*
X30318750Y-65900000D01*
X30292408Y-65898706D01*
X30266319Y-65894836D01*
X30240736Y-65888428D01*
X30215904Y-65879543D01*
X30192062Y-65868266D01*
X30169440Y-65854707D01*
X30148257Y-65838997D01*
X30128715Y-65821285D01*
X30111003Y-65801743D01*
X30095293Y-65780560D01*
X30081734Y-65757938D01*
X30070457Y-65734096D01*
X30061572Y-65709264D01*
X30055164Y-65683681D01*
X30051294Y-65657592D01*
X30050000Y-65631250D01*
X30050000Y-65093750D01*
X30051294Y-65067408D01*
X30055164Y-65041319D01*
X30061572Y-65015736D01*
X30070457Y-64990904D01*
X30081734Y-64967062D01*
X30095293Y-64944440D01*
X30111003Y-64923257D01*
X30128715Y-64903715D01*
X30148257Y-64886003D01*
X30169440Y-64870293D01*
X30192062Y-64856734D01*
X30215904Y-64845457D01*
X30240736Y-64836572D01*
X30266319Y-64830164D01*
X30292408Y-64826294D01*
X30318750Y-64825000D01*
X31281250Y-64825000D01*
X31307592Y-64826294D01*
X31307592Y-64826294D01*
G37*
D16*
X30800000Y-65362500D03*
D13*
G36*
X34167642Y-41176174D02*
X34191303Y-41179684D01*
X34214507Y-41185496D01*
X34237029Y-41193554D01*
X34258653Y-41203782D01*
X34279170Y-41216079D01*
X34298383Y-41230329D01*
X34316107Y-41246393D01*
X34332171Y-41264117D01*
X34346421Y-41283330D01*
X34358718Y-41303847D01*
X34368946Y-41325471D01*
X34377004Y-41347993D01*
X34382816Y-41371197D01*
X34386326Y-41394858D01*
X34387500Y-41418750D01*
X34387500Y-41981250D01*
X34386326Y-42005142D01*
X34382816Y-42028803D01*
X34377004Y-42052007D01*
X34368946Y-42074529D01*
X34358718Y-42096153D01*
X34346421Y-42116670D01*
X34332171Y-42135883D01*
X34316107Y-42153607D01*
X34298383Y-42169671D01*
X34279170Y-42183921D01*
X34258653Y-42196218D01*
X34237029Y-42206446D01*
X34214507Y-42214504D01*
X34191303Y-42220316D01*
X34167642Y-42223826D01*
X34143750Y-42225000D01*
X33656250Y-42225000D01*
X33632358Y-42223826D01*
X33608697Y-42220316D01*
X33585493Y-42214504D01*
X33562971Y-42206446D01*
X33541347Y-42196218D01*
X33520830Y-42183921D01*
X33501617Y-42169671D01*
X33483893Y-42153607D01*
X33467829Y-42135883D01*
X33453579Y-42116670D01*
X33441282Y-42096153D01*
X33431054Y-42074529D01*
X33422996Y-42052007D01*
X33417184Y-42028803D01*
X33413674Y-42005142D01*
X33412500Y-41981250D01*
X33412500Y-41418750D01*
X33413674Y-41394858D01*
X33417184Y-41371197D01*
X33422996Y-41347993D01*
X33431054Y-41325471D01*
X33441282Y-41303847D01*
X33453579Y-41283330D01*
X33467829Y-41264117D01*
X33483893Y-41246393D01*
X33501617Y-41230329D01*
X33520830Y-41216079D01*
X33541347Y-41203782D01*
X33562971Y-41193554D01*
X33585493Y-41185496D01*
X33608697Y-41179684D01*
X33632358Y-41176174D01*
X33656250Y-41175000D01*
X34143750Y-41175000D01*
X34167642Y-41176174D01*
X34167642Y-41176174D01*
G37*
D14*
X33900000Y-41700000D03*
D13*
G36*
X35742642Y-41176174D02*
X35766303Y-41179684D01*
X35789507Y-41185496D01*
X35812029Y-41193554D01*
X35833653Y-41203782D01*
X35854170Y-41216079D01*
X35873383Y-41230329D01*
X35891107Y-41246393D01*
X35907171Y-41264117D01*
X35921421Y-41283330D01*
X35933718Y-41303847D01*
X35943946Y-41325471D01*
X35952004Y-41347993D01*
X35957816Y-41371197D01*
X35961326Y-41394858D01*
X35962500Y-41418750D01*
X35962500Y-41981250D01*
X35961326Y-42005142D01*
X35957816Y-42028803D01*
X35952004Y-42052007D01*
X35943946Y-42074529D01*
X35933718Y-42096153D01*
X35921421Y-42116670D01*
X35907171Y-42135883D01*
X35891107Y-42153607D01*
X35873383Y-42169671D01*
X35854170Y-42183921D01*
X35833653Y-42196218D01*
X35812029Y-42206446D01*
X35789507Y-42214504D01*
X35766303Y-42220316D01*
X35742642Y-42223826D01*
X35718750Y-42225000D01*
X35231250Y-42225000D01*
X35207358Y-42223826D01*
X35183697Y-42220316D01*
X35160493Y-42214504D01*
X35137971Y-42206446D01*
X35116347Y-42196218D01*
X35095830Y-42183921D01*
X35076617Y-42169671D01*
X35058893Y-42153607D01*
X35042829Y-42135883D01*
X35028579Y-42116670D01*
X35016282Y-42096153D01*
X35006054Y-42074529D01*
X34997996Y-42052007D01*
X34992184Y-42028803D01*
X34988674Y-42005142D01*
X34987500Y-41981250D01*
X34987500Y-41418750D01*
X34988674Y-41394858D01*
X34992184Y-41371197D01*
X34997996Y-41347993D01*
X35006054Y-41325471D01*
X35016282Y-41303847D01*
X35028579Y-41283330D01*
X35042829Y-41264117D01*
X35058893Y-41246393D01*
X35076617Y-41230329D01*
X35095830Y-41216079D01*
X35116347Y-41203782D01*
X35137971Y-41193554D01*
X35160493Y-41185496D01*
X35183697Y-41179684D01*
X35207358Y-41176174D01*
X35231250Y-41175000D01*
X35718750Y-41175000D01*
X35742642Y-41176174D01*
X35742642Y-41176174D01*
G37*
D14*
X35475000Y-41700000D03*
D13*
G36*
X9007592Y-18126294D02*
X9033681Y-18130164D01*
X9059264Y-18136572D01*
X9084096Y-18145457D01*
X9107938Y-18156734D01*
X9130560Y-18170293D01*
X9151743Y-18186003D01*
X9171285Y-18203715D01*
X9188997Y-18223257D01*
X9204707Y-18244440D01*
X9218266Y-18267062D01*
X9229543Y-18290904D01*
X9238428Y-18315736D01*
X9244836Y-18341319D01*
X9248706Y-18367408D01*
X9250000Y-18393750D01*
X9250000Y-18931250D01*
X9248706Y-18957592D01*
X9244836Y-18983681D01*
X9238428Y-19009264D01*
X9229543Y-19034096D01*
X9218266Y-19057938D01*
X9204707Y-19080560D01*
X9188997Y-19101743D01*
X9171285Y-19121285D01*
X9151743Y-19138997D01*
X9130560Y-19154707D01*
X9107938Y-19168266D01*
X9084096Y-19179543D01*
X9059264Y-19188428D01*
X9033681Y-19194836D01*
X9007592Y-19198706D01*
X8981250Y-19200000D01*
X8018750Y-19200000D01*
X7992408Y-19198706D01*
X7966319Y-19194836D01*
X7940736Y-19188428D01*
X7915904Y-19179543D01*
X7892062Y-19168266D01*
X7869440Y-19154707D01*
X7848257Y-19138997D01*
X7828715Y-19121285D01*
X7811003Y-19101743D01*
X7795293Y-19080560D01*
X7781734Y-19057938D01*
X7770457Y-19034096D01*
X7761572Y-19009264D01*
X7755164Y-18983681D01*
X7751294Y-18957592D01*
X7750000Y-18931250D01*
X7750000Y-18393750D01*
X7751294Y-18367408D01*
X7755164Y-18341319D01*
X7761572Y-18315736D01*
X7770457Y-18290904D01*
X7781734Y-18267062D01*
X7795293Y-18244440D01*
X7811003Y-18223257D01*
X7828715Y-18203715D01*
X7848257Y-18186003D01*
X7869440Y-18170293D01*
X7892062Y-18156734D01*
X7915904Y-18145457D01*
X7940736Y-18136572D01*
X7966319Y-18130164D01*
X7992408Y-18126294D01*
X8018750Y-18125000D01*
X8981250Y-18125000D01*
X9007592Y-18126294D01*
X9007592Y-18126294D01*
G37*
D16*
X8500000Y-18662500D03*
D13*
G36*
X9007592Y-20001294D02*
X9033681Y-20005164D01*
X9059264Y-20011572D01*
X9084096Y-20020457D01*
X9107938Y-20031734D01*
X9130560Y-20045293D01*
X9151743Y-20061003D01*
X9171285Y-20078715D01*
X9188997Y-20098257D01*
X9204707Y-20119440D01*
X9218266Y-20142062D01*
X9229543Y-20165904D01*
X9238428Y-20190736D01*
X9244836Y-20216319D01*
X9248706Y-20242408D01*
X9250000Y-20268750D01*
X9250000Y-20806250D01*
X9248706Y-20832592D01*
X9244836Y-20858681D01*
X9238428Y-20884264D01*
X9229543Y-20909096D01*
X9218266Y-20932938D01*
X9204707Y-20955560D01*
X9188997Y-20976743D01*
X9171285Y-20996285D01*
X9151743Y-21013997D01*
X9130560Y-21029707D01*
X9107938Y-21043266D01*
X9084096Y-21054543D01*
X9059264Y-21063428D01*
X9033681Y-21069836D01*
X9007592Y-21073706D01*
X8981250Y-21075000D01*
X8018750Y-21075000D01*
X7992408Y-21073706D01*
X7966319Y-21069836D01*
X7940736Y-21063428D01*
X7915904Y-21054543D01*
X7892062Y-21043266D01*
X7869440Y-21029707D01*
X7848257Y-21013997D01*
X7828715Y-20996285D01*
X7811003Y-20976743D01*
X7795293Y-20955560D01*
X7781734Y-20932938D01*
X7770457Y-20909096D01*
X7761572Y-20884264D01*
X7755164Y-20858681D01*
X7751294Y-20832592D01*
X7750000Y-20806250D01*
X7750000Y-20268750D01*
X7751294Y-20242408D01*
X7755164Y-20216319D01*
X7761572Y-20190736D01*
X7770457Y-20165904D01*
X7781734Y-20142062D01*
X7795293Y-20119440D01*
X7811003Y-20098257D01*
X7828715Y-20078715D01*
X7848257Y-20061003D01*
X7869440Y-20045293D01*
X7892062Y-20031734D01*
X7915904Y-20020457D01*
X7940736Y-20011572D01*
X7966319Y-20005164D01*
X7992408Y-20001294D01*
X8018750Y-20000000D01*
X8981250Y-20000000D01*
X9007592Y-20001294D01*
X9007592Y-20001294D01*
G37*
D16*
X8500000Y-20537500D03*
D13*
G36*
X10782592Y-55451294D02*
X10808681Y-55455164D01*
X10834264Y-55461572D01*
X10859096Y-55470457D01*
X10882938Y-55481734D01*
X10905560Y-55495293D01*
X10926743Y-55511003D01*
X10946285Y-55528715D01*
X10963997Y-55548257D01*
X10979707Y-55569440D01*
X10993266Y-55592062D01*
X11004543Y-55615904D01*
X11013428Y-55640736D01*
X11019836Y-55666319D01*
X11023706Y-55692408D01*
X11025000Y-55718750D01*
X11025000Y-56681250D01*
X11023706Y-56707592D01*
X11019836Y-56733681D01*
X11013428Y-56759264D01*
X11004543Y-56784096D01*
X10993266Y-56807938D01*
X10979707Y-56830560D01*
X10963997Y-56851743D01*
X10946285Y-56871285D01*
X10926743Y-56888997D01*
X10905560Y-56904707D01*
X10882938Y-56918266D01*
X10859096Y-56929543D01*
X10834264Y-56938428D01*
X10808681Y-56944836D01*
X10782592Y-56948706D01*
X10756250Y-56950000D01*
X10218750Y-56950000D01*
X10192408Y-56948706D01*
X10166319Y-56944836D01*
X10140736Y-56938428D01*
X10115904Y-56929543D01*
X10092062Y-56918266D01*
X10069440Y-56904707D01*
X10048257Y-56888997D01*
X10028715Y-56871285D01*
X10011003Y-56851743D01*
X9995293Y-56830560D01*
X9981734Y-56807938D01*
X9970457Y-56784096D01*
X9961572Y-56759264D01*
X9955164Y-56733681D01*
X9951294Y-56707592D01*
X9950000Y-56681250D01*
X9950000Y-55718750D01*
X9951294Y-55692408D01*
X9955164Y-55666319D01*
X9961572Y-55640736D01*
X9970457Y-55615904D01*
X9981734Y-55592062D01*
X9995293Y-55569440D01*
X10011003Y-55548257D01*
X10028715Y-55528715D01*
X10048257Y-55511003D01*
X10069440Y-55495293D01*
X10092062Y-55481734D01*
X10115904Y-55470457D01*
X10140736Y-55461572D01*
X10166319Y-55455164D01*
X10192408Y-55451294D01*
X10218750Y-55450000D01*
X10756250Y-55450000D01*
X10782592Y-55451294D01*
X10782592Y-55451294D01*
G37*
D16*
X10487500Y-56200000D03*
D13*
G36*
X8907592Y-55451294D02*
X8933681Y-55455164D01*
X8959264Y-55461572D01*
X8984096Y-55470457D01*
X9007938Y-55481734D01*
X9030560Y-55495293D01*
X9051743Y-55511003D01*
X9071285Y-55528715D01*
X9088997Y-55548257D01*
X9104707Y-55569440D01*
X9118266Y-55592062D01*
X9129543Y-55615904D01*
X9138428Y-55640736D01*
X9144836Y-55666319D01*
X9148706Y-55692408D01*
X9150000Y-55718750D01*
X9150000Y-56681250D01*
X9148706Y-56707592D01*
X9144836Y-56733681D01*
X9138428Y-56759264D01*
X9129543Y-56784096D01*
X9118266Y-56807938D01*
X9104707Y-56830560D01*
X9088997Y-56851743D01*
X9071285Y-56871285D01*
X9051743Y-56888997D01*
X9030560Y-56904707D01*
X9007938Y-56918266D01*
X8984096Y-56929543D01*
X8959264Y-56938428D01*
X8933681Y-56944836D01*
X8907592Y-56948706D01*
X8881250Y-56950000D01*
X8343750Y-56950000D01*
X8317408Y-56948706D01*
X8291319Y-56944836D01*
X8265736Y-56938428D01*
X8240904Y-56929543D01*
X8217062Y-56918266D01*
X8194440Y-56904707D01*
X8173257Y-56888997D01*
X8153715Y-56871285D01*
X8136003Y-56851743D01*
X8120293Y-56830560D01*
X8106734Y-56807938D01*
X8095457Y-56784096D01*
X8086572Y-56759264D01*
X8080164Y-56733681D01*
X8076294Y-56707592D01*
X8075000Y-56681250D01*
X8075000Y-55718750D01*
X8076294Y-55692408D01*
X8080164Y-55666319D01*
X8086572Y-55640736D01*
X8095457Y-55615904D01*
X8106734Y-55592062D01*
X8120293Y-55569440D01*
X8136003Y-55548257D01*
X8153715Y-55528715D01*
X8173257Y-55511003D01*
X8194440Y-55495293D01*
X8217062Y-55481734D01*
X8240904Y-55470457D01*
X8265736Y-55461572D01*
X8291319Y-55455164D01*
X8317408Y-55451294D01*
X8343750Y-55450000D01*
X8881250Y-55450000D01*
X8907592Y-55451294D01*
X8907592Y-55451294D01*
G37*
D16*
X8612500Y-56200000D03*
D13*
G36*
X10780142Y-45776174D02*
X10803803Y-45779684D01*
X10827007Y-45785496D01*
X10849529Y-45793554D01*
X10871153Y-45803782D01*
X10891670Y-45816079D01*
X10910883Y-45830329D01*
X10928607Y-45846393D01*
X10944671Y-45864117D01*
X10958921Y-45883330D01*
X10971218Y-45903847D01*
X10981446Y-45925471D01*
X10989504Y-45947993D01*
X10995316Y-45971197D01*
X10998826Y-45994858D01*
X11000000Y-46018750D01*
X11000000Y-46581250D01*
X10998826Y-46605142D01*
X10995316Y-46628803D01*
X10989504Y-46652007D01*
X10981446Y-46674529D01*
X10971218Y-46696153D01*
X10958921Y-46716670D01*
X10944671Y-46735883D01*
X10928607Y-46753607D01*
X10910883Y-46769671D01*
X10891670Y-46783921D01*
X10871153Y-46796218D01*
X10849529Y-46806446D01*
X10827007Y-46814504D01*
X10803803Y-46820316D01*
X10780142Y-46823826D01*
X10756250Y-46825000D01*
X10268750Y-46825000D01*
X10244858Y-46823826D01*
X10221197Y-46820316D01*
X10197993Y-46814504D01*
X10175471Y-46806446D01*
X10153847Y-46796218D01*
X10133330Y-46783921D01*
X10114117Y-46769671D01*
X10096393Y-46753607D01*
X10080329Y-46735883D01*
X10066079Y-46716670D01*
X10053782Y-46696153D01*
X10043554Y-46674529D01*
X10035496Y-46652007D01*
X10029684Y-46628803D01*
X10026174Y-46605142D01*
X10025000Y-46581250D01*
X10025000Y-46018750D01*
X10026174Y-45994858D01*
X10029684Y-45971197D01*
X10035496Y-45947993D01*
X10043554Y-45925471D01*
X10053782Y-45903847D01*
X10066079Y-45883330D01*
X10080329Y-45864117D01*
X10096393Y-45846393D01*
X10114117Y-45830329D01*
X10133330Y-45816079D01*
X10153847Y-45803782D01*
X10175471Y-45793554D01*
X10197993Y-45785496D01*
X10221197Y-45779684D01*
X10244858Y-45776174D01*
X10268750Y-45775000D01*
X10756250Y-45775000D01*
X10780142Y-45776174D01*
X10780142Y-45776174D01*
G37*
D14*
X10512500Y-46300000D03*
D13*
G36*
X12355142Y-45776174D02*
X12378803Y-45779684D01*
X12402007Y-45785496D01*
X12424529Y-45793554D01*
X12446153Y-45803782D01*
X12466670Y-45816079D01*
X12485883Y-45830329D01*
X12503607Y-45846393D01*
X12519671Y-45864117D01*
X12533921Y-45883330D01*
X12546218Y-45903847D01*
X12556446Y-45925471D01*
X12564504Y-45947993D01*
X12570316Y-45971197D01*
X12573826Y-45994858D01*
X12575000Y-46018750D01*
X12575000Y-46581250D01*
X12573826Y-46605142D01*
X12570316Y-46628803D01*
X12564504Y-46652007D01*
X12556446Y-46674529D01*
X12546218Y-46696153D01*
X12533921Y-46716670D01*
X12519671Y-46735883D01*
X12503607Y-46753607D01*
X12485883Y-46769671D01*
X12466670Y-46783921D01*
X12446153Y-46796218D01*
X12424529Y-46806446D01*
X12402007Y-46814504D01*
X12378803Y-46820316D01*
X12355142Y-46823826D01*
X12331250Y-46825000D01*
X11843750Y-46825000D01*
X11819858Y-46823826D01*
X11796197Y-46820316D01*
X11772993Y-46814504D01*
X11750471Y-46806446D01*
X11728847Y-46796218D01*
X11708330Y-46783921D01*
X11689117Y-46769671D01*
X11671393Y-46753607D01*
X11655329Y-46735883D01*
X11641079Y-46716670D01*
X11628782Y-46696153D01*
X11618554Y-46674529D01*
X11610496Y-46652007D01*
X11604684Y-46628803D01*
X11601174Y-46605142D01*
X11600000Y-46581250D01*
X11600000Y-46018750D01*
X11601174Y-45994858D01*
X11604684Y-45971197D01*
X11610496Y-45947993D01*
X11618554Y-45925471D01*
X11628782Y-45903847D01*
X11641079Y-45883330D01*
X11655329Y-45864117D01*
X11671393Y-45846393D01*
X11689117Y-45830329D01*
X11708330Y-45816079D01*
X11728847Y-45803782D01*
X11750471Y-45793554D01*
X11772993Y-45785496D01*
X11796197Y-45779684D01*
X11819858Y-45776174D01*
X11843750Y-45775000D01*
X12331250Y-45775000D01*
X12355142Y-45776174D01*
X12355142Y-45776174D01*
G37*
D14*
X12087500Y-46300000D03*
D13*
G36*
X29555142Y-32676174D02*
X29578803Y-32679684D01*
X29602007Y-32685496D01*
X29624529Y-32693554D01*
X29646153Y-32703782D01*
X29666670Y-32716079D01*
X29685883Y-32730329D01*
X29703607Y-32746393D01*
X29719671Y-32764117D01*
X29733921Y-32783330D01*
X29746218Y-32803847D01*
X29756446Y-32825471D01*
X29764504Y-32847993D01*
X29770316Y-32871197D01*
X29773826Y-32894858D01*
X29775000Y-32918750D01*
X29775000Y-33406250D01*
X29773826Y-33430142D01*
X29770316Y-33453803D01*
X29764504Y-33477007D01*
X29756446Y-33499529D01*
X29746218Y-33521153D01*
X29733921Y-33541670D01*
X29719671Y-33560883D01*
X29703607Y-33578607D01*
X29685883Y-33594671D01*
X29666670Y-33608921D01*
X29646153Y-33621218D01*
X29624529Y-33631446D01*
X29602007Y-33639504D01*
X29578803Y-33645316D01*
X29555142Y-33648826D01*
X29531250Y-33650000D01*
X28968750Y-33650000D01*
X28944858Y-33648826D01*
X28921197Y-33645316D01*
X28897993Y-33639504D01*
X28875471Y-33631446D01*
X28853847Y-33621218D01*
X28833330Y-33608921D01*
X28814117Y-33594671D01*
X28796393Y-33578607D01*
X28780329Y-33560883D01*
X28766079Y-33541670D01*
X28753782Y-33521153D01*
X28743554Y-33499529D01*
X28735496Y-33477007D01*
X28729684Y-33453803D01*
X28726174Y-33430142D01*
X28725000Y-33406250D01*
X28725000Y-32918750D01*
X28726174Y-32894858D01*
X28729684Y-32871197D01*
X28735496Y-32847993D01*
X28743554Y-32825471D01*
X28753782Y-32803847D01*
X28766079Y-32783330D01*
X28780329Y-32764117D01*
X28796393Y-32746393D01*
X28814117Y-32730329D01*
X28833330Y-32716079D01*
X28853847Y-32703782D01*
X28875471Y-32693554D01*
X28897993Y-32685496D01*
X28921197Y-32679684D01*
X28944858Y-32676174D01*
X28968750Y-32675000D01*
X29531250Y-32675000D01*
X29555142Y-32676174D01*
X29555142Y-32676174D01*
G37*
D14*
X29250000Y-33162500D03*
D13*
G36*
X29555142Y-34251174D02*
X29578803Y-34254684D01*
X29602007Y-34260496D01*
X29624529Y-34268554D01*
X29646153Y-34278782D01*
X29666670Y-34291079D01*
X29685883Y-34305329D01*
X29703607Y-34321393D01*
X29719671Y-34339117D01*
X29733921Y-34358330D01*
X29746218Y-34378847D01*
X29756446Y-34400471D01*
X29764504Y-34422993D01*
X29770316Y-34446197D01*
X29773826Y-34469858D01*
X29775000Y-34493750D01*
X29775000Y-34981250D01*
X29773826Y-35005142D01*
X29770316Y-35028803D01*
X29764504Y-35052007D01*
X29756446Y-35074529D01*
X29746218Y-35096153D01*
X29733921Y-35116670D01*
X29719671Y-35135883D01*
X29703607Y-35153607D01*
X29685883Y-35169671D01*
X29666670Y-35183921D01*
X29646153Y-35196218D01*
X29624529Y-35206446D01*
X29602007Y-35214504D01*
X29578803Y-35220316D01*
X29555142Y-35223826D01*
X29531250Y-35225000D01*
X28968750Y-35225000D01*
X28944858Y-35223826D01*
X28921197Y-35220316D01*
X28897993Y-35214504D01*
X28875471Y-35206446D01*
X28853847Y-35196218D01*
X28833330Y-35183921D01*
X28814117Y-35169671D01*
X28796393Y-35153607D01*
X28780329Y-35135883D01*
X28766079Y-35116670D01*
X28753782Y-35096153D01*
X28743554Y-35074529D01*
X28735496Y-35052007D01*
X28729684Y-35028803D01*
X28726174Y-35005142D01*
X28725000Y-34981250D01*
X28725000Y-34493750D01*
X28726174Y-34469858D01*
X28729684Y-34446197D01*
X28735496Y-34422993D01*
X28743554Y-34400471D01*
X28753782Y-34378847D01*
X28766079Y-34358330D01*
X28780329Y-34339117D01*
X28796393Y-34321393D01*
X28814117Y-34305329D01*
X28833330Y-34291079D01*
X28853847Y-34278782D01*
X28875471Y-34268554D01*
X28897993Y-34260496D01*
X28921197Y-34254684D01*
X28944858Y-34251174D01*
X28968750Y-34250000D01*
X29531250Y-34250000D01*
X29555142Y-34251174D01*
X29555142Y-34251174D01*
G37*
D14*
X29250000Y-34737500D03*
D13*
G36*
X11880142Y-18276174D02*
X11903803Y-18279684D01*
X11927007Y-18285496D01*
X11949529Y-18293554D01*
X11971153Y-18303782D01*
X11991670Y-18316079D01*
X12010883Y-18330329D01*
X12028607Y-18346393D01*
X12044671Y-18364117D01*
X12058921Y-18383330D01*
X12071218Y-18403847D01*
X12081446Y-18425471D01*
X12089504Y-18447993D01*
X12095316Y-18471197D01*
X12098826Y-18494858D01*
X12100000Y-18518750D01*
X12100000Y-19081250D01*
X12098826Y-19105142D01*
X12095316Y-19128803D01*
X12089504Y-19152007D01*
X12081446Y-19174529D01*
X12071218Y-19196153D01*
X12058921Y-19216670D01*
X12044671Y-19235883D01*
X12028607Y-19253607D01*
X12010883Y-19269671D01*
X11991670Y-19283921D01*
X11971153Y-19296218D01*
X11949529Y-19306446D01*
X11927007Y-19314504D01*
X11903803Y-19320316D01*
X11880142Y-19323826D01*
X11856250Y-19325000D01*
X11368750Y-19325000D01*
X11344858Y-19323826D01*
X11321197Y-19320316D01*
X11297993Y-19314504D01*
X11275471Y-19306446D01*
X11253847Y-19296218D01*
X11233330Y-19283921D01*
X11214117Y-19269671D01*
X11196393Y-19253607D01*
X11180329Y-19235883D01*
X11166079Y-19216670D01*
X11153782Y-19196153D01*
X11143554Y-19174529D01*
X11135496Y-19152007D01*
X11129684Y-19128803D01*
X11126174Y-19105142D01*
X11125000Y-19081250D01*
X11125000Y-18518750D01*
X11126174Y-18494858D01*
X11129684Y-18471197D01*
X11135496Y-18447993D01*
X11143554Y-18425471D01*
X11153782Y-18403847D01*
X11166079Y-18383330D01*
X11180329Y-18364117D01*
X11196393Y-18346393D01*
X11214117Y-18330329D01*
X11233330Y-18316079D01*
X11253847Y-18303782D01*
X11275471Y-18293554D01*
X11297993Y-18285496D01*
X11321197Y-18279684D01*
X11344858Y-18276174D01*
X11368750Y-18275000D01*
X11856250Y-18275000D01*
X11880142Y-18276174D01*
X11880142Y-18276174D01*
G37*
D14*
X11612500Y-18800000D03*
D13*
G36*
X13455142Y-18276174D02*
X13478803Y-18279684D01*
X13502007Y-18285496D01*
X13524529Y-18293554D01*
X13546153Y-18303782D01*
X13566670Y-18316079D01*
X13585883Y-18330329D01*
X13603607Y-18346393D01*
X13619671Y-18364117D01*
X13633921Y-18383330D01*
X13646218Y-18403847D01*
X13656446Y-18425471D01*
X13664504Y-18447993D01*
X13670316Y-18471197D01*
X13673826Y-18494858D01*
X13675000Y-18518750D01*
X13675000Y-19081250D01*
X13673826Y-19105142D01*
X13670316Y-19128803D01*
X13664504Y-19152007D01*
X13656446Y-19174529D01*
X13646218Y-19196153D01*
X13633921Y-19216670D01*
X13619671Y-19235883D01*
X13603607Y-19253607D01*
X13585883Y-19269671D01*
X13566670Y-19283921D01*
X13546153Y-19296218D01*
X13524529Y-19306446D01*
X13502007Y-19314504D01*
X13478803Y-19320316D01*
X13455142Y-19323826D01*
X13431250Y-19325000D01*
X12943750Y-19325000D01*
X12919858Y-19323826D01*
X12896197Y-19320316D01*
X12872993Y-19314504D01*
X12850471Y-19306446D01*
X12828847Y-19296218D01*
X12808330Y-19283921D01*
X12789117Y-19269671D01*
X12771393Y-19253607D01*
X12755329Y-19235883D01*
X12741079Y-19216670D01*
X12728782Y-19196153D01*
X12718554Y-19174529D01*
X12710496Y-19152007D01*
X12704684Y-19128803D01*
X12701174Y-19105142D01*
X12700000Y-19081250D01*
X12700000Y-18518750D01*
X12701174Y-18494858D01*
X12704684Y-18471197D01*
X12710496Y-18447993D01*
X12718554Y-18425471D01*
X12728782Y-18403847D01*
X12741079Y-18383330D01*
X12755329Y-18364117D01*
X12771393Y-18346393D01*
X12789117Y-18330329D01*
X12808330Y-18316079D01*
X12828847Y-18303782D01*
X12850471Y-18293554D01*
X12872993Y-18285496D01*
X12896197Y-18279684D01*
X12919858Y-18276174D01*
X12943750Y-18275000D01*
X13431250Y-18275000D01*
X13455142Y-18276174D01*
X13455142Y-18276174D01*
G37*
D14*
X13187500Y-18800000D03*
D13*
G36*
X8805142Y-26126174D02*
X8828803Y-26129684D01*
X8852007Y-26135496D01*
X8874529Y-26143554D01*
X8896153Y-26153782D01*
X8916670Y-26166079D01*
X8935883Y-26180329D01*
X8953607Y-26196393D01*
X8969671Y-26214117D01*
X8983921Y-26233330D01*
X8996218Y-26253847D01*
X9006446Y-26275471D01*
X9014504Y-26297993D01*
X9020316Y-26321197D01*
X9023826Y-26344858D01*
X9025000Y-26368750D01*
X9025000Y-26856250D01*
X9023826Y-26880142D01*
X9020316Y-26903803D01*
X9014504Y-26927007D01*
X9006446Y-26949529D01*
X8996218Y-26971153D01*
X8983921Y-26991670D01*
X8969671Y-27010883D01*
X8953607Y-27028607D01*
X8935883Y-27044671D01*
X8916670Y-27058921D01*
X8896153Y-27071218D01*
X8874529Y-27081446D01*
X8852007Y-27089504D01*
X8828803Y-27095316D01*
X8805142Y-27098826D01*
X8781250Y-27100000D01*
X8218750Y-27100000D01*
X8194858Y-27098826D01*
X8171197Y-27095316D01*
X8147993Y-27089504D01*
X8125471Y-27081446D01*
X8103847Y-27071218D01*
X8083330Y-27058921D01*
X8064117Y-27044671D01*
X8046393Y-27028607D01*
X8030329Y-27010883D01*
X8016079Y-26991670D01*
X8003782Y-26971153D01*
X7993554Y-26949529D01*
X7985496Y-26927007D01*
X7979684Y-26903803D01*
X7976174Y-26880142D01*
X7975000Y-26856250D01*
X7975000Y-26368750D01*
X7976174Y-26344858D01*
X7979684Y-26321197D01*
X7985496Y-26297993D01*
X7993554Y-26275471D01*
X8003782Y-26253847D01*
X8016079Y-26233330D01*
X8030329Y-26214117D01*
X8046393Y-26196393D01*
X8064117Y-26180329D01*
X8083330Y-26166079D01*
X8103847Y-26153782D01*
X8125471Y-26143554D01*
X8147993Y-26135496D01*
X8171197Y-26129684D01*
X8194858Y-26126174D01*
X8218750Y-26125000D01*
X8781250Y-26125000D01*
X8805142Y-26126174D01*
X8805142Y-26126174D01*
G37*
D14*
X8500000Y-26612500D03*
D13*
G36*
X8805142Y-27701174D02*
X8828803Y-27704684D01*
X8852007Y-27710496D01*
X8874529Y-27718554D01*
X8896153Y-27728782D01*
X8916670Y-27741079D01*
X8935883Y-27755329D01*
X8953607Y-27771393D01*
X8969671Y-27789117D01*
X8983921Y-27808330D01*
X8996218Y-27828847D01*
X9006446Y-27850471D01*
X9014504Y-27872993D01*
X9020316Y-27896197D01*
X9023826Y-27919858D01*
X9025000Y-27943750D01*
X9025000Y-28431250D01*
X9023826Y-28455142D01*
X9020316Y-28478803D01*
X9014504Y-28502007D01*
X9006446Y-28524529D01*
X8996218Y-28546153D01*
X8983921Y-28566670D01*
X8969671Y-28585883D01*
X8953607Y-28603607D01*
X8935883Y-28619671D01*
X8916670Y-28633921D01*
X8896153Y-28646218D01*
X8874529Y-28656446D01*
X8852007Y-28664504D01*
X8828803Y-28670316D01*
X8805142Y-28673826D01*
X8781250Y-28675000D01*
X8218750Y-28675000D01*
X8194858Y-28673826D01*
X8171197Y-28670316D01*
X8147993Y-28664504D01*
X8125471Y-28656446D01*
X8103847Y-28646218D01*
X8083330Y-28633921D01*
X8064117Y-28619671D01*
X8046393Y-28603607D01*
X8030329Y-28585883D01*
X8016079Y-28566670D01*
X8003782Y-28546153D01*
X7993554Y-28524529D01*
X7985496Y-28502007D01*
X7979684Y-28478803D01*
X7976174Y-28455142D01*
X7975000Y-28431250D01*
X7975000Y-27943750D01*
X7976174Y-27919858D01*
X7979684Y-27896197D01*
X7985496Y-27872993D01*
X7993554Y-27850471D01*
X8003782Y-27828847D01*
X8016079Y-27808330D01*
X8030329Y-27789117D01*
X8046393Y-27771393D01*
X8064117Y-27755329D01*
X8083330Y-27741079D01*
X8103847Y-27728782D01*
X8125471Y-27718554D01*
X8147993Y-27710496D01*
X8171197Y-27704684D01*
X8194858Y-27701174D01*
X8218750Y-27700000D01*
X8781250Y-27700000D01*
X8805142Y-27701174D01*
X8805142Y-27701174D01*
G37*
D14*
X8500000Y-28187500D03*
D23*
X35000000Y-74000000D03*
X38000000Y-74000000D03*
D24*
X34500000Y-70700000D03*
X38500000Y-70700000D03*
D25*
X32900000Y-72800000D03*
X32900000Y-69300000D03*
X40100000Y-72800000D03*
X40100000Y-69300000D03*
D26*
X37800000Y-69800000D03*
X37150000Y-69800000D03*
X36500000Y-69800000D03*
X35850000Y-69800000D03*
X35200000Y-69800000D03*
D15*
X7500000Y-31500000D03*
X9500000Y-30550000D03*
X9500000Y-32450000D03*
D13*
G36*
X47180142Y-27576174D02*
X47203803Y-27579684D01*
X47227007Y-27585496D01*
X47249529Y-27593554D01*
X47271153Y-27603782D01*
X47291670Y-27616079D01*
X47310883Y-27630329D01*
X47328607Y-27646393D01*
X47344671Y-27664117D01*
X47358921Y-27683330D01*
X47371218Y-27703847D01*
X47381446Y-27725471D01*
X47389504Y-27747993D01*
X47395316Y-27771197D01*
X47398826Y-27794858D01*
X47400000Y-27818750D01*
X47400000Y-28381250D01*
X47398826Y-28405142D01*
X47395316Y-28428803D01*
X47389504Y-28452007D01*
X47381446Y-28474529D01*
X47371218Y-28496153D01*
X47358921Y-28516670D01*
X47344671Y-28535883D01*
X47328607Y-28553607D01*
X47310883Y-28569671D01*
X47291670Y-28583921D01*
X47271153Y-28596218D01*
X47249529Y-28606446D01*
X47227007Y-28614504D01*
X47203803Y-28620316D01*
X47180142Y-28623826D01*
X47156250Y-28625000D01*
X46668750Y-28625000D01*
X46644858Y-28623826D01*
X46621197Y-28620316D01*
X46597993Y-28614504D01*
X46575471Y-28606446D01*
X46553847Y-28596218D01*
X46533330Y-28583921D01*
X46514117Y-28569671D01*
X46496393Y-28553607D01*
X46480329Y-28535883D01*
X46466079Y-28516670D01*
X46453782Y-28496153D01*
X46443554Y-28474529D01*
X46435496Y-28452007D01*
X46429684Y-28428803D01*
X46426174Y-28405142D01*
X46425000Y-28381250D01*
X46425000Y-27818750D01*
X46426174Y-27794858D01*
X46429684Y-27771197D01*
X46435496Y-27747993D01*
X46443554Y-27725471D01*
X46453782Y-27703847D01*
X46466079Y-27683330D01*
X46480329Y-27664117D01*
X46496393Y-27646393D01*
X46514117Y-27630329D01*
X46533330Y-27616079D01*
X46553847Y-27603782D01*
X46575471Y-27593554D01*
X46597993Y-27585496D01*
X46621197Y-27579684D01*
X46644858Y-27576174D01*
X46668750Y-27575000D01*
X47156250Y-27575000D01*
X47180142Y-27576174D01*
X47180142Y-27576174D01*
G37*
D14*
X46912500Y-28100000D03*
D13*
G36*
X48755142Y-27576174D02*
X48778803Y-27579684D01*
X48802007Y-27585496D01*
X48824529Y-27593554D01*
X48846153Y-27603782D01*
X48866670Y-27616079D01*
X48885883Y-27630329D01*
X48903607Y-27646393D01*
X48919671Y-27664117D01*
X48933921Y-27683330D01*
X48946218Y-27703847D01*
X48956446Y-27725471D01*
X48964504Y-27747993D01*
X48970316Y-27771197D01*
X48973826Y-27794858D01*
X48975000Y-27818750D01*
X48975000Y-28381250D01*
X48973826Y-28405142D01*
X48970316Y-28428803D01*
X48964504Y-28452007D01*
X48956446Y-28474529D01*
X48946218Y-28496153D01*
X48933921Y-28516670D01*
X48919671Y-28535883D01*
X48903607Y-28553607D01*
X48885883Y-28569671D01*
X48866670Y-28583921D01*
X48846153Y-28596218D01*
X48824529Y-28606446D01*
X48802007Y-28614504D01*
X48778803Y-28620316D01*
X48755142Y-28623826D01*
X48731250Y-28625000D01*
X48243750Y-28625000D01*
X48219858Y-28623826D01*
X48196197Y-28620316D01*
X48172993Y-28614504D01*
X48150471Y-28606446D01*
X48128847Y-28596218D01*
X48108330Y-28583921D01*
X48089117Y-28569671D01*
X48071393Y-28553607D01*
X48055329Y-28535883D01*
X48041079Y-28516670D01*
X48028782Y-28496153D01*
X48018554Y-28474529D01*
X48010496Y-28452007D01*
X48004684Y-28428803D01*
X48001174Y-28405142D01*
X48000000Y-28381250D01*
X48000000Y-27818750D01*
X48001174Y-27794858D01*
X48004684Y-27771197D01*
X48010496Y-27747993D01*
X48018554Y-27725471D01*
X48028782Y-27703847D01*
X48041079Y-27683330D01*
X48055329Y-27664117D01*
X48071393Y-27646393D01*
X48089117Y-27630329D01*
X48108330Y-27616079D01*
X48128847Y-27603782D01*
X48150471Y-27593554D01*
X48172993Y-27585496D01*
X48196197Y-27579684D01*
X48219858Y-27576174D01*
X48243750Y-27575000D01*
X48731250Y-27575000D01*
X48755142Y-27576174D01*
X48755142Y-27576174D01*
G37*
D14*
X48487500Y-28100000D03*
D13*
G36*
X46180142Y-29476174D02*
X46203803Y-29479684D01*
X46227007Y-29485496D01*
X46249529Y-29493554D01*
X46271153Y-29503782D01*
X46291670Y-29516079D01*
X46310883Y-29530329D01*
X46328607Y-29546393D01*
X46344671Y-29564117D01*
X46358921Y-29583330D01*
X46371218Y-29603847D01*
X46381446Y-29625471D01*
X46389504Y-29647993D01*
X46395316Y-29671197D01*
X46398826Y-29694858D01*
X46400000Y-29718750D01*
X46400000Y-30281250D01*
X46398826Y-30305142D01*
X46395316Y-30328803D01*
X46389504Y-30352007D01*
X46381446Y-30374529D01*
X46371218Y-30396153D01*
X46358921Y-30416670D01*
X46344671Y-30435883D01*
X46328607Y-30453607D01*
X46310883Y-30469671D01*
X46291670Y-30483921D01*
X46271153Y-30496218D01*
X46249529Y-30506446D01*
X46227007Y-30514504D01*
X46203803Y-30520316D01*
X46180142Y-30523826D01*
X46156250Y-30525000D01*
X45668750Y-30525000D01*
X45644858Y-30523826D01*
X45621197Y-30520316D01*
X45597993Y-30514504D01*
X45575471Y-30506446D01*
X45553847Y-30496218D01*
X45533330Y-30483921D01*
X45514117Y-30469671D01*
X45496393Y-30453607D01*
X45480329Y-30435883D01*
X45466079Y-30416670D01*
X45453782Y-30396153D01*
X45443554Y-30374529D01*
X45435496Y-30352007D01*
X45429684Y-30328803D01*
X45426174Y-30305142D01*
X45425000Y-30281250D01*
X45425000Y-29718750D01*
X45426174Y-29694858D01*
X45429684Y-29671197D01*
X45435496Y-29647993D01*
X45443554Y-29625471D01*
X45453782Y-29603847D01*
X45466079Y-29583330D01*
X45480329Y-29564117D01*
X45496393Y-29546393D01*
X45514117Y-29530329D01*
X45533330Y-29516079D01*
X45553847Y-29503782D01*
X45575471Y-29493554D01*
X45597993Y-29485496D01*
X45621197Y-29479684D01*
X45644858Y-29476174D01*
X45668750Y-29475000D01*
X46156250Y-29475000D01*
X46180142Y-29476174D01*
X46180142Y-29476174D01*
G37*
D14*
X45912500Y-30000000D03*
D13*
G36*
X47755142Y-29476174D02*
X47778803Y-29479684D01*
X47802007Y-29485496D01*
X47824529Y-29493554D01*
X47846153Y-29503782D01*
X47866670Y-29516079D01*
X47885883Y-29530329D01*
X47903607Y-29546393D01*
X47919671Y-29564117D01*
X47933921Y-29583330D01*
X47946218Y-29603847D01*
X47956446Y-29625471D01*
X47964504Y-29647993D01*
X47970316Y-29671197D01*
X47973826Y-29694858D01*
X47975000Y-29718750D01*
X47975000Y-30281250D01*
X47973826Y-30305142D01*
X47970316Y-30328803D01*
X47964504Y-30352007D01*
X47956446Y-30374529D01*
X47946218Y-30396153D01*
X47933921Y-30416670D01*
X47919671Y-30435883D01*
X47903607Y-30453607D01*
X47885883Y-30469671D01*
X47866670Y-30483921D01*
X47846153Y-30496218D01*
X47824529Y-30506446D01*
X47802007Y-30514504D01*
X47778803Y-30520316D01*
X47755142Y-30523826D01*
X47731250Y-30525000D01*
X47243750Y-30525000D01*
X47219858Y-30523826D01*
X47196197Y-30520316D01*
X47172993Y-30514504D01*
X47150471Y-30506446D01*
X47128847Y-30496218D01*
X47108330Y-30483921D01*
X47089117Y-30469671D01*
X47071393Y-30453607D01*
X47055329Y-30435883D01*
X47041079Y-30416670D01*
X47028782Y-30396153D01*
X47018554Y-30374529D01*
X47010496Y-30352007D01*
X47004684Y-30328803D01*
X47001174Y-30305142D01*
X47000000Y-30281250D01*
X47000000Y-29718750D01*
X47001174Y-29694858D01*
X47004684Y-29671197D01*
X47010496Y-29647993D01*
X47018554Y-29625471D01*
X47028782Y-29603847D01*
X47041079Y-29583330D01*
X47055329Y-29564117D01*
X47071393Y-29546393D01*
X47089117Y-29530329D01*
X47108330Y-29516079D01*
X47128847Y-29503782D01*
X47150471Y-29493554D01*
X47172993Y-29485496D01*
X47196197Y-29479684D01*
X47219858Y-29476174D01*
X47243750Y-29475000D01*
X47731250Y-29475000D01*
X47755142Y-29476174D01*
X47755142Y-29476174D01*
G37*
D14*
X47487500Y-30000000D03*
D13*
G36*
X31855142Y-61226174D02*
X31878803Y-61229684D01*
X31902007Y-61235496D01*
X31924529Y-61243554D01*
X31946153Y-61253782D01*
X31966670Y-61266079D01*
X31985883Y-61280329D01*
X32003607Y-61296393D01*
X32019671Y-61314117D01*
X32033921Y-61333330D01*
X32046218Y-61353847D01*
X32056446Y-61375471D01*
X32064504Y-61397993D01*
X32070316Y-61421197D01*
X32073826Y-61444858D01*
X32075000Y-61468750D01*
X32075000Y-61956250D01*
X32073826Y-61980142D01*
X32070316Y-62003803D01*
X32064504Y-62027007D01*
X32056446Y-62049529D01*
X32046218Y-62071153D01*
X32033921Y-62091670D01*
X32019671Y-62110883D01*
X32003607Y-62128607D01*
X31985883Y-62144671D01*
X31966670Y-62158921D01*
X31946153Y-62171218D01*
X31924529Y-62181446D01*
X31902007Y-62189504D01*
X31878803Y-62195316D01*
X31855142Y-62198826D01*
X31831250Y-62200000D01*
X31268750Y-62200000D01*
X31244858Y-62198826D01*
X31221197Y-62195316D01*
X31197993Y-62189504D01*
X31175471Y-62181446D01*
X31153847Y-62171218D01*
X31133330Y-62158921D01*
X31114117Y-62144671D01*
X31096393Y-62128607D01*
X31080329Y-62110883D01*
X31066079Y-62091670D01*
X31053782Y-62071153D01*
X31043554Y-62049529D01*
X31035496Y-62027007D01*
X31029684Y-62003803D01*
X31026174Y-61980142D01*
X31025000Y-61956250D01*
X31025000Y-61468750D01*
X31026174Y-61444858D01*
X31029684Y-61421197D01*
X31035496Y-61397993D01*
X31043554Y-61375471D01*
X31053782Y-61353847D01*
X31066079Y-61333330D01*
X31080329Y-61314117D01*
X31096393Y-61296393D01*
X31114117Y-61280329D01*
X31133330Y-61266079D01*
X31153847Y-61253782D01*
X31175471Y-61243554D01*
X31197993Y-61235496D01*
X31221197Y-61229684D01*
X31244858Y-61226174D01*
X31268750Y-61225000D01*
X31831250Y-61225000D01*
X31855142Y-61226174D01*
X31855142Y-61226174D01*
G37*
D14*
X31550000Y-61712500D03*
D13*
G36*
X31855142Y-62801174D02*
X31878803Y-62804684D01*
X31902007Y-62810496D01*
X31924529Y-62818554D01*
X31946153Y-62828782D01*
X31966670Y-62841079D01*
X31985883Y-62855329D01*
X32003607Y-62871393D01*
X32019671Y-62889117D01*
X32033921Y-62908330D01*
X32046218Y-62928847D01*
X32056446Y-62950471D01*
X32064504Y-62972993D01*
X32070316Y-62996197D01*
X32073826Y-63019858D01*
X32075000Y-63043750D01*
X32075000Y-63531250D01*
X32073826Y-63555142D01*
X32070316Y-63578803D01*
X32064504Y-63602007D01*
X32056446Y-63624529D01*
X32046218Y-63646153D01*
X32033921Y-63666670D01*
X32019671Y-63685883D01*
X32003607Y-63703607D01*
X31985883Y-63719671D01*
X31966670Y-63733921D01*
X31946153Y-63746218D01*
X31924529Y-63756446D01*
X31902007Y-63764504D01*
X31878803Y-63770316D01*
X31855142Y-63773826D01*
X31831250Y-63775000D01*
X31268750Y-63775000D01*
X31244858Y-63773826D01*
X31221197Y-63770316D01*
X31197993Y-63764504D01*
X31175471Y-63756446D01*
X31153847Y-63746218D01*
X31133330Y-63733921D01*
X31114117Y-63719671D01*
X31096393Y-63703607D01*
X31080329Y-63685883D01*
X31066079Y-63666670D01*
X31053782Y-63646153D01*
X31043554Y-63624529D01*
X31035496Y-63602007D01*
X31029684Y-63578803D01*
X31026174Y-63555142D01*
X31025000Y-63531250D01*
X31025000Y-63043750D01*
X31026174Y-63019858D01*
X31029684Y-62996197D01*
X31035496Y-62972993D01*
X31043554Y-62950471D01*
X31053782Y-62928847D01*
X31066079Y-62908330D01*
X31080329Y-62889117D01*
X31096393Y-62871393D01*
X31114117Y-62855329D01*
X31133330Y-62841079D01*
X31153847Y-62828782D01*
X31175471Y-62818554D01*
X31197993Y-62810496D01*
X31221197Y-62804684D01*
X31244858Y-62801174D01*
X31268750Y-62800000D01*
X31831250Y-62800000D01*
X31855142Y-62801174D01*
X31855142Y-62801174D01*
G37*
D14*
X31550000Y-63287500D03*
D13*
G36*
X29055142Y-57376174D02*
X29078803Y-57379684D01*
X29102007Y-57385496D01*
X29124529Y-57393554D01*
X29146153Y-57403782D01*
X29166670Y-57416079D01*
X29185883Y-57430329D01*
X29203607Y-57446393D01*
X29219671Y-57464117D01*
X29233921Y-57483330D01*
X29246218Y-57503847D01*
X29256446Y-57525471D01*
X29264504Y-57547993D01*
X29270316Y-57571197D01*
X29273826Y-57594858D01*
X29275000Y-57618750D01*
X29275000Y-58106250D01*
X29273826Y-58130142D01*
X29270316Y-58153803D01*
X29264504Y-58177007D01*
X29256446Y-58199529D01*
X29246218Y-58221153D01*
X29233921Y-58241670D01*
X29219671Y-58260883D01*
X29203607Y-58278607D01*
X29185883Y-58294671D01*
X29166670Y-58308921D01*
X29146153Y-58321218D01*
X29124529Y-58331446D01*
X29102007Y-58339504D01*
X29078803Y-58345316D01*
X29055142Y-58348826D01*
X29031250Y-58350000D01*
X28468750Y-58350000D01*
X28444858Y-58348826D01*
X28421197Y-58345316D01*
X28397993Y-58339504D01*
X28375471Y-58331446D01*
X28353847Y-58321218D01*
X28333330Y-58308921D01*
X28314117Y-58294671D01*
X28296393Y-58278607D01*
X28280329Y-58260883D01*
X28266079Y-58241670D01*
X28253782Y-58221153D01*
X28243554Y-58199529D01*
X28235496Y-58177007D01*
X28229684Y-58153803D01*
X28226174Y-58130142D01*
X28225000Y-58106250D01*
X28225000Y-57618750D01*
X28226174Y-57594858D01*
X28229684Y-57571197D01*
X28235496Y-57547993D01*
X28243554Y-57525471D01*
X28253782Y-57503847D01*
X28266079Y-57483330D01*
X28280329Y-57464117D01*
X28296393Y-57446393D01*
X28314117Y-57430329D01*
X28333330Y-57416079D01*
X28353847Y-57403782D01*
X28375471Y-57393554D01*
X28397993Y-57385496D01*
X28421197Y-57379684D01*
X28444858Y-57376174D01*
X28468750Y-57375000D01*
X29031250Y-57375000D01*
X29055142Y-57376174D01*
X29055142Y-57376174D01*
G37*
D14*
X28750000Y-57862500D03*
D13*
G36*
X29055142Y-58951174D02*
X29078803Y-58954684D01*
X29102007Y-58960496D01*
X29124529Y-58968554D01*
X29146153Y-58978782D01*
X29166670Y-58991079D01*
X29185883Y-59005329D01*
X29203607Y-59021393D01*
X29219671Y-59039117D01*
X29233921Y-59058330D01*
X29246218Y-59078847D01*
X29256446Y-59100471D01*
X29264504Y-59122993D01*
X29270316Y-59146197D01*
X29273826Y-59169858D01*
X29275000Y-59193750D01*
X29275000Y-59681250D01*
X29273826Y-59705142D01*
X29270316Y-59728803D01*
X29264504Y-59752007D01*
X29256446Y-59774529D01*
X29246218Y-59796153D01*
X29233921Y-59816670D01*
X29219671Y-59835883D01*
X29203607Y-59853607D01*
X29185883Y-59869671D01*
X29166670Y-59883921D01*
X29146153Y-59896218D01*
X29124529Y-59906446D01*
X29102007Y-59914504D01*
X29078803Y-59920316D01*
X29055142Y-59923826D01*
X29031250Y-59925000D01*
X28468750Y-59925000D01*
X28444858Y-59923826D01*
X28421197Y-59920316D01*
X28397993Y-59914504D01*
X28375471Y-59906446D01*
X28353847Y-59896218D01*
X28333330Y-59883921D01*
X28314117Y-59869671D01*
X28296393Y-59853607D01*
X28280329Y-59835883D01*
X28266079Y-59816670D01*
X28253782Y-59796153D01*
X28243554Y-59774529D01*
X28235496Y-59752007D01*
X28229684Y-59728803D01*
X28226174Y-59705142D01*
X28225000Y-59681250D01*
X28225000Y-59193750D01*
X28226174Y-59169858D01*
X28229684Y-59146197D01*
X28235496Y-59122993D01*
X28243554Y-59100471D01*
X28253782Y-59078847D01*
X28266079Y-59058330D01*
X28280329Y-59039117D01*
X28296393Y-59021393D01*
X28314117Y-59005329D01*
X28333330Y-58991079D01*
X28353847Y-58978782D01*
X28375471Y-58968554D01*
X28397993Y-58960496D01*
X28421197Y-58954684D01*
X28444858Y-58951174D01*
X28468750Y-58950000D01*
X29031250Y-58950000D01*
X29055142Y-58951174D01*
X29055142Y-58951174D01*
G37*
D14*
X28750000Y-59437500D03*
D13*
G36*
X12355142Y-43926174D02*
X12378803Y-43929684D01*
X12402007Y-43935496D01*
X12424529Y-43943554D01*
X12446153Y-43953782D01*
X12466670Y-43966079D01*
X12485883Y-43980329D01*
X12503607Y-43996393D01*
X12519671Y-44014117D01*
X12533921Y-44033330D01*
X12546218Y-44053847D01*
X12556446Y-44075471D01*
X12564504Y-44097993D01*
X12570316Y-44121197D01*
X12573826Y-44144858D01*
X12575000Y-44168750D01*
X12575000Y-44731250D01*
X12573826Y-44755142D01*
X12570316Y-44778803D01*
X12564504Y-44802007D01*
X12556446Y-44824529D01*
X12546218Y-44846153D01*
X12533921Y-44866670D01*
X12519671Y-44885883D01*
X12503607Y-44903607D01*
X12485883Y-44919671D01*
X12466670Y-44933921D01*
X12446153Y-44946218D01*
X12424529Y-44956446D01*
X12402007Y-44964504D01*
X12378803Y-44970316D01*
X12355142Y-44973826D01*
X12331250Y-44975000D01*
X11843750Y-44975000D01*
X11819858Y-44973826D01*
X11796197Y-44970316D01*
X11772993Y-44964504D01*
X11750471Y-44956446D01*
X11728847Y-44946218D01*
X11708330Y-44933921D01*
X11689117Y-44919671D01*
X11671393Y-44903607D01*
X11655329Y-44885883D01*
X11641079Y-44866670D01*
X11628782Y-44846153D01*
X11618554Y-44824529D01*
X11610496Y-44802007D01*
X11604684Y-44778803D01*
X11601174Y-44755142D01*
X11600000Y-44731250D01*
X11600000Y-44168750D01*
X11601174Y-44144858D01*
X11604684Y-44121197D01*
X11610496Y-44097993D01*
X11618554Y-44075471D01*
X11628782Y-44053847D01*
X11641079Y-44033330D01*
X11655329Y-44014117D01*
X11671393Y-43996393D01*
X11689117Y-43980329D01*
X11708330Y-43966079D01*
X11728847Y-43953782D01*
X11750471Y-43943554D01*
X11772993Y-43935496D01*
X11796197Y-43929684D01*
X11819858Y-43926174D01*
X11843750Y-43925000D01*
X12331250Y-43925000D01*
X12355142Y-43926174D01*
X12355142Y-43926174D01*
G37*
D14*
X12087500Y-44450000D03*
D13*
G36*
X10780142Y-43926174D02*
X10803803Y-43929684D01*
X10827007Y-43935496D01*
X10849529Y-43943554D01*
X10871153Y-43953782D01*
X10891670Y-43966079D01*
X10910883Y-43980329D01*
X10928607Y-43996393D01*
X10944671Y-44014117D01*
X10958921Y-44033330D01*
X10971218Y-44053847D01*
X10981446Y-44075471D01*
X10989504Y-44097993D01*
X10995316Y-44121197D01*
X10998826Y-44144858D01*
X11000000Y-44168750D01*
X11000000Y-44731250D01*
X10998826Y-44755142D01*
X10995316Y-44778803D01*
X10989504Y-44802007D01*
X10981446Y-44824529D01*
X10971218Y-44846153D01*
X10958921Y-44866670D01*
X10944671Y-44885883D01*
X10928607Y-44903607D01*
X10910883Y-44919671D01*
X10891670Y-44933921D01*
X10871153Y-44946218D01*
X10849529Y-44956446D01*
X10827007Y-44964504D01*
X10803803Y-44970316D01*
X10780142Y-44973826D01*
X10756250Y-44975000D01*
X10268750Y-44975000D01*
X10244858Y-44973826D01*
X10221197Y-44970316D01*
X10197993Y-44964504D01*
X10175471Y-44956446D01*
X10153847Y-44946218D01*
X10133330Y-44933921D01*
X10114117Y-44919671D01*
X10096393Y-44903607D01*
X10080329Y-44885883D01*
X10066079Y-44866670D01*
X10053782Y-44846153D01*
X10043554Y-44824529D01*
X10035496Y-44802007D01*
X10029684Y-44778803D01*
X10026174Y-44755142D01*
X10025000Y-44731250D01*
X10025000Y-44168750D01*
X10026174Y-44144858D01*
X10029684Y-44121197D01*
X10035496Y-44097993D01*
X10043554Y-44075471D01*
X10053782Y-44053847D01*
X10066079Y-44033330D01*
X10080329Y-44014117D01*
X10096393Y-43996393D01*
X10114117Y-43980329D01*
X10133330Y-43966079D01*
X10153847Y-43953782D01*
X10175471Y-43943554D01*
X10197993Y-43935496D01*
X10221197Y-43929684D01*
X10244858Y-43926174D01*
X10268750Y-43925000D01*
X10756250Y-43925000D01*
X10780142Y-43926174D01*
X10780142Y-43926174D01*
G37*
D14*
X10512500Y-44450000D03*
D13*
G36*
X29055142Y-62788674D02*
X29078803Y-62792184D01*
X29102007Y-62797996D01*
X29124529Y-62806054D01*
X29146153Y-62816282D01*
X29166670Y-62828579D01*
X29185883Y-62842829D01*
X29203607Y-62858893D01*
X29219671Y-62876617D01*
X29233921Y-62895830D01*
X29246218Y-62916347D01*
X29256446Y-62937971D01*
X29264504Y-62960493D01*
X29270316Y-62983697D01*
X29273826Y-63007358D01*
X29275000Y-63031250D01*
X29275000Y-63518750D01*
X29273826Y-63542642D01*
X29270316Y-63566303D01*
X29264504Y-63589507D01*
X29256446Y-63612029D01*
X29246218Y-63633653D01*
X29233921Y-63654170D01*
X29219671Y-63673383D01*
X29203607Y-63691107D01*
X29185883Y-63707171D01*
X29166670Y-63721421D01*
X29146153Y-63733718D01*
X29124529Y-63743946D01*
X29102007Y-63752004D01*
X29078803Y-63757816D01*
X29055142Y-63761326D01*
X29031250Y-63762500D01*
X28468750Y-63762500D01*
X28444858Y-63761326D01*
X28421197Y-63757816D01*
X28397993Y-63752004D01*
X28375471Y-63743946D01*
X28353847Y-63733718D01*
X28333330Y-63721421D01*
X28314117Y-63707171D01*
X28296393Y-63691107D01*
X28280329Y-63673383D01*
X28266079Y-63654170D01*
X28253782Y-63633653D01*
X28243554Y-63612029D01*
X28235496Y-63589507D01*
X28229684Y-63566303D01*
X28226174Y-63542642D01*
X28225000Y-63518750D01*
X28225000Y-63031250D01*
X28226174Y-63007358D01*
X28229684Y-62983697D01*
X28235496Y-62960493D01*
X28243554Y-62937971D01*
X28253782Y-62916347D01*
X28266079Y-62895830D01*
X28280329Y-62876617D01*
X28296393Y-62858893D01*
X28314117Y-62842829D01*
X28333330Y-62828579D01*
X28353847Y-62816282D01*
X28375471Y-62806054D01*
X28397993Y-62797996D01*
X28421197Y-62792184D01*
X28444858Y-62788674D01*
X28468750Y-62787500D01*
X29031250Y-62787500D01*
X29055142Y-62788674D01*
X29055142Y-62788674D01*
G37*
D14*
X28750000Y-63275000D03*
D13*
G36*
X29055142Y-61213674D02*
X29078803Y-61217184D01*
X29102007Y-61222996D01*
X29124529Y-61231054D01*
X29146153Y-61241282D01*
X29166670Y-61253579D01*
X29185883Y-61267829D01*
X29203607Y-61283893D01*
X29219671Y-61301617D01*
X29233921Y-61320830D01*
X29246218Y-61341347D01*
X29256446Y-61362971D01*
X29264504Y-61385493D01*
X29270316Y-61408697D01*
X29273826Y-61432358D01*
X29275000Y-61456250D01*
X29275000Y-61943750D01*
X29273826Y-61967642D01*
X29270316Y-61991303D01*
X29264504Y-62014507D01*
X29256446Y-62037029D01*
X29246218Y-62058653D01*
X29233921Y-62079170D01*
X29219671Y-62098383D01*
X29203607Y-62116107D01*
X29185883Y-62132171D01*
X29166670Y-62146421D01*
X29146153Y-62158718D01*
X29124529Y-62168946D01*
X29102007Y-62177004D01*
X29078803Y-62182816D01*
X29055142Y-62186326D01*
X29031250Y-62187500D01*
X28468750Y-62187500D01*
X28444858Y-62186326D01*
X28421197Y-62182816D01*
X28397993Y-62177004D01*
X28375471Y-62168946D01*
X28353847Y-62158718D01*
X28333330Y-62146421D01*
X28314117Y-62132171D01*
X28296393Y-62116107D01*
X28280329Y-62098383D01*
X28266079Y-62079170D01*
X28253782Y-62058653D01*
X28243554Y-62037029D01*
X28235496Y-62014507D01*
X28229684Y-61991303D01*
X28226174Y-61967642D01*
X28225000Y-61943750D01*
X28225000Y-61456250D01*
X28226174Y-61432358D01*
X28229684Y-61408697D01*
X28235496Y-61385493D01*
X28243554Y-61362971D01*
X28253782Y-61341347D01*
X28266079Y-61320830D01*
X28280329Y-61301617D01*
X28296393Y-61283893D01*
X28314117Y-61267829D01*
X28333330Y-61253579D01*
X28353847Y-61241282D01*
X28375471Y-61231054D01*
X28397993Y-61222996D01*
X28421197Y-61217184D01*
X28444858Y-61213674D01*
X28468750Y-61212500D01*
X29031250Y-61212500D01*
X29055142Y-61213674D01*
X29055142Y-61213674D01*
G37*
D14*
X28750000Y-61700000D03*
D13*
G36*
X27255142Y-59001174D02*
X27278803Y-59004684D01*
X27302007Y-59010496D01*
X27324529Y-59018554D01*
X27346153Y-59028782D01*
X27366670Y-59041079D01*
X27385883Y-59055329D01*
X27403607Y-59071393D01*
X27419671Y-59089117D01*
X27433921Y-59108330D01*
X27446218Y-59128847D01*
X27456446Y-59150471D01*
X27464504Y-59172993D01*
X27470316Y-59196197D01*
X27473826Y-59219858D01*
X27475000Y-59243750D01*
X27475000Y-59731250D01*
X27473826Y-59755142D01*
X27470316Y-59778803D01*
X27464504Y-59802007D01*
X27456446Y-59824529D01*
X27446218Y-59846153D01*
X27433921Y-59866670D01*
X27419671Y-59885883D01*
X27403607Y-59903607D01*
X27385883Y-59919671D01*
X27366670Y-59933921D01*
X27346153Y-59946218D01*
X27324529Y-59956446D01*
X27302007Y-59964504D01*
X27278803Y-59970316D01*
X27255142Y-59973826D01*
X27231250Y-59975000D01*
X26668750Y-59975000D01*
X26644858Y-59973826D01*
X26621197Y-59970316D01*
X26597993Y-59964504D01*
X26575471Y-59956446D01*
X26553847Y-59946218D01*
X26533330Y-59933921D01*
X26514117Y-59919671D01*
X26496393Y-59903607D01*
X26480329Y-59885883D01*
X26466079Y-59866670D01*
X26453782Y-59846153D01*
X26443554Y-59824529D01*
X26435496Y-59802007D01*
X26429684Y-59778803D01*
X26426174Y-59755142D01*
X26425000Y-59731250D01*
X26425000Y-59243750D01*
X26426174Y-59219858D01*
X26429684Y-59196197D01*
X26435496Y-59172993D01*
X26443554Y-59150471D01*
X26453782Y-59128847D01*
X26466079Y-59108330D01*
X26480329Y-59089117D01*
X26496393Y-59071393D01*
X26514117Y-59055329D01*
X26533330Y-59041079D01*
X26553847Y-59028782D01*
X26575471Y-59018554D01*
X26597993Y-59010496D01*
X26621197Y-59004684D01*
X26644858Y-59001174D01*
X26668750Y-59000000D01*
X27231250Y-59000000D01*
X27255142Y-59001174D01*
X27255142Y-59001174D01*
G37*
D14*
X26950000Y-59487500D03*
D13*
G36*
X27255142Y-57426174D02*
X27278803Y-57429684D01*
X27302007Y-57435496D01*
X27324529Y-57443554D01*
X27346153Y-57453782D01*
X27366670Y-57466079D01*
X27385883Y-57480329D01*
X27403607Y-57496393D01*
X27419671Y-57514117D01*
X27433921Y-57533330D01*
X27446218Y-57553847D01*
X27456446Y-57575471D01*
X27464504Y-57597993D01*
X27470316Y-57621197D01*
X27473826Y-57644858D01*
X27475000Y-57668750D01*
X27475000Y-58156250D01*
X27473826Y-58180142D01*
X27470316Y-58203803D01*
X27464504Y-58227007D01*
X27456446Y-58249529D01*
X27446218Y-58271153D01*
X27433921Y-58291670D01*
X27419671Y-58310883D01*
X27403607Y-58328607D01*
X27385883Y-58344671D01*
X27366670Y-58358921D01*
X27346153Y-58371218D01*
X27324529Y-58381446D01*
X27302007Y-58389504D01*
X27278803Y-58395316D01*
X27255142Y-58398826D01*
X27231250Y-58400000D01*
X26668750Y-58400000D01*
X26644858Y-58398826D01*
X26621197Y-58395316D01*
X26597993Y-58389504D01*
X26575471Y-58381446D01*
X26553847Y-58371218D01*
X26533330Y-58358921D01*
X26514117Y-58344671D01*
X26496393Y-58328607D01*
X26480329Y-58310883D01*
X26466079Y-58291670D01*
X26453782Y-58271153D01*
X26443554Y-58249529D01*
X26435496Y-58227007D01*
X26429684Y-58203803D01*
X26426174Y-58180142D01*
X26425000Y-58156250D01*
X26425000Y-57668750D01*
X26426174Y-57644858D01*
X26429684Y-57621197D01*
X26435496Y-57597993D01*
X26443554Y-57575471D01*
X26453782Y-57553847D01*
X26466079Y-57533330D01*
X26480329Y-57514117D01*
X26496393Y-57496393D01*
X26514117Y-57480329D01*
X26533330Y-57466079D01*
X26553847Y-57453782D01*
X26575471Y-57443554D01*
X26597993Y-57435496D01*
X26621197Y-57429684D01*
X26644858Y-57426174D01*
X26668750Y-57425000D01*
X27231250Y-57425000D01*
X27255142Y-57426174D01*
X27255142Y-57426174D01*
G37*
D14*
X26950000Y-57912500D03*
D13*
G36*
X8805142Y-23888674D02*
X8828803Y-23892184D01*
X8852007Y-23897996D01*
X8874529Y-23906054D01*
X8896153Y-23916282D01*
X8916670Y-23928579D01*
X8935883Y-23942829D01*
X8953607Y-23958893D01*
X8969671Y-23976617D01*
X8983921Y-23995830D01*
X8996218Y-24016347D01*
X9006446Y-24037971D01*
X9014504Y-24060493D01*
X9020316Y-24083697D01*
X9023826Y-24107358D01*
X9025000Y-24131250D01*
X9025000Y-24618750D01*
X9023826Y-24642642D01*
X9020316Y-24666303D01*
X9014504Y-24689507D01*
X9006446Y-24712029D01*
X8996218Y-24733653D01*
X8983921Y-24754170D01*
X8969671Y-24773383D01*
X8953607Y-24791107D01*
X8935883Y-24807171D01*
X8916670Y-24821421D01*
X8896153Y-24833718D01*
X8874529Y-24843946D01*
X8852007Y-24852004D01*
X8828803Y-24857816D01*
X8805142Y-24861326D01*
X8781250Y-24862500D01*
X8218750Y-24862500D01*
X8194858Y-24861326D01*
X8171197Y-24857816D01*
X8147993Y-24852004D01*
X8125471Y-24843946D01*
X8103847Y-24833718D01*
X8083330Y-24821421D01*
X8064117Y-24807171D01*
X8046393Y-24791107D01*
X8030329Y-24773383D01*
X8016079Y-24754170D01*
X8003782Y-24733653D01*
X7993554Y-24712029D01*
X7985496Y-24689507D01*
X7979684Y-24666303D01*
X7976174Y-24642642D01*
X7975000Y-24618750D01*
X7975000Y-24131250D01*
X7976174Y-24107358D01*
X7979684Y-24083697D01*
X7985496Y-24060493D01*
X7993554Y-24037971D01*
X8003782Y-24016347D01*
X8016079Y-23995830D01*
X8030329Y-23976617D01*
X8046393Y-23958893D01*
X8064117Y-23942829D01*
X8083330Y-23928579D01*
X8103847Y-23916282D01*
X8125471Y-23906054D01*
X8147993Y-23897996D01*
X8171197Y-23892184D01*
X8194858Y-23888674D01*
X8218750Y-23887500D01*
X8781250Y-23887500D01*
X8805142Y-23888674D01*
X8805142Y-23888674D01*
G37*
D14*
X8500000Y-24375000D03*
D13*
G36*
X8805142Y-22313674D02*
X8828803Y-22317184D01*
X8852007Y-22322996D01*
X8874529Y-22331054D01*
X8896153Y-22341282D01*
X8916670Y-22353579D01*
X8935883Y-22367829D01*
X8953607Y-22383893D01*
X8969671Y-22401617D01*
X8983921Y-22420830D01*
X8996218Y-22441347D01*
X9006446Y-22462971D01*
X9014504Y-22485493D01*
X9020316Y-22508697D01*
X9023826Y-22532358D01*
X9025000Y-22556250D01*
X9025000Y-23043750D01*
X9023826Y-23067642D01*
X9020316Y-23091303D01*
X9014504Y-23114507D01*
X9006446Y-23137029D01*
X8996218Y-23158653D01*
X8983921Y-23179170D01*
X8969671Y-23198383D01*
X8953607Y-23216107D01*
X8935883Y-23232171D01*
X8916670Y-23246421D01*
X8896153Y-23258718D01*
X8874529Y-23268946D01*
X8852007Y-23277004D01*
X8828803Y-23282816D01*
X8805142Y-23286326D01*
X8781250Y-23287500D01*
X8218750Y-23287500D01*
X8194858Y-23286326D01*
X8171197Y-23282816D01*
X8147993Y-23277004D01*
X8125471Y-23268946D01*
X8103847Y-23258718D01*
X8083330Y-23246421D01*
X8064117Y-23232171D01*
X8046393Y-23216107D01*
X8030329Y-23198383D01*
X8016079Y-23179170D01*
X8003782Y-23158653D01*
X7993554Y-23137029D01*
X7985496Y-23114507D01*
X7979684Y-23091303D01*
X7976174Y-23067642D01*
X7975000Y-23043750D01*
X7975000Y-22556250D01*
X7976174Y-22532358D01*
X7979684Y-22508697D01*
X7985496Y-22485493D01*
X7993554Y-22462971D01*
X8003782Y-22441347D01*
X8016079Y-22420830D01*
X8030329Y-22401617D01*
X8046393Y-22383893D01*
X8064117Y-22367829D01*
X8083330Y-22353579D01*
X8103847Y-22341282D01*
X8125471Y-22331054D01*
X8147993Y-22322996D01*
X8171197Y-22317184D01*
X8194858Y-22313674D01*
X8218750Y-22312500D01*
X8781250Y-22312500D01*
X8805142Y-22313674D01*
X8805142Y-22313674D01*
G37*
D14*
X8500000Y-22800000D03*
D13*
G36*
X27355142Y-61226174D02*
X27378803Y-61229684D01*
X27402007Y-61235496D01*
X27424529Y-61243554D01*
X27446153Y-61253782D01*
X27466670Y-61266079D01*
X27485883Y-61280329D01*
X27503607Y-61296393D01*
X27519671Y-61314117D01*
X27533921Y-61333330D01*
X27546218Y-61353847D01*
X27556446Y-61375471D01*
X27564504Y-61397993D01*
X27570316Y-61421197D01*
X27573826Y-61444858D01*
X27575000Y-61468750D01*
X27575000Y-61956250D01*
X27573826Y-61980142D01*
X27570316Y-62003803D01*
X27564504Y-62027007D01*
X27556446Y-62049529D01*
X27546218Y-62071153D01*
X27533921Y-62091670D01*
X27519671Y-62110883D01*
X27503607Y-62128607D01*
X27485883Y-62144671D01*
X27466670Y-62158921D01*
X27446153Y-62171218D01*
X27424529Y-62181446D01*
X27402007Y-62189504D01*
X27378803Y-62195316D01*
X27355142Y-62198826D01*
X27331250Y-62200000D01*
X26768750Y-62200000D01*
X26744858Y-62198826D01*
X26721197Y-62195316D01*
X26697993Y-62189504D01*
X26675471Y-62181446D01*
X26653847Y-62171218D01*
X26633330Y-62158921D01*
X26614117Y-62144671D01*
X26596393Y-62128607D01*
X26580329Y-62110883D01*
X26566079Y-62091670D01*
X26553782Y-62071153D01*
X26543554Y-62049529D01*
X26535496Y-62027007D01*
X26529684Y-62003803D01*
X26526174Y-61980142D01*
X26525000Y-61956250D01*
X26525000Y-61468750D01*
X26526174Y-61444858D01*
X26529684Y-61421197D01*
X26535496Y-61397993D01*
X26543554Y-61375471D01*
X26553782Y-61353847D01*
X26566079Y-61333330D01*
X26580329Y-61314117D01*
X26596393Y-61296393D01*
X26614117Y-61280329D01*
X26633330Y-61266079D01*
X26653847Y-61253782D01*
X26675471Y-61243554D01*
X26697993Y-61235496D01*
X26721197Y-61229684D01*
X26744858Y-61226174D01*
X26768750Y-61225000D01*
X27331250Y-61225000D01*
X27355142Y-61226174D01*
X27355142Y-61226174D01*
G37*
D14*
X27050000Y-61712500D03*
D13*
G36*
X27355142Y-62801174D02*
X27378803Y-62804684D01*
X27402007Y-62810496D01*
X27424529Y-62818554D01*
X27446153Y-62828782D01*
X27466670Y-62841079D01*
X27485883Y-62855329D01*
X27503607Y-62871393D01*
X27519671Y-62889117D01*
X27533921Y-62908330D01*
X27546218Y-62928847D01*
X27556446Y-62950471D01*
X27564504Y-62972993D01*
X27570316Y-62996197D01*
X27573826Y-63019858D01*
X27575000Y-63043750D01*
X27575000Y-63531250D01*
X27573826Y-63555142D01*
X27570316Y-63578803D01*
X27564504Y-63602007D01*
X27556446Y-63624529D01*
X27546218Y-63646153D01*
X27533921Y-63666670D01*
X27519671Y-63685883D01*
X27503607Y-63703607D01*
X27485883Y-63719671D01*
X27466670Y-63733921D01*
X27446153Y-63746218D01*
X27424529Y-63756446D01*
X27402007Y-63764504D01*
X27378803Y-63770316D01*
X27355142Y-63773826D01*
X27331250Y-63775000D01*
X26768750Y-63775000D01*
X26744858Y-63773826D01*
X26721197Y-63770316D01*
X26697993Y-63764504D01*
X26675471Y-63756446D01*
X26653847Y-63746218D01*
X26633330Y-63733921D01*
X26614117Y-63719671D01*
X26596393Y-63703607D01*
X26580329Y-63685883D01*
X26566079Y-63666670D01*
X26553782Y-63646153D01*
X26543554Y-63624529D01*
X26535496Y-63602007D01*
X26529684Y-63578803D01*
X26526174Y-63555142D01*
X26525000Y-63531250D01*
X26525000Y-63043750D01*
X26526174Y-63019858D01*
X26529684Y-62996197D01*
X26535496Y-62972993D01*
X26543554Y-62950471D01*
X26553782Y-62928847D01*
X26566079Y-62908330D01*
X26580329Y-62889117D01*
X26596393Y-62871393D01*
X26614117Y-62855329D01*
X26633330Y-62841079D01*
X26653847Y-62828782D01*
X26675471Y-62818554D01*
X26697993Y-62810496D01*
X26721197Y-62804684D01*
X26744858Y-62801174D01*
X26768750Y-62800000D01*
X27331250Y-62800000D01*
X27355142Y-62801174D01*
X27355142Y-62801174D01*
G37*
D14*
X27050000Y-63287500D03*
D27*
X46700000Y-26300000D03*
D28*
X45700000Y-26300000D03*
X45700000Y-25500000D03*
X45700000Y-24700000D03*
X45700000Y-23900000D03*
X45700000Y-23100000D03*
X45700000Y-22300000D03*
D27*
X46700000Y-22300000D03*
D28*
X47700000Y-22300000D03*
X47700000Y-23100000D03*
X47700000Y-23900000D03*
X47700000Y-24700000D03*
X47700000Y-25500000D03*
X47700000Y-26300000D03*
D29*
X35040000Y-66150000D03*
X35040000Y-65200000D03*
X35040000Y-64250000D03*
X37360000Y-64250000D03*
X37360000Y-65200000D03*
X37360000Y-66150000D03*
D30*
X33850000Y-43450000D03*
X33850000Y-43950000D03*
X33850000Y-44450000D03*
X33850000Y-44950000D03*
X33850000Y-45450000D03*
X33850000Y-45950000D03*
X33850000Y-46450000D03*
X33850000Y-46950000D03*
X33850000Y-47450000D03*
X33850000Y-47950000D03*
X33850000Y-48450000D03*
X33850000Y-48950000D03*
D31*
X32250000Y-50550000D03*
X31750000Y-50550000D03*
X31250000Y-50550000D03*
X30750000Y-50550000D03*
X30250000Y-50550000D03*
X29750000Y-50550000D03*
X29250000Y-50550000D03*
X28750000Y-50550000D03*
X28250000Y-50550000D03*
X27750000Y-50550000D03*
X27250000Y-50550000D03*
X26750000Y-50550000D03*
D30*
X25150000Y-48950000D03*
X25150000Y-48450000D03*
X25150000Y-47950000D03*
X25150000Y-47450000D03*
X25150000Y-46950000D03*
X25150000Y-46450000D03*
X25150000Y-45950000D03*
X25150000Y-45450000D03*
X25150000Y-44950000D03*
X25150000Y-44450000D03*
X25150000Y-43950000D03*
X25150000Y-43450000D03*
D31*
X26750000Y-41850000D03*
X27250000Y-41850000D03*
X27750000Y-41850000D03*
X28250000Y-41850000D03*
X28750000Y-41850000D03*
X29250000Y-41850000D03*
X29750000Y-41850000D03*
X30250000Y-41850000D03*
X30750000Y-41850000D03*
X31250000Y-41850000D03*
X31750000Y-41850000D03*
X32250000Y-41850000D03*
D21*
X23450000Y-63400000D03*
X21550000Y-63400000D03*
X21550000Y-61200000D03*
X22500000Y-61200000D03*
X23450000Y-61200000D03*
D32*
X5900000Y-42500000D03*
D33*
X7805000Y-46250000D03*
X6535000Y-46250000D03*
X5265000Y-46250000D03*
X3995000Y-46250000D03*
X3995000Y-38750000D03*
X5265000Y-38750000D03*
X6535000Y-38750000D03*
X7805000Y-38750000D03*
D34*
X12100000Y-22300000D03*
X13200000Y-22300000D03*
X14300000Y-22300000D03*
X15400000Y-22300000D03*
X16500000Y-22300000D03*
X17600000Y-22300000D03*
X18700000Y-22300000D03*
X21700000Y-22300000D03*
X22800000Y-22300000D03*
X23900000Y-22300000D03*
X25000000Y-22300000D03*
X26100000Y-22300000D03*
X26100000Y-34500000D03*
X25000000Y-34500000D03*
X23900000Y-34500000D03*
X22800000Y-34500000D03*
X21700000Y-34500000D03*
X18700000Y-34500000D03*
X17600000Y-34500000D03*
X16500000Y-34500000D03*
X15400000Y-34500000D03*
X14300000Y-34500000D03*
X13200000Y-34500000D03*
X12100000Y-34500000D03*
D35*
X35700000Y-33850000D03*
X35700000Y-37550000D03*
D12*
X13750000Y-58100000D03*
X11850000Y-58100000D03*
X12800000Y-60100000D03*
D13*
G36*
X15205142Y-46226174D02*
X15228803Y-46229684D01*
X15252007Y-46235496D01*
X15274529Y-46243554D01*
X15296153Y-46253782D01*
X15316670Y-46266079D01*
X15335883Y-46280329D01*
X15353607Y-46296393D01*
X15369671Y-46314117D01*
X15383921Y-46333330D01*
X15396218Y-46353847D01*
X15406446Y-46375471D01*
X15414504Y-46397993D01*
X15420316Y-46421197D01*
X15423826Y-46444858D01*
X15425000Y-46468750D01*
X15425000Y-46956250D01*
X15423826Y-46980142D01*
X15420316Y-47003803D01*
X15414504Y-47027007D01*
X15406446Y-47049529D01*
X15396218Y-47071153D01*
X15383921Y-47091670D01*
X15369671Y-47110883D01*
X15353607Y-47128607D01*
X15335883Y-47144671D01*
X15316670Y-47158921D01*
X15296153Y-47171218D01*
X15274529Y-47181446D01*
X15252007Y-47189504D01*
X15228803Y-47195316D01*
X15205142Y-47198826D01*
X15181250Y-47200000D01*
X14618750Y-47200000D01*
X14594858Y-47198826D01*
X14571197Y-47195316D01*
X14547993Y-47189504D01*
X14525471Y-47181446D01*
X14503847Y-47171218D01*
X14483330Y-47158921D01*
X14464117Y-47144671D01*
X14446393Y-47128607D01*
X14430329Y-47110883D01*
X14416079Y-47091670D01*
X14403782Y-47071153D01*
X14393554Y-47049529D01*
X14385496Y-47027007D01*
X14379684Y-47003803D01*
X14376174Y-46980142D01*
X14375000Y-46956250D01*
X14375000Y-46468750D01*
X14376174Y-46444858D01*
X14379684Y-46421197D01*
X14385496Y-46397993D01*
X14393554Y-46375471D01*
X14403782Y-46353847D01*
X14416079Y-46333330D01*
X14430329Y-46314117D01*
X14446393Y-46296393D01*
X14464117Y-46280329D01*
X14483330Y-46266079D01*
X14503847Y-46253782D01*
X14525471Y-46243554D01*
X14547993Y-46235496D01*
X14571197Y-46229684D01*
X14594858Y-46226174D01*
X14618750Y-46225000D01*
X15181250Y-46225000D01*
X15205142Y-46226174D01*
X15205142Y-46226174D01*
G37*
D14*
X14900000Y-46712500D03*
D13*
G36*
X15205142Y-47801174D02*
X15228803Y-47804684D01*
X15252007Y-47810496D01*
X15274529Y-47818554D01*
X15296153Y-47828782D01*
X15316670Y-47841079D01*
X15335883Y-47855329D01*
X15353607Y-47871393D01*
X15369671Y-47889117D01*
X15383921Y-47908330D01*
X15396218Y-47928847D01*
X15406446Y-47950471D01*
X15414504Y-47972993D01*
X15420316Y-47996197D01*
X15423826Y-48019858D01*
X15425000Y-48043750D01*
X15425000Y-48531250D01*
X15423826Y-48555142D01*
X15420316Y-48578803D01*
X15414504Y-48602007D01*
X15406446Y-48624529D01*
X15396218Y-48646153D01*
X15383921Y-48666670D01*
X15369671Y-48685883D01*
X15353607Y-48703607D01*
X15335883Y-48719671D01*
X15316670Y-48733921D01*
X15296153Y-48746218D01*
X15274529Y-48756446D01*
X15252007Y-48764504D01*
X15228803Y-48770316D01*
X15205142Y-48773826D01*
X15181250Y-48775000D01*
X14618750Y-48775000D01*
X14594858Y-48773826D01*
X14571197Y-48770316D01*
X14547993Y-48764504D01*
X14525471Y-48756446D01*
X14503847Y-48746218D01*
X14483330Y-48733921D01*
X14464117Y-48719671D01*
X14446393Y-48703607D01*
X14430329Y-48685883D01*
X14416079Y-48666670D01*
X14403782Y-48646153D01*
X14393554Y-48624529D01*
X14385496Y-48602007D01*
X14379684Y-48578803D01*
X14376174Y-48555142D01*
X14375000Y-48531250D01*
X14375000Y-48043750D01*
X14376174Y-48019858D01*
X14379684Y-47996197D01*
X14385496Y-47972993D01*
X14393554Y-47950471D01*
X14403782Y-47928847D01*
X14416079Y-47908330D01*
X14430329Y-47889117D01*
X14446393Y-47871393D01*
X14464117Y-47855329D01*
X14483330Y-47841079D01*
X14503847Y-47828782D01*
X14525471Y-47818554D01*
X14547993Y-47810496D01*
X14571197Y-47804684D01*
X14594858Y-47801174D01*
X14618750Y-47800000D01*
X15181250Y-47800000D01*
X15205142Y-47801174D01*
X15205142Y-47801174D01*
G37*
D14*
X14900000Y-48287500D03*
D13*
G36*
X18805142Y-46226174D02*
X18828803Y-46229684D01*
X18852007Y-46235496D01*
X18874529Y-46243554D01*
X18896153Y-46253782D01*
X18916670Y-46266079D01*
X18935883Y-46280329D01*
X18953607Y-46296393D01*
X18969671Y-46314117D01*
X18983921Y-46333330D01*
X18996218Y-46353847D01*
X19006446Y-46375471D01*
X19014504Y-46397993D01*
X19020316Y-46421197D01*
X19023826Y-46444858D01*
X19025000Y-46468750D01*
X19025000Y-46956250D01*
X19023826Y-46980142D01*
X19020316Y-47003803D01*
X19014504Y-47027007D01*
X19006446Y-47049529D01*
X18996218Y-47071153D01*
X18983921Y-47091670D01*
X18969671Y-47110883D01*
X18953607Y-47128607D01*
X18935883Y-47144671D01*
X18916670Y-47158921D01*
X18896153Y-47171218D01*
X18874529Y-47181446D01*
X18852007Y-47189504D01*
X18828803Y-47195316D01*
X18805142Y-47198826D01*
X18781250Y-47200000D01*
X18218750Y-47200000D01*
X18194858Y-47198826D01*
X18171197Y-47195316D01*
X18147993Y-47189504D01*
X18125471Y-47181446D01*
X18103847Y-47171218D01*
X18083330Y-47158921D01*
X18064117Y-47144671D01*
X18046393Y-47128607D01*
X18030329Y-47110883D01*
X18016079Y-47091670D01*
X18003782Y-47071153D01*
X17993554Y-47049529D01*
X17985496Y-47027007D01*
X17979684Y-47003803D01*
X17976174Y-46980142D01*
X17975000Y-46956250D01*
X17975000Y-46468750D01*
X17976174Y-46444858D01*
X17979684Y-46421197D01*
X17985496Y-46397993D01*
X17993554Y-46375471D01*
X18003782Y-46353847D01*
X18016079Y-46333330D01*
X18030329Y-46314117D01*
X18046393Y-46296393D01*
X18064117Y-46280329D01*
X18083330Y-46266079D01*
X18103847Y-46253782D01*
X18125471Y-46243554D01*
X18147993Y-46235496D01*
X18171197Y-46229684D01*
X18194858Y-46226174D01*
X18218750Y-46225000D01*
X18781250Y-46225000D01*
X18805142Y-46226174D01*
X18805142Y-46226174D01*
G37*
D14*
X18500000Y-46712500D03*
D13*
G36*
X18805142Y-47801174D02*
X18828803Y-47804684D01*
X18852007Y-47810496D01*
X18874529Y-47818554D01*
X18896153Y-47828782D01*
X18916670Y-47841079D01*
X18935883Y-47855329D01*
X18953607Y-47871393D01*
X18969671Y-47889117D01*
X18983921Y-47908330D01*
X18996218Y-47928847D01*
X19006446Y-47950471D01*
X19014504Y-47972993D01*
X19020316Y-47996197D01*
X19023826Y-48019858D01*
X19025000Y-48043750D01*
X19025000Y-48531250D01*
X19023826Y-48555142D01*
X19020316Y-48578803D01*
X19014504Y-48602007D01*
X19006446Y-48624529D01*
X18996218Y-48646153D01*
X18983921Y-48666670D01*
X18969671Y-48685883D01*
X18953607Y-48703607D01*
X18935883Y-48719671D01*
X18916670Y-48733921D01*
X18896153Y-48746218D01*
X18874529Y-48756446D01*
X18852007Y-48764504D01*
X18828803Y-48770316D01*
X18805142Y-48773826D01*
X18781250Y-48775000D01*
X18218750Y-48775000D01*
X18194858Y-48773826D01*
X18171197Y-48770316D01*
X18147993Y-48764504D01*
X18125471Y-48756446D01*
X18103847Y-48746218D01*
X18083330Y-48733921D01*
X18064117Y-48719671D01*
X18046393Y-48703607D01*
X18030329Y-48685883D01*
X18016079Y-48666670D01*
X18003782Y-48646153D01*
X17993554Y-48624529D01*
X17985496Y-48602007D01*
X17979684Y-48578803D01*
X17976174Y-48555142D01*
X17975000Y-48531250D01*
X17975000Y-48043750D01*
X17976174Y-48019858D01*
X17979684Y-47996197D01*
X17985496Y-47972993D01*
X17993554Y-47950471D01*
X18003782Y-47928847D01*
X18016079Y-47908330D01*
X18030329Y-47889117D01*
X18046393Y-47871393D01*
X18064117Y-47855329D01*
X18083330Y-47841079D01*
X18103847Y-47828782D01*
X18125471Y-47818554D01*
X18147993Y-47810496D01*
X18171197Y-47804684D01*
X18194858Y-47801174D01*
X18218750Y-47800000D01*
X18781250Y-47800000D01*
X18805142Y-47801174D01*
X18805142Y-47801174D01*
G37*
D14*
X18500000Y-48287500D03*
D29*
X40740000Y-48850000D03*
X40740000Y-49800000D03*
X40740000Y-50750000D03*
X43060000Y-50750000D03*
X43060000Y-49800000D03*
X43060000Y-48850000D03*
D13*
G36*
X25292642Y-39776174D02*
X25316303Y-39779684D01*
X25339507Y-39785496D01*
X25362029Y-39793554D01*
X25383653Y-39803782D01*
X25404170Y-39816079D01*
X25423383Y-39830329D01*
X25441107Y-39846393D01*
X25457171Y-39864117D01*
X25471421Y-39883330D01*
X25483718Y-39903847D01*
X25493946Y-39925471D01*
X25502004Y-39947993D01*
X25507816Y-39971197D01*
X25511326Y-39994858D01*
X25512500Y-40018750D01*
X25512500Y-40506250D01*
X25511326Y-40530142D01*
X25507816Y-40553803D01*
X25502004Y-40577007D01*
X25493946Y-40599529D01*
X25483718Y-40621153D01*
X25471421Y-40641670D01*
X25457171Y-40660883D01*
X25441107Y-40678607D01*
X25423383Y-40694671D01*
X25404170Y-40708921D01*
X25383653Y-40721218D01*
X25362029Y-40731446D01*
X25339507Y-40739504D01*
X25316303Y-40745316D01*
X25292642Y-40748826D01*
X25268750Y-40750000D01*
X24706250Y-40750000D01*
X24682358Y-40748826D01*
X24658697Y-40745316D01*
X24635493Y-40739504D01*
X24612971Y-40731446D01*
X24591347Y-40721218D01*
X24570830Y-40708921D01*
X24551617Y-40694671D01*
X24533893Y-40678607D01*
X24517829Y-40660883D01*
X24503579Y-40641670D01*
X24491282Y-40621153D01*
X24481054Y-40599529D01*
X24472996Y-40577007D01*
X24467184Y-40553803D01*
X24463674Y-40530142D01*
X24462500Y-40506250D01*
X24462500Y-40018750D01*
X24463674Y-39994858D01*
X24467184Y-39971197D01*
X24472996Y-39947993D01*
X24481054Y-39925471D01*
X24491282Y-39903847D01*
X24503579Y-39883330D01*
X24517829Y-39864117D01*
X24533893Y-39846393D01*
X24551617Y-39830329D01*
X24570830Y-39816079D01*
X24591347Y-39803782D01*
X24612971Y-39793554D01*
X24635493Y-39785496D01*
X24658697Y-39779684D01*
X24682358Y-39776174D01*
X24706250Y-39775000D01*
X25268750Y-39775000D01*
X25292642Y-39776174D01*
X25292642Y-39776174D01*
G37*
D14*
X24987500Y-40262500D03*
D13*
G36*
X25292642Y-41351174D02*
X25316303Y-41354684D01*
X25339507Y-41360496D01*
X25362029Y-41368554D01*
X25383653Y-41378782D01*
X25404170Y-41391079D01*
X25423383Y-41405329D01*
X25441107Y-41421393D01*
X25457171Y-41439117D01*
X25471421Y-41458330D01*
X25483718Y-41478847D01*
X25493946Y-41500471D01*
X25502004Y-41522993D01*
X25507816Y-41546197D01*
X25511326Y-41569858D01*
X25512500Y-41593750D01*
X25512500Y-42081250D01*
X25511326Y-42105142D01*
X25507816Y-42128803D01*
X25502004Y-42152007D01*
X25493946Y-42174529D01*
X25483718Y-42196153D01*
X25471421Y-42216670D01*
X25457171Y-42235883D01*
X25441107Y-42253607D01*
X25423383Y-42269671D01*
X25404170Y-42283921D01*
X25383653Y-42296218D01*
X25362029Y-42306446D01*
X25339507Y-42314504D01*
X25316303Y-42320316D01*
X25292642Y-42323826D01*
X25268750Y-42325000D01*
X24706250Y-42325000D01*
X24682358Y-42323826D01*
X24658697Y-42320316D01*
X24635493Y-42314504D01*
X24612971Y-42306446D01*
X24591347Y-42296218D01*
X24570830Y-42283921D01*
X24551617Y-42269671D01*
X24533893Y-42253607D01*
X24517829Y-42235883D01*
X24503579Y-42216670D01*
X24491282Y-42196153D01*
X24481054Y-42174529D01*
X24472996Y-42152007D01*
X24467184Y-42128803D01*
X24463674Y-42105142D01*
X24462500Y-42081250D01*
X24462500Y-41593750D01*
X24463674Y-41569858D01*
X24467184Y-41546197D01*
X24472996Y-41522993D01*
X24481054Y-41500471D01*
X24491282Y-41478847D01*
X24503579Y-41458330D01*
X24517829Y-41439117D01*
X24533893Y-41421393D01*
X24551617Y-41405329D01*
X24570830Y-41391079D01*
X24591347Y-41378782D01*
X24612971Y-41368554D01*
X24635493Y-41360496D01*
X24658697Y-41354684D01*
X24682358Y-41351174D01*
X24706250Y-41350000D01*
X25268750Y-41350000D01*
X25292642Y-41351174D01*
X25292642Y-41351174D01*
G37*
D14*
X24987500Y-41837500D03*
D15*
X22400000Y-48650000D03*
X22400000Y-46750000D03*
X20400000Y-47700000D03*
D13*
G36*
X17005142Y-46226174D02*
X17028803Y-46229684D01*
X17052007Y-46235496D01*
X17074529Y-46243554D01*
X17096153Y-46253782D01*
X17116670Y-46266079D01*
X17135883Y-46280329D01*
X17153607Y-46296393D01*
X17169671Y-46314117D01*
X17183921Y-46333330D01*
X17196218Y-46353847D01*
X17206446Y-46375471D01*
X17214504Y-46397993D01*
X17220316Y-46421197D01*
X17223826Y-46444858D01*
X17225000Y-46468750D01*
X17225000Y-46956250D01*
X17223826Y-46980142D01*
X17220316Y-47003803D01*
X17214504Y-47027007D01*
X17206446Y-47049529D01*
X17196218Y-47071153D01*
X17183921Y-47091670D01*
X17169671Y-47110883D01*
X17153607Y-47128607D01*
X17135883Y-47144671D01*
X17116670Y-47158921D01*
X17096153Y-47171218D01*
X17074529Y-47181446D01*
X17052007Y-47189504D01*
X17028803Y-47195316D01*
X17005142Y-47198826D01*
X16981250Y-47200000D01*
X16418750Y-47200000D01*
X16394858Y-47198826D01*
X16371197Y-47195316D01*
X16347993Y-47189504D01*
X16325471Y-47181446D01*
X16303847Y-47171218D01*
X16283330Y-47158921D01*
X16264117Y-47144671D01*
X16246393Y-47128607D01*
X16230329Y-47110883D01*
X16216079Y-47091670D01*
X16203782Y-47071153D01*
X16193554Y-47049529D01*
X16185496Y-47027007D01*
X16179684Y-47003803D01*
X16176174Y-46980142D01*
X16175000Y-46956250D01*
X16175000Y-46468750D01*
X16176174Y-46444858D01*
X16179684Y-46421197D01*
X16185496Y-46397993D01*
X16193554Y-46375471D01*
X16203782Y-46353847D01*
X16216079Y-46333330D01*
X16230329Y-46314117D01*
X16246393Y-46296393D01*
X16264117Y-46280329D01*
X16283330Y-46266079D01*
X16303847Y-46253782D01*
X16325471Y-46243554D01*
X16347993Y-46235496D01*
X16371197Y-46229684D01*
X16394858Y-46226174D01*
X16418750Y-46225000D01*
X16981250Y-46225000D01*
X17005142Y-46226174D01*
X17005142Y-46226174D01*
G37*
D14*
X16700000Y-46712500D03*
D13*
G36*
X17005142Y-47801174D02*
X17028803Y-47804684D01*
X17052007Y-47810496D01*
X17074529Y-47818554D01*
X17096153Y-47828782D01*
X17116670Y-47841079D01*
X17135883Y-47855329D01*
X17153607Y-47871393D01*
X17169671Y-47889117D01*
X17183921Y-47908330D01*
X17196218Y-47928847D01*
X17206446Y-47950471D01*
X17214504Y-47972993D01*
X17220316Y-47996197D01*
X17223826Y-48019858D01*
X17225000Y-48043750D01*
X17225000Y-48531250D01*
X17223826Y-48555142D01*
X17220316Y-48578803D01*
X17214504Y-48602007D01*
X17206446Y-48624529D01*
X17196218Y-48646153D01*
X17183921Y-48666670D01*
X17169671Y-48685883D01*
X17153607Y-48703607D01*
X17135883Y-48719671D01*
X17116670Y-48733921D01*
X17096153Y-48746218D01*
X17074529Y-48756446D01*
X17052007Y-48764504D01*
X17028803Y-48770316D01*
X17005142Y-48773826D01*
X16981250Y-48775000D01*
X16418750Y-48775000D01*
X16394858Y-48773826D01*
X16371197Y-48770316D01*
X16347993Y-48764504D01*
X16325471Y-48756446D01*
X16303847Y-48746218D01*
X16283330Y-48733921D01*
X16264117Y-48719671D01*
X16246393Y-48703607D01*
X16230329Y-48685883D01*
X16216079Y-48666670D01*
X16203782Y-48646153D01*
X16193554Y-48624529D01*
X16185496Y-48602007D01*
X16179684Y-48578803D01*
X16176174Y-48555142D01*
X16175000Y-48531250D01*
X16175000Y-48043750D01*
X16176174Y-48019858D01*
X16179684Y-47996197D01*
X16185496Y-47972993D01*
X16193554Y-47950471D01*
X16203782Y-47928847D01*
X16216079Y-47908330D01*
X16230329Y-47889117D01*
X16246393Y-47871393D01*
X16264117Y-47855329D01*
X16283330Y-47841079D01*
X16303847Y-47828782D01*
X16325471Y-47818554D01*
X16347993Y-47810496D01*
X16371197Y-47804684D01*
X16394858Y-47801174D01*
X16418750Y-47800000D01*
X16981250Y-47800000D01*
X17005142Y-47801174D01*
X17005142Y-47801174D01*
G37*
D14*
X16700000Y-48287500D03*
D13*
G36*
X5981104Y-51651302D02*
X6007352Y-51655196D01*
X6033093Y-51661643D01*
X6058078Y-51670583D01*
X6082066Y-51681928D01*
X6104826Y-51695571D01*
X6126140Y-51711378D01*
X6145802Y-51729198D01*
X6163622Y-51748860D01*
X6179429Y-51770174D01*
X6193072Y-51792934D01*
X6204417Y-51816922D01*
X6213357Y-51841907D01*
X6219804Y-51867648D01*
X6223698Y-51893896D01*
X6225000Y-51920400D01*
X6225000Y-52679600D01*
X6223698Y-52706104D01*
X6219804Y-52732352D01*
X6213357Y-52758093D01*
X6204417Y-52783078D01*
X6193072Y-52807066D01*
X6179429Y-52829826D01*
X6163622Y-52851140D01*
X6145802Y-52870802D01*
X6126140Y-52888622D01*
X6104826Y-52904429D01*
X6082066Y-52918072D01*
X6058078Y-52929417D01*
X6033093Y-52938357D01*
X6007352Y-52944804D01*
X5981104Y-52948698D01*
X5954600Y-52950000D01*
X4645400Y-52950000D01*
X4618896Y-52948698D01*
X4592648Y-52944804D01*
X4566907Y-52938357D01*
X4541922Y-52929417D01*
X4517934Y-52918072D01*
X4495174Y-52904429D01*
X4473860Y-52888622D01*
X4454198Y-52870802D01*
X4436378Y-52851140D01*
X4420571Y-52829826D01*
X4406928Y-52807066D01*
X4395583Y-52783078D01*
X4386643Y-52758093D01*
X4380196Y-52732352D01*
X4376302Y-52706104D01*
X4375000Y-52679600D01*
X4375000Y-51920400D01*
X4376302Y-51893896D01*
X4380196Y-51867648D01*
X4386643Y-51841907D01*
X4395583Y-51816922D01*
X4406928Y-51792934D01*
X4420571Y-51770174D01*
X4436378Y-51748860D01*
X4454198Y-51729198D01*
X4473860Y-51711378D01*
X4495174Y-51695571D01*
X4517934Y-51681928D01*
X4541922Y-51670583D01*
X4566907Y-51661643D01*
X4592648Y-51655196D01*
X4618896Y-51651302D01*
X4645400Y-51650000D01*
X5954600Y-51650000D01*
X5981104Y-51651302D01*
X5981104Y-51651302D01*
G37*
D36*
X5300000Y-52300000D03*
D37*
X5300000Y-54300000D03*
D12*
X17600000Y-57950000D03*
X19500000Y-57950000D03*
X18550000Y-55950000D03*
M02*
