%TF.GenerationSoftware,KiCad,Pcbnew,6.0.11+dfsg-1*%
%TF.CreationDate,2024-04-11T02:19:39+03:00*%
%TF.ProjectId,LocalTrack,4c6f6361-6c54-4726-9163-6b2e6b696361,1.3*%
%TF.SameCoordinates,PX7270e00PY47868c0*%
%TF.FileFunction,Legend,Bot*%
%TF.FilePolarity,Positive*%
%FSLAX46Y46*%
G04 Gerber Fmt 4.6, Leading zero omitted, Abs format (unit mm)*
G04 Created by KiCad (PCBNEW 6.0.11+dfsg-1) date 2024-04-11 02:19:39*
%MOMM*%
%LPD*%
G01*
G04 APERTURE LIST*
G04 Aperture macros list*
%AMRoundRect*
0 Rectangle with rounded corners*
0 $1 Rounding radius*
0 $2 $3 $4 $5 $6 $7 $8 $9 X,Y pos of 4 corners*
0 Add a 4 corners polygon primitive as box body*
4,1,4,$2,$3,$4,$5,$6,$7,$8,$9,$2,$3,0*
0 Add four circle primitives for the rounded corners*
1,1,$1+$1,$2,$3*
1,1,$1+$1,$4,$5*
1,1,$1+$1,$6,$7*
1,1,$1+$1,$8,$9*
0 Add four rect primitives between the rounded corners*
20,1,$1+$1,$2,$3,$4,$5,0*
20,1,$1+$1,$4,$5,$6,$7,0*
20,1,$1+$1,$6,$7,$8,$9,0*
20,1,$1+$1,$8,$9,$2,$3,0*%
G04 Aperture macros list end*
%ADD10C,0.150000*%
%ADD11C,0.120000*%
%ADD12C,0.700000*%
%ADD13O,1.200000X1.900000*%
%ADD14C,3.300000*%
%ADD15RoundRect,0.050000X0.850000X0.850000X-0.850000X0.850000X-0.850000X-0.850000X0.850000X-0.850000X0*%
%ADD16O,1.800000X1.800000*%
%ADD17RoundRect,0.299600X-0.625400X0.350400X-0.625400X-0.350400X0.625400X-0.350400X0.625400X0.350400X0*%
%ADD18O,1.850000X1.300000*%
%ADD19RoundRect,0.268750X-0.218750X-0.256250X0.218750X-0.256250X0.218750X0.256250X-0.218750X0.256250X0*%
%ADD20RoundRect,0.268750X-0.256250X0.218750X-0.256250X-0.218750X0.256250X-0.218750X0.256250X0.218750X0*%
%ADD21C,1.600000*%
%ADD22RoundRect,0.050000X-0.450000X-0.400000X0.450000X-0.400000X0.450000X0.400000X-0.450000X0.400000X0*%
%ADD23RoundRect,0.050000X0.900000X1.500000X-0.900000X1.500000X-0.900000X-1.500000X0.900000X-1.500000X0*%
G04 APERTURE END LIST*
D10*
X36366666Y-64352380D02*
X36700000Y-63876190D01*
X36938095Y-64352380D02*
X36938095Y-63352380D01*
X36557142Y-63352380D01*
X36461904Y-63400000D01*
X36414285Y-63447619D01*
X36366666Y-63542857D01*
X36366666Y-63685714D01*
X36414285Y-63780952D01*
X36461904Y-63828571D01*
X36557142Y-63876190D01*
X36938095Y-63876190D01*
X35985714Y-63447619D02*
X35938095Y-63400000D01*
X35842857Y-63352380D01*
X35604761Y-63352380D01*
X35509523Y-63400000D01*
X35461904Y-63447619D01*
X35414285Y-63542857D01*
X35414285Y-63638095D01*
X35461904Y-63780952D01*
X36033333Y-64352380D01*
X35414285Y-64352380D01*
X34602380Y-71861904D02*
X33602380Y-71861904D01*
X33602380Y-72100000D01*
X33650000Y-72242857D01*
X33745238Y-72338095D01*
X33840476Y-72385714D01*
X34030952Y-72433333D01*
X34173809Y-72433333D01*
X34364285Y-72385714D01*
X34459523Y-72338095D01*
X34554761Y-72242857D01*
X34602380Y-72100000D01*
X34602380Y-71861904D01*
X33697619Y-72814285D02*
X33650000Y-72861904D01*
X33602380Y-72957142D01*
X33602380Y-73195238D01*
X33650000Y-73290476D01*
X33697619Y-73338095D01*
X33792857Y-73385714D01*
X33888095Y-73385714D01*
X34030952Y-73338095D01*
X34602380Y-72766666D01*
X34602380Y-73385714D01*
X26166666Y-48666666D02*
X25690476Y-48666666D01*
X26261904Y-48952380D02*
X25928571Y-47952380D01*
X25595238Y-48952380D01*
X25261904Y-48428571D02*
X24928571Y-48428571D01*
X24785714Y-48952380D02*
X25261904Y-48952380D01*
X25261904Y-47952380D01*
X24785714Y-47952380D01*
X24404761Y-48047619D02*
X24357142Y-48000000D01*
X24261904Y-47952380D01*
X24023809Y-47952380D01*
X23928571Y-48000000D01*
X23880952Y-48047619D01*
X23833333Y-48142857D01*
X23833333Y-48238095D01*
X23880952Y-48380952D01*
X24452380Y-48952380D01*
X23833333Y-48952380D01*
X39402380Y-71861904D02*
X38402380Y-71861904D01*
X38402380Y-72100000D01*
X38450000Y-72242857D01*
X38545238Y-72338095D01*
X38640476Y-72385714D01*
X38830952Y-72433333D01*
X38973809Y-72433333D01*
X39164285Y-72385714D01*
X39259523Y-72338095D01*
X39354761Y-72242857D01*
X39402380Y-72100000D01*
X39402380Y-71861904D01*
X39402380Y-73385714D02*
X39402380Y-72814285D01*
X39402380Y-73100000D02*
X38402380Y-73100000D01*
X38545238Y-73004761D01*
X38640476Y-72909523D01*
X38688095Y-72814285D01*
X34747619Y-68104761D02*
X34700000Y-68009523D01*
X34604761Y-67914285D01*
X34461904Y-67771428D01*
X34414285Y-67676190D01*
X34414285Y-67580952D01*
X34652380Y-67628571D02*
X34604761Y-67533333D01*
X34509523Y-67438095D01*
X34319047Y-67390476D01*
X33985714Y-67390476D01*
X33795238Y-67438095D01*
X33700000Y-67533333D01*
X33652380Y-67628571D01*
X33652380Y-67819047D01*
X33700000Y-67914285D01*
X33795238Y-68009523D01*
X33985714Y-68057142D01*
X34319047Y-68057142D01*
X34509523Y-68009523D01*
X34604761Y-67914285D01*
X34652380Y-67819047D01*
X34652380Y-67628571D01*
X34652380Y-69009523D02*
X34652380Y-68438095D01*
X34652380Y-68723809D02*
X33652380Y-68723809D01*
X33795238Y-68628571D01*
X33890476Y-68533333D01*
X33938095Y-68438095D01*
X15361904Y-57852380D02*
X14790476Y-57852380D01*
X15076190Y-58852380D02*
X15076190Y-57852380D01*
X14457142Y-58852380D02*
X14457142Y-57852380D01*
X14076190Y-57852380D01*
X13980952Y-57900000D01*
X13933333Y-57947619D01*
X13885714Y-58042857D01*
X13885714Y-58185714D01*
X13933333Y-58280952D01*
X13980952Y-58328571D01*
X14076190Y-58376190D01*
X14457142Y-58376190D01*
X12933333Y-58852380D02*
X13504761Y-58852380D01*
X13219047Y-58852380D02*
X13219047Y-57852380D01*
X13314285Y-57995238D01*
X13409523Y-58090476D01*
X13504761Y-58138095D01*
D11*
X35537221Y-64690000D02*
X35862779Y-64690000D01*
X35537221Y-65710000D02*
X35862779Y-65710000D01*
X34765000Y-71115000D02*
X36235000Y-71115000D01*
X34765000Y-73400000D02*
X34765000Y-71115000D01*
X36235000Y-71115000D02*
X36235000Y-73400000D01*
D10*
X37500000Y-47000000D02*
X37500000Y-22000000D01*
X12500000Y-22000000D02*
X37500000Y-22000000D01*
X12500000Y-47000000D02*
X37500000Y-47000000D01*
X12500000Y-47000000D02*
X12500000Y-22000000D01*
D11*
X36765000Y-73400000D02*
X36765000Y-71115000D01*
X36765000Y-71115000D02*
X38235000Y-71115000D01*
X38235000Y-71115000D02*
X38235000Y-73400000D01*
X37260000Y-69780000D02*
X37260000Y-68850000D01*
X37260000Y-66620000D02*
X35800000Y-66620000D01*
X37260000Y-66620000D02*
X37260000Y-67550000D01*
X37260000Y-69780000D02*
X35100000Y-69780000D01*
%LPC*%
D12*
X34500000Y-70700000D03*
X38500000Y-70700000D03*
D13*
X40100000Y-72800000D03*
X40100000Y-69300000D03*
X32900000Y-72800000D03*
X32900000Y-69300000D03*
D14*
X5000000Y-62500000D03*
X45000000Y-62500000D03*
X45000000Y-12500000D03*
X5000000Y-12500000D03*
D15*
X45700000Y-54900000D03*
D16*
X45700000Y-52360000D03*
X45700000Y-49820000D03*
X45700000Y-47280000D03*
X45700000Y-44740000D03*
D17*
X5300000Y-52300000D03*
D18*
X5300000Y-54300000D03*
D19*
X34912500Y-65200000D03*
X36487500Y-65200000D03*
D20*
X35500000Y-71812500D03*
X35500000Y-73387500D03*
D21*
X25000000Y-37500000D03*
D20*
X37500000Y-71812500D03*
X37500000Y-73387500D03*
D22*
X35500000Y-69150000D03*
X35500000Y-67250000D03*
X37500000Y-68200000D03*
D23*
X15300000Y-60800000D03*
X12800000Y-60800000D03*
M02*
