%TF.GenerationSoftware,KiCad,Pcbnew,6.0.11+dfsg-1*%
%TF.CreationDate,2024-04-11T02:19:39+03:00*%
%TF.ProjectId,LocalTrack,4c6f6361-6c54-4726-9163-6b2e6b696361,1.3*%
%TF.SameCoordinates,PX7270e00PY47868c0*%
%TF.FileFunction,Legend,Top*%
%TF.FilePolarity,Positive*%
%FSLAX46Y46*%
G04 Gerber Fmt 4.6, Leading zero omitted, Abs format (unit mm)*
G04 Created by KiCad (PCBNEW 6.0.11+dfsg-1) date 2024-04-11 02:19:39*
%MOMM*%
%LPD*%
G01*
G04 APERTURE LIST*
G04 Aperture macros list*
%AMRoundRect*
0 Rectangle with rounded corners*
0 $1 Rounding radius*
0 $2 $3 $4 $5 $6 $7 $8 $9 X,Y pos of 4 corners*
0 Add a 4 corners polygon primitive as box body*
4,1,4,$2,$3,$4,$5,$6,$7,$8,$9,$2,$3,0*
0 Add four circle primitives for the rounded corners*
1,1,$1+$1,$2,$3*
1,1,$1+$1,$4,$5*
1,1,$1+$1,$6,$7*
1,1,$1+$1,$8,$9*
0 Add four rect primitives between the rounded corners*
20,1,$1+$1,$2,$3,$4,$5,0*
20,1,$1+$1,$4,$5,$6,$7,0*
20,1,$1+$1,$6,$7,$8,$9,0*
20,1,$1+$1,$8,$9,$2,$3,0*%
G04 Aperture macros list end*
%ADD10C,0.150000*%
%ADD11C,0.120000*%
%ADD12C,0.700000*%
%ADD13RoundRect,0.050000X-0.200000X-0.950000X0.200000X-0.950000X0.200000X0.950000X-0.200000X0.950000X0*%
%ADD14RoundRect,0.050000X-0.550000X-0.500000X0.550000X-0.500000X0.550000X0.500000X-0.550000X0.500000X0*%
%ADD15O,1.200000X1.900000*%
%ADD16RoundRect,0.050000X-0.300000X0.500000X-0.300000X-0.500000X0.300000X-0.500000X0.300000X0.500000X0*%
%ADD17RoundRect,0.050000X-2.000000X1.600000X-2.000000X-1.600000X2.000000X-1.600000X2.000000X1.600000X0*%
%ADD18RoundRect,0.050000X0.350000X-0.800000X0.350000X0.800000X-0.350000X0.800000X-0.350000X-0.800000X0*%
%ADD19C,3.300000*%
%ADD20RoundRect,0.268750X-0.218750X-0.256250X0.218750X-0.256250X0.218750X0.256250X-0.218750X0.256250X0*%
%ADD21RoundRect,0.050000X0.350000X0.255000X-0.350000X0.255000X-0.350000X-0.255000X0.350000X-0.255000X0*%
%ADD22RoundRect,0.268750X0.256250X-0.218750X0.256250X0.218750X-0.256250X0.218750X-0.256250X-0.218750X0*%
%ADD23RoundRect,0.268750X0.218750X0.256250X-0.218750X0.256250X-0.218750X-0.256250X0.218750X-0.256250X0*%
%ADD24RoundRect,0.050000X-0.125000X0.650000X-0.125000X-0.650000X0.125000X-0.650000X0.125000X0.650000X0*%
%ADD25RoundRect,0.050000X-0.650000X-0.125000X0.650000X-0.125000X0.650000X0.125000X-0.650000X0.125000X0*%
%ADD26RoundRect,0.050000X-0.325000X0.530000X-0.325000X-0.530000X0.325000X-0.530000X0.325000X0.530000X0*%
%ADD27RoundRect,0.268750X-0.256250X0.218750X-0.256250X-0.218750X0.256250X-0.218750X0.256250X0.218750X0*%
%ADD28RoundRect,0.050000X0.450000X0.400000X-0.450000X0.400000X-0.450000X-0.400000X0.450000X-0.400000X0*%
%ADD29RoundRect,0.050000X0.850000X0.850000X-0.850000X0.850000X-0.850000X-0.850000X0.850000X-0.850000X0*%
%ADD30O,1.800000X1.800000*%
%ADD31RoundRect,0.050000X0.475000X0.300000X-0.475000X0.300000X-0.475000X-0.300000X0.475000X-0.300000X0*%
%ADD32RoundRect,0.050000X0.300000X0.475000X-0.300000X0.475000X-0.300000X-0.475000X0.300000X-0.475000X0*%
%ADD33RoundRect,0.050000X1.200000X-1.000000X1.200000X1.000000X-1.200000X1.000000X-1.200000X-1.000000X0*%
%ADD34RoundRect,0.293750X0.456250X-0.243750X0.456250X0.243750X-0.456250X0.243750X-0.456250X-0.243750X0*%
%ADD35RoundRect,0.293750X-0.456250X0.243750X-0.456250X-0.243750X0.456250X-0.243750X0.456250X0.243750X0*%
%ADD36RoundRect,0.050000X-0.400000X0.450000X-0.400000X-0.450000X0.400000X-0.450000X0.400000X0.450000X0*%
%ADD37RoundRect,0.299600X-0.625400X0.350400X-0.625400X-0.350400X0.625400X-0.350400X0.625400X0.350400X0*%
%ADD38O,1.850000X1.300000*%
%ADD39RoundRect,0.050000X0.400000X-0.450000X0.400000X0.450000X-0.400000X0.450000X-0.400000X-0.450000X0*%
%ADD40RoundRect,0.293750X-0.243750X-0.456250X0.243750X-0.456250X0.243750X0.456250X-0.243750X0.456250X0*%
%ADD41RoundRect,0.050000X-0.650000X-1.300000X0.650000X-1.300000X0.650000X1.300000X-0.650000X1.300000X0*%
%ADD42C,1.600000*%
G04 APERTURE END LIST*
D10*
X2761904Y-32466666D02*
X2761904Y-32847619D01*
X1961904Y-32847619D01*
X2761904Y-32085714D02*
X2723809Y-32161904D01*
X2685714Y-32200000D01*
X2609523Y-32238095D01*
X2380952Y-32238095D01*
X2304761Y-32200000D01*
X2266666Y-32161904D01*
X2228571Y-32085714D01*
X2228571Y-31971428D01*
X2266666Y-31895238D01*
X2304761Y-31857142D01*
X2380952Y-31819047D01*
X2609523Y-31819047D01*
X2685714Y-31857142D01*
X2723809Y-31895238D01*
X2761904Y-31971428D01*
X2761904Y-32085714D01*
X2723809Y-31133333D02*
X2761904Y-31209523D01*
X2761904Y-31361904D01*
X2723809Y-31438095D01*
X2685714Y-31476190D01*
X2609523Y-31514285D01*
X2380952Y-31514285D01*
X2304761Y-31476190D01*
X2266666Y-31438095D01*
X2228571Y-31361904D01*
X2228571Y-31209523D01*
X2266666Y-31133333D01*
X2761904Y-30447619D02*
X2342857Y-30447619D01*
X2266666Y-30485714D01*
X2228571Y-30561904D01*
X2228571Y-30714285D01*
X2266666Y-30790476D01*
X2723809Y-30447619D02*
X2761904Y-30523809D01*
X2761904Y-30714285D01*
X2723809Y-30790476D01*
X2647619Y-30828571D01*
X2571428Y-30828571D01*
X2495238Y-30790476D01*
X2457142Y-30714285D01*
X2457142Y-30523809D01*
X2419047Y-30447619D01*
X2761904Y-29952380D02*
X2723809Y-30028571D01*
X2647619Y-30066666D01*
X1961904Y-30066666D01*
X1961904Y-29761904D02*
X1961904Y-29304761D01*
X2761904Y-29533333D02*
X1961904Y-29533333D01*
X2761904Y-29038095D02*
X2228571Y-29038095D01*
X2380952Y-29038095D02*
X2304761Y-29000000D01*
X2266666Y-28961904D01*
X2228571Y-28885714D01*
X2228571Y-28809523D01*
X2761904Y-28200000D02*
X2342857Y-28200000D01*
X2266666Y-28238095D01*
X2228571Y-28314285D01*
X2228571Y-28466666D01*
X2266666Y-28542857D01*
X2723809Y-28200000D02*
X2761904Y-28276190D01*
X2761904Y-28466666D01*
X2723809Y-28542857D01*
X2647619Y-28580952D01*
X2571428Y-28580952D01*
X2495238Y-28542857D01*
X2457142Y-28466666D01*
X2457142Y-28276190D01*
X2419047Y-28200000D01*
X2723809Y-27476190D02*
X2761904Y-27552380D01*
X2761904Y-27704761D01*
X2723809Y-27780952D01*
X2685714Y-27819047D01*
X2609523Y-27857142D01*
X2380952Y-27857142D01*
X2304761Y-27819047D01*
X2266666Y-27780952D01*
X2228571Y-27704761D01*
X2228571Y-27552380D01*
X2266666Y-27476190D01*
X2761904Y-27133333D02*
X1961904Y-27133333D01*
X2457142Y-27057142D02*
X2761904Y-26828571D01*
X2228571Y-26828571D02*
X2533333Y-27133333D01*
X2838095Y-26676190D02*
X2838095Y-26066666D01*
X2761904Y-25876190D02*
X2228571Y-25876190D01*
X2380952Y-25876190D02*
X2304761Y-25838095D01*
X2266666Y-25800000D01*
X2228571Y-25723809D01*
X2228571Y-25647619D01*
X2723809Y-25076190D02*
X2761904Y-25152380D01*
X2761904Y-25304761D01*
X2723809Y-25380952D01*
X2647619Y-25419047D01*
X2342857Y-25419047D01*
X2266666Y-25380952D01*
X2228571Y-25304761D01*
X2228571Y-25152380D01*
X2266666Y-25076190D01*
X2342857Y-25038095D01*
X2419047Y-25038095D01*
X2495238Y-25419047D01*
X2228571Y-24771428D02*
X2761904Y-24580952D01*
X2228571Y-24390476D01*
X2838095Y-24276190D02*
X2838095Y-23666666D01*
X2761904Y-23057142D02*
X2761904Y-23514285D01*
X2761904Y-23285714D02*
X1961904Y-23285714D01*
X2076190Y-23361904D01*
X2152380Y-23438095D01*
X2190476Y-23514285D01*
X2685714Y-22714285D02*
X2723809Y-22676190D01*
X2761904Y-22714285D01*
X2723809Y-22752380D01*
X2685714Y-22714285D01*
X2761904Y-22714285D01*
X1961904Y-22409523D02*
X1961904Y-21914285D01*
X2266666Y-22180952D01*
X2266666Y-22066666D01*
X2304761Y-21990476D01*
X2342857Y-21952380D01*
X2419047Y-21914285D01*
X2609523Y-21914285D01*
X2685714Y-21952380D01*
X2723809Y-21990476D01*
X2761904Y-22066666D01*
X2761904Y-22295238D01*
X2723809Y-22371428D01*
X2685714Y-22409523D01*
X37366666Y-67252380D02*
X37366666Y-67966666D01*
X37319047Y-68109523D01*
X37223809Y-68204761D01*
X37080952Y-68252380D01*
X36985714Y-68252380D01*
X38366666Y-68252380D02*
X37795238Y-68252380D01*
X38080952Y-68252380D02*
X38080952Y-67252380D01*
X37985714Y-67395238D01*
X37890476Y-67490476D01*
X37795238Y-67538095D01*
X1652380Y-43261904D02*
X2461904Y-43261904D01*
X2557142Y-43214285D01*
X2604761Y-43166666D01*
X2652380Y-43071428D01*
X2652380Y-42880952D01*
X2604761Y-42785714D01*
X2557142Y-42738095D01*
X2461904Y-42690476D01*
X1652380Y-42690476D01*
X1652380Y-41785714D02*
X1652380Y-41976190D01*
X1700000Y-42071428D01*
X1747619Y-42119047D01*
X1890476Y-42214285D01*
X2080952Y-42261904D01*
X2461904Y-42261904D01*
X2557142Y-42214285D01*
X2604761Y-42166666D01*
X2652380Y-42071428D01*
X2652380Y-41880952D01*
X2604761Y-41785714D01*
X2557142Y-41738095D01*
X2461904Y-41690476D01*
X2223809Y-41690476D01*
X2128571Y-41738095D01*
X2080952Y-41785714D01*
X2033333Y-41880952D01*
X2033333Y-42071428D01*
X2080952Y-42166666D01*
X2128571Y-42214285D01*
X2223809Y-42261904D01*
X27652380Y-28561904D02*
X28461904Y-28561904D01*
X28557142Y-28514285D01*
X28604761Y-28466666D01*
X28652380Y-28371428D01*
X28652380Y-28180952D01*
X28604761Y-28085714D01*
X28557142Y-28038095D01*
X28461904Y-27990476D01*
X27652380Y-27990476D01*
X28652380Y-27466666D02*
X28652380Y-27276190D01*
X28604761Y-27180952D01*
X28557142Y-27133333D01*
X28414285Y-27038095D01*
X28223809Y-26990476D01*
X27842857Y-26990476D01*
X27747619Y-27038095D01*
X27700000Y-27085714D01*
X27652380Y-27180952D01*
X27652380Y-27371428D01*
X27700000Y-27466666D01*
X27747619Y-27514285D01*
X27842857Y-27561904D01*
X28080952Y-27561904D01*
X28176190Y-27514285D01*
X28223809Y-27466666D01*
X28271428Y-27371428D01*
X28271428Y-27180952D01*
X28223809Y-27085714D01*
X28176190Y-27038095D01*
X28080952Y-26990476D01*
X46520833Y-19527142D02*
X46473214Y-19574761D01*
X46330357Y-19622380D01*
X46235119Y-19622380D01*
X46092261Y-19574761D01*
X45997023Y-19479523D01*
X45949404Y-19384285D01*
X45901785Y-19193809D01*
X45901785Y-19050952D01*
X45949404Y-18860476D01*
X45997023Y-18765238D01*
X46092261Y-18670000D01*
X46235119Y-18622380D01*
X46330357Y-18622380D01*
X46473214Y-18670000D01*
X46520833Y-18717619D01*
X46901785Y-18717619D02*
X46949404Y-18670000D01*
X47044642Y-18622380D01*
X47282738Y-18622380D01*
X47377976Y-18670000D01*
X47425595Y-18717619D01*
X47473214Y-18812857D01*
X47473214Y-18908095D01*
X47425595Y-19050952D01*
X46854166Y-19622380D01*
X47473214Y-19622380D01*
X38352380Y-65961904D02*
X39161904Y-65961904D01*
X39257142Y-65914285D01*
X39304761Y-65866666D01*
X39352380Y-65771428D01*
X39352380Y-65580952D01*
X39304761Y-65485714D01*
X39257142Y-65438095D01*
X39161904Y-65390476D01*
X38352380Y-65390476D01*
X38447619Y-64961904D02*
X38400000Y-64914285D01*
X38352380Y-64819047D01*
X38352380Y-64580952D01*
X38400000Y-64485714D01*
X38447619Y-64438095D01*
X38542857Y-64390476D01*
X38638095Y-64390476D01*
X38780952Y-64438095D01*
X39352380Y-65009523D01*
X39352380Y-64390476D01*
X43552380Y-40166666D02*
X43076190Y-40500000D01*
X43552380Y-40738095D02*
X42552380Y-40738095D01*
X42552380Y-40357142D01*
X42600000Y-40261904D01*
X42647619Y-40214285D01*
X42742857Y-40166666D01*
X42885714Y-40166666D01*
X42980952Y-40214285D01*
X43028571Y-40261904D01*
X43076190Y-40357142D01*
X43076190Y-40738095D01*
X42885714Y-39309523D02*
X43552380Y-39309523D01*
X42504761Y-39547619D02*
X43219047Y-39785714D01*
X43219047Y-39166666D01*
X48557142Y-40166666D02*
X48604761Y-40214285D01*
X48652380Y-40357142D01*
X48652380Y-40452380D01*
X48604761Y-40595238D01*
X48509523Y-40690476D01*
X48414285Y-40738095D01*
X48223809Y-40785714D01*
X48080952Y-40785714D01*
X47890476Y-40738095D01*
X47795238Y-40690476D01*
X47700000Y-40595238D01*
X47652380Y-40452380D01*
X47652380Y-40357142D01*
X47700000Y-40214285D01*
X47747619Y-40166666D01*
X48652380Y-39690476D02*
X48652380Y-39500000D01*
X48604761Y-39404761D01*
X48557142Y-39357142D01*
X48414285Y-39261904D01*
X48223809Y-39214285D01*
X47842857Y-39214285D01*
X47747619Y-39261904D01*
X47700000Y-39309523D01*
X47652380Y-39404761D01*
X47652380Y-39595238D01*
X47700000Y-39690476D01*
X47747619Y-39738095D01*
X47842857Y-39785714D01*
X48080952Y-39785714D01*
X48176190Y-39738095D01*
X48223809Y-39690476D01*
X48271428Y-39595238D01*
X48271428Y-39404761D01*
X48223809Y-39309523D01*
X48176190Y-39261904D01*
X48080952Y-39214285D01*
X43733333Y-30452380D02*
X43400000Y-29976190D01*
X43161904Y-30452380D02*
X43161904Y-29452380D01*
X43542857Y-29452380D01*
X43638095Y-29500000D01*
X43685714Y-29547619D01*
X43733333Y-29642857D01*
X43733333Y-29785714D01*
X43685714Y-29880952D01*
X43638095Y-29928571D01*
X43542857Y-29976190D01*
X43161904Y-29976190D01*
X44066666Y-29452380D02*
X44685714Y-29452380D01*
X44352380Y-29833333D01*
X44495238Y-29833333D01*
X44590476Y-29880952D01*
X44638095Y-29928571D01*
X44685714Y-30023809D01*
X44685714Y-30261904D01*
X44638095Y-30357142D01*
X44590476Y-30404761D01*
X44495238Y-30452380D01*
X44209523Y-30452380D01*
X44114285Y-30404761D01*
X44066666Y-30357142D01*
X35133333Y-52387142D02*
X35085714Y-52434761D01*
X34942857Y-52482380D01*
X34847619Y-52482380D01*
X34704761Y-52434761D01*
X34609523Y-52339523D01*
X34561904Y-52244285D01*
X34514285Y-52053809D01*
X34514285Y-51910952D01*
X34561904Y-51720476D01*
X34609523Y-51625238D01*
X34704761Y-51530000D01*
X34847619Y-51482380D01*
X34942857Y-51482380D01*
X35085714Y-51530000D01*
X35133333Y-51577619D01*
X35990476Y-51482380D02*
X35800000Y-51482380D01*
X35704761Y-51530000D01*
X35657142Y-51577619D01*
X35561904Y-51720476D01*
X35514285Y-51910952D01*
X35514285Y-52291904D01*
X35561904Y-52387142D01*
X35609523Y-52434761D01*
X35704761Y-52482380D01*
X35895238Y-52482380D01*
X35990476Y-52434761D01*
X36038095Y-52387142D01*
X36085714Y-52291904D01*
X36085714Y-52053809D01*
X36038095Y-51958571D01*
X35990476Y-51910952D01*
X35895238Y-51863333D01*
X35704761Y-51863333D01*
X35609523Y-51910952D01*
X35561904Y-51958571D01*
X35514285Y-52053809D01*
X28738095Y-51852380D02*
X28738095Y-52661904D01*
X28785714Y-52757142D01*
X28833333Y-52804761D01*
X28928571Y-52852380D01*
X29119047Y-52852380D01*
X29214285Y-52804761D01*
X29261904Y-52757142D01*
X29309523Y-52661904D01*
X29309523Y-51852380D01*
X29690476Y-51852380D02*
X30309523Y-51852380D01*
X29976190Y-52233333D01*
X30119047Y-52233333D01*
X30214285Y-52280952D01*
X30261904Y-52328571D01*
X30309523Y-52423809D01*
X30309523Y-52661904D01*
X30261904Y-52757142D01*
X30214285Y-52804761D01*
X30119047Y-52852380D01*
X29833333Y-52852380D01*
X29738095Y-52804761D01*
X29690476Y-52757142D01*
X24352380Y-63061904D02*
X25161904Y-63061904D01*
X25257142Y-63014285D01*
X25304761Y-62966666D01*
X25352380Y-62871428D01*
X25352380Y-62680952D01*
X25304761Y-62585714D01*
X25257142Y-62538095D01*
X25161904Y-62490476D01*
X24352380Y-62490476D01*
X24352380Y-61538095D02*
X24352380Y-62014285D01*
X24828571Y-62061904D01*
X24780952Y-62014285D01*
X24733333Y-61919047D01*
X24733333Y-61680952D01*
X24780952Y-61585714D01*
X24828571Y-61538095D01*
X24923809Y-61490476D01*
X25161904Y-61490476D01*
X25257142Y-61538095D01*
X25304761Y-61585714D01*
X25352380Y-61680952D01*
X25352380Y-61919047D01*
X25304761Y-62014285D01*
X25257142Y-62061904D01*
X45033333Y-28552380D02*
X44700000Y-28076190D01*
X44461904Y-28552380D02*
X44461904Y-27552380D01*
X44842857Y-27552380D01*
X44938095Y-27600000D01*
X44985714Y-27647619D01*
X45033333Y-27742857D01*
X45033333Y-27885714D01*
X44985714Y-27980952D01*
X44938095Y-28028571D01*
X44842857Y-28076190D01*
X44461904Y-28076190D01*
X45985714Y-28552380D02*
X45414285Y-28552380D01*
X45700000Y-28552380D02*
X45700000Y-27552380D01*
X45604761Y-27695238D01*
X45509523Y-27790476D01*
X45414285Y-27838095D01*
X31157142Y-37654166D02*
X31204761Y-37701785D01*
X31252380Y-37844642D01*
X31252380Y-37939880D01*
X31204761Y-38082738D01*
X31109523Y-38177976D01*
X31014285Y-38225595D01*
X30823809Y-38273214D01*
X30680952Y-38273214D01*
X30490476Y-38225595D01*
X30395238Y-38177976D01*
X30300000Y-38082738D01*
X30252380Y-37939880D01*
X30252380Y-37844642D01*
X30300000Y-37701785D01*
X30347619Y-37654166D01*
X30252380Y-37320833D02*
X30252380Y-36701785D01*
X30633333Y-37035119D01*
X30633333Y-36892261D01*
X30680952Y-36797023D01*
X30728571Y-36749404D01*
X30823809Y-36701785D01*
X31061904Y-36701785D01*
X31157142Y-36749404D01*
X31204761Y-36797023D01*
X31252380Y-36892261D01*
X31252380Y-37177976D01*
X31204761Y-37273214D01*
X31157142Y-37320833D01*
X34520833Y-40557142D02*
X34473214Y-40604761D01*
X34330357Y-40652380D01*
X34235119Y-40652380D01*
X34092261Y-40604761D01*
X33997023Y-40509523D01*
X33949404Y-40414285D01*
X33901785Y-40223809D01*
X33901785Y-40080952D01*
X33949404Y-39890476D01*
X33997023Y-39795238D01*
X34092261Y-39700000D01*
X34235119Y-39652380D01*
X34330357Y-39652380D01*
X34473214Y-39700000D01*
X34520833Y-39747619D01*
X35092261Y-40080952D02*
X34997023Y-40033333D01*
X34949404Y-39985714D01*
X34901785Y-39890476D01*
X34901785Y-39842857D01*
X34949404Y-39747619D01*
X34997023Y-39700000D01*
X35092261Y-39652380D01*
X35282738Y-39652380D01*
X35377976Y-39700000D01*
X35425595Y-39747619D01*
X35473214Y-39842857D01*
X35473214Y-39890476D01*
X35425595Y-39985714D01*
X35377976Y-40033333D01*
X35282738Y-40080952D01*
X35092261Y-40080952D01*
X34997023Y-40128571D01*
X34949404Y-40176190D01*
X34901785Y-40271428D01*
X34901785Y-40461904D01*
X34949404Y-40557142D01*
X34997023Y-40604761D01*
X35092261Y-40652380D01*
X35282738Y-40652380D01*
X35377976Y-40604761D01*
X35425595Y-40557142D01*
X35473214Y-40461904D01*
X35473214Y-40271428D01*
X35425595Y-40176190D01*
X35377976Y-40128571D01*
X35282738Y-40080952D01*
X9757142Y-48057142D02*
X9709523Y-48104761D01*
X9566666Y-48152380D01*
X9471428Y-48152380D01*
X9328571Y-48104761D01*
X9233333Y-48009523D01*
X9185714Y-47914285D01*
X9138095Y-47723809D01*
X9138095Y-47580952D01*
X9185714Y-47390476D01*
X9233333Y-47295238D01*
X9328571Y-47200000D01*
X9471428Y-47152380D01*
X9566666Y-47152380D01*
X9709523Y-47200000D01*
X9757142Y-47247619D01*
X10709523Y-48152380D02*
X10138095Y-48152380D01*
X10423809Y-48152380D02*
X10423809Y-47152380D01*
X10328571Y-47295238D01*
X10233333Y-47390476D01*
X10138095Y-47438095D01*
X11566666Y-47485714D02*
X11566666Y-48152380D01*
X11328571Y-47104761D02*
X11090476Y-47819047D01*
X11709523Y-47819047D01*
X28207142Y-34592857D02*
X28254761Y-34640476D01*
X28302380Y-34783333D01*
X28302380Y-34878571D01*
X28254761Y-35021428D01*
X28159523Y-35116666D01*
X28064285Y-35164285D01*
X27873809Y-35211904D01*
X27730952Y-35211904D01*
X27540476Y-35164285D01*
X27445238Y-35116666D01*
X27350000Y-35021428D01*
X27302380Y-34878571D01*
X27302380Y-34783333D01*
X27350000Y-34640476D01*
X27397619Y-34592857D01*
X28302380Y-33640476D02*
X28302380Y-34211904D01*
X28302380Y-33926190D02*
X27302380Y-33926190D01*
X27445238Y-34021428D01*
X27540476Y-34116666D01*
X27588095Y-34211904D01*
X27302380Y-32783333D02*
X27302380Y-32973809D01*
X27350000Y-33069047D01*
X27397619Y-33116666D01*
X27540476Y-33211904D01*
X27730952Y-33259523D01*
X28111904Y-33259523D01*
X28207142Y-33211904D01*
X28254761Y-33164285D01*
X28302380Y-33069047D01*
X28302380Y-32878571D01*
X28254761Y-32783333D01*
X28207142Y-32735714D01*
X28111904Y-32688095D01*
X27873809Y-32688095D01*
X27778571Y-32735714D01*
X27730952Y-32783333D01*
X27683333Y-32878571D01*
X27683333Y-33069047D01*
X27730952Y-33164285D01*
X27778571Y-33211904D01*
X27873809Y-33259523D01*
X11757142Y-17727142D02*
X11709523Y-17774761D01*
X11566666Y-17822380D01*
X11471428Y-17822380D01*
X11328571Y-17774761D01*
X11233333Y-17679523D01*
X11185714Y-17584285D01*
X11138095Y-17393809D01*
X11138095Y-17250952D01*
X11185714Y-17060476D01*
X11233333Y-16965238D01*
X11328571Y-16870000D01*
X11471428Y-16822380D01*
X11566666Y-16822380D01*
X11709523Y-16870000D01*
X11757142Y-16917619D01*
X12709523Y-17822380D02*
X12138095Y-17822380D01*
X12423809Y-17822380D02*
X12423809Y-16822380D01*
X12328571Y-16965238D01*
X12233333Y-17060476D01*
X12138095Y-17108095D01*
X13185714Y-17822380D02*
X13376190Y-17822380D01*
X13471428Y-17774761D01*
X13519047Y-17727142D01*
X13614285Y-17584285D01*
X13661904Y-17393809D01*
X13661904Y-17012857D01*
X13614285Y-16917619D01*
X13566666Y-16870000D01*
X13471428Y-16822380D01*
X13280952Y-16822380D01*
X13185714Y-16870000D01*
X13138095Y-16917619D01*
X13090476Y-17012857D01*
X13090476Y-17250952D01*
X13138095Y-17346190D01*
X13185714Y-17393809D01*
X13280952Y-17441428D01*
X13471428Y-17441428D01*
X13566666Y-17393809D01*
X13614285Y-17346190D01*
X13661904Y-17250952D01*
X6447619Y-31595238D02*
X6400000Y-31690476D01*
X6304761Y-31785714D01*
X6161904Y-31928571D01*
X6114285Y-32023809D01*
X6114285Y-32119047D01*
X6352380Y-32071428D02*
X6304761Y-32166666D01*
X6209523Y-32261904D01*
X6019047Y-32309523D01*
X5685714Y-32309523D01*
X5495238Y-32261904D01*
X5400000Y-32166666D01*
X5352380Y-32071428D01*
X5352380Y-31880952D01*
X5400000Y-31785714D01*
X5495238Y-31690476D01*
X5685714Y-31642857D01*
X6019047Y-31642857D01*
X6209523Y-31690476D01*
X6304761Y-31785714D01*
X6352380Y-31880952D01*
X6352380Y-32071428D01*
X5352380Y-31309523D02*
X5352380Y-30690476D01*
X5733333Y-31023809D01*
X5733333Y-30880952D01*
X5780952Y-30785714D01*
X5828571Y-30738095D01*
X5923809Y-30690476D01*
X6161904Y-30690476D01*
X6257142Y-30738095D01*
X6304761Y-30785714D01*
X6352380Y-30880952D01*
X6352380Y-31166666D01*
X6304761Y-31261904D01*
X6257142Y-31309523D01*
X43033333Y-52852380D02*
X42700000Y-52376190D01*
X42461904Y-52852380D02*
X42461904Y-51852380D01*
X42842857Y-51852380D01*
X42938095Y-51900000D01*
X42985714Y-51947619D01*
X43033333Y-52042857D01*
X43033333Y-52185714D01*
X42985714Y-52280952D01*
X42938095Y-52328571D01*
X42842857Y-52376190D01*
X42461904Y-52376190D01*
X43366666Y-51852380D02*
X44033333Y-51852380D01*
X43604761Y-52852380D01*
X7452380Y-24230357D02*
X6976190Y-24563690D01*
X7452380Y-24801785D02*
X6452380Y-24801785D01*
X6452380Y-24420833D01*
X6500000Y-24325595D01*
X6547619Y-24277976D01*
X6642857Y-24230357D01*
X6785714Y-24230357D01*
X6880952Y-24277976D01*
X6928571Y-24325595D01*
X6976190Y-24420833D01*
X6976190Y-24801785D01*
X7452380Y-23277976D02*
X7452380Y-23849404D01*
X7452380Y-23563690D02*
X6452380Y-23563690D01*
X6595238Y-23658928D01*
X6690476Y-23754166D01*
X6738095Y-23849404D01*
X6547619Y-22897023D02*
X6500000Y-22849404D01*
X6452380Y-22754166D01*
X6452380Y-22516071D01*
X6500000Y-22420833D01*
X6547619Y-22373214D01*
X6642857Y-22325595D01*
X6738095Y-22325595D01*
X6880952Y-22373214D01*
X7452380Y-22944642D01*
X7452380Y-22325595D01*
X48457142Y-51014285D02*
X48504761Y-51061904D01*
X48552380Y-51204761D01*
X48552380Y-51300000D01*
X48504761Y-51442857D01*
X48409523Y-51538095D01*
X48314285Y-51585714D01*
X48123809Y-51633333D01*
X47980952Y-51633333D01*
X47790476Y-51585714D01*
X47695238Y-51538095D01*
X47600000Y-51442857D01*
X47552380Y-51300000D01*
X47552380Y-51204761D01*
X47600000Y-51061904D01*
X47647619Y-51014285D01*
X47552380Y-50395238D02*
X47552380Y-50204761D01*
X47600000Y-50109523D01*
X47695238Y-50014285D01*
X47885714Y-49966666D01*
X48219047Y-49966666D01*
X48409523Y-50014285D01*
X48504761Y-50109523D01*
X48552380Y-50204761D01*
X48552380Y-50395238D01*
X48504761Y-50490476D01*
X48409523Y-50585714D01*
X48219047Y-50633333D01*
X47885714Y-50633333D01*
X47695238Y-50585714D01*
X47600000Y-50490476D01*
X47552380Y-50395238D01*
X48552380Y-49538095D02*
X47552380Y-49538095D01*
X48552380Y-48966666D01*
X47552380Y-48966666D01*
X48552380Y-47966666D02*
X48552380Y-48538095D01*
X48552380Y-48252380D02*
X47552380Y-48252380D01*
X47695238Y-48347619D01*
X47790476Y-48442857D01*
X47838095Y-48538095D01*
X7452380Y-28138095D02*
X6452380Y-28138095D01*
X6452380Y-27900000D01*
X6500000Y-27757142D01*
X6595238Y-27661904D01*
X6690476Y-27614285D01*
X6880952Y-27566666D01*
X7023809Y-27566666D01*
X7214285Y-27614285D01*
X7309523Y-27661904D01*
X7404761Y-27757142D01*
X7452380Y-27900000D01*
X7452380Y-28138095D01*
X6452380Y-27233333D02*
X6452380Y-26614285D01*
X6833333Y-26947619D01*
X6833333Y-26804761D01*
X6880952Y-26709523D01*
X6928571Y-26661904D01*
X7023809Y-26614285D01*
X7261904Y-26614285D01*
X7357142Y-26661904D01*
X7404761Y-26709523D01*
X7452380Y-26804761D01*
X7452380Y-27090476D01*
X7404761Y-27185714D01*
X7357142Y-27233333D01*
X43138095Y-23752380D02*
X43138095Y-24561904D01*
X43185714Y-24657142D01*
X43233333Y-24704761D01*
X43328571Y-24752380D01*
X43519047Y-24752380D01*
X43614285Y-24704761D01*
X43661904Y-24657142D01*
X43709523Y-24561904D01*
X43709523Y-23752380D01*
X44709523Y-24752380D02*
X44138095Y-24752380D01*
X44423809Y-24752380D02*
X44423809Y-23752380D01*
X44328571Y-23895238D01*
X44233333Y-23990476D01*
X44138095Y-24038095D01*
X38376190Y-34776190D02*
X38852380Y-34776190D01*
X37852380Y-35109523D02*
X38376190Y-34776190D01*
X37852380Y-34442857D01*
X38852380Y-33585714D02*
X38852380Y-34157142D01*
X38852380Y-33871428D02*
X37852380Y-33871428D01*
X37995238Y-33966666D01*
X38090476Y-34061904D01*
X38138095Y-34157142D01*
X31227142Y-34079166D02*
X31274761Y-34126785D01*
X31322380Y-34269642D01*
X31322380Y-34364880D01*
X31274761Y-34507738D01*
X31179523Y-34602976D01*
X31084285Y-34650595D01*
X30893809Y-34698214D01*
X30750952Y-34698214D01*
X30560476Y-34650595D01*
X30465238Y-34602976D01*
X30370000Y-34507738D01*
X30322380Y-34364880D01*
X30322380Y-34269642D01*
X30370000Y-34126785D01*
X30417619Y-34079166D01*
X30655714Y-33222023D02*
X31322380Y-33222023D01*
X30274761Y-33460119D02*
X30989047Y-33698214D01*
X30989047Y-33079166D01*
X33452380Y-62666666D02*
X32976190Y-63000000D01*
X33452380Y-63238095D02*
X32452380Y-63238095D01*
X32452380Y-62857142D01*
X32500000Y-62761904D01*
X32547619Y-62714285D01*
X32642857Y-62666666D01*
X32785714Y-62666666D01*
X32880952Y-62714285D01*
X32928571Y-62761904D01*
X32976190Y-62857142D01*
X32976190Y-63238095D01*
X32452380Y-61761904D02*
X32452380Y-62238095D01*
X32928571Y-62285714D01*
X32880952Y-62238095D01*
X32833333Y-62142857D01*
X32833333Y-61904761D01*
X32880952Y-61809523D01*
X32928571Y-61761904D01*
X33023809Y-61714285D01*
X33261904Y-61714285D01*
X33357142Y-61761904D01*
X33404761Y-61809523D01*
X33452380Y-61904761D01*
X33452380Y-62142857D01*
X33404761Y-62238095D01*
X33357142Y-62285714D01*
X18952380Y-44842857D02*
X18476190Y-45176190D01*
X18952380Y-45414285D02*
X17952380Y-45414285D01*
X17952380Y-45033333D01*
X18000000Y-44938095D01*
X18047619Y-44890476D01*
X18142857Y-44842857D01*
X18285714Y-44842857D01*
X18380952Y-44890476D01*
X18428571Y-44938095D01*
X18476190Y-45033333D01*
X18476190Y-45414285D01*
X18952380Y-43890476D02*
X18952380Y-44461904D01*
X18952380Y-44176190D02*
X17952380Y-44176190D01*
X18095238Y-44271428D01*
X18190476Y-44366666D01*
X18238095Y-44461904D01*
X18380952Y-43319047D02*
X18333333Y-43414285D01*
X18285714Y-43461904D01*
X18190476Y-43509523D01*
X18142857Y-43509523D01*
X18047619Y-43461904D01*
X18000000Y-43414285D01*
X17952380Y-43319047D01*
X17952380Y-43128571D01*
X18000000Y-43033333D01*
X18047619Y-42985714D01*
X18142857Y-42938095D01*
X18190476Y-42938095D01*
X18285714Y-42985714D01*
X18333333Y-43033333D01*
X18380952Y-43128571D01*
X18380952Y-43319047D01*
X18428571Y-43414285D01*
X18476190Y-43461904D01*
X18571428Y-43509523D01*
X18761904Y-43509523D01*
X18857142Y-43461904D01*
X18904761Y-43414285D01*
X18952380Y-43319047D01*
X18952380Y-43128571D01*
X18904761Y-43033333D01*
X18857142Y-42985714D01*
X18761904Y-42938095D01*
X18571428Y-42938095D01*
X18476190Y-42985714D01*
X18428571Y-43033333D01*
X18380952Y-43128571D01*
X20557142Y-40766666D02*
X20604761Y-40814285D01*
X20652380Y-40957142D01*
X20652380Y-41052380D01*
X20604761Y-41195238D01*
X20509523Y-41290476D01*
X20414285Y-41338095D01*
X20223809Y-41385714D01*
X20080952Y-41385714D01*
X19890476Y-41338095D01*
X19795238Y-41290476D01*
X19700000Y-41195238D01*
X19652380Y-41052380D01*
X19652380Y-40957142D01*
X19700000Y-40814285D01*
X19747619Y-40766666D01*
X20652380Y-39814285D02*
X20652380Y-40385714D01*
X20652380Y-40100000D02*
X19652380Y-40100000D01*
X19795238Y-40195238D01*
X19890476Y-40290476D01*
X19938095Y-40385714D01*
X33057142Y-66566666D02*
X33104761Y-66614285D01*
X33152380Y-66757142D01*
X33152380Y-66852380D01*
X33104761Y-66995238D01*
X33009523Y-67090476D01*
X32914285Y-67138095D01*
X32723809Y-67185714D01*
X32580952Y-67185714D01*
X32390476Y-67138095D01*
X32295238Y-67090476D01*
X32200000Y-66995238D01*
X32152380Y-66852380D01*
X32152380Y-66757142D01*
X32200000Y-66614285D01*
X32247619Y-66566666D01*
X32152380Y-66233333D02*
X32152380Y-65566666D01*
X33152380Y-65995238D01*
X29202380Y-56016666D02*
X28726190Y-56350000D01*
X29202380Y-56588095D02*
X28202380Y-56588095D01*
X28202380Y-56207142D01*
X28250000Y-56111904D01*
X28297619Y-56064285D01*
X28392857Y-56016666D01*
X28535714Y-56016666D01*
X28630952Y-56064285D01*
X28678571Y-56111904D01*
X28726190Y-56207142D01*
X28726190Y-56588095D01*
X28202380Y-55159523D02*
X28202380Y-55350000D01*
X28250000Y-55445238D01*
X28297619Y-55492857D01*
X28440476Y-55588095D01*
X28630952Y-55635714D01*
X29011904Y-55635714D01*
X29107142Y-55588095D01*
X29154761Y-55540476D01*
X29202380Y-55445238D01*
X29202380Y-55254761D01*
X29154761Y-55159523D01*
X29107142Y-55111904D01*
X29011904Y-55064285D01*
X28773809Y-55064285D01*
X28678571Y-55111904D01*
X28630952Y-55159523D01*
X28583333Y-55254761D01*
X28583333Y-55445238D01*
X28630952Y-55540476D01*
X28678571Y-55588095D01*
X28773809Y-55635714D01*
X29202380Y-66142857D02*
X28726190Y-66476190D01*
X29202380Y-66714285D02*
X28202380Y-66714285D01*
X28202380Y-66333333D01*
X28250000Y-66238095D01*
X28297619Y-66190476D01*
X28392857Y-66142857D01*
X28535714Y-66142857D01*
X28630952Y-66190476D01*
X28678571Y-66238095D01*
X28726190Y-66333333D01*
X28726190Y-66714285D01*
X29202380Y-65190476D02*
X29202380Y-65761904D01*
X29202380Y-65476190D02*
X28202380Y-65476190D01*
X28345238Y-65571428D01*
X28440476Y-65666666D01*
X28488095Y-65761904D01*
X28202380Y-64571428D02*
X28202380Y-64476190D01*
X28250000Y-64380952D01*
X28297619Y-64333333D01*
X28392857Y-64285714D01*
X28583333Y-64238095D01*
X28821428Y-64238095D01*
X29011904Y-64285714D01*
X29107142Y-64333333D01*
X29154761Y-64380952D01*
X29202380Y-64476190D01*
X29202380Y-64571428D01*
X29154761Y-64666666D01*
X29107142Y-64714285D01*
X29011904Y-64761904D01*
X28821428Y-64809523D01*
X28583333Y-64809523D01*
X28392857Y-64761904D01*
X28297619Y-64714285D01*
X28250000Y-64666666D01*
X28202380Y-64571428D01*
X27452380Y-66142857D02*
X26976190Y-66476190D01*
X27452380Y-66714285D02*
X26452380Y-66714285D01*
X26452380Y-66333333D01*
X26500000Y-66238095D01*
X26547619Y-66190476D01*
X26642857Y-66142857D01*
X26785714Y-66142857D01*
X26880952Y-66190476D01*
X26928571Y-66238095D01*
X26976190Y-66333333D01*
X26976190Y-66714285D01*
X27452380Y-65190476D02*
X27452380Y-65761904D01*
X27452380Y-65476190D02*
X26452380Y-65476190D01*
X26595238Y-65571428D01*
X26690476Y-65666666D01*
X26738095Y-65761904D01*
X26452380Y-64857142D02*
X26452380Y-64238095D01*
X26833333Y-64571428D01*
X26833333Y-64428571D01*
X26880952Y-64333333D01*
X26928571Y-64285714D01*
X27023809Y-64238095D01*
X27261904Y-64238095D01*
X27357142Y-64285714D01*
X27404761Y-64333333D01*
X27452380Y-64428571D01*
X27452380Y-64714285D01*
X27404761Y-64809523D01*
X27357142Y-64857142D01*
X42233333Y-55352380D02*
X41900000Y-54876190D01*
X41661904Y-55352380D02*
X41661904Y-54352380D01*
X42042857Y-54352380D01*
X42138095Y-54400000D01*
X42185714Y-54447619D01*
X42233333Y-54542857D01*
X42233333Y-54685714D01*
X42185714Y-54780952D01*
X42138095Y-54828571D01*
X42042857Y-54876190D01*
X41661904Y-54876190D01*
X42709523Y-55352380D02*
X42900000Y-55352380D01*
X42995238Y-55304761D01*
X43042857Y-55257142D01*
X43138095Y-55114285D01*
X43185714Y-54923809D01*
X43185714Y-54542857D01*
X43138095Y-54447619D01*
X43090476Y-54400000D01*
X42995238Y-54352380D01*
X42804761Y-54352380D01*
X42709523Y-54400000D01*
X42661904Y-54447619D01*
X42614285Y-54542857D01*
X42614285Y-54780952D01*
X42661904Y-54876190D01*
X42709523Y-54923809D01*
X42804761Y-54971428D01*
X42995238Y-54971428D01*
X43090476Y-54923809D01*
X43138095Y-54876190D01*
X43185714Y-54780952D01*
X7157142Y-19842857D02*
X7204761Y-19890476D01*
X7252380Y-20033333D01*
X7252380Y-20128571D01*
X7204761Y-20271428D01*
X7109523Y-20366666D01*
X7014285Y-20414285D01*
X6823809Y-20461904D01*
X6680952Y-20461904D01*
X6490476Y-20414285D01*
X6395238Y-20366666D01*
X6300000Y-20271428D01*
X6252380Y-20128571D01*
X6252380Y-20033333D01*
X6300000Y-19890476D01*
X6347619Y-19842857D01*
X7252380Y-18890476D02*
X7252380Y-19461904D01*
X7252380Y-19176190D02*
X6252380Y-19176190D01*
X6395238Y-19271428D01*
X6490476Y-19366666D01*
X6538095Y-19461904D01*
X6252380Y-18271428D02*
X6252380Y-18176190D01*
X6300000Y-18080952D01*
X6347619Y-18033333D01*
X6442857Y-17985714D01*
X6633333Y-17938095D01*
X6871428Y-17938095D01*
X7061904Y-17985714D01*
X7157142Y-18033333D01*
X7204761Y-18080952D01*
X7252380Y-18176190D01*
X7252380Y-18271428D01*
X7204761Y-18366666D01*
X7157142Y-18414285D01*
X7061904Y-18461904D01*
X6871428Y-18509523D01*
X6633333Y-18509523D01*
X6442857Y-18461904D01*
X6347619Y-18414285D01*
X6300000Y-18366666D01*
X6252380Y-18271428D01*
X27452380Y-56442857D02*
X26976190Y-56776190D01*
X27452380Y-57014285D02*
X26452380Y-57014285D01*
X26452380Y-56633333D01*
X26500000Y-56538095D01*
X26547619Y-56490476D01*
X26642857Y-56442857D01*
X26785714Y-56442857D01*
X26880952Y-56490476D01*
X26928571Y-56538095D01*
X26976190Y-56633333D01*
X26976190Y-57014285D01*
X27452380Y-55490476D02*
X27452380Y-56061904D01*
X27452380Y-55776190D02*
X26452380Y-55776190D01*
X26595238Y-55871428D01*
X26690476Y-55966666D01*
X26738095Y-56061904D01*
X27452380Y-54538095D02*
X27452380Y-55109523D01*
X27452380Y-54823809D02*
X26452380Y-54823809D01*
X26595238Y-54919047D01*
X26690476Y-55014285D01*
X26738095Y-55109523D01*
X23957142Y-41742857D02*
X24004761Y-41790476D01*
X24052380Y-41933333D01*
X24052380Y-42028571D01*
X24004761Y-42171428D01*
X23909523Y-42266666D01*
X23814285Y-42314285D01*
X23623809Y-42361904D01*
X23480952Y-42361904D01*
X23290476Y-42314285D01*
X23195238Y-42266666D01*
X23100000Y-42171428D01*
X23052380Y-42028571D01*
X23052380Y-41933333D01*
X23100000Y-41790476D01*
X23147619Y-41742857D01*
X24052380Y-40790476D02*
X24052380Y-41361904D01*
X24052380Y-41076190D02*
X23052380Y-41076190D01*
X23195238Y-41171428D01*
X23290476Y-41266666D01*
X23338095Y-41361904D01*
X23147619Y-40409523D02*
X23100000Y-40361904D01*
X23052380Y-40266666D01*
X23052380Y-40028571D01*
X23100000Y-39933333D01*
X23147619Y-39885714D01*
X23242857Y-39838095D01*
X23338095Y-39838095D01*
X23480952Y-39885714D01*
X24052380Y-40457142D01*
X24052380Y-39838095D01*
X17152380Y-44842857D02*
X16676190Y-45176190D01*
X17152380Y-45414285D02*
X16152380Y-45414285D01*
X16152380Y-45033333D01*
X16200000Y-44938095D01*
X16247619Y-44890476D01*
X16342857Y-44842857D01*
X16485714Y-44842857D01*
X16580952Y-44890476D01*
X16628571Y-44938095D01*
X16676190Y-45033333D01*
X16676190Y-45414285D01*
X17152380Y-43890476D02*
X17152380Y-44461904D01*
X17152380Y-44176190D02*
X16152380Y-44176190D01*
X16295238Y-44271428D01*
X16390476Y-44366666D01*
X16438095Y-44461904D01*
X17152380Y-43414285D02*
X17152380Y-43223809D01*
X17104761Y-43128571D01*
X17057142Y-43080952D01*
X16914285Y-42985714D01*
X16723809Y-42938095D01*
X16342857Y-42938095D01*
X16247619Y-42985714D01*
X16200000Y-43033333D01*
X16152380Y-43128571D01*
X16152380Y-43319047D01*
X16200000Y-43414285D01*
X16247619Y-43461904D01*
X16342857Y-43509523D01*
X16580952Y-43509523D01*
X16676190Y-43461904D01*
X16723809Y-43414285D01*
X16771428Y-43319047D01*
X16771428Y-43128571D01*
X16723809Y-43033333D01*
X16676190Y-42985714D01*
X16580952Y-42938095D01*
X15352380Y-44842857D02*
X14876190Y-45176190D01*
X15352380Y-45414285D02*
X14352380Y-45414285D01*
X14352380Y-45033333D01*
X14400000Y-44938095D01*
X14447619Y-44890476D01*
X14542857Y-44842857D01*
X14685714Y-44842857D01*
X14780952Y-44890476D01*
X14828571Y-44938095D01*
X14876190Y-45033333D01*
X14876190Y-45414285D01*
X15352380Y-43890476D02*
X15352380Y-44461904D01*
X15352380Y-44176190D02*
X14352380Y-44176190D01*
X14495238Y-44271428D01*
X14590476Y-44366666D01*
X14638095Y-44461904D01*
X14352380Y-43557142D02*
X14352380Y-42890476D01*
X15352380Y-43319047D01*
X11133333Y-43472380D02*
X10800000Y-42996190D01*
X10561904Y-43472380D02*
X10561904Y-42472380D01*
X10942857Y-42472380D01*
X11038095Y-42520000D01*
X11085714Y-42567619D01*
X11133333Y-42662857D01*
X11133333Y-42805714D01*
X11085714Y-42900952D01*
X11038095Y-42948571D01*
X10942857Y-42996190D01*
X10561904Y-42996190D01*
X11704761Y-42900952D02*
X11609523Y-42853333D01*
X11561904Y-42805714D01*
X11514285Y-42710476D01*
X11514285Y-42662857D01*
X11561904Y-42567619D01*
X11609523Y-42520000D01*
X11704761Y-42472380D01*
X11895238Y-42472380D01*
X11990476Y-42520000D01*
X12038095Y-42567619D01*
X12085714Y-42662857D01*
X12085714Y-42710476D01*
X12038095Y-42805714D01*
X11990476Y-42853333D01*
X11895238Y-42900952D01*
X11704761Y-42900952D01*
X11609523Y-42948571D01*
X11561904Y-42996190D01*
X11514285Y-43091428D01*
X11514285Y-43281904D01*
X11561904Y-43377142D01*
X11609523Y-43424761D01*
X11704761Y-43472380D01*
X11895238Y-43472380D01*
X11990476Y-43424761D01*
X12038095Y-43377142D01*
X12085714Y-43281904D01*
X12085714Y-43091428D01*
X12038095Y-42996190D01*
X11990476Y-42948571D01*
X11895238Y-42900952D01*
X17532142Y-61902380D02*
X17198809Y-61426190D01*
X16960714Y-61902380D02*
X16960714Y-60902380D01*
X17341666Y-60902380D01*
X17436904Y-60950000D01*
X17484523Y-60997619D01*
X17532142Y-61092857D01*
X17532142Y-61235714D01*
X17484523Y-61330952D01*
X17436904Y-61378571D01*
X17341666Y-61426190D01*
X16960714Y-61426190D01*
X18484523Y-61902380D02*
X17913095Y-61902380D01*
X18198809Y-61902380D02*
X18198809Y-60902380D01*
X18103571Y-61045238D01*
X18008333Y-61140476D01*
X17913095Y-61188095D01*
X19341666Y-61235714D02*
X19341666Y-61902380D01*
X19103571Y-60854761D02*
X18865476Y-61569047D01*
X19484523Y-61569047D01*
X24452380Y-57561904D02*
X25261904Y-57561904D01*
X25357142Y-57514285D01*
X25404761Y-57466666D01*
X25452380Y-57371428D01*
X25452380Y-57180952D01*
X25404761Y-57085714D01*
X25357142Y-57038095D01*
X25261904Y-56990476D01*
X24452380Y-56990476D01*
X24785714Y-56085714D02*
X25452380Y-56085714D01*
X24404761Y-56323809D02*
X25119047Y-56561904D01*
X25119047Y-55942857D01*
X10797619Y-59745238D02*
X10750000Y-59840476D01*
X10654761Y-59935714D01*
X10511904Y-60078571D01*
X10464285Y-60173809D01*
X10464285Y-60269047D01*
X10702380Y-60221428D02*
X10654761Y-60316666D01*
X10559523Y-60411904D01*
X10369047Y-60459523D01*
X10035714Y-60459523D01*
X9845238Y-60411904D01*
X9750000Y-60316666D01*
X9702380Y-60221428D01*
X9702380Y-60030952D01*
X9750000Y-59935714D01*
X9845238Y-59840476D01*
X10035714Y-59792857D01*
X10369047Y-59792857D01*
X10559523Y-59840476D01*
X10654761Y-59935714D01*
X10702380Y-60030952D01*
X10702380Y-60221428D01*
X10035714Y-58935714D02*
X10702380Y-58935714D01*
X9654761Y-59173809D02*
X10369047Y-59411904D01*
X10369047Y-58792857D01*
X4514285Y-57828571D02*
X4657142Y-57876190D01*
X4704761Y-57923809D01*
X4752380Y-58019047D01*
X4752380Y-58161904D01*
X4704761Y-58257142D01*
X4657142Y-58304761D01*
X4561904Y-58352380D01*
X4180952Y-58352380D01*
X4180952Y-57352380D01*
X4514285Y-57352380D01*
X4609523Y-57400000D01*
X4657142Y-57447619D01*
X4704761Y-57542857D01*
X4704761Y-57638095D01*
X4657142Y-57733333D01*
X4609523Y-57780952D01*
X4514285Y-57828571D01*
X4180952Y-57828571D01*
X5038095Y-57352380D02*
X5609523Y-57352380D01*
X5323809Y-58352380D02*
X5323809Y-57352380D01*
X6466666Y-58352380D02*
X5895238Y-58352380D01*
X6180952Y-58352380D02*
X6180952Y-57352380D01*
X6085714Y-57495238D01*
X5990476Y-57590476D01*
X5895238Y-57638095D01*
X24183333Y-53007142D02*
X24135714Y-53054761D01*
X23992857Y-53102380D01*
X23897619Y-53102380D01*
X23754761Y-53054761D01*
X23659523Y-52959523D01*
X23611904Y-52864285D01*
X23564285Y-52673809D01*
X23564285Y-52530952D01*
X23611904Y-52340476D01*
X23659523Y-52245238D01*
X23754761Y-52150000D01*
X23897619Y-52102380D01*
X23992857Y-52102380D01*
X24135714Y-52150000D01*
X24183333Y-52197619D01*
X25088095Y-52102380D02*
X24611904Y-52102380D01*
X24564285Y-52578571D01*
X24611904Y-52530952D01*
X24707142Y-52483333D01*
X24945238Y-52483333D01*
X25040476Y-52530952D01*
X25088095Y-52578571D01*
X25135714Y-52673809D01*
X25135714Y-52911904D01*
X25088095Y-53007142D01*
X25040476Y-53054761D01*
X24945238Y-53102380D01*
X24707142Y-53102380D01*
X24611904Y-53054761D01*
X24564285Y-53007142D01*
X16747619Y-56895238D02*
X16700000Y-56990476D01*
X16604761Y-57085714D01*
X16461904Y-57228571D01*
X16414285Y-57323809D01*
X16414285Y-57419047D01*
X16652380Y-57371428D02*
X16604761Y-57466666D01*
X16509523Y-57561904D01*
X16319047Y-57609523D01*
X15985714Y-57609523D01*
X15795238Y-57561904D01*
X15700000Y-57466666D01*
X15652380Y-57371428D01*
X15652380Y-57180952D01*
X15700000Y-57085714D01*
X15795238Y-56990476D01*
X15985714Y-56942857D01*
X16319047Y-56942857D01*
X16509523Y-56990476D01*
X16604761Y-57085714D01*
X16652380Y-57180952D01*
X16652380Y-57371428D01*
X15652380Y-56085714D02*
X15652380Y-56276190D01*
X15700000Y-56371428D01*
X15747619Y-56419047D01*
X15890476Y-56514285D01*
X16080952Y-56561904D01*
X16461904Y-56561904D01*
X16557142Y-56514285D01*
X16604761Y-56466666D01*
X16652380Y-56371428D01*
X16652380Y-56180952D01*
X16604761Y-56085714D01*
X16557142Y-56038095D01*
X16461904Y-55990476D01*
X16223809Y-55990476D01*
X16128571Y-56038095D01*
X16080952Y-56085714D01*
X16033333Y-56180952D01*
X16033333Y-56371428D01*
X16080952Y-56466666D01*
X16128571Y-56514285D01*
X16223809Y-56561904D01*
X8838095Y-49352380D02*
X8838095Y-50161904D01*
X8885714Y-50257142D01*
X8933333Y-50304761D01*
X9028571Y-50352380D01*
X9219047Y-50352380D01*
X9314285Y-50304761D01*
X9361904Y-50257142D01*
X9409523Y-50161904D01*
X9409523Y-49352380D01*
X9790476Y-49352380D02*
X10457142Y-49352380D01*
X10028571Y-50352380D01*
X21947619Y-44895238D02*
X21900000Y-44990476D01*
X21804761Y-45085714D01*
X21661904Y-45228571D01*
X21614285Y-45323809D01*
X21614285Y-45419047D01*
X21852380Y-45371428D02*
X21804761Y-45466666D01*
X21709523Y-45561904D01*
X21519047Y-45609523D01*
X21185714Y-45609523D01*
X20995238Y-45561904D01*
X20900000Y-45466666D01*
X20852380Y-45371428D01*
X20852380Y-45180952D01*
X20900000Y-45085714D01*
X20995238Y-44990476D01*
X21185714Y-44942857D01*
X21519047Y-44942857D01*
X21709523Y-44990476D01*
X21804761Y-45085714D01*
X21852380Y-45180952D01*
X21852380Y-45371428D01*
X20852380Y-44038095D02*
X20852380Y-44514285D01*
X21328571Y-44561904D01*
X21280952Y-44514285D01*
X21233333Y-44419047D01*
X21233333Y-44180952D01*
X21280952Y-44085714D01*
X21328571Y-44038095D01*
X21423809Y-43990476D01*
X21661904Y-43990476D01*
X21757142Y-44038095D01*
X21804761Y-44085714D01*
X21852380Y-44180952D01*
X21852380Y-44419047D01*
X21804761Y-44514285D01*
X21757142Y-44561904D01*
X7907142Y-58257142D02*
X7859523Y-58304761D01*
X7716666Y-58352380D01*
X7621428Y-58352380D01*
X7478571Y-58304761D01*
X7383333Y-58209523D01*
X7335714Y-58114285D01*
X7288095Y-57923809D01*
X7288095Y-57780952D01*
X7335714Y-57590476D01*
X7383333Y-57495238D01*
X7478571Y-57400000D01*
X7621428Y-57352380D01*
X7716666Y-57352380D01*
X7859523Y-57400000D01*
X7907142Y-57447619D01*
X8859523Y-58352380D02*
X8288095Y-58352380D01*
X8573809Y-58352380D02*
X8573809Y-57352380D01*
X8478571Y-57495238D01*
X8383333Y-57590476D01*
X8288095Y-57638095D01*
X9811904Y-58352380D02*
X9240476Y-58352380D01*
X9526190Y-58352380D02*
X9526190Y-57352380D01*
X9430952Y-57495238D01*
X9335714Y-57590476D01*
X9240476Y-57638095D01*
X9004761Y-64233333D02*
X9052380Y-64090476D01*
X9052380Y-63852380D01*
X9004761Y-63757142D01*
X8957142Y-63709523D01*
X8861904Y-63661904D01*
X8766666Y-63661904D01*
X8671428Y-63709523D01*
X8623809Y-63757142D01*
X8576190Y-63852380D01*
X8528571Y-64042857D01*
X8480952Y-64138095D01*
X8433333Y-64185714D01*
X8338095Y-64233333D01*
X8242857Y-64233333D01*
X8147619Y-64185714D01*
X8100000Y-64138095D01*
X8052380Y-64042857D01*
X8052380Y-63804761D01*
X8100000Y-63661904D01*
X8052380Y-63328571D02*
X9052380Y-63090476D01*
X8338095Y-62900000D01*
X9052380Y-62709523D01*
X8052380Y-62471428D01*
X9052380Y-61566666D02*
X9052380Y-62138095D01*
X9052380Y-61852380D02*
X8052380Y-61852380D01*
X8195238Y-61947619D01*
X8290476Y-62042857D01*
X8338095Y-62138095D01*
X12157142Y-53622380D02*
X11823809Y-53146190D01*
X11585714Y-53622380D02*
X11585714Y-52622380D01*
X11966666Y-52622380D01*
X12061904Y-52670000D01*
X12109523Y-52717619D01*
X12157142Y-52812857D01*
X12157142Y-52955714D01*
X12109523Y-53050952D01*
X12061904Y-53098571D01*
X11966666Y-53146190D01*
X11585714Y-53146190D01*
X13109523Y-53622380D02*
X12538095Y-53622380D01*
X12823809Y-53622380D02*
X12823809Y-52622380D01*
X12728571Y-52765238D01*
X12633333Y-52860476D01*
X12538095Y-52908095D01*
X13966666Y-52622380D02*
X13776190Y-52622380D01*
X13680952Y-52670000D01*
X13633333Y-52717619D01*
X13538095Y-52860476D01*
X13490476Y-53050952D01*
X13490476Y-53431904D01*
X13538095Y-53527142D01*
X13585714Y-53574761D01*
X13680952Y-53622380D01*
X13871428Y-53622380D01*
X13966666Y-53574761D01*
X14014285Y-53527142D01*
X14061904Y-53431904D01*
X14061904Y-53193809D01*
X14014285Y-53098571D01*
X13966666Y-53050952D01*
X13871428Y-53003333D01*
X13680952Y-53003333D01*
X13585714Y-53050952D01*
X13538095Y-53098571D01*
X13490476Y-53193809D01*
X21057142Y-54852380D02*
X20723809Y-54376190D01*
X20485714Y-54852380D02*
X20485714Y-53852380D01*
X20866666Y-53852380D01*
X20961904Y-53900000D01*
X21009523Y-53947619D01*
X21057142Y-54042857D01*
X21057142Y-54185714D01*
X21009523Y-54280952D01*
X20961904Y-54328571D01*
X20866666Y-54376190D01*
X20485714Y-54376190D01*
X21438095Y-53947619D02*
X21485714Y-53900000D01*
X21580952Y-53852380D01*
X21819047Y-53852380D01*
X21914285Y-53900000D01*
X21961904Y-53947619D01*
X22009523Y-54042857D01*
X22009523Y-54138095D01*
X21961904Y-54280952D01*
X21390476Y-54852380D01*
X22009523Y-54852380D01*
X22628571Y-53852380D02*
X22723809Y-53852380D01*
X22819047Y-53900000D01*
X22866666Y-53947619D01*
X22914285Y-54042857D01*
X22961904Y-54233333D01*
X22961904Y-54471428D01*
X22914285Y-54661904D01*
X22866666Y-54757142D01*
X22819047Y-54804761D01*
X22723809Y-54852380D01*
X22628571Y-54852380D01*
X22533333Y-54804761D01*
X22485714Y-54757142D01*
X22438095Y-54661904D01*
X22390476Y-54471428D01*
X22390476Y-54233333D01*
X22438095Y-54042857D01*
X22485714Y-53947619D01*
X22533333Y-53900000D01*
X22628571Y-53852380D01*
X17857142Y-54852380D02*
X17523809Y-54376190D01*
X17285714Y-54852380D02*
X17285714Y-53852380D01*
X17666666Y-53852380D01*
X17761904Y-53900000D01*
X17809523Y-53947619D01*
X17857142Y-54042857D01*
X17857142Y-54185714D01*
X17809523Y-54280952D01*
X17761904Y-54328571D01*
X17666666Y-54376190D01*
X17285714Y-54376190D01*
X18809523Y-54852380D02*
X18238095Y-54852380D01*
X18523809Y-54852380D02*
X18523809Y-53852380D01*
X18428571Y-53995238D01*
X18333333Y-54090476D01*
X18238095Y-54138095D01*
X19714285Y-53852380D02*
X19238095Y-53852380D01*
X19190476Y-54328571D01*
X19238095Y-54280952D01*
X19333333Y-54233333D01*
X19571428Y-54233333D01*
X19666666Y-54280952D01*
X19714285Y-54328571D01*
X19761904Y-54423809D01*
X19761904Y-54661904D01*
X19714285Y-54757142D01*
X19666666Y-54804761D01*
X19571428Y-54852380D01*
X19333333Y-54852380D01*
X19238095Y-54804761D01*
X19190476Y-54757142D01*
X16004761Y-50447619D02*
X15909523Y-50400000D01*
X15814285Y-50304761D01*
X15671428Y-50161904D01*
X15576190Y-50114285D01*
X15480952Y-50114285D01*
X15528571Y-50352380D02*
X15433333Y-50304761D01*
X15338095Y-50209523D01*
X15290476Y-50019047D01*
X15290476Y-49685714D01*
X15338095Y-49495238D01*
X15433333Y-49400000D01*
X15528571Y-49352380D01*
X15719047Y-49352380D01*
X15814285Y-49400000D01*
X15909523Y-49495238D01*
X15957142Y-49685714D01*
X15957142Y-50019047D01*
X15909523Y-50209523D01*
X15814285Y-50304761D01*
X15719047Y-50352380D01*
X15528571Y-50352380D01*
X16338095Y-49447619D02*
X16385714Y-49400000D01*
X16480952Y-49352380D01*
X16719047Y-49352380D01*
X16814285Y-49400000D01*
X16861904Y-49447619D01*
X16909523Y-49542857D01*
X16909523Y-49638095D01*
X16861904Y-49780952D01*
X16290476Y-50352380D01*
X16909523Y-50352380D01*
X40100000Y-70300000D02*
X40100000Y-71800000D01*
X40100000Y-73800000D02*
X40100000Y-75000000D01*
X38100000Y-69280000D02*
X39450000Y-69280000D01*
X33550000Y-69280000D02*
X34900000Y-69280000D01*
X32900000Y-75000000D02*
X40100000Y-75000000D01*
X32900000Y-73800000D02*
X32900000Y-75000000D01*
X32900000Y-70300000D02*
X32900000Y-71800000D01*
D11*
X3580000Y-38500000D02*
X2905000Y-38500000D01*
X4855000Y-38500000D02*
X4405000Y-38500000D01*
X6130000Y-38500000D02*
X5655000Y-38500000D01*
X8905000Y-38500000D02*
X8205000Y-38500000D01*
X7405000Y-38500000D02*
X6930000Y-38500000D01*
X8905000Y-46500000D02*
X8905000Y-38500000D01*
X2905000Y-38500000D02*
X2905000Y-46500000D01*
X4405000Y-46500000D02*
X4855000Y-46500000D01*
X2905000Y-46500000D02*
X3580000Y-46500000D01*
X8205000Y-46500000D02*
X8905000Y-46500000D01*
X6930000Y-46500000D02*
X7405000Y-46500000D01*
X5680000Y-46500000D02*
X6130000Y-46500000D01*
D10*
X27100000Y-34500000D02*
X27100000Y-22300000D01*
X11100000Y-34500000D02*
X11100000Y-22300000D01*
X26550000Y-34500000D02*
X27100000Y-34500000D01*
X25450000Y-34500000D02*
X25650000Y-34500000D01*
X14750000Y-34500000D02*
X14950000Y-34500000D01*
X13650000Y-34500000D02*
X13850000Y-34500000D01*
X12550000Y-34500000D02*
X12750000Y-34500000D01*
X11100000Y-34500000D02*
X11650000Y-34500000D01*
X15850000Y-34500000D02*
X16050000Y-34500000D01*
X16950000Y-34500000D02*
X17150000Y-34500000D01*
X18050000Y-34500000D02*
X18250000Y-34500000D01*
X19150000Y-34500000D02*
X21250000Y-34500000D01*
X22150000Y-34500000D02*
X22350000Y-34500000D01*
X23250000Y-34500000D02*
X23450000Y-34500000D01*
X24350000Y-34500000D02*
X24550000Y-34500000D01*
X22150000Y-22300000D02*
X22350000Y-22300000D01*
X15850000Y-22300000D02*
X16050000Y-22300000D01*
X13650000Y-22300000D02*
X13850000Y-22300000D01*
X12550000Y-22300000D02*
X12750000Y-22300000D01*
X14750000Y-22300000D02*
X14950000Y-22300000D01*
X23250000Y-22300000D02*
X23450000Y-22300000D01*
X24350000Y-22300000D02*
X24550000Y-22300000D01*
X25450000Y-22300000D02*
X25650000Y-22300000D01*
X18050000Y-22300000D02*
X18250000Y-22300000D01*
X16950000Y-22300000D02*
X17150000Y-22300000D01*
X19150000Y-22300000D02*
X21250000Y-22300000D01*
X26550000Y-22300000D02*
X27100000Y-22300000D01*
X11100000Y-22300000D02*
X11650000Y-22300000D01*
D11*
X46524721Y-20090000D02*
X46850279Y-20090000D01*
X46524721Y-21110000D02*
X46850279Y-21110000D01*
X37000000Y-63600000D02*
X35400000Y-63600000D01*
X35400000Y-66800000D02*
X37700000Y-66800000D01*
X45210000Y-40162779D02*
X45210000Y-39837221D01*
X44190000Y-40162779D02*
X44190000Y-39837221D01*
X47210000Y-40162779D02*
X47210000Y-39837221D01*
X46190000Y-40162779D02*
X46190000Y-39837221D01*
X46862779Y-30510000D02*
X46537221Y-30510000D01*
X46862779Y-29490000D02*
X46537221Y-29490000D01*
X35462779Y-51110000D02*
X35137221Y-51110000D01*
X35462779Y-50090000D02*
X35137221Y-50090000D01*
X25940000Y-49760000D02*
X26360000Y-49760000D01*
X25940000Y-49760000D02*
X25940000Y-49340000D01*
X33060000Y-49760000D02*
X33060000Y-49340000D01*
X33060000Y-49760000D02*
X32640000Y-49760000D01*
X25940000Y-42640000D02*
X25940000Y-43060000D01*
X33060000Y-42640000D02*
X33060000Y-43060000D01*
X25940000Y-42640000D02*
X26360000Y-42640000D01*
X33060000Y-42640000D02*
X32640000Y-42640000D01*
X32640000Y-42640000D02*
X32640000Y-41260000D01*
X20890000Y-61400000D02*
X20890000Y-63200000D01*
X24110000Y-63200000D02*
X24110000Y-60750000D01*
X47862779Y-28610000D02*
X47537221Y-28610000D01*
X47862779Y-27590000D02*
X47537221Y-27590000D01*
X32810000Y-37324721D02*
X32810000Y-37650279D01*
X31790000Y-37324721D02*
X31790000Y-37650279D01*
X34850279Y-41190000D02*
X34524721Y-41190000D01*
X34850279Y-42210000D02*
X34524721Y-42210000D01*
X11462779Y-45790000D02*
X11137221Y-45790000D01*
X11462779Y-46810000D02*
X11137221Y-46810000D01*
X29760000Y-34112779D02*
X29760000Y-33787221D01*
X28740000Y-34112779D02*
X28740000Y-33787221D01*
X12237221Y-18290000D02*
X12562779Y-18290000D01*
X12237221Y-19310000D02*
X12562779Y-19310000D01*
X7740000Y-29920000D02*
X9200000Y-29920000D01*
X7740000Y-29920000D02*
X7740000Y-30850000D01*
X7740000Y-33080000D02*
X9900000Y-33080000D01*
X7740000Y-33080000D02*
X7740000Y-32150000D01*
X40875279Y-52860000D02*
X40549721Y-52860000D01*
X40875279Y-51840000D02*
X40549721Y-51840000D01*
X9010000Y-23424721D02*
X9010000Y-23750279D01*
X7990000Y-23424721D02*
X7990000Y-23750279D01*
X47030000Y-54900000D02*
X47030000Y-56230000D01*
X44370000Y-53630000D02*
X44370000Y-43410000D01*
X47030000Y-56230000D02*
X45700000Y-56230000D01*
X47030000Y-53630000D02*
X44370000Y-53630000D01*
X47030000Y-53630000D02*
X47030000Y-43410000D01*
X47030000Y-43410000D02*
X44370000Y-43410000D01*
X7765000Y-26600000D02*
X7765000Y-28885000D01*
X9235000Y-28885000D02*
X9235000Y-26600000D01*
X7765000Y-28885000D02*
X9235000Y-28885000D01*
X48310000Y-21690000D02*
X48310000Y-21740000D01*
X46140000Y-26910000D02*
X45090000Y-26910000D01*
X47260000Y-21690000D02*
X48310000Y-21690000D01*
X45090000Y-21690000D02*
X45090000Y-21740000D01*
X46140000Y-21690000D02*
X45090000Y-21690000D01*
X45090000Y-26910000D02*
X45090000Y-26860000D01*
X37500000Y-38750000D02*
X37500000Y-33000000D01*
X33900000Y-33000000D02*
X33900000Y-38750000D01*
X33900000Y-38750000D02*
X37500000Y-38750000D01*
X31790000Y-34075279D02*
X31790000Y-33749721D01*
X32810000Y-34075279D02*
X32810000Y-33749721D01*
X31040000Y-62662779D02*
X31040000Y-62337221D01*
X32060000Y-62662779D02*
X32060000Y-62337221D01*
X17990000Y-47337221D02*
X17990000Y-47662779D01*
X19010000Y-47337221D02*
X19010000Y-47662779D01*
X22510000Y-41158578D02*
X22510000Y-40641422D01*
X21090000Y-41158578D02*
X21090000Y-40641422D01*
X30090000Y-66041422D02*
X30090000Y-66558578D01*
X31510000Y-66041422D02*
X31510000Y-66558578D01*
X28240000Y-58812779D02*
X28240000Y-58487221D01*
X29260000Y-58812779D02*
X29260000Y-58487221D01*
X29260000Y-62324721D02*
X29260000Y-62650279D01*
X28240000Y-62324721D02*
X28240000Y-62650279D01*
X26540000Y-62662779D02*
X26540000Y-62337221D01*
X27560000Y-62662779D02*
X27560000Y-62337221D01*
X40125279Y-54390000D02*
X39799721Y-54390000D01*
X40125279Y-55410000D02*
X39799721Y-55410000D01*
X7790000Y-19858578D02*
X7790000Y-19341422D01*
X9210000Y-19858578D02*
X9210000Y-19341422D01*
X27460000Y-58537221D02*
X27460000Y-58862779D01*
X26440000Y-58537221D02*
X26440000Y-58862779D01*
X25497500Y-40887221D02*
X25497500Y-41212779D01*
X24477500Y-40887221D02*
X24477500Y-41212779D01*
X17210000Y-47337221D02*
X17210000Y-47662779D01*
X16190000Y-47337221D02*
X16190000Y-47662779D01*
X14390000Y-47662779D02*
X14390000Y-47337221D01*
X15410000Y-47662779D02*
X15410000Y-47337221D01*
X11137221Y-44960000D02*
X11462779Y-44960000D01*
X11137221Y-43940000D02*
X11462779Y-43940000D01*
X18562779Y-60360000D02*
X18237221Y-60360000D01*
X18562779Y-59340000D02*
X18237221Y-59340000D01*
X24110000Y-57750000D02*
X24110000Y-55300000D01*
X20890000Y-55950000D02*
X20890000Y-57750000D01*
X11220000Y-59860000D02*
X12150000Y-59860000D01*
X11220000Y-59860000D02*
X11220000Y-58400000D01*
X14380000Y-59860000D02*
X13450000Y-59860000D01*
X14380000Y-59860000D02*
X14380000Y-57700000D01*
X7110000Y-52800000D02*
X6500000Y-52800000D01*
X7310000Y-52000000D02*
X7310000Y-51700000D01*
X2390000Y-56360000D02*
X7110000Y-56360000D01*
X6500000Y-53800000D02*
X7110000Y-53800000D01*
X6500000Y-52800000D02*
X6500000Y-50850000D01*
X2390000Y-50240000D02*
X2390000Y-56360000D01*
X6500000Y-50850000D02*
X3000000Y-50850000D01*
X3000000Y-50850000D02*
X3000000Y-55750000D01*
X3500000Y-53200000D02*
X3500000Y-53400000D01*
X6500000Y-55750000D02*
X6500000Y-53800000D01*
X4500000Y-56360000D02*
X4500000Y-55750000D01*
X7410000Y-51190000D02*
X7410000Y-49940000D01*
X3000000Y-53300000D02*
X3500000Y-53300000D01*
X7410000Y-49940000D02*
X6160000Y-49940000D01*
X4500000Y-50240000D02*
X4500000Y-50850000D01*
X7310000Y-51700000D02*
X7110000Y-51700000D01*
X3500000Y-53400000D02*
X3000000Y-53400000D01*
X5800000Y-50240000D02*
X5800000Y-50850000D01*
X7210000Y-52000000D02*
X7210000Y-51700000D01*
X5800000Y-56360000D02*
X5800000Y-55750000D01*
X7110000Y-56360000D02*
X7110000Y-50240000D01*
X3000000Y-53200000D02*
X3500000Y-53200000D01*
X7110000Y-52000000D02*
X7310000Y-52000000D01*
X7110000Y-50240000D02*
X2390000Y-50240000D01*
X3000000Y-55750000D02*
X6500000Y-55750000D01*
X24187221Y-50690000D02*
X24512779Y-50690000D01*
X24187221Y-51710000D02*
X24512779Y-51710000D01*
X16970000Y-56190000D02*
X16970000Y-58350000D01*
X20130000Y-56190000D02*
X20130000Y-57650000D01*
X16970000Y-56190000D02*
X17900000Y-56190000D01*
X20130000Y-56190000D02*
X19200000Y-56190000D01*
X8840000Y-53880000D02*
X8840000Y-52950000D01*
X8840000Y-53880000D02*
X11000000Y-53880000D01*
X8840000Y-50720000D02*
X10300000Y-50720000D01*
X8840000Y-50720000D02*
X8840000Y-51650000D01*
X20640000Y-46120000D02*
X22100000Y-46120000D01*
X20640000Y-49280000D02*
X22800000Y-49280000D01*
X20640000Y-49280000D02*
X20640000Y-48350000D01*
X20640000Y-46120000D02*
X20640000Y-47050000D01*
X9291422Y-55490000D02*
X9808578Y-55490000D01*
X9291422Y-56910000D02*
X9808578Y-56910000D01*
X12637221Y-55110000D02*
X12962779Y-55110000D01*
X12637221Y-54090000D02*
X12962779Y-54090000D01*
X21510000Y-52262779D02*
X21510000Y-51937221D01*
X20490000Y-52262779D02*
X20490000Y-51937221D01*
X18640000Y-51937221D02*
X18640000Y-52262779D01*
X19660000Y-51937221D02*
X19660000Y-52262779D01*
X17680000Y-53060000D02*
X16750000Y-53060000D01*
X14520000Y-53060000D02*
X15450000Y-53060000D01*
X14520000Y-53060000D02*
X14520000Y-51600000D01*
X17680000Y-53060000D02*
X17680000Y-50900000D01*
%LPC*%
D12*
X34500000Y-70700000D03*
X38500000Y-70700000D03*
D13*
X35200000Y-69800000D03*
X35850000Y-69800000D03*
X36500000Y-69800000D03*
X37150000Y-69800000D03*
X37800000Y-69800000D03*
D14*
X35000000Y-74000000D03*
X38000000Y-74000000D03*
D15*
X40100000Y-72800000D03*
X40100000Y-69300000D03*
X32900000Y-72800000D03*
X32900000Y-69300000D03*
D16*
X7805000Y-38750000D03*
X6535000Y-38750000D03*
X5265000Y-38750000D03*
X3995000Y-38750000D03*
X3995000Y-46250000D03*
X5265000Y-46250000D03*
X6535000Y-46250000D03*
X7805000Y-46250000D03*
D17*
X5900000Y-42500000D03*
D18*
X12100000Y-34500000D03*
X13200000Y-34500000D03*
X14300000Y-34500000D03*
X15400000Y-34500000D03*
X16500000Y-34500000D03*
X17600000Y-34500000D03*
X18700000Y-34500000D03*
X21700000Y-34500000D03*
X22800000Y-34500000D03*
X23900000Y-34500000D03*
X25000000Y-34500000D03*
X26100000Y-34500000D03*
X26100000Y-22300000D03*
X25000000Y-22300000D03*
X23900000Y-22300000D03*
X22800000Y-22300000D03*
X21700000Y-22300000D03*
X18700000Y-22300000D03*
X17600000Y-22300000D03*
X16500000Y-22300000D03*
X15400000Y-22300000D03*
X14300000Y-22300000D03*
X13200000Y-22300000D03*
X12100000Y-22300000D03*
D19*
X5000000Y-62500000D03*
X45000000Y-62500000D03*
X45000000Y-12500000D03*
X5000000Y-12500000D03*
D20*
X45900000Y-20600000D03*
X47475000Y-20600000D03*
D21*
X37360000Y-66150000D03*
X37360000Y-65200000D03*
X37360000Y-64250000D03*
X35040000Y-64250000D03*
X35040000Y-65200000D03*
X35040000Y-66150000D03*
D22*
X44700000Y-40787500D03*
X44700000Y-39212500D03*
X46700000Y-40787500D03*
X46700000Y-39212500D03*
D23*
X47487500Y-30000000D03*
X45912500Y-30000000D03*
X36087500Y-50600000D03*
X34512500Y-50600000D03*
D24*
X32250000Y-41850000D03*
X31750000Y-41850000D03*
X31250000Y-41850000D03*
X30750000Y-41850000D03*
X30250000Y-41850000D03*
X29750000Y-41850000D03*
X29250000Y-41850000D03*
X28750000Y-41850000D03*
X28250000Y-41850000D03*
X27750000Y-41850000D03*
X27250000Y-41850000D03*
X26750000Y-41850000D03*
D25*
X25150000Y-43450000D03*
X25150000Y-43950000D03*
X25150000Y-44450000D03*
X25150000Y-44950000D03*
X25150000Y-45450000D03*
X25150000Y-45950000D03*
X25150000Y-46450000D03*
X25150000Y-46950000D03*
X25150000Y-47450000D03*
X25150000Y-47950000D03*
X25150000Y-48450000D03*
X25150000Y-48950000D03*
D24*
X26750000Y-50550000D03*
X27250000Y-50550000D03*
X27750000Y-50550000D03*
X28250000Y-50550000D03*
X28750000Y-50550000D03*
X29250000Y-50550000D03*
X29750000Y-50550000D03*
X30250000Y-50550000D03*
X30750000Y-50550000D03*
X31250000Y-50550000D03*
X31750000Y-50550000D03*
X32250000Y-50550000D03*
D25*
X33850000Y-48950000D03*
X33850000Y-48450000D03*
X33850000Y-47950000D03*
X33850000Y-47450000D03*
X33850000Y-46950000D03*
X33850000Y-46450000D03*
X33850000Y-45950000D03*
X33850000Y-45450000D03*
X33850000Y-44950000D03*
X33850000Y-44450000D03*
X33850000Y-43950000D03*
X33850000Y-43450000D03*
D26*
X23450000Y-61200000D03*
X22500000Y-61200000D03*
X21550000Y-61200000D03*
X21550000Y-63400000D03*
X23450000Y-63400000D03*
D23*
X48487500Y-28100000D03*
X46912500Y-28100000D03*
D27*
X32300000Y-36700000D03*
X32300000Y-38275000D03*
D23*
X35475000Y-41700000D03*
X33900000Y-41700000D03*
X12087500Y-46300000D03*
X10512500Y-46300000D03*
D22*
X29250000Y-34737500D03*
X29250000Y-33162500D03*
D20*
X11612500Y-18800000D03*
X13187500Y-18800000D03*
D28*
X9500000Y-32450000D03*
X9500000Y-30550000D03*
X7500000Y-31500000D03*
D23*
X41500000Y-52350000D03*
X39925000Y-52350000D03*
D27*
X8500000Y-22800000D03*
X8500000Y-24375000D03*
D29*
X45700000Y-54900000D03*
D30*
X45700000Y-52360000D03*
X45700000Y-49820000D03*
X45700000Y-47280000D03*
X45700000Y-44740000D03*
D22*
X8500000Y-28187500D03*
X8500000Y-26612500D03*
D31*
X47700000Y-26300000D03*
X47700000Y-25500000D03*
X47700000Y-24700000D03*
X47700000Y-23900000D03*
X47700000Y-23100000D03*
X47700000Y-22300000D03*
D32*
X46700000Y-22300000D03*
D31*
X45700000Y-22300000D03*
X45700000Y-23100000D03*
X45700000Y-23900000D03*
X45700000Y-24700000D03*
X45700000Y-25500000D03*
X45700000Y-26300000D03*
D32*
X46700000Y-26300000D03*
D33*
X35700000Y-37550000D03*
X35700000Y-33850000D03*
D22*
X32300000Y-34700000D03*
X32300000Y-33125000D03*
X31550000Y-63287500D03*
X31550000Y-61712500D03*
D27*
X18500000Y-46712500D03*
X18500000Y-48287500D03*
D34*
X21800000Y-41837500D03*
X21800000Y-39962500D03*
D35*
X30800000Y-65362500D03*
X30800000Y-67237500D03*
D22*
X28750000Y-59437500D03*
X28750000Y-57862500D03*
D27*
X28750000Y-61700000D03*
X28750000Y-63275000D03*
D22*
X27050000Y-63287500D03*
X27050000Y-61712500D03*
D23*
X40750000Y-54900000D03*
X39175000Y-54900000D03*
D34*
X8500000Y-20537500D03*
X8500000Y-18662500D03*
D27*
X26950000Y-57912500D03*
X26950000Y-59487500D03*
X24987500Y-40262500D03*
X24987500Y-41837500D03*
X16700000Y-46712500D03*
X16700000Y-48287500D03*
D22*
X14900000Y-48287500D03*
X14900000Y-46712500D03*
D20*
X10512500Y-44450000D03*
X12087500Y-44450000D03*
D23*
X19187500Y-59850000D03*
X17612500Y-59850000D03*
D26*
X23450000Y-55750000D03*
X22500000Y-55750000D03*
X21550000Y-55750000D03*
X21550000Y-57950000D03*
X23450000Y-57950000D03*
D36*
X13750000Y-58100000D03*
X11850000Y-58100000D03*
X12800000Y-60100000D03*
D37*
X5300000Y-52300000D03*
D38*
X5300000Y-54300000D03*
D20*
X23562500Y-51200000D03*
X25137500Y-51200000D03*
D39*
X17600000Y-57950000D03*
X19500000Y-57950000D03*
X18550000Y-55950000D03*
D28*
X10600000Y-53250000D03*
X10600000Y-51350000D03*
X8600000Y-52300000D03*
X22400000Y-48650000D03*
X22400000Y-46750000D03*
X20400000Y-47700000D03*
D40*
X8612500Y-56200000D03*
X10487500Y-56200000D03*
D41*
X10100000Y-65000000D03*
X17900000Y-65000000D03*
D20*
X12012500Y-54600000D03*
X13587500Y-54600000D03*
D22*
X21000000Y-52887500D03*
X21000000Y-51312500D03*
D27*
X19150000Y-51312500D03*
X19150000Y-52887500D03*
D36*
X17050000Y-51300000D03*
X15150000Y-51300000D03*
X16100000Y-53300000D03*
D42*
X25000000Y-37500000D03*
M02*
