M48
; DRILL file {KiCad 6.0.11+dfsg-1} date Thu 11 Apr 2024 02:19:56 AM MSK
; FORMAT={-:-/ absolute / metric / decimal}
; #@! TF.CreationDate,2024-04-11T02:19:56+03:00
; #@! TF.GenerationSoftware,Kicad,Pcbnew,6.0.11+dfsg-1
; #@! TF.FileFunction,Plated,1,2,PTH
FMAT,2
METRIC
; #@! TA.AperFunction,Plated,PTH,ViaDrill
T1C0.400
; #@! TA.AperFunction,Plated,PTH,ComponentDrill
T2C0.500
; #@! TA.AperFunction,Plated,PTH,ComponentDrill
T3C0.750
; #@! TA.AperFunction,Plated,PTH,ComponentDrill
T4C1.000
%
G90
G05
T1
X1.2Y-47.5
X2.4Y-36.2
X2.4Y-38.8
X2.4Y-46.2
X2.4Y-48.7
X8.4Y-65.1
X8.9Y-2.5
X9.4Y-42.5
X10.2Y-18.8
X10.3Y-22.3
X10.5Y-58.1
X12.1Y-47.7
X12.4Y-50.9
X12.8Y-56.7
X14.4Y-20.1
X14.9Y-42.5
X15.3Y-56.75
X16.2Y-58.1
X19.3Y-65.6
X20.2Y-34.5
X20.4Y-55.75
X20.4Y-61.2
X22.3Y-51.2
X22.5Y-59.7
X23.5Y-40.3
X25.5Y-61.2
X25.8Y-15.8
X26.1Y-31.6
X26.8Y-48.0
X27.3Y-44.4
X27.3Y-55.4
X28.5Y-40.4
X28.5Y-72.5
X29.3Y-31.8
X30.8Y-55.4
X33.3Y-51.5
X33.3Y-53.2
X33.4Y-65.2
X33.7Y-33.15
X33.7Y-38.3
X35.0Y-63.15
X35.6Y-43.5
X35.6Y-47.2
X37.1Y-22.3
X37.4Y-63.2
X37.9Y-51.0
X37.9Y-53.8
X38.0Y-35.7
X38.4Y-42.2
X38.4Y-46.2
X39.8Y-42.2
X39.8Y-46.2
X40.75Y-35.675
X41.1Y-2.5
X41.9Y-50.8
X42.3Y-22.3
X44.4Y-42.9
X46.9Y-17.4
X47.0Y-23.5
X47.5Y-46.0
X47.7Y-31.4
T3
X5.3Y-52.3
X5.3Y-54.3
T4
X25.0Y-37.5
X45.7Y-44.74
X45.7Y-47.28
X45.7Y-49.82
X45.7Y-52.36
X45.7Y-54.9
T2
G00X32.9Y-68.95
M15
G01X32.9Y-69.65
M16
G05
G00X32.9Y-72.45
M15
G01X32.9Y-73.15
M16
G05
G00X40.1Y-68.95
M15
G01X40.1Y-69.65
M16
G05
G00X40.1Y-72.45
M15
G01X40.1Y-73.15
M16
G05
T0
M30
