%TF.GenerationSoftware,KiCad,Pcbnew,5.0.2+dfsg1-1*%
%TF.CreationDate,2021-01-30T01:57:09+03:00*%
%TF.ProjectId,LocalTrack,4c6f6361-6c54-4726-9163-6b2e6b696361,1.3*%
%TF.SameCoordinates,PX7270e00PY47868c0*%
%TF.FileFunction,Soldermask,Top*%
%TF.FilePolarity,Negative*%
%FSLAX46Y46*%
G04 Gerber Fmt 4.6, Leading zero omitted, Abs format (unit mm)*
G04 Created by KiCad (PCBNEW 5.0.2+dfsg1-1) date Sat 30 Jan 2021 01:57:09 AM MSK*
%MOMM*%
%LPD*%
G01*
G04 APERTURE LIST*
%ADD10C,0.100000*%
G04 APERTURE END LIST*
D10*
G36*
X38600000Y-74550000D02*
X37400000Y-74550000D01*
X37400000Y-73450000D01*
X38600000Y-73450000D01*
X38600000Y-74550000D01*
X38600000Y-74550000D01*
G37*
G36*
X35600000Y-74550000D02*
X34400000Y-74550000D01*
X34400000Y-73450000D01*
X35600000Y-73450000D01*
X35600000Y-74550000D01*
X35600000Y-74550000D01*
G37*
G36*
X40217620Y-71858682D02*
X40330720Y-71892990D01*
X40434954Y-71948704D01*
X40526317Y-72023683D01*
X40601296Y-72115045D01*
X40657010Y-72219279D01*
X40691318Y-72332379D01*
X40700000Y-72420526D01*
X40700000Y-73179474D01*
X40691318Y-73267621D01*
X40657010Y-73380721D01*
X40601296Y-73484955D01*
X40526317Y-73576317D01*
X40434955Y-73651296D01*
X40330721Y-73707010D01*
X40217621Y-73741318D01*
X40100000Y-73752903D01*
X39982380Y-73741318D01*
X39869280Y-73707010D01*
X39765046Y-73651296D01*
X39673684Y-73576317D01*
X39598705Y-73484955D01*
X39542990Y-73380721D01*
X39508682Y-73267621D01*
X39500000Y-73179474D01*
X39500000Y-72420527D01*
X39508682Y-72332380D01*
X39542990Y-72219280D01*
X39598704Y-72115046D01*
X39673683Y-72023683D01*
X39765045Y-71948704D01*
X39869279Y-71892990D01*
X39982379Y-71858682D01*
X40100000Y-71847097D01*
X40217620Y-71858682D01*
X40217620Y-71858682D01*
G37*
G36*
X33017620Y-71858682D02*
X33130720Y-71892990D01*
X33234954Y-71948704D01*
X33326317Y-72023683D01*
X33401296Y-72115045D01*
X33457010Y-72219279D01*
X33491318Y-72332379D01*
X33500000Y-72420526D01*
X33500000Y-73179474D01*
X33491318Y-73267621D01*
X33457010Y-73380721D01*
X33401296Y-73484955D01*
X33326317Y-73576317D01*
X33234955Y-73651296D01*
X33130721Y-73707010D01*
X33017621Y-73741318D01*
X32900000Y-73752903D01*
X32782380Y-73741318D01*
X32669280Y-73707010D01*
X32565046Y-73651296D01*
X32473684Y-73576317D01*
X32398705Y-73484955D01*
X32342990Y-73380721D01*
X32308682Y-73267621D01*
X32300000Y-73179474D01*
X32300000Y-72420527D01*
X32308682Y-72332380D01*
X32342990Y-72219280D01*
X32398704Y-72115046D01*
X32473683Y-72023683D01*
X32565045Y-71948704D01*
X32669279Y-71892990D01*
X32782379Y-71858682D01*
X32900000Y-71847097D01*
X33017620Y-71858682D01*
X33017620Y-71858682D01*
G37*
G36*
X38602087Y-70363449D02*
X38602088Y-70363449D01*
X38602091Y-70363450D01*
X38665787Y-70389834D01*
X38723112Y-70428137D01*
X38771863Y-70476888D01*
X38810166Y-70534213D01*
X38836550Y-70597909D01*
X38850000Y-70665528D01*
X38850000Y-70734472D01*
X38836550Y-70802091D01*
X38810166Y-70865787D01*
X38771863Y-70923112D01*
X38723112Y-70971863D01*
X38665787Y-71010166D01*
X38602091Y-71036550D01*
X38602088Y-71036551D01*
X38602087Y-71036551D01*
X38534474Y-71050000D01*
X38465526Y-71050000D01*
X38397913Y-71036551D01*
X38397912Y-71036551D01*
X38397909Y-71036550D01*
X38334213Y-71010166D01*
X38276888Y-70971863D01*
X38228137Y-70923112D01*
X38189834Y-70865787D01*
X38163450Y-70802091D01*
X38150000Y-70734472D01*
X38150000Y-70665528D01*
X38163450Y-70597909D01*
X38189834Y-70534213D01*
X38228137Y-70476888D01*
X38276888Y-70428137D01*
X38334213Y-70389834D01*
X38397909Y-70363450D01*
X38397912Y-70363449D01*
X38397913Y-70363449D01*
X38465526Y-70350000D01*
X38534474Y-70350000D01*
X38602087Y-70363449D01*
X38602087Y-70363449D01*
G37*
G36*
X34602087Y-70363449D02*
X34602088Y-70363449D01*
X34602091Y-70363450D01*
X34665787Y-70389834D01*
X34723112Y-70428137D01*
X34771863Y-70476888D01*
X34810166Y-70534213D01*
X34836550Y-70597909D01*
X34850000Y-70665528D01*
X34850000Y-70734472D01*
X34836550Y-70802091D01*
X34810166Y-70865787D01*
X34771863Y-70923112D01*
X34723112Y-70971863D01*
X34665787Y-71010166D01*
X34602091Y-71036550D01*
X34602088Y-71036551D01*
X34602087Y-71036551D01*
X34534474Y-71050000D01*
X34465526Y-71050000D01*
X34397913Y-71036551D01*
X34397912Y-71036551D01*
X34397909Y-71036550D01*
X34334213Y-71010166D01*
X34276888Y-70971863D01*
X34228137Y-70923112D01*
X34189834Y-70865787D01*
X34163450Y-70802091D01*
X34150000Y-70734472D01*
X34150000Y-70665528D01*
X34163450Y-70597909D01*
X34189834Y-70534213D01*
X34228137Y-70476888D01*
X34276888Y-70428137D01*
X34334213Y-70389834D01*
X34397909Y-70363450D01*
X34397912Y-70363449D01*
X34397913Y-70363449D01*
X34465526Y-70350000D01*
X34534474Y-70350000D01*
X34602087Y-70363449D01*
X34602087Y-70363449D01*
G37*
G36*
X38050000Y-70800000D02*
X37550000Y-70800000D01*
X37550000Y-68800000D01*
X38050000Y-68800000D01*
X38050000Y-70800000D01*
X38050000Y-70800000D01*
G37*
G36*
X35450000Y-70800000D02*
X34950000Y-70800000D01*
X34950000Y-68800000D01*
X35450000Y-68800000D01*
X35450000Y-70800000D01*
X35450000Y-70800000D01*
G37*
G36*
X36100000Y-70800000D02*
X35600000Y-70800000D01*
X35600000Y-68800000D01*
X36100000Y-68800000D01*
X36100000Y-70800000D01*
X36100000Y-70800000D01*
G37*
G36*
X37400000Y-70800000D02*
X36900000Y-70800000D01*
X36900000Y-68800000D01*
X37400000Y-68800000D01*
X37400000Y-70800000D01*
X37400000Y-70800000D01*
G37*
G36*
X36750000Y-70800000D02*
X36250000Y-70800000D01*
X36250000Y-68800000D01*
X36750000Y-68800000D01*
X36750000Y-70800000D01*
X36750000Y-70800000D01*
G37*
G36*
X40217620Y-68358682D02*
X40330720Y-68392990D01*
X40434954Y-68448704D01*
X40526317Y-68523683D01*
X40601296Y-68615045D01*
X40657010Y-68719279D01*
X40691318Y-68832379D01*
X40700000Y-68920526D01*
X40700000Y-69679474D01*
X40691318Y-69767621D01*
X40657010Y-69880721D01*
X40601296Y-69984955D01*
X40526317Y-70076317D01*
X40434955Y-70151296D01*
X40330721Y-70207010D01*
X40217621Y-70241318D01*
X40100000Y-70252903D01*
X39982380Y-70241318D01*
X39869280Y-70207010D01*
X39765046Y-70151296D01*
X39673684Y-70076317D01*
X39598705Y-69984955D01*
X39542990Y-69880721D01*
X39508682Y-69767621D01*
X39500000Y-69679474D01*
X39500000Y-68920527D01*
X39508682Y-68832380D01*
X39542990Y-68719280D01*
X39598704Y-68615046D01*
X39673683Y-68523683D01*
X39765045Y-68448704D01*
X39869279Y-68392990D01*
X39982379Y-68358682D01*
X40100000Y-68347097D01*
X40217620Y-68358682D01*
X40217620Y-68358682D01*
G37*
G36*
X33017620Y-68358682D02*
X33130720Y-68392990D01*
X33234954Y-68448704D01*
X33326317Y-68523683D01*
X33401296Y-68615045D01*
X33457010Y-68719279D01*
X33491318Y-68832379D01*
X33500000Y-68920526D01*
X33500000Y-69679474D01*
X33491318Y-69767621D01*
X33457010Y-69880721D01*
X33401296Y-69984955D01*
X33326317Y-70076317D01*
X33234955Y-70151296D01*
X33130721Y-70207010D01*
X33017621Y-70241318D01*
X32900000Y-70252903D01*
X32782380Y-70241318D01*
X32669280Y-70207010D01*
X32565046Y-70151296D01*
X32473684Y-70076317D01*
X32398705Y-69984955D01*
X32342990Y-69880721D01*
X32308682Y-69767621D01*
X32300000Y-69679474D01*
X32300000Y-68920527D01*
X32308682Y-68832380D01*
X32342990Y-68719280D01*
X32398704Y-68615046D01*
X32473683Y-68523683D01*
X32565045Y-68448704D01*
X32669279Y-68392990D01*
X32782379Y-68358682D01*
X32900000Y-68347097D01*
X33017620Y-68358682D01*
X33017620Y-68358682D01*
G37*
G36*
X31351748Y-66704945D02*
X31397899Y-66718944D01*
X31440441Y-66741683D01*
X31477721Y-66772279D01*
X31508317Y-66809559D01*
X31531056Y-66852101D01*
X31545055Y-66898252D01*
X31550000Y-66948458D01*
X31550000Y-67526542D01*
X31545055Y-67576748D01*
X31531056Y-67622899D01*
X31508317Y-67665441D01*
X31477721Y-67702721D01*
X31440441Y-67733317D01*
X31397899Y-67756056D01*
X31351748Y-67770055D01*
X31301542Y-67775000D01*
X30298458Y-67775000D01*
X30248252Y-67770055D01*
X30202101Y-67756056D01*
X30159559Y-67733317D01*
X30122279Y-67702721D01*
X30091683Y-67665441D01*
X30068944Y-67622899D01*
X30054945Y-67576748D01*
X30050000Y-67526542D01*
X30050000Y-66948458D01*
X30054945Y-66898252D01*
X30068944Y-66852101D01*
X30091683Y-66809559D01*
X30122279Y-66772279D01*
X30159559Y-66741683D01*
X30202101Y-66718944D01*
X30248252Y-66704945D01*
X30298458Y-66700000D01*
X31301542Y-66700000D01*
X31351748Y-66704945D01*
X31351748Y-66704945D01*
G37*
G36*
X37760000Y-66455000D02*
X36960000Y-66455000D01*
X36960000Y-65845000D01*
X37760000Y-65845000D01*
X37760000Y-66455000D01*
X37760000Y-66455000D01*
G37*
G36*
X35440000Y-66455000D02*
X34640000Y-66455000D01*
X34640000Y-65845000D01*
X35440000Y-65845000D01*
X35440000Y-66455000D01*
X35440000Y-66455000D01*
G37*
G36*
X10800000Y-66350000D02*
X9400000Y-66350000D01*
X9400000Y-63650000D01*
X10800000Y-63650000D01*
X10800000Y-66350000D01*
X10800000Y-66350000D01*
G37*
G36*
X18600000Y-66350000D02*
X17200000Y-66350000D01*
X17200000Y-63650000D01*
X18600000Y-63650000D01*
X18600000Y-66350000D01*
X18600000Y-66350000D01*
G37*
G36*
X31351748Y-64829945D02*
X31397899Y-64843944D01*
X31440441Y-64866683D01*
X31477721Y-64897279D01*
X31508317Y-64934559D01*
X31531056Y-64977101D01*
X31545055Y-65023252D01*
X31550000Y-65073458D01*
X31550000Y-65651542D01*
X31545055Y-65701748D01*
X31531056Y-65747899D01*
X31508317Y-65790441D01*
X31477721Y-65827721D01*
X31440441Y-65858317D01*
X31397899Y-65881056D01*
X31351748Y-65895055D01*
X31301542Y-65900000D01*
X30298458Y-65900000D01*
X30248252Y-65895055D01*
X30202101Y-65881056D01*
X30159559Y-65858317D01*
X30122279Y-65827721D01*
X30091683Y-65790441D01*
X30068944Y-65747899D01*
X30054945Y-65701748D01*
X30050000Y-65651542D01*
X30050000Y-65073458D01*
X30054945Y-65023252D01*
X30068944Y-64977101D01*
X30091683Y-64934559D01*
X30122279Y-64897279D01*
X30159559Y-64866683D01*
X30202101Y-64843944D01*
X30248252Y-64829945D01*
X30298458Y-64825000D01*
X31301542Y-64825000D01*
X31351748Y-64829945D01*
X31351748Y-64829945D01*
G37*
G36*
X37760000Y-65505000D02*
X36960000Y-65505000D01*
X36960000Y-64895000D01*
X37760000Y-64895000D01*
X37760000Y-65505000D01*
X37760000Y-65505000D01*
G37*
G36*
X35440000Y-65505000D02*
X34640000Y-65505000D01*
X34640000Y-64895000D01*
X35440000Y-64895000D01*
X35440000Y-65505000D01*
X35440000Y-65505000D01*
G37*
G36*
X37760000Y-64555000D02*
X36960000Y-64555000D01*
X36960000Y-63945000D01*
X37760000Y-63945000D01*
X37760000Y-64555000D01*
X37760000Y-64555000D01*
G37*
G36*
X35440000Y-64555000D02*
X34640000Y-64555000D01*
X34640000Y-63945000D01*
X35440000Y-63945000D01*
X35440000Y-64555000D01*
X35440000Y-64555000D01*
G37*
G36*
X5268770Y-60871136D02*
X5481287Y-60913408D01*
X5781568Y-61037789D01*
X6051814Y-61218361D01*
X6281639Y-61448186D01*
X6462211Y-61718432D01*
X6586592Y-62018713D01*
X6650000Y-62337489D01*
X6650000Y-62662511D01*
X6586592Y-62981287D01*
X6462211Y-63281568D01*
X6281639Y-63551814D01*
X6051814Y-63781639D01*
X5781568Y-63962211D01*
X5481287Y-64086592D01*
X5268770Y-64128864D01*
X5162513Y-64150000D01*
X4837487Y-64150000D01*
X4731230Y-64128864D01*
X4518713Y-64086592D01*
X4218432Y-63962211D01*
X3948186Y-63781639D01*
X3718361Y-63551814D01*
X3537789Y-63281568D01*
X3413408Y-62981287D01*
X3350000Y-62662511D01*
X3350000Y-62337489D01*
X3413408Y-62018713D01*
X3537789Y-61718432D01*
X3718361Y-61448186D01*
X3948186Y-61218361D01*
X4218432Y-61037789D01*
X4518713Y-60913408D01*
X4731230Y-60871136D01*
X4837487Y-60850000D01*
X5162513Y-60850000D01*
X5268770Y-60871136D01*
X5268770Y-60871136D01*
G37*
G36*
X45268770Y-60871136D02*
X45481287Y-60913408D01*
X45781568Y-61037789D01*
X46051814Y-61218361D01*
X46281639Y-61448186D01*
X46462211Y-61718432D01*
X46586592Y-62018713D01*
X46650000Y-62337489D01*
X46650000Y-62662511D01*
X46586592Y-62981287D01*
X46462211Y-63281568D01*
X46281639Y-63551814D01*
X46051814Y-63781639D01*
X45781568Y-63962211D01*
X45481287Y-64086592D01*
X45268770Y-64128864D01*
X45162513Y-64150000D01*
X44837487Y-64150000D01*
X44731230Y-64128864D01*
X44518713Y-64086592D01*
X44218432Y-63962211D01*
X43948186Y-63781639D01*
X43718361Y-63551814D01*
X43537789Y-63281568D01*
X43413408Y-62981287D01*
X43350000Y-62662511D01*
X43350000Y-62337489D01*
X43413408Y-62018713D01*
X43537789Y-61718432D01*
X43718361Y-61448186D01*
X43948186Y-61218361D01*
X44218432Y-61037789D01*
X44518713Y-60913408D01*
X44731230Y-60871136D01*
X44837487Y-60850000D01*
X45162513Y-60850000D01*
X45268770Y-60871136D01*
X45268770Y-60871136D01*
G37*
G36*
X23825000Y-63980000D02*
X23075000Y-63980000D01*
X23075000Y-62820000D01*
X23825000Y-62820000D01*
X23825000Y-63980000D01*
X23825000Y-63980000D01*
G37*
G36*
X21925000Y-63980000D02*
X21175000Y-63980000D01*
X21175000Y-62820000D01*
X21925000Y-62820000D01*
X21925000Y-63980000D01*
X21925000Y-63980000D01*
G37*
G36*
X31896871Y-62804465D02*
X31938334Y-62817042D01*
X31976550Y-62837469D01*
X32010043Y-62864957D01*
X32037531Y-62898450D01*
X32057958Y-62936666D01*
X32070535Y-62978129D01*
X32075000Y-63023458D01*
X32075000Y-63551542D01*
X32070535Y-63596871D01*
X32057958Y-63638334D01*
X32037531Y-63676550D01*
X32010043Y-63710043D01*
X31976550Y-63737531D01*
X31938334Y-63757958D01*
X31896871Y-63770535D01*
X31851542Y-63775000D01*
X31248458Y-63775000D01*
X31203129Y-63770535D01*
X31161666Y-63757958D01*
X31123450Y-63737531D01*
X31089957Y-63710043D01*
X31062469Y-63676550D01*
X31042042Y-63638334D01*
X31029465Y-63596871D01*
X31025000Y-63551542D01*
X31025000Y-63023458D01*
X31029465Y-62978129D01*
X31042042Y-62936666D01*
X31062469Y-62898450D01*
X31089957Y-62864957D01*
X31123450Y-62837469D01*
X31161666Y-62817042D01*
X31203129Y-62804465D01*
X31248458Y-62800000D01*
X31851542Y-62800000D01*
X31896871Y-62804465D01*
X31896871Y-62804465D01*
G37*
G36*
X27396871Y-62804465D02*
X27438334Y-62817042D01*
X27476550Y-62837469D01*
X27510043Y-62864957D01*
X27537531Y-62898450D01*
X27557958Y-62936666D01*
X27570535Y-62978129D01*
X27575000Y-63023458D01*
X27575000Y-63551542D01*
X27570535Y-63596871D01*
X27557958Y-63638334D01*
X27537531Y-63676550D01*
X27510043Y-63710043D01*
X27476550Y-63737531D01*
X27438334Y-63757958D01*
X27396871Y-63770535D01*
X27351542Y-63775000D01*
X26748458Y-63775000D01*
X26703129Y-63770535D01*
X26661666Y-63757958D01*
X26623450Y-63737531D01*
X26589957Y-63710043D01*
X26562469Y-63676550D01*
X26542042Y-63638334D01*
X26529465Y-63596871D01*
X26525000Y-63551542D01*
X26525000Y-63023458D01*
X26529465Y-62978129D01*
X26542042Y-62936666D01*
X26562469Y-62898450D01*
X26589957Y-62864957D01*
X26623450Y-62837469D01*
X26661666Y-62817042D01*
X26703129Y-62804465D01*
X26748458Y-62800000D01*
X27351542Y-62800000D01*
X27396871Y-62804465D01*
X27396871Y-62804465D01*
G37*
G36*
X29096871Y-62791965D02*
X29138334Y-62804542D01*
X29176550Y-62824969D01*
X29210043Y-62852457D01*
X29237531Y-62885950D01*
X29257958Y-62924166D01*
X29270535Y-62965629D01*
X29275000Y-63010958D01*
X29275000Y-63539042D01*
X29270535Y-63584371D01*
X29257958Y-63625834D01*
X29237531Y-63664050D01*
X29210043Y-63697543D01*
X29176550Y-63725031D01*
X29138334Y-63745458D01*
X29096871Y-63758035D01*
X29051542Y-63762500D01*
X28448458Y-63762500D01*
X28403129Y-63758035D01*
X28361666Y-63745458D01*
X28323450Y-63725031D01*
X28289957Y-63697543D01*
X28262469Y-63664050D01*
X28242042Y-63625834D01*
X28229465Y-63584371D01*
X28225000Y-63539042D01*
X28225000Y-63010958D01*
X28229465Y-62965629D01*
X28242042Y-62924166D01*
X28262469Y-62885950D01*
X28289957Y-62852457D01*
X28323450Y-62824969D01*
X28361666Y-62804542D01*
X28403129Y-62791965D01*
X28448458Y-62787500D01*
X29051542Y-62787500D01*
X29096871Y-62791965D01*
X29096871Y-62791965D01*
G37*
G36*
X31896871Y-61229465D02*
X31938334Y-61242042D01*
X31976550Y-61262469D01*
X32010043Y-61289957D01*
X32037531Y-61323450D01*
X32057958Y-61361666D01*
X32070535Y-61403129D01*
X32075000Y-61448458D01*
X32075000Y-61976542D01*
X32070535Y-62021871D01*
X32057958Y-62063334D01*
X32037531Y-62101550D01*
X32010043Y-62135043D01*
X31976550Y-62162531D01*
X31938334Y-62182958D01*
X31896871Y-62195535D01*
X31851542Y-62200000D01*
X31248458Y-62200000D01*
X31203129Y-62195535D01*
X31161666Y-62182958D01*
X31123450Y-62162531D01*
X31089957Y-62135043D01*
X31062469Y-62101550D01*
X31042042Y-62063334D01*
X31029465Y-62021871D01*
X31025000Y-61976542D01*
X31025000Y-61448458D01*
X31029465Y-61403129D01*
X31042042Y-61361666D01*
X31062469Y-61323450D01*
X31089957Y-61289957D01*
X31123450Y-61262469D01*
X31161666Y-61242042D01*
X31203129Y-61229465D01*
X31248458Y-61225000D01*
X31851542Y-61225000D01*
X31896871Y-61229465D01*
X31896871Y-61229465D01*
G37*
G36*
X27396871Y-61229465D02*
X27438334Y-61242042D01*
X27476550Y-61262469D01*
X27510043Y-61289957D01*
X27537531Y-61323450D01*
X27557958Y-61361666D01*
X27570535Y-61403129D01*
X27575000Y-61448458D01*
X27575000Y-61976542D01*
X27570535Y-62021871D01*
X27557958Y-62063334D01*
X27537531Y-62101550D01*
X27510043Y-62135043D01*
X27476550Y-62162531D01*
X27438334Y-62182958D01*
X27396871Y-62195535D01*
X27351542Y-62200000D01*
X26748458Y-62200000D01*
X26703129Y-62195535D01*
X26661666Y-62182958D01*
X26623450Y-62162531D01*
X26589957Y-62135043D01*
X26562469Y-62101550D01*
X26542042Y-62063334D01*
X26529465Y-62021871D01*
X26525000Y-61976542D01*
X26525000Y-61448458D01*
X26529465Y-61403129D01*
X26542042Y-61361666D01*
X26562469Y-61323450D01*
X26589957Y-61289957D01*
X26623450Y-61262469D01*
X26661666Y-61242042D01*
X26703129Y-61229465D01*
X26748458Y-61225000D01*
X27351542Y-61225000D01*
X27396871Y-61229465D01*
X27396871Y-61229465D01*
G37*
G36*
X29096871Y-61216965D02*
X29138334Y-61229542D01*
X29176550Y-61249969D01*
X29210043Y-61277457D01*
X29237531Y-61310950D01*
X29257958Y-61349166D01*
X29270535Y-61390629D01*
X29275000Y-61435958D01*
X29275000Y-61964042D01*
X29270535Y-62009371D01*
X29257958Y-62050834D01*
X29237531Y-62089050D01*
X29210043Y-62122543D01*
X29176550Y-62150031D01*
X29138334Y-62170458D01*
X29096871Y-62183035D01*
X29051542Y-62187500D01*
X28448458Y-62187500D01*
X28403129Y-62183035D01*
X28361666Y-62170458D01*
X28323450Y-62150031D01*
X28289957Y-62122543D01*
X28262469Y-62089050D01*
X28242042Y-62050834D01*
X28229465Y-62009371D01*
X28225000Y-61964042D01*
X28225000Y-61435958D01*
X28229465Y-61390629D01*
X28242042Y-61349166D01*
X28262469Y-61310950D01*
X28289957Y-61277457D01*
X28323450Y-61249969D01*
X28361666Y-61229542D01*
X28403129Y-61216965D01*
X28448458Y-61212500D01*
X29051542Y-61212500D01*
X29096871Y-61216965D01*
X29096871Y-61216965D01*
G37*
G36*
X22875000Y-61780000D02*
X22125000Y-61780000D01*
X22125000Y-60620000D01*
X22875000Y-60620000D01*
X22875000Y-61780000D01*
X22875000Y-61780000D01*
G37*
G36*
X21925000Y-61780000D02*
X21175000Y-61780000D01*
X21175000Y-60620000D01*
X21925000Y-60620000D01*
X21925000Y-61780000D01*
X21925000Y-61780000D01*
G37*
G36*
X23825000Y-61780000D02*
X23075000Y-61780000D01*
X23075000Y-60620000D01*
X23825000Y-60620000D01*
X23825000Y-61780000D01*
X23825000Y-61780000D01*
G37*
G36*
X13250000Y-60600000D02*
X12350000Y-60600000D01*
X12350000Y-59600000D01*
X13250000Y-59600000D01*
X13250000Y-60600000D01*
X13250000Y-60600000D01*
G37*
G36*
X17921871Y-59329465D02*
X17963334Y-59342042D01*
X18001550Y-59362469D01*
X18035043Y-59389957D01*
X18062531Y-59423450D01*
X18082958Y-59461666D01*
X18095535Y-59503129D01*
X18100000Y-59548458D01*
X18100000Y-60151542D01*
X18095535Y-60196871D01*
X18082958Y-60238334D01*
X18062531Y-60276550D01*
X18035043Y-60310043D01*
X18001550Y-60337531D01*
X17963334Y-60357958D01*
X17921871Y-60370535D01*
X17876542Y-60375000D01*
X17348458Y-60375000D01*
X17303129Y-60370535D01*
X17261666Y-60357958D01*
X17223450Y-60337531D01*
X17189957Y-60310043D01*
X17162469Y-60276550D01*
X17142042Y-60238334D01*
X17129465Y-60196871D01*
X17125000Y-60151542D01*
X17125000Y-59548458D01*
X17129465Y-59503129D01*
X17142042Y-59461666D01*
X17162469Y-59423450D01*
X17189957Y-59389957D01*
X17223450Y-59362469D01*
X17261666Y-59342042D01*
X17303129Y-59329465D01*
X17348458Y-59325000D01*
X17876542Y-59325000D01*
X17921871Y-59329465D01*
X17921871Y-59329465D01*
G37*
G36*
X19496871Y-59329465D02*
X19538334Y-59342042D01*
X19576550Y-59362469D01*
X19610043Y-59389957D01*
X19637531Y-59423450D01*
X19657958Y-59461666D01*
X19670535Y-59503129D01*
X19675000Y-59548458D01*
X19675000Y-60151542D01*
X19670535Y-60196871D01*
X19657958Y-60238334D01*
X19637531Y-60276550D01*
X19610043Y-60310043D01*
X19576550Y-60337531D01*
X19538334Y-60357958D01*
X19496871Y-60370535D01*
X19451542Y-60375000D01*
X18923458Y-60375000D01*
X18878129Y-60370535D01*
X18836666Y-60357958D01*
X18798450Y-60337531D01*
X18764957Y-60310043D01*
X18737469Y-60276550D01*
X18717042Y-60238334D01*
X18704465Y-60196871D01*
X18700000Y-60151542D01*
X18700000Y-59548458D01*
X18704465Y-59503129D01*
X18717042Y-59461666D01*
X18737469Y-59423450D01*
X18764957Y-59389957D01*
X18798450Y-59362469D01*
X18836666Y-59342042D01*
X18878129Y-59329465D01*
X18923458Y-59325000D01*
X19451542Y-59325000D01*
X19496871Y-59329465D01*
X19496871Y-59329465D01*
G37*
G36*
X27296871Y-59004465D02*
X27338334Y-59017042D01*
X27376550Y-59037469D01*
X27410043Y-59064957D01*
X27437531Y-59098450D01*
X27457958Y-59136666D01*
X27470535Y-59178129D01*
X27475000Y-59223458D01*
X27475000Y-59751542D01*
X27470535Y-59796871D01*
X27457958Y-59838334D01*
X27437531Y-59876550D01*
X27410043Y-59910043D01*
X27376550Y-59937531D01*
X27338334Y-59957958D01*
X27296871Y-59970535D01*
X27251542Y-59975000D01*
X26648458Y-59975000D01*
X26603129Y-59970535D01*
X26561666Y-59957958D01*
X26523450Y-59937531D01*
X26489957Y-59910043D01*
X26462469Y-59876550D01*
X26442042Y-59838334D01*
X26429465Y-59796871D01*
X26425000Y-59751542D01*
X26425000Y-59223458D01*
X26429465Y-59178129D01*
X26442042Y-59136666D01*
X26462469Y-59098450D01*
X26489957Y-59064957D01*
X26523450Y-59037469D01*
X26561666Y-59017042D01*
X26603129Y-59004465D01*
X26648458Y-59000000D01*
X27251542Y-59000000D01*
X27296871Y-59004465D01*
X27296871Y-59004465D01*
G37*
G36*
X29096871Y-58954465D02*
X29138334Y-58967042D01*
X29176550Y-58987469D01*
X29210043Y-59014957D01*
X29237531Y-59048450D01*
X29257958Y-59086666D01*
X29270535Y-59128129D01*
X29275000Y-59173458D01*
X29275000Y-59701542D01*
X29270535Y-59746871D01*
X29257958Y-59788334D01*
X29237531Y-59826550D01*
X29210043Y-59860043D01*
X29176550Y-59887531D01*
X29138334Y-59907958D01*
X29096871Y-59920535D01*
X29051542Y-59925000D01*
X28448458Y-59925000D01*
X28403129Y-59920535D01*
X28361666Y-59907958D01*
X28323450Y-59887531D01*
X28289957Y-59860043D01*
X28262469Y-59826550D01*
X28242042Y-59788334D01*
X28229465Y-59746871D01*
X28225000Y-59701542D01*
X28225000Y-59173458D01*
X28229465Y-59128129D01*
X28242042Y-59086666D01*
X28262469Y-59048450D01*
X28289957Y-59014957D01*
X28323450Y-58987469D01*
X28361666Y-58967042D01*
X28403129Y-58954465D01*
X28448458Y-58950000D01*
X29051542Y-58950000D01*
X29096871Y-58954465D01*
X29096871Y-58954465D01*
G37*
G36*
X14200000Y-58600000D02*
X13300000Y-58600000D01*
X13300000Y-57600000D01*
X14200000Y-57600000D01*
X14200000Y-58600000D01*
X14200000Y-58600000D01*
G37*
G36*
X12300000Y-58600000D02*
X11400000Y-58600000D01*
X11400000Y-57600000D01*
X12300000Y-57600000D01*
X12300000Y-58600000D01*
X12300000Y-58600000D01*
G37*
G36*
X23825000Y-58530000D02*
X23075000Y-58530000D01*
X23075000Y-57370000D01*
X23825000Y-57370000D01*
X23825000Y-58530000D01*
X23825000Y-58530000D01*
G37*
G36*
X21925000Y-58530000D02*
X21175000Y-58530000D01*
X21175000Y-57370000D01*
X21925000Y-57370000D01*
X21925000Y-58530000D01*
X21925000Y-58530000D01*
G37*
G36*
X19950000Y-58450000D02*
X19050000Y-58450000D01*
X19050000Y-57450000D01*
X19950000Y-57450000D01*
X19950000Y-58450000D01*
X19950000Y-58450000D01*
G37*
G36*
X18050000Y-58450000D02*
X17150000Y-58450000D01*
X17150000Y-57450000D01*
X18050000Y-57450000D01*
X18050000Y-58450000D01*
X18050000Y-58450000D01*
G37*
G36*
X27296871Y-57429465D02*
X27338334Y-57442042D01*
X27376550Y-57462469D01*
X27410043Y-57489957D01*
X27437531Y-57523450D01*
X27457958Y-57561666D01*
X27470535Y-57603129D01*
X27475000Y-57648458D01*
X27475000Y-58176542D01*
X27470535Y-58221871D01*
X27457958Y-58263334D01*
X27437531Y-58301550D01*
X27410043Y-58335043D01*
X27376550Y-58362531D01*
X27338334Y-58382958D01*
X27296871Y-58395535D01*
X27251542Y-58400000D01*
X26648458Y-58400000D01*
X26603129Y-58395535D01*
X26561666Y-58382958D01*
X26523450Y-58362531D01*
X26489957Y-58335043D01*
X26462469Y-58301550D01*
X26442042Y-58263334D01*
X26429465Y-58221871D01*
X26425000Y-58176542D01*
X26425000Y-57648458D01*
X26429465Y-57603129D01*
X26442042Y-57561666D01*
X26462469Y-57523450D01*
X26489957Y-57489957D01*
X26523450Y-57462469D01*
X26561666Y-57442042D01*
X26603129Y-57429465D01*
X26648458Y-57425000D01*
X27251542Y-57425000D01*
X27296871Y-57429465D01*
X27296871Y-57429465D01*
G37*
G36*
X29096871Y-57379465D02*
X29138334Y-57392042D01*
X29176550Y-57412469D01*
X29210043Y-57439957D01*
X29237531Y-57473450D01*
X29257958Y-57511666D01*
X29270535Y-57553129D01*
X29275000Y-57598458D01*
X29275000Y-58126542D01*
X29270535Y-58171871D01*
X29257958Y-58213334D01*
X29237531Y-58251550D01*
X29210043Y-58285043D01*
X29176550Y-58312531D01*
X29138334Y-58332958D01*
X29096871Y-58345535D01*
X29051542Y-58350000D01*
X28448458Y-58350000D01*
X28403129Y-58345535D01*
X28361666Y-58332958D01*
X28323450Y-58312531D01*
X28289957Y-58285043D01*
X28262469Y-58251550D01*
X28242042Y-58213334D01*
X28229465Y-58171871D01*
X28225000Y-58126542D01*
X28225000Y-57598458D01*
X28229465Y-57553129D01*
X28242042Y-57511666D01*
X28262469Y-57473450D01*
X28289957Y-57439957D01*
X28323450Y-57412469D01*
X28361666Y-57392042D01*
X28403129Y-57379465D01*
X28448458Y-57375000D01*
X29051542Y-57375000D01*
X29096871Y-57379465D01*
X29096871Y-57379465D01*
G37*
G36*
X10826748Y-55454945D02*
X10872899Y-55468944D01*
X10915441Y-55491683D01*
X10952721Y-55522279D01*
X10983317Y-55559559D01*
X11006056Y-55602101D01*
X11020055Y-55648252D01*
X11025000Y-55698458D01*
X11025000Y-56701542D01*
X11020055Y-56751748D01*
X11006056Y-56797899D01*
X10983317Y-56840441D01*
X10952721Y-56877721D01*
X10915441Y-56908317D01*
X10872899Y-56931056D01*
X10826748Y-56945055D01*
X10776542Y-56950000D01*
X10198458Y-56950000D01*
X10148252Y-56945055D01*
X10102101Y-56931056D01*
X10059559Y-56908317D01*
X10022279Y-56877721D01*
X9991683Y-56840441D01*
X9968944Y-56797899D01*
X9954945Y-56751748D01*
X9950000Y-56701542D01*
X9950000Y-55698458D01*
X9954945Y-55648252D01*
X9968944Y-55602101D01*
X9991683Y-55559559D01*
X10022279Y-55522279D01*
X10059559Y-55491683D01*
X10102101Y-55468944D01*
X10148252Y-55454945D01*
X10198458Y-55450000D01*
X10776542Y-55450000D01*
X10826748Y-55454945D01*
X10826748Y-55454945D01*
G37*
G36*
X8951748Y-55454945D02*
X8997899Y-55468944D01*
X9040441Y-55491683D01*
X9077721Y-55522279D01*
X9108317Y-55559559D01*
X9131056Y-55602101D01*
X9145055Y-55648252D01*
X9150000Y-55698458D01*
X9150000Y-56701542D01*
X9145055Y-56751748D01*
X9131056Y-56797899D01*
X9108317Y-56840441D01*
X9077721Y-56877721D01*
X9040441Y-56908317D01*
X8997899Y-56931056D01*
X8951748Y-56945055D01*
X8901542Y-56950000D01*
X8323458Y-56950000D01*
X8273252Y-56945055D01*
X8227101Y-56931056D01*
X8184559Y-56908317D01*
X8147279Y-56877721D01*
X8116683Y-56840441D01*
X8093944Y-56797899D01*
X8079945Y-56751748D01*
X8075000Y-56701542D01*
X8075000Y-55698458D01*
X8079945Y-55648252D01*
X8093944Y-55602101D01*
X8116683Y-55559559D01*
X8147279Y-55522279D01*
X8184559Y-55491683D01*
X8227101Y-55468944D01*
X8273252Y-55454945D01*
X8323458Y-55450000D01*
X8901542Y-55450000D01*
X8951748Y-55454945D01*
X8951748Y-55454945D01*
G37*
G36*
X19000000Y-56450000D02*
X18100000Y-56450000D01*
X18100000Y-55450000D01*
X19000000Y-55450000D01*
X19000000Y-56450000D01*
X19000000Y-56450000D01*
G37*
G36*
X23825000Y-56330000D02*
X23075000Y-56330000D01*
X23075000Y-55170000D01*
X23825000Y-55170000D01*
X23825000Y-56330000D01*
X23825000Y-56330000D01*
G37*
G36*
X22875000Y-56330000D02*
X22125000Y-56330000D01*
X22125000Y-55170000D01*
X22875000Y-55170000D01*
X22875000Y-56330000D01*
X22875000Y-56330000D01*
G37*
G36*
X21925000Y-56330000D02*
X21175000Y-56330000D01*
X21175000Y-55170000D01*
X21925000Y-55170000D01*
X21925000Y-56330000D01*
X21925000Y-56330000D01*
G37*
G36*
X46600000Y-55800000D02*
X44800000Y-55800000D01*
X44800000Y-54000000D01*
X46600000Y-54000000D01*
X46600000Y-55800000D01*
X46600000Y-55800000D01*
G37*
G36*
X39484371Y-54379465D02*
X39525834Y-54392042D01*
X39564050Y-54412469D01*
X39597543Y-54439957D01*
X39625031Y-54473450D01*
X39645458Y-54511666D01*
X39658035Y-54553129D01*
X39662500Y-54598458D01*
X39662500Y-55201542D01*
X39658035Y-55246871D01*
X39645458Y-55288334D01*
X39625031Y-55326550D01*
X39597543Y-55360043D01*
X39564050Y-55387531D01*
X39525834Y-55407958D01*
X39484371Y-55420535D01*
X39439042Y-55425000D01*
X38910958Y-55425000D01*
X38865629Y-55420535D01*
X38824166Y-55407958D01*
X38785950Y-55387531D01*
X38752457Y-55360043D01*
X38724969Y-55326550D01*
X38704542Y-55288334D01*
X38691965Y-55246871D01*
X38687500Y-55201542D01*
X38687500Y-54598458D01*
X38691965Y-54553129D01*
X38704542Y-54511666D01*
X38724969Y-54473450D01*
X38752457Y-54439957D01*
X38785950Y-54412469D01*
X38824166Y-54392042D01*
X38865629Y-54379465D01*
X38910958Y-54375000D01*
X39439042Y-54375000D01*
X39484371Y-54379465D01*
X39484371Y-54379465D01*
G37*
G36*
X41059371Y-54379465D02*
X41100834Y-54392042D01*
X41139050Y-54412469D01*
X41172543Y-54439957D01*
X41200031Y-54473450D01*
X41220458Y-54511666D01*
X41233035Y-54553129D01*
X41237500Y-54598458D01*
X41237500Y-55201542D01*
X41233035Y-55246871D01*
X41220458Y-55288334D01*
X41200031Y-55326550D01*
X41172543Y-55360043D01*
X41139050Y-55387531D01*
X41100834Y-55407958D01*
X41059371Y-55420535D01*
X41014042Y-55425000D01*
X40485958Y-55425000D01*
X40440629Y-55420535D01*
X40399166Y-55407958D01*
X40360950Y-55387531D01*
X40327457Y-55360043D01*
X40299969Y-55326550D01*
X40279542Y-55288334D01*
X40266965Y-55246871D01*
X40262500Y-55201542D01*
X40262500Y-54598458D01*
X40266965Y-54553129D01*
X40279542Y-54511666D01*
X40299969Y-54473450D01*
X40327457Y-54439957D01*
X40360950Y-54412469D01*
X40399166Y-54392042D01*
X40440629Y-54379465D01*
X40485958Y-54375000D01*
X41014042Y-54375000D01*
X41059371Y-54379465D01*
X41059371Y-54379465D01*
G37*
G36*
X13896871Y-54079465D02*
X13938334Y-54092042D01*
X13976550Y-54112469D01*
X14010043Y-54139957D01*
X14037531Y-54173450D01*
X14057958Y-54211666D01*
X14070535Y-54253129D01*
X14075000Y-54298458D01*
X14075000Y-54901542D01*
X14070535Y-54946871D01*
X14057958Y-54988334D01*
X14037531Y-55026550D01*
X14010043Y-55060043D01*
X13976550Y-55087531D01*
X13938334Y-55107958D01*
X13896871Y-55120535D01*
X13851542Y-55125000D01*
X13323458Y-55125000D01*
X13278129Y-55120535D01*
X13236666Y-55107958D01*
X13198450Y-55087531D01*
X13164957Y-55060043D01*
X13137469Y-55026550D01*
X13117042Y-54988334D01*
X13104465Y-54946871D01*
X13100000Y-54901542D01*
X13100000Y-54298458D01*
X13104465Y-54253129D01*
X13117042Y-54211666D01*
X13137469Y-54173450D01*
X13164957Y-54139957D01*
X13198450Y-54112469D01*
X13236666Y-54092042D01*
X13278129Y-54079465D01*
X13323458Y-54075000D01*
X13851542Y-54075000D01*
X13896871Y-54079465D01*
X13896871Y-54079465D01*
G37*
G36*
X12321871Y-54079465D02*
X12363334Y-54092042D01*
X12401550Y-54112469D01*
X12435043Y-54139957D01*
X12462531Y-54173450D01*
X12482958Y-54211666D01*
X12495535Y-54253129D01*
X12500000Y-54298458D01*
X12500000Y-54901542D01*
X12495535Y-54946871D01*
X12482958Y-54988334D01*
X12462531Y-55026550D01*
X12435043Y-55060043D01*
X12401550Y-55087531D01*
X12363334Y-55107958D01*
X12321871Y-55120535D01*
X12276542Y-55125000D01*
X11748458Y-55125000D01*
X11703129Y-55120535D01*
X11661666Y-55107958D01*
X11623450Y-55087531D01*
X11589957Y-55060043D01*
X11562469Y-55026550D01*
X11542042Y-54988334D01*
X11529465Y-54946871D01*
X11525000Y-54901542D01*
X11525000Y-54298458D01*
X11529465Y-54253129D01*
X11542042Y-54211666D01*
X11562469Y-54173450D01*
X11589957Y-54139957D01*
X11623450Y-54112469D01*
X11661666Y-54092042D01*
X11703129Y-54079465D01*
X11748458Y-54075000D01*
X12276542Y-54075000D01*
X12321871Y-54079465D01*
X12321871Y-54079465D01*
G37*
G36*
X5702422Y-53659405D02*
X5824948Y-53696573D01*
X5937868Y-53756930D01*
X6036843Y-53838157D01*
X6118070Y-53937132D01*
X6178427Y-54050052D01*
X6215595Y-54172578D01*
X6228145Y-54300000D01*
X6215595Y-54427422D01*
X6178427Y-54549948D01*
X6118070Y-54662868D01*
X6036843Y-54761843D01*
X5937868Y-54843070D01*
X5824948Y-54903427D01*
X5702422Y-54940595D01*
X5606932Y-54950000D01*
X4993068Y-54950000D01*
X4897578Y-54940595D01*
X4775052Y-54903427D01*
X4662132Y-54843070D01*
X4563157Y-54761843D01*
X4481930Y-54662868D01*
X4421573Y-54549948D01*
X4384405Y-54427422D01*
X4371855Y-54300000D01*
X4384405Y-54172578D01*
X4421573Y-54050052D01*
X4481930Y-53937132D01*
X4563157Y-53838157D01*
X4662132Y-53756930D01*
X4775052Y-53696573D01*
X4897578Y-53659405D01*
X4993068Y-53650000D01*
X5606932Y-53650000D01*
X5702422Y-53659405D01*
X5702422Y-53659405D01*
G37*
G36*
X16400000Y-53800000D02*
X15500000Y-53800000D01*
X15500000Y-52800000D01*
X16400000Y-52800000D01*
X16400000Y-53800000D01*
X16400000Y-53800000D01*
G37*
G36*
X11100000Y-53700000D02*
X10100000Y-53700000D01*
X10100000Y-52800000D01*
X11100000Y-52800000D01*
X11100000Y-53700000D01*
X11100000Y-53700000D01*
G37*
G36*
X19496871Y-52404465D02*
X19538334Y-52417042D01*
X19576550Y-52437469D01*
X19610043Y-52464957D01*
X19637531Y-52498450D01*
X19657958Y-52536666D01*
X19670535Y-52578129D01*
X19675000Y-52623458D01*
X19675000Y-53151542D01*
X19670535Y-53196871D01*
X19657958Y-53238334D01*
X19637531Y-53276550D01*
X19610043Y-53310043D01*
X19576550Y-53337531D01*
X19538334Y-53357958D01*
X19496871Y-53370535D01*
X19451542Y-53375000D01*
X18848458Y-53375000D01*
X18803129Y-53370535D01*
X18761666Y-53357958D01*
X18723450Y-53337531D01*
X18689957Y-53310043D01*
X18662469Y-53276550D01*
X18642042Y-53238334D01*
X18629465Y-53196871D01*
X18625000Y-53151542D01*
X18625000Y-52623458D01*
X18629465Y-52578129D01*
X18642042Y-52536666D01*
X18662469Y-52498450D01*
X18689957Y-52464957D01*
X18723450Y-52437469D01*
X18761666Y-52417042D01*
X18803129Y-52404465D01*
X18848458Y-52400000D01*
X19451542Y-52400000D01*
X19496871Y-52404465D01*
X19496871Y-52404465D01*
G37*
G36*
X21346871Y-52404465D02*
X21388334Y-52417042D01*
X21426550Y-52437469D01*
X21460043Y-52464957D01*
X21487531Y-52498450D01*
X21507958Y-52536666D01*
X21520535Y-52578129D01*
X21525000Y-52623458D01*
X21525000Y-53151542D01*
X21520535Y-53196871D01*
X21507958Y-53238334D01*
X21487531Y-53276550D01*
X21460043Y-53310043D01*
X21426550Y-53337531D01*
X21388334Y-53357958D01*
X21346871Y-53370535D01*
X21301542Y-53375000D01*
X20698458Y-53375000D01*
X20653129Y-53370535D01*
X20611666Y-53357958D01*
X20573450Y-53337531D01*
X20539957Y-53310043D01*
X20512469Y-53276550D01*
X20492042Y-53238334D01*
X20479465Y-53196871D01*
X20475000Y-53151542D01*
X20475000Y-52623458D01*
X20479465Y-52578129D01*
X20492042Y-52536666D01*
X20512469Y-52498450D01*
X20539957Y-52464957D01*
X20573450Y-52437469D01*
X20611666Y-52417042D01*
X20653129Y-52404465D01*
X20698458Y-52400000D01*
X21301542Y-52400000D01*
X21346871Y-52404465D01*
X21346871Y-52404465D01*
G37*
G36*
X45854394Y-51470853D02*
X45876431Y-51473023D01*
X46046081Y-51524486D01*
X46202432Y-51608057D01*
X46339475Y-51720525D01*
X46451943Y-51857568D01*
X46492438Y-51933330D01*
X46535514Y-52013919D01*
X46586977Y-52183570D01*
X46604355Y-52360000D01*
X46594017Y-52464957D01*
X46586977Y-52536431D01*
X46535514Y-52706081D01*
X46451943Y-52862432D01*
X46339475Y-52999475D01*
X46202432Y-53111943D01*
X46046081Y-53195514D01*
X45876431Y-53246977D01*
X45854394Y-53249148D01*
X45744212Y-53260000D01*
X45655788Y-53260000D01*
X45545606Y-53249148D01*
X45523569Y-53246977D01*
X45353919Y-53195514D01*
X45197568Y-53111943D01*
X45060525Y-52999475D01*
X44948057Y-52862432D01*
X44864486Y-52706081D01*
X44813023Y-52536431D01*
X44805983Y-52464957D01*
X44795645Y-52360000D01*
X44813023Y-52183570D01*
X44864486Y-52013919D01*
X44907562Y-51933330D01*
X44948057Y-51857568D01*
X45060525Y-51720525D01*
X45197568Y-51608057D01*
X45353919Y-51524486D01*
X45523569Y-51473023D01*
X45545606Y-51470853D01*
X45655788Y-51460000D01*
X45744212Y-51460000D01*
X45854394Y-51470853D01*
X45854394Y-51470853D01*
G37*
G36*
X6028463Y-51654903D02*
X6074217Y-51668783D01*
X6116383Y-51691322D01*
X6153345Y-51721655D01*
X6183678Y-51758617D01*
X6206217Y-51800783D01*
X6220097Y-51846537D01*
X6225000Y-51896327D01*
X6225000Y-52703673D01*
X6220097Y-52753463D01*
X6206217Y-52799217D01*
X6183678Y-52841383D01*
X6153345Y-52878345D01*
X6116383Y-52908678D01*
X6074217Y-52931217D01*
X6028463Y-52945097D01*
X5978673Y-52950000D01*
X4621327Y-52950000D01*
X4571537Y-52945097D01*
X4525783Y-52931217D01*
X4483617Y-52908678D01*
X4446655Y-52878345D01*
X4416322Y-52841383D01*
X4393783Y-52799217D01*
X4379903Y-52753463D01*
X4375000Y-52703673D01*
X4375000Y-51896327D01*
X4379903Y-51846537D01*
X4393783Y-51800783D01*
X4416322Y-51758617D01*
X4446655Y-51721655D01*
X4483617Y-51691322D01*
X4525783Y-51668783D01*
X4571537Y-51654903D01*
X4621327Y-51650000D01*
X5978673Y-51650000D01*
X6028463Y-51654903D01*
X6028463Y-51654903D01*
G37*
G36*
X40234371Y-51829465D02*
X40275834Y-51842042D01*
X40314050Y-51862469D01*
X40347543Y-51889957D01*
X40375031Y-51923450D01*
X40395458Y-51961666D01*
X40408035Y-52003129D01*
X40412500Y-52048458D01*
X40412500Y-52651542D01*
X40408035Y-52696871D01*
X40395458Y-52738334D01*
X40375031Y-52776550D01*
X40347543Y-52810043D01*
X40314050Y-52837531D01*
X40275834Y-52857958D01*
X40234371Y-52870535D01*
X40189042Y-52875000D01*
X39660958Y-52875000D01*
X39615629Y-52870535D01*
X39574166Y-52857958D01*
X39535950Y-52837531D01*
X39502457Y-52810043D01*
X39474969Y-52776550D01*
X39454542Y-52738334D01*
X39441965Y-52696871D01*
X39437500Y-52651542D01*
X39437500Y-52048458D01*
X39441965Y-52003129D01*
X39454542Y-51961666D01*
X39474969Y-51923450D01*
X39502457Y-51889957D01*
X39535950Y-51862469D01*
X39574166Y-51842042D01*
X39615629Y-51829465D01*
X39660958Y-51825000D01*
X40189042Y-51825000D01*
X40234371Y-51829465D01*
X40234371Y-51829465D01*
G37*
G36*
X41809371Y-51829465D02*
X41850834Y-51842042D01*
X41889050Y-51862469D01*
X41922543Y-51889957D01*
X41950031Y-51923450D01*
X41970458Y-51961666D01*
X41983035Y-52003129D01*
X41987500Y-52048458D01*
X41987500Y-52651542D01*
X41983035Y-52696871D01*
X41970458Y-52738334D01*
X41950031Y-52776550D01*
X41922543Y-52810043D01*
X41889050Y-52837531D01*
X41850834Y-52857958D01*
X41809371Y-52870535D01*
X41764042Y-52875000D01*
X41235958Y-52875000D01*
X41190629Y-52870535D01*
X41149166Y-52857958D01*
X41110950Y-52837531D01*
X41077457Y-52810043D01*
X41049969Y-52776550D01*
X41029542Y-52738334D01*
X41016965Y-52696871D01*
X41012500Y-52651542D01*
X41012500Y-52048458D01*
X41016965Y-52003129D01*
X41029542Y-51961666D01*
X41049969Y-51923450D01*
X41077457Y-51889957D01*
X41110950Y-51862469D01*
X41149166Y-51842042D01*
X41190629Y-51829465D01*
X41235958Y-51825000D01*
X41764042Y-51825000D01*
X41809371Y-51829465D01*
X41809371Y-51829465D01*
G37*
G36*
X9100000Y-52750000D02*
X8100000Y-52750000D01*
X8100000Y-51850000D01*
X9100000Y-51850000D01*
X9100000Y-52750000D01*
X9100000Y-52750000D01*
G37*
G36*
X17350000Y-51800000D02*
X16450000Y-51800000D01*
X16450000Y-50800000D01*
X17350000Y-50800000D01*
X17350000Y-51800000D01*
X17350000Y-51800000D01*
G37*
G36*
X15450000Y-51800000D02*
X14550000Y-51800000D01*
X14550000Y-50800000D01*
X15450000Y-50800000D01*
X15450000Y-51800000D01*
X15450000Y-51800000D01*
G37*
G36*
X21346871Y-50829465D02*
X21388334Y-50842042D01*
X21426550Y-50862469D01*
X21460043Y-50889957D01*
X21487531Y-50923450D01*
X21507958Y-50961666D01*
X21520535Y-51003129D01*
X21525000Y-51048458D01*
X21525000Y-51576542D01*
X21520535Y-51621871D01*
X21507958Y-51663334D01*
X21487531Y-51701550D01*
X21460043Y-51735043D01*
X21426550Y-51762531D01*
X21388334Y-51782958D01*
X21346871Y-51795535D01*
X21301542Y-51800000D01*
X20698458Y-51800000D01*
X20653129Y-51795535D01*
X20611666Y-51782958D01*
X20573450Y-51762531D01*
X20539957Y-51735043D01*
X20512469Y-51701550D01*
X20492042Y-51663334D01*
X20479465Y-51621871D01*
X20475000Y-51576542D01*
X20475000Y-51048458D01*
X20479465Y-51003129D01*
X20492042Y-50961666D01*
X20512469Y-50923450D01*
X20539957Y-50889957D01*
X20573450Y-50862469D01*
X20611666Y-50842042D01*
X20653129Y-50829465D01*
X20698458Y-50825000D01*
X21301542Y-50825000D01*
X21346871Y-50829465D01*
X21346871Y-50829465D01*
G37*
G36*
X11100000Y-51800000D02*
X10100000Y-51800000D01*
X10100000Y-50900000D01*
X11100000Y-50900000D01*
X11100000Y-51800000D01*
X11100000Y-51800000D01*
G37*
G36*
X19496871Y-50829465D02*
X19538334Y-50842042D01*
X19576550Y-50862469D01*
X19610043Y-50889957D01*
X19637531Y-50923450D01*
X19657958Y-50961666D01*
X19670535Y-51003129D01*
X19675000Y-51048458D01*
X19675000Y-51576542D01*
X19670535Y-51621871D01*
X19657958Y-51663334D01*
X19637531Y-51701550D01*
X19610043Y-51735043D01*
X19576550Y-51762531D01*
X19538334Y-51782958D01*
X19496871Y-51795535D01*
X19451542Y-51800000D01*
X18848458Y-51800000D01*
X18803129Y-51795535D01*
X18761666Y-51782958D01*
X18723450Y-51762531D01*
X18689957Y-51735043D01*
X18662469Y-51701550D01*
X18642042Y-51663334D01*
X18629465Y-51621871D01*
X18625000Y-51576542D01*
X18625000Y-51048458D01*
X18629465Y-51003129D01*
X18642042Y-50961666D01*
X18662469Y-50923450D01*
X18689957Y-50889957D01*
X18723450Y-50862469D01*
X18761666Y-50842042D01*
X18803129Y-50829465D01*
X18848458Y-50825000D01*
X19451542Y-50825000D01*
X19496871Y-50829465D01*
X19496871Y-50829465D01*
G37*
G36*
X23871871Y-50679465D02*
X23913334Y-50692042D01*
X23951550Y-50712469D01*
X23985043Y-50739957D01*
X24012531Y-50773450D01*
X24032958Y-50811666D01*
X24045535Y-50853129D01*
X24050000Y-50898458D01*
X24050000Y-51501542D01*
X24045535Y-51546871D01*
X24032958Y-51588334D01*
X24012531Y-51626550D01*
X23985043Y-51660043D01*
X23951550Y-51687531D01*
X23913334Y-51707958D01*
X23871871Y-51720535D01*
X23826542Y-51725000D01*
X23298458Y-51725000D01*
X23253129Y-51720535D01*
X23211666Y-51707958D01*
X23173450Y-51687531D01*
X23139957Y-51660043D01*
X23112469Y-51626550D01*
X23092042Y-51588334D01*
X23079465Y-51546871D01*
X23075000Y-51501542D01*
X23075000Y-50898458D01*
X23079465Y-50853129D01*
X23092042Y-50811666D01*
X23112469Y-50773450D01*
X23139957Y-50739957D01*
X23173450Y-50712469D01*
X23211666Y-50692042D01*
X23253129Y-50679465D01*
X23298458Y-50675000D01*
X23826542Y-50675000D01*
X23871871Y-50679465D01*
X23871871Y-50679465D01*
G37*
G36*
X25446871Y-50679465D02*
X25488334Y-50692042D01*
X25526550Y-50712469D01*
X25560043Y-50739957D01*
X25587531Y-50773450D01*
X25607958Y-50811666D01*
X25620535Y-50853129D01*
X25625000Y-50898458D01*
X25625000Y-51501542D01*
X25620535Y-51546871D01*
X25607958Y-51588334D01*
X25587531Y-51626550D01*
X25560043Y-51660043D01*
X25526550Y-51687531D01*
X25488334Y-51707958D01*
X25446871Y-51720535D01*
X25401542Y-51725000D01*
X24873458Y-51725000D01*
X24828129Y-51720535D01*
X24786666Y-51707958D01*
X24748450Y-51687531D01*
X24714957Y-51660043D01*
X24687469Y-51626550D01*
X24667042Y-51588334D01*
X24654465Y-51546871D01*
X24650000Y-51501542D01*
X24650000Y-50898458D01*
X24654465Y-50853129D01*
X24667042Y-50811666D01*
X24687469Y-50773450D01*
X24714957Y-50739957D01*
X24748450Y-50712469D01*
X24786666Y-50692042D01*
X24828129Y-50679465D01*
X24873458Y-50675000D01*
X25401542Y-50675000D01*
X25446871Y-50679465D01*
X25446871Y-50679465D01*
G37*
G36*
X31925000Y-51250000D02*
X31575000Y-51250000D01*
X31575000Y-49850000D01*
X31925000Y-49850000D01*
X31925000Y-51250000D01*
X31925000Y-51250000D01*
G37*
G36*
X32425000Y-51250000D02*
X32075000Y-51250000D01*
X32075000Y-49850000D01*
X32425000Y-49850000D01*
X32425000Y-51250000D01*
X32425000Y-51250000D01*
G37*
G36*
X31425000Y-51250000D02*
X31075000Y-51250000D01*
X31075000Y-49850000D01*
X31425000Y-49850000D01*
X31425000Y-51250000D01*
X31425000Y-51250000D01*
G37*
G36*
X30925000Y-51250000D02*
X30575000Y-51250000D01*
X30575000Y-49850000D01*
X30925000Y-49850000D01*
X30925000Y-51250000D01*
X30925000Y-51250000D01*
G37*
G36*
X30425000Y-51250000D02*
X30075000Y-51250000D01*
X30075000Y-49850000D01*
X30425000Y-49850000D01*
X30425000Y-51250000D01*
X30425000Y-51250000D01*
G37*
G36*
X29925000Y-51250000D02*
X29575000Y-51250000D01*
X29575000Y-49850000D01*
X29925000Y-49850000D01*
X29925000Y-51250000D01*
X29925000Y-51250000D01*
G37*
G36*
X28425000Y-51250000D02*
X28075000Y-51250000D01*
X28075000Y-49850000D01*
X28425000Y-49850000D01*
X28425000Y-51250000D01*
X28425000Y-51250000D01*
G37*
G36*
X27925000Y-51250000D02*
X27575000Y-51250000D01*
X27575000Y-49850000D01*
X27925000Y-49850000D01*
X27925000Y-51250000D01*
X27925000Y-51250000D01*
G37*
G36*
X27425000Y-51250000D02*
X27075000Y-51250000D01*
X27075000Y-49850000D01*
X27425000Y-49850000D01*
X27425000Y-51250000D01*
X27425000Y-51250000D01*
G37*
G36*
X26925000Y-51250000D02*
X26575000Y-51250000D01*
X26575000Y-49850000D01*
X26925000Y-49850000D01*
X26925000Y-51250000D01*
X26925000Y-51250000D01*
G37*
G36*
X28925000Y-51250000D02*
X28575000Y-51250000D01*
X28575000Y-49850000D01*
X28925000Y-49850000D01*
X28925000Y-51250000D01*
X28925000Y-51250000D01*
G37*
G36*
X29425000Y-51250000D02*
X29075000Y-51250000D01*
X29075000Y-49850000D01*
X29425000Y-49850000D01*
X29425000Y-51250000D01*
X29425000Y-51250000D01*
G37*
G36*
X34821871Y-50079465D02*
X34863334Y-50092042D01*
X34901550Y-50112469D01*
X34935043Y-50139957D01*
X34962531Y-50173450D01*
X34982958Y-50211666D01*
X34995535Y-50253129D01*
X35000000Y-50298458D01*
X35000000Y-50901542D01*
X34995535Y-50946871D01*
X34982958Y-50988334D01*
X34962531Y-51026550D01*
X34935043Y-51060043D01*
X34901550Y-51087531D01*
X34863334Y-51107958D01*
X34821871Y-51120535D01*
X34776542Y-51125000D01*
X34248458Y-51125000D01*
X34203129Y-51120535D01*
X34161666Y-51107958D01*
X34123450Y-51087531D01*
X34089957Y-51060043D01*
X34062469Y-51026550D01*
X34042042Y-50988334D01*
X34029465Y-50946871D01*
X34025000Y-50901542D01*
X34025000Y-50298458D01*
X34029465Y-50253129D01*
X34042042Y-50211666D01*
X34062469Y-50173450D01*
X34089957Y-50139957D01*
X34123450Y-50112469D01*
X34161666Y-50092042D01*
X34203129Y-50079465D01*
X34248458Y-50075000D01*
X34776542Y-50075000D01*
X34821871Y-50079465D01*
X34821871Y-50079465D01*
G37*
G36*
X36396871Y-50079465D02*
X36438334Y-50092042D01*
X36476550Y-50112469D01*
X36510043Y-50139957D01*
X36537531Y-50173450D01*
X36557958Y-50211666D01*
X36570535Y-50253129D01*
X36575000Y-50298458D01*
X36575000Y-50901542D01*
X36570535Y-50946871D01*
X36557958Y-50988334D01*
X36537531Y-51026550D01*
X36510043Y-51060043D01*
X36476550Y-51087531D01*
X36438334Y-51107958D01*
X36396871Y-51120535D01*
X36351542Y-51125000D01*
X35823458Y-51125000D01*
X35778129Y-51120535D01*
X35736666Y-51107958D01*
X35698450Y-51087531D01*
X35664957Y-51060043D01*
X35637469Y-51026550D01*
X35617042Y-50988334D01*
X35604465Y-50946871D01*
X35600000Y-50901542D01*
X35600000Y-50298458D01*
X35604465Y-50253129D01*
X35617042Y-50211666D01*
X35637469Y-50173450D01*
X35664957Y-50139957D01*
X35698450Y-50112469D01*
X35736666Y-50092042D01*
X35778129Y-50079465D01*
X35823458Y-50075000D01*
X36351542Y-50075000D01*
X36396871Y-50079465D01*
X36396871Y-50079465D01*
G37*
G36*
X45854394Y-48930853D02*
X45876431Y-48933023D01*
X46046081Y-48984486D01*
X46202432Y-49068057D01*
X46339475Y-49180525D01*
X46451943Y-49317568D01*
X46451945Y-49317572D01*
X46535514Y-49473919D01*
X46586977Y-49643570D01*
X46604355Y-49820000D01*
X46588535Y-49980611D01*
X46586977Y-49996431D01*
X46535514Y-50166081D01*
X46451943Y-50322432D01*
X46339475Y-50459475D01*
X46202432Y-50571943D01*
X46046081Y-50655514D01*
X45876431Y-50706977D01*
X45854394Y-50709148D01*
X45744212Y-50720000D01*
X45655788Y-50720000D01*
X45545606Y-50709148D01*
X45523569Y-50706977D01*
X45353919Y-50655514D01*
X45197568Y-50571943D01*
X45060525Y-50459475D01*
X44948057Y-50322432D01*
X44864486Y-50166081D01*
X44813023Y-49996431D01*
X44811465Y-49980611D01*
X44795645Y-49820000D01*
X44813023Y-49643570D01*
X44864486Y-49473919D01*
X44948055Y-49317572D01*
X44948057Y-49317568D01*
X45060525Y-49180525D01*
X45197568Y-49068057D01*
X45353919Y-48984486D01*
X45523569Y-48933023D01*
X45545606Y-48930853D01*
X45655788Y-48920000D01*
X45744212Y-48920000D01*
X45854394Y-48930853D01*
X45854394Y-48930853D01*
G37*
G36*
X34550000Y-49125000D02*
X33150000Y-49125000D01*
X33150000Y-48775000D01*
X34550000Y-48775000D01*
X34550000Y-49125000D01*
X34550000Y-49125000D01*
G37*
G36*
X25850000Y-49125000D02*
X24450000Y-49125000D01*
X24450000Y-48775000D01*
X25850000Y-48775000D01*
X25850000Y-49125000D01*
X25850000Y-49125000D01*
G37*
G36*
X22900000Y-49100000D02*
X21900000Y-49100000D01*
X21900000Y-48200000D01*
X22900000Y-48200000D01*
X22900000Y-49100000D01*
X22900000Y-49100000D01*
G37*
G36*
X18846871Y-47804465D02*
X18888334Y-47817042D01*
X18926550Y-47837469D01*
X18960043Y-47864957D01*
X18987531Y-47898450D01*
X19007958Y-47936666D01*
X19020535Y-47978129D01*
X19025000Y-48023458D01*
X19025000Y-48551542D01*
X19020535Y-48596871D01*
X19007958Y-48638334D01*
X18987531Y-48676550D01*
X18960043Y-48710043D01*
X18926550Y-48737531D01*
X18888334Y-48757958D01*
X18846871Y-48770535D01*
X18801542Y-48775000D01*
X18198458Y-48775000D01*
X18153129Y-48770535D01*
X18111666Y-48757958D01*
X18073450Y-48737531D01*
X18039957Y-48710043D01*
X18012469Y-48676550D01*
X17992042Y-48638334D01*
X17979465Y-48596871D01*
X17975000Y-48551542D01*
X17975000Y-48023458D01*
X17979465Y-47978129D01*
X17992042Y-47936666D01*
X18012469Y-47898450D01*
X18039957Y-47864957D01*
X18073450Y-47837469D01*
X18111666Y-47817042D01*
X18153129Y-47804465D01*
X18198458Y-47800000D01*
X18801542Y-47800000D01*
X18846871Y-47804465D01*
X18846871Y-47804465D01*
G37*
G36*
X17046871Y-47804465D02*
X17088334Y-47817042D01*
X17126550Y-47837469D01*
X17160043Y-47864957D01*
X17187531Y-47898450D01*
X17207958Y-47936666D01*
X17220535Y-47978129D01*
X17225000Y-48023458D01*
X17225000Y-48551542D01*
X17220535Y-48596871D01*
X17207958Y-48638334D01*
X17187531Y-48676550D01*
X17160043Y-48710043D01*
X17126550Y-48737531D01*
X17088334Y-48757958D01*
X17046871Y-48770535D01*
X17001542Y-48775000D01*
X16398458Y-48775000D01*
X16353129Y-48770535D01*
X16311666Y-48757958D01*
X16273450Y-48737531D01*
X16239957Y-48710043D01*
X16212469Y-48676550D01*
X16192042Y-48638334D01*
X16179465Y-48596871D01*
X16175000Y-48551542D01*
X16175000Y-48023458D01*
X16179465Y-47978129D01*
X16192042Y-47936666D01*
X16212469Y-47898450D01*
X16239957Y-47864957D01*
X16273450Y-47837469D01*
X16311666Y-47817042D01*
X16353129Y-47804465D01*
X16398458Y-47800000D01*
X17001542Y-47800000D01*
X17046871Y-47804465D01*
X17046871Y-47804465D01*
G37*
G36*
X15246871Y-47804465D02*
X15288334Y-47817042D01*
X15326550Y-47837469D01*
X15360043Y-47864957D01*
X15387531Y-47898450D01*
X15407958Y-47936666D01*
X15420535Y-47978129D01*
X15425000Y-48023458D01*
X15425000Y-48551542D01*
X15420535Y-48596871D01*
X15407958Y-48638334D01*
X15387531Y-48676550D01*
X15360043Y-48710043D01*
X15326550Y-48737531D01*
X15288334Y-48757958D01*
X15246871Y-48770535D01*
X15201542Y-48775000D01*
X14598458Y-48775000D01*
X14553129Y-48770535D01*
X14511666Y-48757958D01*
X14473450Y-48737531D01*
X14439957Y-48710043D01*
X14412469Y-48676550D01*
X14392042Y-48638334D01*
X14379465Y-48596871D01*
X14375000Y-48551542D01*
X14375000Y-48023458D01*
X14379465Y-47978129D01*
X14392042Y-47936666D01*
X14412469Y-47898450D01*
X14439957Y-47864957D01*
X14473450Y-47837469D01*
X14511666Y-47817042D01*
X14553129Y-47804465D01*
X14598458Y-47800000D01*
X15201542Y-47800000D01*
X15246871Y-47804465D01*
X15246871Y-47804465D01*
G37*
G36*
X34550000Y-48625000D02*
X33150000Y-48625000D01*
X33150000Y-48275000D01*
X34550000Y-48275000D01*
X34550000Y-48625000D01*
X34550000Y-48625000D01*
G37*
G36*
X25850000Y-48625000D02*
X24450000Y-48625000D01*
X24450000Y-48275000D01*
X25850000Y-48275000D01*
X25850000Y-48625000D01*
X25850000Y-48625000D01*
G37*
G36*
X45854394Y-46390853D02*
X45876431Y-46393023D01*
X46046081Y-46444486D01*
X46202432Y-46528057D01*
X46339475Y-46640525D01*
X46451943Y-46777568D01*
X46535514Y-46933919D01*
X46586365Y-47101550D01*
X46586977Y-47103570D01*
X46604355Y-47280000D01*
X46588535Y-47440611D01*
X46586977Y-47456431D01*
X46535514Y-47626081D01*
X46451943Y-47782432D01*
X46339475Y-47919475D01*
X46202432Y-48031943D01*
X46046081Y-48115514D01*
X45876431Y-48166977D01*
X45854394Y-48169148D01*
X45744212Y-48180000D01*
X45655788Y-48180000D01*
X45545606Y-48169148D01*
X45523569Y-48166977D01*
X45353919Y-48115514D01*
X45197568Y-48031943D01*
X45060525Y-47919475D01*
X44948057Y-47782432D01*
X44864486Y-47626081D01*
X44813023Y-47456431D01*
X44811465Y-47440611D01*
X44795645Y-47280000D01*
X44813023Y-47103570D01*
X44813636Y-47101550D01*
X44864486Y-46933919D01*
X44948057Y-46777568D01*
X45060525Y-46640525D01*
X45197568Y-46528057D01*
X45353919Y-46444486D01*
X45523569Y-46393023D01*
X45545606Y-46390853D01*
X45655788Y-46380000D01*
X45744212Y-46380000D01*
X45854394Y-46390853D01*
X45854394Y-46390853D01*
G37*
G36*
X20900000Y-48150000D02*
X19900000Y-48150000D01*
X19900000Y-47250000D01*
X20900000Y-47250000D01*
X20900000Y-48150000D01*
X20900000Y-48150000D01*
G37*
G36*
X25850000Y-48125000D02*
X24450000Y-48125000D01*
X24450000Y-47775000D01*
X25850000Y-47775000D01*
X25850000Y-48125000D01*
X25850000Y-48125000D01*
G37*
G36*
X34550000Y-48125000D02*
X33150000Y-48125000D01*
X33150000Y-47775000D01*
X34550000Y-47775000D01*
X34550000Y-48125000D01*
X34550000Y-48125000D01*
G37*
G36*
X25850000Y-47625000D02*
X24450000Y-47625000D01*
X24450000Y-47275000D01*
X25850000Y-47275000D01*
X25850000Y-47625000D01*
X25850000Y-47625000D01*
G37*
G36*
X34550000Y-47625000D02*
X33150000Y-47625000D01*
X33150000Y-47275000D01*
X34550000Y-47275000D01*
X34550000Y-47625000D01*
X34550000Y-47625000D01*
G37*
G36*
X18846871Y-46229465D02*
X18888334Y-46242042D01*
X18926550Y-46262469D01*
X18960043Y-46289957D01*
X18987531Y-46323450D01*
X19007958Y-46361666D01*
X19020535Y-46403129D01*
X19025000Y-46448458D01*
X19025000Y-46976542D01*
X19020535Y-47021871D01*
X19007958Y-47063334D01*
X18987531Y-47101550D01*
X18960043Y-47135043D01*
X18926550Y-47162531D01*
X18888334Y-47182958D01*
X18846871Y-47195535D01*
X18801542Y-47200000D01*
X18198458Y-47200000D01*
X18153129Y-47195535D01*
X18111666Y-47182958D01*
X18073450Y-47162531D01*
X18039957Y-47135043D01*
X18012469Y-47101550D01*
X17992042Y-47063334D01*
X17979465Y-47021871D01*
X17975000Y-46976542D01*
X17975000Y-46448458D01*
X17979465Y-46403129D01*
X17992042Y-46361666D01*
X18012469Y-46323450D01*
X18039957Y-46289957D01*
X18073450Y-46262469D01*
X18111666Y-46242042D01*
X18153129Y-46229465D01*
X18198458Y-46225000D01*
X18801542Y-46225000D01*
X18846871Y-46229465D01*
X18846871Y-46229465D01*
G37*
G36*
X15246871Y-46229465D02*
X15288334Y-46242042D01*
X15326550Y-46262469D01*
X15360043Y-46289957D01*
X15387531Y-46323450D01*
X15407958Y-46361666D01*
X15420535Y-46403129D01*
X15425000Y-46448458D01*
X15425000Y-46976542D01*
X15420535Y-47021871D01*
X15407958Y-47063334D01*
X15387531Y-47101550D01*
X15360043Y-47135043D01*
X15326550Y-47162531D01*
X15288334Y-47182958D01*
X15246871Y-47195535D01*
X15201542Y-47200000D01*
X14598458Y-47200000D01*
X14553129Y-47195535D01*
X14511666Y-47182958D01*
X14473450Y-47162531D01*
X14439957Y-47135043D01*
X14412469Y-47101550D01*
X14392042Y-47063334D01*
X14379465Y-47021871D01*
X14375000Y-46976542D01*
X14375000Y-46448458D01*
X14379465Y-46403129D01*
X14392042Y-46361666D01*
X14412469Y-46323450D01*
X14439957Y-46289957D01*
X14473450Y-46262469D01*
X14511666Y-46242042D01*
X14553129Y-46229465D01*
X14598458Y-46225000D01*
X15201542Y-46225000D01*
X15246871Y-46229465D01*
X15246871Y-46229465D01*
G37*
G36*
X17046871Y-46229465D02*
X17088334Y-46242042D01*
X17126550Y-46262469D01*
X17160043Y-46289957D01*
X17187531Y-46323450D01*
X17207958Y-46361666D01*
X17220535Y-46403129D01*
X17225000Y-46448458D01*
X17225000Y-46976542D01*
X17220535Y-47021871D01*
X17207958Y-47063334D01*
X17187531Y-47101550D01*
X17160043Y-47135043D01*
X17126550Y-47162531D01*
X17088334Y-47182958D01*
X17046871Y-47195535D01*
X17001542Y-47200000D01*
X16398458Y-47200000D01*
X16353129Y-47195535D01*
X16311666Y-47182958D01*
X16273450Y-47162531D01*
X16239957Y-47135043D01*
X16212469Y-47101550D01*
X16192042Y-47063334D01*
X16179465Y-47021871D01*
X16175000Y-46976542D01*
X16175000Y-46448458D01*
X16179465Y-46403129D01*
X16192042Y-46361666D01*
X16212469Y-46323450D01*
X16239957Y-46289957D01*
X16273450Y-46262469D01*
X16311666Y-46242042D01*
X16353129Y-46229465D01*
X16398458Y-46225000D01*
X17001542Y-46225000D01*
X17046871Y-46229465D01*
X17046871Y-46229465D01*
G37*
G36*
X22900000Y-47200000D02*
X21900000Y-47200000D01*
X21900000Y-46300000D01*
X22900000Y-46300000D01*
X22900000Y-47200000D01*
X22900000Y-47200000D01*
G37*
G36*
X25850000Y-47125000D02*
X24450000Y-47125000D01*
X24450000Y-46775000D01*
X25850000Y-46775000D01*
X25850000Y-47125000D01*
X25850000Y-47125000D01*
G37*
G36*
X34550000Y-47125000D02*
X33150000Y-47125000D01*
X33150000Y-46775000D01*
X34550000Y-46775000D01*
X34550000Y-47125000D01*
X34550000Y-47125000D01*
G37*
G36*
X12396871Y-45779465D02*
X12438334Y-45792042D01*
X12476550Y-45812469D01*
X12510043Y-45839957D01*
X12537531Y-45873450D01*
X12557958Y-45911666D01*
X12570535Y-45953129D01*
X12575000Y-45998458D01*
X12575000Y-46601542D01*
X12570535Y-46646871D01*
X12557958Y-46688334D01*
X12537531Y-46726550D01*
X12510043Y-46760043D01*
X12476550Y-46787531D01*
X12438334Y-46807958D01*
X12396871Y-46820535D01*
X12351542Y-46825000D01*
X11823458Y-46825000D01*
X11778129Y-46820535D01*
X11736666Y-46807958D01*
X11698450Y-46787531D01*
X11664957Y-46760043D01*
X11637469Y-46726550D01*
X11617042Y-46688334D01*
X11604465Y-46646871D01*
X11600000Y-46601542D01*
X11600000Y-45998458D01*
X11604465Y-45953129D01*
X11617042Y-45911666D01*
X11637469Y-45873450D01*
X11664957Y-45839957D01*
X11698450Y-45812469D01*
X11736666Y-45792042D01*
X11778129Y-45779465D01*
X11823458Y-45775000D01*
X12351542Y-45775000D01*
X12396871Y-45779465D01*
X12396871Y-45779465D01*
G37*
G36*
X10821871Y-45779465D02*
X10863334Y-45792042D01*
X10901550Y-45812469D01*
X10935043Y-45839957D01*
X10962531Y-45873450D01*
X10982958Y-45911666D01*
X10995535Y-45953129D01*
X11000000Y-45998458D01*
X11000000Y-46601542D01*
X10995535Y-46646871D01*
X10982958Y-46688334D01*
X10962531Y-46726550D01*
X10935043Y-46760043D01*
X10901550Y-46787531D01*
X10863334Y-46807958D01*
X10821871Y-46820535D01*
X10776542Y-46825000D01*
X10248458Y-46825000D01*
X10203129Y-46820535D01*
X10161666Y-46807958D01*
X10123450Y-46787531D01*
X10089957Y-46760043D01*
X10062469Y-46726550D01*
X10042042Y-46688334D01*
X10029465Y-46646871D01*
X10025000Y-46601542D01*
X10025000Y-45998458D01*
X10029465Y-45953129D01*
X10042042Y-45911666D01*
X10062469Y-45873450D01*
X10089957Y-45839957D01*
X10123450Y-45812469D01*
X10161666Y-45792042D01*
X10203129Y-45779465D01*
X10248458Y-45775000D01*
X10776542Y-45775000D01*
X10821871Y-45779465D01*
X10821871Y-45779465D01*
G37*
G36*
X4345000Y-46800000D02*
X3645000Y-46800000D01*
X3645000Y-45700000D01*
X4345000Y-45700000D01*
X4345000Y-46800000D01*
X4345000Y-46800000D01*
G37*
G36*
X8155000Y-46800000D02*
X7455000Y-46800000D01*
X7455000Y-45700000D01*
X8155000Y-45700000D01*
X8155000Y-46800000D01*
X8155000Y-46800000D01*
G37*
G36*
X5615000Y-46800000D02*
X4915000Y-46800000D01*
X4915000Y-45700000D01*
X5615000Y-45700000D01*
X5615000Y-46800000D01*
X5615000Y-46800000D01*
G37*
G36*
X6885000Y-46800000D02*
X6185000Y-46800000D01*
X6185000Y-45700000D01*
X6885000Y-45700000D01*
X6885000Y-46800000D01*
X6885000Y-46800000D01*
G37*
G36*
X25850000Y-46625000D02*
X24450000Y-46625000D01*
X24450000Y-46275000D01*
X25850000Y-46275000D01*
X25850000Y-46625000D01*
X25850000Y-46625000D01*
G37*
G36*
X34550000Y-46625000D02*
X33150000Y-46625000D01*
X33150000Y-46275000D01*
X34550000Y-46275000D01*
X34550000Y-46625000D01*
X34550000Y-46625000D01*
G37*
G36*
X25850000Y-46125000D02*
X24450000Y-46125000D01*
X24450000Y-45775000D01*
X25850000Y-45775000D01*
X25850000Y-46125000D01*
X25850000Y-46125000D01*
G37*
G36*
X34550000Y-46125000D02*
X33150000Y-46125000D01*
X33150000Y-45775000D01*
X34550000Y-45775000D01*
X34550000Y-46125000D01*
X34550000Y-46125000D01*
G37*
G36*
X45854394Y-43850852D02*
X45876431Y-43853023D01*
X46046081Y-43904486D01*
X46202432Y-43988057D01*
X46339475Y-44100525D01*
X46451943Y-44237568D01*
X46451945Y-44237572D01*
X46535514Y-44393919D01*
X46586977Y-44563570D01*
X46604355Y-44740000D01*
X46598753Y-44796871D01*
X46586977Y-44916431D01*
X46535514Y-45086081D01*
X46451943Y-45242432D01*
X46339475Y-45379475D01*
X46202432Y-45491943D01*
X46046081Y-45575514D01*
X45876431Y-45626977D01*
X45854394Y-45629148D01*
X45744212Y-45640000D01*
X45655788Y-45640000D01*
X45545606Y-45629148D01*
X45523569Y-45626977D01*
X45353919Y-45575514D01*
X45197568Y-45491943D01*
X45060525Y-45379475D01*
X44948057Y-45242432D01*
X44864486Y-45086081D01*
X44813023Y-44916431D01*
X44801247Y-44796871D01*
X44795645Y-44740000D01*
X44813023Y-44563570D01*
X44864486Y-44393919D01*
X44948055Y-44237572D01*
X44948057Y-44237568D01*
X45060525Y-44100525D01*
X45197568Y-43988057D01*
X45353919Y-43904486D01*
X45523569Y-43853023D01*
X45545606Y-43850852D01*
X45655788Y-43840000D01*
X45744212Y-43840000D01*
X45854394Y-43850852D01*
X45854394Y-43850852D01*
G37*
G36*
X25850000Y-45625000D02*
X24450000Y-45625000D01*
X24450000Y-45275000D01*
X25850000Y-45275000D01*
X25850000Y-45625000D01*
X25850000Y-45625000D01*
G37*
G36*
X34550000Y-45625000D02*
X33150000Y-45625000D01*
X33150000Y-45275000D01*
X34550000Y-45275000D01*
X34550000Y-45625000D01*
X34550000Y-45625000D01*
G37*
G36*
X34550000Y-45125000D02*
X33150000Y-45125000D01*
X33150000Y-44775000D01*
X34550000Y-44775000D01*
X34550000Y-45125000D01*
X34550000Y-45125000D01*
G37*
G36*
X25850000Y-45125000D02*
X24450000Y-45125000D01*
X24450000Y-44775000D01*
X25850000Y-44775000D01*
X25850000Y-45125000D01*
X25850000Y-45125000D01*
G37*
G36*
X12396871Y-43929465D02*
X12438334Y-43942042D01*
X12476550Y-43962469D01*
X12510043Y-43989957D01*
X12537531Y-44023450D01*
X12557958Y-44061666D01*
X12570535Y-44103129D01*
X12575000Y-44148458D01*
X12575000Y-44751542D01*
X12570535Y-44796871D01*
X12557958Y-44838334D01*
X12537531Y-44876550D01*
X12510043Y-44910043D01*
X12476550Y-44937531D01*
X12438334Y-44957958D01*
X12396871Y-44970535D01*
X12351542Y-44975000D01*
X11823458Y-44975000D01*
X11778129Y-44970535D01*
X11736666Y-44957958D01*
X11698450Y-44937531D01*
X11664957Y-44910043D01*
X11637469Y-44876550D01*
X11617042Y-44838334D01*
X11604465Y-44796871D01*
X11600000Y-44751542D01*
X11600000Y-44148458D01*
X11604465Y-44103129D01*
X11617042Y-44061666D01*
X11637469Y-44023450D01*
X11664957Y-43989957D01*
X11698450Y-43962469D01*
X11736666Y-43942042D01*
X11778129Y-43929465D01*
X11823458Y-43925000D01*
X12351542Y-43925000D01*
X12396871Y-43929465D01*
X12396871Y-43929465D01*
G37*
G36*
X10821871Y-43929465D02*
X10863334Y-43942042D01*
X10901550Y-43962469D01*
X10935043Y-43989957D01*
X10962531Y-44023450D01*
X10982958Y-44061666D01*
X10995535Y-44103129D01*
X11000000Y-44148458D01*
X11000000Y-44751542D01*
X10995535Y-44796871D01*
X10982958Y-44838334D01*
X10962531Y-44876550D01*
X10935043Y-44910043D01*
X10901550Y-44937531D01*
X10863334Y-44957958D01*
X10821871Y-44970535D01*
X10776542Y-44975000D01*
X10248458Y-44975000D01*
X10203129Y-44970535D01*
X10161666Y-44957958D01*
X10123450Y-44937531D01*
X10089957Y-44910043D01*
X10062469Y-44876550D01*
X10042042Y-44838334D01*
X10029465Y-44796871D01*
X10025000Y-44751542D01*
X10025000Y-44148458D01*
X10029465Y-44103129D01*
X10042042Y-44061666D01*
X10062469Y-44023450D01*
X10089957Y-43989957D01*
X10123450Y-43962469D01*
X10161666Y-43942042D01*
X10203129Y-43929465D01*
X10248458Y-43925000D01*
X10776542Y-43925000D01*
X10821871Y-43929465D01*
X10821871Y-43929465D01*
G37*
G36*
X34550000Y-44625000D02*
X33150000Y-44625000D01*
X33150000Y-44275000D01*
X34550000Y-44275000D01*
X34550000Y-44625000D01*
X34550000Y-44625000D01*
G37*
G36*
X25850000Y-44625000D02*
X24450000Y-44625000D01*
X24450000Y-44275000D01*
X25850000Y-44275000D01*
X25850000Y-44625000D01*
X25850000Y-44625000D01*
G37*
G36*
X7950000Y-44150000D02*
X3850000Y-44150000D01*
X3850000Y-40850000D01*
X7950000Y-40850000D01*
X7950000Y-44150000D01*
X7950000Y-44150000D01*
G37*
G36*
X25850000Y-44125000D02*
X24450000Y-44125000D01*
X24450000Y-43775000D01*
X25850000Y-43775000D01*
X25850000Y-44125000D01*
X25850000Y-44125000D01*
G37*
G36*
X34550000Y-44125000D02*
X33150000Y-44125000D01*
X33150000Y-43775000D01*
X34550000Y-43775000D01*
X34550000Y-44125000D01*
X34550000Y-44125000D01*
G37*
G36*
X25850000Y-43625000D02*
X24450000Y-43625000D01*
X24450000Y-43275000D01*
X25850000Y-43275000D01*
X25850000Y-43625000D01*
X25850000Y-43625000D01*
G37*
G36*
X34550000Y-43625000D02*
X33150000Y-43625000D01*
X33150000Y-43275000D01*
X34550000Y-43275000D01*
X34550000Y-43625000D01*
X34550000Y-43625000D01*
G37*
G36*
X27425000Y-42550000D02*
X27075000Y-42550000D01*
X27075000Y-41150000D01*
X27425000Y-41150000D01*
X27425000Y-42550000D01*
X27425000Y-42550000D01*
G37*
G36*
X29925000Y-42550000D02*
X29575000Y-42550000D01*
X29575000Y-41150000D01*
X29925000Y-41150000D01*
X29925000Y-42550000D01*
X29925000Y-42550000D01*
G37*
G36*
X31925000Y-42550000D02*
X31575000Y-42550000D01*
X31575000Y-41150000D01*
X31925000Y-41150000D01*
X31925000Y-42550000D01*
X31925000Y-42550000D01*
G37*
G36*
X27925000Y-42550000D02*
X27575000Y-42550000D01*
X27575000Y-41150000D01*
X27925000Y-41150000D01*
X27925000Y-42550000D01*
X27925000Y-42550000D01*
G37*
G36*
X28425000Y-42550000D02*
X28075000Y-42550000D01*
X28075000Y-41150000D01*
X28425000Y-41150000D01*
X28425000Y-42550000D01*
X28425000Y-42550000D01*
G37*
G36*
X28925000Y-42550000D02*
X28575000Y-42550000D01*
X28575000Y-41150000D01*
X28925000Y-41150000D01*
X28925000Y-42550000D01*
X28925000Y-42550000D01*
G37*
G36*
X29425000Y-42550000D02*
X29075000Y-42550000D01*
X29075000Y-41150000D01*
X29425000Y-41150000D01*
X29425000Y-42550000D01*
X29425000Y-42550000D01*
G37*
G36*
X30425000Y-42550000D02*
X30075000Y-42550000D01*
X30075000Y-41150000D01*
X30425000Y-41150000D01*
X30425000Y-42550000D01*
X30425000Y-42550000D01*
G37*
G36*
X31425000Y-42550000D02*
X31075000Y-42550000D01*
X31075000Y-41150000D01*
X31425000Y-41150000D01*
X31425000Y-42550000D01*
X31425000Y-42550000D01*
G37*
G36*
X26925000Y-42550000D02*
X26575000Y-42550000D01*
X26575000Y-41150000D01*
X26925000Y-41150000D01*
X26925000Y-42550000D01*
X26925000Y-42550000D01*
G37*
G36*
X30925000Y-42550000D02*
X30575000Y-42550000D01*
X30575000Y-41150000D01*
X30925000Y-41150000D01*
X30925000Y-42550000D01*
X30925000Y-42550000D01*
G37*
G36*
X32425000Y-42550000D02*
X32075000Y-42550000D01*
X32075000Y-41150000D01*
X32425000Y-41150000D01*
X32425000Y-42550000D01*
X32425000Y-42550000D01*
G37*
G36*
X22351748Y-41304945D02*
X22397899Y-41318944D01*
X22440441Y-41341683D01*
X22477721Y-41372279D01*
X22508317Y-41409559D01*
X22531056Y-41452101D01*
X22545055Y-41498252D01*
X22550000Y-41548458D01*
X22550000Y-42126542D01*
X22545055Y-42176748D01*
X22531056Y-42222899D01*
X22508317Y-42265441D01*
X22477721Y-42302721D01*
X22440441Y-42333317D01*
X22397899Y-42356056D01*
X22351748Y-42370055D01*
X22301542Y-42375000D01*
X21298458Y-42375000D01*
X21248252Y-42370055D01*
X21202101Y-42356056D01*
X21159559Y-42333317D01*
X21122279Y-42302721D01*
X21091683Y-42265441D01*
X21068944Y-42222899D01*
X21054945Y-42176748D01*
X21050000Y-42126542D01*
X21050000Y-41548458D01*
X21054945Y-41498252D01*
X21068944Y-41452101D01*
X21091683Y-41409559D01*
X21122279Y-41372279D01*
X21159559Y-41341683D01*
X21202101Y-41318944D01*
X21248252Y-41304945D01*
X21298458Y-41300000D01*
X22301542Y-41300000D01*
X22351748Y-41304945D01*
X22351748Y-41304945D01*
G37*
G36*
X25334371Y-41354465D02*
X25375834Y-41367042D01*
X25414050Y-41387469D01*
X25447543Y-41414957D01*
X25475031Y-41448450D01*
X25495458Y-41486666D01*
X25508035Y-41528129D01*
X25512500Y-41573458D01*
X25512500Y-42101542D01*
X25508035Y-42146871D01*
X25495458Y-42188334D01*
X25475031Y-42226550D01*
X25447543Y-42260043D01*
X25414050Y-42287531D01*
X25375834Y-42307958D01*
X25334371Y-42320535D01*
X25289042Y-42325000D01*
X24685958Y-42325000D01*
X24640629Y-42320535D01*
X24599166Y-42307958D01*
X24560950Y-42287531D01*
X24527457Y-42260043D01*
X24499969Y-42226550D01*
X24479542Y-42188334D01*
X24466965Y-42146871D01*
X24462500Y-42101542D01*
X24462500Y-41573458D01*
X24466965Y-41528129D01*
X24479542Y-41486666D01*
X24499969Y-41448450D01*
X24527457Y-41414957D01*
X24560950Y-41387469D01*
X24599166Y-41367042D01*
X24640629Y-41354465D01*
X24685958Y-41350000D01*
X25289042Y-41350000D01*
X25334371Y-41354465D01*
X25334371Y-41354465D01*
G37*
G36*
X34209371Y-41179465D02*
X34250834Y-41192042D01*
X34289050Y-41212469D01*
X34322543Y-41239957D01*
X34350031Y-41273450D01*
X34370458Y-41311666D01*
X34383035Y-41353129D01*
X34387500Y-41398458D01*
X34387500Y-42001542D01*
X34383035Y-42046871D01*
X34370458Y-42088334D01*
X34350031Y-42126550D01*
X34322543Y-42160043D01*
X34289050Y-42187531D01*
X34250834Y-42207958D01*
X34209371Y-42220535D01*
X34164042Y-42225000D01*
X33635958Y-42225000D01*
X33590629Y-42220535D01*
X33549166Y-42207958D01*
X33510950Y-42187531D01*
X33477457Y-42160043D01*
X33449969Y-42126550D01*
X33429542Y-42088334D01*
X33416965Y-42046871D01*
X33412500Y-42001542D01*
X33412500Y-41398458D01*
X33416965Y-41353129D01*
X33429542Y-41311666D01*
X33449969Y-41273450D01*
X33477457Y-41239957D01*
X33510950Y-41212469D01*
X33549166Y-41192042D01*
X33590629Y-41179465D01*
X33635958Y-41175000D01*
X34164042Y-41175000D01*
X34209371Y-41179465D01*
X34209371Y-41179465D01*
G37*
G36*
X35784371Y-41179465D02*
X35825834Y-41192042D01*
X35864050Y-41212469D01*
X35897543Y-41239957D01*
X35925031Y-41273450D01*
X35945458Y-41311666D01*
X35958035Y-41353129D01*
X35962500Y-41398458D01*
X35962500Y-42001542D01*
X35958035Y-42046871D01*
X35945458Y-42088334D01*
X35925031Y-42126550D01*
X35897543Y-42160043D01*
X35864050Y-42187531D01*
X35825834Y-42207958D01*
X35784371Y-42220535D01*
X35739042Y-42225000D01*
X35210958Y-42225000D01*
X35165629Y-42220535D01*
X35124166Y-42207958D01*
X35085950Y-42187531D01*
X35052457Y-42160043D01*
X35024969Y-42126550D01*
X35004542Y-42088334D01*
X34991965Y-42046871D01*
X34987500Y-42001542D01*
X34987500Y-41398458D01*
X34991965Y-41353129D01*
X35004542Y-41311666D01*
X35024969Y-41273450D01*
X35052457Y-41239957D01*
X35085950Y-41212469D01*
X35124166Y-41192042D01*
X35165629Y-41179465D01*
X35210958Y-41175000D01*
X35739042Y-41175000D01*
X35784371Y-41179465D01*
X35784371Y-41179465D01*
G37*
G36*
X47046871Y-40304465D02*
X47088334Y-40317042D01*
X47126550Y-40337469D01*
X47160043Y-40364957D01*
X47187531Y-40398450D01*
X47207958Y-40436666D01*
X47220535Y-40478129D01*
X47225000Y-40523458D01*
X47225000Y-41051542D01*
X47220535Y-41096871D01*
X47207958Y-41138334D01*
X47187531Y-41176550D01*
X47160043Y-41210043D01*
X47126550Y-41237531D01*
X47088334Y-41257958D01*
X47046871Y-41270535D01*
X47001542Y-41275000D01*
X46398458Y-41275000D01*
X46353129Y-41270535D01*
X46311666Y-41257958D01*
X46273450Y-41237531D01*
X46239957Y-41210043D01*
X46212469Y-41176550D01*
X46192042Y-41138334D01*
X46179465Y-41096871D01*
X46175000Y-41051542D01*
X46175000Y-40523458D01*
X46179465Y-40478129D01*
X46192042Y-40436666D01*
X46212469Y-40398450D01*
X46239957Y-40364957D01*
X46273450Y-40337469D01*
X46311666Y-40317042D01*
X46353129Y-40304465D01*
X46398458Y-40300000D01*
X47001542Y-40300000D01*
X47046871Y-40304465D01*
X47046871Y-40304465D01*
G37*
G36*
X45046871Y-40304465D02*
X45088334Y-40317042D01*
X45126550Y-40337469D01*
X45160043Y-40364957D01*
X45187531Y-40398450D01*
X45207958Y-40436666D01*
X45220535Y-40478129D01*
X45225000Y-40523458D01*
X45225000Y-41051542D01*
X45220535Y-41096871D01*
X45207958Y-41138334D01*
X45187531Y-41176550D01*
X45160043Y-41210043D01*
X45126550Y-41237531D01*
X45088334Y-41257958D01*
X45046871Y-41270535D01*
X45001542Y-41275000D01*
X44398458Y-41275000D01*
X44353129Y-41270535D01*
X44311666Y-41257958D01*
X44273450Y-41237531D01*
X44239957Y-41210043D01*
X44212469Y-41176550D01*
X44192042Y-41138334D01*
X44179465Y-41096871D01*
X44175000Y-41051542D01*
X44175000Y-40523458D01*
X44179465Y-40478129D01*
X44192042Y-40436666D01*
X44212469Y-40398450D01*
X44239957Y-40364957D01*
X44273450Y-40337469D01*
X44311666Y-40317042D01*
X44353129Y-40304465D01*
X44398458Y-40300000D01*
X45001542Y-40300000D01*
X45046871Y-40304465D01*
X45046871Y-40304465D01*
G37*
G36*
X25334371Y-39779465D02*
X25375834Y-39792042D01*
X25414050Y-39812469D01*
X25447543Y-39839957D01*
X25475031Y-39873450D01*
X25495458Y-39911666D01*
X25508035Y-39953129D01*
X25512500Y-39998458D01*
X25512500Y-40526542D01*
X25508035Y-40571871D01*
X25495458Y-40613334D01*
X25475031Y-40651550D01*
X25447543Y-40685043D01*
X25414050Y-40712531D01*
X25375834Y-40732958D01*
X25334371Y-40745535D01*
X25289042Y-40750000D01*
X24685958Y-40750000D01*
X24640629Y-40745535D01*
X24599166Y-40732958D01*
X24560950Y-40712531D01*
X24527457Y-40685043D01*
X24499969Y-40651550D01*
X24479542Y-40613334D01*
X24466965Y-40571871D01*
X24462500Y-40526542D01*
X24462500Y-39998458D01*
X24466965Y-39953129D01*
X24479542Y-39911666D01*
X24499969Y-39873450D01*
X24527457Y-39839957D01*
X24560950Y-39812469D01*
X24599166Y-39792042D01*
X24640629Y-39779465D01*
X24685958Y-39775000D01*
X25289042Y-39775000D01*
X25334371Y-39779465D01*
X25334371Y-39779465D01*
G37*
G36*
X22351748Y-39429945D02*
X22397899Y-39443944D01*
X22440441Y-39466683D01*
X22477721Y-39497279D01*
X22508317Y-39534559D01*
X22531056Y-39577101D01*
X22545055Y-39623252D01*
X22550000Y-39673458D01*
X22550000Y-40251542D01*
X22545055Y-40301748D01*
X22531056Y-40347899D01*
X22508317Y-40390441D01*
X22477721Y-40427721D01*
X22440441Y-40458317D01*
X22397899Y-40481056D01*
X22351748Y-40495055D01*
X22301542Y-40500000D01*
X21298458Y-40500000D01*
X21248252Y-40495055D01*
X21202101Y-40481056D01*
X21159559Y-40458317D01*
X21122279Y-40427721D01*
X21091683Y-40390441D01*
X21068944Y-40347899D01*
X21054945Y-40301748D01*
X21050000Y-40251542D01*
X21050000Y-39673458D01*
X21054945Y-39623252D01*
X21068944Y-39577101D01*
X21091683Y-39534559D01*
X21122279Y-39497279D01*
X21159559Y-39466683D01*
X21202101Y-39443944D01*
X21248252Y-39429945D01*
X21298458Y-39425000D01*
X22301542Y-39425000D01*
X22351748Y-39429945D01*
X22351748Y-39429945D01*
G37*
G36*
X47046871Y-38729465D02*
X47088334Y-38742042D01*
X47126550Y-38762469D01*
X47160043Y-38789957D01*
X47187531Y-38823450D01*
X47207958Y-38861666D01*
X47220535Y-38903129D01*
X47225000Y-38948458D01*
X47225000Y-39476542D01*
X47220535Y-39521871D01*
X47207958Y-39563334D01*
X47187531Y-39601550D01*
X47160043Y-39635043D01*
X47126550Y-39662531D01*
X47088334Y-39682958D01*
X47046871Y-39695535D01*
X47001542Y-39700000D01*
X46398458Y-39700000D01*
X46353129Y-39695535D01*
X46311666Y-39682958D01*
X46273450Y-39662531D01*
X46239957Y-39635043D01*
X46212469Y-39601550D01*
X46192042Y-39563334D01*
X46179465Y-39521871D01*
X46175000Y-39476542D01*
X46175000Y-38948458D01*
X46179465Y-38903129D01*
X46192042Y-38861666D01*
X46212469Y-38823450D01*
X46239957Y-38789957D01*
X46273450Y-38762469D01*
X46311666Y-38742042D01*
X46353129Y-38729465D01*
X46398458Y-38725000D01*
X47001542Y-38725000D01*
X47046871Y-38729465D01*
X47046871Y-38729465D01*
G37*
G36*
X45046871Y-38729465D02*
X45088334Y-38742042D01*
X45126550Y-38762469D01*
X45160043Y-38789957D01*
X45187531Y-38823450D01*
X45207958Y-38861666D01*
X45220535Y-38903129D01*
X45225000Y-38948458D01*
X45225000Y-39476542D01*
X45220535Y-39521871D01*
X45207958Y-39563334D01*
X45187531Y-39601550D01*
X45160043Y-39635043D01*
X45126550Y-39662531D01*
X45088334Y-39682958D01*
X45046871Y-39695535D01*
X45001542Y-39700000D01*
X44398458Y-39700000D01*
X44353129Y-39695535D01*
X44311666Y-39682958D01*
X44273450Y-39662531D01*
X44239957Y-39635043D01*
X44212469Y-39601550D01*
X44192042Y-39563334D01*
X44179465Y-39521871D01*
X44175000Y-39476542D01*
X44175000Y-38948458D01*
X44179465Y-38903129D01*
X44192042Y-38861666D01*
X44212469Y-38823450D01*
X44239957Y-38789957D01*
X44273450Y-38762469D01*
X44311666Y-38742042D01*
X44353129Y-38729465D01*
X44398458Y-38725000D01*
X45001542Y-38725000D01*
X45046871Y-38729465D01*
X45046871Y-38729465D01*
G37*
G36*
X8155000Y-39300000D02*
X7455000Y-39300000D01*
X7455000Y-38200000D01*
X8155000Y-38200000D01*
X8155000Y-39300000D01*
X8155000Y-39300000D01*
G37*
G36*
X6885000Y-39300000D02*
X6185000Y-39300000D01*
X6185000Y-38200000D01*
X6885000Y-38200000D01*
X6885000Y-39300000D01*
X6885000Y-39300000D01*
G37*
G36*
X4345000Y-39300000D02*
X3645000Y-39300000D01*
X3645000Y-38200000D01*
X4345000Y-38200000D01*
X4345000Y-39300000D01*
X4345000Y-39300000D01*
G37*
G36*
X5615000Y-39300000D02*
X4915000Y-39300000D01*
X4915000Y-38200000D01*
X5615000Y-38200000D01*
X5615000Y-39300000D01*
X5615000Y-39300000D01*
G37*
G36*
X32646871Y-37791965D02*
X32688334Y-37804542D01*
X32726550Y-37824969D01*
X32760043Y-37852457D01*
X32787531Y-37885950D01*
X32807958Y-37924166D01*
X32820535Y-37965629D01*
X32825000Y-38010958D01*
X32825000Y-38539042D01*
X32820535Y-38584371D01*
X32807958Y-38625834D01*
X32787531Y-38664050D01*
X32760043Y-38697543D01*
X32726550Y-38725031D01*
X32688334Y-38745458D01*
X32646871Y-38758035D01*
X32601542Y-38762500D01*
X31998458Y-38762500D01*
X31953129Y-38758035D01*
X31911666Y-38745458D01*
X31873450Y-38725031D01*
X31839957Y-38697543D01*
X31812469Y-38664050D01*
X31792042Y-38625834D01*
X31779465Y-38584371D01*
X31775000Y-38539042D01*
X31775000Y-38010958D01*
X31779465Y-37965629D01*
X31792042Y-37924166D01*
X31812469Y-37885950D01*
X31839957Y-37852457D01*
X31873450Y-37824969D01*
X31911666Y-37804542D01*
X31953129Y-37791965D01*
X31998458Y-37787500D01*
X32601542Y-37787500D01*
X32646871Y-37791965D01*
X32646871Y-37791965D01*
G37*
G36*
X36950000Y-38600000D02*
X34450000Y-38600000D01*
X34450000Y-36500000D01*
X36950000Y-36500000D01*
X36950000Y-38600000D01*
X36950000Y-38600000D01*
G37*
G36*
X25233348Y-36730742D02*
X25233350Y-36730743D01*
X25233351Y-36730743D01*
X25378942Y-36791049D01*
X25378944Y-36791050D01*
X25509969Y-36878598D01*
X25621402Y-36990031D01*
X25680963Y-37079170D01*
X25708951Y-37121058D01*
X25769257Y-37266649D01*
X25800000Y-37421207D01*
X25800000Y-37578793D01*
X25769257Y-37733351D01*
X25708951Y-37878942D01*
X25708950Y-37878944D01*
X25621402Y-38009969D01*
X25509969Y-38121402D01*
X25378944Y-38208950D01*
X25378943Y-38208951D01*
X25378942Y-38208951D01*
X25233351Y-38269257D01*
X25233350Y-38269257D01*
X25233348Y-38269258D01*
X25078795Y-38300000D01*
X24921205Y-38300000D01*
X24766652Y-38269258D01*
X24766650Y-38269257D01*
X24766649Y-38269257D01*
X24621058Y-38208951D01*
X24621057Y-38208951D01*
X24621056Y-38208950D01*
X24490031Y-38121402D01*
X24378598Y-38009969D01*
X24291050Y-37878944D01*
X24291049Y-37878942D01*
X24230743Y-37733351D01*
X24200000Y-37578793D01*
X24200000Y-37421207D01*
X24230743Y-37266649D01*
X24291049Y-37121058D01*
X24319038Y-37079170D01*
X24378598Y-36990031D01*
X24490031Y-36878598D01*
X24621056Y-36791050D01*
X24621058Y-36791049D01*
X24766649Y-36730743D01*
X24766650Y-36730743D01*
X24766652Y-36730742D01*
X24921205Y-36700000D01*
X25078795Y-36700000D01*
X25233348Y-36730742D01*
X25233348Y-36730742D01*
G37*
G36*
X32646871Y-36216965D02*
X32688334Y-36229542D01*
X32726550Y-36249969D01*
X32760043Y-36277457D01*
X32787531Y-36310950D01*
X32807958Y-36349166D01*
X32820535Y-36390629D01*
X32825000Y-36435958D01*
X32825000Y-36964042D01*
X32820535Y-37009371D01*
X32807958Y-37050834D01*
X32787531Y-37089050D01*
X32760043Y-37122543D01*
X32726550Y-37150031D01*
X32688334Y-37170458D01*
X32646871Y-37183035D01*
X32601542Y-37187500D01*
X31998458Y-37187500D01*
X31953129Y-37183035D01*
X31911666Y-37170458D01*
X31873450Y-37150031D01*
X31839957Y-37122543D01*
X31812469Y-37089050D01*
X31792042Y-37050834D01*
X31779465Y-37009371D01*
X31775000Y-36964042D01*
X31775000Y-36435958D01*
X31779465Y-36390629D01*
X31792042Y-36349166D01*
X31812469Y-36310950D01*
X31839957Y-36277457D01*
X31873450Y-36249969D01*
X31911666Y-36229542D01*
X31953129Y-36216965D01*
X31998458Y-36212500D01*
X32601542Y-36212500D01*
X32646871Y-36216965D01*
X32646871Y-36216965D01*
G37*
G36*
X13600000Y-35350000D02*
X12800000Y-35350000D01*
X12800000Y-33650000D01*
X13600000Y-33650000D01*
X13600000Y-35350000D01*
X13600000Y-35350000D01*
G37*
G36*
X15800000Y-35350000D02*
X15000000Y-35350000D01*
X15000000Y-33650000D01*
X15800000Y-33650000D01*
X15800000Y-35350000D01*
X15800000Y-35350000D01*
G37*
G36*
X24300000Y-35350000D02*
X23500000Y-35350000D01*
X23500000Y-33650000D01*
X24300000Y-33650000D01*
X24300000Y-35350000D01*
X24300000Y-35350000D01*
G37*
G36*
X23200000Y-35350000D02*
X22400000Y-35350000D01*
X22400000Y-33650000D01*
X23200000Y-33650000D01*
X23200000Y-35350000D01*
X23200000Y-35350000D01*
G37*
G36*
X22100000Y-35350000D02*
X21300000Y-35350000D01*
X21300000Y-33650000D01*
X22100000Y-33650000D01*
X22100000Y-35350000D01*
X22100000Y-35350000D01*
G37*
G36*
X19100000Y-35350000D02*
X18300000Y-35350000D01*
X18300000Y-33650000D01*
X19100000Y-33650000D01*
X19100000Y-35350000D01*
X19100000Y-35350000D01*
G37*
G36*
X16900000Y-35350000D02*
X16100000Y-35350000D01*
X16100000Y-33650000D01*
X16900000Y-33650000D01*
X16900000Y-35350000D01*
X16900000Y-35350000D01*
G37*
G36*
X18000000Y-35350000D02*
X17200000Y-35350000D01*
X17200000Y-33650000D01*
X18000000Y-33650000D01*
X18000000Y-35350000D01*
X18000000Y-35350000D01*
G37*
G36*
X12500000Y-35350000D02*
X11700000Y-35350000D01*
X11700000Y-33650000D01*
X12500000Y-33650000D01*
X12500000Y-35350000D01*
X12500000Y-35350000D01*
G37*
G36*
X14700000Y-35350000D02*
X13900000Y-35350000D01*
X13900000Y-33650000D01*
X14700000Y-33650000D01*
X14700000Y-35350000D01*
X14700000Y-35350000D01*
G37*
G36*
X25400000Y-35350000D02*
X24600000Y-35350000D01*
X24600000Y-33650000D01*
X25400000Y-33650000D01*
X25400000Y-35350000D01*
X25400000Y-35350000D01*
G37*
G36*
X26500000Y-35350000D02*
X25700000Y-35350000D01*
X25700000Y-33650000D01*
X26500000Y-33650000D01*
X26500000Y-35350000D01*
X26500000Y-35350000D01*
G37*
G36*
X29596871Y-34254465D02*
X29638334Y-34267042D01*
X29676550Y-34287469D01*
X29710043Y-34314957D01*
X29737531Y-34348450D01*
X29757958Y-34386666D01*
X29770535Y-34428129D01*
X29775000Y-34473458D01*
X29775000Y-35001542D01*
X29770535Y-35046871D01*
X29757958Y-35088334D01*
X29737531Y-35126550D01*
X29710043Y-35160043D01*
X29676550Y-35187531D01*
X29638334Y-35207958D01*
X29596871Y-35220535D01*
X29551542Y-35225000D01*
X28948458Y-35225000D01*
X28903129Y-35220535D01*
X28861666Y-35207958D01*
X28823450Y-35187531D01*
X28789957Y-35160043D01*
X28762469Y-35126550D01*
X28742042Y-35088334D01*
X28729465Y-35046871D01*
X28725000Y-35001542D01*
X28725000Y-34473458D01*
X28729465Y-34428129D01*
X28742042Y-34386666D01*
X28762469Y-34348450D01*
X28789957Y-34314957D01*
X28823450Y-34287469D01*
X28861666Y-34267042D01*
X28903129Y-34254465D01*
X28948458Y-34250000D01*
X29551542Y-34250000D01*
X29596871Y-34254465D01*
X29596871Y-34254465D01*
G37*
G36*
X32646871Y-34216965D02*
X32688334Y-34229542D01*
X32726550Y-34249969D01*
X32760043Y-34277457D01*
X32787531Y-34310950D01*
X32807958Y-34349166D01*
X32820535Y-34390629D01*
X32825000Y-34435958D01*
X32825000Y-34964042D01*
X32820535Y-35009371D01*
X32807958Y-35050834D01*
X32787531Y-35089050D01*
X32760043Y-35122543D01*
X32726550Y-35150031D01*
X32688334Y-35170458D01*
X32646871Y-35183035D01*
X32601542Y-35187500D01*
X31998458Y-35187500D01*
X31953129Y-35183035D01*
X31911666Y-35170458D01*
X31873450Y-35150031D01*
X31839957Y-35122543D01*
X31812469Y-35089050D01*
X31792042Y-35050834D01*
X31779465Y-35009371D01*
X31775000Y-34964042D01*
X31775000Y-34435958D01*
X31779465Y-34390629D01*
X31792042Y-34349166D01*
X31812469Y-34310950D01*
X31839957Y-34277457D01*
X31873450Y-34249969D01*
X31911666Y-34229542D01*
X31953129Y-34216965D01*
X31998458Y-34212500D01*
X32601542Y-34212500D01*
X32646871Y-34216965D01*
X32646871Y-34216965D01*
G37*
G36*
X36950000Y-34900000D02*
X34450000Y-34900000D01*
X34450000Y-32800000D01*
X36950000Y-32800000D01*
X36950000Y-34900000D01*
X36950000Y-34900000D01*
G37*
G36*
X29596871Y-32679465D02*
X29638334Y-32692042D01*
X29676550Y-32712469D01*
X29710043Y-32739957D01*
X29737531Y-32773450D01*
X29757958Y-32811666D01*
X29770535Y-32853129D01*
X29775000Y-32898458D01*
X29775000Y-33426542D01*
X29770535Y-33471871D01*
X29757958Y-33513334D01*
X29737531Y-33551550D01*
X29710043Y-33585043D01*
X29676550Y-33612531D01*
X29638334Y-33632958D01*
X29596871Y-33645535D01*
X29551542Y-33650000D01*
X28948458Y-33650000D01*
X28903129Y-33645535D01*
X28861666Y-33632958D01*
X28823450Y-33612531D01*
X28789957Y-33585043D01*
X28762469Y-33551550D01*
X28742042Y-33513334D01*
X28729465Y-33471871D01*
X28725000Y-33426542D01*
X28725000Y-32898458D01*
X28729465Y-32853129D01*
X28742042Y-32811666D01*
X28762469Y-32773450D01*
X28789957Y-32739957D01*
X28823450Y-32712469D01*
X28861666Y-32692042D01*
X28903129Y-32679465D01*
X28948458Y-32675000D01*
X29551542Y-32675000D01*
X29596871Y-32679465D01*
X29596871Y-32679465D01*
G37*
G36*
X32646871Y-32641965D02*
X32688334Y-32654542D01*
X32726550Y-32674969D01*
X32760043Y-32702457D01*
X32787531Y-32735950D01*
X32807958Y-32774166D01*
X32820535Y-32815629D01*
X32825000Y-32860958D01*
X32825000Y-33389042D01*
X32820535Y-33434371D01*
X32807958Y-33475834D01*
X32787531Y-33514050D01*
X32760043Y-33547543D01*
X32726550Y-33575031D01*
X32688334Y-33595458D01*
X32646871Y-33608035D01*
X32601542Y-33612500D01*
X31998458Y-33612500D01*
X31953129Y-33608035D01*
X31911666Y-33595458D01*
X31873450Y-33575031D01*
X31839957Y-33547543D01*
X31812469Y-33514050D01*
X31792042Y-33475834D01*
X31779465Y-33434371D01*
X31775000Y-33389042D01*
X31775000Y-32860958D01*
X31779465Y-32815629D01*
X31792042Y-32774166D01*
X31812469Y-32735950D01*
X31839957Y-32702457D01*
X31873450Y-32674969D01*
X31911666Y-32654542D01*
X31953129Y-32641965D01*
X31998458Y-32637500D01*
X32601542Y-32637500D01*
X32646871Y-32641965D01*
X32646871Y-32641965D01*
G37*
G36*
X10000000Y-32900000D02*
X9000000Y-32900000D01*
X9000000Y-32000000D01*
X10000000Y-32000000D01*
X10000000Y-32900000D01*
X10000000Y-32900000D01*
G37*
G36*
X8000000Y-31950000D02*
X7000000Y-31950000D01*
X7000000Y-31050000D01*
X8000000Y-31050000D01*
X8000000Y-31950000D01*
X8000000Y-31950000D01*
G37*
G36*
X10000000Y-31000000D02*
X9000000Y-31000000D01*
X9000000Y-30100000D01*
X10000000Y-30100000D01*
X10000000Y-31000000D01*
X10000000Y-31000000D01*
G37*
G36*
X46221871Y-29479465D02*
X46263334Y-29492042D01*
X46301550Y-29512469D01*
X46335043Y-29539957D01*
X46362531Y-29573450D01*
X46382958Y-29611666D01*
X46395535Y-29653129D01*
X46400000Y-29698458D01*
X46400000Y-30301542D01*
X46395535Y-30346871D01*
X46382958Y-30388334D01*
X46362531Y-30426550D01*
X46335043Y-30460043D01*
X46301550Y-30487531D01*
X46263334Y-30507958D01*
X46221871Y-30520535D01*
X46176542Y-30525000D01*
X45648458Y-30525000D01*
X45603129Y-30520535D01*
X45561666Y-30507958D01*
X45523450Y-30487531D01*
X45489957Y-30460043D01*
X45462469Y-30426550D01*
X45442042Y-30388334D01*
X45429465Y-30346871D01*
X45425000Y-30301542D01*
X45425000Y-29698458D01*
X45429465Y-29653129D01*
X45442042Y-29611666D01*
X45462469Y-29573450D01*
X45489957Y-29539957D01*
X45523450Y-29512469D01*
X45561666Y-29492042D01*
X45603129Y-29479465D01*
X45648458Y-29475000D01*
X46176542Y-29475000D01*
X46221871Y-29479465D01*
X46221871Y-29479465D01*
G37*
G36*
X47796871Y-29479465D02*
X47838334Y-29492042D01*
X47876550Y-29512469D01*
X47910043Y-29539957D01*
X47937531Y-29573450D01*
X47957958Y-29611666D01*
X47970535Y-29653129D01*
X47975000Y-29698458D01*
X47975000Y-30301542D01*
X47970535Y-30346871D01*
X47957958Y-30388334D01*
X47937531Y-30426550D01*
X47910043Y-30460043D01*
X47876550Y-30487531D01*
X47838334Y-30507958D01*
X47796871Y-30520535D01*
X47751542Y-30525000D01*
X47223458Y-30525000D01*
X47178129Y-30520535D01*
X47136666Y-30507958D01*
X47098450Y-30487531D01*
X47064957Y-30460043D01*
X47037469Y-30426550D01*
X47017042Y-30388334D01*
X47004465Y-30346871D01*
X47000000Y-30301542D01*
X47000000Y-29698458D01*
X47004465Y-29653129D01*
X47017042Y-29611666D01*
X47037469Y-29573450D01*
X47064957Y-29539957D01*
X47098450Y-29512469D01*
X47136666Y-29492042D01*
X47178129Y-29479465D01*
X47223458Y-29475000D01*
X47751542Y-29475000D01*
X47796871Y-29479465D01*
X47796871Y-29479465D01*
G37*
G36*
X8846871Y-27704465D02*
X8888334Y-27717042D01*
X8926550Y-27737469D01*
X8960043Y-27764957D01*
X8987531Y-27798450D01*
X9007958Y-27836666D01*
X9020535Y-27878129D01*
X9025000Y-27923458D01*
X9025000Y-28451542D01*
X9020535Y-28496871D01*
X9007958Y-28538334D01*
X8987531Y-28576550D01*
X8960043Y-28610043D01*
X8926550Y-28637531D01*
X8888334Y-28657958D01*
X8846871Y-28670535D01*
X8801542Y-28675000D01*
X8198458Y-28675000D01*
X8153129Y-28670535D01*
X8111666Y-28657958D01*
X8073450Y-28637531D01*
X8039957Y-28610043D01*
X8012469Y-28576550D01*
X7992042Y-28538334D01*
X7979465Y-28496871D01*
X7975000Y-28451542D01*
X7975000Y-27923458D01*
X7979465Y-27878129D01*
X7992042Y-27836666D01*
X8012469Y-27798450D01*
X8039957Y-27764957D01*
X8073450Y-27737469D01*
X8111666Y-27717042D01*
X8153129Y-27704465D01*
X8198458Y-27700000D01*
X8801542Y-27700000D01*
X8846871Y-27704465D01*
X8846871Y-27704465D01*
G37*
G36*
X48796871Y-27579465D02*
X48838334Y-27592042D01*
X48876550Y-27612469D01*
X48910043Y-27639957D01*
X48937531Y-27673450D01*
X48957958Y-27711666D01*
X48970535Y-27753129D01*
X48975000Y-27798458D01*
X48975000Y-28401542D01*
X48970535Y-28446871D01*
X48957958Y-28488334D01*
X48937531Y-28526550D01*
X48910043Y-28560043D01*
X48876550Y-28587531D01*
X48838334Y-28607958D01*
X48796871Y-28620535D01*
X48751542Y-28625000D01*
X48223458Y-28625000D01*
X48178129Y-28620535D01*
X48136666Y-28607958D01*
X48098450Y-28587531D01*
X48064957Y-28560043D01*
X48037469Y-28526550D01*
X48017042Y-28488334D01*
X48004465Y-28446871D01*
X48000000Y-28401542D01*
X48000000Y-27798458D01*
X48004465Y-27753129D01*
X48017042Y-27711666D01*
X48037469Y-27673450D01*
X48064957Y-27639957D01*
X48098450Y-27612469D01*
X48136666Y-27592042D01*
X48178129Y-27579465D01*
X48223458Y-27575000D01*
X48751542Y-27575000D01*
X48796871Y-27579465D01*
X48796871Y-27579465D01*
G37*
G36*
X47221871Y-27579465D02*
X47263334Y-27592042D01*
X47301550Y-27612469D01*
X47335043Y-27639957D01*
X47362531Y-27673450D01*
X47382958Y-27711666D01*
X47395535Y-27753129D01*
X47400000Y-27798458D01*
X47400000Y-28401542D01*
X47395535Y-28446871D01*
X47382958Y-28488334D01*
X47362531Y-28526550D01*
X47335043Y-28560043D01*
X47301550Y-28587531D01*
X47263334Y-28607958D01*
X47221871Y-28620535D01*
X47176542Y-28625000D01*
X46648458Y-28625000D01*
X46603129Y-28620535D01*
X46561666Y-28607958D01*
X46523450Y-28587531D01*
X46489957Y-28560043D01*
X46462469Y-28526550D01*
X46442042Y-28488334D01*
X46429465Y-28446871D01*
X46425000Y-28401542D01*
X46425000Y-27798458D01*
X46429465Y-27753129D01*
X46442042Y-27711666D01*
X46462469Y-27673450D01*
X46489957Y-27639957D01*
X46523450Y-27612469D01*
X46561666Y-27592042D01*
X46603129Y-27579465D01*
X46648458Y-27575000D01*
X47176542Y-27575000D01*
X47221871Y-27579465D01*
X47221871Y-27579465D01*
G37*
G36*
X8846871Y-26129465D02*
X8888334Y-26142042D01*
X8926550Y-26162469D01*
X8960043Y-26189957D01*
X8987531Y-26223450D01*
X9007958Y-26261666D01*
X9020535Y-26303129D01*
X9025000Y-26348458D01*
X9025000Y-26876542D01*
X9020535Y-26921871D01*
X9007958Y-26963334D01*
X8987531Y-27001550D01*
X8960043Y-27035043D01*
X8926550Y-27062531D01*
X8888334Y-27082958D01*
X8846871Y-27095535D01*
X8801542Y-27100000D01*
X8198458Y-27100000D01*
X8153129Y-27095535D01*
X8111666Y-27082958D01*
X8073450Y-27062531D01*
X8039957Y-27035043D01*
X8012469Y-27001550D01*
X7992042Y-26963334D01*
X7979465Y-26921871D01*
X7975000Y-26876542D01*
X7975000Y-26348458D01*
X7979465Y-26303129D01*
X7992042Y-26261666D01*
X8012469Y-26223450D01*
X8039957Y-26189957D01*
X8073450Y-26162469D01*
X8111666Y-26142042D01*
X8153129Y-26129465D01*
X8198458Y-26125000D01*
X8801542Y-26125000D01*
X8846871Y-26129465D01*
X8846871Y-26129465D01*
G37*
G36*
X47050000Y-26825000D02*
X46350000Y-26825000D01*
X46350000Y-25775000D01*
X47050000Y-25775000D01*
X47050000Y-26825000D01*
X47050000Y-26825000D01*
G37*
G36*
X46225000Y-26650000D02*
X45175000Y-26650000D01*
X45175000Y-25950000D01*
X46225000Y-25950000D01*
X46225000Y-26650000D01*
X46225000Y-26650000D01*
G37*
G36*
X48225000Y-26650000D02*
X47175000Y-26650000D01*
X47175000Y-25950000D01*
X48225000Y-25950000D01*
X48225000Y-26650000D01*
X48225000Y-26650000D01*
G37*
G36*
X48225000Y-25850000D02*
X47175000Y-25850000D01*
X47175000Y-25150000D01*
X48225000Y-25150000D01*
X48225000Y-25850000D01*
X48225000Y-25850000D01*
G37*
G36*
X46225000Y-25850000D02*
X45175000Y-25850000D01*
X45175000Y-25150000D01*
X46225000Y-25150000D01*
X46225000Y-25850000D01*
X46225000Y-25850000D01*
G37*
G36*
X48225000Y-25050000D02*
X47175000Y-25050000D01*
X47175000Y-24350000D01*
X48225000Y-24350000D01*
X48225000Y-25050000D01*
X48225000Y-25050000D01*
G37*
G36*
X46225000Y-25050000D02*
X45175000Y-25050000D01*
X45175000Y-24350000D01*
X46225000Y-24350000D01*
X46225000Y-25050000D01*
X46225000Y-25050000D01*
G37*
G36*
X8846871Y-23891965D02*
X8888334Y-23904542D01*
X8926550Y-23924969D01*
X8960043Y-23952457D01*
X8987531Y-23985950D01*
X9007958Y-24024166D01*
X9020535Y-24065629D01*
X9025000Y-24110958D01*
X9025000Y-24639042D01*
X9020535Y-24684371D01*
X9007958Y-24725834D01*
X8987531Y-24764050D01*
X8960043Y-24797543D01*
X8926550Y-24825031D01*
X8888334Y-24845458D01*
X8846871Y-24858035D01*
X8801542Y-24862500D01*
X8198458Y-24862500D01*
X8153129Y-24858035D01*
X8111666Y-24845458D01*
X8073450Y-24825031D01*
X8039957Y-24797543D01*
X8012469Y-24764050D01*
X7992042Y-24725834D01*
X7979465Y-24684371D01*
X7975000Y-24639042D01*
X7975000Y-24110958D01*
X7979465Y-24065629D01*
X7992042Y-24024166D01*
X8012469Y-23985950D01*
X8039957Y-23952457D01*
X8073450Y-23924969D01*
X8111666Y-23904542D01*
X8153129Y-23891965D01*
X8198458Y-23887500D01*
X8801542Y-23887500D01*
X8846871Y-23891965D01*
X8846871Y-23891965D01*
G37*
G36*
X48225000Y-24250000D02*
X47175000Y-24250000D01*
X47175000Y-23550000D01*
X48225000Y-23550000D01*
X48225000Y-24250000D01*
X48225000Y-24250000D01*
G37*
G36*
X46225000Y-24250000D02*
X45175000Y-24250000D01*
X45175000Y-23550000D01*
X46225000Y-23550000D01*
X46225000Y-24250000D01*
X46225000Y-24250000D01*
G37*
G36*
X46225000Y-23450000D02*
X45175000Y-23450000D01*
X45175000Y-22750000D01*
X46225000Y-22750000D01*
X46225000Y-23450000D01*
X46225000Y-23450000D01*
G37*
G36*
X48225000Y-23450000D02*
X47175000Y-23450000D01*
X47175000Y-22750000D01*
X48225000Y-22750000D01*
X48225000Y-23450000D01*
X48225000Y-23450000D01*
G37*
G36*
X8846871Y-22316965D02*
X8888334Y-22329542D01*
X8926550Y-22349969D01*
X8960043Y-22377457D01*
X8987531Y-22410950D01*
X9007958Y-22449166D01*
X9020535Y-22490629D01*
X9025000Y-22535958D01*
X9025000Y-23064042D01*
X9020535Y-23109371D01*
X9007958Y-23150834D01*
X8987531Y-23189050D01*
X8960043Y-23222543D01*
X8926550Y-23250031D01*
X8888334Y-23270458D01*
X8846871Y-23283035D01*
X8801542Y-23287500D01*
X8198458Y-23287500D01*
X8153129Y-23283035D01*
X8111666Y-23270458D01*
X8073450Y-23250031D01*
X8039957Y-23222543D01*
X8012469Y-23189050D01*
X7992042Y-23150834D01*
X7979465Y-23109371D01*
X7975000Y-23064042D01*
X7975000Y-22535958D01*
X7979465Y-22490629D01*
X7992042Y-22449166D01*
X8012469Y-22410950D01*
X8039957Y-22377457D01*
X8073450Y-22349969D01*
X8111666Y-22329542D01*
X8153129Y-22316965D01*
X8198458Y-22312500D01*
X8801542Y-22312500D01*
X8846871Y-22316965D01*
X8846871Y-22316965D01*
G37*
G36*
X16900000Y-23150000D02*
X16100000Y-23150000D01*
X16100000Y-21450000D01*
X16900000Y-21450000D01*
X16900000Y-23150000D01*
X16900000Y-23150000D01*
G37*
G36*
X19100000Y-23150000D02*
X18300000Y-23150000D01*
X18300000Y-21450000D01*
X19100000Y-21450000D01*
X19100000Y-23150000D01*
X19100000Y-23150000D01*
G37*
G36*
X18000000Y-23150000D02*
X17200000Y-23150000D01*
X17200000Y-21450000D01*
X18000000Y-21450000D01*
X18000000Y-23150000D01*
X18000000Y-23150000D01*
G37*
G36*
X15800000Y-23150000D02*
X15000000Y-23150000D01*
X15000000Y-21450000D01*
X15800000Y-21450000D01*
X15800000Y-23150000D01*
X15800000Y-23150000D01*
G37*
G36*
X14700000Y-23150000D02*
X13900000Y-23150000D01*
X13900000Y-21450000D01*
X14700000Y-21450000D01*
X14700000Y-23150000D01*
X14700000Y-23150000D01*
G37*
G36*
X13600000Y-23150000D02*
X12800000Y-23150000D01*
X12800000Y-21450000D01*
X13600000Y-21450000D01*
X13600000Y-23150000D01*
X13600000Y-23150000D01*
G37*
G36*
X23200000Y-23150000D02*
X22400000Y-23150000D01*
X22400000Y-21450000D01*
X23200000Y-21450000D01*
X23200000Y-23150000D01*
X23200000Y-23150000D01*
G37*
G36*
X22100000Y-23150000D02*
X21300000Y-23150000D01*
X21300000Y-21450000D01*
X22100000Y-21450000D01*
X22100000Y-23150000D01*
X22100000Y-23150000D01*
G37*
G36*
X26500000Y-23150000D02*
X25700000Y-23150000D01*
X25700000Y-21450000D01*
X26500000Y-21450000D01*
X26500000Y-23150000D01*
X26500000Y-23150000D01*
G37*
G36*
X25400000Y-23150000D02*
X24600000Y-23150000D01*
X24600000Y-21450000D01*
X25400000Y-21450000D01*
X25400000Y-23150000D01*
X25400000Y-23150000D01*
G37*
G36*
X24300000Y-23150000D02*
X23500000Y-23150000D01*
X23500000Y-21450000D01*
X24300000Y-21450000D01*
X24300000Y-23150000D01*
X24300000Y-23150000D01*
G37*
G36*
X12500000Y-23150000D02*
X11700000Y-23150000D01*
X11700000Y-21450000D01*
X12500000Y-21450000D01*
X12500000Y-23150000D01*
X12500000Y-23150000D01*
G37*
G36*
X47050000Y-22825000D02*
X46350000Y-22825000D01*
X46350000Y-21775000D01*
X47050000Y-21775000D01*
X47050000Y-22825000D01*
X47050000Y-22825000D01*
G37*
G36*
X48225000Y-22650000D02*
X47175000Y-22650000D01*
X47175000Y-21950000D01*
X48225000Y-21950000D01*
X48225000Y-22650000D01*
X48225000Y-22650000D01*
G37*
G36*
X46225000Y-22650000D02*
X45175000Y-22650000D01*
X45175000Y-21950000D01*
X46225000Y-21950000D01*
X46225000Y-22650000D01*
X46225000Y-22650000D01*
G37*
G36*
X47784371Y-20079465D02*
X47825834Y-20092042D01*
X47864050Y-20112469D01*
X47897543Y-20139957D01*
X47925031Y-20173450D01*
X47945458Y-20211666D01*
X47958035Y-20253129D01*
X47962500Y-20298458D01*
X47962500Y-20901542D01*
X47958035Y-20946871D01*
X47945458Y-20988334D01*
X47925031Y-21026550D01*
X47897543Y-21060043D01*
X47864050Y-21087531D01*
X47825834Y-21107958D01*
X47784371Y-21120535D01*
X47739042Y-21125000D01*
X47210958Y-21125000D01*
X47165629Y-21120535D01*
X47124166Y-21107958D01*
X47085950Y-21087531D01*
X47052457Y-21060043D01*
X47024969Y-21026550D01*
X47004542Y-20988334D01*
X46991965Y-20946871D01*
X46987500Y-20901542D01*
X46987500Y-20298458D01*
X46991965Y-20253129D01*
X47004542Y-20211666D01*
X47024969Y-20173450D01*
X47052457Y-20139957D01*
X47085950Y-20112469D01*
X47124166Y-20092042D01*
X47165629Y-20079465D01*
X47210958Y-20075000D01*
X47739042Y-20075000D01*
X47784371Y-20079465D01*
X47784371Y-20079465D01*
G37*
G36*
X46209371Y-20079465D02*
X46250834Y-20092042D01*
X46289050Y-20112469D01*
X46322543Y-20139957D01*
X46350031Y-20173450D01*
X46370458Y-20211666D01*
X46383035Y-20253129D01*
X46387500Y-20298458D01*
X46387500Y-20901542D01*
X46383035Y-20946871D01*
X46370458Y-20988334D01*
X46350031Y-21026550D01*
X46322543Y-21060043D01*
X46289050Y-21087531D01*
X46250834Y-21107958D01*
X46209371Y-21120535D01*
X46164042Y-21125000D01*
X45635958Y-21125000D01*
X45590629Y-21120535D01*
X45549166Y-21107958D01*
X45510950Y-21087531D01*
X45477457Y-21060043D01*
X45449969Y-21026550D01*
X45429542Y-20988334D01*
X45416965Y-20946871D01*
X45412500Y-20901542D01*
X45412500Y-20298458D01*
X45416965Y-20253129D01*
X45429542Y-20211666D01*
X45449969Y-20173450D01*
X45477457Y-20139957D01*
X45510950Y-20112469D01*
X45549166Y-20092042D01*
X45590629Y-20079465D01*
X45635958Y-20075000D01*
X46164042Y-20075000D01*
X46209371Y-20079465D01*
X46209371Y-20079465D01*
G37*
G36*
X9051748Y-20004945D02*
X9097899Y-20018944D01*
X9140441Y-20041683D01*
X9177721Y-20072279D01*
X9208317Y-20109559D01*
X9231056Y-20152101D01*
X9245055Y-20198252D01*
X9250000Y-20248458D01*
X9250000Y-20826542D01*
X9245055Y-20876748D01*
X9231056Y-20922899D01*
X9208317Y-20965441D01*
X9177721Y-21002721D01*
X9140441Y-21033317D01*
X9097899Y-21056056D01*
X9051748Y-21070055D01*
X9001542Y-21075000D01*
X7998458Y-21075000D01*
X7948252Y-21070055D01*
X7902101Y-21056056D01*
X7859559Y-21033317D01*
X7822279Y-21002721D01*
X7791683Y-20965441D01*
X7768944Y-20922899D01*
X7754945Y-20876748D01*
X7750000Y-20826542D01*
X7750000Y-20248458D01*
X7754945Y-20198252D01*
X7768944Y-20152101D01*
X7791683Y-20109559D01*
X7822279Y-20072279D01*
X7859559Y-20041683D01*
X7902101Y-20018944D01*
X7948252Y-20004945D01*
X7998458Y-20000000D01*
X9001542Y-20000000D01*
X9051748Y-20004945D01*
X9051748Y-20004945D01*
G37*
G36*
X11921871Y-18279465D02*
X11963334Y-18292042D01*
X12001550Y-18312469D01*
X12035043Y-18339957D01*
X12062531Y-18373450D01*
X12082958Y-18411666D01*
X12095535Y-18453129D01*
X12100000Y-18498458D01*
X12100000Y-19101542D01*
X12095535Y-19146871D01*
X12082958Y-19188334D01*
X12062531Y-19226550D01*
X12035043Y-19260043D01*
X12001550Y-19287531D01*
X11963334Y-19307958D01*
X11921871Y-19320535D01*
X11876542Y-19325000D01*
X11348458Y-19325000D01*
X11303129Y-19320535D01*
X11261666Y-19307958D01*
X11223450Y-19287531D01*
X11189957Y-19260043D01*
X11162469Y-19226550D01*
X11142042Y-19188334D01*
X11129465Y-19146871D01*
X11125000Y-19101542D01*
X11125000Y-18498458D01*
X11129465Y-18453129D01*
X11142042Y-18411666D01*
X11162469Y-18373450D01*
X11189957Y-18339957D01*
X11223450Y-18312469D01*
X11261666Y-18292042D01*
X11303129Y-18279465D01*
X11348458Y-18275000D01*
X11876542Y-18275000D01*
X11921871Y-18279465D01*
X11921871Y-18279465D01*
G37*
G36*
X13496871Y-18279465D02*
X13538334Y-18292042D01*
X13576550Y-18312469D01*
X13610043Y-18339957D01*
X13637531Y-18373450D01*
X13657958Y-18411666D01*
X13670535Y-18453129D01*
X13675000Y-18498458D01*
X13675000Y-19101542D01*
X13670535Y-19146871D01*
X13657958Y-19188334D01*
X13637531Y-19226550D01*
X13610043Y-19260043D01*
X13576550Y-19287531D01*
X13538334Y-19307958D01*
X13496871Y-19320535D01*
X13451542Y-19325000D01*
X12923458Y-19325000D01*
X12878129Y-19320535D01*
X12836666Y-19307958D01*
X12798450Y-19287531D01*
X12764957Y-19260043D01*
X12737469Y-19226550D01*
X12717042Y-19188334D01*
X12704465Y-19146871D01*
X12700000Y-19101542D01*
X12700000Y-18498458D01*
X12704465Y-18453129D01*
X12717042Y-18411666D01*
X12737469Y-18373450D01*
X12764957Y-18339957D01*
X12798450Y-18312469D01*
X12836666Y-18292042D01*
X12878129Y-18279465D01*
X12923458Y-18275000D01*
X13451542Y-18275000D01*
X13496871Y-18279465D01*
X13496871Y-18279465D01*
G37*
G36*
X9051748Y-18129945D02*
X9097899Y-18143944D01*
X9140441Y-18166683D01*
X9177721Y-18197279D01*
X9208317Y-18234559D01*
X9231056Y-18277101D01*
X9245055Y-18323252D01*
X9250000Y-18373458D01*
X9250000Y-18951542D01*
X9245055Y-19001748D01*
X9231056Y-19047899D01*
X9208317Y-19090441D01*
X9177721Y-19127721D01*
X9140441Y-19158317D01*
X9097899Y-19181056D01*
X9051748Y-19195055D01*
X9001542Y-19200000D01*
X7998458Y-19200000D01*
X7948252Y-19195055D01*
X7902101Y-19181056D01*
X7859559Y-19158317D01*
X7822279Y-19127721D01*
X7791683Y-19090441D01*
X7768944Y-19047899D01*
X7754945Y-19001748D01*
X7750000Y-18951542D01*
X7750000Y-18373458D01*
X7754945Y-18323252D01*
X7768944Y-18277101D01*
X7791683Y-18234559D01*
X7822279Y-18197279D01*
X7859559Y-18166683D01*
X7902101Y-18143944D01*
X7948252Y-18129945D01*
X7998458Y-18125000D01*
X9001542Y-18125000D01*
X9051748Y-18129945D01*
X9051748Y-18129945D01*
G37*
G36*
X5268770Y-10871136D02*
X5481287Y-10913408D01*
X5781568Y-11037789D01*
X6051814Y-11218361D01*
X6281639Y-11448186D01*
X6462211Y-11718432D01*
X6586592Y-12018713D01*
X6650000Y-12337489D01*
X6650000Y-12662511D01*
X6586592Y-12981287D01*
X6462211Y-13281568D01*
X6281639Y-13551814D01*
X6051814Y-13781639D01*
X5781568Y-13962211D01*
X5481287Y-14086592D01*
X5268770Y-14128864D01*
X5162513Y-14150000D01*
X4837487Y-14150000D01*
X4731230Y-14128864D01*
X4518713Y-14086592D01*
X4218432Y-13962211D01*
X3948186Y-13781639D01*
X3718361Y-13551814D01*
X3537789Y-13281568D01*
X3413408Y-12981287D01*
X3350000Y-12662511D01*
X3350000Y-12337489D01*
X3413408Y-12018713D01*
X3537789Y-11718432D01*
X3718361Y-11448186D01*
X3948186Y-11218361D01*
X4218432Y-11037789D01*
X4518713Y-10913408D01*
X4731230Y-10871136D01*
X4837487Y-10850000D01*
X5162513Y-10850000D01*
X5268770Y-10871136D01*
X5268770Y-10871136D01*
G37*
G36*
X45268770Y-10871136D02*
X45481287Y-10913408D01*
X45781568Y-11037789D01*
X46051814Y-11218361D01*
X46281639Y-11448186D01*
X46462211Y-11718432D01*
X46586592Y-12018713D01*
X46650000Y-12337489D01*
X46650000Y-12662511D01*
X46586592Y-12981287D01*
X46462211Y-13281568D01*
X46281639Y-13551814D01*
X46051814Y-13781639D01*
X45781568Y-13962211D01*
X45481287Y-14086592D01*
X45268770Y-14128864D01*
X45162513Y-14150000D01*
X44837487Y-14150000D01*
X44731230Y-14128864D01*
X44518713Y-14086592D01*
X44218432Y-13962211D01*
X43948186Y-13781639D01*
X43718361Y-13551814D01*
X43537789Y-13281568D01*
X43413408Y-12981287D01*
X43350000Y-12662511D01*
X43350000Y-12337489D01*
X43413408Y-12018713D01*
X43537789Y-11718432D01*
X43718361Y-11448186D01*
X43948186Y-11218361D01*
X44218432Y-11037789D01*
X44518713Y-10913408D01*
X44731230Y-10871136D01*
X44837487Y-10850000D01*
X45162513Y-10850000D01*
X45268770Y-10871136D01*
X45268770Y-10871136D01*
G37*
M02*
