M48
;DRILL file {KiCad 5.0.0+dfsg1-2} date Tue Oct 30 23:18:43 2018
;FORMAT={-:-/ absolute / metric / decimal}
FMAT,2
METRIC,TZ
T1C0.350
T2C0.400
T3C0.440
T4C0.750
T5C1.000
%
G90
G05
M71
T2
X2.2Y-44.6
X3.Y-13.
X4.6Y-16.1
X4.6Y-18.
X5.2Y-35.8
X5.3Y-18.6
X5.5Y-48.6
X6.Y-16.1
X6.Y-18.
X7.1Y-15.4
X8.5Y-42.7
X8.7Y-23.4
X10.4Y-35.8
X10.8Y-25.9
X11.3Y-31.5
X11.5Y-47.
X11.5Y-49.8
X11.7Y-61.8
X13.2Y-50.2
X13.9Y-31.5
X14.5Y-50.2
X15.4Y-24.7
X15.4Y-45.6
X15.6Y-39.6
X15.8Y-36.3
X19.2Y-43.7
X21.6Y-49.2
X22.Y-3.
X22.Y-22.
X24.8Y-57.6
X32.Y-32.
X34.2Y-44.
X35.6Y-46.5
X37.4Y-34.8
X37.8Y-55.1
X38.5Y-62.
X39.1Y-49.2
X45.Y-15.1
X45.9Y-36.4
X46.3Y-50.3
X46.45Y-45.95
T3
X28.5Y-56.3
X28.5Y-57.6
X28.5Y-58.9
X29.5Y-56.95
X29.5Y-58.25
T4
X44.4Y-29.2
X46.4Y-29.2
X44.4Y-38.4
X46.4Y-38.4
T5
X11.52Y-57.7
X14.06Y-57.7
X16.6Y-57.7
X19.14Y-57.7
X21.68Y-57.7
X24.5Y-33.5
T1
X28.22Y-54.025G85X29.22Y-54.025
G05
X28.22Y-61.175G85X29.22Y-61.175
G05
T0
M30
