G04 #@! TF.GenerationSoftware,KiCad,Pcbnew,5.0.0+dfsg1-2*
G04 #@! TF.CreationDate,2018-10-30T23:18:40+03:00*
G04 #@! TF.ProjectId,SD_Track,53445F547261636B2E6B696361645F70,2*
G04 #@! TF.SameCoordinates,PX68e7780PY3938700*
G04 #@! TF.FileFunction,Legend,Top*
G04 #@! TF.FilePolarity,Positive*
%FSLAX46Y46*%
G04 Gerber Fmt 4.6, Leading zero omitted, Abs format (unit mm)*
G04 Created by KiCad (PCBNEW 5.0.0+dfsg1-2) date Tue Oct 30 23:18:40 2018*
%MOMM*%
%LPD*%
G01*
G04 APERTURE LIST*
%ADD10C,0.120000*%
%ADD11C,0.150000*%
%ADD12C,0.100000*%
%ADD13C,1.075000*%
%ADD14R,0.350000X1.100000*%
%ADD15R,1.100000X0.350000*%
%ADD16C,3.300000*%
%ADD17R,1.300000X1.850000*%
%ADD18O,1.300000X1.850000*%
%ADD19C,1.150000*%
%ADD20R,1.800000X1.800000*%
%ADD21O,1.800000X1.800000*%
%ADD22C,0.940000*%
%ADD23O,1.950000X0.950000*%
%ADD24R,1.500000X0.800000*%
%ADD25R,1.500000X1.700000*%
%ADD26R,1.500000X1.300000*%
%ADD27R,2.300000X1.300000*%
%ADD28C,1.100000*%
%ADD29R,1.000000X0.900000*%
%ADD30R,0.750000X1.160000*%
%ADD31R,0.500000X0.750000*%
%ADD32R,0.800000X1.700000*%
%ADD33R,0.750000X0.500000*%
%ADD34R,0.700000X1.050000*%
%ADD35R,1.050000X0.700000*%
%ADD36R,2.100000X2.500000*%
%ADD37C,1.600000*%
G04 APERTURE END LIST*
D10*
G04 #@! TO.C,C7*
X16940000Y-36408578D02*
X16940000Y-35891422D01*
X18360000Y-36408578D02*
X18360000Y-35891422D01*
D11*
G04 #@! TO.C,U4*
X16275000Y-37625000D02*
X15275000Y-37625000D01*
X16275000Y-47975000D02*
X15200000Y-47975000D01*
X5925000Y-47975000D02*
X7000000Y-47975000D01*
X5925000Y-37625000D02*
X7000000Y-37625000D01*
X16275000Y-37625000D02*
X16275000Y-38700000D01*
X5925000Y-37625000D02*
X5925000Y-38700000D01*
X5925000Y-47975000D02*
X5925000Y-46900000D01*
X16275000Y-47975000D02*
X16275000Y-46900000D01*
X15275000Y-37625000D02*
X15275000Y-36600000D01*
D10*
G04 #@! TO.C,BT1*
X42340000Y-36590000D02*
X42340000Y-41310000D01*
X42340000Y-41310000D02*
X48460000Y-41310000D01*
X48460000Y-41310000D02*
X48460000Y-36590000D01*
X48460000Y-36590000D02*
X42340000Y-36590000D01*
X44100000Y-36590000D02*
X44100000Y-36390000D01*
X44100000Y-36390000D02*
X43800000Y-36390000D01*
X43800000Y-36390000D02*
X43800000Y-36590000D01*
X44100000Y-36490000D02*
X43800000Y-36490000D01*
X44900000Y-36590000D02*
X44900000Y-37200000D01*
X44900000Y-37200000D02*
X42950000Y-37200000D01*
X42950000Y-37200000D02*
X42950000Y-40700000D01*
X42950000Y-40700000D02*
X47850000Y-40700000D01*
X47850000Y-40700000D02*
X47850000Y-37200000D01*
X47850000Y-37200000D02*
X45900000Y-37200000D01*
X45900000Y-37200000D02*
X45900000Y-36590000D01*
X42340000Y-37900000D02*
X42950000Y-37900000D01*
X42340000Y-39200000D02*
X42950000Y-39200000D01*
X48460000Y-37900000D02*
X47850000Y-37900000D01*
X48460000Y-39200000D02*
X47850000Y-39200000D01*
X45300000Y-40700000D02*
X45300000Y-40200000D01*
X45300000Y-40200000D02*
X45500000Y-40200000D01*
X45500000Y-40200000D02*
X45500000Y-40700000D01*
X45400000Y-40700000D02*
X45400000Y-40200000D01*
X43290000Y-36290000D02*
X42040000Y-36290000D01*
X42040000Y-36290000D02*
X42040000Y-37540000D01*
G04 #@! TO.C,C1*
X42190000Y-51085000D02*
X44900000Y-51085000D01*
X42190000Y-49515000D02*
X42190000Y-51085000D01*
X44900000Y-49515000D02*
X42190000Y-49515000D01*
G04 #@! TO.C,C2*
X9110000Y-14241422D02*
X9110000Y-14758578D01*
X7690000Y-14241422D02*
X7690000Y-14758578D01*
G04 #@! TO.C,C3*
X42090000Y-43785000D02*
X44800000Y-43785000D01*
X42090000Y-42215000D02*
X42090000Y-43785000D01*
X44800000Y-42215000D02*
X42090000Y-42215000D01*
G04 #@! TO.C,C4*
X47885000Y-35200000D02*
X47885000Y-32490000D01*
X47885000Y-32490000D02*
X46315000Y-32490000D01*
X46315000Y-32490000D02*
X46315000Y-35200000D01*
G04 #@! TO.C,C5*
X24115000Y-28500000D02*
X24115000Y-31210000D01*
X24115000Y-31210000D02*
X25685000Y-31210000D01*
X25685000Y-31210000D02*
X25685000Y-28500000D01*
G04 #@! TO.C,C6*
X9510000Y-34521078D02*
X9510000Y-34003922D01*
X8090000Y-34521078D02*
X8090000Y-34003922D01*
G04 #@! TO.C,C8*
X3810000Y-46858578D02*
X3810000Y-46341422D01*
X2390000Y-46858578D02*
X2390000Y-46341422D01*
G04 #@! TO.C,C9*
X13190000Y-33858578D02*
X13190000Y-33341422D01*
X14610000Y-33858578D02*
X14610000Y-33341422D01*
G04 #@! TO.C,C10*
X12010000Y-33858578D02*
X12010000Y-33341422D01*
X10590000Y-33858578D02*
X10590000Y-33341422D01*
G04 #@! TO.C,C11*
X16912500Y-55472500D02*
X19622500Y-55472500D01*
X19622500Y-55472500D02*
X19622500Y-53902500D01*
X19622500Y-53902500D02*
X16912500Y-53902500D01*
G04 #@! TO.C,C12*
X39890000Y-47441422D02*
X39890000Y-47958578D01*
X41310000Y-47441422D02*
X41310000Y-47958578D01*
G04 #@! TO.C,C13*
X11510000Y-23441422D02*
X11510000Y-23958578D01*
X10090000Y-23441422D02*
X10090000Y-23958578D01*
G04 #@! TO.C,CON1*
X23010000Y-59030000D02*
X23010000Y-56370000D01*
X12790000Y-59030000D02*
X23010000Y-59030000D01*
X12790000Y-56370000D02*
X23010000Y-56370000D01*
X12790000Y-59030000D02*
X12790000Y-56370000D01*
X11520000Y-59030000D02*
X10190000Y-59030000D01*
X10190000Y-59030000D02*
X10190000Y-57700000D01*
G04 #@! TO.C,D1*
X34360000Y-54785000D02*
X34360000Y-52100000D01*
X32440000Y-54785000D02*
X34360000Y-54785000D01*
X32440000Y-52100000D02*
X32440000Y-54785000D01*
G04 #@! TO.C,D2*
X35640000Y-52062500D02*
X35640000Y-54747500D01*
X35640000Y-54747500D02*
X37560000Y-54747500D01*
X37560000Y-54747500D02*
X37560000Y-52062500D01*
G04 #@! TO.C,D3*
X41360000Y-43100000D02*
X41360000Y-40415000D01*
X41360000Y-40415000D02*
X39440000Y-40415000D01*
X39440000Y-40415000D02*
X39440000Y-43100000D01*
D11*
G04 #@! TO.C,J1*
X27595000Y-61750000D02*
X27120000Y-61750000D01*
X27120000Y-61750000D02*
X27120000Y-53450000D01*
X27120000Y-53450000D02*
X27595000Y-53450000D01*
X29845000Y-61750000D02*
X30320000Y-61750000D01*
X30320000Y-61750000D02*
X30320000Y-53450000D01*
X30320000Y-53450000D02*
X29845000Y-53450000D01*
X26820000Y-59900000D02*
X26820000Y-57900000D01*
G04 #@! TO.C,J2*
X12000000Y-19950000D02*
X12000000Y-4450000D01*
X12000000Y-4450000D02*
X27500000Y-4450000D01*
X27500000Y-4450000D02*
X27500000Y-19950000D01*
X27500000Y-19950000D02*
X12000000Y-19950000D01*
D10*
G04 #@! TO.C,Q1*
X32540000Y-59520000D02*
X34000000Y-59520000D01*
X32540000Y-62680000D02*
X34700000Y-62680000D01*
X32540000Y-62680000D02*
X32540000Y-61750000D01*
X32540000Y-59520000D02*
X32540000Y-60450000D01*
G04 #@! TO.C,Q2*
X40060000Y-34280000D02*
X40060000Y-33350000D01*
X40060000Y-31120000D02*
X40060000Y-32050000D01*
X40060000Y-31120000D02*
X37900000Y-31120000D01*
X40060000Y-34280000D02*
X38600000Y-34280000D01*
G04 #@! TO.C,R1*
X34110000Y-57358578D02*
X34110000Y-56841422D01*
X32690000Y-57358578D02*
X32690000Y-56841422D01*
G04 #@! TO.C,R2*
X35890000Y-57358578D02*
X35890000Y-56841422D01*
X37310000Y-57358578D02*
X37310000Y-56841422D01*
G04 #@! TO.C,R3*
X48710000Y-49658578D02*
X48710000Y-49141422D01*
X47290000Y-49658578D02*
X47290000Y-49141422D01*
G04 #@! TO.C,R4*
X48710000Y-43741422D02*
X48710000Y-44258578D01*
X47290000Y-43741422D02*
X47290000Y-44258578D01*
G04 #@! TO.C,R5*
X37310000Y-61358578D02*
X37310000Y-60841422D01*
X35890000Y-61358578D02*
X35890000Y-60841422D01*
G04 #@! TO.C,R6*
X3310000Y-21041422D02*
X3310000Y-21558578D01*
X1890000Y-21041422D02*
X1890000Y-21558578D01*
G04 #@! TO.C,R7*
X4710000Y-25078922D02*
X4710000Y-25596078D01*
X3290000Y-25078922D02*
X3290000Y-25596078D01*
G04 #@! TO.C,R8*
X5690000Y-25103922D02*
X5690000Y-25621078D01*
X7110000Y-25103922D02*
X7110000Y-25621078D01*
G04 #@! TO.C,R9*
X8510000Y-21041422D02*
X8510000Y-21558578D01*
X7090000Y-21041422D02*
X7090000Y-21558578D01*
G04 #@! TO.C,R10*
X19858578Y-47290000D02*
X19341422Y-47290000D01*
X19858578Y-48710000D02*
X19341422Y-48710000D01*
G04 #@! TO.C,R11*
X19821078Y-51310000D02*
X19303922Y-51310000D01*
X19821078Y-49890000D02*
X19303922Y-49890000D01*
G04 #@! TO.C,R12*
X39690000Y-37541422D02*
X39690000Y-38058578D01*
X41110000Y-37541422D02*
X41110000Y-38058578D01*
G04 #@! TO.C,R14*
X13290000Y-54258578D02*
X13290000Y-53741422D01*
X14710000Y-54258578D02*
X14710000Y-53741422D01*
G04 #@! TO.C,R15*
X12210000Y-54158578D02*
X12210000Y-53641422D01*
X10790000Y-54158578D02*
X10790000Y-53641422D01*
G04 #@! TO.C,R16*
X34490000Y-33021078D02*
X34490000Y-32503922D01*
X35910000Y-33021078D02*
X35910000Y-32503922D01*
G04 #@! TO.C,R17*
X20890000Y-29241422D02*
X20890000Y-29758578D01*
X22310000Y-29241422D02*
X22310000Y-29758578D01*
G04 #@! TO.C,R18*
X19510000Y-29241422D02*
X19510000Y-29758578D01*
X18090000Y-29241422D02*
X18090000Y-29758578D01*
G04 #@! TO.C,SW1*
X48760000Y-31310000D02*
X48760000Y-30060000D01*
X47510000Y-31310000D02*
X48760000Y-31310000D01*
X45400000Y-26900000D02*
X45400000Y-27400000D01*
X45300000Y-27400000D02*
X45300000Y-26900000D01*
X45500000Y-27400000D02*
X45300000Y-27400000D01*
X45500000Y-26900000D02*
X45500000Y-27400000D01*
X42340000Y-28400000D02*
X42950000Y-28400000D01*
X42340000Y-29700000D02*
X42950000Y-29700000D01*
X48460000Y-28400000D02*
X47850000Y-28400000D01*
X48460000Y-29700000D02*
X47850000Y-29700000D01*
X44900000Y-30400000D02*
X44900000Y-31010000D01*
X42950000Y-30400000D02*
X44900000Y-30400000D01*
X42950000Y-26900000D02*
X42950000Y-30400000D01*
X47850000Y-26900000D02*
X42950000Y-26900000D01*
X47850000Y-30400000D02*
X47850000Y-26900000D01*
X45900000Y-30400000D02*
X47850000Y-30400000D01*
X45900000Y-31010000D02*
X45900000Y-30400000D01*
X46700000Y-31110000D02*
X47000000Y-31110000D01*
X47000000Y-31210000D02*
X47000000Y-31010000D01*
X46700000Y-31210000D02*
X47000000Y-31210000D01*
X46700000Y-31010000D02*
X46700000Y-31210000D01*
X42340000Y-31010000D02*
X48460000Y-31010000D01*
X42340000Y-26290000D02*
X42340000Y-31010000D01*
X48460000Y-26290000D02*
X42340000Y-26290000D01*
X48460000Y-31010000D02*
X48460000Y-26290000D01*
G04 #@! TO.C,U1*
X42290000Y-45400000D02*
X42290000Y-47200000D01*
X45510000Y-47200000D02*
X45510000Y-44750000D01*
G04 #@! TO.C,U2*
X43140000Y-32620000D02*
X43140000Y-33550000D01*
X43140000Y-35780000D02*
X43140000Y-34850000D01*
X43140000Y-35780000D02*
X45300000Y-35780000D01*
X43140000Y-32620000D02*
X44600000Y-32620000D01*
G04 #@! TO.C,U3*
X4140000Y-15400000D02*
X4140000Y-17300000D01*
X6460000Y-16800000D02*
X6460000Y-15400000D01*
D11*
G04 #@! TO.C,U5*
X38400000Y-36500000D02*
X22400000Y-36500000D01*
X38400000Y-48700000D02*
X22400000Y-48700000D01*
X22400000Y-36500000D02*
X22400000Y-48700000D01*
X38400000Y-36500000D02*
X38400000Y-48700000D01*
D10*
G04 #@! TO.C,U6*
X17400000Y-59940000D02*
X16000000Y-59940000D01*
X16000000Y-62260000D02*
X17900000Y-62260000D01*
G04 #@! TO.C,U7*
X18010000Y-25260000D02*
X18010000Y-26310000D01*
X18010000Y-26310000D02*
X17960000Y-26310000D01*
X12790000Y-25260000D02*
X12790000Y-26310000D01*
X12790000Y-26310000D02*
X12840000Y-26310000D01*
X12790000Y-24140000D02*
X12790000Y-23090000D01*
X12790000Y-23090000D02*
X12840000Y-23090000D01*
G04 #@! TO.C,Y1*
X9900000Y-31200000D02*
X15650000Y-31200000D01*
X15650000Y-31200000D02*
X15650000Y-27600000D01*
X15650000Y-27600000D02*
X9900000Y-27600000D01*
G04 #@! TO.C,C7*
D11*
X19707142Y-36616666D02*
X19754761Y-36664285D01*
X19802380Y-36807142D01*
X19802380Y-36902380D01*
X19754761Y-37045238D01*
X19659523Y-37140476D01*
X19564285Y-37188095D01*
X19373809Y-37235714D01*
X19230952Y-37235714D01*
X19040476Y-37188095D01*
X18945238Y-37140476D01*
X18850000Y-37045238D01*
X18802380Y-36902380D01*
X18802380Y-36807142D01*
X18850000Y-36664285D01*
X18897619Y-36616666D01*
X18802380Y-36283333D02*
X18802380Y-35616666D01*
X19802380Y-36045238D01*
G04 #@! TO.C,U4*
X17752380Y-43561904D02*
X18561904Y-43561904D01*
X18657142Y-43514285D01*
X18704761Y-43466666D01*
X18752380Y-43371428D01*
X18752380Y-43180952D01*
X18704761Y-43085714D01*
X18657142Y-43038095D01*
X18561904Y-42990476D01*
X17752380Y-42990476D01*
X18085714Y-42085714D02*
X18752380Y-42085714D01*
X17704761Y-42323809D02*
X18419047Y-42561904D01*
X18419047Y-41942857D01*
G04 #@! TO.C,*
G04 #@! TO.C,BT1*
X49128571Y-39785714D02*
X49176190Y-39642857D01*
X49223809Y-39595238D01*
X49319047Y-39547619D01*
X49461904Y-39547619D01*
X49557142Y-39595238D01*
X49604761Y-39642857D01*
X49652380Y-39738095D01*
X49652380Y-40119047D01*
X48652380Y-40119047D01*
X48652380Y-39785714D01*
X48700000Y-39690476D01*
X48747619Y-39642857D01*
X48842857Y-39595238D01*
X48938095Y-39595238D01*
X49033333Y-39642857D01*
X49080952Y-39690476D01*
X49128571Y-39785714D01*
X49128571Y-40119047D01*
X48652380Y-39261904D02*
X48652380Y-38690476D01*
X49652380Y-38976190D02*
X48652380Y-38976190D01*
X49652380Y-37833333D02*
X49652380Y-38404761D01*
X49652380Y-38119047D02*
X48652380Y-38119047D01*
X48795238Y-38214285D01*
X48890476Y-38309523D01*
X48938095Y-38404761D01*
G04 #@! TO.C,C1*
X43683333Y-52307142D02*
X43635714Y-52354761D01*
X43492857Y-52402380D01*
X43397619Y-52402380D01*
X43254761Y-52354761D01*
X43159523Y-52259523D01*
X43111904Y-52164285D01*
X43064285Y-51973809D01*
X43064285Y-51830952D01*
X43111904Y-51640476D01*
X43159523Y-51545238D01*
X43254761Y-51450000D01*
X43397619Y-51402380D01*
X43492857Y-51402380D01*
X43635714Y-51450000D01*
X43683333Y-51497619D01*
X44635714Y-52402380D02*
X44064285Y-52402380D01*
X44350000Y-52402380D02*
X44350000Y-51402380D01*
X44254761Y-51545238D01*
X44159523Y-51640476D01*
X44064285Y-51688095D01*
G04 #@! TO.C,C2*
X8233333Y-12357142D02*
X8185714Y-12404761D01*
X8042857Y-12452380D01*
X7947619Y-12452380D01*
X7804761Y-12404761D01*
X7709523Y-12309523D01*
X7661904Y-12214285D01*
X7614285Y-12023809D01*
X7614285Y-11880952D01*
X7661904Y-11690476D01*
X7709523Y-11595238D01*
X7804761Y-11500000D01*
X7947619Y-11452380D01*
X8042857Y-11452380D01*
X8185714Y-11500000D01*
X8233333Y-11547619D01*
X8614285Y-11547619D02*
X8661904Y-11500000D01*
X8757142Y-11452380D01*
X8995238Y-11452380D01*
X9090476Y-11500000D01*
X9138095Y-11547619D01*
X9185714Y-11642857D01*
X9185714Y-11738095D01*
X9138095Y-11880952D01*
X8566666Y-12452380D01*
X9185714Y-12452380D01*
G04 #@! TO.C,C3*
X46457142Y-43116666D02*
X46504761Y-43164285D01*
X46552380Y-43307142D01*
X46552380Y-43402380D01*
X46504761Y-43545238D01*
X46409523Y-43640476D01*
X46314285Y-43688095D01*
X46123809Y-43735714D01*
X45980952Y-43735714D01*
X45790476Y-43688095D01*
X45695238Y-43640476D01*
X45600000Y-43545238D01*
X45552380Y-43402380D01*
X45552380Y-43307142D01*
X45600000Y-43164285D01*
X45647619Y-43116666D01*
X45552380Y-42783333D02*
X45552380Y-42164285D01*
X45933333Y-42497619D01*
X45933333Y-42354761D01*
X45980952Y-42259523D01*
X46028571Y-42211904D01*
X46123809Y-42164285D01*
X46361904Y-42164285D01*
X46457142Y-42211904D01*
X46504761Y-42259523D01*
X46552380Y-42354761D01*
X46552380Y-42640476D01*
X46504761Y-42735714D01*
X46457142Y-42783333D01*
G04 #@! TO.C,C4*
X49037142Y-34366666D02*
X49084761Y-34414285D01*
X49132380Y-34557142D01*
X49132380Y-34652380D01*
X49084761Y-34795238D01*
X48989523Y-34890476D01*
X48894285Y-34938095D01*
X48703809Y-34985714D01*
X48560952Y-34985714D01*
X48370476Y-34938095D01*
X48275238Y-34890476D01*
X48180000Y-34795238D01*
X48132380Y-34652380D01*
X48132380Y-34557142D01*
X48180000Y-34414285D01*
X48227619Y-34366666D01*
X48465714Y-33509523D02*
X49132380Y-33509523D01*
X48084761Y-33747619D02*
X48799047Y-33985714D01*
X48799047Y-33366666D01*
G04 #@! TO.C,C5*
X26957142Y-29666666D02*
X27004761Y-29714285D01*
X27052380Y-29857142D01*
X27052380Y-29952380D01*
X27004761Y-30095238D01*
X26909523Y-30190476D01*
X26814285Y-30238095D01*
X26623809Y-30285714D01*
X26480952Y-30285714D01*
X26290476Y-30238095D01*
X26195238Y-30190476D01*
X26100000Y-30095238D01*
X26052380Y-29952380D01*
X26052380Y-29857142D01*
X26100000Y-29714285D01*
X26147619Y-29666666D01*
X26052380Y-28761904D02*
X26052380Y-29238095D01*
X26528571Y-29285714D01*
X26480952Y-29238095D01*
X26433333Y-29142857D01*
X26433333Y-28904761D01*
X26480952Y-28809523D01*
X26528571Y-28761904D01*
X26623809Y-28714285D01*
X26861904Y-28714285D01*
X26957142Y-28761904D01*
X27004761Y-28809523D01*
X27052380Y-28904761D01*
X27052380Y-29142857D01*
X27004761Y-29238095D01*
X26957142Y-29285714D01*
G04 #@! TO.C,C6*
X7507142Y-34429166D02*
X7554761Y-34476785D01*
X7602380Y-34619642D01*
X7602380Y-34714880D01*
X7554761Y-34857738D01*
X7459523Y-34952976D01*
X7364285Y-35000595D01*
X7173809Y-35048214D01*
X7030952Y-35048214D01*
X6840476Y-35000595D01*
X6745238Y-34952976D01*
X6650000Y-34857738D01*
X6602380Y-34714880D01*
X6602380Y-34619642D01*
X6650000Y-34476785D01*
X6697619Y-34429166D01*
X6602380Y-33572023D02*
X6602380Y-33762500D01*
X6650000Y-33857738D01*
X6697619Y-33905357D01*
X6840476Y-34000595D01*
X7030952Y-34048214D01*
X7411904Y-34048214D01*
X7507142Y-34000595D01*
X7554761Y-33952976D01*
X7602380Y-33857738D01*
X7602380Y-33667261D01*
X7554761Y-33572023D01*
X7507142Y-33524404D01*
X7411904Y-33476785D01*
X7173809Y-33476785D01*
X7078571Y-33524404D01*
X7030952Y-33572023D01*
X6983333Y-33667261D01*
X6983333Y-33857738D01*
X7030952Y-33952976D01*
X7078571Y-34000595D01*
X7173809Y-34048214D01*
G04 #@! TO.C,C8*
X1807142Y-46766666D02*
X1854761Y-46814285D01*
X1902380Y-46957142D01*
X1902380Y-47052380D01*
X1854761Y-47195238D01*
X1759523Y-47290476D01*
X1664285Y-47338095D01*
X1473809Y-47385714D01*
X1330952Y-47385714D01*
X1140476Y-47338095D01*
X1045238Y-47290476D01*
X950000Y-47195238D01*
X902380Y-47052380D01*
X902380Y-46957142D01*
X950000Y-46814285D01*
X997619Y-46766666D01*
X1330952Y-46195238D02*
X1283333Y-46290476D01*
X1235714Y-46338095D01*
X1140476Y-46385714D01*
X1092857Y-46385714D01*
X997619Y-46338095D01*
X950000Y-46290476D01*
X902380Y-46195238D01*
X902380Y-46004761D01*
X950000Y-45909523D01*
X997619Y-45861904D01*
X1092857Y-45814285D01*
X1140476Y-45814285D01*
X1235714Y-45861904D01*
X1283333Y-45909523D01*
X1330952Y-46004761D01*
X1330952Y-46195238D01*
X1378571Y-46290476D01*
X1426190Y-46338095D01*
X1521428Y-46385714D01*
X1711904Y-46385714D01*
X1807142Y-46338095D01*
X1854761Y-46290476D01*
X1902380Y-46195238D01*
X1902380Y-46004761D01*
X1854761Y-45909523D01*
X1807142Y-45861904D01*
X1711904Y-45814285D01*
X1521428Y-45814285D01*
X1426190Y-45861904D01*
X1378571Y-45909523D01*
X1330952Y-46004761D01*
G04 #@! TO.C,C9*
X15533333Y-32457142D02*
X15485714Y-32504761D01*
X15342857Y-32552380D01*
X15247619Y-32552380D01*
X15104761Y-32504761D01*
X15009523Y-32409523D01*
X14961904Y-32314285D01*
X14914285Y-32123809D01*
X14914285Y-31980952D01*
X14961904Y-31790476D01*
X15009523Y-31695238D01*
X15104761Y-31600000D01*
X15247619Y-31552380D01*
X15342857Y-31552380D01*
X15485714Y-31600000D01*
X15533333Y-31647619D01*
X16009523Y-32552380D02*
X16200000Y-32552380D01*
X16295238Y-32504761D01*
X16342857Y-32457142D01*
X16438095Y-32314285D01*
X16485714Y-32123809D01*
X16485714Y-31742857D01*
X16438095Y-31647619D01*
X16390476Y-31600000D01*
X16295238Y-31552380D01*
X16104761Y-31552380D01*
X16009523Y-31600000D01*
X15961904Y-31647619D01*
X15914285Y-31742857D01*
X15914285Y-31980952D01*
X15961904Y-32076190D01*
X16009523Y-32123809D01*
X16104761Y-32171428D01*
X16295238Y-32171428D01*
X16390476Y-32123809D01*
X16438095Y-32076190D01*
X16485714Y-31980952D01*
G04 #@! TO.C,C10*
X8307142Y-32307142D02*
X8259523Y-32354761D01*
X8116666Y-32402380D01*
X8021428Y-32402380D01*
X7878571Y-32354761D01*
X7783333Y-32259523D01*
X7735714Y-32164285D01*
X7688095Y-31973809D01*
X7688095Y-31830952D01*
X7735714Y-31640476D01*
X7783333Y-31545238D01*
X7878571Y-31450000D01*
X8021428Y-31402380D01*
X8116666Y-31402380D01*
X8259523Y-31450000D01*
X8307142Y-31497619D01*
X9259523Y-32402380D02*
X8688095Y-32402380D01*
X8973809Y-32402380D02*
X8973809Y-31402380D01*
X8878571Y-31545238D01*
X8783333Y-31640476D01*
X8688095Y-31688095D01*
X9878571Y-31402380D02*
X9973809Y-31402380D01*
X10069047Y-31450000D01*
X10116666Y-31497619D01*
X10164285Y-31592857D01*
X10211904Y-31783333D01*
X10211904Y-32021428D01*
X10164285Y-32211904D01*
X10116666Y-32307142D01*
X10069047Y-32354761D01*
X9973809Y-32402380D01*
X9878571Y-32402380D01*
X9783333Y-32354761D01*
X9735714Y-32307142D01*
X9688095Y-32211904D01*
X9640476Y-32021428D01*
X9640476Y-31783333D01*
X9688095Y-31592857D01*
X9735714Y-31497619D01*
X9783333Y-31450000D01*
X9878571Y-31402380D01*
G04 #@! TO.C,C11*
X20457142Y-55057142D02*
X20409523Y-55104761D01*
X20266666Y-55152380D01*
X20171428Y-55152380D01*
X20028571Y-55104761D01*
X19933333Y-55009523D01*
X19885714Y-54914285D01*
X19838095Y-54723809D01*
X19838095Y-54580952D01*
X19885714Y-54390476D01*
X19933333Y-54295238D01*
X20028571Y-54200000D01*
X20171428Y-54152380D01*
X20266666Y-54152380D01*
X20409523Y-54200000D01*
X20457142Y-54247619D01*
X21409523Y-55152380D02*
X20838095Y-55152380D01*
X21123809Y-55152380D02*
X21123809Y-54152380D01*
X21028571Y-54295238D01*
X20933333Y-54390476D01*
X20838095Y-54438095D01*
X22361904Y-55152380D02*
X21790476Y-55152380D01*
X22076190Y-55152380D02*
X22076190Y-54152380D01*
X21980952Y-54295238D01*
X21885714Y-54390476D01*
X21790476Y-54438095D01*
G04 #@! TO.C,C12*
X40907142Y-51792857D02*
X40954761Y-51840476D01*
X41002380Y-51983333D01*
X41002380Y-52078571D01*
X40954761Y-52221428D01*
X40859523Y-52316666D01*
X40764285Y-52364285D01*
X40573809Y-52411904D01*
X40430952Y-52411904D01*
X40240476Y-52364285D01*
X40145238Y-52316666D01*
X40050000Y-52221428D01*
X40002380Y-52078571D01*
X40002380Y-51983333D01*
X40050000Y-51840476D01*
X40097619Y-51792857D01*
X41002380Y-50840476D02*
X41002380Y-51411904D01*
X41002380Y-51126190D02*
X40002380Y-51126190D01*
X40145238Y-51221428D01*
X40240476Y-51316666D01*
X40288095Y-51411904D01*
X40097619Y-50459523D02*
X40050000Y-50411904D01*
X40002380Y-50316666D01*
X40002380Y-50078571D01*
X40050000Y-49983333D01*
X40097619Y-49935714D01*
X40192857Y-49888095D01*
X40288095Y-49888095D01*
X40430952Y-49935714D01*
X41002380Y-50507142D01*
X41002380Y-49888095D01*
G04 #@! TO.C,C13*
X10357142Y-20892857D02*
X10404761Y-20940476D01*
X10452380Y-21083333D01*
X10452380Y-21178571D01*
X10404761Y-21321428D01*
X10309523Y-21416666D01*
X10214285Y-21464285D01*
X10023809Y-21511904D01*
X9880952Y-21511904D01*
X9690476Y-21464285D01*
X9595238Y-21416666D01*
X9500000Y-21321428D01*
X9452380Y-21178571D01*
X9452380Y-21083333D01*
X9500000Y-20940476D01*
X9547619Y-20892857D01*
X10452380Y-19940476D02*
X10452380Y-20511904D01*
X10452380Y-20226190D02*
X9452380Y-20226190D01*
X9595238Y-20321428D01*
X9690476Y-20416666D01*
X9738095Y-20511904D01*
X9452380Y-19607142D02*
X9452380Y-18988095D01*
X9833333Y-19321428D01*
X9833333Y-19178571D01*
X9880952Y-19083333D01*
X9928571Y-19035714D01*
X10023809Y-18988095D01*
X10261904Y-18988095D01*
X10357142Y-19035714D01*
X10404761Y-19083333D01*
X10452380Y-19178571D01*
X10452380Y-19464285D01*
X10404761Y-19559523D01*
X10357142Y-19607142D01*
G04 #@! TO.C,CON1*
X11385714Y-60257142D02*
X11338095Y-60304761D01*
X11195238Y-60352380D01*
X11100000Y-60352380D01*
X10957142Y-60304761D01*
X10861904Y-60209523D01*
X10814285Y-60114285D01*
X10766666Y-59923809D01*
X10766666Y-59780952D01*
X10814285Y-59590476D01*
X10861904Y-59495238D01*
X10957142Y-59400000D01*
X11100000Y-59352380D01*
X11195238Y-59352380D01*
X11338095Y-59400000D01*
X11385714Y-59447619D01*
X12004761Y-59352380D02*
X12195238Y-59352380D01*
X12290476Y-59400000D01*
X12385714Y-59495238D01*
X12433333Y-59685714D01*
X12433333Y-60019047D01*
X12385714Y-60209523D01*
X12290476Y-60304761D01*
X12195238Y-60352380D01*
X12004761Y-60352380D01*
X11909523Y-60304761D01*
X11814285Y-60209523D01*
X11766666Y-60019047D01*
X11766666Y-59685714D01*
X11814285Y-59495238D01*
X11909523Y-59400000D01*
X12004761Y-59352380D01*
X12861904Y-60352380D02*
X12861904Y-59352380D01*
X13433333Y-60352380D01*
X13433333Y-59352380D01*
X14433333Y-60352380D02*
X13861904Y-60352380D01*
X14147619Y-60352380D02*
X14147619Y-59352380D01*
X14052380Y-59495238D01*
X13957142Y-59590476D01*
X13861904Y-59638095D01*
G04 #@! TO.C,D1*
X30611904Y-53552380D02*
X30611904Y-52552380D01*
X30850000Y-52552380D01*
X30992857Y-52600000D01*
X31088095Y-52695238D01*
X31135714Y-52790476D01*
X31183333Y-52980952D01*
X31183333Y-53123809D01*
X31135714Y-53314285D01*
X31088095Y-53409523D01*
X30992857Y-53504761D01*
X30850000Y-53552380D01*
X30611904Y-53552380D01*
X32135714Y-53552380D02*
X31564285Y-53552380D01*
X31850000Y-53552380D02*
X31850000Y-52552380D01*
X31754761Y-52695238D01*
X31659523Y-52790476D01*
X31564285Y-52838095D01*
G04 #@! TO.C,D2*
X37811904Y-53502380D02*
X37811904Y-52502380D01*
X38050000Y-52502380D01*
X38192857Y-52550000D01*
X38288095Y-52645238D01*
X38335714Y-52740476D01*
X38383333Y-52930952D01*
X38383333Y-53073809D01*
X38335714Y-53264285D01*
X38288095Y-53359523D01*
X38192857Y-53454761D01*
X38050000Y-53502380D01*
X37811904Y-53502380D01*
X38764285Y-52597619D02*
X38811904Y-52550000D01*
X38907142Y-52502380D01*
X39145238Y-52502380D01*
X39240476Y-52550000D01*
X39288095Y-52597619D01*
X39335714Y-52692857D01*
X39335714Y-52788095D01*
X39288095Y-52930952D01*
X38716666Y-53502380D01*
X39335714Y-53502380D01*
G04 #@! TO.C,D3*
X39661904Y-44952380D02*
X39661904Y-43952380D01*
X39900000Y-43952380D01*
X40042857Y-44000000D01*
X40138095Y-44095238D01*
X40185714Y-44190476D01*
X40233333Y-44380952D01*
X40233333Y-44523809D01*
X40185714Y-44714285D01*
X40138095Y-44809523D01*
X40042857Y-44904761D01*
X39900000Y-44952380D01*
X39661904Y-44952380D01*
X40566666Y-43952380D02*
X41185714Y-43952380D01*
X40852380Y-44333333D01*
X40995238Y-44333333D01*
X41090476Y-44380952D01*
X41138095Y-44428571D01*
X41185714Y-44523809D01*
X41185714Y-44761904D01*
X41138095Y-44857142D01*
X41090476Y-44904761D01*
X40995238Y-44952380D01*
X40709523Y-44952380D01*
X40614285Y-44904761D01*
X40566666Y-44857142D01*
G04 #@! TO.C,J1*
X25472380Y-57933333D02*
X26186666Y-57933333D01*
X26329523Y-57980952D01*
X26424761Y-58076190D01*
X26472380Y-58219047D01*
X26472380Y-58314285D01*
X26472380Y-56933333D02*
X26472380Y-57504761D01*
X26472380Y-57219047D02*
X25472380Y-57219047D01*
X25615238Y-57314285D01*
X25710476Y-57409523D01*
X25758095Y-57504761D01*
G04 #@! TO.C,J2*
X28152380Y-13233333D02*
X28866666Y-13233333D01*
X29009523Y-13280952D01*
X29104761Y-13376190D01*
X29152380Y-13519047D01*
X29152380Y-13614285D01*
X28247619Y-12804761D02*
X28200000Y-12757142D01*
X28152380Y-12661904D01*
X28152380Y-12423809D01*
X28200000Y-12328571D01*
X28247619Y-12280952D01*
X28342857Y-12233333D01*
X28438095Y-12233333D01*
X28580952Y-12280952D01*
X29152380Y-12852380D01*
X29152380Y-12233333D01*
G04 #@! TO.C,Q1*
X31354761Y-60147619D02*
X31259523Y-60100000D01*
X31164285Y-60004761D01*
X31021428Y-59861904D01*
X30926190Y-59814285D01*
X30830952Y-59814285D01*
X30878571Y-60052380D02*
X30783333Y-60004761D01*
X30688095Y-59909523D01*
X30640476Y-59719047D01*
X30640476Y-59385714D01*
X30688095Y-59195238D01*
X30783333Y-59100000D01*
X30878571Y-59052380D01*
X31069047Y-59052380D01*
X31164285Y-59100000D01*
X31259523Y-59195238D01*
X31307142Y-59385714D01*
X31307142Y-59719047D01*
X31259523Y-59909523D01*
X31164285Y-60004761D01*
X31069047Y-60052380D01*
X30878571Y-60052380D01*
X32259523Y-60052380D02*
X31688095Y-60052380D01*
X31973809Y-60052380D02*
X31973809Y-59052380D01*
X31878571Y-59195238D01*
X31783333Y-59290476D01*
X31688095Y-59338095D01*
G04 #@! TO.C,Q2*
X39204761Y-30747619D02*
X39109523Y-30700000D01*
X39014285Y-30604761D01*
X38871428Y-30461904D01*
X38776190Y-30414285D01*
X38680952Y-30414285D01*
X38728571Y-30652380D02*
X38633333Y-30604761D01*
X38538095Y-30509523D01*
X38490476Y-30319047D01*
X38490476Y-29985714D01*
X38538095Y-29795238D01*
X38633333Y-29700000D01*
X38728571Y-29652380D01*
X38919047Y-29652380D01*
X39014285Y-29700000D01*
X39109523Y-29795238D01*
X39157142Y-29985714D01*
X39157142Y-30319047D01*
X39109523Y-30509523D01*
X39014285Y-30604761D01*
X38919047Y-30652380D01*
X38728571Y-30652380D01*
X39538095Y-29747619D02*
X39585714Y-29700000D01*
X39680952Y-29652380D01*
X39919047Y-29652380D01*
X40014285Y-29700000D01*
X40061904Y-29747619D01*
X40109523Y-29842857D01*
X40109523Y-29938095D01*
X40061904Y-30080952D01*
X39490476Y-30652380D01*
X40109523Y-30652380D01*
G04 #@! TO.C,R1*
X31283333Y-57552380D02*
X30950000Y-57076190D01*
X30711904Y-57552380D02*
X30711904Y-56552380D01*
X31092857Y-56552380D01*
X31188095Y-56600000D01*
X31235714Y-56647619D01*
X31283333Y-56742857D01*
X31283333Y-56885714D01*
X31235714Y-56980952D01*
X31188095Y-57028571D01*
X31092857Y-57076190D01*
X30711904Y-57076190D01*
X32235714Y-57552380D02*
X31664285Y-57552380D01*
X31950000Y-57552380D02*
X31950000Y-56552380D01*
X31854761Y-56695238D01*
X31759523Y-56790476D01*
X31664285Y-56838095D01*
G04 #@! TO.C,R2*
X38433333Y-57552380D02*
X38100000Y-57076190D01*
X37861904Y-57552380D02*
X37861904Y-56552380D01*
X38242857Y-56552380D01*
X38338095Y-56600000D01*
X38385714Y-56647619D01*
X38433333Y-56742857D01*
X38433333Y-56885714D01*
X38385714Y-56980952D01*
X38338095Y-57028571D01*
X38242857Y-57076190D01*
X37861904Y-57076190D01*
X38814285Y-56647619D02*
X38861904Y-56600000D01*
X38957142Y-56552380D01*
X39195238Y-56552380D01*
X39290476Y-56600000D01*
X39338095Y-56647619D01*
X39385714Y-56742857D01*
X39385714Y-56838095D01*
X39338095Y-56980952D01*
X38766666Y-57552380D01*
X39385714Y-57552380D01*
G04 #@! TO.C,R3*
X48402380Y-52616666D02*
X47926190Y-52950000D01*
X48402380Y-53188095D02*
X47402380Y-53188095D01*
X47402380Y-52807142D01*
X47450000Y-52711904D01*
X47497619Y-52664285D01*
X47592857Y-52616666D01*
X47735714Y-52616666D01*
X47830952Y-52664285D01*
X47878571Y-52711904D01*
X47926190Y-52807142D01*
X47926190Y-53188095D01*
X47402380Y-52283333D02*
X47402380Y-51664285D01*
X47783333Y-51997619D01*
X47783333Y-51854761D01*
X47830952Y-51759523D01*
X47878571Y-51711904D01*
X47973809Y-51664285D01*
X48211904Y-51664285D01*
X48307142Y-51711904D01*
X48354761Y-51759523D01*
X48402380Y-51854761D01*
X48402380Y-52140476D01*
X48354761Y-52235714D01*
X48307142Y-52283333D01*
G04 #@! TO.C,R4*
X48552380Y-46666666D02*
X48076190Y-47000000D01*
X48552380Y-47238095D02*
X47552380Y-47238095D01*
X47552380Y-46857142D01*
X47600000Y-46761904D01*
X47647619Y-46714285D01*
X47742857Y-46666666D01*
X47885714Y-46666666D01*
X47980952Y-46714285D01*
X48028571Y-46761904D01*
X48076190Y-46857142D01*
X48076190Y-47238095D01*
X47885714Y-45809523D02*
X48552380Y-45809523D01*
X47504761Y-46047619D02*
X48219047Y-46285714D01*
X48219047Y-45666666D01*
G04 #@! TO.C,R5*
X38483333Y-61552380D02*
X38150000Y-61076190D01*
X37911904Y-61552380D02*
X37911904Y-60552380D01*
X38292857Y-60552380D01*
X38388095Y-60600000D01*
X38435714Y-60647619D01*
X38483333Y-60742857D01*
X38483333Y-60885714D01*
X38435714Y-60980952D01*
X38388095Y-61028571D01*
X38292857Y-61076190D01*
X37911904Y-61076190D01*
X39388095Y-60552380D02*
X38911904Y-60552380D01*
X38864285Y-61028571D01*
X38911904Y-60980952D01*
X39007142Y-60933333D01*
X39245238Y-60933333D01*
X39340476Y-60980952D01*
X39388095Y-61028571D01*
X39435714Y-61123809D01*
X39435714Y-61361904D01*
X39388095Y-61457142D01*
X39340476Y-61504761D01*
X39245238Y-61552380D01*
X39007142Y-61552380D01*
X38911904Y-61504761D01*
X38864285Y-61457142D01*
G04 #@! TO.C,R6*
X4702380Y-21466666D02*
X4226190Y-21800000D01*
X4702380Y-22038095D02*
X3702380Y-22038095D01*
X3702380Y-21657142D01*
X3750000Y-21561904D01*
X3797619Y-21514285D01*
X3892857Y-21466666D01*
X4035714Y-21466666D01*
X4130952Y-21514285D01*
X4178571Y-21561904D01*
X4226190Y-21657142D01*
X4226190Y-22038095D01*
X3702380Y-20609523D02*
X3702380Y-20800000D01*
X3750000Y-20895238D01*
X3797619Y-20942857D01*
X3940476Y-21038095D01*
X4130952Y-21085714D01*
X4511904Y-21085714D01*
X4607142Y-21038095D01*
X4654761Y-20990476D01*
X4702380Y-20895238D01*
X4702380Y-20704761D01*
X4654761Y-20609523D01*
X4607142Y-20561904D01*
X4511904Y-20514285D01*
X4273809Y-20514285D01*
X4178571Y-20561904D01*
X4130952Y-20609523D01*
X4083333Y-20704761D01*
X4083333Y-20895238D01*
X4130952Y-20990476D01*
X4178571Y-21038095D01*
X4273809Y-21085714D01*
G04 #@! TO.C,R7*
X2952380Y-25466666D02*
X2476190Y-25800000D01*
X2952380Y-26038095D02*
X1952380Y-26038095D01*
X1952380Y-25657142D01*
X2000000Y-25561904D01*
X2047619Y-25514285D01*
X2142857Y-25466666D01*
X2285714Y-25466666D01*
X2380952Y-25514285D01*
X2428571Y-25561904D01*
X2476190Y-25657142D01*
X2476190Y-26038095D01*
X1952380Y-25133333D02*
X1952380Y-24466666D01*
X2952380Y-24895238D01*
G04 #@! TO.C,R8*
X8502380Y-25529166D02*
X8026190Y-25862500D01*
X8502380Y-26100595D02*
X7502380Y-26100595D01*
X7502380Y-25719642D01*
X7550000Y-25624404D01*
X7597619Y-25576785D01*
X7692857Y-25529166D01*
X7835714Y-25529166D01*
X7930952Y-25576785D01*
X7978571Y-25624404D01*
X8026190Y-25719642D01*
X8026190Y-26100595D01*
X7930952Y-24957738D02*
X7883333Y-25052976D01*
X7835714Y-25100595D01*
X7740476Y-25148214D01*
X7692857Y-25148214D01*
X7597619Y-25100595D01*
X7550000Y-25052976D01*
X7502380Y-24957738D01*
X7502380Y-24767261D01*
X7550000Y-24672023D01*
X7597619Y-24624404D01*
X7692857Y-24576785D01*
X7740476Y-24576785D01*
X7835714Y-24624404D01*
X7883333Y-24672023D01*
X7930952Y-24767261D01*
X7930952Y-24957738D01*
X7978571Y-25052976D01*
X8026190Y-25100595D01*
X8121428Y-25148214D01*
X8311904Y-25148214D01*
X8407142Y-25100595D01*
X8454761Y-25052976D01*
X8502380Y-24957738D01*
X8502380Y-24767261D01*
X8454761Y-24672023D01*
X8407142Y-24624404D01*
X8311904Y-24576785D01*
X8121428Y-24576785D01*
X8026190Y-24624404D01*
X7978571Y-24672023D01*
X7930952Y-24767261D01*
G04 #@! TO.C,R9*
X6552380Y-21466666D02*
X6076190Y-21800000D01*
X6552380Y-22038095D02*
X5552380Y-22038095D01*
X5552380Y-21657142D01*
X5600000Y-21561904D01*
X5647619Y-21514285D01*
X5742857Y-21466666D01*
X5885714Y-21466666D01*
X5980952Y-21514285D01*
X6028571Y-21561904D01*
X6076190Y-21657142D01*
X6076190Y-22038095D01*
X6552380Y-20990476D02*
X6552380Y-20800000D01*
X6504761Y-20704761D01*
X6457142Y-20657142D01*
X6314285Y-20561904D01*
X6123809Y-20514285D01*
X5742857Y-20514285D01*
X5647619Y-20561904D01*
X5600000Y-20609523D01*
X5552380Y-20704761D01*
X5552380Y-20895238D01*
X5600000Y-20990476D01*
X5647619Y-21038095D01*
X5742857Y-21085714D01*
X5980952Y-21085714D01*
X6076190Y-21038095D01*
X6123809Y-20990476D01*
X6171428Y-20895238D01*
X6171428Y-20704761D01*
X6123809Y-20609523D01*
X6076190Y-20561904D01*
X5980952Y-20514285D01*
G04 #@! TO.C,R10*
X18957142Y-46852380D02*
X18623809Y-46376190D01*
X18385714Y-46852380D02*
X18385714Y-45852380D01*
X18766666Y-45852380D01*
X18861904Y-45900000D01*
X18909523Y-45947619D01*
X18957142Y-46042857D01*
X18957142Y-46185714D01*
X18909523Y-46280952D01*
X18861904Y-46328571D01*
X18766666Y-46376190D01*
X18385714Y-46376190D01*
X19909523Y-46852380D02*
X19338095Y-46852380D01*
X19623809Y-46852380D02*
X19623809Y-45852380D01*
X19528571Y-45995238D01*
X19433333Y-46090476D01*
X19338095Y-46138095D01*
X20528571Y-45852380D02*
X20623809Y-45852380D01*
X20719047Y-45900000D01*
X20766666Y-45947619D01*
X20814285Y-46042857D01*
X20861904Y-46233333D01*
X20861904Y-46471428D01*
X20814285Y-46661904D01*
X20766666Y-46757142D01*
X20719047Y-46804761D01*
X20623809Y-46852380D01*
X20528571Y-46852380D01*
X20433333Y-46804761D01*
X20385714Y-46757142D01*
X20338095Y-46661904D01*
X20290476Y-46471428D01*
X20290476Y-46233333D01*
X20338095Y-46042857D01*
X20385714Y-45947619D01*
X20433333Y-45900000D01*
X20528571Y-45852380D01*
G04 #@! TO.C,R11*
X18919642Y-52702380D02*
X18586309Y-52226190D01*
X18348214Y-52702380D02*
X18348214Y-51702380D01*
X18729166Y-51702380D01*
X18824404Y-51750000D01*
X18872023Y-51797619D01*
X18919642Y-51892857D01*
X18919642Y-52035714D01*
X18872023Y-52130952D01*
X18824404Y-52178571D01*
X18729166Y-52226190D01*
X18348214Y-52226190D01*
X19872023Y-52702380D02*
X19300595Y-52702380D01*
X19586309Y-52702380D02*
X19586309Y-51702380D01*
X19491071Y-51845238D01*
X19395833Y-51940476D01*
X19300595Y-51988095D01*
X20824404Y-52702380D02*
X20252976Y-52702380D01*
X20538690Y-52702380D02*
X20538690Y-51702380D01*
X20443452Y-51845238D01*
X20348214Y-51940476D01*
X20252976Y-51988095D01*
G04 #@! TO.C,R12*
X39757142Y-35702380D02*
X39423809Y-35226190D01*
X39185714Y-35702380D02*
X39185714Y-34702380D01*
X39566666Y-34702380D01*
X39661904Y-34750000D01*
X39709523Y-34797619D01*
X39757142Y-34892857D01*
X39757142Y-35035714D01*
X39709523Y-35130952D01*
X39661904Y-35178571D01*
X39566666Y-35226190D01*
X39185714Y-35226190D01*
X40709523Y-35702380D02*
X40138095Y-35702380D01*
X40423809Y-35702380D02*
X40423809Y-34702380D01*
X40328571Y-34845238D01*
X40233333Y-34940476D01*
X40138095Y-34988095D01*
X41090476Y-34797619D02*
X41138095Y-34750000D01*
X41233333Y-34702380D01*
X41471428Y-34702380D01*
X41566666Y-34750000D01*
X41614285Y-34797619D01*
X41661904Y-34892857D01*
X41661904Y-34988095D01*
X41614285Y-35130952D01*
X41042857Y-35702380D01*
X41661904Y-35702380D01*
G04 #@! TO.C,R14*
X13907142Y-52052380D02*
X13573809Y-51576190D01*
X13335714Y-52052380D02*
X13335714Y-51052380D01*
X13716666Y-51052380D01*
X13811904Y-51100000D01*
X13859523Y-51147619D01*
X13907142Y-51242857D01*
X13907142Y-51385714D01*
X13859523Y-51480952D01*
X13811904Y-51528571D01*
X13716666Y-51576190D01*
X13335714Y-51576190D01*
X14859523Y-52052380D02*
X14288095Y-52052380D01*
X14573809Y-52052380D02*
X14573809Y-51052380D01*
X14478571Y-51195238D01*
X14383333Y-51290476D01*
X14288095Y-51338095D01*
X15716666Y-51385714D02*
X15716666Y-52052380D01*
X15478571Y-51004761D02*
X15240476Y-51719047D01*
X15859523Y-51719047D01*
G04 #@! TO.C,R15*
X10307142Y-51952380D02*
X9973809Y-51476190D01*
X9735714Y-51952380D02*
X9735714Y-50952380D01*
X10116666Y-50952380D01*
X10211904Y-51000000D01*
X10259523Y-51047619D01*
X10307142Y-51142857D01*
X10307142Y-51285714D01*
X10259523Y-51380952D01*
X10211904Y-51428571D01*
X10116666Y-51476190D01*
X9735714Y-51476190D01*
X11259523Y-51952380D02*
X10688095Y-51952380D01*
X10973809Y-51952380D02*
X10973809Y-50952380D01*
X10878571Y-51095238D01*
X10783333Y-51190476D01*
X10688095Y-51238095D01*
X12164285Y-50952380D02*
X11688095Y-50952380D01*
X11640476Y-51428571D01*
X11688095Y-51380952D01*
X11783333Y-51333333D01*
X12021428Y-51333333D01*
X12116666Y-51380952D01*
X12164285Y-51428571D01*
X12211904Y-51523809D01*
X12211904Y-51761904D01*
X12164285Y-51857142D01*
X12116666Y-51904761D01*
X12021428Y-51952380D01*
X11783333Y-51952380D01*
X11688095Y-51904761D01*
X11640476Y-51857142D01*
G04 #@! TO.C,R16*
X34002380Y-33405357D02*
X33526190Y-33738690D01*
X34002380Y-33976785D02*
X33002380Y-33976785D01*
X33002380Y-33595833D01*
X33050000Y-33500595D01*
X33097619Y-33452976D01*
X33192857Y-33405357D01*
X33335714Y-33405357D01*
X33430952Y-33452976D01*
X33478571Y-33500595D01*
X33526190Y-33595833D01*
X33526190Y-33976785D01*
X34002380Y-32452976D02*
X34002380Y-33024404D01*
X34002380Y-32738690D02*
X33002380Y-32738690D01*
X33145238Y-32833928D01*
X33240476Y-32929166D01*
X33288095Y-33024404D01*
X33002380Y-31595833D02*
X33002380Y-31786309D01*
X33050000Y-31881547D01*
X33097619Y-31929166D01*
X33240476Y-32024404D01*
X33430952Y-32072023D01*
X33811904Y-32072023D01*
X33907142Y-32024404D01*
X33954761Y-31976785D01*
X34002380Y-31881547D01*
X34002380Y-31691071D01*
X33954761Y-31595833D01*
X33907142Y-31548214D01*
X33811904Y-31500595D01*
X33573809Y-31500595D01*
X33478571Y-31548214D01*
X33430952Y-31595833D01*
X33383333Y-31691071D01*
X33383333Y-31881547D01*
X33430952Y-31976785D01*
X33478571Y-32024404D01*
X33573809Y-32072023D01*
G04 #@! TO.C,R17*
X22052380Y-33542857D02*
X21576190Y-33876190D01*
X22052380Y-34114285D02*
X21052380Y-34114285D01*
X21052380Y-33733333D01*
X21100000Y-33638095D01*
X21147619Y-33590476D01*
X21242857Y-33542857D01*
X21385714Y-33542857D01*
X21480952Y-33590476D01*
X21528571Y-33638095D01*
X21576190Y-33733333D01*
X21576190Y-34114285D01*
X22052380Y-32590476D02*
X22052380Y-33161904D01*
X22052380Y-32876190D02*
X21052380Y-32876190D01*
X21195238Y-32971428D01*
X21290476Y-33066666D01*
X21338095Y-33161904D01*
X21052380Y-32257142D02*
X21052380Y-31590476D01*
X22052380Y-32019047D01*
G04 #@! TO.C,R18*
X19252380Y-33542857D02*
X18776190Y-33876190D01*
X19252380Y-34114285D02*
X18252380Y-34114285D01*
X18252380Y-33733333D01*
X18300000Y-33638095D01*
X18347619Y-33590476D01*
X18442857Y-33542857D01*
X18585714Y-33542857D01*
X18680952Y-33590476D01*
X18728571Y-33638095D01*
X18776190Y-33733333D01*
X18776190Y-34114285D01*
X19252380Y-32590476D02*
X19252380Y-33161904D01*
X19252380Y-32876190D02*
X18252380Y-32876190D01*
X18395238Y-32971428D01*
X18490476Y-33066666D01*
X18538095Y-33161904D01*
X18680952Y-32019047D02*
X18633333Y-32114285D01*
X18585714Y-32161904D01*
X18490476Y-32209523D01*
X18442857Y-32209523D01*
X18347619Y-32161904D01*
X18300000Y-32114285D01*
X18252380Y-32019047D01*
X18252380Y-31828571D01*
X18300000Y-31733333D01*
X18347619Y-31685714D01*
X18442857Y-31638095D01*
X18490476Y-31638095D01*
X18585714Y-31685714D01*
X18633333Y-31733333D01*
X18680952Y-31828571D01*
X18680952Y-32019047D01*
X18728571Y-32114285D01*
X18776190Y-32161904D01*
X18871428Y-32209523D01*
X19061904Y-32209523D01*
X19157142Y-32161904D01*
X19204761Y-32114285D01*
X19252380Y-32019047D01*
X19252380Y-31828571D01*
X19204761Y-31733333D01*
X19157142Y-31685714D01*
X19061904Y-31638095D01*
X18871428Y-31638095D01*
X18776190Y-31685714D01*
X18728571Y-31733333D01*
X18680952Y-31828571D01*
G04 #@! TO.C,SW1*
X44116666Y-25754761D02*
X44259523Y-25802380D01*
X44497619Y-25802380D01*
X44592857Y-25754761D01*
X44640476Y-25707142D01*
X44688095Y-25611904D01*
X44688095Y-25516666D01*
X44640476Y-25421428D01*
X44592857Y-25373809D01*
X44497619Y-25326190D01*
X44307142Y-25278571D01*
X44211904Y-25230952D01*
X44164285Y-25183333D01*
X44116666Y-25088095D01*
X44116666Y-24992857D01*
X44164285Y-24897619D01*
X44211904Y-24850000D01*
X44307142Y-24802380D01*
X44545238Y-24802380D01*
X44688095Y-24850000D01*
X45021428Y-24802380D02*
X45259523Y-25802380D01*
X45450000Y-25088095D01*
X45640476Y-25802380D01*
X45878571Y-24802380D01*
X46783333Y-25802380D02*
X46211904Y-25802380D01*
X46497619Y-25802380D02*
X46497619Y-24802380D01*
X46402380Y-24945238D01*
X46307142Y-25040476D01*
X46211904Y-25088095D01*
G04 #@! TO.C,U1*
X45752380Y-47761904D02*
X46561904Y-47761904D01*
X46657142Y-47714285D01*
X46704761Y-47666666D01*
X46752380Y-47571428D01*
X46752380Y-47380952D01*
X46704761Y-47285714D01*
X46657142Y-47238095D01*
X46561904Y-47190476D01*
X45752380Y-47190476D01*
X46752380Y-46190476D02*
X46752380Y-46761904D01*
X46752380Y-46476190D02*
X45752380Y-46476190D01*
X45895238Y-46571428D01*
X45990476Y-46666666D01*
X46038095Y-46761904D01*
G04 #@! TO.C,U2*
X43488095Y-31352380D02*
X43488095Y-32161904D01*
X43535714Y-32257142D01*
X43583333Y-32304761D01*
X43678571Y-32352380D01*
X43869047Y-32352380D01*
X43964285Y-32304761D01*
X44011904Y-32257142D01*
X44059523Y-32161904D01*
X44059523Y-31352380D01*
X44488095Y-31447619D02*
X44535714Y-31400000D01*
X44630952Y-31352380D01*
X44869047Y-31352380D01*
X44964285Y-31400000D01*
X45011904Y-31447619D01*
X45059523Y-31542857D01*
X45059523Y-31638095D01*
X45011904Y-31780952D01*
X44440476Y-32352380D01*
X45059523Y-32352380D01*
G04 #@! TO.C,U3*
X2752380Y-16861904D02*
X3561904Y-16861904D01*
X3657142Y-16814285D01*
X3704761Y-16766666D01*
X3752380Y-16671428D01*
X3752380Y-16480952D01*
X3704761Y-16385714D01*
X3657142Y-16338095D01*
X3561904Y-16290476D01*
X2752380Y-16290476D01*
X2752380Y-15909523D02*
X2752380Y-15290476D01*
X3133333Y-15623809D01*
X3133333Y-15480952D01*
X3180952Y-15385714D01*
X3228571Y-15338095D01*
X3323809Y-15290476D01*
X3561904Y-15290476D01*
X3657142Y-15338095D01*
X3704761Y-15385714D01*
X3752380Y-15480952D01*
X3752380Y-15766666D01*
X3704761Y-15861904D01*
X3657142Y-15909523D01*
G04 #@! TO.C,U5*
X28488095Y-34152380D02*
X28488095Y-34961904D01*
X28535714Y-35057142D01*
X28583333Y-35104761D01*
X28678571Y-35152380D01*
X28869047Y-35152380D01*
X28964285Y-35104761D01*
X29011904Y-35057142D01*
X29059523Y-34961904D01*
X29059523Y-34152380D01*
X30011904Y-34152380D02*
X29535714Y-34152380D01*
X29488095Y-34628571D01*
X29535714Y-34580952D01*
X29630952Y-34533333D01*
X29869047Y-34533333D01*
X29964285Y-34580952D01*
X30011904Y-34628571D01*
X30059523Y-34723809D01*
X30059523Y-34961904D01*
X30011904Y-35057142D01*
X29964285Y-35104761D01*
X29869047Y-35152380D01*
X29630952Y-35152380D01*
X29535714Y-35104761D01*
X29488095Y-35057142D01*
G04 #@! TO.C,U6*
X15938095Y-62552380D02*
X15938095Y-63361904D01*
X15985714Y-63457142D01*
X16033333Y-63504761D01*
X16128571Y-63552380D01*
X16319047Y-63552380D01*
X16414285Y-63504761D01*
X16461904Y-63457142D01*
X16509523Y-63361904D01*
X16509523Y-62552380D01*
X17414285Y-62552380D02*
X17223809Y-62552380D01*
X17128571Y-62600000D01*
X17080952Y-62647619D01*
X16985714Y-62790476D01*
X16938095Y-62980952D01*
X16938095Y-63361904D01*
X16985714Y-63457142D01*
X17033333Y-63504761D01*
X17128571Y-63552380D01*
X17319047Y-63552380D01*
X17414285Y-63504761D01*
X17461904Y-63457142D01*
X17509523Y-63361904D01*
X17509523Y-63123809D01*
X17461904Y-63028571D01*
X17414285Y-62980952D01*
X17319047Y-62933333D01*
X17128571Y-62933333D01*
X17033333Y-62980952D01*
X16985714Y-63028571D01*
X16938095Y-63123809D01*
G04 #@! TO.C,U7*
X18302380Y-25461904D02*
X19111904Y-25461904D01*
X19207142Y-25414285D01*
X19254761Y-25366666D01*
X19302380Y-25271428D01*
X19302380Y-25080952D01*
X19254761Y-24985714D01*
X19207142Y-24938095D01*
X19111904Y-24890476D01*
X18302380Y-24890476D01*
X18302380Y-24509523D02*
X18302380Y-23842857D01*
X19302380Y-24271428D01*
G04 #@! TO.C,Y1*
X8476190Y-29876190D02*
X8952380Y-29876190D01*
X7952380Y-30209523D02*
X8476190Y-29876190D01*
X7952380Y-29542857D01*
X8952380Y-28685714D02*
X8952380Y-29257142D01*
X8952380Y-28971428D02*
X7952380Y-28971428D01*
X8095238Y-29066666D01*
X8190476Y-29161904D01*
X8238095Y-29257142D01*
G04 #@! TO.C,*
G04 #@! TD*
%LPC*%
D12*
G04 #@! TO.C,C7*
G36*
X18157592Y-36551294D02*
X18183681Y-36555164D01*
X18209264Y-36561572D01*
X18234096Y-36570457D01*
X18257938Y-36581734D01*
X18280560Y-36595293D01*
X18301743Y-36611003D01*
X18321285Y-36628715D01*
X18338997Y-36648257D01*
X18354707Y-36669440D01*
X18368266Y-36692062D01*
X18379543Y-36715904D01*
X18388428Y-36740736D01*
X18394836Y-36766319D01*
X18398706Y-36792408D01*
X18400000Y-36818750D01*
X18400000Y-37356250D01*
X18398706Y-37382592D01*
X18394836Y-37408681D01*
X18388428Y-37434264D01*
X18379543Y-37459096D01*
X18368266Y-37482938D01*
X18354707Y-37505560D01*
X18338997Y-37526743D01*
X18321285Y-37546285D01*
X18301743Y-37563997D01*
X18280560Y-37579707D01*
X18257938Y-37593266D01*
X18234096Y-37604543D01*
X18209264Y-37613428D01*
X18183681Y-37619836D01*
X18157592Y-37623706D01*
X18131250Y-37625000D01*
X17168750Y-37625000D01*
X17142408Y-37623706D01*
X17116319Y-37619836D01*
X17090736Y-37613428D01*
X17065904Y-37604543D01*
X17042062Y-37593266D01*
X17019440Y-37579707D01*
X16998257Y-37563997D01*
X16978715Y-37546285D01*
X16961003Y-37526743D01*
X16945293Y-37505560D01*
X16931734Y-37482938D01*
X16920457Y-37459096D01*
X16911572Y-37434264D01*
X16905164Y-37408681D01*
X16901294Y-37382592D01*
X16900000Y-37356250D01*
X16900000Y-36818750D01*
X16901294Y-36792408D01*
X16905164Y-36766319D01*
X16911572Y-36740736D01*
X16920457Y-36715904D01*
X16931734Y-36692062D01*
X16945293Y-36669440D01*
X16961003Y-36648257D01*
X16978715Y-36628715D01*
X16998257Y-36611003D01*
X17019440Y-36595293D01*
X17042062Y-36581734D01*
X17065904Y-36570457D01*
X17090736Y-36561572D01*
X17116319Y-36555164D01*
X17142408Y-36551294D01*
X17168750Y-36550000D01*
X18131250Y-36550000D01*
X18157592Y-36551294D01*
X18157592Y-36551294D01*
G37*
D13*
X17650000Y-37087500D03*
D12*
G36*
X18157592Y-34676294D02*
X18183681Y-34680164D01*
X18209264Y-34686572D01*
X18234096Y-34695457D01*
X18257938Y-34706734D01*
X18280560Y-34720293D01*
X18301743Y-34736003D01*
X18321285Y-34753715D01*
X18338997Y-34773257D01*
X18354707Y-34794440D01*
X18368266Y-34817062D01*
X18379543Y-34840904D01*
X18388428Y-34865736D01*
X18394836Y-34891319D01*
X18398706Y-34917408D01*
X18400000Y-34943750D01*
X18400000Y-35481250D01*
X18398706Y-35507592D01*
X18394836Y-35533681D01*
X18388428Y-35559264D01*
X18379543Y-35584096D01*
X18368266Y-35607938D01*
X18354707Y-35630560D01*
X18338997Y-35651743D01*
X18321285Y-35671285D01*
X18301743Y-35688997D01*
X18280560Y-35704707D01*
X18257938Y-35718266D01*
X18234096Y-35729543D01*
X18209264Y-35738428D01*
X18183681Y-35744836D01*
X18157592Y-35748706D01*
X18131250Y-35750000D01*
X17168750Y-35750000D01*
X17142408Y-35748706D01*
X17116319Y-35744836D01*
X17090736Y-35738428D01*
X17065904Y-35729543D01*
X17042062Y-35718266D01*
X17019440Y-35704707D01*
X16998257Y-35688997D01*
X16978715Y-35671285D01*
X16961003Y-35651743D01*
X16945293Y-35630560D01*
X16931734Y-35607938D01*
X16920457Y-35584096D01*
X16911572Y-35559264D01*
X16905164Y-35533681D01*
X16901294Y-35507592D01*
X16900000Y-35481250D01*
X16900000Y-34943750D01*
X16901294Y-34917408D01*
X16905164Y-34891319D01*
X16911572Y-34865736D01*
X16920457Y-34840904D01*
X16931734Y-34817062D01*
X16945293Y-34794440D01*
X16961003Y-34773257D01*
X16978715Y-34753715D01*
X16998257Y-34736003D01*
X17019440Y-34720293D01*
X17042062Y-34706734D01*
X17065904Y-34695457D01*
X17090736Y-34686572D01*
X17116319Y-34680164D01*
X17142408Y-34676294D01*
X17168750Y-34675000D01*
X18131250Y-34675000D01*
X18157592Y-34676294D01*
X18157592Y-34676294D01*
G37*
D13*
X17650000Y-35212500D03*
G04 #@! TD*
D14*
G04 #@! TO.C,U4*
X14850000Y-37100000D03*
X14350000Y-37100000D03*
X13850000Y-37100000D03*
X13350000Y-37100000D03*
X12850000Y-37100000D03*
X12350000Y-37100000D03*
X11850000Y-37100000D03*
X11350000Y-37100000D03*
X10850000Y-37100000D03*
X10350000Y-37100000D03*
X9850000Y-37100000D03*
X9350000Y-37100000D03*
X8850000Y-37100000D03*
X8350000Y-37100000D03*
X7850000Y-37100000D03*
X7350000Y-37100000D03*
D15*
X5400000Y-39050000D03*
X5400000Y-39550000D03*
X5400000Y-40050000D03*
X5400000Y-40550000D03*
X5400000Y-41050000D03*
X5400000Y-41550000D03*
X5400000Y-42050000D03*
X5400000Y-42550000D03*
X5400000Y-43050000D03*
X5400000Y-43550000D03*
X5400000Y-44050000D03*
X5400000Y-44550000D03*
X5400000Y-45050000D03*
X5400000Y-45550000D03*
X5400000Y-46050000D03*
X5400000Y-46550000D03*
D14*
X7350000Y-48500000D03*
X7850000Y-48500000D03*
X8350000Y-48500000D03*
X8850000Y-48500000D03*
X9350000Y-48500000D03*
X9850000Y-48500000D03*
X10350000Y-48500000D03*
X10850000Y-48500000D03*
X11350000Y-48500000D03*
X11850000Y-48500000D03*
X12350000Y-48500000D03*
X12850000Y-48500000D03*
X13350000Y-48500000D03*
X13850000Y-48500000D03*
X14350000Y-48500000D03*
X14850000Y-48500000D03*
D15*
X16800000Y-46550000D03*
X16800000Y-46050000D03*
X16800000Y-45550000D03*
X16800000Y-45050000D03*
X16800000Y-44550000D03*
X16800000Y-44050000D03*
X16800000Y-43550000D03*
X16800000Y-43050000D03*
X16800000Y-42550000D03*
X16800000Y-42050000D03*
X16800000Y-41550000D03*
X16800000Y-41050000D03*
X16800000Y-40550000D03*
X16800000Y-40050000D03*
X16800000Y-39550000D03*
X16800000Y-39050000D03*
G04 #@! TD*
D16*
G04 #@! TO.C,*
X45000000Y-57000000D03*
G04 #@! TD*
G04 #@! TO.C,*
X45000000Y-7000000D03*
G04 #@! TD*
G04 #@! TO.C,*
X5000000Y-7000000D03*
G04 #@! TD*
D17*
G04 #@! TO.C,BT1*
X44400000Y-38400000D03*
D18*
X46400000Y-38400000D03*
G04 #@! TD*
D12*
G04 #@! TO.C,C1*
G36*
X45153029Y-49726318D02*
X45179608Y-49730261D01*
X45205674Y-49736790D01*
X45230973Y-49745842D01*
X45255264Y-49757331D01*
X45278311Y-49771145D01*
X45299894Y-49787152D01*
X45319803Y-49805197D01*
X45337848Y-49825106D01*
X45353855Y-49846689D01*
X45367669Y-49869736D01*
X45379158Y-49894027D01*
X45388210Y-49919326D01*
X45394739Y-49945392D01*
X45398682Y-49971971D01*
X45400000Y-49998809D01*
X45400000Y-50601191D01*
X45398682Y-50628029D01*
X45394739Y-50654608D01*
X45388210Y-50680674D01*
X45379158Y-50705973D01*
X45367669Y-50730264D01*
X45353855Y-50753311D01*
X45337848Y-50774894D01*
X45319803Y-50794803D01*
X45299894Y-50812848D01*
X45278311Y-50828855D01*
X45255264Y-50842669D01*
X45230973Y-50854158D01*
X45205674Y-50863210D01*
X45179608Y-50869739D01*
X45153029Y-50873682D01*
X45126191Y-50875000D01*
X44448809Y-50875000D01*
X44421971Y-50873682D01*
X44395392Y-50869739D01*
X44369326Y-50863210D01*
X44344027Y-50854158D01*
X44319736Y-50842669D01*
X44296689Y-50828855D01*
X44275106Y-50812848D01*
X44255197Y-50794803D01*
X44237152Y-50774894D01*
X44221145Y-50753311D01*
X44207331Y-50730264D01*
X44195842Y-50705973D01*
X44186790Y-50680674D01*
X44180261Y-50654608D01*
X44176318Y-50628029D01*
X44175000Y-50601191D01*
X44175000Y-49998809D01*
X44176318Y-49971971D01*
X44180261Y-49945392D01*
X44186790Y-49919326D01*
X44195842Y-49894027D01*
X44207331Y-49869736D01*
X44221145Y-49846689D01*
X44237152Y-49825106D01*
X44255197Y-49805197D01*
X44275106Y-49787152D01*
X44296689Y-49771145D01*
X44319736Y-49757331D01*
X44344027Y-49745842D01*
X44369326Y-49736790D01*
X44395392Y-49730261D01*
X44421971Y-49726318D01*
X44448809Y-49725000D01*
X45126191Y-49725000D01*
X45153029Y-49726318D01*
X45153029Y-49726318D01*
G37*
D19*
X44787500Y-50300000D03*
D12*
G36*
X43378029Y-49726318D02*
X43404608Y-49730261D01*
X43430674Y-49736790D01*
X43455973Y-49745842D01*
X43480264Y-49757331D01*
X43503311Y-49771145D01*
X43524894Y-49787152D01*
X43544803Y-49805197D01*
X43562848Y-49825106D01*
X43578855Y-49846689D01*
X43592669Y-49869736D01*
X43604158Y-49894027D01*
X43613210Y-49919326D01*
X43619739Y-49945392D01*
X43623682Y-49971971D01*
X43625000Y-49998809D01*
X43625000Y-50601191D01*
X43623682Y-50628029D01*
X43619739Y-50654608D01*
X43613210Y-50680674D01*
X43604158Y-50705973D01*
X43592669Y-50730264D01*
X43578855Y-50753311D01*
X43562848Y-50774894D01*
X43544803Y-50794803D01*
X43524894Y-50812848D01*
X43503311Y-50828855D01*
X43480264Y-50842669D01*
X43455973Y-50854158D01*
X43430674Y-50863210D01*
X43404608Y-50869739D01*
X43378029Y-50873682D01*
X43351191Y-50875000D01*
X42673809Y-50875000D01*
X42646971Y-50873682D01*
X42620392Y-50869739D01*
X42594326Y-50863210D01*
X42569027Y-50854158D01*
X42544736Y-50842669D01*
X42521689Y-50828855D01*
X42500106Y-50812848D01*
X42480197Y-50794803D01*
X42462152Y-50774894D01*
X42446145Y-50753311D01*
X42432331Y-50730264D01*
X42420842Y-50705973D01*
X42411790Y-50680674D01*
X42405261Y-50654608D01*
X42401318Y-50628029D01*
X42400000Y-50601191D01*
X42400000Y-49998809D01*
X42401318Y-49971971D01*
X42405261Y-49945392D01*
X42411790Y-49919326D01*
X42420842Y-49894027D01*
X42432331Y-49869736D01*
X42446145Y-49846689D01*
X42462152Y-49825106D01*
X42480197Y-49805197D01*
X42500106Y-49787152D01*
X42521689Y-49771145D01*
X42544736Y-49757331D01*
X42569027Y-49745842D01*
X42594326Y-49736790D01*
X42620392Y-49730261D01*
X42646971Y-49726318D01*
X42673809Y-49725000D01*
X43351191Y-49725000D01*
X43378029Y-49726318D01*
X43378029Y-49726318D01*
G37*
D19*
X43012500Y-50300000D03*
G04 #@! TD*
D12*
G04 #@! TO.C,C2*
G36*
X8907592Y-13026294D02*
X8933681Y-13030164D01*
X8959264Y-13036572D01*
X8984096Y-13045457D01*
X9007938Y-13056734D01*
X9030560Y-13070293D01*
X9051743Y-13086003D01*
X9071285Y-13103715D01*
X9088997Y-13123257D01*
X9104707Y-13144440D01*
X9118266Y-13167062D01*
X9129543Y-13190904D01*
X9138428Y-13215736D01*
X9144836Y-13241319D01*
X9148706Y-13267408D01*
X9150000Y-13293750D01*
X9150000Y-13831250D01*
X9148706Y-13857592D01*
X9144836Y-13883681D01*
X9138428Y-13909264D01*
X9129543Y-13934096D01*
X9118266Y-13957938D01*
X9104707Y-13980560D01*
X9088997Y-14001743D01*
X9071285Y-14021285D01*
X9051743Y-14038997D01*
X9030560Y-14054707D01*
X9007938Y-14068266D01*
X8984096Y-14079543D01*
X8959264Y-14088428D01*
X8933681Y-14094836D01*
X8907592Y-14098706D01*
X8881250Y-14100000D01*
X7918750Y-14100000D01*
X7892408Y-14098706D01*
X7866319Y-14094836D01*
X7840736Y-14088428D01*
X7815904Y-14079543D01*
X7792062Y-14068266D01*
X7769440Y-14054707D01*
X7748257Y-14038997D01*
X7728715Y-14021285D01*
X7711003Y-14001743D01*
X7695293Y-13980560D01*
X7681734Y-13957938D01*
X7670457Y-13934096D01*
X7661572Y-13909264D01*
X7655164Y-13883681D01*
X7651294Y-13857592D01*
X7650000Y-13831250D01*
X7650000Y-13293750D01*
X7651294Y-13267408D01*
X7655164Y-13241319D01*
X7661572Y-13215736D01*
X7670457Y-13190904D01*
X7681734Y-13167062D01*
X7695293Y-13144440D01*
X7711003Y-13123257D01*
X7728715Y-13103715D01*
X7748257Y-13086003D01*
X7769440Y-13070293D01*
X7792062Y-13056734D01*
X7815904Y-13045457D01*
X7840736Y-13036572D01*
X7866319Y-13030164D01*
X7892408Y-13026294D01*
X7918750Y-13025000D01*
X8881250Y-13025000D01*
X8907592Y-13026294D01*
X8907592Y-13026294D01*
G37*
D13*
X8400000Y-13562500D03*
D12*
G36*
X8907592Y-14901294D02*
X8933681Y-14905164D01*
X8959264Y-14911572D01*
X8984096Y-14920457D01*
X9007938Y-14931734D01*
X9030560Y-14945293D01*
X9051743Y-14961003D01*
X9071285Y-14978715D01*
X9088997Y-14998257D01*
X9104707Y-15019440D01*
X9118266Y-15042062D01*
X9129543Y-15065904D01*
X9138428Y-15090736D01*
X9144836Y-15116319D01*
X9148706Y-15142408D01*
X9150000Y-15168750D01*
X9150000Y-15706250D01*
X9148706Y-15732592D01*
X9144836Y-15758681D01*
X9138428Y-15784264D01*
X9129543Y-15809096D01*
X9118266Y-15832938D01*
X9104707Y-15855560D01*
X9088997Y-15876743D01*
X9071285Y-15896285D01*
X9051743Y-15913997D01*
X9030560Y-15929707D01*
X9007938Y-15943266D01*
X8984096Y-15954543D01*
X8959264Y-15963428D01*
X8933681Y-15969836D01*
X8907592Y-15973706D01*
X8881250Y-15975000D01*
X7918750Y-15975000D01*
X7892408Y-15973706D01*
X7866319Y-15969836D01*
X7840736Y-15963428D01*
X7815904Y-15954543D01*
X7792062Y-15943266D01*
X7769440Y-15929707D01*
X7748257Y-15913997D01*
X7728715Y-15896285D01*
X7711003Y-15876743D01*
X7695293Y-15855560D01*
X7681734Y-15832938D01*
X7670457Y-15809096D01*
X7661572Y-15784264D01*
X7655164Y-15758681D01*
X7651294Y-15732592D01*
X7650000Y-15706250D01*
X7650000Y-15168750D01*
X7651294Y-15142408D01*
X7655164Y-15116319D01*
X7661572Y-15090736D01*
X7670457Y-15065904D01*
X7681734Y-15042062D01*
X7695293Y-15019440D01*
X7711003Y-14998257D01*
X7728715Y-14978715D01*
X7748257Y-14961003D01*
X7769440Y-14945293D01*
X7792062Y-14931734D01*
X7815904Y-14920457D01*
X7840736Y-14911572D01*
X7866319Y-14905164D01*
X7892408Y-14901294D01*
X7918750Y-14900000D01*
X8881250Y-14900000D01*
X8907592Y-14901294D01*
X8907592Y-14901294D01*
G37*
D13*
X8400000Y-15437500D03*
G04 #@! TD*
D12*
G04 #@! TO.C,C3*
G36*
X45053029Y-42426318D02*
X45079608Y-42430261D01*
X45105674Y-42436790D01*
X45130973Y-42445842D01*
X45155264Y-42457331D01*
X45178311Y-42471145D01*
X45199894Y-42487152D01*
X45219803Y-42505197D01*
X45237848Y-42525106D01*
X45253855Y-42546689D01*
X45267669Y-42569736D01*
X45279158Y-42594027D01*
X45288210Y-42619326D01*
X45294739Y-42645392D01*
X45298682Y-42671971D01*
X45300000Y-42698809D01*
X45300000Y-43301191D01*
X45298682Y-43328029D01*
X45294739Y-43354608D01*
X45288210Y-43380674D01*
X45279158Y-43405973D01*
X45267669Y-43430264D01*
X45253855Y-43453311D01*
X45237848Y-43474894D01*
X45219803Y-43494803D01*
X45199894Y-43512848D01*
X45178311Y-43528855D01*
X45155264Y-43542669D01*
X45130973Y-43554158D01*
X45105674Y-43563210D01*
X45079608Y-43569739D01*
X45053029Y-43573682D01*
X45026191Y-43575000D01*
X44348809Y-43575000D01*
X44321971Y-43573682D01*
X44295392Y-43569739D01*
X44269326Y-43563210D01*
X44244027Y-43554158D01*
X44219736Y-43542669D01*
X44196689Y-43528855D01*
X44175106Y-43512848D01*
X44155197Y-43494803D01*
X44137152Y-43474894D01*
X44121145Y-43453311D01*
X44107331Y-43430264D01*
X44095842Y-43405973D01*
X44086790Y-43380674D01*
X44080261Y-43354608D01*
X44076318Y-43328029D01*
X44075000Y-43301191D01*
X44075000Y-42698809D01*
X44076318Y-42671971D01*
X44080261Y-42645392D01*
X44086790Y-42619326D01*
X44095842Y-42594027D01*
X44107331Y-42569736D01*
X44121145Y-42546689D01*
X44137152Y-42525106D01*
X44155197Y-42505197D01*
X44175106Y-42487152D01*
X44196689Y-42471145D01*
X44219736Y-42457331D01*
X44244027Y-42445842D01*
X44269326Y-42436790D01*
X44295392Y-42430261D01*
X44321971Y-42426318D01*
X44348809Y-42425000D01*
X45026191Y-42425000D01*
X45053029Y-42426318D01*
X45053029Y-42426318D01*
G37*
D19*
X44687500Y-43000000D03*
D12*
G36*
X43278029Y-42426318D02*
X43304608Y-42430261D01*
X43330674Y-42436790D01*
X43355973Y-42445842D01*
X43380264Y-42457331D01*
X43403311Y-42471145D01*
X43424894Y-42487152D01*
X43444803Y-42505197D01*
X43462848Y-42525106D01*
X43478855Y-42546689D01*
X43492669Y-42569736D01*
X43504158Y-42594027D01*
X43513210Y-42619326D01*
X43519739Y-42645392D01*
X43523682Y-42671971D01*
X43525000Y-42698809D01*
X43525000Y-43301191D01*
X43523682Y-43328029D01*
X43519739Y-43354608D01*
X43513210Y-43380674D01*
X43504158Y-43405973D01*
X43492669Y-43430264D01*
X43478855Y-43453311D01*
X43462848Y-43474894D01*
X43444803Y-43494803D01*
X43424894Y-43512848D01*
X43403311Y-43528855D01*
X43380264Y-43542669D01*
X43355973Y-43554158D01*
X43330674Y-43563210D01*
X43304608Y-43569739D01*
X43278029Y-43573682D01*
X43251191Y-43575000D01*
X42573809Y-43575000D01*
X42546971Y-43573682D01*
X42520392Y-43569739D01*
X42494326Y-43563210D01*
X42469027Y-43554158D01*
X42444736Y-43542669D01*
X42421689Y-43528855D01*
X42400106Y-43512848D01*
X42380197Y-43494803D01*
X42362152Y-43474894D01*
X42346145Y-43453311D01*
X42332331Y-43430264D01*
X42320842Y-43405973D01*
X42311790Y-43380674D01*
X42305261Y-43354608D01*
X42301318Y-43328029D01*
X42300000Y-43301191D01*
X42300000Y-42698809D01*
X42301318Y-42671971D01*
X42305261Y-42645392D01*
X42311790Y-42619326D01*
X42320842Y-42594027D01*
X42332331Y-42569736D01*
X42346145Y-42546689D01*
X42362152Y-42525106D01*
X42380197Y-42505197D01*
X42400106Y-42487152D01*
X42421689Y-42471145D01*
X42444736Y-42457331D01*
X42469027Y-42445842D01*
X42494326Y-42436790D01*
X42520392Y-42430261D01*
X42546971Y-42426318D01*
X42573809Y-42425000D01*
X43251191Y-42425000D01*
X43278029Y-42426318D01*
X43278029Y-42426318D01*
G37*
D19*
X42912500Y-43000000D03*
G04 #@! TD*
D12*
G04 #@! TO.C,C4*
G36*
X47428029Y-32701318D02*
X47454608Y-32705261D01*
X47480674Y-32711790D01*
X47505973Y-32720842D01*
X47530264Y-32732331D01*
X47553311Y-32746145D01*
X47574894Y-32762152D01*
X47594803Y-32780197D01*
X47612848Y-32800106D01*
X47628855Y-32821689D01*
X47642669Y-32844736D01*
X47654158Y-32869027D01*
X47663210Y-32894326D01*
X47669739Y-32920392D01*
X47673682Y-32946971D01*
X47675000Y-32973809D01*
X47675000Y-33651191D01*
X47673682Y-33678029D01*
X47669739Y-33704608D01*
X47663210Y-33730674D01*
X47654158Y-33755973D01*
X47642669Y-33780264D01*
X47628855Y-33803311D01*
X47612848Y-33824894D01*
X47594803Y-33844803D01*
X47574894Y-33862848D01*
X47553311Y-33878855D01*
X47530264Y-33892669D01*
X47505973Y-33904158D01*
X47480674Y-33913210D01*
X47454608Y-33919739D01*
X47428029Y-33923682D01*
X47401191Y-33925000D01*
X46798809Y-33925000D01*
X46771971Y-33923682D01*
X46745392Y-33919739D01*
X46719326Y-33913210D01*
X46694027Y-33904158D01*
X46669736Y-33892669D01*
X46646689Y-33878855D01*
X46625106Y-33862848D01*
X46605197Y-33844803D01*
X46587152Y-33824894D01*
X46571145Y-33803311D01*
X46557331Y-33780264D01*
X46545842Y-33755973D01*
X46536790Y-33730674D01*
X46530261Y-33704608D01*
X46526318Y-33678029D01*
X46525000Y-33651191D01*
X46525000Y-32973809D01*
X46526318Y-32946971D01*
X46530261Y-32920392D01*
X46536790Y-32894326D01*
X46545842Y-32869027D01*
X46557331Y-32844736D01*
X46571145Y-32821689D01*
X46587152Y-32800106D01*
X46605197Y-32780197D01*
X46625106Y-32762152D01*
X46646689Y-32746145D01*
X46669736Y-32732331D01*
X46694027Y-32720842D01*
X46719326Y-32711790D01*
X46745392Y-32705261D01*
X46771971Y-32701318D01*
X46798809Y-32700000D01*
X47401191Y-32700000D01*
X47428029Y-32701318D01*
X47428029Y-32701318D01*
G37*
D19*
X47100000Y-33312500D03*
D12*
G36*
X47428029Y-34476318D02*
X47454608Y-34480261D01*
X47480674Y-34486790D01*
X47505973Y-34495842D01*
X47530264Y-34507331D01*
X47553311Y-34521145D01*
X47574894Y-34537152D01*
X47594803Y-34555197D01*
X47612848Y-34575106D01*
X47628855Y-34596689D01*
X47642669Y-34619736D01*
X47654158Y-34644027D01*
X47663210Y-34669326D01*
X47669739Y-34695392D01*
X47673682Y-34721971D01*
X47675000Y-34748809D01*
X47675000Y-35426191D01*
X47673682Y-35453029D01*
X47669739Y-35479608D01*
X47663210Y-35505674D01*
X47654158Y-35530973D01*
X47642669Y-35555264D01*
X47628855Y-35578311D01*
X47612848Y-35599894D01*
X47594803Y-35619803D01*
X47574894Y-35637848D01*
X47553311Y-35653855D01*
X47530264Y-35667669D01*
X47505973Y-35679158D01*
X47480674Y-35688210D01*
X47454608Y-35694739D01*
X47428029Y-35698682D01*
X47401191Y-35700000D01*
X46798809Y-35700000D01*
X46771971Y-35698682D01*
X46745392Y-35694739D01*
X46719326Y-35688210D01*
X46694027Y-35679158D01*
X46669736Y-35667669D01*
X46646689Y-35653855D01*
X46625106Y-35637848D01*
X46605197Y-35619803D01*
X46587152Y-35599894D01*
X46571145Y-35578311D01*
X46557331Y-35555264D01*
X46545842Y-35530973D01*
X46536790Y-35505674D01*
X46530261Y-35479608D01*
X46526318Y-35453029D01*
X46525000Y-35426191D01*
X46525000Y-34748809D01*
X46526318Y-34721971D01*
X46530261Y-34695392D01*
X46536790Y-34669326D01*
X46545842Y-34644027D01*
X46557331Y-34619736D01*
X46571145Y-34596689D01*
X46587152Y-34575106D01*
X46605197Y-34555197D01*
X46625106Y-34537152D01*
X46646689Y-34521145D01*
X46669736Y-34507331D01*
X46694027Y-34495842D01*
X46719326Y-34486790D01*
X46745392Y-34480261D01*
X46771971Y-34476318D01*
X46798809Y-34475000D01*
X47401191Y-34475000D01*
X47428029Y-34476318D01*
X47428029Y-34476318D01*
G37*
D19*
X47100000Y-35087500D03*
G04 #@! TD*
D12*
G04 #@! TO.C,C5*
G36*
X25228029Y-29776318D02*
X25254608Y-29780261D01*
X25280674Y-29786790D01*
X25305973Y-29795842D01*
X25330264Y-29807331D01*
X25353311Y-29821145D01*
X25374894Y-29837152D01*
X25394803Y-29855197D01*
X25412848Y-29875106D01*
X25428855Y-29896689D01*
X25442669Y-29919736D01*
X25454158Y-29944027D01*
X25463210Y-29969326D01*
X25469739Y-29995392D01*
X25473682Y-30021971D01*
X25475000Y-30048809D01*
X25475000Y-30726191D01*
X25473682Y-30753029D01*
X25469739Y-30779608D01*
X25463210Y-30805674D01*
X25454158Y-30830973D01*
X25442669Y-30855264D01*
X25428855Y-30878311D01*
X25412848Y-30899894D01*
X25394803Y-30919803D01*
X25374894Y-30937848D01*
X25353311Y-30953855D01*
X25330264Y-30967669D01*
X25305973Y-30979158D01*
X25280674Y-30988210D01*
X25254608Y-30994739D01*
X25228029Y-30998682D01*
X25201191Y-31000000D01*
X24598809Y-31000000D01*
X24571971Y-30998682D01*
X24545392Y-30994739D01*
X24519326Y-30988210D01*
X24494027Y-30979158D01*
X24469736Y-30967669D01*
X24446689Y-30953855D01*
X24425106Y-30937848D01*
X24405197Y-30919803D01*
X24387152Y-30899894D01*
X24371145Y-30878311D01*
X24357331Y-30855264D01*
X24345842Y-30830973D01*
X24336790Y-30805674D01*
X24330261Y-30779608D01*
X24326318Y-30753029D01*
X24325000Y-30726191D01*
X24325000Y-30048809D01*
X24326318Y-30021971D01*
X24330261Y-29995392D01*
X24336790Y-29969326D01*
X24345842Y-29944027D01*
X24357331Y-29919736D01*
X24371145Y-29896689D01*
X24387152Y-29875106D01*
X24405197Y-29855197D01*
X24425106Y-29837152D01*
X24446689Y-29821145D01*
X24469736Y-29807331D01*
X24494027Y-29795842D01*
X24519326Y-29786790D01*
X24545392Y-29780261D01*
X24571971Y-29776318D01*
X24598809Y-29775000D01*
X25201191Y-29775000D01*
X25228029Y-29776318D01*
X25228029Y-29776318D01*
G37*
D19*
X24900000Y-30387500D03*
D12*
G36*
X25228029Y-28001318D02*
X25254608Y-28005261D01*
X25280674Y-28011790D01*
X25305973Y-28020842D01*
X25330264Y-28032331D01*
X25353311Y-28046145D01*
X25374894Y-28062152D01*
X25394803Y-28080197D01*
X25412848Y-28100106D01*
X25428855Y-28121689D01*
X25442669Y-28144736D01*
X25454158Y-28169027D01*
X25463210Y-28194326D01*
X25469739Y-28220392D01*
X25473682Y-28246971D01*
X25475000Y-28273809D01*
X25475000Y-28951191D01*
X25473682Y-28978029D01*
X25469739Y-29004608D01*
X25463210Y-29030674D01*
X25454158Y-29055973D01*
X25442669Y-29080264D01*
X25428855Y-29103311D01*
X25412848Y-29124894D01*
X25394803Y-29144803D01*
X25374894Y-29162848D01*
X25353311Y-29178855D01*
X25330264Y-29192669D01*
X25305973Y-29204158D01*
X25280674Y-29213210D01*
X25254608Y-29219739D01*
X25228029Y-29223682D01*
X25201191Y-29225000D01*
X24598809Y-29225000D01*
X24571971Y-29223682D01*
X24545392Y-29219739D01*
X24519326Y-29213210D01*
X24494027Y-29204158D01*
X24469736Y-29192669D01*
X24446689Y-29178855D01*
X24425106Y-29162848D01*
X24405197Y-29144803D01*
X24387152Y-29124894D01*
X24371145Y-29103311D01*
X24357331Y-29080264D01*
X24345842Y-29055973D01*
X24336790Y-29030674D01*
X24330261Y-29004608D01*
X24326318Y-28978029D01*
X24325000Y-28951191D01*
X24325000Y-28273809D01*
X24326318Y-28246971D01*
X24330261Y-28220392D01*
X24336790Y-28194326D01*
X24345842Y-28169027D01*
X24357331Y-28144736D01*
X24371145Y-28121689D01*
X24387152Y-28100106D01*
X24405197Y-28080197D01*
X24425106Y-28062152D01*
X24446689Y-28046145D01*
X24469736Y-28032331D01*
X24494027Y-28020842D01*
X24519326Y-28011790D01*
X24545392Y-28005261D01*
X24571971Y-28001318D01*
X24598809Y-28000000D01*
X25201191Y-28000000D01*
X25228029Y-28001318D01*
X25228029Y-28001318D01*
G37*
D19*
X24900000Y-28612500D03*
G04 #@! TD*
D12*
G04 #@! TO.C,C6*
G36*
X9307592Y-32788794D02*
X9333681Y-32792664D01*
X9359264Y-32799072D01*
X9384096Y-32807957D01*
X9407938Y-32819234D01*
X9430560Y-32832793D01*
X9451743Y-32848503D01*
X9471285Y-32866215D01*
X9488997Y-32885757D01*
X9504707Y-32906940D01*
X9518266Y-32929562D01*
X9529543Y-32953404D01*
X9538428Y-32978236D01*
X9544836Y-33003819D01*
X9548706Y-33029908D01*
X9550000Y-33056250D01*
X9550000Y-33593750D01*
X9548706Y-33620092D01*
X9544836Y-33646181D01*
X9538428Y-33671764D01*
X9529543Y-33696596D01*
X9518266Y-33720438D01*
X9504707Y-33743060D01*
X9488997Y-33764243D01*
X9471285Y-33783785D01*
X9451743Y-33801497D01*
X9430560Y-33817207D01*
X9407938Y-33830766D01*
X9384096Y-33842043D01*
X9359264Y-33850928D01*
X9333681Y-33857336D01*
X9307592Y-33861206D01*
X9281250Y-33862500D01*
X8318750Y-33862500D01*
X8292408Y-33861206D01*
X8266319Y-33857336D01*
X8240736Y-33850928D01*
X8215904Y-33842043D01*
X8192062Y-33830766D01*
X8169440Y-33817207D01*
X8148257Y-33801497D01*
X8128715Y-33783785D01*
X8111003Y-33764243D01*
X8095293Y-33743060D01*
X8081734Y-33720438D01*
X8070457Y-33696596D01*
X8061572Y-33671764D01*
X8055164Y-33646181D01*
X8051294Y-33620092D01*
X8050000Y-33593750D01*
X8050000Y-33056250D01*
X8051294Y-33029908D01*
X8055164Y-33003819D01*
X8061572Y-32978236D01*
X8070457Y-32953404D01*
X8081734Y-32929562D01*
X8095293Y-32906940D01*
X8111003Y-32885757D01*
X8128715Y-32866215D01*
X8148257Y-32848503D01*
X8169440Y-32832793D01*
X8192062Y-32819234D01*
X8215904Y-32807957D01*
X8240736Y-32799072D01*
X8266319Y-32792664D01*
X8292408Y-32788794D01*
X8318750Y-32787500D01*
X9281250Y-32787500D01*
X9307592Y-32788794D01*
X9307592Y-32788794D01*
G37*
D13*
X8800000Y-33325000D03*
D12*
G36*
X9307592Y-34663794D02*
X9333681Y-34667664D01*
X9359264Y-34674072D01*
X9384096Y-34682957D01*
X9407938Y-34694234D01*
X9430560Y-34707793D01*
X9451743Y-34723503D01*
X9471285Y-34741215D01*
X9488997Y-34760757D01*
X9504707Y-34781940D01*
X9518266Y-34804562D01*
X9529543Y-34828404D01*
X9538428Y-34853236D01*
X9544836Y-34878819D01*
X9548706Y-34904908D01*
X9550000Y-34931250D01*
X9550000Y-35468750D01*
X9548706Y-35495092D01*
X9544836Y-35521181D01*
X9538428Y-35546764D01*
X9529543Y-35571596D01*
X9518266Y-35595438D01*
X9504707Y-35618060D01*
X9488997Y-35639243D01*
X9471285Y-35658785D01*
X9451743Y-35676497D01*
X9430560Y-35692207D01*
X9407938Y-35705766D01*
X9384096Y-35717043D01*
X9359264Y-35725928D01*
X9333681Y-35732336D01*
X9307592Y-35736206D01*
X9281250Y-35737500D01*
X8318750Y-35737500D01*
X8292408Y-35736206D01*
X8266319Y-35732336D01*
X8240736Y-35725928D01*
X8215904Y-35717043D01*
X8192062Y-35705766D01*
X8169440Y-35692207D01*
X8148257Y-35676497D01*
X8128715Y-35658785D01*
X8111003Y-35639243D01*
X8095293Y-35618060D01*
X8081734Y-35595438D01*
X8070457Y-35571596D01*
X8061572Y-35546764D01*
X8055164Y-35521181D01*
X8051294Y-35495092D01*
X8050000Y-35468750D01*
X8050000Y-34931250D01*
X8051294Y-34904908D01*
X8055164Y-34878819D01*
X8061572Y-34853236D01*
X8070457Y-34828404D01*
X8081734Y-34804562D01*
X8095293Y-34781940D01*
X8111003Y-34760757D01*
X8128715Y-34741215D01*
X8148257Y-34723503D01*
X8169440Y-34707793D01*
X8192062Y-34694234D01*
X8215904Y-34682957D01*
X8240736Y-34674072D01*
X8266319Y-34667664D01*
X8292408Y-34663794D01*
X8318750Y-34662500D01*
X9281250Y-34662500D01*
X9307592Y-34663794D01*
X9307592Y-34663794D01*
G37*
D13*
X8800000Y-35200000D03*
G04 #@! TD*
D12*
G04 #@! TO.C,C8*
G36*
X3607592Y-45126294D02*
X3633681Y-45130164D01*
X3659264Y-45136572D01*
X3684096Y-45145457D01*
X3707938Y-45156734D01*
X3730560Y-45170293D01*
X3751743Y-45186003D01*
X3771285Y-45203715D01*
X3788997Y-45223257D01*
X3804707Y-45244440D01*
X3818266Y-45267062D01*
X3829543Y-45290904D01*
X3838428Y-45315736D01*
X3844836Y-45341319D01*
X3848706Y-45367408D01*
X3850000Y-45393750D01*
X3850000Y-45931250D01*
X3848706Y-45957592D01*
X3844836Y-45983681D01*
X3838428Y-46009264D01*
X3829543Y-46034096D01*
X3818266Y-46057938D01*
X3804707Y-46080560D01*
X3788997Y-46101743D01*
X3771285Y-46121285D01*
X3751743Y-46138997D01*
X3730560Y-46154707D01*
X3707938Y-46168266D01*
X3684096Y-46179543D01*
X3659264Y-46188428D01*
X3633681Y-46194836D01*
X3607592Y-46198706D01*
X3581250Y-46200000D01*
X2618750Y-46200000D01*
X2592408Y-46198706D01*
X2566319Y-46194836D01*
X2540736Y-46188428D01*
X2515904Y-46179543D01*
X2492062Y-46168266D01*
X2469440Y-46154707D01*
X2448257Y-46138997D01*
X2428715Y-46121285D01*
X2411003Y-46101743D01*
X2395293Y-46080560D01*
X2381734Y-46057938D01*
X2370457Y-46034096D01*
X2361572Y-46009264D01*
X2355164Y-45983681D01*
X2351294Y-45957592D01*
X2350000Y-45931250D01*
X2350000Y-45393750D01*
X2351294Y-45367408D01*
X2355164Y-45341319D01*
X2361572Y-45315736D01*
X2370457Y-45290904D01*
X2381734Y-45267062D01*
X2395293Y-45244440D01*
X2411003Y-45223257D01*
X2428715Y-45203715D01*
X2448257Y-45186003D01*
X2469440Y-45170293D01*
X2492062Y-45156734D01*
X2515904Y-45145457D01*
X2540736Y-45136572D01*
X2566319Y-45130164D01*
X2592408Y-45126294D01*
X2618750Y-45125000D01*
X3581250Y-45125000D01*
X3607592Y-45126294D01*
X3607592Y-45126294D01*
G37*
D13*
X3100000Y-45662500D03*
D12*
G36*
X3607592Y-47001294D02*
X3633681Y-47005164D01*
X3659264Y-47011572D01*
X3684096Y-47020457D01*
X3707938Y-47031734D01*
X3730560Y-47045293D01*
X3751743Y-47061003D01*
X3771285Y-47078715D01*
X3788997Y-47098257D01*
X3804707Y-47119440D01*
X3818266Y-47142062D01*
X3829543Y-47165904D01*
X3838428Y-47190736D01*
X3844836Y-47216319D01*
X3848706Y-47242408D01*
X3850000Y-47268750D01*
X3850000Y-47806250D01*
X3848706Y-47832592D01*
X3844836Y-47858681D01*
X3838428Y-47884264D01*
X3829543Y-47909096D01*
X3818266Y-47932938D01*
X3804707Y-47955560D01*
X3788997Y-47976743D01*
X3771285Y-47996285D01*
X3751743Y-48013997D01*
X3730560Y-48029707D01*
X3707938Y-48043266D01*
X3684096Y-48054543D01*
X3659264Y-48063428D01*
X3633681Y-48069836D01*
X3607592Y-48073706D01*
X3581250Y-48075000D01*
X2618750Y-48075000D01*
X2592408Y-48073706D01*
X2566319Y-48069836D01*
X2540736Y-48063428D01*
X2515904Y-48054543D01*
X2492062Y-48043266D01*
X2469440Y-48029707D01*
X2448257Y-48013997D01*
X2428715Y-47996285D01*
X2411003Y-47976743D01*
X2395293Y-47955560D01*
X2381734Y-47932938D01*
X2370457Y-47909096D01*
X2361572Y-47884264D01*
X2355164Y-47858681D01*
X2351294Y-47832592D01*
X2350000Y-47806250D01*
X2350000Y-47268750D01*
X2351294Y-47242408D01*
X2355164Y-47216319D01*
X2361572Y-47190736D01*
X2370457Y-47165904D01*
X2381734Y-47142062D01*
X2395293Y-47119440D01*
X2411003Y-47098257D01*
X2428715Y-47078715D01*
X2448257Y-47061003D01*
X2469440Y-47045293D01*
X2492062Y-47031734D01*
X2515904Y-47020457D01*
X2540736Y-47011572D01*
X2566319Y-47005164D01*
X2592408Y-47001294D01*
X2618750Y-47000000D01*
X3581250Y-47000000D01*
X3607592Y-47001294D01*
X3607592Y-47001294D01*
G37*
D13*
X3100000Y-47537500D03*
G04 #@! TD*
D12*
G04 #@! TO.C,C9*
G36*
X14407592Y-34001294D02*
X14433681Y-34005164D01*
X14459264Y-34011572D01*
X14484096Y-34020457D01*
X14507938Y-34031734D01*
X14530560Y-34045293D01*
X14551743Y-34061003D01*
X14571285Y-34078715D01*
X14588997Y-34098257D01*
X14604707Y-34119440D01*
X14618266Y-34142062D01*
X14629543Y-34165904D01*
X14638428Y-34190736D01*
X14644836Y-34216319D01*
X14648706Y-34242408D01*
X14650000Y-34268750D01*
X14650000Y-34806250D01*
X14648706Y-34832592D01*
X14644836Y-34858681D01*
X14638428Y-34884264D01*
X14629543Y-34909096D01*
X14618266Y-34932938D01*
X14604707Y-34955560D01*
X14588997Y-34976743D01*
X14571285Y-34996285D01*
X14551743Y-35013997D01*
X14530560Y-35029707D01*
X14507938Y-35043266D01*
X14484096Y-35054543D01*
X14459264Y-35063428D01*
X14433681Y-35069836D01*
X14407592Y-35073706D01*
X14381250Y-35075000D01*
X13418750Y-35075000D01*
X13392408Y-35073706D01*
X13366319Y-35069836D01*
X13340736Y-35063428D01*
X13315904Y-35054543D01*
X13292062Y-35043266D01*
X13269440Y-35029707D01*
X13248257Y-35013997D01*
X13228715Y-34996285D01*
X13211003Y-34976743D01*
X13195293Y-34955560D01*
X13181734Y-34932938D01*
X13170457Y-34909096D01*
X13161572Y-34884264D01*
X13155164Y-34858681D01*
X13151294Y-34832592D01*
X13150000Y-34806250D01*
X13150000Y-34268750D01*
X13151294Y-34242408D01*
X13155164Y-34216319D01*
X13161572Y-34190736D01*
X13170457Y-34165904D01*
X13181734Y-34142062D01*
X13195293Y-34119440D01*
X13211003Y-34098257D01*
X13228715Y-34078715D01*
X13248257Y-34061003D01*
X13269440Y-34045293D01*
X13292062Y-34031734D01*
X13315904Y-34020457D01*
X13340736Y-34011572D01*
X13366319Y-34005164D01*
X13392408Y-34001294D01*
X13418750Y-34000000D01*
X14381250Y-34000000D01*
X14407592Y-34001294D01*
X14407592Y-34001294D01*
G37*
D13*
X13900000Y-34537500D03*
D12*
G36*
X14407592Y-32126294D02*
X14433681Y-32130164D01*
X14459264Y-32136572D01*
X14484096Y-32145457D01*
X14507938Y-32156734D01*
X14530560Y-32170293D01*
X14551743Y-32186003D01*
X14571285Y-32203715D01*
X14588997Y-32223257D01*
X14604707Y-32244440D01*
X14618266Y-32267062D01*
X14629543Y-32290904D01*
X14638428Y-32315736D01*
X14644836Y-32341319D01*
X14648706Y-32367408D01*
X14650000Y-32393750D01*
X14650000Y-32931250D01*
X14648706Y-32957592D01*
X14644836Y-32983681D01*
X14638428Y-33009264D01*
X14629543Y-33034096D01*
X14618266Y-33057938D01*
X14604707Y-33080560D01*
X14588997Y-33101743D01*
X14571285Y-33121285D01*
X14551743Y-33138997D01*
X14530560Y-33154707D01*
X14507938Y-33168266D01*
X14484096Y-33179543D01*
X14459264Y-33188428D01*
X14433681Y-33194836D01*
X14407592Y-33198706D01*
X14381250Y-33200000D01*
X13418750Y-33200000D01*
X13392408Y-33198706D01*
X13366319Y-33194836D01*
X13340736Y-33188428D01*
X13315904Y-33179543D01*
X13292062Y-33168266D01*
X13269440Y-33154707D01*
X13248257Y-33138997D01*
X13228715Y-33121285D01*
X13211003Y-33101743D01*
X13195293Y-33080560D01*
X13181734Y-33057938D01*
X13170457Y-33034096D01*
X13161572Y-33009264D01*
X13155164Y-32983681D01*
X13151294Y-32957592D01*
X13150000Y-32931250D01*
X13150000Y-32393750D01*
X13151294Y-32367408D01*
X13155164Y-32341319D01*
X13161572Y-32315736D01*
X13170457Y-32290904D01*
X13181734Y-32267062D01*
X13195293Y-32244440D01*
X13211003Y-32223257D01*
X13228715Y-32203715D01*
X13248257Y-32186003D01*
X13269440Y-32170293D01*
X13292062Y-32156734D01*
X13315904Y-32145457D01*
X13340736Y-32136572D01*
X13366319Y-32130164D01*
X13392408Y-32126294D01*
X13418750Y-32125000D01*
X14381250Y-32125000D01*
X14407592Y-32126294D01*
X14407592Y-32126294D01*
G37*
D13*
X13900000Y-32662500D03*
G04 #@! TD*
D12*
G04 #@! TO.C,C10*
G36*
X11807592Y-32126294D02*
X11833681Y-32130164D01*
X11859264Y-32136572D01*
X11884096Y-32145457D01*
X11907938Y-32156734D01*
X11930560Y-32170293D01*
X11951743Y-32186003D01*
X11971285Y-32203715D01*
X11988997Y-32223257D01*
X12004707Y-32244440D01*
X12018266Y-32267062D01*
X12029543Y-32290904D01*
X12038428Y-32315736D01*
X12044836Y-32341319D01*
X12048706Y-32367408D01*
X12050000Y-32393750D01*
X12050000Y-32931250D01*
X12048706Y-32957592D01*
X12044836Y-32983681D01*
X12038428Y-33009264D01*
X12029543Y-33034096D01*
X12018266Y-33057938D01*
X12004707Y-33080560D01*
X11988997Y-33101743D01*
X11971285Y-33121285D01*
X11951743Y-33138997D01*
X11930560Y-33154707D01*
X11907938Y-33168266D01*
X11884096Y-33179543D01*
X11859264Y-33188428D01*
X11833681Y-33194836D01*
X11807592Y-33198706D01*
X11781250Y-33200000D01*
X10818750Y-33200000D01*
X10792408Y-33198706D01*
X10766319Y-33194836D01*
X10740736Y-33188428D01*
X10715904Y-33179543D01*
X10692062Y-33168266D01*
X10669440Y-33154707D01*
X10648257Y-33138997D01*
X10628715Y-33121285D01*
X10611003Y-33101743D01*
X10595293Y-33080560D01*
X10581734Y-33057938D01*
X10570457Y-33034096D01*
X10561572Y-33009264D01*
X10555164Y-32983681D01*
X10551294Y-32957592D01*
X10550000Y-32931250D01*
X10550000Y-32393750D01*
X10551294Y-32367408D01*
X10555164Y-32341319D01*
X10561572Y-32315736D01*
X10570457Y-32290904D01*
X10581734Y-32267062D01*
X10595293Y-32244440D01*
X10611003Y-32223257D01*
X10628715Y-32203715D01*
X10648257Y-32186003D01*
X10669440Y-32170293D01*
X10692062Y-32156734D01*
X10715904Y-32145457D01*
X10740736Y-32136572D01*
X10766319Y-32130164D01*
X10792408Y-32126294D01*
X10818750Y-32125000D01*
X11781250Y-32125000D01*
X11807592Y-32126294D01*
X11807592Y-32126294D01*
G37*
D13*
X11300000Y-32662500D03*
D12*
G36*
X11807592Y-34001294D02*
X11833681Y-34005164D01*
X11859264Y-34011572D01*
X11884096Y-34020457D01*
X11907938Y-34031734D01*
X11930560Y-34045293D01*
X11951743Y-34061003D01*
X11971285Y-34078715D01*
X11988997Y-34098257D01*
X12004707Y-34119440D01*
X12018266Y-34142062D01*
X12029543Y-34165904D01*
X12038428Y-34190736D01*
X12044836Y-34216319D01*
X12048706Y-34242408D01*
X12050000Y-34268750D01*
X12050000Y-34806250D01*
X12048706Y-34832592D01*
X12044836Y-34858681D01*
X12038428Y-34884264D01*
X12029543Y-34909096D01*
X12018266Y-34932938D01*
X12004707Y-34955560D01*
X11988997Y-34976743D01*
X11971285Y-34996285D01*
X11951743Y-35013997D01*
X11930560Y-35029707D01*
X11907938Y-35043266D01*
X11884096Y-35054543D01*
X11859264Y-35063428D01*
X11833681Y-35069836D01*
X11807592Y-35073706D01*
X11781250Y-35075000D01*
X10818750Y-35075000D01*
X10792408Y-35073706D01*
X10766319Y-35069836D01*
X10740736Y-35063428D01*
X10715904Y-35054543D01*
X10692062Y-35043266D01*
X10669440Y-35029707D01*
X10648257Y-35013997D01*
X10628715Y-34996285D01*
X10611003Y-34976743D01*
X10595293Y-34955560D01*
X10581734Y-34932938D01*
X10570457Y-34909096D01*
X10561572Y-34884264D01*
X10555164Y-34858681D01*
X10551294Y-34832592D01*
X10550000Y-34806250D01*
X10550000Y-34268750D01*
X10551294Y-34242408D01*
X10555164Y-34216319D01*
X10561572Y-34190736D01*
X10570457Y-34165904D01*
X10581734Y-34142062D01*
X10595293Y-34119440D01*
X10611003Y-34098257D01*
X10628715Y-34078715D01*
X10648257Y-34061003D01*
X10669440Y-34045293D01*
X10692062Y-34031734D01*
X10715904Y-34020457D01*
X10740736Y-34011572D01*
X10766319Y-34005164D01*
X10792408Y-34001294D01*
X10818750Y-34000000D01*
X11781250Y-34000000D01*
X11807592Y-34001294D01*
X11807592Y-34001294D01*
G37*
D13*
X11300000Y-34537500D03*
G04 #@! TD*
D12*
G04 #@! TO.C,C11*
G36*
X19165529Y-54113818D02*
X19192108Y-54117761D01*
X19218174Y-54124290D01*
X19243473Y-54133342D01*
X19267764Y-54144831D01*
X19290811Y-54158645D01*
X19312394Y-54174652D01*
X19332303Y-54192697D01*
X19350348Y-54212606D01*
X19366355Y-54234189D01*
X19380169Y-54257236D01*
X19391658Y-54281527D01*
X19400710Y-54306826D01*
X19407239Y-54332892D01*
X19411182Y-54359471D01*
X19412500Y-54386309D01*
X19412500Y-54988691D01*
X19411182Y-55015529D01*
X19407239Y-55042108D01*
X19400710Y-55068174D01*
X19391658Y-55093473D01*
X19380169Y-55117764D01*
X19366355Y-55140811D01*
X19350348Y-55162394D01*
X19332303Y-55182303D01*
X19312394Y-55200348D01*
X19290811Y-55216355D01*
X19267764Y-55230169D01*
X19243473Y-55241658D01*
X19218174Y-55250710D01*
X19192108Y-55257239D01*
X19165529Y-55261182D01*
X19138691Y-55262500D01*
X18461309Y-55262500D01*
X18434471Y-55261182D01*
X18407892Y-55257239D01*
X18381826Y-55250710D01*
X18356527Y-55241658D01*
X18332236Y-55230169D01*
X18309189Y-55216355D01*
X18287606Y-55200348D01*
X18267697Y-55182303D01*
X18249652Y-55162394D01*
X18233645Y-55140811D01*
X18219831Y-55117764D01*
X18208342Y-55093473D01*
X18199290Y-55068174D01*
X18192761Y-55042108D01*
X18188818Y-55015529D01*
X18187500Y-54988691D01*
X18187500Y-54386309D01*
X18188818Y-54359471D01*
X18192761Y-54332892D01*
X18199290Y-54306826D01*
X18208342Y-54281527D01*
X18219831Y-54257236D01*
X18233645Y-54234189D01*
X18249652Y-54212606D01*
X18267697Y-54192697D01*
X18287606Y-54174652D01*
X18309189Y-54158645D01*
X18332236Y-54144831D01*
X18356527Y-54133342D01*
X18381826Y-54124290D01*
X18407892Y-54117761D01*
X18434471Y-54113818D01*
X18461309Y-54112500D01*
X19138691Y-54112500D01*
X19165529Y-54113818D01*
X19165529Y-54113818D01*
G37*
D19*
X18800000Y-54687500D03*
D12*
G36*
X17390529Y-54113818D02*
X17417108Y-54117761D01*
X17443174Y-54124290D01*
X17468473Y-54133342D01*
X17492764Y-54144831D01*
X17515811Y-54158645D01*
X17537394Y-54174652D01*
X17557303Y-54192697D01*
X17575348Y-54212606D01*
X17591355Y-54234189D01*
X17605169Y-54257236D01*
X17616658Y-54281527D01*
X17625710Y-54306826D01*
X17632239Y-54332892D01*
X17636182Y-54359471D01*
X17637500Y-54386309D01*
X17637500Y-54988691D01*
X17636182Y-55015529D01*
X17632239Y-55042108D01*
X17625710Y-55068174D01*
X17616658Y-55093473D01*
X17605169Y-55117764D01*
X17591355Y-55140811D01*
X17575348Y-55162394D01*
X17557303Y-55182303D01*
X17537394Y-55200348D01*
X17515811Y-55216355D01*
X17492764Y-55230169D01*
X17468473Y-55241658D01*
X17443174Y-55250710D01*
X17417108Y-55257239D01*
X17390529Y-55261182D01*
X17363691Y-55262500D01*
X16686309Y-55262500D01*
X16659471Y-55261182D01*
X16632892Y-55257239D01*
X16606826Y-55250710D01*
X16581527Y-55241658D01*
X16557236Y-55230169D01*
X16534189Y-55216355D01*
X16512606Y-55200348D01*
X16492697Y-55182303D01*
X16474652Y-55162394D01*
X16458645Y-55140811D01*
X16444831Y-55117764D01*
X16433342Y-55093473D01*
X16424290Y-55068174D01*
X16417761Y-55042108D01*
X16413818Y-55015529D01*
X16412500Y-54988691D01*
X16412500Y-54386309D01*
X16413818Y-54359471D01*
X16417761Y-54332892D01*
X16424290Y-54306826D01*
X16433342Y-54281527D01*
X16444831Y-54257236D01*
X16458645Y-54234189D01*
X16474652Y-54212606D01*
X16492697Y-54192697D01*
X16512606Y-54174652D01*
X16534189Y-54158645D01*
X16557236Y-54144831D01*
X16581527Y-54133342D01*
X16606826Y-54124290D01*
X16632892Y-54117761D01*
X16659471Y-54113818D01*
X16686309Y-54112500D01*
X17363691Y-54112500D01*
X17390529Y-54113818D01*
X17390529Y-54113818D01*
G37*
D19*
X17025000Y-54687500D03*
G04 #@! TD*
D12*
G04 #@! TO.C,C12*
G36*
X41107592Y-48101294D02*
X41133681Y-48105164D01*
X41159264Y-48111572D01*
X41184096Y-48120457D01*
X41207938Y-48131734D01*
X41230560Y-48145293D01*
X41251743Y-48161003D01*
X41271285Y-48178715D01*
X41288997Y-48198257D01*
X41304707Y-48219440D01*
X41318266Y-48242062D01*
X41329543Y-48265904D01*
X41338428Y-48290736D01*
X41344836Y-48316319D01*
X41348706Y-48342408D01*
X41350000Y-48368750D01*
X41350000Y-48906250D01*
X41348706Y-48932592D01*
X41344836Y-48958681D01*
X41338428Y-48984264D01*
X41329543Y-49009096D01*
X41318266Y-49032938D01*
X41304707Y-49055560D01*
X41288997Y-49076743D01*
X41271285Y-49096285D01*
X41251743Y-49113997D01*
X41230560Y-49129707D01*
X41207938Y-49143266D01*
X41184096Y-49154543D01*
X41159264Y-49163428D01*
X41133681Y-49169836D01*
X41107592Y-49173706D01*
X41081250Y-49175000D01*
X40118750Y-49175000D01*
X40092408Y-49173706D01*
X40066319Y-49169836D01*
X40040736Y-49163428D01*
X40015904Y-49154543D01*
X39992062Y-49143266D01*
X39969440Y-49129707D01*
X39948257Y-49113997D01*
X39928715Y-49096285D01*
X39911003Y-49076743D01*
X39895293Y-49055560D01*
X39881734Y-49032938D01*
X39870457Y-49009096D01*
X39861572Y-48984264D01*
X39855164Y-48958681D01*
X39851294Y-48932592D01*
X39850000Y-48906250D01*
X39850000Y-48368750D01*
X39851294Y-48342408D01*
X39855164Y-48316319D01*
X39861572Y-48290736D01*
X39870457Y-48265904D01*
X39881734Y-48242062D01*
X39895293Y-48219440D01*
X39911003Y-48198257D01*
X39928715Y-48178715D01*
X39948257Y-48161003D01*
X39969440Y-48145293D01*
X39992062Y-48131734D01*
X40015904Y-48120457D01*
X40040736Y-48111572D01*
X40066319Y-48105164D01*
X40092408Y-48101294D01*
X40118750Y-48100000D01*
X41081250Y-48100000D01*
X41107592Y-48101294D01*
X41107592Y-48101294D01*
G37*
D13*
X40600000Y-48637500D03*
D12*
G36*
X41107592Y-46226294D02*
X41133681Y-46230164D01*
X41159264Y-46236572D01*
X41184096Y-46245457D01*
X41207938Y-46256734D01*
X41230560Y-46270293D01*
X41251743Y-46286003D01*
X41271285Y-46303715D01*
X41288997Y-46323257D01*
X41304707Y-46344440D01*
X41318266Y-46367062D01*
X41329543Y-46390904D01*
X41338428Y-46415736D01*
X41344836Y-46441319D01*
X41348706Y-46467408D01*
X41350000Y-46493750D01*
X41350000Y-47031250D01*
X41348706Y-47057592D01*
X41344836Y-47083681D01*
X41338428Y-47109264D01*
X41329543Y-47134096D01*
X41318266Y-47157938D01*
X41304707Y-47180560D01*
X41288997Y-47201743D01*
X41271285Y-47221285D01*
X41251743Y-47238997D01*
X41230560Y-47254707D01*
X41207938Y-47268266D01*
X41184096Y-47279543D01*
X41159264Y-47288428D01*
X41133681Y-47294836D01*
X41107592Y-47298706D01*
X41081250Y-47300000D01*
X40118750Y-47300000D01*
X40092408Y-47298706D01*
X40066319Y-47294836D01*
X40040736Y-47288428D01*
X40015904Y-47279543D01*
X39992062Y-47268266D01*
X39969440Y-47254707D01*
X39948257Y-47238997D01*
X39928715Y-47221285D01*
X39911003Y-47201743D01*
X39895293Y-47180560D01*
X39881734Y-47157938D01*
X39870457Y-47134096D01*
X39861572Y-47109264D01*
X39855164Y-47083681D01*
X39851294Y-47057592D01*
X39850000Y-47031250D01*
X39850000Y-46493750D01*
X39851294Y-46467408D01*
X39855164Y-46441319D01*
X39861572Y-46415736D01*
X39870457Y-46390904D01*
X39881734Y-46367062D01*
X39895293Y-46344440D01*
X39911003Y-46323257D01*
X39928715Y-46303715D01*
X39948257Y-46286003D01*
X39969440Y-46270293D01*
X39992062Y-46256734D01*
X40015904Y-46245457D01*
X40040736Y-46236572D01*
X40066319Y-46230164D01*
X40092408Y-46226294D01*
X40118750Y-46225000D01*
X41081250Y-46225000D01*
X41107592Y-46226294D01*
X41107592Y-46226294D01*
G37*
D13*
X40600000Y-46762500D03*
G04 #@! TD*
D12*
G04 #@! TO.C,C13*
G36*
X11307592Y-22226294D02*
X11333681Y-22230164D01*
X11359264Y-22236572D01*
X11384096Y-22245457D01*
X11407938Y-22256734D01*
X11430560Y-22270293D01*
X11451743Y-22286003D01*
X11471285Y-22303715D01*
X11488997Y-22323257D01*
X11504707Y-22344440D01*
X11518266Y-22367062D01*
X11529543Y-22390904D01*
X11538428Y-22415736D01*
X11544836Y-22441319D01*
X11548706Y-22467408D01*
X11550000Y-22493750D01*
X11550000Y-23031250D01*
X11548706Y-23057592D01*
X11544836Y-23083681D01*
X11538428Y-23109264D01*
X11529543Y-23134096D01*
X11518266Y-23157938D01*
X11504707Y-23180560D01*
X11488997Y-23201743D01*
X11471285Y-23221285D01*
X11451743Y-23238997D01*
X11430560Y-23254707D01*
X11407938Y-23268266D01*
X11384096Y-23279543D01*
X11359264Y-23288428D01*
X11333681Y-23294836D01*
X11307592Y-23298706D01*
X11281250Y-23300000D01*
X10318750Y-23300000D01*
X10292408Y-23298706D01*
X10266319Y-23294836D01*
X10240736Y-23288428D01*
X10215904Y-23279543D01*
X10192062Y-23268266D01*
X10169440Y-23254707D01*
X10148257Y-23238997D01*
X10128715Y-23221285D01*
X10111003Y-23201743D01*
X10095293Y-23180560D01*
X10081734Y-23157938D01*
X10070457Y-23134096D01*
X10061572Y-23109264D01*
X10055164Y-23083681D01*
X10051294Y-23057592D01*
X10050000Y-23031250D01*
X10050000Y-22493750D01*
X10051294Y-22467408D01*
X10055164Y-22441319D01*
X10061572Y-22415736D01*
X10070457Y-22390904D01*
X10081734Y-22367062D01*
X10095293Y-22344440D01*
X10111003Y-22323257D01*
X10128715Y-22303715D01*
X10148257Y-22286003D01*
X10169440Y-22270293D01*
X10192062Y-22256734D01*
X10215904Y-22245457D01*
X10240736Y-22236572D01*
X10266319Y-22230164D01*
X10292408Y-22226294D01*
X10318750Y-22225000D01*
X11281250Y-22225000D01*
X11307592Y-22226294D01*
X11307592Y-22226294D01*
G37*
D13*
X10800000Y-22762500D03*
D12*
G36*
X11307592Y-24101294D02*
X11333681Y-24105164D01*
X11359264Y-24111572D01*
X11384096Y-24120457D01*
X11407938Y-24131734D01*
X11430560Y-24145293D01*
X11451743Y-24161003D01*
X11471285Y-24178715D01*
X11488997Y-24198257D01*
X11504707Y-24219440D01*
X11518266Y-24242062D01*
X11529543Y-24265904D01*
X11538428Y-24290736D01*
X11544836Y-24316319D01*
X11548706Y-24342408D01*
X11550000Y-24368750D01*
X11550000Y-24906250D01*
X11548706Y-24932592D01*
X11544836Y-24958681D01*
X11538428Y-24984264D01*
X11529543Y-25009096D01*
X11518266Y-25032938D01*
X11504707Y-25055560D01*
X11488997Y-25076743D01*
X11471285Y-25096285D01*
X11451743Y-25113997D01*
X11430560Y-25129707D01*
X11407938Y-25143266D01*
X11384096Y-25154543D01*
X11359264Y-25163428D01*
X11333681Y-25169836D01*
X11307592Y-25173706D01*
X11281250Y-25175000D01*
X10318750Y-25175000D01*
X10292408Y-25173706D01*
X10266319Y-25169836D01*
X10240736Y-25163428D01*
X10215904Y-25154543D01*
X10192062Y-25143266D01*
X10169440Y-25129707D01*
X10148257Y-25113997D01*
X10128715Y-25096285D01*
X10111003Y-25076743D01*
X10095293Y-25055560D01*
X10081734Y-25032938D01*
X10070457Y-25009096D01*
X10061572Y-24984264D01*
X10055164Y-24958681D01*
X10051294Y-24932592D01*
X10050000Y-24906250D01*
X10050000Y-24368750D01*
X10051294Y-24342408D01*
X10055164Y-24316319D01*
X10061572Y-24290736D01*
X10070457Y-24265904D01*
X10081734Y-24242062D01*
X10095293Y-24219440D01*
X10111003Y-24198257D01*
X10128715Y-24178715D01*
X10148257Y-24161003D01*
X10169440Y-24145293D01*
X10192062Y-24131734D01*
X10215904Y-24120457D01*
X10240736Y-24111572D01*
X10266319Y-24105164D01*
X10292408Y-24101294D01*
X10318750Y-24100000D01*
X11281250Y-24100000D01*
X11307592Y-24101294D01*
X11307592Y-24101294D01*
G37*
D13*
X10800000Y-24637500D03*
G04 #@! TD*
D20*
G04 #@! TO.C,CON1*
X11520000Y-57700000D03*
D21*
X14060000Y-57700000D03*
X16600000Y-57700000D03*
X19140000Y-57700000D03*
X21680000Y-57700000D03*
G04 #@! TD*
D12*
G04 #@! TO.C,D1*
G36*
X33907592Y-51626294D02*
X33933681Y-51630164D01*
X33959264Y-51636572D01*
X33984096Y-51645457D01*
X34007938Y-51656734D01*
X34030560Y-51670293D01*
X34051743Y-51686003D01*
X34071285Y-51703715D01*
X34088997Y-51723257D01*
X34104707Y-51744440D01*
X34118266Y-51767062D01*
X34129543Y-51790904D01*
X34138428Y-51815736D01*
X34144836Y-51841319D01*
X34148706Y-51867408D01*
X34150000Y-51893750D01*
X34150000Y-52431250D01*
X34148706Y-52457592D01*
X34144836Y-52483681D01*
X34138428Y-52509264D01*
X34129543Y-52534096D01*
X34118266Y-52557938D01*
X34104707Y-52580560D01*
X34088997Y-52601743D01*
X34071285Y-52621285D01*
X34051743Y-52638997D01*
X34030560Y-52654707D01*
X34007938Y-52668266D01*
X33984096Y-52679543D01*
X33959264Y-52688428D01*
X33933681Y-52694836D01*
X33907592Y-52698706D01*
X33881250Y-52700000D01*
X32918750Y-52700000D01*
X32892408Y-52698706D01*
X32866319Y-52694836D01*
X32840736Y-52688428D01*
X32815904Y-52679543D01*
X32792062Y-52668266D01*
X32769440Y-52654707D01*
X32748257Y-52638997D01*
X32728715Y-52621285D01*
X32711003Y-52601743D01*
X32695293Y-52580560D01*
X32681734Y-52557938D01*
X32670457Y-52534096D01*
X32661572Y-52509264D01*
X32655164Y-52483681D01*
X32651294Y-52457592D01*
X32650000Y-52431250D01*
X32650000Y-51893750D01*
X32651294Y-51867408D01*
X32655164Y-51841319D01*
X32661572Y-51815736D01*
X32670457Y-51790904D01*
X32681734Y-51767062D01*
X32695293Y-51744440D01*
X32711003Y-51723257D01*
X32728715Y-51703715D01*
X32748257Y-51686003D01*
X32769440Y-51670293D01*
X32792062Y-51656734D01*
X32815904Y-51645457D01*
X32840736Y-51636572D01*
X32866319Y-51630164D01*
X32892408Y-51626294D01*
X32918750Y-51625000D01*
X33881250Y-51625000D01*
X33907592Y-51626294D01*
X33907592Y-51626294D01*
G37*
D13*
X33400000Y-52162500D03*
D12*
G36*
X33907592Y-53501294D02*
X33933681Y-53505164D01*
X33959264Y-53511572D01*
X33984096Y-53520457D01*
X34007938Y-53531734D01*
X34030560Y-53545293D01*
X34051743Y-53561003D01*
X34071285Y-53578715D01*
X34088997Y-53598257D01*
X34104707Y-53619440D01*
X34118266Y-53642062D01*
X34129543Y-53665904D01*
X34138428Y-53690736D01*
X34144836Y-53716319D01*
X34148706Y-53742408D01*
X34150000Y-53768750D01*
X34150000Y-54306250D01*
X34148706Y-54332592D01*
X34144836Y-54358681D01*
X34138428Y-54384264D01*
X34129543Y-54409096D01*
X34118266Y-54432938D01*
X34104707Y-54455560D01*
X34088997Y-54476743D01*
X34071285Y-54496285D01*
X34051743Y-54513997D01*
X34030560Y-54529707D01*
X34007938Y-54543266D01*
X33984096Y-54554543D01*
X33959264Y-54563428D01*
X33933681Y-54569836D01*
X33907592Y-54573706D01*
X33881250Y-54575000D01*
X32918750Y-54575000D01*
X32892408Y-54573706D01*
X32866319Y-54569836D01*
X32840736Y-54563428D01*
X32815904Y-54554543D01*
X32792062Y-54543266D01*
X32769440Y-54529707D01*
X32748257Y-54513997D01*
X32728715Y-54496285D01*
X32711003Y-54476743D01*
X32695293Y-54455560D01*
X32681734Y-54432938D01*
X32670457Y-54409096D01*
X32661572Y-54384264D01*
X32655164Y-54358681D01*
X32651294Y-54332592D01*
X32650000Y-54306250D01*
X32650000Y-53768750D01*
X32651294Y-53742408D01*
X32655164Y-53716319D01*
X32661572Y-53690736D01*
X32670457Y-53665904D01*
X32681734Y-53642062D01*
X32695293Y-53619440D01*
X32711003Y-53598257D01*
X32728715Y-53578715D01*
X32748257Y-53561003D01*
X32769440Y-53545293D01*
X32792062Y-53531734D01*
X32815904Y-53520457D01*
X32840736Y-53511572D01*
X32866319Y-53505164D01*
X32892408Y-53501294D01*
X32918750Y-53500000D01*
X33881250Y-53500000D01*
X33907592Y-53501294D01*
X33907592Y-53501294D01*
G37*
D13*
X33400000Y-54037500D03*
G04 #@! TD*
D12*
G04 #@! TO.C,D2*
G36*
X37107592Y-53463794D02*
X37133681Y-53467664D01*
X37159264Y-53474072D01*
X37184096Y-53482957D01*
X37207938Y-53494234D01*
X37230560Y-53507793D01*
X37251743Y-53523503D01*
X37271285Y-53541215D01*
X37288997Y-53560757D01*
X37304707Y-53581940D01*
X37318266Y-53604562D01*
X37329543Y-53628404D01*
X37338428Y-53653236D01*
X37344836Y-53678819D01*
X37348706Y-53704908D01*
X37350000Y-53731250D01*
X37350000Y-54268750D01*
X37348706Y-54295092D01*
X37344836Y-54321181D01*
X37338428Y-54346764D01*
X37329543Y-54371596D01*
X37318266Y-54395438D01*
X37304707Y-54418060D01*
X37288997Y-54439243D01*
X37271285Y-54458785D01*
X37251743Y-54476497D01*
X37230560Y-54492207D01*
X37207938Y-54505766D01*
X37184096Y-54517043D01*
X37159264Y-54525928D01*
X37133681Y-54532336D01*
X37107592Y-54536206D01*
X37081250Y-54537500D01*
X36118750Y-54537500D01*
X36092408Y-54536206D01*
X36066319Y-54532336D01*
X36040736Y-54525928D01*
X36015904Y-54517043D01*
X35992062Y-54505766D01*
X35969440Y-54492207D01*
X35948257Y-54476497D01*
X35928715Y-54458785D01*
X35911003Y-54439243D01*
X35895293Y-54418060D01*
X35881734Y-54395438D01*
X35870457Y-54371596D01*
X35861572Y-54346764D01*
X35855164Y-54321181D01*
X35851294Y-54295092D01*
X35850000Y-54268750D01*
X35850000Y-53731250D01*
X35851294Y-53704908D01*
X35855164Y-53678819D01*
X35861572Y-53653236D01*
X35870457Y-53628404D01*
X35881734Y-53604562D01*
X35895293Y-53581940D01*
X35911003Y-53560757D01*
X35928715Y-53541215D01*
X35948257Y-53523503D01*
X35969440Y-53507793D01*
X35992062Y-53494234D01*
X36015904Y-53482957D01*
X36040736Y-53474072D01*
X36066319Y-53467664D01*
X36092408Y-53463794D01*
X36118750Y-53462500D01*
X37081250Y-53462500D01*
X37107592Y-53463794D01*
X37107592Y-53463794D01*
G37*
D13*
X36600000Y-54000000D03*
D12*
G36*
X37107592Y-51588794D02*
X37133681Y-51592664D01*
X37159264Y-51599072D01*
X37184096Y-51607957D01*
X37207938Y-51619234D01*
X37230560Y-51632793D01*
X37251743Y-51648503D01*
X37271285Y-51666215D01*
X37288997Y-51685757D01*
X37304707Y-51706940D01*
X37318266Y-51729562D01*
X37329543Y-51753404D01*
X37338428Y-51778236D01*
X37344836Y-51803819D01*
X37348706Y-51829908D01*
X37350000Y-51856250D01*
X37350000Y-52393750D01*
X37348706Y-52420092D01*
X37344836Y-52446181D01*
X37338428Y-52471764D01*
X37329543Y-52496596D01*
X37318266Y-52520438D01*
X37304707Y-52543060D01*
X37288997Y-52564243D01*
X37271285Y-52583785D01*
X37251743Y-52601497D01*
X37230560Y-52617207D01*
X37207938Y-52630766D01*
X37184096Y-52642043D01*
X37159264Y-52650928D01*
X37133681Y-52657336D01*
X37107592Y-52661206D01*
X37081250Y-52662500D01*
X36118750Y-52662500D01*
X36092408Y-52661206D01*
X36066319Y-52657336D01*
X36040736Y-52650928D01*
X36015904Y-52642043D01*
X35992062Y-52630766D01*
X35969440Y-52617207D01*
X35948257Y-52601497D01*
X35928715Y-52583785D01*
X35911003Y-52564243D01*
X35895293Y-52543060D01*
X35881734Y-52520438D01*
X35870457Y-52496596D01*
X35861572Y-52471764D01*
X35855164Y-52446181D01*
X35851294Y-52420092D01*
X35850000Y-52393750D01*
X35850000Y-51856250D01*
X35851294Y-51829908D01*
X35855164Y-51803819D01*
X35861572Y-51778236D01*
X35870457Y-51753404D01*
X35881734Y-51729562D01*
X35895293Y-51706940D01*
X35911003Y-51685757D01*
X35928715Y-51666215D01*
X35948257Y-51648503D01*
X35969440Y-51632793D01*
X35992062Y-51619234D01*
X36015904Y-51607957D01*
X36040736Y-51599072D01*
X36066319Y-51592664D01*
X36092408Y-51588794D01*
X36118750Y-51587500D01*
X37081250Y-51587500D01*
X37107592Y-51588794D01*
X37107592Y-51588794D01*
G37*
D13*
X36600000Y-52125000D03*
G04 #@! TD*
D12*
G04 #@! TO.C,D3*
G36*
X40907592Y-40626294D02*
X40933681Y-40630164D01*
X40959264Y-40636572D01*
X40984096Y-40645457D01*
X41007938Y-40656734D01*
X41030560Y-40670293D01*
X41051743Y-40686003D01*
X41071285Y-40703715D01*
X41088997Y-40723257D01*
X41104707Y-40744440D01*
X41118266Y-40767062D01*
X41129543Y-40790904D01*
X41138428Y-40815736D01*
X41144836Y-40841319D01*
X41148706Y-40867408D01*
X41150000Y-40893750D01*
X41150000Y-41431250D01*
X41148706Y-41457592D01*
X41144836Y-41483681D01*
X41138428Y-41509264D01*
X41129543Y-41534096D01*
X41118266Y-41557938D01*
X41104707Y-41580560D01*
X41088997Y-41601743D01*
X41071285Y-41621285D01*
X41051743Y-41638997D01*
X41030560Y-41654707D01*
X41007938Y-41668266D01*
X40984096Y-41679543D01*
X40959264Y-41688428D01*
X40933681Y-41694836D01*
X40907592Y-41698706D01*
X40881250Y-41700000D01*
X39918750Y-41700000D01*
X39892408Y-41698706D01*
X39866319Y-41694836D01*
X39840736Y-41688428D01*
X39815904Y-41679543D01*
X39792062Y-41668266D01*
X39769440Y-41654707D01*
X39748257Y-41638997D01*
X39728715Y-41621285D01*
X39711003Y-41601743D01*
X39695293Y-41580560D01*
X39681734Y-41557938D01*
X39670457Y-41534096D01*
X39661572Y-41509264D01*
X39655164Y-41483681D01*
X39651294Y-41457592D01*
X39650000Y-41431250D01*
X39650000Y-40893750D01*
X39651294Y-40867408D01*
X39655164Y-40841319D01*
X39661572Y-40815736D01*
X39670457Y-40790904D01*
X39681734Y-40767062D01*
X39695293Y-40744440D01*
X39711003Y-40723257D01*
X39728715Y-40703715D01*
X39748257Y-40686003D01*
X39769440Y-40670293D01*
X39792062Y-40656734D01*
X39815904Y-40645457D01*
X39840736Y-40636572D01*
X39866319Y-40630164D01*
X39892408Y-40626294D01*
X39918750Y-40625000D01*
X40881250Y-40625000D01*
X40907592Y-40626294D01*
X40907592Y-40626294D01*
G37*
D13*
X40400000Y-41162500D03*
D12*
G36*
X40907592Y-42501294D02*
X40933681Y-42505164D01*
X40959264Y-42511572D01*
X40984096Y-42520457D01*
X41007938Y-42531734D01*
X41030560Y-42545293D01*
X41051743Y-42561003D01*
X41071285Y-42578715D01*
X41088997Y-42598257D01*
X41104707Y-42619440D01*
X41118266Y-42642062D01*
X41129543Y-42665904D01*
X41138428Y-42690736D01*
X41144836Y-42716319D01*
X41148706Y-42742408D01*
X41150000Y-42768750D01*
X41150000Y-43306250D01*
X41148706Y-43332592D01*
X41144836Y-43358681D01*
X41138428Y-43384264D01*
X41129543Y-43409096D01*
X41118266Y-43432938D01*
X41104707Y-43455560D01*
X41088997Y-43476743D01*
X41071285Y-43496285D01*
X41051743Y-43513997D01*
X41030560Y-43529707D01*
X41007938Y-43543266D01*
X40984096Y-43554543D01*
X40959264Y-43563428D01*
X40933681Y-43569836D01*
X40907592Y-43573706D01*
X40881250Y-43575000D01*
X39918750Y-43575000D01*
X39892408Y-43573706D01*
X39866319Y-43569836D01*
X39840736Y-43563428D01*
X39815904Y-43554543D01*
X39792062Y-43543266D01*
X39769440Y-43529707D01*
X39748257Y-43513997D01*
X39728715Y-43496285D01*
X39711003Y-43476743D01*
X39695293Y-43455560D01*
X39681734Y-43432938D01*
X39670457Y-43409096D01*
X39661572Y-43384264D01*
X39655164Y-43358681D01*
X39651294Y-43332592D01*
X39650000Y-43306250D01*
X39650000Y-42768750D01*
X39651294Y-42742408D01*
X39655164Y-42716319D01*
X39661572Y-42690736D01*
X39670457Y-42665904D01*
X39681734Y-42642062D01*
X39695293Y-42619440D01*
X39711003Y-42598257D01*
X39728715Y-42578715D01*
X39748257Y-42561003D01*
X39769440Y-42545293D01*
X39792062Y-42531734D01*
X39815904Y-42520457D01*
X39840736Y-42511572D01*
X39866319Y-42505164D01*
X39892408Y-42501294D01*
X39918750Y-42500000D01*
X40881250Y-42500000D01*
X40907592Y-42501294D01*
X40907592Y-42501294D01*
G37*
D13*
X40400000Y-43037500D03*
G04 #@! TD*
D22*
G04 #@! TO.C,J1*
X28500000Y-58900000D03*
X29500000Y-58250000D03*
X28500000Y-57600000D03*
X29500000Y-56950000D03*
X28500000Y-56300000D03*
D23*
X28720000Y-61175000D03*
X28720000Y-54025000D03*
G04 #@! TD*
D24*
G04 #@! TO.C,J2*
X12000000Y-10000000D03*
X12000000Y-11100000D03*
X12000000Y-12200000D03*
X12000000Y-13300000D03*
X12000000Y-14400000D03*
X12000000Y-15500000D03*
X12000000Y-16600000D03*
X12000000Y-17700000D03*
D25*
X12400000Y-5350000D03*
D26*
X12400000Y-19950000D03*
D27*
X22000000Y-19950000D03*
X22000000Y-4450000D03*
D28*
X22400000Y-9150000D03*
X22400000Y-17130000D03*
G04 #@! TD*
D29*
G04 #@! TO.C,Q1*
X32300000Y-61100000D03*
X34300000Y-60150000D03*
X34300000Y-62050000D03*
G04 #@! TD*
G04 #@! TO.C,Q2*
X38300000Y-31750000D03*
X38300000Y-33650000D03*
X40300000Y-32700000D03*
G04 #@! TD*
D12*
G04 #@! TO.C,R1*
G36*
X33907592Y-55626294D02*
X33933681Y-55630164D01*
X33959264Y-55636572D01*
X33984096Y-55645457D01*
X34007938Y-55656734D01*
X34030560Y-55670293D01*
X34051743Y-55686003D01*
X34071285Y-55703715D01*
X34088997Y-55723257D01*
X34104707Y-55744440D01*
X34118266Y-55767062D01*
X34129543Y-55790904D01*
X34138428Y-55815736D01*
X34144836Y-55841319D01*
X34148706Y-55867408D01*
X34150000Y-55893750D01*
X34150000Y-56431250D01*
X34148706Y-56457592D01*
X34144836Y-56483681D01*
X34138428Y-56509264D01*
X34129543Y-56534096D01*
X34118266Y-56557938D01*
X34104707Y-56580560D01*
X34088997Y-56601743D01*
X34071285Y-56621285D01*
X34051743Y-56638997D01*
X34030560Y-56654707D01*
X34007938Y-56668266D01*
X33984096Y-56679543D01*
X33959264Y-56688428D01*
X33933681Y-56694836D01*
X33907592Y-56698706D01*
X33881250Y-56700000D01*
X32918750Y-56700000D01*
X32892408Y-56698706D01*
X32866319Y-56694836D01*
X32840736Y-56688428D01*
X32815904Y-56679543D01*
X32792062Y-56668266D01*
X32769440Y-56654707D01*
X32748257Y-56638997D01*
X32728715Y-56621285D01*
X32711003Y-56601743D01*
X32695293Y-56580560D01*
X32681734Y-56557938D01*
X32670457Y-56534096D01*
X32661572Y-56509264D01*
X32655164Y-56483681D01*
X32651294Y-56457592D01*
X32650000Y-56431250D01*
X32650000Y-55893750D01*
X32651294Y-55867408D01*
X32655164Y-55841319D01*
X32661572Y-55815736D01*
X32670457Y-55790904D01*
X32681734Y-55767062D01*
X32695293Y-55744440D01*
X32711003Y-55723257D01*
X32728715Y-55703715D01*
X32748257Y-55686003D01*
X32769440Y-55670293D01*
X32792062Y-55656734D01*
X32815904Y-55645457D01*
X32840736Y-55636572D01*
X32866319Y-55630164D01*
X32892408Y-55626294D01*
X32918750Y-55625000D01*
X33881250Y-55625000D01*
X33907592Y-55626294D01*
X33907592Y-55626294D01*
G37*
D13*
X33400000Y-56162500D03*
D12*
G36*
X33907592Y-57501294D02*
X33933681Y-57505164D01*
X33959264Y-57511572D01*
X33984096Y-57520457D01*
X34007938Y-57531734D01*
X34030560Y-57545293D01*
X34051743Y-57561003D01*
X34071285Y-57578715D01*
X34088997Y-57598257D01*
X34104707Y-57619440D01*
X34118266Y-57642062D01*
X34129543Y-57665904D01*
X34138428Y-57690736D01*
X34144836Y-57716319D01*
X34148706Y-57742408D01*
X34150000Y-57768750D01*
X34150000Y-58306250D01*
X34148706Y-58332592D01*
X34144836Y-58358681D01*
X34138428Y-58384264D01*
X34129543Y-58409096D01*
X34118266Y-58432938D01*
X34104707Y-58455560D01*
X34088997Y-58476743D01*
X34071285Y-58496285D01*
X34051743Y-58513997D01*
X34030560Y-58529707D01*
X34007938Y-58543266D01*
X33984096Y-58554543D01*
X33959264Y-58563428D01*
X33933681Y-58569836D01*
X33907592Y-58573706D01*
X33881250Y-58575000D01*
X32918750Y-58575000D01*
X32892408Y-58573706D01*
X32866319Y-58569836D01*
X32840736Y-58563428D01*
X32815904Y-58554543D01*
X32792062Y-58543266D01*
X32769440Y-58529707D01*
X32748257Y-58513997D01*
X32728715Y-58496285D01*
X32711003Y-58476743D01*
X32695293Y-58455560D01*
X32681734Y-58432938D01*
X32670457Y-58409096D01*
X32661572Y-58384264D01*
X32655164Y-58358681D01*
X32651294Y-58332592D01*
X32650000Y-58306250D01*
X32650000Y-57768750D01*
X32651294Y-57742408D01*
X32655164Y-57716319D01*
X32661572Y-57690736D01*
X32670457Y-57665904D01*
X32681734Y-57642062D01*
X32695293Y-57619440D01*
X32711003Y-57598257D01*
X32728715Y-57578715D01*
X32748257Y-57561003D01*
X32769440Y-57545293D01*
X32792062Y-57531734D01*
X32815904Y-57520457D01*
X32840736Y-57511572D01*
X32866319Y-57505164D01*
X32892408Y-57501294D01*
X32918750Y-57500000D01*
X33881250Y-57500000D01*
X33907592Y-57501294D01*
X33907592Y-57501294D01*
G37*
D13*
X33400000Y-58037500D03*
G04 #@! TD*
D12*
G04 #@! TO.C,R2*
G36*
X37107592Y-57501294D02*
X37133681Y-57505164D01*
X37159264Y-57511572D01*
X37184096Y-57520457D01*
X37207938Y-57531734D01*
X37230560Y-57545293D01*
X37251743Y-57561003D01*
X37271285Y-57578715D01*
X37288997Y-57598257D01*
X37304707Y-57619440D01*
X37318266Y-57642062D01*
X37329543Y-57665904D01*
X37338428Y-57690736D01*
X37344836Y-57716319D01*
X37348706Y-57742408D01*
X37350000Y-57768750D01*
X37350000Y-58306250D01*
X37348706Y-58332592D01*
X37344836Y-58358681D01*
X37338428Y-58384264D01*
X37329543Y-58409096D01*
X37318266Y-58432938D01*
X37304707Y-58455560D01*
X37288997Y-58476743D01*
X37271285Y-58496285D01*
X37251743Y-58513997D01*
X37230560Y-58529707D01*
X37207938Y-58543266D01*
X37184096Y-58554543D01*
X37159264Y-58563428D01*
X37133681Y-58569836D01*
X37107592Y-58573706D01*
X37081250Y-58575000D01*
X36118750Y-58575000D01*
X36092408Y-58573706D01*
X36066319Y-58569836D01*
X36040736Y-58563428D01*
X36015904Y-58554543D01*
X35992062Y-58543266D01*
X35969440Y-58529707D01*
X35948257Y-58513997D01*
X35928715Y-58496285D01*
X35911003Y-58476743D01*
X35895293Y-58455560D01*
X35881734Y-58432938D01*
X35870457Y-58409096D01*
X35861572Y-58384264D01*
X35855164Y-58358681D01*
X35851294Y-58332592D01*
X35850000Y-58306250D01*
X35850000Y-57768750D01*
X35851294Y-57742408D01*
X35855164Y-57716319D01*
X35861572Y-57690736D01*
X35870457Y-57665904D01*
X35881734Y-57642062D01*
X35895293Y-57619440D01*
X35911003Y-57598257D01*
X35928715Y-57578715D01*
X35948257Y-57561003D01*
X35969440Y-57545293D01*
X35992062Y-57531734D01*
X36015904Y-57520457D01*
X36040736Y-57511572D01*
X36066319Y-57505164D01*
X36092408Y-57501294D01*
X36118750Y-57500000D01*
X37081250Y-57500000D01*
X37107592Y-57501294D01*
X37107592Y-57501294D01*
G37*
D13*
X36600000Y-58037500D03*
D12*
G36*
X37107592Y-55626294D02*
X37133681Y-55630164D01*
X37159264Y-55636572D01*
X37184096Y-55645457D01*
X37207938Y-55656734D01*
X37230560Y-55670293D01*
X37251743Y-55686003D01*
X37271285Y-55703715D01*
X37288997Y-55723257D01*
X37304707Y-55744440D01*
X37318266Y-55767062D01*
X37329543Y-55790904D01*
X37338428Y-55815736D01*
X37344836Y-55841319D01*
X37348706Y-55867408D01*
X37350000Y-55893750D01*
X37350000Y-56431250D01*
X37348706Y-56457592D01*
X37344836Y-56483681D01*
X37338428Y-56509264D01*
X37329543Y-56534096D01*
X37318266Y-56557938D01*
X37304707Y-56580560D01*
X37288997Y-56601743D01*
X37271285Y-56621285D01*
X37251743Y-56638997D01*
X37230560Y-56654707D01*
X37207938Y-56668266D01*
X37184096Y-56679543D01*
X37159264Y-56688428D01*
X37133681Y-56694836D01*
X37107592Y-56698706D01*
X37081250Y-56700000D01*
X36118750Y-56700000D01*
X36092408Y-56698706D01*
X36066319Y-56694836D01*
X36040736Y-56688428D01*
X36015904Y-56679543D01*
X35992062Y-56668266D01*
X35969440Y-56654707D01*
X35948257Y-56638997D01*
X35928715Y-56621285D01*
X35911003Y-56601743D01*
X35895293Y-56580560D01*
X35881734Y-56557938D01*
X35870457Y-56534096D01*
X35861572Y-56509264D01*
X35855164Y-56483681D01*
X35851294Y-56457592D01*
X35850000Y-56431250D01*
X35850000Y-55893750D01*
X35851294Y-55867408D01*
X35855164Y-55841319D01*
X35861572Y-55815736D01*
X35870457Y-55790904D01*
X35881734Y-55767062D01*
X35895293Y-55744440D01*
X35911003Y-55723257D01*
X35928715Y-55703715D01*
X35948257Y-55686003D01*
X35969440Y-55670293D01*
X35992062Y-55656734D01*
X36015904Y-55645457D01*
X36040736Y-55636572D01*
X36066319Y-55630164D01*
X36092408Y-55626294D01*
X36118750Y-55625000D01*
X37081250Y-55625000D01*
X37107592Y-55626294D01*
X37107592Y-55626294D01*
G37*
D13*
X36600000Y-56162500D03*
G04 #@! TD*
D12*
G04 #@! TO.C,R3*
G36*
X48507592Y-47926294D02*
X48533681Y-47930164D01*
X48559264Y-47936572D01*
X48584096Y-47945457D01*
X48607938Y-47956734D01*
X48630560Y-47970293D01*
X48651743Y-47986003D01*
X48671285Y-48003715D01*
X48688997Y-48023257D01*
X48704707Y-48044440D01*
X48718266Y-48067062D01*
X48729543Y-48090904D01*
X48738428Y-48115736D01*
X48744836Y-48141319D01*
X48748706Y-48167408D01*
X48750000Y-48193750D01*
X48750000Y-48731250D01*
X48748706Y-48757592D01*
X48744836Y-48783681D01*
X48738428Y-48809264D01*
X48729543Y-48834096D01*
X48718266Y-48857938D01*
X48704707Y-48880560D01*
X48688997Y-48901743D01*
X48671285Y-48921285D01*
X48651743Y-48938997D01*
X48630560Y-48954707D01*
X48607938Y-48968266D01*
X48584096Y-48979543D01*
X48559264Y-48988428D01*
X48533681Y-48994836D01*
X48507592Y-48998706D01*
X48481250Y-49000000D01*
X47518750Y-49000000D01*
X47492408Y-48998706D01*
X47466319Y-48994836D01*
X47440736Y-48988428D01*
X47415904Y-48979543D01*
X47392062Y-48968266D01*
X47369440Y-48954707D01*
X47348257Y-48938997D01*
X47328715Y-48921285D01*
X47311003Y-48901743D01*
X47295293Y-48880560D01*
X47281734Y-48857938D01*
X47270457Y-48834096D01*
X47261572Y-48809264D01*
X47255164Y-48783681D01*
X47251294Y-48757592D01*
X47250000Y-48731250D01*
X47250000Y-48193750D01*
X47251294Y-48167408D01*
X47255164Y-48141319D01*
X47261572Y-48115736D01*
X47270457Y-48090904D01*
X47281734Y-48067062D01*
X47295293Y-48044440D01*
X47311003Y-48023257D01*
X47328715Y-48003715D01*
X47348257Y-47986003D01*
X47369440Y-47970293D01*
X47392062Y-47956734D01*
X47415904Y-47945457D01*
X47440736Y-47936572D01*
X47466319Y-47930164D01*
X47492408Y-47926294D01*
X47518750Y-47925000D01*
X48481250Y-47925000D01*
X48507592Y-47926294D01*
X48507592Y-47926294D01*
G37*
D13*
X48000000Y-48462500D03*
D12*
G36*
X48507592Y-49801294D02*
X48533681Y-49805164D01*
X48559264Y-49811572D01*
X48584096Y-49820457D01*
X48607938Y-49831734D01*
X48630560Y-49845293D01*
X48651743Y-49861003D01*
X48671285Y-49878715D01*
X48688997Y-49898257D01*
X48704707Y-49919440D01*
X48718266Y-49942062D01*
X48729543Y-49965904D01*
X48738428Y-49990736D01*
X48744836Y-50016319D01*
X48748706Y-50042408D01*
X48750000Y-50068750D01*
X48750000Y-50606250D01*
X48748706Y-50632592D01*
X48744836Y-50658681D01*
X48738428Y-50684264D01*
X48729543Y-50709096D01*
X48718266Y-50732938D01*
X48704707Y-50755560D01*
X48688997Y-50776743D01*
X48671285Y-50796285D01*
X48651743Y-50813997D01*
X48630560Y-50829707D01*
X48607938Y-50843266D01*
X48584096Y-50854543D01*
X48559264Y-50863428D01*
X48533681Y-50869836D01*
X48507592Y-50873706D01*
X48481250Y-50875000D01*
X47518750Y-50875000D01*
X47492408Y-50873706D01*
X47466319Y-50869836D01*
X47440736Y-50863428D01*
X47415904Y-50854543D01*
X47392062Y-50843266D01*
X47369440Y-50829707D01*
X47348257Y-50813997D01*
X47328715Y-50796285D01*
X47311003Y-50776743D01*
X47295293Y-50755560D01*
X47281734Y-50732938D01*
X47270457Y-50709096D01*
X47261572Y-50684264D01*
X47255164Y-50658681D01*
X47251294Y-50632592D01*
X47250000Y-50606250D01*
X47250000Y-50068750D01*
X47251294Y-50042408D01*
X47255164Y-50016319D01*
X47261572Y-49990736D01*
X47270457Y-49965904D01*
X47281734Y-49942062D01*
X47295293Y-49919440D01*
X47311003Y-49898257D01*
X47328715Y-49878715D01*
X47348257Y-49861003D01*
X47369440Y-49845293D01*
X47392062Y-49831734D01*
X47415904Y-49820457D01*
X47440736Y-49811572D01*
X47466319Y-49805164D01*
X47492408Y-49801294D01*
X47518750Y-49800000D01*
X48481250Y-49800000D01*
X48507592Y-49801294D01*
X48507592Y-49801294D01*
G37*
D13*
X48000000Y-50337500D03*
G04 #@! TD*
D12*
G04 #@! TO.C,R4*
G36*
X48507592Y-42526294D02*
X48533681Y-42530164D01*
X48559264Y-42536572D01*
X48584096Y-42545457D01*
X48607938Y-42556734D01*
X48630560Y-42570293D01*
X48651743Y-42586003D01*
X48671285Y-42603715D01*
X48688997Y-42623257D01*
X48704707Y-42644440D01*
X48718266Y-42667062D01*
X48729543Y-42690904D01*
X48738428Y-42715736D01*
X48744836Y-42741319D01*
X48748706Y-42767408D01*
X48750000Y-42793750D01*
X48750000Y-43331250D01*
X48748706Y-43357592D01*
X48744836Y-43383681D01*
X48738428Y-43409264D01*
X48729543Y-43434096D01*
X48718266Y-43457938D01*
X48704707Y-43480560D01*
X48688997Y-43501743D01*
X48671285Y-43521285D01*
X48651743Y-43538997D01*
X48630560Y-43554707D01*
X48607938Y-43568266D01*
X48584096Y-43579543D01*
X48559264Y-43588428D01*
X48533681Y-43594836D01*
X48507592Y-43598706D01*
X48481250Y-43600000D01*
X47518750Y-43600000D01*
X47492408Y-43598706D01*
X47466319Y-43594836D01*
X47440736Y-43588428D01*
X47415904Y-43579543D01*
X47392062Y-43568266D01*
X47369440Y-43554707D01*
X47348257Y-43538997D01*
X47328715Y-43521285D01*
X47311003Y-43501743D01*
X47295293Y-43480560D01*
X47281734Y-43457938D01*
X47270457Y-43434096D01*
X47261572Y-43409264D01*
X47255164Y-43383681D01*
X47251294Y-43357592D01*
X47250000Y-43331250D01*
X47250000Y-42793750D01*
X47251294Y-42767408D01*
X47255164Y-42741319D01*
X47261572Y-42715736D01*
X47270457Y-42690904D01*
X47281734Y-42667062D01*
X47295293Y-42644440D01*
X47311003Y-42623257D01*
X47328715Y-42603715D01*
X47348257Y-42586003D01*
X47369440Y-42570293D01*
X47392062Y-42556734D01*
X47415904Y-42545457D01*
X47440736Y-42536572D01*
X47466319Y-42530164D01*
X47492408Y-42526294D01*
X47518750Y-42525000D01*
X48481250Y-42525000D01*
X48507592Y-42526294D01*
X48507592Y-42526294D01*
G37*
D13*
X48000000Y-43062500D03*
D12*
G36*
X48507592Y-44401294D02*
X48533681Y-44405164D01*
X48559264Y-44411572D01*
X48584096Y-44420457D01*
X48607938Y-44431734D01*
X48630560Y-44445293D01*
X48651743Y-44461003D01*
X48671285Y-44478715D01*
X48688997Y-44498257D01*
X48704707Y-44519440D01*
X48718266Y-44542062D01*
X48729543Y-44565904D01*
X48738428Y-44590736D01*
X48744836Y-44616319D01*
X48748706Y-44642408D01*
X48750000Y-44668750D01*
X48750000Y-45206250D01*
X48748706Y-45232592D01*
X48744836Y-45258681D01*
X48738428Y-45284264D01*
X48729543Y-45309096D01*
X48718266Y-45332938D01*
X48704707Y-45355560D01*
X48688997Y-45376743D01*
X48671285Y-45396285D01*
X48651743Y-45413997D01*
X48630560Y-45429707D01*
X48607938Y-45443266D01*
X48584096Y-45454543D01*
X48559264Y-45463428D01*
X48533681Y-45469836D01*
X48507592Y-45473706D01*
X48481250Y-45475000D01*
X47518750Y-45475000D01*
X47492408Y-45473706D01*
X47466319Y-45469836D01*
X47440736Y-45463428D01*
X47415904Y-45454543D01*
X47392062Y-45443266D01*
X47369440Y-45429707D01*
X47348257Y-45413997D01*
X47328715Y-45396285D01*
X47311003Y-45376743D01*
X47295293Y-45355560D01*
X47281734Y-45332938D01*
X47270457Y-45309096D01*
X47261572Y-45284264D01*
X47255164Y-45258681D01*
X47251294Y-45232592D01*
X47250000Y-45206250D01*
X47250000Y-44668750D01*
X47251294Y-44642408D01*
X47255164Y-44616319D01*
X47261572Y-44590736D01*
X47270457Y-44565904D01*
X47281734Y-44542062D01*
X47295293Y-44519440D01*
X47311003Y-44498257D01*
X47328715Y-44478715D01*
X47348257Y-44461003D01*
X47369440Y-44445293D01*
X47392062Y-44431734D01*
X47415904Y-44420457D01*
X47440736Y-44411572D01*
X47466319Y-44405164D01*
X47492408Y-44401294D01*
X47518750Y-44400000D01*
X48481250Y-44400000D01*
X48507592Y-44401294D01*
X48507592Y-44401294D01*
G37*
D13*
X48000000Y-44937500D03*
G04 #@! TD*
D12*
G04 #@! TO.C,R5*
G36*
X37107592Y-59626294D02*
X37133681Y-59630164D01*
X37159264Y-59636572D01*
X37184096Y-59645457D01*
X37207938Y-59656734D01*
X37230560Y-59670293D01*
X37251743Y-59686003D01*
X37271285Y-59703715D01*
X37288997Y-59723257D01*
X37304707Y-59744440D01*
X37318266Y-59767062D01*
X37329543Y-59790904D01*
X37338428Y-59815736D01*
X37344836Y-59841319D01*
X37348706Y-59867408D01*
X37350000Y-59893750D01*
X37350000Y-60431250D01*
X37348706Y-60457592D01*
X37344836Y-60483681D01*
X37338428Y-60509264D01*
X37329543Y-60534096D01*
X37318266Y-60557938D01*
X37304707Y-60580560D01*
X37288997Y-60601743D01*
X37271285Y-60621285D01*
X37251743Y-60638997D01*
X37230560Y-60654707D01*
X37207938Y-60668266D01*
X37184096Y-60679543D01*
X37159264Y-60688428D01*
X37133681Y-60694836D01*
X37107592Y-60698706D01*
X37081250Y-60700000D01*
X36118750Y-60700000D01*
X36092408Y-60698706D01*
X36066319Y-60694836D01*
X36040736Y-60688428D01*
X36015904Y-60679543D01*
X35992062Y-60668266D01*
X35969440Y-60654707D01*
X35948257Y-60638997D01*
X35928715Y-60621285D01*
X35911003Y-60601743D01*
X35895293Y-60580560D01*
X35881734Y-60557938D01*
X35870457Y-60534096D01*
X35861572Y-60509264D01*
X35855164Y-60483681D01*
X35851294Y-60457592D01*
X35850000Y-60431250D01*
X35850000Y-59893750D01*
X35851294Y-59867408D01*
X35855164Y-59841319D01*
X35861572Y-59815736D01*
X35870457Y-59790904D01*
X35881734Y-59767062D01*
X35895293Y-59744440D01*
X35911003Y-59723257D01*
X35928715Y-59703715D01*
X35948257Y-59686003D01*
X35969440Y-59670293D01*
X35992062Y-59656734D01*
X36015904Y-59645457D01*
X36040736Y-59636572D01*
X36066319Y-59630164D01*
X36092408Y-59626294D01*
X36118750Y-59625000D01*
X37081250Y-59625000D01*
X37107592Y-59626294D01*
X37107592Y-59626294D01*
G37*
D13*
X36600000Y-60162500D03*
D12*
G36*
X37107592Y-61501294D02*
X37133681Y-61505164D01*
X37159264Y-61511572D01*
X37184096Y-61520457D01*
X37207938Y-61531734D01*
X37230560Y-61545293D01*
X37251743Y-61561003D01*
X37271285Y-61578715D01*
X37288997Y-61598257D01*
X37304707Y-61619440D01*
X37318266Y-61642062D01*
X37329543Y-61665904D01*
X37338428Y-61690736D01*
X37344836Y-61716319D01*
X37348706Y-61742408D01*
X37350000Y-61768750D01*
X37350000Y-62306250D01*
X37348706Y-62332592D01*
X37344836Y-62358681D01*
X37338428Y-62384264D01*
X37329543Y-62409096D01*
X37318266Y-62432938D01*
X37304707Y-62455560D01*
X37288997Y-62476743D01*
X37271285Y-62496285D01*
X37251743Y-62513997D01*
X37230560Y-62529707D01*
X37207938Y-62543266D01*
X37184096Y-62554543D01*
X37159264Y-62563428D01*
X37133681Y-62569836D01*
X37107592Y-62573706D01*
X37081250Y-62575000D01*
X36118750Y-62575000D01*
X36092408Y-62573706D01*
X36066319Y-62569836D01*
X36040736Y-62563428D01*
X36015904Y-62554543D01*
X35992062Y-62543266D01*
X35969440Y-62529707D01*
X35948257Y-62513997D01*
X35928715Y-62496285D01*
X35911003Y-62476743D01*
X35895293Y-62455560D01*
X35881734Y-62432938D01*
X35870457Y-62409096D01*
X35861572Y-62384264D01*
X35855164Y-62358681D01*
X35851294Y-62332592D01*
X35850000Y-62306250D01*
X35850000Y-61768750D01*
X35851294Y-61742408D01*
X35855164Y-61716319D01*
X35861572Y-61690736D01*
X35870457Y-61665904D01*
X35881734Y-61642062D01*
X35895293Y-61619440D01*
X35911003Y-61598257D01*
X35928715Y-61578715D01*
X35948257Y-61561003D01*
X35969440Y-61545293D01*
X35992062Y-61531734D01*
X36015904Y-61520457D01*
X36040736Y-61511572D01*
X36066319Y-61505164D01*
X36092408Y-61501294D01*
X36118750Y-61500000D01*
X37081250Y-61500000D01*
X37107592Y-61501294D01*
X37107592Y-61501294D01*
G37*
D13*
X36600000Y-62037500D03*
G04 #@! TD*
D12*
G04 #@! TO.C,R6*
G36*
X3107592Y-19826294D02*
X3133681Y-19830164D01*
X3159264Y-19836572D01*
X3184096Y-19845457D01*
X3207938Y-19856734D01*
X3230560Y-19870293D01*
X3251743Y-19886003D01*
X3271285Y-19903715D01*
X3288997Y-19923257D01*
X3304707Y-19944440D01*
X3318266Y-19967062D01*
X3329543Y-19990904D01*
X3338428Y-20015736D01*
X3344836Y-20041319D01*
X3348706Y-20067408D01*
X3350000Y-20093750D01*
X3350000Y-20631250D01*
X3348706Y-20657592D01*
X3344836Y-20683681D01*
X3338428Y-20709264D01*
X3329543Y-20734096D01*
X3318266Y-20757938D01*
X3304707Y-20780560D01*
X3288997Y-20801743D01*
X3271285Y-20821285D01*
X3251743Y-20838997D01*
X3230560Y-20854707D01*
X3207938Y-20868266D01*
X3184096Y-20879543D01*
X3159264Y-20888428D01*
X3133681Y-20894836D01*
X3107592Y-20898706D01*
X3081250Y-20900000D01*
X2118750Y-20900000D01*
X2092408Y-20898706D01*
X2066319Y-20894836D01*
X2040736Y-20888428D01*
X2015904Y-20879543D01*
X1992062Y-20868266D01*
X1969440Y-20854707D01*
X1948257Y-20838997D01*
X1928715Y-20821285D01*
X1911003Y-20801743D01*
X1895293Y-20780560D01*
X1881734Y-20757938D01*
X1870457Y-20734096D01*
X1861572Y-20709264D01*
X1855164Y-20683681D01*
X1851294Y-20657592D01*
X1850000Y-20631250D01*
X1850000Y-20093750D01*
X1851294Y-20067408D01*
X1855164Y-20041319D01*
X1861572Y-20015736D01*
X1870457Y-19990904D01*
X1881734Y-19967062D01*
X1895293Y-19944440D01*
X1911003Y-19923257D01*
X1928715Y-19903715D01*
X1948257Y-19886003D01*
X1969440Y-19870293D01*
X1992062Y-19856734D01*
X2015904Y-19845457D01*
X2040736Y-19836572D01*
X2066319Y-19830164D01*
X2092408Y-19826294D01*
X2118750Y-19825000D01*
X3081250Y-19825000D01*
X3107592Y-19826294D01*
X3107592Y-19826294D01*
G37*
D13*
X2600000Y-20362500D03*
D12*
G36*
X3107592Y-21701294D02*
X3133681Y-21705164D01*
X3159264Y-21711572D01*
X3184096Y-21720457D01*
X3207938Y-21731734D01*
X3230560Y-21745293D01*
X3251743Y-21761003D01*
X3271285Y-21778715D01*
X3288997Y-21798257D01*
X3304707Y-21819440D01*
X3318266Y-21842062D01*
X3329543Y-21865904D01*
X3338428Y-21890736D01*
X3344836Y-21916319D01*
X3348706Y-21942408D01*
X3350000Y-21968750D01*
X3350000Y-22506250D01*
X3348706Y-22532592D01*
X3344836Y-22558681D01*
X3338428Y-22584264D01*
X3329543Y-22609096D01*
X3318266Y-22632938D01*
X3304707Y-22655560D01*
X3288997Y-22676743D01*
X3271285Y-22696285D01*
X3251743Y-22713997D01*
X3230560Y-22729707D01*
X3207938Y-22743266D01*
X3184096Y-22754543D01*
X3159264Y-22763428D01*
X3133681Y-22769836D01*
X3107592Y-22773706D01*
X3081250Y-22775000D01*
X2118750Y-22775000D01*
X2092408Y-22773706D01*
X2066319Y-22769836D01*
X2040736Y-22763428D01*
X2015904Y-22754543D01*
X1992062Y-22743266D01*
X1969440Y-22729707D01*
X1948257Y-22713997D01*
X1928715Y-22696285D01*
X1911003Y-22676743D01*
X1895293Y-22655560D01*
X1881734Y-22632938D01*
X1870457Y-22609096D01*
X1861572Y-22584264D01*
X1855164Y-22558681D01*
X1851294Y-22532592D01*
X1850000Y-22506250D01*
X1850000Y-21968750D01*
X1851294Y-21942408D01*
X1855164Y-21916319D01*
X1861572Y-21890736D01*
X1870457Y-21865904D01*
X1881734Y-21842062D01*
X1895293Y-21819440D01*
X1911003Y-21798257D01*
X1928715Y-21778715D01*
X1948257Y-21761003D01*
X1969440Y-21745293D01*
X1992062Y-21731734D01*
X2015904Y-21720457D01*
X2040736Y-21711572D01*
X2066319Y-21705164D01*
X2092408Y-21701294D01*
X2118750Y-21700000D01*
X3081250Y-21700000D01*
X3107592Y-21701294D01*
X3107592Y-21701294D01*
G37*
D13*
X2600000Y-22237500D03*
G04 #@! TD*
D12*
G04 #@! TO.C,R7*
G36*
X4507592Y-23863794D02*
X4533681Y-23867664D01*
X4559264Y-23874072D01*
X4584096Y-23882957D01*
X4607938Y-23894234D01*
X4630560Y-23907793D01*
X4651743Y-23923503D01*
X4671285Y-23941215D01*
X4688997Y-23960757D01*
X4704707Y-23981940D01*
X4718266Y-24004562D01*
X4729543Y-24028404D01*
X4738428Y-24053236D01*
X4744836Y-24078819D01*
X4748706Y-24104908D01*
X4750000Y-24131250D01*
X4750000Y-24668750D01*
X4748706Y-24695092D01*
X4744836Y-24721181D01*
X4738428Y-24746764D01*
X4729543Y-24771596D01*
X4718266Y-24795438D01*
X4704707Y-24818060D01*
X4688997Y-24839243D01*
X4671285Y-24858785D01*
X4651743Y-24876497D01*
X4630560Y-24892207D01*
X4607938Y-24905766D01*
X4584096Y-24917043D01*
X4559264Y-24925928D01*
X4533681Y-24932336D01*
X4507592Y-24936206D01*
X4481250Y-24937500D01*
X3518750Y-24937500D01*
X3492408Y-24936206D01*
X3466319Y-24932336D01*
X3440736Y-24925928D01*
X3415904Y-24917043D01*
X3392062Y-24905766D01*
X3369440Y-24892207D01*
X3348257Y-24876497D01*
X3328715Y-24858785D01*
X3311003Y-24839243D01*
X3295293Y-24818060D01*
X3281734Y-24795438D01*
X3270457Y-24771596D01*
X3261572Y-24746764D01*
X3255164Y-24721181D01*
X3251294Y-24695092D01*
X3250000Y-24668750D01*
X3250000Y-24131250D01*
X3251294Y-24104908D01*
X3255164Y-24078819D01*
X3261572Y-24053236D01*
X3270457Y-24028404D01*
X3281734Y-24004562D01*
X3295293Y-23981940D01*
X3311003Y-23960757D01*
X3328715Y-23941215D01*
X3348257Y-23923503D01*
X3369440Y-23907793D01*
X3392062Y-23894234D01*
X3415904Y-23882957D01*
X3440736Y-23874072D01*
X3466319Y-23867664D01*
X3492408Y-23863794D01*
X3518750Y-23862500D01*
X4481250Y-23862500D01*
X4507592Y-23863794D01*
X4507592Y-23863794D01*
G37*
D13*
X4000000Y-24400000D03*
D12*
G36*
X4507592Y-25738794D02*
X4533681Y-25742664D01*
X4559264Y-25749072D01*
X4584096Y-25757957D01*
X4607938Y-25769234D01*
X4630560Y-25782793D01*
X4651743Y-25798503D01*
X4671285Y-25816215D01*
X4688997Y-25835757D01*
X4704707Y-25856940D01*
X4718266Y-25879562D01*
X4729543Y-25903404D01*
X4738428Y-25928236D01*
X4744836Y-25953819D01*
X4748706Y-25979908D01*
X4750000Y-26006250D01*
X4750000Y-26543750D01*
X4748706Y-26570092D01*
X4744836Y-26596181D01*
X4738428Y-26621764D01*
X4729543Y-26646596D01*
X4718266Y-26670438D01*
X4704707Y-26693060D01*
X4688997Y-26714243D01*
X4671285Y-26733785D01*
X4651743Y-26751497D01*
X4630560Y-26767207D01*
X4607938Y-26780766D01*
X4584096Y-26792043D01*
X4559264Y-26800928D01*
X4533681Y-26807336D01*
X4507592Y-26811206D01*
X4481250Y-26812500D01*
X3518750Y-26812500D01*
X3492408Y-26811206D01*
X3466319Y-26807336D01*
X3440736Y-26800928D01*
X3415904Y-26792043D01*
X3392062Y-26780766D01*
X3369440Y-26767207D01*
X3348257Y-26751497D01*
X3328715Y-26733785D01*
X3311003Y-26714243D01*
X3295293Y-26693060D01*
X3281734Y-26670438D01*
X3270457Y-26646596D01*
X3261572Y-26621764D01*
X3255164Y-26596181D01*
X3251294Y-26570092D01*
X3250000Y-26543750D01*
X3250000Y-26006250D01*
X3251294Y-25979908D01*
X3255164Y-25953819D01*
X3261572Y-25928236D01*
X3270457Y-25903404D01*
X3281734Y-25879562D01*
X3295293Y-25856940D01*
X3311003Y-25835757D01*
X3328715Y-25816215D01*
X3348257Y-25798503D01*
X3369440Y-25782793D01*
X3392062Y-25769234D01*
X3415904Y-25757957D01*
X3440736Y-25749072D01*
X3466319Y-25742664D01*
X3492408Y-25738794D01*
X3518750Y-25737500D01*
X4481250Y-25737500D01*
X4507592Y-25738794D01*
X4507592Y-25738794D01*
G37*
D13*
X4000000Y-26275000D03*
G04 #@! TD*
D12*
G04 #@! TO.C,R8*
G36*
X6907592Y-25763794D02*
X6933681Y-25767664D01*
X6959264Y-25774072D01*
X6984096Y-25782957D01*
X7007938Y-25794234D01*
X7030560Y-25807793D01*
X7051743Y-25823503D01*
X7071285Y-25841215D01*
X7088997Y-25860757D01*
X7104707Y-25881940D01*
X7118266Y-25904562D01*
X7129543Y-25928404D01*
X7138428Y-25953236D01*
X7144836Y-25978819D01*
X7148706Y-26004908D01*
X7150000Y-26031250D01*
X7150000Y-26568750D01*
X7148706Y-26595092D01*
X7144836Y-26621181D01*
X7138428Y-26646764D01*
X7129543Y-26671596D01*
X7118266Y-26695438D01*
X7104707Y-26718060D01*
X7088997Y-26739243D01*
X7071285Y-26758785D01*
X7051743Y-26776497D01*
X7030560Y-26792207D01*
X7007938Y-26805766D01*
X6984096Y-26817043D01*
X6959264Y-26825928D01*
X6933681Y-26832336D01*
X6907592Y-26836206D01*
X6881250Y-26837500D01*
X5918750Y-26837500D01*
X5892408Y-26836206D01*
X5866319Y-26832336D01*
X5840736Y-26825928D01*
X5815904Y-26817043D01*
X5792062Y-26805766D01*
X5769440Y-26792207D01*
X5748257Y-26776497D01*
X5728715Y-26758785D01*
X5711003Y-26739243D01*
X5695293Y-26718060D01*
X5681734Y-26695438D01*
X5670457Y-26671596D01*
X5661572Y-26646764D01*
X5655164Y-26621181D01*
X5651294Y-26595092D01*
X5650000Y-26568750D01*
X5650000Y-26031250D01*
X5651294Y-26004908D01*
X5655164Y-25978819D01*
X5661572Y-25953236D01*
X5670457Y-25928404D01*
X5681734Y-25904562D01*
X5695293Y-25881940D01*
X5711003Y-25860757D01*
X5728715Y-25841215D01*
X5748257Y-25823503D01*
X5769440Y-25807793D01*
X5792062Y-25794234D01*
X5815904Y-25782957D01*
X5840736Y-25774072D01*
X5866319Y-25767664D01*
X5892408Y-25763794D01*
X5918750Y-25762500D01*
X6881250Y-25762500D01*
X6907592Y-25763794D01*
X6907592Y-25763794D01*
G37*
D13*
X6400000Y-26300000D03*
D12*
G36*
X6907592Y-23888794D02*
X6933681Y-23892664D01*
X6959264Y-23899072D01*
X6984096Y-23907957D01*
X7007938Y-23919234D01*
X7030560Y-23932793D01*
X7051743Y-23948503D01*
X7071285Y-23966215D01*
X7088997Y-23985757D01*
X7104707Y-24006940D01*
X7118266Y-24029562D01*
X7129543Y-24053404D01*
X7138428Y-24078236D01*
X7144836Y-24103819D01*
X7148706Y-24129908D01*
X7150000Y-24156250D01*
X7150000Y-24693750D01*
X7148706Y-24720092D01*
X7144836Y-24746181D01*
X7138428Y-24771764D01*
X7129543Y-24796596D01*
X7118266Y-24820438D01*
X7104707Y-24843060D01*
X7088997Y-24864243D01*
X7071285Y-24883785D01*
X7051743Y-24901497D01*
X7030560Y-24917207D01*
X7007938Y-24930766D01*
X6984096Y-24942043D01*
X6959264Y-24950928D01*
X6933681Y-24957336D01*
X6907592Y-24961206D01*
X6881250Y-24962500D01*
X5918750Y-24962500D01*
X5892408Y-24961206D01*
X5866319Y-24957336D01*
X5840736Y-24950928D01*
X5815904Y-24942043D01*
X5792062Y-24930766D01*
X5769440Y-24917207D01*
X5748257Y-24901497D01*
X5728715Y-24883785D01*
X5711003Y-24864243D01*
X5695293Y-24843060D01*
X5681734Y-24820438D01*
X5670457Y-24796596D01*
X5661572Y-24771764D01*
X5655164Y-24746181D01*
X5651294Y-24720092D01*
X5650000Y-24693750D01*
X5650000Y-24156250D01*
X5651294Y-24129908D01*
X5655164Y-24103819D01*
X5661572Y-24078236D01*
X5670457Y-24053404D01*
X5681734Y-24029562D01*
X5695293Y-24006940D01*
X5711003Y-23985757D01*
X5728715Y-23966215D01*
X5748257Y-23948503D01*
X5769440Y-23932793D01*
X5792062Y-23919234D01*
X5815904Y-23907957D01*
X5840736Y-23899072D01*
X5866319Y-23892664D01*
X5892408Y-23888794D01*
X5918750Y-23887500D01*
X6881250Y-23887500D01*
X6907592Y-23888794D01*
X6907592Y-23888794D01*
G37*
D13*
X6400000Y-24425000D03*
G04 #@! TD*
D12*
G04 #@! TO.C,R9*
G36*
X8307592Y-19826294D02*
X8333681Y-19830164D01*
X8359264Y-19836572D01*
X8384096Y-19845457D01*
X8407938Y-19856734D01*
X8430560Y-19870293D01*
X8451743Y-19886003D01*
X8471285Y-19903715D01*
X8488997Y-19923257D01*
X8504707Y-19944440D01*
X8518266Y-19967062D01*
X8529543Y-19990904D01*
X8538428Y-20015736D01*
X8544836Y-20041319D01*
X8548706Y-20067408D01*
X8550000Y-20093750D01*
X8550000Y-20631250D01*
X8548706Y-20657592D01*
X8544836Y-20683681D01*
X8538428Y-20709264D01*
X8529543Y-20734096D01*
X8518266Y-20757938D01*
X8504707Y-20780560D01*
X8488997Y-20801743D01*
X8471285Y-20821285D01*
X8451743Y-20838997D01*
X8430560Y-20854707D01*
X8407938Y-20868266D01*
X8384096Y-20879543D01*
X8359264Y-20888428D01*
X8333681Y-20894836D01*
X8307592Y-20898706D01*
X8281250Y-20900000D01*
X7318750Y-20900000D01*
X7292408Y-20898706D01*
X7266319Y-20894836D01*
X7240736Y-20888428D01*
X7215904Y-20879543D01*
X7192062Y-20868266D01*
X7169440Y-20854707D01*
X7148257Y-20838997D01*
X7128715Y-20821285D01*
X7111003Y-20801743D01*
X7095293Y-20780560D01*
X7081734Y-20757938D01*
X7070457Y-20734096D01*
X7061572Y-20709264D01*
X7055164Y-20683681D01*
X7051294Y-20657592D01*
X7050000Y-20631250D01*
X7050000Y-20093750D01*
X7051294Y-20067408D01*
X7055164Y-20041319D01*
X7061572Y-20015736D01*
X7070457Y-19990904D01*
X7081734Y-19967062D01*
X7095293Y-19944440D01*
X7111003Y-19923257D01*
X7128715Y-19903715D01*
X7148257Y-19886003D01*
X7169440Y-19870293D01*
X7192062Y-19856734D01*
X7215904Y-19845457D01*
X7240736Y-19836572D01*
X7266319Y-19830164D01*
X7292408Y-19826294D01*
X7318750Y-19825000D01*
X8281250Y-19825000D01*
X8307592Y-19826294D01*
X8307592Y-19826294D01*
G37*
D13*
X7800000Y-20362500D03*
D12*
G36*
X8307592Y-21701294D02*
X8333681Y-21705164D01*
X8359264Y-21711572D01*
X8384096Y-21720457D01*
X8407938Y-21731734D01*
X8430560Y-21745293D01*
X8451743Y-21761003D01*
X8471285Y-21778715D01*
X8488997Y-21798257D01*
X8504707Y-21819440D01*
X8518266Y-21842062D01*
X8529543Y-21865904D01*
X8538428Y-21890736D01*
X8544836Y-21916319D01*
X8548706Y-21942408D01*
X8550000Y-21968750D01*
X8550000Y-22506250D01*
X8548706Y-22532592D01*
X8544836Y-22558681D01*
X8538428Y-22584264D01*
X8529543Y-22609096D01*
X8518266Y-22632938D01*
X8504707Y-22655560D01*
X8488997Y-22676743D01*
X8471285Y-22696285D01*
X8451743Y-22713997D01*
X8430560Y-22729707D01*
X8407938Y-22743266D01*
X8384096Y-22754543D01*
X8359264Y-22763428D01*
X8333681Y-22769836D01*
X8307592Y-22773706D01*
X8281250Y-22775000D01*
X7318750Y-22775000D01*
X7292408Y-22773706D01*
X7266319Y-22769836D01*
X7240736Y-22763428D01*
X7215904Y-22754543D01*
X7192062Y-22743266D01*
X7169440Y-22729707D01*
X7148257Y-22713997D01*
X7128715Y-22696285D01*
X7111003Y-22676743D01*
X7095293Y-22655560D01*
X7081734Y-22632938D01*
X7070457Y-22609096D01*
X7061572Y-22584264D01*
X7055164Y-22558681D01*
X7051294Y-22532592D01*
X7050000Y-22506250D01*
X7050000Y-21968750D01*
X7051294Y-21942408D01*
X7055164Y-21916319D01*
X7061572Y-21890736D01*
X7070457Y-21865904D01*
X7081734Y-21842062D01*
X7095293Y-21819440D01*
X7111003Y-21798257D01*
X7128715Y-21778715D01*
X7148257Y-21761003D01*
X7169440Y-21745293D01*
X7192062Y-21731734D01*
X7215904Y-21720457D01*
X7240736Y-21711572D01*
X7266319Y-21705164D01*
X7292408Y-21701294D01*
X7318750Y-21700000D01*
X8281250Y-21700000D01*
X8307592Y-21701294D01*
X8307592Y-21701294D01*
G37*
D13*
X7800000Y-22237500D03*
G04 #@! TD*
D12*
G04 #@! TO.C,R10*
G36*
X18957592Y-47251294D02*
X18983681Y-47255164D01*
X19009264Y-47261572D01*
X19034096Y-47270457D01*
X19057938Y-47281734D01*
X19080560Y-47295293D01*
X19101743Y-47311003D01*
X19121285Y-47328715D01*
X19138997Y-47348257D01*
X19154707Y-47369440D01*
X19168266Y-47392062D01*
X19179543Y-47415904D01*
X19188428Y-47440736D01*
X19194836Y-47466319D01*
X19198706Y-47492408D01*
X19200000Y-47518750D01*
X19200000Y-48481250D01*
X19198706Y-48507592D01*
X19194836Y-48533681D01*
X19188428Y-48559264D01*
X19179543Y-48584096D01*
X19168266Y-48607938D01*
X19154707Y-48630560D01*
X19138997Y-48651743D01*
X19121285Y-48671285D01*
X19101743Y-48688997D01*
X19080560Y-48704707D01*
X19057938Y-48718266D01*
X19034096Y-48729543D01*
X19009264Y-48738428D01*
X18983681Y-48744836D01*
X18957592Y-48748706D01*
X18931250Y-48750000D01*
X18393750Y-48750000D01*
X18367408Y-48748706D01*
X18341319Y-48744836D01*
X18315736Y-48738428D01*
X18290904Y-48729543D01*
X18267062Y-48718266D01*
X18244440Y-48704707D01*
X18223257Y-48688997D01*
X18203715Y-48671285D01*
X18186003Y-48651743D01*
X18170293Y-48630560D01*
X18156734Y-48607938D01*
X18145457Y-48584096D01*
X18136572Y-48559264D01*
X18130164Y-48533681D01*
X18126294Y-48507592D01*
X18125000Y-48481250D01*
X18125000Y-47518750D01*
X18126294Y-47492408D01*
X18130164Y-47466319D01*
X18136572Y-47440736D01*
X18145457Y-47415904D01*
X18156734Y-47392062D01*
X18170293Y-47369440D01*
X18186003Y-47348257D01*
X18203715Y-47328715D01*
X18223257Y-47311003D01*
X18244440Y-47295293D01*
X18267062Y-47281734D01*
X18290904Y-47270457D01*
X18315736Y-47261572D01*
X18341319Y-47255164D01*
X18367408Y-47251294D01*
X18393750Y-47250000D01*
X18931250Y-47250000D01*
X18957592Y-47251294D01*
X18957592Y-47251294D01*
G37*
D13*
X18662500Y-48000000D03*
D12*
G36*
X20832592Y-47251294D02*
X20858681Y-47255164D01*
X20884264Y-47261572D01*
X20909096Y-47270457D01*
X20932938Y-47281734D01*
X20955560Y-47295293D01*
X20976743Y-47311003D01*
X20996285Y-47328715D01*
X21013997Y-47348257D01*
X21029707Y-47369440D01*
X21043266Y-47392062D01*
X21054543Y-47415904D01*
X21063428Y-47440736D01*
X21069836Y-47466319D01*
X21073706Y-47492408D01*
X21075000Y-47518750D01*
X21075000Y-48481250D01*
X21073706Y-48507592D01*
X21069836Y-48533681D01*
X21063428Y-48559264D01*
X21054543Y-48584096D01*
X21043266Y-48607938D01*
X21029707Y-48630560D01*
X21013997Y-48651743D01*
X20996285Y-48671285D01*
X20976743Y-48688997D01*
X20955560Y-48704707D01*
X20932938Y-48718266D01*
X20909096Y-48729543D01*
X20884264Y-48738428D01*
X20858681Y-48744836D01*
X20832592Y-48748706D01*
X20806250Y-48750000D01*
X20268750Y-48750000D01*
X20242408Y-48748706D01*
X20216319Y-48744836D01*
X20190736Y-48738428D01*
X20165904Y-48729543D01*
X20142062Y-48718266D01*
X20119440Y-48704707D01*
X20098257Y-48688997D01*
X20078715Y-48671285D01*
X20061003Y-48651743D01*
X20045293Y-48630560D01*
X20031734Y-48607938D01*
X20020457Y-48584096D01*
X20011572Y-48559264D01*
X20005164Y-48533681D01*
X20001294Y-48507592D01*
X20000000Y-48481250D01*
X20000000Y-47518750D01*
X20001294Y-47492408D01*
X20005164Y-47466319D01*
X20011572Y-47440736D01*
X20020457Y-47415904D01*
X20031734Y-47392062D01*
X20045293Y-47369440D01*
X20061003Y-47348257D01*
X20078715Y-47328715D01*
X20098257Y-47311003D01*
X20119440Y-47295293D01*
X20142062Y-47281734D01*
X20165904Y-47270457D01*
X20190736Y-47261572D01*
X20216319Y-47255164D01*
X20242408Y-47251294D01*
X20268750Y-47250000D01*
X20806250Y-47250000D01*
X20832592Y-47251294D01*
X20832592Y-47251294D01*
G37*
D13*
X20537500Y-48000000D03*
G04 #@! TD*
D12*
G04 #@! TO.C,R11*
G36*
X20795092Y-49851294D02*
X20821181Y-49855164D01*
X20846764Y-49861572D01*
X20871596Y-49870457D01*
X20895438Y-49881734D01*
X20918060Y-49895293D01*
X20939243Y-49911003D01*
X20958785Y-49928715D01*
X20976497Y-49948257D01*
X20992207Y-49969440D01*
X21005766Y-49992062D01*
X21017043Y-50015904D01*
X21025928Y-50040736D01*
X21032336Y-50066319D01*
X21036206Y-50092408D01*
X21037500Y-50118750D01*
X21037500Y-51081250D01*
X21036206Y-51107592D01*
X21032336Y-51133681D01*
X21025928Y-51159264D01*
X21017043Y-51184096D01*
X21005766Y-51207938D01*
X20992207Y-51230560D01*
X20976497Y-51251743D01*
X20958785Y-51271285D01*
X20939243Y-51288997D01*
X20918060Y-51304707D01*
X20895438Y-51318266D01*
X20871596Y-51329543D01*
X20846764Y-51338428D01*
X20821181Y-51344836D01*
X20795092Y-51348706D01*
X20768750Y-51350000D01*
X20231250Y-51350000D01*
X20204908Y-51348706D01*
X20178819Y-51344836D01*
X20153236Y-51338428D01*
X20128404Y-51329543D01*
X20104562Y-51318266D01*
X20081940Y-51304707D01*
X20060757Y-51288997D01*
X20041215Y-51271285D01*
X20023503Y-51251743D01*
X20007793Y-51230560D01*
X19994234Y-51207938D01*
X19982957Y-51184096D01*
X19974072Y-51159264D01*
X19967664Y-51133681D01*
X19963794Y-51107592D01*
X19962500Y-51081250D01*
X19962500Y-50118750D01*
X19963794Y-50092408D01*
X19967664Y-50066319D01*
X19974072Y-50040736D01*
X19982957Y-50015904D01*
X19994234Y-49992062D01*
X20007793Y-49969440D01*
X20023503Y-49948257D01*
X20041215Y-49928715D01*
X20060757Y-49911003D01*
X20081940Y-49895293D01*
X20104562Y-49881734D01*
X20128404Y-49870457D01*
X20153236Y-49861572D01*
X20178819Y-49855164D01*
X20204908Y-49851294D01*
X20231250Y-49850000D01*
X20768750Y-49850000D01*
X20795092Y-49851294D01*
X20795092Y-49851294D01*
G37*
D13*
X20500000Y-50600000D03*
D12*
G36*
X18920092Y-49851294D02*
X18946181Y-49855164D01*
X18971764Y-49861572D01*
X18996596Y-49870457D01*
X19020438Y-49881734D01*
X19043060Y-49895293D01*
X19064243Y-49911003D01*
X19083785Y-49928715D01*
X19101497Y-49948257D01*
X19117207Y-49969440D01*
X19130766Y-49992062D01*
X19142043Y-50015904D01*
X19150928Y-50040736D01*
X19157336Y-50066319D01*
X19161206Y-50092408D01*
X19162500Y-50118750D01*
X19162500Y-51081250D01*
X19161206Y-51107592D01*
X19157336Y-51133681D01*
X19150928Y-51159264D01*
X19142043Y-51184096D01*
X19130766Y-51207938D01*
X19117207Y-51230560D01*
X19101497Y-51251743D01*
X19083785Y-51271285D01*
X19064243Y-51288997D01*
X19043060Y-51304707D01*
X19020438Y-51318266D01*
X18996596Y-51329543D01*
X18971764Y-51338428D01*
X18946181Y-51344836D01*
X18920092Y-51348706D01*
X18893750Y-51350000D01*
X18356250Y-51350000D01*
X18329908Y-51348706D01*
X18303819Y-51344836D01*
X18278236Y-51338428D01*
X18253404Y-51329543D01*
X18229562Y-51318266D01*
X18206940Y-51304707D01*
X18185757Y-51288997D01*
X18166215Y-51271285D01*
X18148503Y-51251743D01*
X18132793Y-51230560D01*
X18119234Y-51207938D01*
X18107957Y-51184096D01*
X18099072Y-51159264D01*
X18092664Y-51133681D01*
X18088794Y-51107592D01*
X18087500Y-51081250D01*
X18087500Y-50118750D01*
X18088794Y-50092408D01*
X18092664Y-50066319D01*
X18099072Y-50040736D01*
X18107957Y-50015904D01*
X18119234Y-49992062D01*
X18132793Y-49969440D01*
X18148503Y-49948257D01*
X18166215Y-49928715D01*
X18185757Y-49911003D01*
X18206940Y-49895293D01*
X18229562Y-49881734D01*
X18253404Y-49870457D01*
X18278236Y-49861572D01*
X18303819Y-49855164D01*
X18329908Y-49851294D01*
X18356250Y-49850000D01*
X18893750Y-49850000D01*
X18920092Y-49851294D01*
X18920092Y-49851294D01*
G37*
D13*
X18625000Y-50600000D03*
G04 #@! TD*
D12*
G04 #@! TO.C,R12*
G36*
X40907592Y-38201294D02*
X40933681Y-38205164D01*
X40959264Y-38211572D01*
X40984096Y-38220457D01*
X41007938Y-38231734D01*
X41030560Y-38245293D01*
X41051743Y-38261003D01*
X41071285Y-38278715D01*
X41088997Y-38298257D01*
X41104707Y-38319440D01*
X41118266Y-38342062D01*
X41129543Y-38365904D01*
X41138428Y-38390736D01*
X41144836Y-38416319D01*
X41148706Y-38442408D01*
X41150000Y-38468750D01*
X41150000Y-39006250D01*
X41148706Y-39032592D01*
X41144836Y-39058681D01*
X41138428Y-39084264D01*
X41129543Y-39109096D01*
X41118266Y-39132938D01*
X41104707Y-39155560D01*
X41088997Y-39176743D01*
X41071285Y-39196285D01*
X41051743Y-39213997D01*
X41030560Y-39229707D01*
X41007938Y-39243266D01*
X40984096Y-39254543D01*
X40959264Y-39263428D01*
X40933681Y-39269836D01*
X40907592Y-39273706D01*
X40881250Y-39275000D01*
X39918750Y-39275000D01*
X39892408Y-39273706D01*
X39866319Y-39269836D01*
X39840736Y-39263428D01*
X39815904Y-39254543D01*
X39792062Y-39243266D01*
X39769440Y-39229707D01*
X39748257Y-39213997D01*
X39728715Y-39196285D01*
X39711003Y-39176743D01*
X39695293Y-39155560D01*
X39681734Y-39132938D01*
X39670457Y-39109096D01*
X39661572Y-39084264D01*
X39655164Y-39058681D01*
X39651294Y-39032592D01*
X39650000Y-39006250D01*
X39650000Y-38468750D01*
X39651294Y-38442408D01*
X39655164Y-38416319D01*
X39661572Y-38390736D01*
X39670457Y-38365904D01*
X39681734Y-38342062D01*
X39695293Y-38319440D01*
X39711003Y-38298257D01*
X39728715Y-38278715D01*
X39748257Y-38261003D01*
X39769440Y-38245293D01*
X39792062Y-38231734D01*
X39815904Y-38220457D01*
X39840736Y-38211572D01*
X39866319Y-38205164D01*
X39892408Y-38201294D01*
X39918750Y-38200000D01*
X40881250Y-38200000D01*
X40907592Y-38201294D01*
X40907592Y-38201294D01*
G37*
D13*
X40400000Y-38737500D03*
D12*
G36*
X40907592Y-36326294D02*
X40933681Y-36330164D01*
X40959264Y-36336572D01*
X40984096Y-36345457D01*
X41007938Y-36356734D01*
X41030560Y-36370293D01*
X41051743Y-36386003D01*
X41071285Y-36403715D01*
X41088997Y-36423257D01*
X41104707Y-36444440D01*
X41118266Y-36467062D01*
X41129543Y-36490904D01*
X41138428Y-36515736D01*
X41144836Y-36541319D01*
X41148706Y-36567408D01*
X41150000Y-36593750D01*
X41150000Y-37131250D01*
X41148706Y-37157592D01*
X41144836Y-37183681D01*
X41138428Y-37209264D01*
X41129543Y-37234096D01*
X41118266Y-37257938D01*
X41104707Y-37280560D01*
X41088997Y-37301743D01*
X41071285Y-37321285D01*
X41051743Y-37338997D01*
X41030560Y-37354707D01*
X41007938Y-37368266D01*
X40984096Y-37379543D01*
X40959264Y-37388428D01*
X40933681Y-37394836D01*
X40907592Y-37398706D01*
X40881250Y-37400000D01*
X39918750Y-37400000D01*
X39892408Y-37398706D01*
X39866319Y-37394836D01*
X39840736Y-37388428D01*
X39815904Y-37379543D01*
X39792062Y-37368266D01*
X39769440Y-37354707D01*
X39748257Y-37338997D01*
X39728715Y-37321285D01*
X39711003Y-37301743D01*
X39695293Y-37280560D01*
X39681734Y-37257938D01*
X39670457Y-37234096D01*
X39661572Y-37209264D01*
X39655164Y-37183681D01*
X39651294Y-37157592D01*
X39650000Y-37131250D01*
X39650000Y-36593750D01*
X39651294Y-36567408D01*
X39655164Y-36541319D01*
X39661572Y-36515736D01*
X39670457Y-36490904D01*
X39681734Y-36467062D01*
X39695293Y-36444440D01*
X39711003Y-36423257D01*
X39728715Y-36403715D01*
X39748257Y-36386003D01*
X39769440Y-36370293D01*
X39792062Y-36356734D01*
X39815904Y-36345457D01*
X39840736Y-36336572D01*
X39866319Y-36330164D01*
X39892408Y-36326294D01*
X39918750Y-36325000D01*
X40881250Y-36325000D01*
X40907592Y-36326294D01*
X40907592Y-36326294D01*
G37*
D13*
X40400000Y-36862500D03*
G04 #@! TD*
D12*
G04 #@! TO.C,R14*
G36*
X14507592Y-54401294D02*
X14533681Y-54405164D01*
X14559264Y-54411572D01*
X14584096Y-54420457D01*
X14607938Y-54431734D01*
X14630560Y-54445293D01*
X14651743Y-54461003D01*
X14671285Y-54478715D01*
X14688997Y-54498257D01*
X14704707Y-54519440D01*
X14718266Y-54542062D01*
X14729543Y-54565904D01*
X14738428Y-54590736D01*
X14744836Y-54616319D01*
X14748706Y-54642408D01*
X14750000Y-54668750D01*
X14750000Y-55206250D01*
X14748706Y-55232592D01*
X14744836Y-55258681D01*
X14738428Y-55284264D01*
X14729543Y-55309096D01*
X14718266Y-55332938D01*
X14704707Y-55355560D01*
X14688997Y-55376743D01*
X14671285Y-55396285D01*
X14651743Y-55413997D01*
X14630560Y-55429707D01*
X14607938Y-55443266D01*
X14584096Y-55454543D01*
X14559264Y-55463428D01*
X14533681Y-55469836D01*
X14507592Y-55473706D01*
X14481250Y-55475000D01*
X13518750Y-55475000D01*
X13492408Y-55473706D01*
X13466319Y-55469836D01*
X13440736Y-55463428D01*
X13415904Y-55454543D01*
X13392062Y-55443266D01*
X13369440Y-55429707D01*
X13348257Y-55413997D01*
X13328715Y-55396285D01*
X13311003Y-55376743D01*
X13295293Y-55355560D01*
X13281734Y-55332938D01*
X13270457Y-55309096D01*
X13261572Y-55284264D01*
X13255164Y-55258681D01*
X13251294Y-55232592D01*
X13250000Y-55206250D01*
X13250000Y-54668750D01*
X13251294Y-54642408D01*
X13255164Y-54616319D01*
X13261572Y-54590736D01*
X13270457Y-54565904D01*
X13281734Y-54542062D01*
X13295293Y-54519440D01*
X13311003Y-54498257D01*
X13328715Y-54478715D01*
X13348257Y-54461003D01*
X13369440Y-54445293D01*
X13392062Y-54431734D01*
X13415904Y-54420457D01*
X13440736Y-54411572D01*
X13466319Y-54405164D01*
X13492408Y-54401294D01*
X13518750Y-54400000D01*
X14481250Y-54400000D01*
X14507592Y-54401294D01*
X14507592Y-54401294D01*
G37*
D13*
X14000000Y-54937500D03*
D12*
G36*
X14507592Y-52526294D02*
X14533681Y-52530164D01*
X14559264Y-52536572D01*
X14584096Y-52545457D01*
X14607938Y-52556734D01*
X14630560Y-52570293D01*
X14651743Y-52586003D01*
X14671285Y-52603715D01*
X14688997Y-52623257D01*
X14704707Y-52644440D01*
X14718266Y-52667062D01*
X14729543Y-52690904D01*
X14738428Y-52715736D01*
X14744836Y-52741319D01*
X14748706Y-52767408D01*
X14750000Y-52793750D01*
X14750000Y-53331250D01*
X14748706Y-53357592D01*
X14744836Y-53383681D01*
X14738428Y-53409264D01*
X14729543Y-53434096D01*
X14718266Y-53457938D01*
X14704707Y-53480560D01*
X14688997Y-53501743D01*
X14671285Y-53521285D01*
X14651743Y-53538997D01*
X14630560Y-53554707D01*
X14607938Y-53568266D01*
X14584096Y-53579543D01*
X14559264Y-53588428D01*
X14533681Y-53594836D01*
X14507592Y-53598706D01*
X14481250Y-53600000D01*
X13518750Y-53600000D01*
X13492408Y-53598706D01*
X13466319Y-53594836D01*
X13440736Y-53588428D01*
X13415904Y-53579543D01*
X13392062Y-53568266D01*
X13369440Y-53554707D01*
X13348257Y-53538997D01*
X13328715Y-53521285D01*
X13311003Y-53501743D01*
X13295293Y-53480560D01*
X13281734Y-53457938D01*
X13270457Y-53434096D01*
X13261572Y-53409264D01*
X13255164Y-53383681D01*
X13251294Y-53357592D01*
X13250000Y-53331250D01*
X13250000Y-52793750D01*
X13251294Y-52767408D01*
X13255164Y-52741319D01*
X13261572Y-52715736D01*
X13270457Y-52690904D01*
X13281734Y-52667062D01*
X13295293Y-52644440D01*
X13311003Y-52623257D01*
X13328715Y-52603715D01*
X13348257Y-52586003D01*
X13369440Y-52570293D01*
X13392062Y-52556734D01*
X13415904Y-52545457D01*
X13440736Y-52536572D01*
X13466319Y-52530164D01*
X13492408Y-52526294D01*
X13518750Y-52525000D01*
X14481250Y-52525000D01*
X14507592Y-52526294D01*
X14507592Y-52526294D01*
G37*
D13*
X14000000Y-53062500D03*
G04 #@! TD*
D12*
G04 #@! TO.C,R15*
G36*
X12007592Y-52426294D02*
X12033681Y-52430164D01*
X12059264Y-52436572D01*
X12084096Y-52445457D01*
X12107938Y-52456734D01*
X12130560Y-52470293D01*
X12151743Y-52486003D01*
X12171285Y-52503715D01*
X12188997Y-52523257D01*
X12204707Y-52544440D01*
X12218266Y-52567062D01*
X12229543Y-52590904D01*
X12238428Y-52615736D01*
X12244836Y-52641319D01*
X12248706Y-52667408D01*
X12250000Y-52693750D01*
X12250000Y-53231250D01*
X12248706Y-53257592D01*
X12244836Y-53283681D01*
X12238428Y-53309264D01*
X12229543Y-53334096D01*
X12218266Y-53357938D01*
X12204707Y-53380560D01*
X12188997Y-53401743D01*
X12171285Y-53421285D01*
X12151743Y-53438997D01*
X12130560Y-53454707D01*
X12107938Y-53468266D01*
X12084096Y-53479543D01*
X12059264Y-53488428D01*
X12033681Y-53494836D01*
X12007592Y-53498706D01*
X11981250Y-53500000D01*
X11018750Y-53500000D01*
X10992408Y-53498706D01*
X10966319Y-53494836D01*
X10940736Y-53488428D01*
X10915904Y-53479543D01*
X10892062Y-53468266D01*
X10869440Y-53454707D01*
X10848257Y-53438997D01*
X10828715Y-53421285D01*
X10811003Y-53401743D01*
X10795293Y-53380560D01*
X10781734Y-53357938D01*
X10770457Y-53334096D01*
X10761572Y-53309264D01*
X10755164Y-53283681D01*
X10751294Y-53257592D01*
X10750000Y-53231250D01*
X10750000Y-52693750D01*
X10751294Y-52667408D01*
X10755164Y-52641319D01*
X10761572Y-52615736D01*
X10770457Y-52590904D01*
X10781734Y-52567062D01*
X10795293Y-52544440D01*
X10811003Y-52523257D01*
X10828715Y-52503715D01*
X10848257Y-52486003D01*
X10869440Y-52470293D01*
X10892062Y-52456734D01*
X10915904Y-52445457D01*
X10940736Y-52436572D01*
X10966319Y-52430164D01*
X10992408Y-52426294D01*
X11018750Y-52425000D01*
X11981250Y-52425000D01*
X12007592Y-52426294D01*
X12007592Y-52426294D01*
G37*
D13*
X11500000Y-52962500D03*
D12*
G36*
X12007592Y-54301294D02*
X12033681Y-54305164D01*
X12059264Y-54311572D01*
X12084096Y-54320457D01*
X12107938Y-54331734D01*
X12130560Y-54345293D01*
X12151743Y-54361003D01*
X12171285Y-54378715D01*
X12188997Y-54398257D01*
X12204707Y-54419440D01*
X12218266Y-54442062D01*
X12229543Y-54465904D01*
X12238428Y-54490736D01*
X12244836Y-54516319D01*
X12248706Y-54542408D01*
X12250000Y-54568750D01*
X12250000Y-55106250D01*
X12248706Y-55132592D01*
X12244836Y-55158681D01*
X12238428Y-55184264D01*
X12229543Y-55209096D01*
X12218266Y-55232938D01*
X12204707Y-55255560D01*
X12188997Y-55276743D01*
X12171285Y-55296285D01*
X12151743Y-55313997D01*
X12130560Y-55329707D01*
X12107938Y-55343266D01*
X12084096Y-55354543D01*
X12059264Y-55363428D01*
X12033681Y-55369836D01*
X12007592Y-55373706D01*
X11981250Y-55375000D01*
X11018750Y-55375000D01*
X10992408Y-55373706D01*
X10966319Y-55369836D01*
X10940736Y-55363428D01*
X10915904Y-55354543D01*
X10892062Y-55343266D01*
X10869440Y-55329707D01*
X10848257Y-55313997D01*
X10828715Y-55296285D01*
X10811003Y-55276743D01*
X10795293Y-55255560D01*
X10781734Y-55232938D01*
X10770457Y-55209096D01*
X10761572Y-55184264D01*
X10755164Y-55158681D01*
X10751294Y-55132592D01*
X10750000Y-55106250D01*
X10750000Y-54568750D01*
X10751294Y-54542408D01*
X10755164Y-54516319D01*
X10761572Y-54490736D01*
X10770457Y-54465904D01*
X10781734Y-54442062D01*
X10795293Y-54419440D01*
X10811003Y-54398257D01*
X10828715Y-54378715D01*
X10848257Y-54361003D01*
X10869440Y-54345293D01*
X10892062Y-54331734D01*
X10915904Y-54320457D01*
X10940736Y-54311572D01*
X10966319Y-54305164D01*
X10992408Y-54301294D01*
X11018750Y-54300000D01*
X11981250Y-54300000D01*
X12007592Y-54301294D01*
X12007592Y-54301294D01*
G37*
D13*
X11500000Y-54837500D03*
G04 #@! TD*
D12*
G04 #@! TO.C,R16*
G36*
X35707592Y-33163794D02*
X35733681Y-33167664D01*
X35759264Y-33174072D01*
X35784096Y-33182957D01*
X35807938Y-33194234D01*
X35830560Y-33207793D01*
X35851743Y-33223503D01*
X35871285Y-33241215D01*
X35888997Y-33260757D01*
X35904707Y-33281940D01*
X35918266Y-33304562D01*
X35929543Y-33328404D01*
X35938428Y-33353236D01*
X35944836Y-33378819D01*
X35948706Y-33404908D01*
X35950000Y-33431250D01*
X35950000Y-33968750D01*
X35948706Y-33995092D01*
X35944836Y-34021181D01*
X35938428Y-34046764D01*
X35929543Y-34071596D01*
X35918266Y-34095438D01*
X35904707Y-34118060D01*
X35888997Y-34139243D01*
X35871285Y-34158785D01*
X35851743Y-34176497D01*
X35830560Y-34192207D01*
X35807938Y-34205766D01*
X35784096Y-34217043D01*
X35759264Y-34225928D01*
X35733681Y-34232336D01*
X35707592Y-34236206D01*
X35681250Y-34237500D01*
X34718750Y-34237500D01*
X34692408Y-34236206D01*
X34666319Y-34232336D01*
X34640736Y-34225928D01*
X34615904Y-34217043D01*
X34592062Y-34205766D01*
X34569440Y-34192207D01*
X34548257Y-34176497D01*
X34528715Y-34158785D01*
X34511003Y-34139243D01*
X34495293Y-34118060D01*
X34481734Y-34095438D01*
X34470457Y-34071596D01*
X34461572Y-34046764D01*
X34455164Y-34021181D01*
X34451294Y-33995092D01*
X34450000Y-33968750D01*
X34450000Y-33431250D01*
X34451294Y-33404908D01*
X34455164Y-33378819D01*
X34461572Y-33353236D01*
X34470457Y-33328404D01*
X34481734Y-33304562D01*
X34495293Y-33281940D01*
X34511003Y-33260757D01*
X34528715Y-33241215D01*
X34548257Y-33223503D01*
X34569440Y-33207793D01*
X34592062Y-33194234D01*
X34615904Y-33182957D01*
X34640736Y-33174072D01*
X34666319Y-33167664D01*
X34692408Y-33163794D01*
X34718750Y-33162500D01*
X35681250Y-33162500D01*
X35707592Y-33163794D01*
X35707592Y-33163794D01*
G37*
D13*
X35200000Y-33700000D03*
D12*
G36*
X35707592Y-31288794D02*
X35733681Y-31292664D01*
X35759264Y-31299072D01*
X35784096Y-31307957D01*
X35807938Y-31319234D01*
X35830560Y-31332793D01*
X35851743Y-31348503D01*
X35871285Y-31366215D01*
X35888997Y-31385757D01*
X35904707Y-31406940D01*
X35918266Y-31429562D01*
X35929543Y-31453404D01*
X35938428Y-31478236D01*
X35944836Y-31503819D01*
X35948706Y-31529908D01*
X35950000Y-31556250D01*
X35950000Y-32093750D01*
X35948706Y-32120092D01*
X35944836Y-32146181D01*
X35938428Y-32171764D01*
X35929543Y-32196596D01*
X35918266Y-32220438D01*
X35904707Y-32243060D01*
X35888997Y-32264243D01*
X35871285Y-32283785D01*
X35851743Y-32301497D01*
X35830560Y-32317207D01*
X35807938Y-32330766D01*
X35784096Y-32342043D01*
X35759264Y-32350928D01*
X35733681Y-32357336D01*
X35707592Y-32361206D01*
X35681250Y-32362500D01*
X34718750Y-32362500D01*
X34692408Y-32361206D01*
X34666319Y-32357336D01*
X34640736Y-32350928D01*
X34615904Y-32342043D01*
X34592062Y-32330766D01*
X34569440Y-32317207D01*
X34548257Y-32301497D01*
X34528715Y-32283785D01*
X34511003Y-32264243D01*
X34495293Y-32243060D01*
X34481734Y-32220438D01*
X34470457Y-32196596D01*
X34461572Y-32171764D01*
X34455164Y-32146181D01*
X34451294Y-32120092D01*
X34450000Y-32093750D01*
X34450000Y-31556250D01*
X34451294Y-31529908D01*
X34455164Y-31503819D01*
X34461572Y-31478236D01*
X34470457Y-31453404D01*
X34481734Y-31429562D01*
X34495293Y-31406940D01*
X34511003Y-31385757D01*
X34528715Y-31366215D01*
X34548257Y-31348503D01*
X34569440Y-31332793D01*
X34592062Y-31319234D01*
X34615904Y-31307957D01*
X34640736Y-31299072D01*
X34666319Y-31292664D01*
X34692408Y-31288794D01*
X34718750Y-31287500D01*
X35681250Y-31287500D01*
X35707592Y-31288794D01*
X35707592Y-31288794D01*
G37*
D13*
X35200000Y-31825000D03*
G04 #@! TD*
D12*
G04 #@! TO.C,R17*
G36*
X22107592Y-29901294D02*
X22133681Y-29905164D01*
X22159264Y-29911572D01*
X22184096Y-29920457D01*
X22207938Y-29931734D01*
X22230560Y-29945293D01*
X22251743Y-29961003D01*
X22271285Y-29978715D01*
X22288997Y-29998257D01*
X22304707Y-30019440D01*
X22318266Y-30042062D01*
X22329543Y-30065904D01*
X22338428Y-30090736D01*
X22344836Y-30116319D01*
X22348706Y-30142408D01*
X22350000Y-30168750D01*
X22350000Y-30706250D01*
X22348706Y-30732592D01*
X22344836Y-30758681D01*
X22338428Y-30784264D01*
X22329543Y-30809096D01*
X22318266Y-30832938D01*
X22304707Y-30855560D01*
X22288997Y-30876743D01*
X22271285Y-30896285D01*
X22251743Y-30913997D01*
X22230560Y-30929707D01*
X22207938Y-30943266D01*
X22184096Y-30954543D01*
X22159264Y-30963428D01*
X22133681Y-30969836D01*
X22107592Y-30973706D01*
X22081250Y-30975000D01*
X21118750Y-30975000D01*
X21092408Y-30973706D01*
X21066319Y-30969836D01*
X21040736Y-30963428D01*
X21015904Y-30954543D01*
X20992062Y-30943266D01*
X20969440Y-30929707D01*
X20948257Y-30913997D01*
X20928715Y-30896285D01*
X20911003Y-30876743D01*
X20895293Y-30855560D01*
X20881734Y-30832938D01*
X20870457Y-30809096D01*
X20861572Y-30784264D01*
X20855164Y-30758681D01*
X20851294Y-30732592D01*
X20850000Y-30706250D01*
X20850000Y-30168750D01*
X20851294Y-30142408D01*
X20855164Y-30116319D01*
X20861572Y-30090736D01*
X20870457Y-30065904D01*
X20881734Y-30042062D01*
X20895293Y-30019440D01*
X20911003Y-29998257D01*
X20928715Y-29978715D01*
X20948257Y-29961003D01*
X20969440Y-29945293D01*
X20992062Y-29931734D01*
X21015904Y-29920457D01*
X21040736Y-29911572D01*
X21066319Y-29905164D01*
X21092408Y-29901294D01*
X21118750Y-29900000D01*
X22081250Y-29900000D01*
X22107592Y-29901294D01*
X22107592Y-29901294D01*
G37*
D13*
X21600000Y-30437500D03*
D12*
G36*
X22107592Y-28026294D02*
X22133681Y-28030164D01*
X22159264Y-28036572D01*
X22184096Y-28045457D01*
X22207938Y-28056734D01*
X22230560Y-28070293D01*
X22251743Y-28086003D01*
X22271285Y-28103715D01*
X22288997Y-28123257D01*
X22304707Y-28144440D01*
X22318266Y-28167062D01*
X22329543Y-28190904D01*
X22338428Y-28215736D01*
X22344836Y-28241319D01*
X22348706Y-28267408D01*
X22350000Y-28293750D01*
X22350000Y-28831250D01*
X22348706Y-28857592D01*
X22344836Y-28883681D01*
X22338428Y-28909264D01*
X22329543Y-28934096D01*
X22318266Y-28957938D01*
X22304707Y-28980560D01*
X22288997Y-29001743D01*
X22271285Y-29021285D01*
X22251743Y-29038997D01*
X22230560Y-29054707D01*
X22207938Y-29068266D01*
X22184096Y-29079543D01*
X22159264Y-29088428D01*
X22133681Y-29094836D01*
X22107592Y-29098706D01*
X22081250Y-29100000D01*
X21118750Y-29100000D01*
X21092408Y-29098706D01*
X21066319Y-29094836D01*
X21040736Y-29088428D01*
X21015904Y-29079543D01*
X20992062Y-29068266D01*
X20969440Y-29054707D01*
X20948257Y-29038997D01*
X20928715Y-29021285D01*
X20911003Y-29001743D01*
X20895293Y-28980560D01*
X20881734Y-28957938D01*
X20870457Y-28934096D01*
X20861572Y-28909264D01*
X20855164Y-28883681D01*
X20851294Y-28857592D01*
X20850000Y-28831250D01*
X20850000Y-28293750D01*
X20851294Y-28267408D01*
X20855164Y-28241319D01*
X20861572Y-28215736D01*
X20870457Y-28190904D01*
X20881734Y-28167062D01*
X20895293Y-28144440D01*
X20911003Y-28123257D01*
X20928715Y-28103715D01*
X20948257Y-28086003D01*
X20969440Y-28070293D01*
X20992062Y-28056734D01*
X21015904Y-28045457D01*
X21040736Y-28036572D01*
X21066319Y-28030164D01*
X21092408Y-28026294D01*
X21118750Y-28025000D01*
X22081250Y-28025000D01*
X22107592Y-28026294D01*
X22107592Y-28026294D01*
G37*
D13*
X21600000Y-28562500D03*
G04 #@! TD*
D12*
G04 #@! TO.C,R18*
G36*
X19307592Y-28026294D02*
X19333681Y-28030164D01*
X19359264Y-28036572D01*
X19384096Y-28045457D01*
X19407938Y-28056734D01*
X19430560Y-28070293D01*
X19451743Y-28086003D01*
X19471285Y-28103715D01*
X19488997Y-28123257D01*
X19504707Y-28144440D01*
X19518266Y-28167062D01*
X19529543Y-28190904D01*
X19538428Y-28215736D01*
X19544836Y-28241319D01*
X19548706Y-28267408D01*
X19550000Y-28293750D01*
X19550000Y-28831250D01*
X19548706Y-28857592D01*
X19544836Y-28883681D01*
X19538428Y-28909264D01*
X19529543Y-28934096D01*
X19518266Y-28957938D01*
X19504707Y-28980560D01*
X19488997Y-29001743D01*
X19471285Y-29021285D01*
X19451743Y-29038997D01*
X19430560Y-29054707D01*
X19407938Y-29068266D01*
X19384096Y-29079543D01*
X19359264Y-29088428D01*
X19333681Y-29094836D01*
X19307592Y-29098706D01*
X19281250Y-29100000D01*
X18318750Y-29100000D01*
X18292408Y-29098706D01*
X18266319Y-29094836D01*
X18240736Y-29088428D01*
X18215904Y-29079543D01*
X18192062Y-29068266D01*
X18169440Y-29054707D01*
X18148257Y-29038997D01*
X18128715Y-29021285D01*
X18111003Y-29001743D01*
X18095293Y-28980560D01*
X18081734Y-28957938D01*
X18070457Y-28934096D01*
X18061572Y-28909264D01*
X18055164Y-28883681D01*
X18051294Y-28857592D01*
X18050000Y-28831250D01*
X18050000Y-28293750D01*
X18051294Y-28267408D01*
X18055164Y-28241319D01*
X18061572Y-28215736D01*
X18070457Y-28190904D01*
X18081734Y-28167062D01*
X18095293Y-28144440D01*
X18111003Y-28123257D01*
X18128715Y-28103715D01*
X18148257Y-28086003D01*
X18169440Y-28070293D01*
X18192062Y-28056734D01*
X18215904Y-28045457D01*
X18240736Y-28036572D01*
X18266319Y-28030164D01*
X18292408Y-28026294D01*
X18318750Y-28025000D01*
X19281250Y-28025000D01*
X19307592Y-28026294D01*
X19307592Y-28026294D01*
G37*
D13*
X18800000Y-28562500D03*
D12*
G36*
X19307592Y-29901294D02*
X19333681Y-29905164D01*
X19359264Y-29911572D01*
X19384096Y-29920457D01*
X19407938Y-29931734D01*
X19430560Y-29945293D01*
X19451743Y-29961003D01*
X19471285Y-29978715D01*
X19488997Y-29998257D01*
X19504707Y-30019440D01*
X19518266Y-30042062D01*
X19529543Y-30065904D01*
X19538428Y-30090736D01*
X19544836Y-30116319D01*
X19548706Y-30142408D01*
X19550000Y-30168750D01*
X19550000Y-30706250D01*
X19548706Y-30732592D01*
X19544836Y-30758681D01*
X19538428Y-30784264D01*
X19529543Y-30809096D01*
X19518266Y-30832938D01*
X19504707Y-30855560D01*
X19488997Y-30876743D01*
X19471285Y-30896285D01*
X19451743Y-30913997D01*
X19430560Y-30929707D01*
X19407938Y-30943266D01*
X19384096Y-30954543D01*
X19359264Y-30963428D01*
X19333681Y-30969836D01*
X19307592Y-30973706D01*
X19281250Y-30975000D01*
X18318750Y-30975000D01*
X18292408Y-30973706D01*
X18266319Y-30969836D01*
X18240736Y-30963428D01*
X18215904Y-30954543D01*
X18192062Y-30943266D01*
X18169440Y-30929707D01*
X18148257Y-30913997D01*
X18128715Y-30896285D01*
X18111003Y-30876743D01*
X18095293Y-30855560D01*
X18081734Y-30832938D01*
X18070457Y-30809096D01*
X18061572Y-30784264D01*
X18055164Y-30758681D01*
X18051294Y-30732592D01*
X18050000Y-30706250D01*
X18050000Y-30168750D01*
X18051294Y-30142408D01*
X18055164Y-30116319D01*
X18061572Y-30090736D01*
X18070457Y-30065904D01*
X18081734Y-30042062D01*
X18095293Y-30019440D01*
X18111003Y-29998257D01*
X18128715Y-29978715D01*
X18148257Y-29961003D01*
X18169440Y-29945293D01*
X18192062Y-29931734D01*
X18215904Y-29920457D01*
X18240736Y-29911572D01*
X18266319Y-29905164D01*
X18292408Y-29901294D01*
X18318750Y-29900000D01*
X19281250Y-29900000D01*
X19307592Y-29901294D01*
X19307592Y-29901294D01*
G37*
D13*
X18800000Y-30437500D03*
G04 #@! TD*
D18*
G04 #@! TO.C,SW1*
X44400000Y-29200000D03*
D17*
X46400000Y-29200000D03*
G04 #@! TD*
D30*
G04 #@! TO.C,U1*
X44850000Y-45200000D03*
X43900000Y-45200000D03*
X42950000Y-45200000D03*
X42950000Y-47400000D03*
X44850000Y-47400000D03*
G04 #@! TD*
D29*
G04 #@! TO.C,U2*
X44900000Y-35150000D03*
X44900000Y-33250000D03*
X42900000Y-34200000D03*
G04 #@! TD*
D31*
G04 #@! TO.C,U3*
X4650000Y-17050000D03*
X5950000Y-17050000D03*
X5300000Y-15150000D03*
X5300000Y-17050000D03*
X5950000Y-15150000D03*
X4650000Y-15150000D03*
G04 #@! TD*
D32*
G04 #@! TO.C,U5*
X37400000Y-36500000D03*
X36300000Y-36500000D03*
X35200000Y-36500000D03*
X34100000Y-36500000D03*
X33000000Y-36500000D03*
X31900000Y-36500000D03*
X30800000Y-36500000D03*
X27800000Y-36500000D03*
X26700000Y-36500000D03*
X25600000Y-36500000D03*
X24500000Y-36500000D03*
X23400000Y-36500000D03*
X23400000Y-48700000D03*
X24500000Y-48700000D03*
X25600000Y-48700000D03*
X26700000Y-48700000D03*
X27800000Y-48700000D03*
X30800000Y-48700000D03*
X31900000Y-48700000D03*
X33000000Y-48700000D03*
X34100000Y-48700000D03*
X35200000Y-48700000D03*
X36300000Y-48700000D03*
X37400000Y-48700000D03*
G04 #@! TD*
D33*
G04 #@! TO.C,U6*
X15750000Y-61750000D03*
X15750000Y-60450000D03*
X17650000Y-61100000D03*
X15750000Y-61100000D03*
X17650000Y-60450000D03*
X17650000Y-61750000D03*
G04 #@! TD*
D34*
G04 #@! TO.C,U7*
X17400000Y-23700000D03*
X16600000Y-23700000D03*
X15800000Y-23700000D03*
X15000000Y-23700000D03*
X14200000Y-23700000D03*
X13400000Y-23700000D03*
D35*
X13400000Y-24700000D03*
D34*
X13400000Y-25700000D03*
X14200000Y-25700000D03*
X15000000Y-25700000D03*
X15800000Y-25700000D03*
X16600000Y-25700000D03*
X17400000Y-25700000D03*
D35*
X17400000Y-24700000D03*
G04 #@! TD*
D36*
G04 #@! TO.C,Y1*
X14450000Y-29400000D03*
X10750000Y-29400000D03*
G04 #@! TD*
D16*
G04 #@! TO.C,*
X5000000Y-57000000D03*
G04 #@! TD*
D37*
G04 #@! TO.C,AE1*
X24500000Y-33500000D03*
G04 #@! TD*
M02*
